<svg clip-rule="evenodd" fill-rule="evenodd" height="3.8mm" image-rendering="optimizeQuality" shape-rendering="geometricPrecision" text-rendering="geometricPrecision" viewBox="0 0 38.8 38.8" width="3.8mm" xmlns="http://www.w3.org/2000/svg"><path d="m19.4 38.8c-2.68 0-5.19-.5-7.54-1.49-2.35-1-4.42-2.38-6.2-4.16s-3.17-3.85-4.16-6.2c-1-2.35-1.49-4.87-1.49-7.54 0-2.71.5-5.23 1.49-7.57 1-2.34 2.38-4.39 4.16-6.17s3.85-3.17 6.2-4.16c2.35-1 4.87-1.49 7.54-1.49 2.71 0 5.23.5 7.57 1.49 2.34 1 4.39 2.38 6.17 4.16s3.17 3.84 4.16 6.17c1 2.34 1.49 4.86 1.49 7.57 0 2.68-.5 5.19-1.49 7.54-1 2.35-2.38 4.42-4.16 6.2s-3.84 3.17-6.17 4.16c-2.34 1-4.86 1.49-7.57 1.49zm-13.91-11.37h27.83l-13.91-24.1-13.91 24.1zm5.78-3.33 8.13-14.11 8.13 14.11h-16.27z" fill="#effa6e" fill-rule="nonzero"/></svg>