<svg clip-rule="evenodd" fill-rule="evenodd" height="3.8mm" image-rendering="optimizeQuality" shape-rendering="geometricPrecision" text-rendering="geometricPrecision" viewBox="0 0 154.93 154.93" width="3.8mm" xmlns="http://www.w3.org/2000/svg"><path d="m77.47 154.93c-10.69 0-20.74-1.99-30.13-5.96-9.39-3.98-17.64-9.52-24.74-16.63-7.11-7.11-12.65-15.36-16.63-24.75-3.98-9.39-5.96-19.43-5.96-30.13 0-10.82 1.99-20.9 5.96-30.22 3.98-9.32 9.52-17.54 16.63-24.65s15.35-12.65 24.74-16.63c9.39-3.98 19.43-5.96 30.13-5.96 10.82 0 20.9 1.99 30.22 5.96 9.32 3.98 17.54 9.52 24.65 16.63s12.65 15.32 16.63 24.65c3.98 9.32 5.96 19.4 5.96 30.22 0 10.69-1.99 20.74-5.96 30.13-3.98 9.39-9.52 17.64-16.63 24.75s-15.32 12.65-24.65 16.63c-9.32 3.98-19.4 5.96-30.22 5.96zm-55.56-45.38h111.11l-55.56-96.25-55.56 96.25zm23.08-13.3 32.47-56.34 32.47 56.34h-64.95z" fill="#e6e6e6" fill-rule="nonzero"/></svg>