<?xml version="1.0" encoding="UTF-8"?>
<!DOCTYPE svg PUBLIC "-//W3C//DTD SVG 1.1//EN" "http://www.w3.org/Graphics/SVG/1.1/DTD/svg11.dtd">
<!-- Creator: CorelDRAW -->
<svg xmlns="http://www.w3.org/2000/svg" xml:space="preserve" width="3.8mm" height="3.8mm" version="1.1" shape-rendering="geometricPrecision" text-rendering="geometricPrecision" image-rendering="optimizeQuality" fill-rule="evenodd" clip-rule="evenodd"
viewBox="0 0 38.8 38.8"
 xmlns:xlink="http://www.w3.org/1999/xlink"
 xmlns:xodm="http://www.corel.com/coreldraw/odm/2003">
 <g id="Lights">
  <metadata id="CorelCorpID_0Corel-Layer"/>
  <path id="Accent_x0020_Lit" fill="#EFFA6E" fill-rule="nonzero" d="M19.4 38.8c-2.68,0 -5.19,-0.5 -7.54,-1.49 -2.35,-1 -4.42,-2.38 -6.2,-4.16 -1.78,-1.78 -3.17,-3.85 -4.16,-6.2 -1,-2.35 -1.49,-4.87 -1.49,-7.54 0,-2.71 0.5,-5.23 1.49,-7.57 1,-2.34 2.38,-4.39 4.16,-6.17 1.78,-1.78 3.85,-3.17 6.2,-4.16 2.35,-1 4.87,-1.49 7.54,-1.49 2.71,0 5.23,0.5 7.57,1.49 2.34,1 4.39,2.38 6.17,4.16 1.78,1.78 3.17,3.84 4.16,6.17 1,2.34 1.49,4.86 1.49,7.57 0,2.68 -0.5,5.19 -1.49,7.54 -1,2.35 -2.38,4.42 -4.16,6.2 -1.78,1.78 -3.84,3.17 -6.17,4.16 -2.34,1 -4.86,1.49 -7.57,1.49zm-13.91 -11.37l27.83 0 -13.91 -24.1 -13.91 24.1zm5.78 -3.33l8.13 -14.11 8.13 14.11 -16.27 0z"/>
 </g>
</svg>
