<svg clip-rule="evenodd" fill-rule="evenodd" height="128.5mm" image-rendering="optimizeQuality" shape-rendering="geometricPrecision" text-rendering="geometricPrecision" viewBox="0 0 11176 12850" width="111.76mm" xmlns="http://www.w3.org/2000/svg"><g fill-rule="nonzero"><g fill="#333"><path d="m608.49 477.47c5.23 34.2 18.53 69.99 39.76 107.2 21.22 37.21 44.35 76.96 69.54 119.4 25.02 42.6 58.12 100.39 98.99 173.39 40.86 73.16 70.96 128.27 90.12 165.48 19.17 37.37 33.9 60.02 43.87 68.09 10.15 8.08 15.85 15.84 17.11 23.28h-137.8c-1.74-8.71 3.32-15.04 15.37-18.69 11.87-3.8 17.89-9.97 17.89-18.84-13.93-35.95-28.67-69.67-44.03-101.03-15.2-31.35-31.68-63.02-49.1-95.01-17.59-32.14-38.96-69.83-64.31-113.22h-255.96c-17.1 32.94-34.69 66.67-52.58 101.35-17.9 34.67-34.21 67.93-48.95 100.07-14.57 31.99-25.49 57.01-32.46 75.22-6.98 18.21-10.46 28.66-10.46 31.35 0 6.18 4.43 12.04 13.31 17.74 8.87 5.7 13.3 9.82 13.3 12.51 0 3.01-2.22 5.86-6.65 8.55h-47.2-9.83-8.55-7.92c-8.86 0-17.57-.16-26.29-.63-8.71-.48-17.26-1.27-25.66-2.7 39.76-32.77 75.24-72.68 106.6-119.55 31.2-46.71 68.11-112.75 110.71-197.62 42.77-84.88 72.23-143.47 88.54-175.3 16.48-31.99 32.95-62.07 49.59-90.1 16.62-28.03 34.36-51.62 53.05-70.94zm-33.58 102.61c-13.62 15.36-29.46 37.53-47.83 66.82-18.38 29.14-32.79 53.37-43.24 72.69-10.61 19.16-19.01 34.83-25.66 47.03h234.1c-13.62-28.82-28.99-57.33-46.25-85.35-17.27-28.19-37.85-60.49-61.93-97.23z"/><path d="m1069.56 834.55c3.8-3.48 8.71-14.25 14.74-32.3 5.86-18.06 14.09-27.08 24.54-27.08 4.75 0 10.46 1.27 16.96 3.96 0 10.13-2.54 20.9-7.46 32.62-5.06 11.72-12.19 21.06-21.37 28.03-1.75-.48-5.86-.95-12.36-1.27-6.66-.48-11.57-1.74-15.05-3.96zm32.63 40.38c.48 40.06 1.11 80.13 2.06 120.35.79 40.22 1.9 67.77 3.33 82.82 1.26 14.88 4.59 23.59 10.13 25.96 5.39 2.38 12.04 3.65 19.96 3.65 8.71 0 15.68-.64 20.9-1.9v6.01c-12.19 7.29-26.44 12.67-42.92 16.47-16.31 3.8-32.46 5.7-48.15 5.86-2.53-10.92-4.43-22.01-5.54-33.09-1.11-11.09-1.58-24.39-1.58-39.59 0-7.92.15-19.95.63-36.42.47-16.31.63-28.35.63-36.27v-8.55c0-21.37-1.11-37.53-3.32-48.29-2.22-10.93-6.02-16.47-11.72-16.47-2.69 0-6.65.63-12.2 1.74-5.39.95-8.55 1.58-9.5 1.58-5.71 0-9.82-2.06-12.36-5.86 13.46-4.9 27.09-9.65 40.55-14.41 13.94-6.17 26.93-13.93 38.65-23.59z"/><path d="m1319.18 873.5c10.94-2.21 20.44-3.32 28.2-3.32 15.85 0 29.78 3.17 42.29 9.5 12.52 6.33 23.45 16.94 32.79 31.51 9.34 14.73 16.78 27.4 22.02 37.85 5.23 10.45 7.76 21.22 7.76 32.14 0 8.87-6.02 25.18-18.06 49.25-11.88 24.23-29.46 47.51-52.43 69.99-22.81 22.65-51 33.89-84.1 33.89-3.17 0-5.07 0-6.02 0-21.7 0-41.02-6.49-57.98-19.32-16.78-12.98-30.72-29.14-41.97-48.45-11.08-19.48-16.63-37.06-16.63-52.89 0-12.99 5.39-29.3 16-48.78 10.78-19.47 26.93-37.84 48.62-55.42 21.55-17.42 48.16-29.45 79.51-35.95zm26.3 37.06c-6.65-3.8-13.3-6.65-19.95-8.55-6.82-1.74-13.79-2.54-20.76-2.54-14.41 0-28.19 3.65-41.18 11.09-13.14 7.6-24.71 17.1-34.84 28.98-9.98 11.87-15.05 24.86-15.05 38.95 0 7.76.95 14.89 2.69 21.06 1.75 6.02 6.02 17.9 12.99 35.47 7.12 17.58 19.01 32.47 35.8 44.82 16.79 12.19 37.06 18.37 60.67 18.37 16.94 0 31.67-3.96 44.19-11.88 12.5-7.92 23.27-18.84 32.47-32.94 9.18-13.93 13.77-28.5 13.77-43.39 0-13.14-3.48-26.6-10.13-40.53-6.82-13.78-14.74-24.87-23.92-33.1-9.19-8.39-21.55-16.94-36.75-25.81z"/><path d="m1480.27 932.1c8.25-9.19 22.18-20.59 41.66-34.37 19.64-13.77 31.2-22.01 34.69-24.7 1.74 3.17 2.53 7.28 2.53 12.03 0 3.96.16 7.92.32 11.72.16 3.96 1.9 6.97 4.92 9.19 13.61-7.76 29.61-14.73 48.3-20.91 18.53-6.17 36.91-9.18 54.8-9.18 13.15 0 25.03 2.06 35.48 6.18 10.61 4.11 19.8 10.76 27.57 19.95 7.91 9.18 13.3 19.16 16.15 29.77 2.85 10.77 4.27 22.8 4.27 36.42 0 7.44-.95 21.38-2.85 42.12-1.74 20.74-2.69 34.36-2.69 41.01 0 7.76.16 15.05.64 21.54.47 6.49 1.42 12.83 3 19 1.59 6.18 4.44 10.93 8.56 14.41 4.11 3.49 10.93 5.23 20.12 5.23 3.16 0 6.81-.32 11.24-.95.95 6.01-.95 9.82-5.23 11.08-6.65.48-15.2 2.22-25.98 5.23-10.76 3.01-23.27 4.59-37.85 4.59-4.75 0-8.55-.32-11.09-.79-1.74-9.5-2.85-16.47-3.01-20.9-.15-4.28-.31-7.76-.31-10.46 0-9.97 1.42-28.66 4.27-55.58 2.85-27.08 4.28-45.44 4.28-55.1 0-20.43-3.01-37.85-8.87-52.1-5.86-14.09-15.52-25.34-28.83-33.41-13.3-8.08-27.24-12.04-41.66-12.04-19.63 0-35.63 6.18-48.14 18.37-12.51 12.35-21.07 28.03-25.83 47.03-4.9 19-7.28 40.86-7.28 65.4 0 16.15.16 27.24.63 33.25.48 5.86 2.06 24.39 5.07 55.59 0 5.22 5.24 9.02 15.53 11.4 10.29 2.37 15.83 5.22 16.78 8.23-9.65.95-19 1.74-28.02 2.69-9.04.8-17.59 1.27-25.98 1.27-11.4 0-19.65-.32-24.72-.95-5.06-.63-11.71-2.06-20.11-4.28 9.35-9.65 15.84-21.69 19.32-35.94 3.64-14.25 5.39-31.67 5.39-52.26 0-14.09-.8-33.25-2.22-57.32-1.43-24.07-2.06-39.11-2.06-44.81 0-6.18-1.74-9.19-5.23-9.19-1.74 0-5.22 1.11-10.13 3.33-5.07 2.21-8.39 3.16-10.13 3.16-2.7 0-5.08-1.26-7.3-3.95z"/></g><g fill="#7700a6"><path d="m608.49 467.45c5.23 34.2 18.54 69.99 39.76 107.2 21.23 37.21 44.35 76.96 69.54 119.4 25.03 42.6 58.12 100.39 98.99 173.39 40.86 73.16 70.96 128.27 90.13 165.48 19.16 37.37 33.89 60.02 43.87 68.09 10.14 8.08 15.84 15.84 17.1 23.28h-137.79c-1.74-8.71 3.32-15.04 15.36-18.69 11.87-3.8 17.9-9.97 17.9-18.84-13.94-35.95-28.67-69.67-44.04-101.03-15.2-31.35-31.67-63.02-49.1-95.01-17.58-32.14-38.96-69.83-64.3-113.22h-255.97c-17.1 32.94-34.69 66.67-52.58 101.35-17.89 34.67-34.21 67.93-48.94 100.07-14.58 31.99-25.5 57.01-32.47 75.22s-10.45 28.66-10.45 31.35c0 6.18 4.43 12.04 13.3 17.74s13.3 9.82 13.3 12.51c0 3.01-2.22 5.86-6.65 8.55h-47.2-9.82-8.55-7.93c-8.86 0-17.57-.16-26.28-.63-8.71-.48-17.27-1.27-25.67-2.7 39.76-32.77 75.24-72.68 106.61-119.55 31.2-46.71 68.1-112.75 110.7-197.62 42.78-84.88 72.23-143.47 88.55-175.3 16.47-31.99 32.94-62.07 49.58-90.1 16.62-28.03 34.37-51.62 53.05-70.94zm-33.58 102.61c-13.62 15.36-29.45 37.53-47.83 66.82-18.37 29.14-32.79 53.37-43.24 72.69-10.61 19.16-19 34.83-25.66 47.03h234.1c-13.62-28.82-28.98-57.33-46.25-85.35-17.26-28.19-37.85-60.49-61.92-97.23z"/><path d="m1069.57 824.53c3.8-3.48 8.71-14.25 14.73-32.3 5.86-18.06 14.09-27.08 24.55-27.08 4.75 0 10.45 1.27 16.95 3.96 0 10.13-2.54 20.9-7.45 32.62-5.06 11.72-12.19 21.06-21.38 28.03-1.75-.48-5.86-.95-12.36-1.27-6.65-.48-11.56-1.74-15.04-3.96zm32.62 40.38c.48 40.06 1.11 80.13 2.06 120.35.79 40.22 1.91 67.77 3.34 82.82 1.26 14.88 4.59 23.59 10.13 25.96 5.38 2.38 12.03 3.65 19.95 3.65 8.72 0 15.69-.64 20.91-1.9v6.01c-12.19 7.29-26.45 12.67-42.92 16.47-16.32 3.8-32.47 5.7-48.15 5.86-2.54-10.92-4.44-22.01-5.55-33.09-1.11-11.09-1.58-24.39-1.58-39.59 0-7.92.15-19.95.63-36.42.47-16.31.63-28.35.63-36.27v-8.55c0-21.37-1.11-37.53-3.32-48.29-2.22-10.93-6.02-16.47-11.72-16.47-2.69 0-6.65.63-12.19 1.74-5.39.95-8.55 1.58-9.5 1.58-5.72 0-9.83-2.06-12.37-5.86 13.47-4.9 27.09-9.65 40.55-14.41 13.95-6.17 26.93-13.93 38.65-23.59z"/><path d="m1319.19 863.48c10.93-2.21 20.43-3.32 28.19-3.32 15.85 0 29.78 3.17 42.3 9.5 12.51 6.33 23.44 16.94 32.78 31.51 9.35 14.73 16.79 27.4 22.02 37.85s7.76 21.22 7.76 32.14c0 8.87-6.02 25.18-18.05 49.25-11.89 24.23-29.47 47.51-52.44 69.99-22.8 22.65-51 33.89-84.1 33.89-3.17 0-5.07 0-6.02 0-21.69 0-41.02-6.49-57.97-19.32-16.79-12.98-30.73-29.14-41.97-48.45-11.09-19.48-16.64-37.06-16.64-52.89 0-12.99 5.39-29.3 16.01-48.78 10.77-19.47 26.92-37.84 48.62-55.42 21.54-17.42 48.15-29.45 79.51-35.95zm26.29 37.06c-6.65-3.8-13.3-6.65-19.95-8.55-6.81-1.74-13.78-2.54-20.76-2.54-14.41 0-28.18 3.65-41.18 11.09-13.14 7.6-24.7 17.1-34.83 28.98-9.99 11.87-15.06 24.86-15.06 38.95 0 7.76.95 14.89 2.69 21.06 1.75 6.02 6.02 17.9 13 35.47 7.12 17.58 19 32.47 35.79 44.82 16.79 12.19 37.06 18.37 60.67 18.37 16.94 0 31.68-3.96 44.19-11.88 12.5-7.92 23.28-18.84 32.47-32.94 9.18-13.93 13.77-28.5 13.77-43.39 0-13.14-3.48-26.6-10.13-40.53-6.81-13.78-14.73-24.87-23.92-33.1-9.19-8.39-21.54-16.94-36.75-25.81z"/><path d="m1480.28 922.08c8.24-9.19 22.17-20.59 41.66-34.37 19.63-13.77 31.2-22.01 34.69-24.7 1.74 3.17 2.53 7.28 2.53 12.03 0 3.96.16 7.92.32 11.72.16 3.96 1.9 6.97 4.91 9.19 13.61-7.76 29.62-14.73 48.3-20.91 18.54-6.17 36.91-9.18 54.8-9.18 13.16 0 25.03 2.06 35.48 6.18 10.62 4.11 19.81 10.76 27.57 19.95 7.91 9.18 13.3 19.16 16.15 29.77 2.85 10.77 4.27 22.8 4.27 36.42 0 7.44-.95 21.38-2.85 42.12-1.74 20.74-2.69 34.36-2.69 41.01 0 7.76.16 15.05.64 21.54.47 6.49 1.42 12.83 3 19 1.59 6.18 4.45 10.93 8.57 14.41 4.11 3.49 10.92 5.23 20.11 5.23 3.16 0 6.81-.32 11.24-.95.95 6.01-.95 9.82-5.23 11.08-6.65.48-15.2 2.22-25.97 5.23s-23.28 4.59-37.85 4.59c-4.75 0-8.56-.32-11.1-.79-1.74-9.5-2.85-16.47-3.01-20.9-.15-4.28-.31-7.76-.31-10.46 0-9.97 1.42-28.66 4.27-55.58 2.86-27.08 4.29-45.44 4.29-55.1 0-20.43-3.02-37.85-8.88-52.1-5.86-14.09-15.52-25.34-28.82-33.41-13.31-8.08-27.25-12.04-41.66-12.04-19.64 0-35.63 6.18-48.15 18.37-12.51 12.35-21.07 28.03-25.82 47.03-4.9 19-7.28 40.86-7.28 65.4 0 16.15.16 27.24.63 33.25.48 5.86 2.06 24.39 5.07 55.59 0 5.22 5.23 9.02 15.52 11.4 10.29 2.37 15.83 5.22 16.79 8.23-9.66.95-19.01 1.74-28.03 2.69-9.03.8-17.59 1.27-25.98 1.27-11.4 0-19.64-.32-24.71-.95s-11.72-2.06-20.12-4.28c9.35-9.65 15.84-21.69 19.33-35.94 3.64-14.25 5.39-31.67 5.39-52.26 0-14.09-.8-33.25-2.22-57.32-1.43-24.07-2.06-39.11-2.06-44.81 0-6.18-1.74-9.19-5.24-9.19-1.74 0-5.22 1.11-10.13 3.33-5.07 2.21-8.39 3.16-10.13 3.16-2.7 0-5.07-1.26-7.29-3.95z"/></g></g><path d="m4887.1 7219.63c0 224.51 30.61 163.28 61.23 275.54 10.21 20.41 10.21 61.23 20.41 81.64-20.41-10.2-20.41-20.41-40.82-40.82l-30.62-51.02c0 71.43 20.41 193.9 40.83 244.93l132.67 295.95c20.41 30.62 40.82 40.82 61.23 81.64 20.41 51.03 40.82 132.67 102.05 132.67 40.82 0-30.61-20.41 10.21 0 0 61.24-10.21 30.62 0 102.06 10.2 61.23 20.41 265.34 51.02 295.95 40.83 40.83 214.32-71.43 224.52-122.46-81.64 20.41-132.67 112.26-224.52 71.44-10.2-51.03-10.2-112.26-20.41-153.08-30.61-173.49-10.2-244.93-20.41-306.16l-10.2-112.26c0-91.85 663.35-51.03 683.76-30.62 40.82 20.41 0 102.05 0 163.29 0 30.61 30.61 40.82 30.61 91.84 0 20.42-30.61 51.03-40.82 71.44-20.41 71.44-40.82 224.52-40.82 295.96-71.44 20.41-102.05 0-163.29-91.85-40.82-40.82-40.82-61.23-71.43-61.23h-10.21c20.41 102.05 112.26 193.9 244.93 193.9-30.62 112.26-112.26-20.41-173.49-20.41-10.21 51.03-51.03 71.44-81.64 193.9 30.61-10.2 0 10.21 30.61-30.61 30.62-30.62 40.82-81.65 71.44-102.06v30.62h30.62c-20.41 30.61-51.03 51.02-71.44 91.85-10.21 30.61-51.03 81.64-51.03 112.26 10.21-10.21 214.31-295.96 153.08-112.26-10.2 40.82-20.41 71.43-30.61 112.26-51.03 132.67-91.85 316.36-91.85 469.44h10.2c0-61.23 20.41-122.46 30.62-183.69 10.2-61.24 30.62-112.26 51.03-163.29 30.61-91.85 40.82-234.72 122.46-295.96 10.21 40.83 0 20.41 0 30.62l-10.2 10.21c0-10.21 0 0 0 0 40.82 51.02 0 163.28-20.42 234.72l-71.43 520.47c0 51.03 0 91.85-10.21 132.67 0 40.83-10.2 81.65-40.82 102.06l10.21-183.7c0-51.03 20.41-112.26 20.41-173.49 10.2-51.03 10.2-122.47 10.2-183.7 10.21-51.02 30.62-122.46 30.62-163.28-51.03 71.43-51.03 234.72-71.44 306.16-10.21 122.46-30.62 204.11-40.82 326.57-20.41 173.49-10.21 367.39-30.62 500.06 0 61.24 0 132.67-30.61 153.08-20.41-112.25-91.85-255.13-61.24-377.59l10.21 10.2v10.21 51.02c20.41-10.2 20.41 0 20.41-30.61 0-163.29-40.82-295.96-40.82-438.83h-10.21c0 102.05 20.41 183.69 20.41 275.54h-10.2c0-51.03-112.26-663.35-132.67-734.79-10.21-20.41-10.21-10.2-20.41-30.61 0 51.02 10.2 122.46 20.41 173.49 10.2 102.05 61.23 408.21 20.41 469.45l-91.85-642.94c-10.2-122.47-40.82-173.49-10.2-295.96 0-40.82-10.21-51.03 30.61-51.03 10.21 112.26 51.03 265.34 81.64 357.19 51.03 112.26 71.44 204.11 71.44 357.19h10.21c0-91.85 10.2-91.85 0-193.9-20.41-112.26-61.23-224.52-91.85-336.78-10.21-40.82-40.82-112.26-40.82-163.29 20.41 20.42 61.23 61.24 81.64 91.85 10.21 40.82 40.82 81.65 61.23 102.06 0-61.24-30.61-91.85-51.02-142.88-20.41-40.82-20.41-61.23-81.65-81.64 10.21-30.62 0-20.41 30.62-40.82 40.82 20.41 91.85 132.67 132.67 173.49 0-51.03-81.64-214.31-122.47-244.93-20.41 10.2-30.61 20.41-51.02 30.62l-61.23 30.61c-20.42 20.41-51.03 20.41-71.44 51.03-10.21-30.62-20.41-71.44-30.62-102.06 0-40.82 0-71.43-10.2-112.25-40.83-316.37-91.85-204.11-153.08-336.78-30.62-51.03-51.03-122.47-71.44-173.49l-81.65-285.75c-30.61-173.5-61.23-102.06-61.23-418.43 0-20.41 0-40.82 0-61.23l-10.2-51.02zm765.4 2286h10.21v-112.26h-10.21zm-10.2-1071.56c0 30.61 10.2 0 10.2 0 10.21 0-10.2-30.62-10.2 0zm-112.26 1143h10.2v-112.26h-10.2zm755.2-2398.27c20.41-71.43 102.05-234.72 132.67-275.54 71.43-61.23 153.08-142.88 244.93-163.29l-102.06 153.08c-20.41 40.83-10.2 71.44-51.03 173.5-71.43 193.9-51.02 224.51-102.05 387.8-30.62 102.05-51.03 91.85-51.03 193.9 0 377.6-71.43 275.55-112.26 377.6-20.41 51.03-51.02 112.26-40.82 153.08l10.21 20.41c-20.41 10.21-20.41 0-30.62 10.21-51.02 30.61-122.46 224.52-132.67 295.95-10.2 61.24-81.64 193.91-81.64 193.91l51.03-132.67c10.2-51.03 20.41-102.06 10.2-142.88l-20.41 40.82c-10.2 81.65-40.82 214.32-102.05 255.14-20.41-91.85-10.21-91.85 10.2-183.7 10.21-51.03 10.21-71.44 10.21-122.46 10.2-132.67 71.44-142.88 91.85-183.7l132.67-285.75c20.41-30.62 30.61-51.03 51.02-81.64l112.26-306.17c10.21-61.23 0-71.43 10.21-122.46 30.61-91.85 0-81.64 51.02-224.52 20.42-61.23 51.03-122.46 71.44-193.9-30.61 20.41-51.02 61.23-71.44 91.85-30.61 30.61-51.02 51.02-91.84 71.43zm-2408.47-2030.87c10.2 30.62 10.2 51.03 20.41 91.85 10.2 40.82 20.41 40.82 30.61 81.65 40.82-61.24-10.2-91.85-10.2-112.26h40.82c10.2 10.2 20.41 20.41 30.61 30.61 51.03 20.41 102.06 81.65 122.47 122.47 20.41 30.61 30.62 40.82 51.03 71.43 20.41 20.42 30.61 40.83 51.02 71.44 20.41 20.41 40.82 40.82 51.03 71.44 10.21 51.03 0 183.7 0 244.93-30.62-30.62-20.41-51.03-20.41-112.26-30.62-214.31-81.64-204.11-102.05-275.55h-20.42c0 40.83-61.23 142.88-61.23 306.17 0 91.84 102.06 234.72 173.49 224.51l81.65-10.2 20.41-132.67c20.41 102.05-20.41 316.37-40.82 428.62 0 51.03-20.41 61.24-10.21 91.85 40.82-10.2 20.41 0 30.62-40.82 20.41-40.82 20.41-132.67 51.02-153.08 10.21 112.26 265.34 244.93 346.99 244.93-20.41-30.62-61.24-40.82-91.85-61.23-275.55-153.08-224.52-163.29-224.52-265.34 10.21 10.2 0 0 10.21 20.41 71.43 102.05 193.9 204.11 306.16 244.93 142.87 40.82 224.52 20.41 367.39 20.41l-40.82 10.2c-20.41 10.21-20.41 10.21-40.82 10.21-10.21 0-30.62 0-40.82 10.2l-30.62 10.21c61.23 10.21 102.05 20.41 173.49 20.41l-20.41 10.21s-10.2 10.2-10.2 10.2c-10.21 10.21-10.21 0-20.42 20.41-40.82-10.2 0 0-40.82-30.61 0 61.23 20.41 71.43-20.41 122.46-40.82 71.44-142.87 81.64-214.31 71.44 0-51.03 0-51.03 10.2-91.85-40.82 30.62-51.02 71.44-102.05 81.64h-142.87c-102.06-20.41-132.67-81.64-193.91-153.08-30.61-30.61-102.05-81.64-102.05-132.67 0-112.26 61.23-183.69 61.23-295.95-30.61 10.2-40.82-10.21-51.03 71.43-10.2 20.41 0 10.21-10.2 20.41v30.62c-10.21 30.62-10.21 30.62-10.21 61.23-40.82-30.61-20.41-102.05-30.61-122.46-10.21 0-71.44-71.44-81.65-81.64-163.28-132.67-142.87-306.17-81.64-489.86 10.21-30.62 20.41-61.23 30.62-91.85 10.2-40.82 30.61-51.03 0-81.64-51.03 20.41-81.65 142.87-91.85 183.69-112.26 438.83 112.26 418.42 153.08 581.71 40.82 102.05 51.03 112.26-20.41 204.11-40.82 40.82-71.44 102.05-91.85 153.08l-122.46 234.72c-20.41 51.03-61.24 122.47-71.44 163.29 71.44-51.03 142.87-224.52 183.7-306.16l51.02-71.44c10.21-20.41 0-10.21 10.21-20.41-20.41 71.44-40.82 132.67-71.44 204.11-61.23 122.46-112.26 255.13-173.49 377.59-40.82 51.03-91.85 112.26-102.06 173.5 122.47-81.65 275.55-449.04 336.78-581.71 20.41-30.62 40.82-61.23 51.03-102.05 20.41-30.62 20.41-81.65 30.62-112.26h20.41c0 91.84-10.21 81.64-20.41 142.87 30.61-20.41 30.61-20.41 61.23-40.82 0 30.62 0 20.41 10.2 40.82-40.82 0-61.23 10.21-71.43 51.03 10.2-10.21 20.41-10.21 30.61-20.41 20.41-10.21 20.41-30.62 30.62-10.21l-20.41 81.65c-20.41 91.84-61.24 142.87-81.65 224.51 0 0 0 0 0-10.2l-10.2-30.62c0-10.2 0-10.2 0-10.2-20.41 102.05-102.06 193.9-153.08 285.75-30.62 51.02-40.82 91.85-81.65 132.67-20.41 20.41-30.61 40.82-51.02 61.23-10.21 20.41-30.62 81.64-51.03 51.03 30.62-20.41 112.26-142.88 122.47-183.7-40.83 30.62-81.65 81.64-112.26 122.46-142.88 163.29-102.06 153.09-295.96 224.52-91.85 40.82-193.9 102.06-265.34 173.49-132.67 142.88-306.16 336.78-346.98 540.89-10.21 102.05-10.21 173.49-10.21 285.75h-10.2c0-224.52 20.41-418.42 112.26-612.32 255.13-520.48 530.68-398.01 663.35-520.48-132.67 0-255.14 51.03-367.4 112.26-153.08 91.85-357.19 367.4-408.21 540.89-20.41 40.82-40.83 142.87-40.83 183.69 10.21 51.03 30.62 71.44 30.62 102.06l-10.2 81.64c-30.62-142.87-71.44-142.87-20.42-316.37 71.44-193.9 102.06-224.51 204.11-398.01 71.44-153.08 142.88-244.92 142.88-428.62l20.41 20.41 20.41 20.41 30.62-20.41c10.2-10.21 20.41-10.21 30.61-20.41 102.06-61.23 183.7-132.67 265.34-214.31l91.85-91.85c61.23-61.24 336.78-459.25 398.01-551.09 61.23-122.47 122.46-102.06 81.64-255.14-40.82-132.67-142.87-234.72-204.1-357.19-40.83-81.64-102.06-153.08-153.09-224.51 61.24-10.21 81.65-20.42 122.47-61.24 20.41-10.2 71.44-91.85 71.44-112.26l-40.82-234.72s-10.21-20.41-10.21-20.41zm224.51 1683.89c0 30.62 10.21 0 10.21 0 10.2 0-10.21-30.61-10.21 0zm61.24-142.87c10.2 0-10.21-30.62-10.21 0 0 30.61 10.21 0 10.21 0zm-459.25 561.29 20.41-20.41-10.2-10.2-20.41 20.41zm20.41-204.11c30.62-51.02 91.85-142.87 102.06-183.69-30.62 20.41-40.82 51.02-61.23 81.64-10.21 30.62-10.21 20.41-20.41 51.03l-30.62 30.61v10.21zm-153.08 1377.73c10.21-10.2 10.21-10.2 20.41-20.41 10.21-30.62 0-10.2 10.21-20.41 0 40.82 10.21 30.62-30.62 40.82zm3847.43-51.03c30.62 30.62-30.61-30.61 0 0zm-193.9-1602.24c0-61.23-10.2-91.85-20.41-142.88-20.41-40.82-30.62-81.64-40.82-112.26 51.03 40.83 71.44 163.29 132.67 204.11-10.21-61.23-51.03-102.05-61.23-173.49 40.82 30.62 81.64 112.26 102.05 153.08 51.03 81.64 102.05 142.88 142.88 224.52 102.05 163.29 224.51 357.19 367.39 489.86 153.08 153.08 183.7 153.08 265.34 224.52 51.03-20.41-40.82 30.61 20.41-10.21 20.41-20.41-20.41-10.2 10.21-10.2 10.2 0 20.41 20.41 20.41 30.61 71.43 112.26-10.21 163.29 10.2 285.75v20.41c-61.23-122.46 0-173.49-51.03-204.1 0 81.64 0 112.26 20.42 173.49-30.62-30.62-51.03-142.88-153.09-173.49l91.85 132.67c30.62 51.02 51.03 81.64 71.44 153.08-30.62-20.41-61.23-91.85-122.46-132.67 10.2 30.61 51.02 71.43 71.43 112.26l30.62 20.41v10.2l-10.21 10.21c-40.82-71.44-204.1-255.14-265.33-306.16-51.03-20.41-81.65-20.41-132.67-51.03 10.2 40.82 20.41 20.41 30.61 71.44 0 20.41 20.41 30.61-71.44 51.02v-20.41c-20.41-61.23-71.43-102.05-112.26-153.08-71.43-142.87-112.25-163.28-234.72-275.54-224.52-234.73-163.29-326.58-214.31-398.01-40.82-51.03-71.44-40.82-71.44-132.67v10.2l10.21 20.41c20.41 51.03 10.2 40.82 40.82 61.24-20.41-71.44-51.03-112.26-61.24-153.09l30.62 40.83c10.21 20.41 10.21 20.41 20.41 40.82l61.23 71.44c0-61.24-102.05-142.88-122.46-204.11 40.82 10.2 61.23 51.02 102.05 102.05 61.24 61.23 91.85 224.52 153.08 336.78 61.24 102.05 306.17 428.63 398.01 489.86-10.2-40.82-71.43-91.85-91.84-122.47l-275.55-367.39c-10.21-40.82-10.21-51.03-30.62-81.64-51.02-122.47-102.05-326.58-132.67-398.01-30.61-40.83-61.23-81.65-71.43-132.67l81.64 102.05c40.82 30.62 51.03 112.26 61.23 102.05zm796.02 1132.8 10.21-10.21-61.24-61.23-10.2 10.2zm61.23 0c10.21 30.61 0 20.41 20.41 40.82-10.2-30.62 0-20.41-20.41-40.82zm-785.81-1173.62c0 30.61 10.2 0 10.2 0 10.21 0-10.2-30.62-10.2 0zm418.42 969.51 10.21-10.21-30.62-30.61-10.21 10.2zm-1449.16-796.02c20.41-10.21 122.46-112.26 132.67-173.49 20.41 10.2 40.82 10.2 61.23 20.41-61.23 112.26-71.44 112.26-102.06 224.52-10.2 30.61-40.82 91.85-71.43 112.26l-10.21-71.44c0 91.85 20.41 102.05-20.41 163.28-20.41 51.03-61.23 71.44-61.23 132.67 10.2-10.2 0 0 10.2-20.41 10.21-10.2 10.21-10.2 10.21-20.41 20.41-30.61 0-10.2 30.61-30.61-10.2 91.85-10.2 183.69-40.82 275.54-10.2 51.03 0 61.23-30.61 71.44 20.41-40.82 20.41-102.05 20.41-163.29 0-61.23 40.82-91.84 40.82-142.87-30.62 30.61-51.03 102.05-51.03 153.08h-10.2c0-61.23-10.21-81.64-10.21-142.88l-61.23 122.47c-40.82 153.08 10.2 40.82-20.41 163.28l-20.41-71.43c0-10.21 0-10.21 0-10.21-51.03-91.85-30.62-10.2-30.62-142.87-10.2 10.2 0 0-10.2 20.41-51.03 61.23-71.44 142.87-91.85 224.52l-20.41-122.47c-20.41-102.05-20.41-71.44-40.82-91.85-10.21 30.62-20.42 30.62-20.42 81.65-10.2 30.61-10.2 61.23-20.41 81.64-10.2 61.23-30.61 102.05-30.61 163.28h-20.41c0-244.92-71.44-244.92 40.82-316.36s112.26-20.41 204.11-163.29c30.61-51.03 71.43-61.23 81.64-122.46 20.41-102.06 20.41-173.49 102.05-285.75 0-10.21 10.21-10.21 10.21-20.41h10.2c71.44-71.44 10.21-10.21 71.44-40.83 0 71.44-30.61 81.65-30.61 142.88zm-91.85 449.04s20.41 10.2 20.41-40.83c-20.41 20.42-10.21 10.21-20.41 40.83zm122.46-387.81c-10.2 20.41-10.2 20.41-10.2 51.03l20.41-30.62c0-10.2 10.2 0-10.21-20.41zm224.52 1091.98c0-61.23 20.41-112.26 40.82-163.29l132.67-449.04c0 51.03-20.41 142.88-30.61 183.7-10.21 61.23-40.83 112.26-40.83 163.29 10.21-20.41 10.21-10.21 20.41-40.82 10.21-10.21 10.21-20.41 10.21-40.83 10.21-30.61 20.41-51.02 30.62-81.64 40.82-112.26 30.61-142.87 71.43-153.08 0 142.88-102.05 398.01-132.67 520.48h-71.43c-10.21 30.61 0 40.82 10.2 81.64 10.21 81.64 20.41 204.11 40.82 265.34l10.21 10.2c0-81.64-30.62-153.08-30.62-244.93 0-10.2 61.23-102.05 81.65-112.25 102.05-173.5 132.67-377.6 173.49-408.22 0 51.03-20.41 112.26-30.62 173.49-20.41 71.44-40.82 81.64-51.03 142.88 30.62-20.41 10.21-20.41 40.83-40.82-10.21 61.23-112.26 112.25-112.26 234.72 0 132.67 61.23 275.54 132.67 377.6l30.61 40.82c10.21 10.21 0 10.21 10.21 20.41-61.23-10.2-102.06-71.44-163.29-91.85 30.62 40.82 91.85 91.85 142.88 112.26 61.23 40.82 71.43 81.64 102.05 153.08 132.67 346.99 102.05 408.22 102.05 755.2 0 51.03-30.61 153.08-30.61 142.88v10.2c0-61.23-10.21-173.49-20.41-224.52-10.21-81.64 10.2-153.08-40.82-193.9 20.41 102.05 0 81.64-20.41 183.7v-10.21h-10.21c-40.82-81.64-10.21 40.82-30.62-30.61l-234.72-775.61c-81.64-193.91-132.67-265.34-132.67-510.27zm163.29 387.8 10.2-10.2-20.41-20.41-10.2 10.2zm-61.24-642.94c10.21 0-10.2-30.61-10.2 0 0 30.62 10.2 0 10.2 0zm-2928.94-357.19c40.82-40.82 20.41-51.02 40.82-30.61-30.62 20.41-30.62 40.82-30.62 40.82zm1796.15-857.25c0-51.02-40.83-102.05-51.03-153.08 0-71.44 40.82-81.64 102.05-91.85 20.41 40.82 30.62 102.06 71.44 132.67 10.21-30.61 61.23-112.26 91.85-132.67 102.05 30.62 51.03 112.26 40.82 173.49 20.41-20.41 0 0 20.41-20.41 10.21-20.41 0-10.2 10.21-20.41 10.2-20.41 10.2-10.2 30.61-20.41 40.82-10.2 40.82-40.82 91.85-51.02-10.2 51.02-51.03 61.23-81.64 91.84-91.85 61.24-51.03 153.08-61.23 204.11 0 40.82-10.21 20.41-10.21 61.23l20.41-40.82c10.21-10.2 20.41-20.41 20.41-30.61 10.21-51.03-61.23-142.88 102.06-214.32 30.61-20.41 20.41-10.2 61.23-30.61 0 102.05-81.64 91.85-102.06 163.28 40.83-10.2 51.03-30.61 71.44-61.23 20.41-10.2 51.03-40.82 71.44-51.03 0 112.26-91.85 122.47-132.67 204.11-20.41 20.41-20.41 30.62-30.62 51.03-10.2 20.41-20.41 30.61-30.61 51.03-20.41 30.61-40.82 71.43-40.82 122.46s-10.21 40.82 10.2 51.03c20.41 10.2 0 0 10.21-20.41l10.2-10.21c0-71.44 10.21-71.44 30.62-122.46 20.41-40.83 30.61-61.24 61.23-91.85 40.82-51.03 91.85-122.47 142.88-153.08-10.21-20.41-10.21-30.62-10.21-51.03 10.21-51.03-10.2-20.41 20.41-30.62 10.21-30.61-10.2-10.2 20.41-10.2 20.41 0 10.21 0 40.82 10.2 0 40.83-10.2 40.83-51.02 51.03h51.02c-20.41 61.23-91.84 122.47-132.67 173.49-51.02 51.03-91.84 112.26-132.67 173.49-40.82 91.85-10.2 71.44-10.2 163.29h20.41c10.2-61.23 0-20.41 0-71.44 0-51.02 61.23-173.49 102.05-173.49 81.65 0 91.85 132.67 91.85 193.9 0 71.44-81.64 204.11-153.08 224.52 20.41-40.82 40.82-51.03 71.44-81.64 71.44-102.06 61.23-122.47 0-214.31-61.23 30.61-112.26 142.87-193.9 214.31-71.44 81.64-112.26 193.9-173.5 234.72-10.2-61.23-91.84-193.9-132.67-234.72-40.82-30.62-71.43-40.82-91.84-91.85-20.41-30.62-40.83-91.85-81.65-91.85-20.41 0-71.43 51.03-71.43 71.44 0 40.82 61.23 112.26 91.84 132.67-10.2-30.62-10.2-10.21-10.2-30.62s-10.21 10.21 0-10.2l30.61 61.23c-61.23-20.41-112.25-91.85-132.67-142.88-40.82-112.25 10.21-153.08 10.21-275.54-40.82 0-20.41 0-51.03 10.2 0-10.2 0 0 0-10.2 0-10.21 0 0 0-10.21-40.82 10.21-10.2 10.21-40.82 0-30.61 0-10.2 0-20.41-10.2 51.03 0 122.47-10.21 163.29 10.2-10.21-40.82-20.41-40.82-71.44-40.82-51.03-20.41-132.67 0-193.9 0-81.65 0-20.41 0-71.44 30.62-81.64-122.47-234.72-51.03-316.37-91.85 20.41-30.62 10.21-20.41 61.23-20.41 51.03 0 81.65-10.21 132.67 10.2 91.85 20.42 112.26 0 183.7-51.02-20.41 61.23-61.23 40.82-40.82 91.85 30.62-10.21 10.21 0 30.62-30.62l51.02-71.44c10.21-40.82 20.41-71.44 71.44-91.85l81.64-30.61c-10.2 10.2-51.02 51.02-61.23 71.44 20.41 10.2 10.21 0 30.62 20.41 81.64 112.26 224.52 193.9 255.13 346.98 20.41 51.03-10.2 30.62 30.62 61.23 10.2-61.23-30.62-122.46-61.23-173.49-51.03-81.64-20.41-71.44-40.83-142.88-10.2-30.61-10.2-30.61-20.41 0-61.23 0-122.46-71.43-132.67-132.67l102.06-102.05c0 71.44 10.2 40.82 61.23 81.64 81.64 81.65 61.23 214.32 122.46 306.17 0-40.83 0-30.62-10.2-71.44-10.21-61.23 0-10.21 0-51.03 0-112.26-102.05-183.7-122.47-214.31v-10.21l-10.2-20.41c-10.21-30.61-10.21-20.41-10.21-51.03l91.85 61.24c20.41 20.41 10.21 0 20.41 30.61 20.41 20.41 30.62 30.62 40.82 61.24zm-153.08 428.63h10.2v-51.03h-10.2zm408.21-244.93c10.21 0-10.2-30.62-10.2 0s10.2 0 10.2 0zm-30.62-183.7c20.42-10.2 20.42-51.02 30.62-71.44-10.2 10.21-10.2 20.42-20.41 30.62-10.21 20.41-10.21 10.21-10.21 40.82zm-224.51 10.21c0 30.61 10.2 0 10.2 0 10.21 0-10.2-30.62-10.2 0zm-51.03 112.26c0 30.61 10.2 0 10.2 0 10.21 0-10.2-30.62-10.2 0zm-1296.08 2632.99c0-30.62 20.41-61.24 30.61-81.65 51.03-102.05 40.82-122.46 40.82-244.93 0-61.23 0-40.82 20.41-122.46 51.03-183.7 30.62-40.82 30.62-306.16 30.62-10.21 61.23-20.41 91.85-20.41 0-61.24 40.82-112.26 61.23-153.08 112.26-183.7 71.44-275.55 142.88-346.99 40.82-40.82 40.82-20.41 71.43-81.64-61.23 10.21-71.43 40.82-102.05-30.62-81.64-255.13-40.82-204.1-81.64-438.83-20.41-193.9-71.44-336.78-51.03-540.88 10.21-30.62 10.21-71.44 30.62-51.03-51.03 81.64 10.2 316.37 30.61 377.6 10.21 61.23 10.21 71.44 10.21 142.87 0 91.85 30.61 40.83 10.2 122.47 20.41 10.2-10.2 0 10.21-10.21 20.41-10.2-10.21-10.2 10.2 0l30.62 142.88h10.21v10.2c0-40.82-10.21-51.02-10.21-102.05l-10.21-306.16 30.62 336.78c10.21 61.23 10.21 91.85 30.62 153.08 61.23 153.08 61.23 142.87 61.23 275.54 0 71.44 0 112.26-10.21 163.29-20.41 102.05-122.46 469.45-173.49 540.88-30.61 71.44-102.05 51.03-142.87 214.32-30.62 163.28-122.47 469.45-122.47 591.91h-10.2c0-51.03 10.2-91.85 0-122.46l-10.21 30.61v30.62c-40.82-30.62-30.61-122.47-30.61-173.49zm3500.44-2551.35-20.41-20.41 10.21-10.21 20.41 20.41zm-2837.09-30.62c61.23 122.47 10.2 40.83 61.23 61.24 61.23 30.61 71.44 204.1 71.44 275.54h10.2c0-204.11-61.23-316.37 20.41-265.34-10.2-40.82-10.2-20.41-30.61-51.03 40.82 10.21 173.49 102.06 183.69 132.67 10.21 51.03-10.2 102.06 0 153.09 10.21 51.02 30.62 51.02 71.44 81.64 51.03 40.82 112.26 112.26 153.08 163.28 30.62 30.62 40.82 51.03 61.23 91.85 91.85 132.67 30.62 142.88 10.21 214.32l-40.82 91.84c0-71.43-10.21-102.05-10.21-183.69 0-30.62 0-61.23 0-91.85-10.2-30.62-10.2-40.82-30.61-61.23 0 40.82-20.42 61.23-30.62 102.05-10.21 30.62-10.21 61.23-40.82 81.64 0-40.82-10.21-71.43-20.41-112.26-10.21-10.2-10.21-40.82-20.41-51.02-10.21-40.82-10.21 0-10.21-51.03h-20.41c0 51.03-30.62 163.29-61.23 183.7 0-132.67-40.82-193.9-40.82-244.93-30.62 20.41-30.62 40.82-51.03 102.05-10.21 40.82-30.62 71.44-30.62 112.26-30.61-30.61-40.82-193.9-40.82-244.93-61.23-30.61-30.61-30.61-61.23-102.05-10.21-40.82-30.62-142.88-61.23-265.34-10.21-20.41-20.41-30.62-20.41-61.23l-30.62-51.03zm163.28 81.65c30.62 20.41 30.62 30.61 61.23 61.23 61.24 81.64 51.03 81.64 61.24 61.23l-102.06-112.26c-10.2-20.41 0-30.61-20.41-10.2zm285.75 469.44c20.41 10.21 20.41 20.42 40.82 30.62l20.41 30.62c10.21-10.21 10.21 0 10.21 0l-51.03-51.03c-10.2-20.41 0-30.62-20.41-10.21zm1602.25-1275.67c0-81.64-30.62-142.87-30.62-234.72 40.82 30.61 71.44 214.31 81.64 265.34 51.03 326.57 112.26 255.13-61.23 387.8-40.82 40.82-61.23 71.44-102.05 102.06-20.41 30.61-30.62 30.61-61.23 40.82-102.06 20.41-10.21 40.82-91.85 61.23-153.08 51.03-153.08-20.41-234.73 40.82-122.46 71.44-71.43 51.03-132.67 40.82-10.2-10.2-20.41-10.2-40.82-10.2-102.05-20.41-122.46 0-183.69 0 40.82-81.65 122.46-183.7 132.67-244.93 30.61 20.41 20.41 20.41 40.82 51.03 20.41 61.23-10.21 20.41 30.61 61.23 40.82 30.61 40.82 61.23 112.26 61.23 102.06 0 142.88 10.21 234.73-10.21 30.61-10.2 30.61-10.2 51.02-30.61h-132.67l-30.61-81.64c0 61.23 20.41 102.05-40.82 102.05-10.21 0-91.85-20.41-112.26-20.41-51.03-20.41-102.06-81.64-112.26-153.08 40.82-10.21 30.61-10.21 10.2-51.03 122.47 10.21 122.47 20.41 142.88-10.2-81.65 0-61.23-20.42-122.47-30.62v-20.41c51.03 0 40.82 10.2 91.85 10.2 285.75 0 295.96-91.84 438.83-193.9 0-10.2 0-10.2 0-10.2l30.62-20.41s10.2-10.21 10.2-10.21c20.42-30.62 20.42-30.62 40.83-40.82 0 163.28-173.5 224.52-295.96 275.54l-132.67 51.03c71.44 0 102.05-20.41 173.49-30.62 81.64-10.2 183.7-81.64 234.73-153.08 71.43-102.05 61.23-71.43 51.02-163.28 0-30.62 10.21 20.41 10.21-30.62zm-255.14 571.5c-20.41 20.41 10.21 10.21 10.21 10.21 30.61 10.2 0-20.41-10.21-10.21zm1643.07-193.9c-30.62 10.21 0-20.41 10.2-10.2 20.42 20.41-10.2 10.2-10.2 10.2zm-3408.6-377.6c153.08 0 132.67 81.64 204.11 102.06-10.21 112.25-204.11 61.23-204.11-51.03zm1347.11 142.88c10.21-71.44 142.88-153.08 183.7-153.08s61.23-10.21 61.23 30.61c0 163.29-173.49 122.47-244.93 122.47zm-2490.11-132.67c30.61-20.41 20.41-30.62 51.03 0l-30.62 10.2c-10.21-10.2-10.21 0-10.21 0zm-938.9-1000.13c20.41-61.23 81.65-91.85 153.08-122.46 142.88-71.44 285.75-153.09 367.4-295.96 20.41-30.62 20.41-61.23 40.82-91.85 30.62 10.21 61.23 30.62 71.44 71.44 0 81.64-71.44 122.46-132.67 153.08-30.62 20.41-51.03 30.62-91.85 51.03-61.23 30.61-306.16 173.49-336.78 224.51 61.23 30.62 91.85 20.42 142.88 61.24 91.84 91.85 265.34 0 316.36 0 10.21 0 61.24 20.41 61.24 51.02 0 173.5 10.2 122.47-173.5 173.5-71.43 20.41-132.67 30.61-173.49 71.43l275.55-61.23c-20.41 10.21-30.62 30.62-61.23 40.82l-173.5 122.47c-102.05 61.23-489.85 336.77-571.5 408.21-30.61 30.62-51.02 81.64-102.05 91.85 10.2-20.41 20.41-30.62 30.61-51.03-51.02 10.21-10.2 10.21-30.61 0 20.41-20.41 30.61-30.61 40.82-51.02-71.44 20.41-71.44 91.84-91.85 61.23 40.82-20.41 71.44-102.06 112.26-132.67 40.82-51.03 71.44-91.85 112.26-132.67 102.05-91.85 112.26-91.85 204.11-163.29 30.61-20.41 30.61-30.61 81.64-30.61h-10.2l-30.62-20.41c20.41-10.21 112.26-61.24 122.46-102.06 20.41-30.61 10.21-51.02 30.62-81.64 20.41-20.41 51.03-30.62 81.64-30.62-20.41-30.61-30.61-20.41-51.02-61.23-61.24-71.44-122.47-81.64-214.32-81.64-61.23 10.2-193.9-20.41-275.54-30.62 0 0-30.62-10.2-40.82-10.2 0 0-20.41-10.21-20.41-10.21s0 0 0-10.2h-10.21c132.67 0 224.52-10.21 346.98-10.21zm4520.99 275.55c0-51.03 40.82-163.29 71.44-183.7-20.41 102.05-102.06 214.31 10.2 398.01 20.41 40.82 51.03 51.03 112.26 51.03-10.2 61.23-193.9 326.57-255.13 387.8-30.62 30.62-81.65 61.23-91.85 112.26 51.02 0 61.23-20.41 81.64-51.03l153.08-183.7c30.62-40.82 30.62-40.82 40.82-20.41l-163.28 234.73c-91.85 142.87-91.85 244.93-132.67 336.78-30.62 51.02-40.82 91.84-81.65 112.25 10.21-61.23 30.62-102.05 30.62-173.49 0-81.64 10.21-102.05 20.41-173.49 10.21-81.64-30.62-91.85 30.62-153.08 71.43-81.64 163.28-112.26 142.87-234.72-20.41-153.08-71.44-367.4-71.44-520.48 71.44-40.82 61.24-61.23 102.06-71.43-20.41 91.84-20.41 275.54 40.82 346.98 0-61.23-40.82-102.06-40.82-214.31zm91.85 295.95-51.03-81.64c10.21 51.03 20.41 61.23 51.03 81.64zm-377.6-3663.73c61.23 112.26 255.13 316.37 346.98 398.01 163.29 132.67 71.44 112.26 132.67 234.72l132.67 234.73c51.03 71.43 122.47 122.46 183.7 183.69 0 10.21 0 10.21 10.2 10.21v10.2c10.21 0 10.21 0 10.21 10.21 20.41 30.62-10.21 0 20.41 30.62-71.44-10.21-40.82-40.83-142.88-61.24v20.41c-30.61 102.06-91.84 122.47-112.26 377.6 30.62-20.41 112.26-285.75 122.47-336.77 112.26 30.61 183.7 102.05 367.39 102.05h-10.2l-81.65 51.03c-51.02 51.02-132.67 183.69-153.08 244.93 71.44-40.83 112.26-132.67 163.29-204.11 40.82-51.03 61.23-40.82 142.87-40.82 132.67 0 40.83-10.21 142.88 20.41l-61.23 153.08c40.82 20.41 30.61-30.62 71.44 30.61 30.61 30.62 20.41 40.83 61.23 51.03 0-61.23-10.21-51.03 30.61-81.64 61.24-40.82 142.88-71.44 204.11-112.26 91.85-40.82 183.7-132.67 275.55-153.08-20.41 30.61-173.49 153.08-214.32 173.49-61.23 40.82-51.02-20.41-51.02 51.03-40.82 0-30.62 10.2-61.24 20.41-40.82 20.41-30.61 0-51.02 30.61 112.26-20.41 132.67-40.82 204.11-102.05l173.49-132.67c-30.62 40.82-81.65 91.85-112.26 132.67-10.21 20.41 0 0 0 20.41l-20.41 40.82c-51.03 81.64-122.47 122.47-183.7 183.7-30.62 40.82-102.05 81.64-102.05 142.87l122.46-102.05c91.85-81.64 153.08-122.46 224.52-224.52 10.2-10.2 91.85-132.67 91.85-132.67l-91.85 183.7c-51.03 102.05-132.67 132.67-224.52 193.9-71.44 40.82-91.85 81.64-122.46 153.08-10.21 51.03-20.41 61.23-40.83 91.85-30.61-10.21-10.2-10.21-51.02-10.21 10.2-51.02 71.44-91.84 71.44-132.67v-40.82c-30.62 20.41-20.42 20.41-40.83 61.24l-112.26 163.28c-61.23 71.44-81.64 153.08-142.87 224.52l-91.85 91.85c-20.41 30.61-20.41 30.61-40.82 51.03-10.21 20.41-30.62 30.61-51.03 40.82-40.82 20.41-81.64 40.82-112.26 71.43-51.02 30.62-61.23 40.83-102.05 81.65-224.52 214.31-193.9 326.57-295.96 438.83-71.43 91.85-173.49 132.67-204.1 163.29l-30.62 40.82c-71.44 40.82-132.67 51.02-224.52 51.02 10.21-71.43 112.26-61.23 173.49-61.23v-10.2c-30.61 0-71.43 0-102.05 0-40.82 0-61.23 20.41-61.23-20.41 0-61.24 61.23-40.83 122.46-40.83s112.26-40.82 163.29-71.43c142.87-71.44 173.49-142.88 244.93-285.75 132.67-295.96 367.39-387.81 520.47-551.1 81.64-91.84 20.41-142.87 132.67-316.36-61.23 10.2-102.05 61.23-132.67 112.26 40.82 10.2 10.21 0 20.41 0 40.82 0-30.61-10.21 10.21 0-30.62 61.23-51.03 122.46-91.85 173.49l-61.23 71.44c-20.41 20.41-20.41 20.41-40.82 30.61-91.85 81.65-214.32 214.32-285.76 306.16-91.84 122.47-153.08 295.96-193.9 336.78-91.85 91.85-234.72 163.29-398.01 163.29 0-153.08 51.03-153.08 91.85-265.34 10.21-40.82 30.62-112.26 40.82-132.67 10.21-20.41 71.44-61.23 102.06-71.44v-20.41c-30.62 0-61.24 20.41-61.24 20.41l-10.2-10.21c20.41-20.41 81.64-122.46 142.87-183.69 40.83-30.62 51.03-30.62 81.65-81.65 71.43-102.05 102.05-204.1 153.08-326.57 10.2-51.02 30.61-71.44 51.02-112.26 40.83-122.46 122.47-40.82 204.11-61.23-20.41 61.23-10.2-30.62-20.41 30.62 0 0 10.21 10.2 10.21 10.2v20.41c20.41-20.41 20.41-40.82 30.61-71.43-51.02-10.21-132.67-40.83-183.69-20.42 20.41-51.02 102.05-30.61 142.87-20.41 40.82-30.61 71.44-51.02 122.47-71.43 132.67-51.03 122.46-61.24 244.92-122.47 10.21-10.2 40.83-30.61 51.03-40.82 40.82-40.82 0-10.21 20.41-51.03-30.61 10.21-122.46 71.44-153.08 91.85-20.41 20.41-51.03 51.03-61.23 61.23-40.82 20.41-40.82 0-102.05 0-163.29 0-71.44 61.24-183.7 81.65-163.29 30.61-214.31 193.9-275.55 326.57-20.41 61.23-30.61 81.64-71.43 132.67-20.41 30.62-265.34 275.54-295.96 295.96-51.03-30.62-112.26-153.09-81.64-214.32 30.61-51.02 102.05-142.87 142.87-173.49l-61.23 204.11c30.62-10.21 40.82-51.03 61.23-81.64 10.21-40.83 20.41-61.24 30.62-102.06 30.61-61.23 61.23-112.26 81.64-183.7-71.44 40.83-81.64 122.47-142.87 163.29-81.65 40.82-102.06 71.44-173.5 132.67-224.51 224.52-224.51 275.55-183.69 591.91v214.32c91.85-61.24 10.2-295.96 10.2-387.81 0-40.82 132.67-61.23 163.29-173.49 30.62 20.41 40.82 30.62 51.03 71.44 40.82-51.03-10.21-81.65-20.41-142.88l81.64 71.44c81.64 112.26 204.11-81.64 295.95-142.88-20.41 71.44-163.28 173.5-214.31 255.14-40.82 71.44-40.82 183.7-91.85 255.13-10.2 20.41-30.61 40.83-51.02 61.24-10.21-71.44 10.2-102.06 20.41-163.29-20.41 20.41-30.62 40.82-40.82 71.44-10.21-10.21 0 0-10.21-20.41 0-10.21 0-20.41 0-30.62h-10.21c0 51.03 10.21 71.44 10.21 112.26 0 153.08-61.23 306.16-112.26 449.04-40.82 112.26-20.41 163.28-102.05 244.93-30.62 20.41-40.82 20.41-71.44 40.82-51.03 30.61-91.85 61.23-132.67 91.85-61.23 51.02-193.9 193.9-244.93 204.1-20.41-30.61-30.62-61.23-30.62-102.05-20.41 10.21-30.61 0-30.61 30.62 0 61.23 71.44 51.02 20.41 91.84-10.21-40.82-30.62-51.02-30.62-71.43 0-91.85 122.47-102.06 132.67-183.7-40.82 10.21-71.44 51.03-102.05 81.64-163.29 132.67-102.06 255.14-163.29 367.4-40.82 71.43-112.26 122.46-163.28 193.9-30.62 40.82-51.03 71.44-91.85 81.64-61.23 10.21-40.82-10.2-61.23-20.41l-71.44-10.2c-10.21-20.42-10.21-20.42-10.21-51.03 0-102.06-20.41-163.29 51.03-244.93l153.08-244.93c51.03-71.44 112.26-112.26 173.49-224.52 40.82-91.85 51.03-122.46-30.61-30.61-20.42 30.61-30.62 51.02-40.83 81.64-81.64 112.26-234.72 326.57-326.57 428.62 0-61.23-10.2-81.64-10.2-153.08 0-112.25 51.02-224.51 61.23-336.77-20.41 30.61-40.82 81.64-40.82 122.46h-20.41c0-40.82 10.2-71.44 20.41-112.26 20.41-51.02 30.61-173.49 71.43-204.11 61.24-61.23-40.82 51.03 10.21-10.2 0-10.21 10.21-40.82 20.41-40.82 71.44-173.49 275.55-346.99 408.22-479.66 10.2-20.41 10.2-20.41 30.61-30.61 0 0 30.62-20.41 30.62-20.41l51.03-51.03c30.61-51.03 173.49-153.08 204.1-163.29 51.03 91.85 20.41 71.44 10.21 153.09l40.82-30.62c-10.21 71.44-30.62 142.87-40.82 214.31-30.62 102.06-71.44 285.75-132.67 377.6-20.41 30.62-61.23 142.88-61.23 193.9 20.41-20.41 30.61-51.02 40.82-81.64v51.03 10.2c-20.41 40.82-30.62 91.85-30.62 153.08 30.62-30.61 71.44-153.08 81.64-204.1 30.62-71.44 30.62-153.08 51.03-234.73 40.82-122.46 122.47-306.16 122.47-449.03 0-30.62-30.62-91.85-40.83-132.67-10.2-61.24-20.41-71.44-40.82-122.47-20.41-91.85-40.82-173.49-81.64-255.13 40.82 10.2 61.23 51.02 91.85 81.64 30.61 30.62 61.23 51.03 71.44 91.85 71.43-10.21 81.64-112.26 91.84-173.49 51.03-163.29 0-244.93 193.91-336.78l183.69-71.44c153.08-61.23 214.32-91.85 295.96-234.72 102.05-163.29 112.26-520.48 51.03-714.38l-30.62-51.03c0 244.93 102.05 571.5-51.03 785.82-20.41 10.2-40.82 40.82-51.02 61.23-91.85 91.85-255.14 91.85-387.81 91.85 0-51.03 40.82-51.03 71.44-81.64 30.62-40.83 20.41-51.03 71.44-71.44l102.05-40.82c20.41-10.21 20.41-10.21 40.82-30.62 10.21-20.41 10.21-30.62 20.41-51.03 91.85-244.93 122.47-204.1 122.47-449.03h-30.62c-10.2 30.61-51.02 112.26-61.23 142.87-10.21 10.21-40.82 40.82-51.03 51.03-51.02 51.03-81.64 112.26-112.26 183.7-30.61 40.82-51.02 71.43-81.64 112.25-61.23 112.26-102.05 132.67-142.87 255.14l-10.21 30.62c-20.41 40.82-30.62 20.41-61.23 61.23l-71.44 81.64c-10.21 10.21-10.21 10.21-20.41 20.41 10.2-122.46 102.05-224.52 173.49-306.16 40.82-61.23 173.49-224.52 193.9-285.75l-306.16 285.75c-183.7 142.88-459.24 428.63-581.71 602.12-20.41 40.82-51.02 81.64-71.43 122.46-51.03 91.85-61.24 61.23-91.85 102.06-20.41 30.61-20.41 112.26-30.62 163.28-20.41 102.06-71.44 183.7-112.26 275.55-20.41 71.44-30.61 173.49-71.43 224.52-10.21 10.2 0 0-10.21 10.2h-10.21-20.41c-10.2 51.03-30.61 102.06-40.82 163.29-20.41 40.82-20.41 132.67-51.02 153.08 0-91.85-81.65-244.93-112.26-316.37-10.21-30.61-20.41-51.03-30.62-81.64 0-40.82-10.21-40.82-30.62-61.23-30.61-20.41-142.87-408.22-163.28-459.25-20.41-71.43-51.03-71.43-81.65-132.67-30.61-40.82-51.02-81.64-81.64-122.46-102.05-163.29-255.13-326.57-387.8-459.24-71.44-81.65-142.88-132.67-214.32-214.32-51.02-40.82-173.49-173.49-234.72-183.69 10.21 40.82 61.23 81.64 91.85 122.46 61.23 71.44 153.08 153.08 183.7 244.93 10.2 71.44 40.82 91.85 51.02 153.08l-20.41-20.41v-10.2l-61.23-71.44c-71.44-61.23-102.05-142.88-142.88-224.52-51.02-71.44-112.26-122.47-153.08-204.11-20.41-40.82-30.61-81.64-61.23-122.46-30.62-61.24-81.64-102.06-112.26-163.29-20.41-40.82 0-30.62-30.61-51.03 0 20.41 10.2 51.03 10.2 71.44l20.41 51.03c-51.03-91.85-91.85-214.31-71.44-336.78 0-61.23 71.44-255.13 112.26-306.16-40.82 193.9-102.05 122.46-40.82 367.39 20.41 61.24 40.82 71.44 71.44 122.47-81.64-20.41-102.05-193.9-102.05-265.34h-10.21c0 81.64-10.21 153.08 30.62 214.31l20.41 61.23c20.41 122.47 265.34 234.73 387.8 398.01 91.85 102.06 193.9 183.7 295.96 265.34 173.49 153.08 153.08 122.47 326.57 326.58 20.41 20.41 20.41 30.61 40.82 51.02 81.64 81.65 102.06 81.65 173.49 193.9 20.41 30.62 61.24 81.65 81.65 102.06-20.41-91.85-61.24-153.08-122.47-214.31-20.41-30.62-30.61-40.83-30.61-81.65-51.03 0-71.44-51.02-102.06-81.64l-183.7-173.49c-61.23-61.23-132.67-102.06-193.9-163.29-30.61-30.61-71.44-40.82-102.05-71.44-142.88-142.87-183.7-153.08-112.26-408.21 20.41-71.44 51.03-81.64 10.2-112.26 0 51.03-30.61 71.44-40.82 132.67-20.41 51.03-10.2 102.05-20.41 153.08 0 0 0 0 0-10.21l-20.41-20.41c-10.2-40.82-20.41-51.02-10.2-81.64 20.41-51.03 102.05-295.96 153.08-295.96 20.41 0 20.41-51.02 30.61-71.43l81.65-102.06c122.46-163.28-285.75 0-418.42 112.26-10.21 10.21-20.42 30.62-30.62 10.21 30.62-20.41 40.82-40.82 71.44-61.23 275.54-244.93 336.77-30.62 785.81-346.99 214.31-163.28 183.7-204.11 255.14-244.93 51.02-30.61 71.43-91.85 122.46-122.46-10.2 51.03-193.9 336.78-234.72 377.6-30.62 40.82-61.24 61.23-102.06 102.05-91.85 122.47-265.34 234.73-336.77 377.6-10.21 40.82-10.21 40.82-30.62 71.44 40.82 0 30.62-10.21 51.03-40.82 61.23-81.65 153.08-142.88 224.51-224.52 30.62-40.82 40.83-61.23 81.65-91.85-10.21 30.62-10.21 20.41-30.62 51.03l-81.64 132.67c-102.06 204.1-61.23 112.26-51.03 204.1-132.67 0-255.13 30.62-346.98-30.61 0 81.64 30.61 173.49 51.03 265.34 20.41 81.64 51.02 153.08 71.43 244.93 30.62 71.44 51.03 91.85 102.06 142.87 132.67 112.26 244.93 244.93 367.39 367.4l61.23 71.43c71.44 91.85 142.88 183.7 183.7 285.76 20.41 71.43 71.44 153.08 71.44 234.72-40.82-51.03-61.23-142.88-102.06-204.11-40.82-40.82-10.2 0-51.02-20.41 10.2 40.82 71.43 153.08 91.85 204.11 40.82 81.64 51.02 122.46 61.23 224.52l40.82 142.87-40.82-61.23c-10.21 51.03 0 61.23 20.41 102.05l40.82 102.06c20.41-71.44 40.82-122.47 71.44-193.9 30.61-61.24 40.82-142.88 61.23-204.11 30.62-102.06 30.62-255.14 102.05-428.63 51.03-122.46 153.08-193.9 224.52-306.16l122.47-142.88c51.02-40.82 102.05-61.23 163.28-91.84-10.2 51.02-81.64 81.64-122.46 122.46-122.47 102.05-265.34 234.72-306.16 398.01 30.61-20.41 51.02-71.44 71.43-102.05 71.44-91.85 122.47-122.47 163.29-173.49 71.44-91.85 173.49-163.29 255.14-244.93 20.41-20.41 30.61-20.41 51.02-40.83l122.47-122.46c71.43-51.03 122.46-91.85 183.69-153.08 102.06-112.26 204.11-173.49 275.55-234.72 81.64-81.65-10.21 61.23 61.23-40.83 40.82-51.02 102.06-132.67 122.47-204.1-51.03 30.61-51.03 81.64-132.67 81.64 10.2-20.41 20.41-30.62 30.61-51.03 10.21-20.41 20.41-20.41 30.62-51.02 30.61-30.62 40.82-51.03 61.23-91.85 40.82-71.44 51.03-173.49 51.03-255.14 0-122.46-142.88-316.36-214.32-418.42-20.41-20.41-71.43-81.64-81.64-112.26 0-10.2 0-10.2 0-10.2l10.21-10.21c61.23 112.26 204.1 285.75 306.16 346.98-10.21-40.82-51.03-81.64-71.44-112.25l-224.52-306.17 10.21-10.2zm1061.36 1510.4c0 20.41 0 0 10.2 0 30.62 0-10.2-30.62-10.2 0zm153.08-71.44v10.2l-10.21 10.21 10.21 10.2s20.41-51.02 0-30.61zm-183.7 530.68c30.62-20.41-10.2 0-10.2 0-10.21 30.61 10.2 0 10.2 0zm-81.64 326.57c-10.21-30.62 0-20.41-30.62-30.62zm479.65-581.71c10.21 0 0-20.41 0-20.41 0-20.41-30.62 30.62 0 20.41zm-1132.8-1275.67c30.62 30.62-30.61-30.62 0 0zm-530.68 1367.52 30.62-30.61-10.21-10.21-30.61 30.62zm-551.09 1826.77c51.03-30.62 81.65-112.26 81.65-173.5-10.21 10.21-10.21 0-20.41 20.41 0 0-10.21 20.42-10.21 20.42zm81.65-918.49c-20.41 30.62 0 10.21-30.62 20.41v10.21l-20.41 10.2c30.62-10.2 71.44-20.41 51.03-40.82zm-602.12 816.43c0 30.62 10.2 0 10.2 0 10.21 0-10.2-30.61-10.2 0zm163.28 306.16c0-30.61-10.2-10.2-10.2 10.21 10.2 30.61 10.2-10.21 10.2-10.21zm704.18-40.82c51.02-30.61 91.84-91.85 142.87-142.87 91.85-112.26 142.88-255.14 214.31-224.52-20.41 61.23-10.2-40.82-81.64 102.05-30.61 61.23-204.11 214.31-224.52 295.96 40.82-30.62 71.44-102.06 153.08-173.49 61.24-40.83 81.65-61.24 112.26-132.67 30.62-51.03 20.41-30.62 30.62-30.62 10.2 10.21 0 0 0 20.41 0 122.47-142.88 316.37-234.72 398.01-51.03 40.82-234.73 112.26-306.17 132.67-244.93 71.44-295.95 234.72-418.42 234.72 61.24-122.46 10.21-40.82 91.85-132.67l102.06-112.26c30.61-51.02 71.43-61.23 122.46-91.84 51.03-20.41 102.05-91.85 173.49-153.08l234.73-193.91c30.61-20.41 30.61-20.41 61.23-40.82l102.05-112.26c-10.2 40.82-122.46 142.88-153.08 183.7l-122.46 132.67v10.21zm40.82 40.82s-10.21 10.21-10.21 10.21c0 30.61 10.21 10.2 20.41-10.21 0-30.61-10.2 0-10.2 0zm-1990.05-142.87c30.61 30.61 20.41 40.82 61.23 51.02-30.62-51.02-30.62-40.82-71.44-81.64-122.46-91.85-51.02-20.41-153.08-142.87-30.61-51.03-61.23-61.24-51.03-81.65 0-30.61 122.47 112.26 132.67 132.67 20.42 20.41 51.03 51.03 71.44 71.44 20.41 10.21 20.41 10.21 40.82 30.62 20.41 10.2 20.41 20.41 40.83 30.61 30.61 20.41 61.23 40.82 91.84 61.24l234.73 204.1c30.61 20.41 61.23 40.82 91.85 61.23 30.61 30.62 183.69 204.11 183.69 244.93-51.02 0-61.23-10.2-102.05-30.61-20.41-30.62-40.82-40.82-71.44-61.23-51.03-40.83-91.85-71.44-153.08-102.06l-224.52-102.05c-71.44-30.62-30.61 0-122.46-61.23-40.82-30.62-91.85-102.06-122.47-142.88l-122.46-204.11c-10.21-20.41-10.21-30.61-20.41-40.82-10.21-30.61-40.82-61.23-20.41-81.64 61.23-71.44 91.85 122.46 122.46 122.46 10.21 0 10.21-10.2 30.62 30.62 40.82 40.82 71.44 51.03 132.67 91.85zm102.05 81.64c-40.82-40.82-30.61-40.82-40.82-20.41 10.21 10.21 20.41 10.21 40.82 20.41zm-255.13-173.49c20.41 20.41 10.2 0 0-10.21-10.21-10.2 0-20.41 0 0zm-1194.03-571.5c102.05-51.03 244.93-91.85 336.77-91.85 20.42 0 81.65 122.46 91.85 142.87-30.61 0-71.43 10.21-102.05 10.21-30.62 10.21-30.62 30.62-71.44 30.62-214.31 0-173.49-30.62-346.98-30.62zm4296.46 51.02c20.41-81.64 61.24-91.84 71.44-142.87 20.41 10.2 81.64 20.41 142.88 51.03 51.02 20.41 91.85 40.82 142.87 51.02-30.61 20.41-30.61-20.41-61.23 20.41 61.23 20.41 61.23 20.41 81.64 40.83-61.23 0-142.87 40.82-204.1 30.61zm357.19 71.44c61.23 0 61.23 0 102.06 20.41 183.69 71.44 173.49-61.23 357.18-102.05-112.26-91.85-81.64-81.64-214.31-153.08l-30.62-20.41c-71.43-71.44-285.75-102.06-285.75-224.52 0-40.82 20.42-61.23 51.03-81.64 30.62 40.82 102.05 163.28 153.08 193.9l30.62 10.2s10.2 20.41 20.41 20.41c61.23 81.65 30.61 61.24 142.87 122.47 316.37 153.08 132.67 153.08 377.6 153.08 71.44 0 102.06 10.21 163.29 10.21v10.2c-51.03 0-122.47 20.41-183.7 20.41-51.02 10.21-122.46 20.41-173.49 30.62-183.7 30.61-153.08 102.05-306.16 102.05v20.41c142.87 0 51.03 40.82 142.87 40.82 0 51.03-10.2 71.44 10.21 102.06-51.03-10.21-81.64-30.62-132.67-40.82-224.52-61.24-265.34-61.24-224.52-234.73zm-2071.69-71.44c10.2-40.82 81.64-163.28 102.05-204.1 30.62-30.62 51.03-40.82 71.44-81.65 20.41-30.61 40.82-51.02 61.23-81.64 40.82-61.23 91.85-112.26 142.88-163.29 91.85-102.05 122.46-81.64 122.46-173.49h20.41c10.21 51.03 20.41 10.21 20.41 71.44 20.42-20.41 20.42-20.41 51.03 10.21 10.21 30.61 20.41 40.82 20.41 81.64-214.31 51.03-489.86 459.24-612.32 540.88zm-908.28-602.11c102.05 132.67 398.01 449.03 438.83 612.32-71.44-51.03-173.49-163.29-224.52-234.72l-224.52-234.73-142.87-81.64c-30.62-20.41 10.2-20.41-40.82-10.21 0-51.02 51.02-132.67 91.85-153.08v81.65c30.61-20.41 20.41-20.41 30.61-61.24 20.41 20.41 51.03 61.24 71.44 81.65zm591.91-10.21c-30.61-20.41-40.82-61.23-61.23-91.85-30.62-71.43-132.67-224.52-183.7-275.54-61.23-81.65-285.75-275.55-306.16-306.16 224.52 51.02 204.11 51.02 326.57 193.9h10.21c112.26 132.67 71.44 102.05 163.29 224.52 71.43 112.26 51.02 61.23 51.02 255.13zm-3286.13-1122.59c-51.03 0-91.85-61.23-122.47-91.85-132.67-132.67-295.95-357.19-316.36-540.88 0-71.44 183.69-398.01 234.72-408.22-20.41 40.82-40.82 122.46-51.03 163.29-30.61 153.08 51.03 61.23 51.03 132.67 0 142.87-81.64 122.46 61.23 387.8 81.65 163.29 224.52 418.42 367.4 510.27l-102.06-234.72c30.62 51.02 265.34 316.36 275.55 357.18-20.41-10.2-81.64-20.41-112.26-20.41 10.2 20.41 20.41 20.41 40.82 30.62 51.03 30.62 51.03 30.62 30.62 40.82-20.41-30.61-142.88-91.85-183.7-112.26-30.62-10.2-81.64-30.61-112.26-40.82-30.62-20.41-40.82-51.03-61.23-81.64 40.82 0 51.03 10.2 112.26 10.2-20.41-30.61-40.82-40.82-61.23-71.43l-163.29-224.52c-30.62-51.03-61.23-102.06-102.05-153.08-30.62-51.03-71.44-102.06-71.44-183.7h-20.41c0 40.82 40.82 132.67 51.02 163.29l132.67 183.69c40.83 61.23 81.65 102.06 122.47 183.7zm224.52 163.29c30.61 40.82 20.41 40.82 30.61 20.41-30.61-30.62-10.2-40.83-30.61-20.41zm2837.09 285.75c-30.61-142.88-51.02-71.44-112.26-234.73-81.64-183.69-204.1-357.19-102.05-530.68 153.08-295.95 346.98-520.47 459.24-806.22 81.65-183.7 51.03 20.41 81.65-285.75 10.2-81.65-10.21-112.26 30.61-142.88 0 173.49 20.41 163.29 0 316.37-10.2 112.26 20.41 887.87 20.41 1081.77 0 408.21 20.41 785.81 20.41 1204.23l-30.61 306.17c0 306.16-20.41 163.28-51.03 285.75-30.62-20.41-20.41-30.62-30.62-71.44 0-40.82 0-61.23 0-102.06l-20.41-387.8c0-142.88 20.41-622.53 30.62-744.99l30.62-1153.21c0-81.64-10.21-132.67-10.21-214.31h-10.2c0 357.18-40.83 704.17-183.7 1000.12-30.62 61.24-122.47 204.11-132.67 255.14 30.61-20.41 91.85-132.67 112.26-173.49 30.61-40.83 30.61-51.03 61.23-81.65 102.05-132.67 132.67-357.19 132.67-551.09h10.21c0 112.26-10.21 224.52-20.42 336.78l-40.82 673.56v183.69c0 61.23-10.2 91.85-10.2 163.29h-10.21c0-30.62 0-81.64 0-91.85l10.21-265.34-71.44 224.52c-10.21-61.23-91.85-173.49-163.29-193.9 10.21 30.61 30.62 51.02 51.03 81.64 30.62 30.62 30.62 40.82 51.03 81.64 40.82 51.03 71.44 102.06 71.44 183.7-30.62-20.41-40.83-51.03-61.24-81.64-30.61-40.83-71.43-112.26-122.46-142.88-20.41-30.62-40.82-40.82-61.23-71.44 0 0 20.41-51.02-40.83-61.23 0-30.62 10.21-40.82-40.82-71.44-30.61-10.2-51.02-10.2-81.64-30.61-61.23-30.62-51.03-40.82-81.64-91.85l-20.41-30.62c0 51.03 30.61 61.23 40.82 112.26-91.85 40.82-122.47-61.23-163.29-153.08-71.44-234.72-61.23-224.52-51.03-367.39 61.24 0 81.65 20.41 102.06 51.02 91.85 112.26 91.85 183.7 204.11 367.4zm-336.77-244.93c10.2 0-10.21-30.62-10.21 0 0 30.61 10.21 0 10.21 0zm1122.59 214.31c102.05-153.08 193.9-173.49 326.57-449.04 30.62-51.02 61.23-102.05 91.85-163.28h102.05c-20.41 40.82-40.82 214.31-51.02 285.75-20.41 81.64-51.03 204.11-112.26 224.52 10.2-71.44 40.82-91.85 51.02-163.29-40.82 40.82-30.61 91.85-153.08 142.88-40.82 20.41-61.23 20.41-102.05 40.82-40.82 30.61-40.82 40.82-61.23 30.61l-20.41-10.2c-20.41 30.61-20.41 51.02-71.44 61.23zm91.85-71.44c-10.21 30.62 10.2 0 10.2 0 30.62-20.41-10.2 0-10.2 0zm357.19-316.36-40.83 122.46c20.41-10.21 51.03-132.67 61.24-163.29-10.21 20.41-10.21 10.21-20.41 40.83zm-2428.89-520.48c10.21 20.41 10.21 0 10.21 30.62-20.41-30.62-20.41-20.41-20.41-61.24 10.2 10.21 0-10.2 10.2 30.62zm5102.7-193.9c0-183.7 20.41-306.16-40.83-418.42l-20.41-30.62 10.21-10.2c10.2 10.2 20.41 30.61 30.61 40.82 71.44 102.05 102.06 153.08 153.09 275.54 91.84 183.7 40.82 204.11-20.42 346.99-40.82 112.26-122.46 214.31-183.69 316.36-20.41 20.41-40.82 40.82-61.23 61.24l-142.88 163.28c-30.62 20.41-20.41 0-30.62 30.62 30.62-20.41 61.24-20.41 91.85-10.21-10.2 61.23-71.44 102.06-122.46 122.47-122.47 30.61-122.47 61.23-163.29 71.43 51.03-102.05 91.85-132.67 163.29-204.1 30.61-40.82 30.61-81.65 61.23-122.47 91.85-173.49 275.55-438.83 275.55-632.73zm-3102.44-163.29c-51.03-71.44-81.64-193.9-132.67-275.54l-81.64-122.47 10.2-10.2c30.62 51.02 71.44 102.05 122.47 142.87 132.67 132.67 214.31 326.57 500.06 418.42 81.64 20.41 61.23 61.24 81.64 122.47 0 10.2 10.21 30.61 20.41 40.82 10.21 30.62 30.62 71.44 40.83 91.85 91.84 142.87 20.41-20.41 81.64 183.69 20.41 61.24 51.03 112.26 51.03 204.11 0 102.06-40.83 204.11-142.88 204.11 0-153.08 0-132.67 30.62-285.75 30.61-132.67 51.02-142.88 10.2-173.49-10.2 20.41 0 81.64-112.26 81.64s-61.23-40.82-81.64-112.26c40.82 20.41 30.62 20.41 91.85 20.41-10.21-30.61-20.41-30.61-51.03-51.02-61.23-30.62-285.75-295.96-346.98-367.4zm-1734.92-489.86c-10.2 30.62-10.2 30.62-20.41 61.24-40.82-10.21 10.21-51.03 20.41-61.24zm-2000.25-51.02-40.82 40.82-10.21-10.21 40.82-40.82zm5031.25 8756.22c10.21-20.41 40.82-30.62 61.24-51.03 122.46-122.47 244.92-255.14 346.98-398.01 122.46-163.29 234.72-336.78 326.57-520.48 71.44-142.87 142.88-295.95 193.9-449.03l122.47-295.96c20.41-51.03 30.61-102.05 61.23-153.08 112.26-275.54 163.29-255.13 61.23-438.83-61.23-142.88-102.05-285.75-173.49-418.42-20.41-40.82-51.03-81.64-81.64-122.47l-102.06-193.9c-20.41-20.41-30.61-30.61-40.82-51.03-30.61-51.02-30.61-81.64-81.64-112.25v112.25c-20.41-10.2-61.23-51.02-81.64-61.23-122.47-112.26-234.73-214.31-326.58-357.19-20.41-40.82-91.84-132.67-102.05-173.49 142.88 0 275.55 51.03 377.6 142.88 30.61 30.61 40.82 30.61 71.44 61.23 20.41 20.41 30.61 40.82 61.23 61.23 30.61 30.62 40.82 40.82 71.44 61.23 20.41 10.21 20.41 10.21 40.82 20.42l-51.03-142.88c-30.62-81.64-40.82-112.26-61.23-183.7-20.41-61.23-30.62-132.67-102.06-142.87-40.82 0-81.64 0-122.46 0-61.23 0-40.82-20.41-102.05-20.41h10.2v10.2h20.41v10.21c30.62 10.2 10.21-10.21 30.62 20.41-40.82-10.21-61.23-20.41-102.05-40.82-40.83-20.41-51.03-20.41-71.44-61.24-20.41-71.43-183.7-265.34-224.52-346.98-20.41-51.03 10.2-61.23-10.21-122.46-30.61-112.26 30.62-163.29 122.47-224.52l153.08 204.11 20.41 20.41c-20.41 30.61-20.41 40.82-51.03 71.43-81.64-20.41-40.82-51.02-102.05-71.43 20.41 102.05 91.85 163.28 163.29 234.72 10.2 0 30.61 20.41 30.61 30.62 0 30.61 10.21-10.21-10.2 10.2-30.62 61.23 10.2-30.61-10.21 20.41 30.62 10.21 193.9 163.29 204.11 183.7-183.7-40.82-204.11-61.23-295.96-183.7l-20.41-40.82c0 40.82 40.82 81.64 61.23 112.26 51.03 81.64 122.47 102.05 224.52 122.47 51.03 10.2 71.44 40.82 132.67 40.82v-20.41c-71.44-20.41-91.85-81.65-142.87-122.47-20.41-30.61-20.41-20.41-30.62-51.03 71.44 0 112.26 10.21 173.49 20.42 173.49 40.82 142.88-40.83 367.4 102.05 91.84 51.03 102.05 61.23 163.28 142.87 102.06 122.47 193.9 377.6 142.88 540.89l-30.62 81.64c-20.41 51.03-61.23 81.65-91.85 122.47 122.47-10.21 244.93-102.06 285.75-183.7 20.41-40.82 30.62-132.67 40.82-193.9 10.21-51.03 10.21-153.08 10.21-224.52-20.41 10.21-30.62 20.41-51.03 30.62-10.2-112.26-81.64-224.52-153.08-316.37-71.44-102.05-153.08-163.29-255.13-234.72-30.62-30.62-51.03-40.83-91.85-71.44-30.62-10.21-112.26-30.62-112.26-51.03 0-10.2 0 0 0-10.2-30.62-20.42-20.41 0-51.03-10.21-71.43-51.03-132.67-132.67-204.1-193.9-153.08-153.08-71.44-132.67-193.91-275.55-30.61-40.82-122.46-122.46-132.67-173.49 132.67 0 193.91-81.64 346.99 91.85 51.02 40.82 20.41 51.03 81.64 71.44 30.62 10.2 20.41 0 51.03 20.41 122.46 112.26 30.61 91.85 234.72 122.46 51.03 0 71.44 10.21 122.46 20.41 142.88 20.41 142.88 20.41 214.32 224.52 102.05 244.93 234.72 326.57 449.03 438.83-10.2-40.82-10.2-20.41-30.61-51.02-40.82-40.83-71.44-91.85-102.06-142.88-81.64-163.29-81.64-285.75-51.02-459.24 10.2-40.82 10.2-40.82-20.41-71.44l-91.85-122.46c-81.64-91.85-153.08-204.11-255.14-275.55-30.61-20.41-30.61-30.61-61.23-51.03-71.44-30.61-132.67-81.64-183.7-132.67-30.61-30.61-61.23-91.84-61.23-153.08 0-51.02 81.65-61.23 122.47-81.64 112.26-20.41 214.31-40.82 326.57-81.64 51.03-20.41 81.64-40.82 112.26-81.65-183.7 0-336.78-40.82-469.45-102.05-71.44-30.62-214.31-91.85-275.54-153.08-20.42-30.62-40.83-61.23-51.03-91.85 20.41-30.61 71.44-40.82 102.05-81.64 142.88-132.67 112.26-51.03 408.22 0l336.78 30.61c-10.21-40.82-40.83-40.82-71.44-61.23l-387.81-244.93c-40.82-30.61-102.05-71.43-132.67-112.26 30.62-30.61 51.03-51.02 81.65-91.84 81.64-81.65 10.2-234.73 183.69-316.37 112.26-61.23 112.26-51.03 183.7-153.08 30.62-30.62 40.82-61.23 71.44-91.85 163.28-153.08 71.44-122.47 244.93-255.14 244.93-183.69 122.46-244.92 234.72-438.83 91.85-163.28 102.05-204.1 61.23-377.6-61.23-234.72-244.93-357.18-346.98-489.85-81.64-112.26-316.37-316.37-428.63-418.43-173.49-132.67-398.01-163.28-612.32-214.31l51.03 30.62c30.61 0 30.61 10.2 61.23 10.2 30.62 20.41 61.23 20.41 102.05 40.82 193.91 61.24 418.42 163.29 530.68 336.78-40.82-10.2-204.1-153.08-255.13-183.69-51.03-40.83-214.31-142.88-295.96-142.88 51.03 40.82 102.06 61.23 153.08 102.05 61.24 30.62 102.06 61.24 153.08 91.85 132.67 102.06 285.76 214.32 387.81 346.99l102.05 142.87c81.65 132.67 112.26 265.34 112.26 449.04 0 173.49-224.52 418.42-357.19 500.06-40.82 20.41-71.43 30.62-112.26 51.03-51.02 40.82-163.28 91.85-244.92 91.85 0-81.65-20.42-71.44 20.41-122.47 20.41-30.61 61.23-61.23 71.43-102.05-30.61 10.2-91.84 51.03-132.67 71.44-102.05 40.82-132.67 30.61-193.9 40.82 0 0-20.41 0-30.61 0-193.91 0-306.17-193.9-438.84-265.34-71.43-51.03-71.43-142.88-102.05-214.32-10.2-51.02-30.62-61.23-40.82-102.05-30.62 10.21-30.62 10.21-71.44 10.21-10.2-30.62-10.2-40.83-20.41-81.65l-10.2-51.02c0-61.24-326.58-357.19-408.22-438.84l-20.41-30.61c-20.41-20.41-20.41-30.62-40.82-51.03-71.44-61.23-91.85-142.87-122.47-224.52-20.41-20.41-10.2-10.2-20.41-20.41 0 122.47 20.41 214.32 51.03 306.16 10.2 51.03 30.62 91.85 51.03 132.67 20.41 51.03 40.82 71.44 61.23 112.26 40.82 71.44 71.44 163.29 112.26 244.93 40.82 112.26 71.44 132.67 102.05 255.14h-10.2c-20.41 20.41-30.62 51.02-40.83 81.64-81.64-40.82-81.64-91.85-193.9-132.67l-234.72-91.85c-51.03-10.2-91.85-10.2-122.47-40.82-30.61-10.21-30.61-20.41-51.02-30.62-30.62-10.2-40.82-10.2-61.24-20.41-20.41 0-30.61-10.2-61.23-20.41-20.41-10.2-30.61-10.2-61.23-20.41l-102.05-61.23c-91.85-71.44-234.73-183.7-295.96-275.55-51.03-112.26-193.9-408.21-204.11-520.47v10.2h-10.2l-20.41 30.62c0-51.03-20.41-153.08-51.03-193.9 0 326.57 122.46 1091.97 346.98 1316.49 71.44 71.44 153.08 102.06 214.32 265.34 20.41 51.03 61.23 102.06 40.82 173.49-20.41 132.67-81.65 234.73-132.67 336.78-61.24 91.85-142.88 173.49-224.52 255.14-81.64 71.43-142.88 173.49-214.31 255.13 0-91.85-10.21-142.87-10.21-234.72v-704.17c20.41 20.41 30.62 71.43 40.82 102.05 30.62 61.23 102.06 224.52 142.88 255.13-20.41-81.64-61.24-142.87-81.65-224.51-20.41-40.83-30.61-71.44-40.82-112.26-81.64-214.32-81.64-418.42-81.64-673.56 0-244.93 0-479.65-30.62-734.79-20.41-91.84-20.41-326.57-20.41-428.62h-20.41c0 163.28-20.41 367.39-51.03 530.68-20.41 91.85-10.2 142.87-71.43 214.31l-142.88 142.88c-40.82 40.82-51.03 61.23-102.05 91.84l-367.4 204.11c-51.02 20.41-81.64 40.82-132.67 61.23-153.08 51.03-102.05 20.42-244.93 91.85-10.2 0-30.61 10.21-30.61 10.21-122.47 40.82-255.14 214.31-326.57 234.72-20.41-40.82-51.03-61.23-61.24-112.26l-20.41 30.62v10.2c0-61.23-10.2-102.05 0-142.87 40.82-193.9 255.14-418.42 367.4-571.5l51.02-71.44s0-10.21 10.21-10.21c0-10.2 0-10.2 0-10.2l-10.21-10.21c-20.41 30.62-51.02 51.03-71.43 81.65-30.62 30.61-40.83 40.82-71.44 71.43l-204.11 224.52c-81.64 81.65-112.26 153.08-153.08 275.55-142.88 367.39-71.44 571.5 102.05 887.87 51.03 0 40.83-10.21 71.44 0 30.62 0 40.82 20.41 61.23 30.61 40.83 30.62 102.06 81.65 132.67 132.67 30.62 61.24-10.2 0 10.21 51.03 20.41 40.82 61.23 61.23 71.44 102.05-132.67-91.84-122.47-40.82-102.06-122.46-71.43-40.82-163.28-40.82-244.93-61.23-183.69-30.62-153.08-153.08-183.69-112.26 10.2 10.2 0 0 10.2 20.41l71.44 91.85c61.23 51.02 173.49 132.67 244.93 142.87 81.64 0 0-30.61 132.67 30.62 102.05 61.23 153.08 81.64 153.08 224.52 0 112.26 51.03 214.31 91.85 285.75 20.41-10.21 10.2-10.21 30.61-20.41l61.24-71.44c20.41-40.82 51.02-81.64 91.85-91.85-30.62 61.23-51.03 132.67-81.65 193.9-20.41 61.24-61.23 122.47-61.23 204.11-40.82-10.2-40.82-71.44-61.23-40.82l30.61 51.03v71.43c10.21 173.5 193.91 714.38 204.11 796.02-112.26-30.61-153.08-71.43-214.31-153.08-91.85-122.46 40.82-255.13-51.03-449.03-10.2-51.03-30.61-102.06-81.64-112.26 30.61 51.02 91.85 112.26 91.85 183.69 0 244.93-20.41 132.67-51.03 255.14-61.23-40.82-81.64-153.08-112.26-224.52l-40.82-71.44c0 112.26 61.23 193.9 122.46 275.55 20.41 30.61 30.62 51.02 51.03 81.64s30.62 51.03 51.03 81.64c61.23 81.65 132.67 132.67 214.31 183.7 0-51.03-10.2-20.41 20.41-40.82 0 40.82 10.21 81.64 40.82 112.26 0-112.26-30.61-255.14-71.43-357.19-20.42-51.03-132.67-520.47-132.67-571.5 0-30.62 40.82-81.64 51.02-122.47 71.44 40.83 122.47 81.65 173.49 132.67 20.41 10.21 30.62 20.41 40.83 40.83 61.23 81.64 51.02 51.02 112.25 122.46l285.76 295.96c81.64 81.64 71.43 61.23 112.25 173.49 30.62 102.05 122.47 224.52 132.67 316.36l-10.2 183.7c-10.21 51.03 0 0-10.21 30.62-20.41 61.23 0 132.67 0 193.9-81.64-61.23-163.28-193.9-224.51-275.55-40.83-51.02-163.29-255.13-204.11-285.75 0 81.65 40.82 142.88 81.64 183.7 153.08 204.11 112.26 81.64 142.88 346.98 10.2 71.44 20.41 142.88 71.43 183.7 0-40.82-10.2-51.03-20.41-91.85-10.2-30.61-20.41-51.03-20.41-91.85-20.41-51.02-40.82-112.26-40.82-173.49l204.11 295.96c0 71.44 10.2 183.69-40.82 234.72-10.21 20.41-30.62 30.62-51.03 30.62-30.62 0-61.23-51.03-81.64-81.65-30.62-30.61-51.03-30.61-81.65-61.23-71.43-91.85-153.08-183.69-193.9-285.75-20.41-40.82-20.41-91.85-40.82-132.67s-51.03-71.44-61.23-112.26l81.64 61.24c-20.41-20.42-30.62-20.42-51.03-40.83l-153.08-122.46c-20.41 71.44 0 20.41 71.44 102.05l51.03 51.03c-10.21 40.82-40.82 71.44-51.03 112.26l-102.05-81.64c-122.47-122.47-153.08-132.67-285.75-234.73l-122.47-112.26c-20.41-40.82-20.41-153.08-30.61-204.1-40.83-163.29-71.44-81.65-91.85-377.6-10.21-81.65 30.61-122.47 40.82-183.7-40.82 30.62-61.23 132.67-71.44 204.11-81.64-20.41-153.08-224.52-183.7-295.96-30.61-91.85-30.61-81.64-91.84-142.87-10.21-10.21-102.06-132.67-102.06-132.67l51.03 91.84c61.23 91.85 102.05 153.08 142.87 265.34l40.83 91.85c0 30.62 91.84 91.85 91.84 275.55l-102.05-10.21c-40.82 0-102.05-20.41-142.88-40.82-173.49-91.85-173.49-102.05-255.13-265.34-20.41-61.23-61.23-102.05-102.05-153.08l-204.11-255.13c-10.21 0-10.21-10.21-20.41-10.21l-132.67-153.08c-30.62-20.41-40.82-30.62-61.23-71.44-30.62-30.61-40.83-30.61-40.83-81.64 40.83 10.2 20.41 10.2 51.03 30.61-10.2-40.82-20.41-40.82-40.82-71.43-51.03-71.44 20.41-30.62-142.88-142.88l91.85 234.73c10.21 51.02 30.62 71.43 61.23 102.05 30.62 40.82 51.03 40.82 81.65 71.44 112.26 91.85 214.31 204.1 316.36 316.36 51.03 71.44 91.85 122.47 122.47 204.11 40.82 81.64 51.03 132.67 132.67 183.7l193.9 122.46c51.03 20.41 71.44 20.41 142.88 20.41 81.64 0 61.23 20.41 61.23 71.44-51.03 0-122.47-10.2-163.29-20.41 30.62 30.62-10.2 10.21 40.82 20.41 71.44 20.41 91.85-20.41 132.67 51.03-112.25 0-132.67 10.2-204.1-40.82-153.08-91.85-295.96-173.49-357.19-357.19-51.03-163.29-193.9-295.96-326.57-387.81-40.83-30.61-102.06-61.23-91.85-91.84 0-20.42-61.23-30.62-81.65-51.03-51.02-71.44-112.25-132.67-163.28-204.11-20.41-30.62-30.62-40.82-40.82-81.64-40.82-61.23-102.06-102.06-142.88-163.29-10.2-20.41-10.2-51.03-30.61-30.61 10.2 20.41 0-20.42 10.2 30.61l10.21 91.85c-40.83-30.62-71.44-112.26-91.85-153.08-40.82-132.67-153.08-224.52-224.52-336.78-81.64-102.05-30.62-51.03-40.82-91.85 0-30.61-30.62-51.02-61.23-61.23 0-10.2 0-10.2 0-10.2s0 0-10.21 0v-10.21c-30.62-20.41-61.23-40.82-71.44-81.64 51.03 20.41 71.44 30.61 112.26 71.43l153.08 112.26c51.03 30.62 61.23 10.21 112.26 40.83 61.23 30.61 51.03 40.82 91.85 81.64 71.44 71.44 81.64 51.03 183.7 71.44 255.13 40.82 326.57 193.9 459.24 234.72 142.87 40.82 142.87-40.82 214.31 132.67 51.03 142.88 51.03 234.72 142.88 377.6 20.41 30.62 51.02 61.23 91.85 81.64-10.21-30.61-10.21-61.23-20.41-91.85l122.46 102.06c30.62 20.41 81.64 91.85 122.46 91.85 30.62 0 122.47-40.83 40.83-20.41l51.02-51.03v-10.21h10.21s0-20.41 10.2 0c20.41 30.62-30.61 71.44-51.02 91.85 30.61-10.2 51.02-20.41 71.43-40.82 20.42 20.41 40.83 30.62 61.24 51.03 10.2 10.2 20.41 20.41 20.41 30.61 10.2 10.21 10.2 0 20.41 10.21l10.2 10.2c30.62 40.83 71.44 30.62 81.65 71.44 20.41 112.26-20.41 234.73 10.2 336.78 10.21 51.03 10.21 102.05 61.23 102.05-10.2-61.23-30.61-102.05-40.82-173.49 0-40.82-10.2-71.44-10.2-91.85 10.2-132.67 40.82-306.16-40.82-428.62-20.41-30.62-30.62-40.82-51.03-61.24-30.62-51.02-71.44-71.43-102.05-112.25-51.03-61.24-102.06-102.06-173.5-142.88-51.02-40.82-51.02-81.64-91.84-112.26-10.21 51.03 0 51.03 20.41 102.05 30.61 71.44 71.43 265.34 112.26 295.96 0-51.03-20.42-102.05-30.62-142.87-10.21-61.24-20.41-81.65-30.62-132.67 40.82 20.41 61.24 61.23 81.65 112.25 102.05 153.09 81.64 71.44 20.41 183.7-10.21 40.82-10.21 61.23-30.62 91.85-40.82-10.21-40.82-30.62-61.23-61.23-40.82-40.82-81.64-61.23-132.67-91.85-20.41-20.41-30.62-40.82-51.03-61.23-112.26-81.65-112.26-153.08-173.49-285.75-81.64-193.91-102.05-193.91-224.52-234.73-51.03-10.2-51.03-20.41-91.85-30.61-40.82-10.21-51.02-10.21-91.85-20.41-20.41-10.21-51.02-30.62-71.43-40.83-51.03-30.61-30.62-20.41-40.82-51.02-91.85 0-112.26-51.03-183.7-71.44 0 10.2 10.2 10.2 20.41 30.62-51.03 0-153.08-30.62-193.9-51.03-40.82-10.21-51.03-30.62-71.44-51.03-20.41-40.82-30.62-20.41-61.23-61.23 20.41-10.21 61.23-10.21 81.64-20.41 40.82-20.41 20.41-20.41 51.03-51.03 51.02-51.03 61.23 20.41 142.87 20.41 0-30.61 0-40.82 30.62-40.82 234.72 0 204.11 153.08 357.19 255.14-10.21-51.03-71.44-153.09-102.06-193.91-30.61-40.82-81.64-71.43-132.67-91.85l-61.23-10.2c132.67-30.62 275.55-51.03 398.01-112.26 40.82 71.44 51.03 173.49 91.85 255.13 10.2 20.42 10.2 10.21 20.41 20.42 0-71.44-20.41-142.88-40.82-193.91-10.21-40.82-20.41-61.23-30.62-81.64-10.2-51.03 20.41 0 0-71.44-30.61 10.21-30.61 10.21-51.02 20.41-20.42 10.21-30.62 10.21-51.03 20.41-40.82 20.41-40.82 40.83-91.85 51.03 20.41-40.82 61.23-51.03 91.85-91.85 40.82-30.61 61.23-51.02 102.05-81.64 61.23-61.23 122.47-122.47 153.08-204.11 20.41-51.03 81.65-214.31 122.47-234.72 10.2-10.21 0 0 20.41 0l40.82-10.21 408.22-398.01c20.41-20.41 91.84-71.44 51.02-10.2-40.82 61.23-91.85 112.26-142.87 163.28l-214.32 183.7c-10.2 20.41-30.61 20.41-10.2 30.62 20.41-40.83 71.44-71.44 112.26-91.85-10.21 40.82-40.82 51.02-61.23 81.64 40.82-10.2 61.23-40.82 91.84-71.44 122.47-132.67 326.58-244.93 357.19-438.83 10.21-51.03 30.62-173.49 20.41-224.52 0 0-10.2-20.41-20.41-20.41-10.2-30.61 0 0-10.2-20.41 0 204.11-224.52 428.63-367.4 540.89l-193.9 173.49c-244.93 193.9-183.7 142.87-306.16 418.42-30.62 61.23-357.19 306.16-387.81 326.57-163.28 61.23-163.28 20.41-244.92 0-51.03-10.2-204.11-91.85-234.73-40.82 40.82 10.21 102.06 40.82 122.47 71.44-20.41-10.21-30.62-10.21-61.24-10.21l61.24 71.44c-40.83 81.64-51.03 81.64-132.67 40.82-142.88-51.03-183.7-61.23-295.96-163.28-81.64-71.44-173.49-132.67-244.93-214.32-61.23-91.85-102.05-255.13-71.44-367.39 51.03-173.49 112.26-316.37 224.52-459.24 102.06-132.67 367.4-346.99 500.07-418.42 40.82-30.62 91.84-61.24 142.87-81.65l142.88-71.44h10.2c-214.31 0-469.45 214.32-632.73 346.99l-112.26 102.05c10.2-40.82 40.82-61.23 71.44-81.64 132.67-132.67 265.34-255.14 428.62-336.78l204.11-91.85c-71.44 0-204.11 51.03-255.13 71.44-112.26 40.82-295.96 183.7-377.6 275.55l-61.24 61.23c-51.02 61.23-122.46 122.46-173.49 183.69-20.41 40.83-30.61 61.24-71.44 91.85l-112.25 132.67c-71.44 71.44-122.47 153.08-173.5 234.73-132.67 224.52-132.67 224.52-10.2 459.24 40.82 71.44 51.03 173.49 91.85 244.93 91.85 163.28 275.54 224.52 336.77 326.57 265.34 387.81 336.78 275.55 428.63 408.22 61.23 81.64 30.62 163.28 71.44 234.72 10.2 51.03 71.44 51.03 71.44 91.85 0 51.03-71.44 102.05-112.26 153.08-61.24 61.23-183.7 91.85-255.14 132.67-51.02 30.62-102.05 71.44-153.08 102.05-40.82 10.21-61.23 10.21-81.64 40.82 183.7 0 377.6-20.41 520.47-61.23 71.44-10.2 163.29-61.23 224.52-20.41 51.03 30.62 81.64 102.06 163.29 122.47-10.21 30.61-40.82 71.43-61.23 91.84-81.65 81.65-193.91 112.26-295.96 163.29-163.29 71.44-316.37 102.05-500.06 102.05 10.2 30.62 30.61 30.62 51.02 51.03 71.44 30.62 153.08 61.23 224.52 81.64 81.64 20.42 265.34 51.03 316.37 91.85-30.62 142.88-61.23 132.67-153.08 214.32-40.82 30.61-71.44 51.02-102.06 81.64-71.43 51.03-112.26 122.46-173.49 193.9-20.41 20.41-30.61 20.41-51.03 40.82l-122.46 153.08c-20.41 30.62-61.23 61.24-91.85 81.65 0 81.64 30.62 142.87 30.62 224.51 0 132.67-71.44 275.55-142.88 377.6-20.41 30.62-61.23 61.24-61.23 102.06 51.03-30.62 142.88-71.44 183.7-112.26s112.26-112.26 142.87-153.08c132.67-163.29 51.03-357.19 234.73-357.19-20.41 30.62-20.41 30.62-40.83 61.23 81.65-20.41 61.24-91.85 224.52-102.05 51.03 0 91.85-20.41 132.67-30.62 193.91-51.03 153.08-51.03 295.96-173.49 265.34-193.9 142.87-112.26 357.19-91.85-20.41 81.64-132.67 173.49-204.11 234.73-71.44 81.64-142.88 132.67-234.72 193.9-142.88 91.85-173.5 91.85-357.19 214.31-81.65 51.03-91.85 71.44-153.08 132.67-51.03 40.82-112.26 81.64-142.88 142.88-81.64 132.67-51.03 224.51-173.49 163.28 0 132.67 40.82 336.78 153.08 418.42 20.41 20.41 91.85 51.03 122.47 61.24-10.21-51.03-61.24-81.65-61.24-153.09 0-234.72 51.03-306.16 163.29-479.65 30.62-40.82 40.82-71.44 91.85-91.85 91.85-40.82 183.69-81.64 285.75-91.85l275.54-30.61v-10.21c51.03 0 40.83 0 81.65-20.41 61.23-30.61 112.26-81.64 153.08-132.67 61.23-71.44 153.08-112.26 173.49-214.31-20.41 20.41-30.62 40.82-163.29 132.67-10.2-112.26-20.41-132.67 51.03-234.72 30.62-51.03 20.41-112.26 81.64-122.47-20.41 20.41-30.61 30.62-30.61 81.64v30.62c-20.41 91.85-40.82 81.64 51.02 61.23h40.83c0 20.41 10.2 102.06 20.41 122.47-30.62 40.82 0 0-20.41 10.2-51.03 51.03-91.85 163.29-204.11 234.73-30.62 20.41 10.2 20.41-40.82 20.41-10.21-20.41 10.2-10.21 10.2-20.41l-112.26 51.02c0-10.2-10.2 0-10.2 0 224.52 0 193.9-61.23 275.54-81.64 0 61.23-20.41 81.64-71.44 102.05-112.25 61.24-346.98-10.2-418.42 81.65 30.62 0 40.83 0 61.24-10.21-10.21 61.23-40.83 112.26-51.03 193.9-40.82 142.88-132.67 255.14-214.31 377.6l-40.83 71.44c10.21-10.2 10.21-10.2 20.42-20.41l122.46-112.26c51.03-30.62 122.46-102.05 173.49-102.05 0-51.03 163.29-204.11 204.11-234.73 30.62-20.41 224.52-102.05 265.34-91.85l30.62 20.42c30.61-40.83 91.84-173.5 142.87-183.7 0 40.82-40.82 81.64-71.44 112.26-163.28 214.31-173.49 275.54-398.01 510.27-51.02 40.82-132.67 132.67-204.1 153.08l30.61-255.14c-40.82 30.62-81.64 112.26-102.05 173.49-10.21 30.62-30.62 71.44-40.82 102.06-20.41 61.23-71.44 122.46-102.06 173.49-81.64 102.05-173.49 183.7-244.93 295.96-20.41 40.82-30.61 51.02-40.82 91.84-71.44 122.47-122.46 234.73-163.28 377.6-10.21 40.83-10.21 71.44-20.42 112.26-30.61 112.26-10.2 91.85 10.21 102.06 0 51.02-20.41 30.61-30.62 81.64 10.21 0 30.62 20.41 40.83 20.41l20.41 30.62c51.02 61.23 81.64 142.87 102.05 224.52l295.96 775.6c20.41 51.03 40.82 91.85 71.43 142.88 163.29 326.57 377.6 612.32 622.53 877.66 20.41 20.41 30.62 40.82 51.03 61.24 30.62 20.41 30.62 30.61 61.23 40.82-10.2-61.24-357.19-591.92-387.8-642.94-102.06-183.7-285.75-530.68-285.75-734.79 0-20.41 51.02-61.23 71.43-61.23 0-61.23-40.82-91.85-61.23-142.88-61.23-112.26-112.26-346.98-112.26-469.45 0-153.08 204.11-551.09 275.55-663.35 91.85-142.87 204.11-265.34 316.36-387.8 40.83-30.62 71.44-112.26 102.06-132.67-10.21 61.23-30.62 51.03-30.62 132.67 40.82-10.21 30.62-20.41 61.23-51.03l234.73-326.57c30.61-30.62 61.23-102.05 91.85-122.46-40.82 173.49-255.14 336.77-255.14 540.88 0 40.82-10.2 173.49 61.23 142.88 51.03-40.82 20.42-30.62 112.26-30.62 10.21-20.41 20.41-30.62 30.62-51.03-61.23 0-91.85 10.21-142.88 10.21-40.82-91.85 10.21-183.7 51.03-255.14 40.82-81.64 71.44-142.87 102.06-234.72 40.82-81.64 71.43-183.7 142.87-244.93l61.23-61.23c40.82-40.82 30.62-51.03 81.65-81.64-10.21 40.82-40.83 51.02-51.03 91.84-61.23 244.93-91.85 265.34-132.67 561.3-10.21 61.23-20.41 173.49-40.82 234.72-30.62 112.26-112.26 316.37-173.49 377.6-142.88 163.29-102.06 183.7-142.88 275.55 0 0-30.62 40.82-30.62 40.82-20.41 30.62 0 20.41-40.82 20.41l20.41-91.85-91.84 71.44c0-20.41 0-20.41 0-20.41-10.21-30.62 0 40.82-10.21-10.21 0-51.02 51.03-122.46 61.23-173.49 20.41-71.43 81.65-153.08 61.23-224.52-30.61 40.83-61.23 122.47-81.64 163.29-20.41 61.23-40.82 112.26-71.44 163.29-51.02 102.05-142.87 173.49-193.9 275.54 61.23-10.2 163.29-91.85 224.52-122.46-51.03 204.11-30.62 561.29 71.44 734.79l61.23 71.43c10.21 20.41 0 10.21 20.41 20.41 0-30.61-10.2-61.23-10.2-102.05-40.83-193.9-10.21-469.45 91.84-632.73 30.62-51.03 51.03-91.85 102.06-122.47l112.26-102.05c173.49-142.88 142.87-112.26 142.87-204.11-10.2-20.41 0-10.21 0-40.82 0-51.03-20.41-91.85-20.41-132.67 0 0 40.82-132.67 40.82-142.88 51.03 30.62 61.24 112.26 132.67 163.29-10.2-30.62-20.41-61.23-30.61-91.85-20.41-112.26 51.02-71.44 40.82-163.29-10.21-51.02-10.21-30.61 0-91.84 30.61 20.41 20.41 0 40.82 40.82l122.46 408.21c0 20.41-40.82 51.03-51.02 40.82 0 153.09-81.65 224.52-132.67 346.99-10.21 40.82-20.41 81.64-51.03 102.05-40.82-10.2-30.62-20.41-61.23-40.82 0 122.46-20.41 357.19-40.82 489.86-10.21 40.82-30.62 91.85-30.62 142.87 0 71.44 40.82 91.85-40.82 173.5-30.62-20.42-51.03-51.03-61.23-91.85-10.21-30.62-10.21-81.65-30.62-112.26 0 71.44 0 214.31 91.85 224.52l20.41 193.9c20.41 122.46 71.44 244.93 132.67 346.98 10.21 10.21 0 10.21 10.21 20.41l30.61 40.82c10.21 30.62-10.2 10.21 20.41 30.62 0-51.03-20.41-81.64-20.41-142.88v-193.9c0-163.28 102.06-438.83 153.08-591.91 20.41-51.03 61.23-122.46 71.44-173.49 193.9 0 193.9 244.93 173.49 377.6 0 51.02-10.2 51.02 20.41 71.44 10.21-40.83 20.41-51.03 40.82-91.85l51.03-81.65 10.21 112.26c0-122.46-20.41-132.67 61.23-183.69-20.41 81.64-10.21 132.67-30.62 204.1-10.2 61.24-40.82 142.88-40.82 214.32 30.62-20.41 20.41-20.41 30.62-61.24 71.43-153.08 102.05-285.75 102.05-469.44 91.85 61.23 183.7 214.31 234.72 306.16 132.67 234.72 61.24 214.31 91.85 438.83 20.41 132.67 81.65 275.55 132.67 408.22 61.24 142.87 214.32 847.04 224.52 1010.33h20.41c0-357.19 112.26-459.24 163.29-653.15 20.41-112.26 51.03-316.36 51.03-428.62h-10.21c0 122.46-51.03 183.69-51.03 295.95h-10.2c0-204.1 30.61-346.98 112.26-500.06 51.02-122.46 20.41-163.29 20.41-306.16 0-20.41 20.41-61.23 30.61-81.64l61.24-163.29c10.2-30.62 10.2-61.23 20.41-81.64 30.61-71.44 153.08-193.91 214.31-214.32 0 142.88 0 173.49 30.62 295.96 20.41 51.03 71.43 163.29 112.26 204.11 0-61.24-30.62-142.88-40.83-193.91-10.2-61.23 0-163.28 0-224.51l30.62 51.02c30.62 40.82 51.03 91.85 81.64 132.67 10.21-40.82 30.62-61.23 30.62-102.05h20.41c0 61.23 0 81.64 10.21 132.67 30.61-20.41 20.41-40.82 20.41-91.85 0-102.05 20.41-193.9 20.41-285.75 30.61-20.41 10.2-20.41 61.23-30.62 20.41-10.2 40.82-20.41 61.23-20.41 40.82 173.49 81.64 367.4 132.67 530.68 112.26 357.19 30.62 377.6 20.41 561.3l91.85-142.88c40.82-51.02 61.23-81.64 81.64-142.87 20.41-51.03 40.83-112.26 51.03-183.7 10.21-71.44-10.2-153.08 0-224.52 40.82-244.93-122.46-500.06-122.46-775.61-30.62 10.21-30.62 10.21-40.83 40.83-40.82-30.62-51.02-91.85-71.43-142.88-30.62-40.82-61.24-81.64-61.24-153.08 0-142.88 10.21-183.7 51.03-326.57 10.21-51.03 40.82-132.67 81.64-163.29 10.21 51.03 40.83 91.85 61.24 142.88 81.64 275.54-40.82 255.13 81.64 357.18 102.05 81.65 224.52 204.11 306.16 306.17 112.26 153.08 142.88 489.85 102.06 673.55-30.62 153.08 71.43-10.2 91.84-40.82 61.24-163.29 51.03-346.98 40.83-510.27 0-40.82 10.2-20.41 10.2-51.03-10.2-30.61-20.41-61.23-20.41-102.05 61.23 10.21 132.67 20.41 183.7 61.23 0 0 20.41 10.21 30.61 10.21 0 10.2 0 20.41 10.21 10.2v10.21l-20.41-51.03c-10.21-10.2-10.21-20.41-20.41-40.82-61.24-71.44-102.06-122.46-153.08-214.31-30.62-71.44-91.85-306.16-142.88-346.99 0 122.47 61.23 244.93 102.05 357.19 20.42 71.44 61.24 112.26 91.85 173.49-61.23-20.41-193.9-153.08-224.52-214.31-20.41-51.03-51.02-102.05-71.43-153.08-10.21-30.62-10.21-71.44-10.21-91.85-10.2-30.61-10.2-40.82 20.41-51.03v-40.82c-40.82-10.2-40.82-40.82-61.23-81.64 40.82 0 20.41 0 51.03 20.41 91.85-173.49 173.49-81.64 0-326.57-40.82-40.82-71.44-71.44-112.26-102.06-10.21-10.2-30.62-40.82-40.82-20.41 40.82 30.62 132.67 112.26 132.67 163.29 0 91.85-10.21 163.29-153.08 71.44-20.42 40.82-20.42 40.82-10.21 91.85l30.62 81.64c0-51.03-10.21-61.23-10.21-122.47 20.41 10.21 81.64 30.62 81.64 51.03l10.21 173.49c61.23 285.75 122.46 295.96 193.9 428.63 10.21 20.41 0 10.2 0 30.62l40.82 112.25c-51.02-20.41-40.82-20.41-71.43-71.43-20.42-71.44-61.24-122.47-102.06-183.7 0-10.21-40.82-91.85-40.82-91.85l20.41 61.23c10.21 20.41 10.21 20.41 20.41 51.03-61.23-51.03-173.49-244.93-193.9-336.78-20.41-61.23-20.41-71.43-40.82-132.67-91.85-193.9-20.41-418.42-20.41-622.53 51.02 61.24 81.64 132.67 132.67 183.7 102.05 122.47 102.05 112.26 214.31 244.93 81.64 112.26 71.44 81.64 153.08 153.08 20.41 20.41 51.03 71.44 81.64 71.44 71.44 0 163.29-10.21 224.52 0-20.41 20.41-51.02 20.41-81.64 20.41-122.47 20.41-153.08 10.21-255.14 10.21-40.82 0-20.41-30.62-30.61 10.2l142.87 40.82c61.24 10.21 142.88 132.67 173.5 183.7 193.9 346.98 367.39 500.06 244.92 898.07-20.41 81.65-71.43 102.06-81.64 183.7 40.82 0 30.62 10.21 81.64 10.21 0 244.92-173.49 612.32-295.95 816.43-71.44 112.26-122.47 224.51-204.11 336.77l-204.11 295.96c0 10.21 0 20.41-10.2 10.21v10.2l10.2 10.21z" fill="#282828"/></svg>