<svg clip-rule="evenodd" fill-rule="evenodd" height="128.5mm" image-rendering="optimizeQuality" shape-rendering="geometricPrecision" text-rendering="geometricPrecision" viewBox="0 0 11684 12850" width="116.84mm" xmlns="http://www.w3.org/2000/svg" xmlns:xlink="http://www.w3.org/1999/xlink"><linearGradient id="a" gradientUnits="userSpaceOnUse" x1="787.6" x2="787.6" y1="10467.08" y2="12468.83"><stop offset="0" stop-color="#005f30"/><stop offset=".34902" stop-color="#003e26"/><stop offset="1" stop-color="#001c1c"/></linearGradient><linearGradient id="b" gradientUnits="userSpaceOnUse" x1="10219.6" x2="10219.6" y1="10467.07" y2="12468.83"><stop offset="0" stop-color="#610000"/><stop offset=".34902" stop-color="#3d0000"/><stop offset="1" stop-color="#180000"/></linearGradient><linearGradient id="c" gradientUnits="userSpaceOnUse" x1="5609.59" x2="5609.59" y1="12468.85" y2="10467.07"><stop offset="0"/><stop offset=".768627" stop-color="#262626"/><stop offset="1" stop-color="#4c4c4c"/></linearGradient><radialGradient id="d" cx="8432.93" cy="11467.96" gradientTransform="matrix(0 -1.00002 1 0 -3035 19901)" gradientUnits="userSpaceOnUse" r="850"><stop offset="0" stop-color="#303030"/><stop offset="1" stop-color="#141414"/></radialGradient><path d="m461.77 10467.08h843.3v1810.1c0 105.41-86.24 191.65-191.65 191.65h-843.3v-1810.11c0-105.4 86.24-191.64 191.65-191.64z" fill="url(#a)" stroke="#666" stroke-miterlimit="22.9256" stroke-width="26.42"/><g fill="#656565"><rect height="2700" rx="93.9" ry="108.53" width="400" x="632.9" y="5908.99"/><rect height="2700" rx="93.9" ry="108.53" width="400" x="2063.59" y="5908.99"/><rect height="2700" rx="93.9" ry="108.53" width="400" x="3494.28" y="5908.99"/></g><g fill="#dddad6" fill-rule="nonzero"><path d="m1549.17 7127.4-63.92 26.32v82.71l56.4-18.8v172.94h97.78v-263.17z"/><path d="m1804.89 7206.35c15.04 0 30.09 15.04 30.09 52.64 0 37.59-15.05 52.63-30.09 52.63-15.05 0-30.08-15.04-30.08-52.63 0-37.6 15.03-52.64 30.08-52.64zm0 189.86c71.45 0 127.85-56.39 127.85-137.22s-56.4-137.22-127.85-137.22-127.85 56.39-127.85 137.22 56.4 137.22 127.85 137.22z"/><path d="m3087 7127.4-63.92 26.32v82.71l56.4-18.8v172.94h97.78v-263.17z"/><path d="m3271.27 7127.4-63.93 26.32v82.71l56.41-18.8v172.94h97.77v-263.17z"/><path d="m384.21 7285.3c0 18.8-18.8 37.6-48.88 37.6-22.57 0-41.37-11.28-41.37-11.28l-26.32 60.15s33.84 24.44 86.49 24.44c67.69 0 124.1-56.39 124.1-137.22 0-88.35-48.89-137.22-120.34-137.22-63.93 0-105.29 41.35-105.29 95.86 0 52.64 33.84 86.47 86.49 86.47 30.08 0 45.12-18.8 45.12-18.8zm-45.12-67.67c0-16.91 9.4-26.31 18.8-26.31s18.8 9.4 18.8 26.31c0 16.92-9.4 26.32-18.8 26.32s-18.8-9.4-18.8-26.32z"/></g><g fill="#656565"><rect height="2700" rx="93.9" ry="108.53" width="400" x="632.9" y="1375.66"/><rect height="2700" rx="93.9" ry="108.53" width="400" x="2063.59" y="1375.66"/><rect height="2700" rx="93.9" ry="108.53" width="400" x="3494.28" y="1375.66"/></g><g fill-rule="nonzero"><g fill="#dddad6"><path d="m387.97 2594.07-63.92 26.32v82.71l56.4-18.8v172.94h97.78v-263.17z"/><path d="m1932.74 2675.84c0-43.23-41.36-84.58-107.17-84.58-71.45 0-105.29 41.35-105.29 41.35l35.72 56.39s22.57-20.67 54.53-20.67c13.16 0 20.68 7.51 20.68 18.79 0 33.84-105.29 97.75-105.29 97.75v75.19h203.06v-82.71h-75.21s78.97-37.59 78.97-101.51z"/><path d="m3350.24 2670.2v-78.95h-184.26v78.95h86.49l-45.13 30.08v48.87h31.97c13.16 0 20.68 7.52 20.68 16.92s-7.52 16.92-20.68 16.92c-31.97 0-54.53-20.68-54.53-20.68l-35.72 56.39s33.84 41.36 105.29 41.36c65.81 0 107.17-41.36 107.17-82.71 0-62.03-63.92-73.31-63.92-73.31z"/></g><path d="m787.59 11104.9-329.39-412.88h294v96.19h-95.28l130.67 163.34 130.67-163.34h-95.28v-96.19h294.01z" fill="#001a2d"/></g><g fill="#dddad6"><path d="m1393.37 861.14c-48.76 0-88.16-12.75-118.2-38.26-30.05-25.51-45.07-59.81-45.07-102.89 0-26.08 6.95-49.6 20.83-70.58 13.89-20.97 33.17-37.41 57.83-49.32 24.66-11.9 53.14-17.85 85.46-17.85 49.88 0 93.82 16.72 131.8 50.17v-112.25h-159.02v-51.87h159.02v-79.93h-159.02v-51.87h159.02v-89.28h64.62v89.28h159.01v51.87h-159.01v79.93h159.01v51.87h-159.01v112.25c36.28-33.45 80.22-50.17 131.8-50.17 32.88 0 61.65 5.95 86.31 17.85 24.66 11.91 43.79 28.35 57.4 49.32 13.6 20.98 20.41 44.5 20.41 70.58 0 43.65-15.31 78.09-45.92 103.31-30.61 25.23-69.73 37.84-117.35 37.84-30.61 0-60.8-7.51-90.56-22.53s-54.56-36.99-74.4-65.9c-19.84 28.91-44.64 50.88-74.4 65.9-29.77 15.02-59.95 22.53-90.56 22.53zm-.86-58.67c49.32 0 92.12-27.49 128.4-82.48-32.31-53.29-75.11-79.93-128.4-79.93-31.17 0-54.84 7.79-71 23.38-16.15 15.59-24.23 34.72-24.23 57.4 0 22.11 7.51 41.24 22.53 57.4 15.02 16.15 39.26 24.23 72.7 24.23zm331.63 0c33.45 0 57.68-8.08 72.71-24.23 15.02-16.16 22.53-35.29 22.53-57.4 0-22.68-8.08-41.81-24.23-57.4-16.16-15.59-39.83-23.38-71.01-23.38-52.72 0-95.52 26.64-128.4 79.93 36.28 54.99 79.08 82.48 128.4 82.48z" fill-rule="nonzero"/><path d="m2676.79 866.8c17.57-10.42 31.4-24.27 41.54-41.54 10.12-17.27 15.18-36.62 15.18-58.06 0-11.3-1.78-22.62-5.36-33.93-3.58-11.32-9.23-22.62-16.97-33.95l118.8-242.94c21.42 0 40.93-5.21 58.49-15.63 17.57-10.43 31.42-24.27 41.54-41.54s15.18-36.61 15.18-58.05-5.06-40.95-15.18-58.52c-10.12-17.56-23.97-31.4-41.54-41.53-17.56-10.12-37.07-15.18-58.49-15.18-21.44 0-40.81 5.06-58.06 15.18-17.27 10.13-31.12 23.97-41.54 41.53-10.43 17.57-15.63 37.08-15.63 58.52 0 19.05 3.72 36.16 11.17 51.35 7.43 15.18 18.3 28.14 32.6 38.86l-106.29 225.98c-5.36-1.8-10.87-3.14-16.52-4.03-5.67-.89-11.46-1.34-17.43-1.34-5.95 0-11.76.45-17.41 1.34s-11.16 2.23-16.52 4.03l-106.29-225.99c14.88-10.71 25.9-23.67 33.04-38.85 7.15-15.19 10.73-32.3 10.73-51.35 0-21.44-5.08-40.95-15.2-58.52-10.12-17.56-23.97-31.4-41.53-41.53-17.57-10.12-37.06-15.18-58.5-15.18s-40.79 5.06-58.06 15.18c-17.27 10.13-31.12 23.97-41.53 41.53-10.42 17.57-15.63 37.08-15.63 58.52s5.21 40.78 15.63 58.05c10.41 17.27 24.26 31.11 41.53 41.54 17.27 10.41 36.62 15.63 58.06 15.63l118.79 242.94c-14.88 20.26-22.33 42.88-22.33 67.88 0 21.44 5.21 40.79 15.63 58.06 10.43 17.27 24.26 31.12 41.53 41.54 17.28 10.41 36.62 15.63 58.06 15.63s40.95-5.22 58.51-15.63zm-96.47-61.64c-10.41-10.41-15.63-23.06-15.63-37.96 0-14.88 5.22-27.52 15.63-37.96 10.43-10.41 23.08-15.63 37.96-15.63 14.9 0 27.55 5.22 37.96 15.63 10.43 10.44 15.63 23.08 15.63 37.96 0 14.9-5.2 27.55-15.63 37.96-10.41 10.44-23.06 15.64-37.96 15.64-14.88 0-27.53-5.2-37.96-15.64zm-211.68-426.04c-10.43-10.44-15.63-23.08-15.63-37.96 0-14.9 5.2-27.55 15.63-37.96 10.42-10.44 23.06-15.64 37.96-15.64 14.88 0 27.53 5.2 37.96 15.64 10.42 10.41 15.63 23.06 15.63 37.96 0 14.88-5.21 27.52-15.63 37.96-10.43 10.41-23.08 15.63-37.96 15.63-14.9 0-27.55-5.22-37.96-15.63zm423.38 0c-10.43-10.44-15.63-23.08-15.63-37.96 0-14.9 5.2-27.55 15.63-37.96 10.41-10.44 23.06-15.64 37.96-15.64 15.47 0 28.28 5.2 38.4 15.64 10.12 10.41 15.19 23.06 15.19 37.96 0 14.88-5.07 27.52-15.19 37.96-10.12 10.41-22.93 15.63-38.4 15.63-14.9 0-27.55-5.22-37.96-15.63z"/><path d="m3676.45 883.74v-160.9h279.82v-46.64c-36.27-34.2-66.32-64.24-90.16-90.16-23.83-25.91-41.72-47.92-53.63-66.06-11.92-18.15-20.86-34.98-26.81-50.53-5.97-15.54-8.94-29.8-8.94-42.75 0-15.54 5.31-28.37 15.92-38.46 10.63-10.11 24.49-15.17 41.6-15.17 14.49 0 26.67 2.85 36.52 8.55s17.63 13.48 23.32 23.31c5.69 9.86 9.06 21.26 10.11 34.21h58.3c-1.57-17.1-5.83-32.9-12.83-47.41-7-14.52-16.06-26.95-27.21-37.32-11.14-10.35-24.09-18.52-38.86-24.47-14.77-5.97-30.97-8.94-48.58-8.94-37.83 0-66.98 9.2-87.44 27.58-20.47 18.4-30.71 44.44-30.71 78.12 0 15.03 2.99 31.1 8.94 48.19 5.97 17.11 14.91 35.23 26.82 54.41 11.92 18.14 29.27 39.77 52.07 64.91 22.81 25.13 50.79 53.5 83.96 85.11h-212.21v-301.59c16.58-4.66 30.18-13.86 40.81-27.58 10.63-13.74 15.94-29.67 15.94-47.81 0-14.51-3.51-27.6-10.5-39.26s-16.32-20.98-27.98-27.97c-11.66-7-24.75-10.5-39.25-10.5-14.51 0-27.59 3.5-39.25 10.5-11.66 6.99-20.98 16.31-27.98 27.97s-10.49 24.75-10.49 39.26c0 18.14 5.43 34.07 16.32 47.81 10.88 13.72 24.61 22.92 41.18 27.58v301.59h-211.41c33.69-31.09 61.93-59.07 84.73-83.96 22.8-24.86 39.89-46.89 51.29-66.06 11.92-19.18 20.86-37.18 26.81-54.02 5.97-16.83 8.95-33.03 8.95-48.58 0-33.68-10.36-59.72-31.1-78.12-20.72-18.38-49.74-27.58-87.04-27.58-17.11 0-33.17 2.97-48.2 8.94-15.02 5.95-28.1 14.12-39.25 24.47-11.14 10.37-20.2 22.8-27.2 37.32-7 14.51-11.28 30.31-12.83 47.41h58.3c1.03-13.98 4.54-25.9 10.49-35.75 5.96-9.86 13.99-17.36 24.09-22.55 10.11-5.17 21.91-7.77 35.37-7.77 17.1 0 30.96 5.19 41.58 15.54 10.63 10.37 15.94 23.06 15.94 38.09 0 26.43-12.17 57.78-36.54 94.05-11.92 18.14-29.92 40.17-54.01 66.07-24.1 25.91-53.76 55.71-88.99 89.38v46.64h279.02v160.9zm-51.69-550.7c-8.54-8.55-12.82-18.78-12.82-30.7s4.28-22.15 12.82-30.69c8.55-8.57 18.8-12.83 30.71-12.83 11.92 0 22.15 4.26 30.7 12.83 8.55 8.54 12.83 18.77 12.83 30.69s-4.28 22.15-12.83 30.7c-8.55 8.56-18.78 12.83-30.7 12.83-11.91 0-22.16-4.27-30.71-12.83z"/><g fill-rule="nonzero"><path d="m378.08 4607.35 22.3-72.44v72.44h48.3v-130.02h-68.75l-21.36 70.58-21.37-70.58h-68.74v130.02h48.31v-72.44l22.29 72.44z"/><path d="m3240.5 4607.35 22.3-72.44v72.44h48.3v-130.02h-68.75l-21.36 70.58-21.37-70.58h-68.74v130.02h48.31v-72.44l22.29 72.44z"/><path d="m3240.5 9141.11 22.3-72.44v72.44h48.3v-130.02h-68.75l-21.36 70.58-21.37-70.58h-68.74v130.02h48.31v-72.44l22.29 72.44z"/><path d="m4671.7 4607.35 22.3-72.44v72.44h48.3v-130.02h-68.75l-21.36 70.58-21.37-70.58h-68.74v130.02h48.31v-72.44l22.29 72.44z"/><path d="m4671.7 9141.11 22.3-72.44v72.44h48.3v-130.02h-68.75l-21.36 70.58-21.37-70.58h-68.74v130.02h48.31v-72.44l22.29 72.44z"/><path d="m6102.9 4607.35 22.3-72.44v72.44h48.3v-130.02h-68.75l-21.36 70.58-21.37-70.58h-68.74v130.02h48.31v-72.44l22.29 72.44z"/><path d="m6102.9 9141.11 22.3-72.44v72.44h48.3v-130.02h-68.75l-21.36 70.58-21.37-70.58h-68.74v130.02h48.31v-72.44l22.29 72.44z"/><path d="m7534.1 4607.35 22.3-72.44v72.44h48.3v-130.02h-68.75l-21.36 70.58-21.37-70.58h-68.74v130.02h48.31v-72.44l22.29 72.44z"/><path d="m7534.1 9141.11 22.3-72.44v72.44h48.3v-130.02h-68.75l-21.36 70.58-21.37-70.58h-68.74v130.02h48.31v-72.44l22.29 72.44z"/><path d="m8965.3 4607.35 22.3-72.44v72.44h48.3v-130.02h-68.75l-21.36 70.58-21.37-70.58h-68.74v130.02h48.31v-72.44l22.29 72.44z"/><path d="m8965.3 9141.11 22.3-72.44v72.44h48.3v-130.02h-68.75l-21.36 70.58-21.37-70.58h-68.74v130.02h48.31v-72.44l22.29 72.44z"/><path d="m10396.5 4607.35 22.3-72.44v72.44h48.3v-130.02h-68.75l-21.36 70.58-21.37-70.58h-68.74v130.02h48.31v-72.44l22.29 72.44z"/><path d="m10396.5 9141.11 22.3-72.44v72.44h48.3v-130.02h-68.75l-21.36 70.58-21.37-70.58h-68.74v130.02h48.31v-72.44l22.29 72.44z"/><path d="m1809.33 4607.35 22.3-72.44v72.44h48.3v-130.02h-68.75l-21.36 70.58-21.37-70.58h-68.74v130.02h48.31v-72.44l22.29 72.44z"/><path d="m1809.33 9141.11 22.3-72.44v72.44h48.3v-130.02h-68.75l-21.36 70.58-21.37-70.58h-68.74v130.02h48.31v-72.44l22.29 72.44z"/><path d="m352.54 5455.78c-18.58 0-31.59-12.08-31.59-12.08l-17.65 27.87s16.72 22.29 57.6 22.29c32.52 0 52.95-20.44 52.95-41.8 0-40.86-50.16-40.86-50.16-50.15 0-2.79 2.78-5.57 7.43-5.57 13 0 24.15 10.21 24.15 10.21l17.65-27.86s-16.72-20.43-50.16-20.43c-32.52 0-52.95 20.43-52.95 41.79 0 40.87 50.16 40.87 50.16 50.16 0 2.78-2.79 5.57-7.43 5.57z"/><path d="m1783.79 5455.78c-18.58 0-31.59-12.08-31.59-12.08l-17.65 27.87s16.72 22.29 57.6 22.29c32.52 0 52.95-20.44 52.95-41.8 0-40.86-50.16-40.86-50.16-50.15 0-2.79 2.78-5.57 7.43-5.57 13 0 24.15 10.21 24.15 10.21l17.65-27.86s-16.72-20.43-50.16-20.43c-32.52 0-52.95 20.43-52.95 41.79 0 40.87 50.16 40.87 50.16 50.16 0 2.78-2.79 5.57-7.43 5.57z"/><path d="m1783.79 9990.9c-18.58 0-31.59-12.08-31.59-12.08l-17.65 27.87s16.72 22.29 57.6 22.29c32.52 0 52.95-20.44 52.95-41.8 0-40.86-50.16-40.86-50.16-50.15 0-2.79 2.78-5.57 7.43-5.57 13 0 24.15 10.21 24.15 10.21l17.65-27.86s-16.72-20.43-50.16-20.43c-32.52 0-52.95 20.43-52.95 41.79 0 40.87 50.16 40.87 50.16 50.16 0 2.78-2.79 5.57-7.43 5.57z"/><path d="m3214.96 5455.78c-18.58 0-31.59-12.08-31.59-12.08l-17.65 27.87s16.72 22.29 57.6 22.29c32.52 0 52.95-20.44 52.95-41.8 0-40.86-50.16-40.86-50.16-50.15 0-2.79 2.78-5.57 7.43-5.57 13 0 24.15 10.21 24.15 10.21l17.65-27.86s-16.72-20.43-50.16-20.43c-32.52 0-52.95 20.43-52.95 41.79 0 40.87 50.16 40.87 50.16 50.16 0 2.78-2.79 5.57-7.43 5.57z"/><path d="m3214.96 9990.9c-18.58 0-31.59-12.08-31.59-12.08l-17.65 27.87s16.72 22.29 57.6 22.29c32.52 0 52.95-20.44 52.95-41.8 0-40.86-50.16-40.86-50.16-50.15 0-2.79 2.78-5.57 7.43-5.57 13 0 24.15 10.21 24.15 10.21l17.65-27.86s-16.72-20.43-50.16-20.43c-32.52 0-52.95 20.43-52.95 41.79 0 40.87 50.16 40.87 50.16 50.16 0 2.78-2.79 5.57-7.43 5.57z"/><path d="m4646.16 5455.78c-18.58 0-31.59-12.08-31.59-12.08l-17.65 27.87s16.72 22.29 57.6 22.29c32.52 0 52.95-20.44 52.95-41.8 0-40.86-50.16-40.86-50.16-50.15 0-2.79 2.78-5.57 7.43-5.57 13 0 24.15 10.21 24.15 10.21l17.65-27.86s-16.72-20.43-50.16-20.43c-32.52 0-52.95 20.43-52.95 41.79 0 40.87 50.16 40.87 50.16 50.16 0 2.78-2.79 5.57-7.43 5.57z"/><path d="m4646.16 9990.9c-18.58 0-31.59-12.08-31.59-12.08l-17.65 27.87s16.72 22.29 57.6 22.29c32.52 0 52.95-20.44 52.95-41.8 0-40.86-50.16-40.86-50.16-50.15 0-2.79 2.78-5.57 7.43-5.57 13 0 24.15 10.21 24.15 10.21l17.65-27.86s-16.72-20.43-50.16-20.43c-32.52 0-52.95 20.43-52.95 41.79 0 40.87 50.16 40.87 50.16 50.16 0 2.78-2.79 5.57-7.43 5.57z"/><path d="m6077.36 5455.78c-18.58 0-31.59-12.08-31.59-12.08l-17.65 27.87s16.72 22.29 57.6 22.29c32.52 0 52.95-20.44 52.95-41.8 0-40.86-50.16-40.86-50.16-50.15 0-2.79 2.78-5.57 7.43-5.57 13 0 24.15 10.21 24.15 10.21l17.65-27.86s-16.72-20.43-50.16-20.43c-32.52 0-52.95 20.43-52.95 41.79 0 40.87 50.16 40.87 50.16 50.16 0 2.78-2.79 5.57-7.43 5.57z"/><path d="m6077.36 9990.9c-18.58 0-31.59-12.08-31.59-12.08l-17.65 27.87s16.72 22.29 57.6 22.29c32.52 0 52.95-20.44 52.95-41.8 0-40.86-50.16-40.86-50.16-50.15 0-2.79 2.78-5.57 7.43-5.57 13 0 24.15 10.21 24.15 10.21l17.65-27.86s-16.72-20.43-50.16-20.43c-32.52 0-52.95 20.43-52.95 41.79 0 40.87 50.16 40.87 50.16 50.16 0 2.78-2.79 5.57-7.43 5.57z"/><path d="m7508.56 5455.78c-18.58 0-31.59-12.08-31.59-12.08l-17.65 27.87s16.72 22.29 57.6 22.29c32.52 0 52.95-20.44 52.95-41.8 0-40.86-50.16-40.86-50.16-50.15 0-2.79 2.78-5.57 7.43-5.57 13 0 24.15 10.21 24.15 10.21l17.65-27.86s-16.72-20.43-50.16-20.43c-32.52 0-52.95 20.43-52.95 41.79 0 40.87 50.16 40.87 50.16 50.16 0 2.78-2.79 5.57-7.43 5.57z"/><path d="m7508.56 9990.9c-18.58 0-31.59-12.08-31.59-12.08l-17.65 27.87s16.72 22.29 57.6 22.29c32.52 0 52.95-20.44 52.95-41.8 0-40.86-50.16-40.86-50.16-50.15 0-2.79 2.78-5.57 7.43-5.57 13 0 24.15 10.21 24.15 10.21l17.65-27.86s-16.72-20.43-50.16-20.43c-32.52 0-52.95 20.43-52.95 41.79 0 40.87 50.16 40.87 50.16 50.16 0 2.78-2.79 5.57-7.43 5.57z"/><path d="m8939.76 5455.78c-18.58 0-31.59-12.08-31.59-12.08l-17.65 27.87s16.72 22.29 57.6 22.29c32.52 0 52.95-20.44 52.95-41.8 0-40.86-50.16-40.86-50.16-50.15 0-2.79 2.78-5.57 7.43-5.57 13 0 24.15 10.21 24.15 10.21l17.65-27.86s-16.72-20.43-50.16-20.43c-32.52 0-52.95 20.43-52.95 41.79 0 40.87 50.16 40.87 50.16 50.16 0 2.78-2.79 5.57-7.43 5.57z"/><path d="m8939.76 9990.9c-18.58 0-31.59-12.08-31.59-12.08l-17.65 27.87s16.72 22.29 57.6 22.29c32.52 0 52.95-20.44 52.95-41.8 0-40.86-50.16-40.86-50.16-50.15 0-2.79 2.78-5.57 7.43-5.57 13 0 24.15 10.21 24.15 10.21l17.65-27.86s-16.72-20.43-50.16-20.43c-32.52 0-52.95 20.43-52.95 41.79 0 40.87 50.16 40.87 50.16 50.16 0 2.78-2.79 5.57-7.43 5.57z"/><path d="m10370.96 5455.78c-18.58 0-31.59-12.08-31.59-12.08l-17.65 27.87s16.72 22.29 57.6 22.29c32.52 0 52.95-20.44 52.95-41.8 0-40.86-50.16-40.86-50.16-50.15 0-2.79 2.78-5.57 7.43-5.57 13 0 24.15 10.21 24.15 10.21l17.65-27.86s-16.72-20.43-50.16-20.43c-32.52 0-52.95 20.43-52.95 41.79 0 40.87 50.16 40.87 50.16 50.16 0 2.78-2.79 5.57-7.43 5.57z"/><path d="m10370.96 9990.9c-18.58 0-31.59-12.08-31.59-12.08l-17.65 27.87s16.72 22.29 57.6 22.29c32.52 0 52.95-20.44 52.95-41.8 0-40.86-50.16-40.86-50.16-50.15 0-2.79 2.78-5.57 7.43-5.57 13 0 24.15 10.21 24.15 10.21l17.65-27.86s-16.72-20.43-50.16-20.43c-32.52 0-52.95 20.43-52.95 41.79 0 40.87 50.16 40.87 50.16 50.16 0 2.78-2.79 5.57-7.43 5.57z"/><path d="m378.08 9141.12 22.3-72.44v72.44h48.3v-130.02h-68.75l-21.36 70.58-21.37-70.58h-68.74v130.02h48.31v-72.44l22.29 72.44z"/><path d="m352.54 9990.9c-18.58 0-31.59-12.08-31.59-12.08l-17.65 27.87s16.72 22.29 57.6 22.29c32.52 0 52.95-20.44 52.95-41.8 0-40.86-50.16-40.86-50.16-50.15 0-2.79 2.78-5.57 7.43-5.57 13 0 24.15 10.21 24.15 10.21l17.65-27.86s-16.72-20.43-50.16-20.43c-32.52 0-52.95 20.43-52.95 41.79 0 40.87 50.16 40.87 50.16 50.16 0 2.78-2.79 5.57-7.43 5.57z"/></g></g><g fill="#656565"><rect height="2700" rx="93.9" ry="108.53" width="400" x="7786.35" y="5908.99"/><rect height="2700" rx="93.9" ry="108.53" width="400" x="9217.04" y="5908.99"/><rect height="2700" rx="93.9" ry="108.53" width="400" x="10647.74" y="5908.99"/></g><g fill="#dddad6" fill-rule="nonzero"><path d="m8750.38 7124.58-63.92 26.32v82.71l56.4-18.8v172.94h97.78v-263.17z"/><path d="m8992.93 7218.57c-15.04 0-26.31 3.76-26.31 3.76l3.76-18.8h97.76v-78.95h-169.21l-18.8 124.07 45.12 30.07s15.04-7.51 30.09-7.51c16.92 0 26.31 9.39 26.31 22.55s-9.39 22.56-26.31 22.56c-26.33 0-48.9-20.68-48.9-20.68l-35.72 56.39s33.84 41.36 105.3 41.36c65.81 0 107.17-41.36 107.17-88.35 0-48.87-37.6-86.47-90.26-86.47z"/><path d="m10178.33 7127.4-63.92 26.32v82.71l56.4-18.8v172.94h97.78v-263.17z"/><path d="m10400.21 7232.67c0-18.8 18.79-37.59 48.88-37.59 22.57 0 41.36 11.27 41.36 11.27l26.33-60.15s-33.85-24.43-86.49-24.43c-67.69 0-124.09 56.39-124.09 137.22 0 88.35 48.88 137.22 120.33 137.22 63.92 0 105.29-41.36 105.29-95.87 0-52.63-33.85-86.47-86.49-86.47-30.09 0-45.12 18.8-45.12 18.8zm45.12 67.67c0 16.92-9.4 26.32-18.8 26.32-9.41 0-18.81-9.4-18.81-26.32s9.4-26.31 18.81-26.31c9.4 0 18.8 9.39 18.8 26.31z"/></g><g fill="#656565"><rect height="2700" rx="93.9" ry="108.53" width="400" x="7786.35" y="1375.66"/><rect height="2700" rx="93.9" ry="108.53" width="400" x="9217.04" y="1375.66"/><rect height="2700" rx="93.9" ry="108.53" width="400" x="10647.74" y="1375.66"/></g><g fill="#dddad6"><path d="m9083.19 2594.07h-199.3v82.71h95.89l-88.37 180.46h101.53l90.25-184.22z" fill-rule="nonzero"/><path d="m10413.36 2646.71c9.4 0 16.92 7.52 16.92 20.68 0 13.15-7.52 20.67-16.92 20.67s-16.92-7.52-16.92-20.67c0-13.16 7.52-20.68 16.92-20.68zm0 105.26c11.28 0 20.68 9.4 20.68 22.56s-9.4 22.56-20.68 22.56-20.68-9.4-20.68-22.56 9.4-22.56 20.68-22.56zm0-163.53c-65.81 0-103.41 37.59-103.41 75.19 0 41.35 37.6 54.51 37.6 54.51v1.88s-52.64 13.16-52.64 65.79c0 39.47 37.6 77.07 118.45 77.07s118.46-37.6 118.46-77.07c0-52.63-52.65-65.79-52.65-65.79v-1.88s37.6-13.16 37.6-54.51c0-37.6-37.6-75.19-103.41-75.19z" fill-rule="nonzero"/><path d="m8063.35 786.76c27.78-11.97 52.31-28.61 73.62-49.92 21.31-21.3 37.95-45.97 49.93-73.98 11.97-28 17.96-57.81 17.96-89.42 0-16.29-1.8-32.45-5.39-48.48-3.59-16.04-8.98-31.96-16.16-47.77l55.3-30.16c11.01-6.23 20.12-10.3 27.3-12.22 7.18-1.91 12.92-2.86 17.24-2.86 7.18 0 14.61 2.27 22.27 6.82 7.65 4.54 11.48 12.33 11.48 23.34 0 10.53-2.16 18.43-6.46 23.71-4.31 5.26-11.02 7.9-20.11 7.9-5.75 0-10.05-1.08-12.93-3.24-2.88-2.15-4.31-5.63-4.31-10.41 0-8.14 3.12-12.21 9.33-12.21 2.88 0 5.28.48 7.18 1.43v-15.08c-.47-.48-1.55-.84-3.22-1.08s-3.47-.36-5.39-.36c-6.23 0-11.61 2.16-16.16 6.46-4.55 4.31-6.82 10.78-6.82 19.41 0 9.56 3.1 16.87 9.33 21.89 6.23 5.04 14.13 7.55 23.71 7.55 10.54 0 20.1-3.59 28.73-10.77 8.61-7.19 12.92-18.91 12.92-35.2 0-12.94-4.42-23.82-13.28-32.69-8.86-8.85-20.95-13.28-36.27-13.28-8.15 0-16.4 1.32-24.79 3.95-8.37 2.64-18.3 7.3-29.81 14l-52.42 28.74c-.96-2.39-2.16-4.91-3.59-7.54-1.45-2.64-3.36-5.38-5.76-8.26l232.01-210.46-2.88-4.3-264.32 173.09c-1.91-1.9-3.95-3.83-6.11-5.73-2.14-1.93-4.18-3.6-6.1-5.04l41.67-40.94c12.92-12.93 22.02-23.94 27.28-33.03 5.28-9.11 7.9-19.4 7.9-30.89 0-12.94-4.31-23.71-12.92-32.33-8.63-8.61-19.88-12.93-33.77-12.93-13.87 0-24.53 3.83-31.95 11.5-7.42 7.66-11.14 16.28-11.14 25.86 0 7.66 2.76 14.48 8.26 20.47 5.51 5.99 12.33 8.97 20.47 8.97 9.58 0 16.29-3.35 20.12-10.05 3.83-6.71 5.75-11.97 5.75-15.8h-15.81c0 6.7-3.36 10.06-10.06 10.06-4.31 0-7.54-1.21-9.7-3.59-2.14-2.4-3.22-5.76-3.22-10.06 0-5.28 2.27-10.43 6.81-15.45 4.55-5.02 11.38-7.55 20.47-7.55 8.63 0 15.93 3.01 21.92 8.98 5.99 5.99 8.97 13.3 8.97 21.91 0 9.11-2.63 17.84-7.89 26.22-5.28 8.38-14.13 18.55-26.59 30.53l-39.5 38.06c-20.11-13.87-41.3-24.41-63.57-31.59-22.26-7.19-45.37-10.78-69.31-10.78-31.6 0-61.41 5.98-89.42 17.96-28.02 11.97-52.68 28.61-73.99 49.91-21.31 21.31-37.95 45.98-49.91 73.99-11.97 28-17.96 57.81-17.96 89.42s5.99 61.29 17.96 89.07c11.96 27.77 28.6 52.31 49.91 73.62s45.86 38.06 73.62 50.28c27.78 12.2 57.7 18.31 89.79 18.31 32.08 0 62.02-5.98 89.78-17.96zm-159.81-48.12c-21.79-9.1-40.81-21.79-57.1-38.07s-28.97-35.31-38.07-57.1c-9.09-21.79-13.64-45.13-13.64-70.03 0-24.42 4.55-47.4 13.64-68.95 9.1-21.55 21.78-40.59 38.07-57.11 16.29-16.51 35.31-29.45 57.1-38.78 21.78-9.34 45.13-14.01 70.03-14.01 24.42 0 47.53 4.67 69.31 14.01 21.79 9.33 40.83 22.14 57.11 38.43 16.28 16.27 29.09 35.31 38.43 57.09 9.33 21.79 14 44.9 14 69.32 0 24.9-4.67 48.24-14 70.03-9.34 21.79-22.26 40.82-38.79 57.1s-35.55 28.97-57.1 38.07-44.54 13.65-68.96 13.65c-24.9 0-48.25-4.55-70.03-13.65z"/><path d="m7994.76 594.62c5.98-5.97 8.98-13.04 8.98-21.18s-3-15.21-8.98-21.18c-5.99-5.99-13.04-8.98-21.19-8.98-8.14 0-15.2 2.99-21.19 8.98-5.99 5.97-8.97 13.04-8.97 21.18s2.98 15.21 8.97 21.18c5.99 5.99 13.05 8.98 21.19 8.98 8.15 0 15.2-2.99 21.19-8.98z"/><path d="m9170.46 861.98v-95.06h95.06v-31.98h-95.06v-79.95h228.32l-268.3-449.51-268.27 449.51h228.3v79.95h-95.05v31.98h95.05v95.06zm-39.98-529.46 156.37 262.07h-312.72z"/><path d="m10102.17 902.88c78.57-38.68 135.51-82.87 170.79-132.59 35.3-49.72 52.95-100.06 52.95-151.01 0-48.5-11.96-86.7-35.92-114.62-23.93-27.93-57.38-41.9-100.35-41.9-28.25 0-53.71 8.59-76.43 25.78-22.71 17.18-41.12 41.44-55.24 72.73l6.44 6.45v-202.56h208.1c5.52 19.64 16.42 35.91 32.68 48.79 16.27 12.89 35.14 19.35 56.63 19.35 17.19 0 32.69-4.16 46.5-12.45 13.82-8.27 24.86-19.33 33.15-33.14s12.42-29.31 12.42-46.49c0-17.19-4.13-32.69-12.42-46.5s-19.33-24.85-33.15-33.14c-13.81-8.3-29.31-12.43-46.5-12.43-21.49 0-40.36 6.27-56.63 18.86-16.26 12.59-27.16 28.7-32.68 48.34h-208.1v-69.97h-82.87v69.97h-98.52v48.81h98.52v263.33h82.87c9.83-31.92 23.32-55.86 40.51-71.83 17.2-15.95 38.06-23.93 62.62-23.93 24.55 0 44.19 7.52 58.94 22.57 14.72 15.03 22.08 36.36 22.08 63.98 0 41.13-11.82 77.96-35.45 110.49s-55.55 62.62-95.76 90.24c-40.19 27.63-85.78 55.25-136.73 82.87zm223.29-525.29c-10.15-10.13-15.2-22.25-15.2-36.37 0-14.11 5.05-26.25 15.2-36.38 10.12-10.12 22.24-15.19 36.36-15.19s26.24 5.07 36.36 15.19c10.14 10.13 15.2 22.27 15.2 36.38 0 14.12-5.06 26.24-15.2 36.37-10.12 10.12-22.24 15.19-36.36 15.19s-26.24-5.07-36.36-15.19z"/></g><rect fill="#656565" height="2700" rx="93.9" ry="108.53" width="400" x="4924.97" y="5908.99"/><rect fill="#656565" height="2700" rx="93.9" ry="108.53" width="400" x="6355.66" y="5908.99"/><g fill="#dddad6" fill-rule="nonzero"><path d="m4465.7 7130.22-63.92 26.32v82.71l56.4-18.8v172.94h97.78v-263.17z"/><path d="m4806.03 7209.17c0-43.23-41.36-84.58-107.18-84.58-71.45 0-105.28 41.35-105.28 41.35l35.72 56.39s22.56-20.67 54.53-20.67c13.15 0 20.67 7.51 20.67 18.79 0 33.84-105.28 97.75-105.28 97.75v75.19h203.06v-82.71h-75.21s78.97-37.59 78.97-101.51z"/><path d="m5891.56 7124.58-63.92 26.32v82.71l56.4-18.8v172.94h97.78v-263.17z"/><path d="m6216.85 7203.53v-78.95h-184.26v78.95h86.48l-45.12 30.08v48.87h31.97c13.15 0 20.67 7.52 20.67 16.92s-7.52 16.92-20.67 16.92c-31.97 0-54.54-20.68-54.54-20.68l-35.71 56.39s33.83 41.36 105.28 41.36c65.82 0 107.18-41.36 107.18-82.71 0-62.03-63.93-73.31-63.93-73.31z"/><path d="m7315.85 7127.4-63.92 26.32v82.71l56.4-18.8v172.94h97.78v-263.17z"/><path d="m7646.78 7277.78v-150.38h-112.81l-94.01 150.38v71.44h109.04v41.35h97.78v-41.35h22.56v-71.44zm-120.33 0 22.55-48.87v48.87z"/></g><rect fill="#656565" height="2700" rx="93.9" ry="108.53" width="400" x="4924.97" y="1375.66"/><rect fill="#656565" height="2700" rx="93.9" ry="108.53" width="400" x="6355.66" y="1375.66"/><g fill="#dddad6" fill-rule="nonzero"><path d="m4783.46 2744.45v-150.38h-112.81l-94.01 150.38v71.44h109.05v41.35h97.77v-41.35h22.57v-71.44zm-120.33 0 22.56-48.87v48.87z"/><path d="m6137.88 2685.24c-15.04 0-26.32 3.76-26.32 3.76l3.76-18.8h97.77v-78.95h-169.21l-18.81 124.07 45.12 30.07s15.05-7.51 30.09-7.51c16.92 0 26.32 9.39 26.32 22.55s-9.4 22.56-26.32 22.56c-26.33 0-48.89-20.68-48.89-20.68l-35.72 56.39s33.84 41.36 105.29 41.36c65.81 0 107.17-41.36 107.17-88.35 0-48.87-37.6-86.47-90.25-86.47z"/><path d="m7537.72 2699.34c0-18.8 18.8-37.59 48.89-37.59 22.56 0 41.36 11.27 41.36 11.27l26.32-60.15s-33.85-24.43-86.49-24.43c-67.69 0-124.09 56.39-124.09 137.22 0 88.35 48.88 137.22 120.33 137.22 63.93 0 105.3-41.36 105.3-95.87 0-52.63-33.85-86.47-86.49-86.47-30.09 0-45.13 18.8-45.13 18.8zm45.13 67.67c0 16.92-9.41 26.32-18.81 26.32s-18.8-9.4-18.8-26.32 9.4-26.31 18.8-26.31 18.81 9.39 18.81 26.31z"/></g><path d="m9025.37 10467.07h2017.74c203.89 0 370.7 166.81 370.7 370.7v1631.06h-2017.73c-203.89 0-370.71-166.8-370.71-370.69z" fill="url(#b)" stroke="#666" stroke-miterlimit="22.9256" stroke-width="26.45"/><path d="m9214.84 11104.9 329.39-412.87 329.4 412.87h-294.01v-96.18h95.28l-130.67-163.34-130.67 163.34h95.28v96.18z" fill="#001a2d" fill-rule="nonzero"/><path d="m10566.92 11104.9 329.39-412.87 329.4 412.87h-294.01v-96.18h95.28l-130.67-163.34-130.67 163.34h95.28v96.18z" fill="#282c02" fill-rule="nonzero"/><g stroke-miterlimit="22.9256"><path d="m8810.31 10467.07h-6077.4c-178.22 0-324.04 145.81-324.04 324.04v1677.74h6077.4c178.22 0 324.04-145.81 324.04-324.04z" fill="url(#c)" stroke="#666" stroke-width="26.42"/><path d="m8182.93 12092.41v-1248.9c0-124.06 101.5-225.55 225.55-225.55h48.9c124.06 0 225.56 101.49 225.56 225.55v1248.9c0 124.06-101.5 225.55-225.56 225.55h-48.9c-124.05 0-225.55-101.49-225.55-225.55z" fill="url(#d)" stroke="#666" stroke-width="26.45"/><path d="m6772.57 12027.67c-216.93-128.73-349.91-362.28-349.91-614.53 0-394.67 319.94-714.6 714.61-714.6 394.66 0 714.6 319.93 714.6 714.6 0 252.23-132.97 485.78-349.87 614.51" fill="none" stroke="#dddad6" stroke-linecap="round" stroke-width="42.33"/></g><circle cx="7502" cy="12027.65" fill="#dddad6" r="37.94"/><circle cx="6772.56" cy="12027.68" fill="#dddad6" r="37.94"/><g fill-rule="nonzero"><path d="m5457.22 10954.91v-35.85l122.02-172.91-115.08-181.58v-22.55h281.04l2.89 101.2h-30.07l-2.89-24.87c-1.54-12.72-6.07-23.71-13.59-32.96s-19.95-13.88-37.3-13.88h-130.11l97.15 153.82v8.68l-115.66 167.7h159.61c18.12 0 31.23-5.21 39.32-15.62 8.1-10.4 13.11-23.51 15.04-39.32l2.31-17.35h30.07l-2.89 125.49z" fill="#001a2d"/><g fill="#dddad6"><path d="m3515.26 12315.36 34.71-112.8v112.8h75.23v-202.47h-107.05l-33.26 109.91-33.28-109.91h-107.05v202.47h75.23v-112.8l34.72 112.8z"/><path d="m3758.28 12247.39c-13.02 0-23.14-10.12-23.14-26.03v-108.47h-75.23v108.47c0 57.84 40.51 98.34 98.37 98.34s98.37-40.5 98.37-98.34v-108.47h-75.22v108.47c0 15.91-10.13 26.03-23.15 26.03z"/><path d="m3879.78 12112.89v66.53h54.98v135.94h75.22v-135.94h54.97v-66.53z"/><path d="m4163.31 12243.05h75.22v-57.85h-75.22v-14.46h81v-57.85h-156.22v202.47h162.02v-57.85h-86.8z"/><path d="m6659.19 12317.53 34.71-112.8v112.8h75.23v-202.47h-107.05l-33.26 109.91-33.28-109.91h-107.05v202.47h75.23v-112.8l34.72 112.8z"/><path d="m6947.06 12115.06h-98.37l-59.31 202.47h83.9l5.79-28.92h37.61l5.78 28.92h83.9s-59.01-201.31-59.3-202.47zm-59.32 127.27 10.13-52.07 10.13 52.07z"/><path d="m7088.81 12262.57c-28.93 0-49.18-18.8-49.18-18.8l-27.49 43.39s26.04 34.71 89.69 34.71c50.63 0 82.45-31.82 82.45-65.08 0-63.63-78.11-63.63-78.11-78.1 0-4.33 4.34-8.67 11.58-8.67 20.24 0 37.61 15.91 37.61 15.91l27.47-43.39s-26.03-31.82-78.11-31.82c-50.63 0-82.45 31.82-82.45 65.08 0 63.64 78.11 63.64 78.11 78.1 0 4.34-4.34 8.67-11.57 8.67z"/><path d="m7190.08 12115.06v66.53h54.97v135.94h75.22v-135.94h54.97v-66.53z"/><path d="m7473.61 12245.22h75.21v-57.85h-75.21v-14.46h81v-57.85h-156.23v202.47h162.02v-57.85h-86.79z"/><path d="m7786.06 12317.53-49.18-78.09s26.04-14.47 26.04-56.41-28.93-70.86-92.59-70.86c-43.39 0-83.9 2.89-83.9 2.89v202.47h75.23v-66.53h2.89l34.72 66.53zm-124.4-118.59v-31.81h8.67c10.14 0 17.37 7.23 17.37 15.9 0 8.68-7.23 15.91-17.37 15.91z"/><path d="m3590.7 11431.72c-11.69 0-21.17-9.48-21.17-21.17s9.48-21.17 21.17-21.17zm21.17-42.34v42.34h-21.17v-42.34zm0 0c11.69 0 21.17 9.48 21.17 21.17s-9.48 21.17-21.17 21.17zm84.7 42.34c-11.69 0-21.17-9.48-21.17-21.17s9.48-21.17 21.17-21.17zm28.23-42.34v42.34h-28.23v-42.34zm0 0c11.69 0 21.17 9.48 21.17 21.17s-9.48 21.17-21.17 21.17zm84.7 42.34c-11.69 0-21.17-9.48-21.17-21.17s9.48-21.17 21.17-21.17zm21.16 0h-21.16v-42.34h21.16zm0-42.34c11.69 0 21.17 9.48 21.17 21.17s-9.48 21.17-21.17 21.17z"/><path d="m6131.14 11431.72c-11.69 0-21.17-9.48-21.17-21.17s9.48-21.17 21.17-21.17zm21.17-42.34v42.34h-21.17v-42.34zm0 0c11.69 0 21.17 9.48 21.17 21.17s-9.48 21.17-21.17 21.17zm87.42 42.34c-11.69 0-21.17-9.48-21.17-21.17s9.48-21.17 21.17-21.17zm29.14-42.34v42.34h-29.14v-42.34zm0 0c11.69 0 21.17 9.48 21.17 21.17s-9.48 21.17-21.17 21.17zm87.42 42.34c-11.69 0-21.17-9.48-21.17-21.17s9.48-21.17 21.17-21.17zm21.16 0h-21.16v-42.34h21.16zm0-42.34c11.69 0 21.17 9.48 21.17 21.17s-9.48 21.17-21.17 21.17z"/></g><path d="m1963.14 11001.02c30.37-26.88 63.82-40.39 100.75-40.39h10.56c3.35 0 7.36.4 12.17 1.07 1.88 4.14 3.35 8.83 4.69 14.44 1.33 5.49 2 10.44 2 14.85s-.8 8.16-2.27 11.1c-15.12-11.1-32.5-16.58-52.04-16.58-20.73 0-39.33 5.08-55.79 15.24-16.32 10.17-27.83 19.4-34.25 27.69-6.55 8.29-11.23 17.52-14.44 27.69-3.09 10.03-5.23 18.86-6.43 26.21-1.07 7.36-1.61 13.91-1.61 19.4 0 31.43 16.46 61.39 49.24 90.28 30.63 23.94 61.27 47.88 91.91 71.96 33.32 29.82 49.9 61.92 49.9 96.3v14.31c-1.07 4.81-3.08 15.38-6.02 31.83-3.07 16.45-14.04 36.52-33.31 60.06-19.13 23.67-43.88 38.38-74.12 44.27-2.27.8-6.02 1.47-11.64 2-5.48.54-10.83.81-16.05.81-17.26 0-33.31-3.08-48.17-9.37-14.71-6.15-29.96-14.98-45.88-26.34 6.28-10.17 11.11-17.26 14.58-21.14 3.62-3.88 7.36-5.75 11.37-5.75 1.47 0 4.02.67 7.76 2.14 23.55 24.21 53.38 36.38 89.5 36.38h8.29c4.43-.8 15.66-2.27 33.99-4.68 18.2-2.41 30.37-13.78 36.39-34.11 6.15-20.33 9.63-33.57 10.84-39.85 1.07-6.29 1.61-12.31 1.61-18.33 0-28.75-13.12-55.5-39.2-80.25-26.5-20.6-54.06-42.8-82.55-66.47-28.5-23.54-46.03-47.08-52.45-70.36-6.42-23.14-9.63-44-9.63-62.46 0-22.2 4.01-42.4 11.9-60.72 7.9-18.19 20.75-35.31 38.4-51.23z" fill="#2f2f2f"/><path d="m2166.37 11088.52v3.4c-5.21.46-9.14 1.36-11.71 2.8-2.64 1.43-4.75 3.32-6.41 5.81 0 25.83 2.19 56.34 6.57 91.38s8.76 70.69 13.21 107.01c4.47 36.25 6.73 67.37 6.73 93.19 2.04 1.06 4.46 2.19 7.1 3.33 2.72 1.13 4.83 2.04 6.5 2.64-3.7.91-7.78 1.59-12.16 1.96-4.31.38-8.7.53-13.08.53-3.09 0-7.7-.07-13.82-.15-6.11-.07-10.49-.15-13.21-.15-.83-1.43.98-3.17 5.36-4.98 4.38-1.89 7.1-3.55 8.15-5.06 1.06-1.44 1.74-3.17 2.04-5.14.31-1.96.46-5.13.46-9.51 0-25.61-1.29-50.6-3.93-74.84-2.57-24.25-6.27-49.47-11.1-75.6-4.76-26.21-9.45-51.58-14.06-76.12l-6.87 7.47c-8.76 19.41-19.79 44.48-33.01 75.37-13.29 30.81-25.6 59.51-37.09 86.25-11.48 26.65-23.49 53.99-35.95 82.16h-2.2c-10.42-27.94-23.03-61.02-37.69-99.23-14.73-38.22-26.59-69.56-35.5-93.95-9-24.39-17.83-50.3-26.59-77.63l-3.48-4.38c-4.6 6.26-8.23 13.14-10.95 20.69-2.72 7.48-7.11 24.17-13.3 49.92-6.12 25.83-11.4 47.73-15.78 65.78-4.38 18.04-9.22 39.79-14.58 65.17-5.29 25.37-9.22 46.9-11.71 64.64.45 2.04 2.26 3.33 5.51 3.7 3.18.46 4.31 2.19 3.26 5.29h-46.69l12.54-17.22c7.03-24.24 17.3-56.94 30.74-98.1 13.45-41.16 23.95-73.86 31.42-98.17 7.48-24.4 14.36-49.7 20.63-75.98-.83-3.47-2.64-6.04-5.44-7.7-2.87-1.74-8.31-2.57-16.47-2.57 5.44-4.08 11.03-7.25 16.78-9.59 5.74-2.34 11.78-3.47 18.27-3.47h3.4c1.66.45 2.95.6 3.78.6 1.66 2.34 3.32 4.91 4.98 7.7 1.66 2.8 5.59 11.71 11.72 26.66 6.19 14.88 14.19 37.39 24.09 67.52 9.89 30.05 19.64 59.58 29.23 88.66 9.59 29 19.34 55.28 29.39 78.92l7.48-10.05c12.68-28.09 26.06-57.62 40.03-88.73 13.9-31.04 26.44-60.12 37.47-87.15 11.03-26.96 20.69-53.85 29.09-80.66 2.87-1.28 6.26-2.19 9.96-2.72 3.78-.53 8.39-.75 13.75-.75 2.11 0 4.23.15 6.42.53 2.19.37 4.45.52 6.72.52z" fill="#2f2f2f"/><g fill="#dddad6"><path d="m2152.02 11081.35v3.4c-5.21.46-9.14 1.36-11.71 2.8-2.64 1.43-4.75 3.32-6.41 5.81 0 25.83 2.19 56.34 6.57 91.38s8.76 70.69 13.21 107.01c4.47 36.25 6.73 67.37 6.73 93.19 2.04 1.06 4.46 2.19 7.1 3.33 2.72 1.13 4.83 2.04 6.5 2.64-3.7.91-7.78 1.59-12.16 1.96-4.31.38-8.7.53-13.08.53-3.09 0-7.7-.07-13.82-.15-6.11-.07-10.49-.15-13.21-.15-.83-1.43.98-3.17 5.36-4.98 4.38-1.89 7.1-3.55 8.15-5.06 1.06-1.44 1.74-3.17 2.04-5.14.31-1.96.46-5.13.46-9.51 0-25.61-1.29-50.6-3.93-74.84-2.57-24.25-6.27-49.47-11.1-75.6-4.76-26.21-9.45-51.58-14.06-76.12l-6.87 7.47c-8.76 19.41-19.79 44.48-33.01 75.37-13.29 30.81-25.6 59.51-37.09 86.25-11.48 26.65-23.49 53.99-35.95 82.16h-2.19c-10.43-27.94-23.04-61.02-37.7-99.23-14.73-38.22-26.59-69.56-35.5-93.95-9-24.39-17.83-50.3-26.59-77.63l-3.48-4.38c-4.6 6.26-8.23 13.14-10.95 20.69-2.72 7.48-7.1 24.17-13.3 49.92-6.12 25.83-11.4 47.73-15.78 65.78-4.38 18.04-9.22 39.79-14.58 65.17-5.29 25.37-9.22 46.9-11.71 64.64.45 2.04 2.26 3.33 5.51 3.7 3.18.46 4.31 2.19 3.26 5.29h-46.69l12.54-17.22c7.03-24.24 17.3-56.94 30.74-98.1 13.45-41.16 23.95-73.86 31.42-98.17 7.48-24.4 14.36-49.7 20.63-75.98-.83-3.47-2.64-6.04-5.44-7.7-2.87-1.74-8.31-2.57-16.47-2.57 5.44-4.08 11.03-7.25 16.78-9.59 5.74-2.34 11.78-3.47 18.27-3.47h3.4c1.66.45 2.95.6 3.78.6 1.66 2.34 3.32 4.91 4.98 7.7 1.66 2.8 5.6 11.71 11.72 26.66 6.19 14.88 14.19 37.39 24.09 67.52 9.89 30.05 19.64 59.58 29.23 88.66 9.59 29 19.34 55.28 29.39 78.92l7.48-10.05c12.68-28.09 26.06-57.62 40.03-88.73 13.9-31.04 26.44-60.12 37.47-87.15 11.03-26.96 20.69-53.85 29.09-80.66 2.87-1.28 6.26-2.19 9.96-2.72 3.78-.53 8.39-.75 13.75-.75 2.11 0 4.23.15 6.42.53 2.19.37 4.45.52 6.72.52z"/><path d="m1948.79 10993.85c30.37-26.88 63.82-40.39 100.75-40.39h10.56c3.35 0 7.36.4 12.17 1.07 1.88 4.14 3.35 8.83 4.69 14.44 1.33 5.49 2 10.44 2 14.85s-.8 8.16-2.27 11.1c-15.12-11.1-32.5-16.58-52.04-16.58-20.73 0-39.33 5.08-55.79 15.24-16.32 10.17-27.83 19.4-34.25 27.69-6.55 8.29-11.23 17.52-14.44 27.69-3.09 10.03-5.23 18.86-6.43 26.21-1.07 7.36-1.61 13.91-1.61 19.4 0 31.43 16.46 61.39 49.24 90.28 30.63 23.94 61.27 47.88 91.91 71.96 33.32 29.82 49.9 61.92 49.9 96.3v14.31c-1.07 4.81-3.08 15.38-6.02 31.83-3.07 16.45-14.04 36.52-33.31 60.06-19.13 23.67-43.88 38.38-74.12 44.27-2.27.8-6.02 1.47-11.64 2-5.48.54-10.83.81-16.05.81-17.26 0-33.31-3.08-48.17-9.37-14.71-6.15-29.96-14.98-45.88-26.34 6.28-10.17 11.11-17.26 14.58-21.14 3.62-3.88 7.36-5.75 11.37-5.75 1.47 0 4.02.67 7.76 2.14 23.55 24.21 53.38 36.38 89.5 36.38h8.3c4.42-.8 15.65-2.27 33.98-4.68 18.2-2.41 30.37-13.78 36.39-34.11 6.15-20.33 9.64-33.57 10.84-39.85 1.07-6.29 1.61-12.31 1.61-18.33 0-28.75-13.12-55.5-39.2-80.25-26.5-20.6-54.06-42.8-82.55-66.47-28.5-23.54-46.03-47.08-52.45-70.36-6.42-23.14-9.63-44-9.63-62.46 0-22.2 4.01-42.4 11.9-60.72 7.91-18.19 20.75-35.31 38.4-51.23z"/></g></g><path d="m1859.44 12089.3c.06 2.92-1.78 7.79-2.7 10.71-.89 3.89-1.3 7.3-2.2 11.2-.8 7.78-2.58 16.06-2.89 24.33h.97c3.26-7.3 7.98-14.6 11.73-21.41 9.83-18.99 25.86-44.3 38.67-60.85 10.43-13.63 19.48-23.36 32.41-34.07 8.12-7.79 29.23-23.36 39.88-26.77 6.46 5.84 8.89 5.84 9.99 11.68 1.11 6.33 1.25 13.14 1.87 19.47.62 5.84.81 15.09.93 20.44.13 6.33-.69 13.63-.06 20.45.91-2.92 1.76-8.76 2.18-12.17 5.76-27.26 12.57-50.62 25.2-75.45 6.08-12.17 23.95-42.34 32.48-54.03 1.88-2.92 3.77-5.84 6.16-8.27 1.89-2.44 4.76-5.36 6.65-7.79-5.07-9.25-8.09-14.12-15.09-22.39-5.48-5.84-12.48-14.12-17.94-18.98 3.22-8.76 12.28-18.01 22.47-19.96 8.25-1.95 17.14 3.89 23.08 8.27 1.49 1.46 3.49 3.9 5.94 4.39l-.01-.49c-.5-.49 0 0-.5-.49l-5.56-9.73c-4.56-8.28-14.58-20.93-21.52-26.77-10.44-9.74-23.25-16.07-37.43-18.5-1.96-.49-3.92-.97-6.36-1.46 1.02 2.43 14.34 10.22 17.91 17.52 4.08 8.76.96 22.39-5.29 26.29-5.29 3.4-16.69-5.84-23.6-9.74l-21.24-13.63c-.55-2.92 7.81-22.39 9.18-26.77 8.41-17.04 7.09-10.22 23.6-13.14-7.41-4.87-19.16-7.3-29.41-8.28-21.49-1.94-28.14 5.85-31.08 5.36-1.05-3.9.04-21.42-.1-27.75-1.06-27.25-7.75-43.8-27.1-60.35-17.37-14.61-34.62-23.85-58.11-28.72-3.92-.98-7.84-1.95-12.23-2.44l-11.72-.97c-.98-.49-.49 0-.98-.49h-18.03c-3.39.98-1.46 0-6.8.98-1.95 0-4.38.48-6.33.48-13.11 1.95-21.84 3.9-34.41 8.77-12.55 5.35-26.01 14.11-34.61 22.39-10.03 9.24-18.14 17.52-22.17 34.56-3.54 16.55-.69 36.02-.31 54.03-4.42-1.47-8.86-3.9-14.25-5.36-13.7-2.92-37 1.46-47.59 7.3 4.42 1.95 13.15 0 17.58 1.95 2.96 1.95 5.52 7.79 7.57 12.17 2.04 4.38 10.76 25.31 10.83 28.23-5.74 5.35-11.98 9.73-18.21 14.6-7.19 5.84-15.31 13.14-20.84 5.36-4.52-6.33-8.61-15.58-5.91-25.8 1.85-4.87 11.88-14.6 15.72-17.04-6.83-.48-17.92 4.87-22.26 7.3-6.24 4.38-11.02 8.76-15.29 14.12-5.71 6.33-13.74 18.5-16.97 26.77l-3.71 9.25c-.46.97.01.49-.46.97l.02.98c3.36-2.44 4.75-5.85 11.96-10.23 4.81-2.92 10.62-4.86 17.49-2.43 8.85 3.41 18.42 18.5 20.01 24.34-.46 1.46-.94 1.46-1.9 2.43-5.71 6.33-21.75 31.15-21.62 37.48-.92 2.43-.48.49.03 1.46 2.31-6.33 17.92-28.23 22.17-34.56l10.55 15.09 54.41 60.85c5.99 6.81 12.45 12.65 18.93 19.47 1.48.97 1.98 1.46 3.47 2.92l9.46 9.73h.49s0 0 .01.49l-.55-2.92c-.53-1.95-2.54-4.87-3.55-6.82l-10.56-15.09c-3-3.89-8.01-10.22-10.54-14.6.51.97.51.97.52 1.46l3.03 4.87c.53 1.95.01.49.54 2.43-2.97-1.94-4.49-4.87-6.51-8.27-8.5-10.22-10.51-12.66-19.97-22.39l-34.86-35.54c-4.49-4.86-12.62-20.44-15.68-26.77-3.54-6.32-7.55-11.68-10.6-17.52-2-2.43-3.53-5.84-5.07-9.25-2.54-4.87-3.03-4.87-3.16-11.19-2.94-.98-.52-1.46 1.44-.98 2.44 0 1.97.98 2.03 3.9 1.16 8.76 6.67 15.57 11.22 23.36 5.08 9.74 10.67 20.44 15.74 30.18l.51.97c1.02 1.95 2.53 4.38 4.01 5.36l.5.48c1.04 2.92 28.38 28.72 34.35 34.08 3.47 2.92 10.46 10.7 13.45 14.11l5.52 7.3 2.99 3.41c-2.5-2.92-4.01-5.35-6.03-8.76-8.51-10.71-18.44-19.47-28.39-29.21-2.49-2.43-4.97-4.38-7.46-6.81l-14.43-14.12-.5-.48c-2.5-3.41-3.51-4.87-5.55-9.25-2.06-5.36-12.7-24.34-12.75-26.77l-.01-.49c17.06.49 15.58-.49 25.64-8.76 5.28-3.89 13.88-11.68 19.68-14.12-.76 10.23-26.58 33.59-22.03 41.38 2.51 3.4 23.79 18.98 31.91 34.07 5.09 10.22 23.77 40.89 31.3 51.6 8.55 12.16 5.55 8.76 12.13 20.44 1.54 3.41 4.55 7.79 5.11 11.19 1.98 1.46 1.56 4.38 3.07 6.82 1.51 2.43 3.01 3.89 4.51 5.84 1.51 2.43 3.01 3.89 4.02 5.84l13.04 17.52c3.01 3.9 5 5.84 7 8.28l9.01 11.19c8.01 10.23 12.5 15.09 20.05 26.29 1.51 2.43 7.05 10.71 7.58 13.14l-1.99-1.95c-3.48-3.4-2.99-3.4-5.5-6.81-1.5-1.95-1.99-1.95-3.51-4.87-1.01-1.46-.51-.97-1.52-2.43l-5.99-6.82c-5.54-8.27-12.52-16.06-18.52-23.36-3.5-3.89-10-11.68-13.97-15.09-2.97-2.43-3-3.89-10.93-10.22-1.97-.98-2.97-1.95-4.94-2.92-3.48-3.41-10.88-7.79-14.83-10.22-6.91-3.9-13.82-8.28-21.69-11.69-11.32-5.35-14.29-7.3-17.9 6.33-2.69 10.71-.55 19.96-.31 31.15-.52-1.46-3.05-5.84-3.56-6.81-1.49-1.46-.46.97-.5-.97-1.1-5.85-23.36-44.3-26.39-49.65-8.09-13.63-16.1-23.85-25.14-36.51-2.5-2.92-11.5-13.63-14.44-14.6.5.97 0 0 .52 1.46 1.01 1.95 4.98 5.35 6.97 7.3 6.99 7.79 13.02 16.55 19.05 25.31 15.09 21.9 32.28 51.6 41.1 76.91 3.1 8.27 7.85 25.31 9.52 35.04.55 2.92 1.19 10.23 2.21 12.17-.09-3.89-.65-7.3-.73-11.19-.82-15.58.16-38.46 1.79-53.55.75-10.7 3.23-8.27 6.99-15.08 7.32.48 37.46 20.44 42.92 24.82 13.36 9.73 23.83 20.93 34.33 33.59 10.48 11.68 19.54 25.31 28.14 39.91 4.53 6.81 20.74 36.02 23.35 44.29h.97c-.15-7.3-1.86-18.98-2.99-26.28-1.06-3.9-1.64-8.28-2.69-12.17-1.05-3.41-2.62-8.28-3.65-11.2-1.01-1.46-2.57-6.32-3.1-8.27 12.72 2.43 21.51 3.41 30.14-3.41 0 0 0 0 .47-.48 1 .97-.92 2.43-1.29 7.78-.44 2.44-.38 5.36-1.3 7.79zm-233.71-175.23.01.49c1.94-.49.49 0-.01-.49zm.47-.97h.49s-.5-.49-.51-.98zm404.49-66.2c1.39-3.41 3.28-6.33 4.65-10.71 1.79-7.3-.3-14.11 2.61-14.6l4.42 1.46c-.92 2.43-2.34 4.38-3.72 8.27-2.23 9.74-14.35 35.54-19.06 43.32-1.9 2.44-3.32 4.39-5.21 7.31-4.74 6.32-5.68 7.78-10.91 14.11-1.91 1.46-5.26 4.38-6.2 6.33-3.27 6.33-13.35 13.63-18.1 19.47-1.42 1.95-3.3 5.35-4.71 7.79l-10.91 14.11c-1.38 3.41-1.41 2.44-2.32 5.36 2.92-.49 1.44-.98 5.31-2.44-3.38 1.46-3.77 5.84-4.73 6.82-2.26 8.27-9.9 15.57-15.08 23.85-3.78 5.84-7.04 13.14-10.82 18.5-1.41 2.43-2.84 3.89-3.76 6.32-.95 1.46-.93 2.44-1.39 3.41 1.92-.97 2.39-1.95 3.82-3.41.97-.48.96-.97 1.92-1.46l8.56-9.73c8.58-9.25 11.82-17.52 17.97-25.8 4.73-6.81 7.59-9.73 12.31-17.04l6.15-8.76c-2.44 0-3.4.49-5.83.98.93-2.44-.01-.49 1.41-2.44l8.56-10.22c3.32-4.38 10.01-10.22 14.28-16.06l10.46-12.17c1.43-1.46 1.9-2.43 3.33-3.89l17.1-20.94 22.4 22.4c1.51 2.43 5.51 7.3 6.04 9.24-6.67 7.3-12.35 15.09-18.01 23.85l-14.13 22.88c-10.85 17.04-18.27 34.56-26.18 52.57-3.24 7.79-.83 6.82-3.75 6.82l-.56-3.41c-.08-3.9-.15-7.3-1.21-11.2-1.08-4.86-4.2-14.11-7.19-17.52-2.51-3.41-11.15 2.92-15.96 5.84-15.9 8.76-20.7 12.17-33.61 23.36l-15.73 16.55c-4.78 4.38-9.04 10.71-13.32 15.58l-7.12 8.76c-.96.49-1.44.98-1.91 1.95-1.43 1.46-2.37 2.92-3.31 4.87-.46.97-.94 1.46-1.9 1.94-3.3 5.36-8.51 12.66-10.83 18.01-.94 1.46-5.17 8.76-7.11 9.25-1.02-1.95-.1-4.38 1.34-5.84.95-.97.96-.49 1.9-1.95.94-1.94-.02-.97 1.9-2.43 1.83-5.84 14.59-24.34 18.39-29.21 7.54-11.68 16.01-26.28 23.11-36.02 4.24-6.81 8.92-16.06 12.66-23.36 2.8-5.84 5.13-10.71 7.94-16.06 1.87-3.9 7.08-10.71 7.96-15.58-.52-1.46-.03-.97-.99-.48-.48.48-.47.97-.94 1.46-1-.98.41-3.41 1.79-7.31.92-2.43 1.84-5.35 2.28-7.3l-25.33 46.24c-3.74 7.31-8.44 15.58-12.18 22.88-4.22 7.79-8.45 15.09-13.17 22.39-4.22 7.79-9.45 14.12-13.17 22.39-1.89 2.92-5.2 7.79-7.58 10.22-3.82 3.9-4.26 5.85-6.59 11.2-5.65 9.25-9.81 19.96-14.47 29.69-1.86 4.38-7.47 15.58-8.38 18.5 1.31-7.3 12.96-32.13 13.82-37.48 1.36-4.87 5.57-13.14 8.41-17.04 3.8-4.87 5.77-3.89 11.89-14.11 7.54-11.69 11.81-17.53 19.79-31.64 6.58-11.2 12.7-21.42 18.8-32.61 12.2-21.91 21.92-46.25 35.11-67.66 5.2-7.79 23.96-41.86 29.19-48.19 2.38-2.44 10.97-11.2 11.88-14.12.44-2.43-10.05-14.6-13.03-17.03-7.42-5.36-10.87-7.3-18.28-12.17.9-3.41 2.32-5.36 2.75-7.79 9.84 4.38 31.63 20.93 38.01 22.88 3.44 1.46 3.94 1.94 7.81.48 3.87-.97 5.83-.48 9.25 0zm-298.55 29.69h4.38c.06 2.92-2.61 14.6-3.5 18.5-.01-.49-.01-.49-.52-1.46 0 0-.51-.98-.51-.98-1.06-3.89-1.24-12.65-2.28-15.57l-2.94-.97c.36-5.85 5.76-3.9 5.76-3.9 1.95 0-2.92 0 .97-.49 2.42-.48 3.41 0 5.86.98.05 1.94.05 1.94-.41 3.41 0 0-8.76.48-9.26 0zm205.12-.97 1.47.49-2.02 19.47c-1.04-2.93-1.6-6.33-2.16-9.74-1.03-2.92-2.07-5.84-2.14-9.25l-.5-.48c-1.01-1.47-.52-1.47-.55-2.93 1.93-.97 5.32-1.94 7.78-.97 1.96.49 1.98 1.46 2.48 2.43zm114.94-48.68c-.49 0-.49 0-.49 0l-.98-.48c-.5-.49-.5-.49-.5-.49l-26.16-15.58c-2.46-1.46-6.91-4.38-8.89-5.84 8.79.98 30 13.15 36.01 20.93.01.49.01.49.01.49s.5.49.5.49zm-429.29 0c.43-2.92.45-1.94 2.82-4.86 1.44-.98 2.4-1.95 3.34-3.41 5.26-4.87 17.72-14.6 25.48-16.06-4.31 3.4-12.01 7.78-16.32 11.68-6.22 5.35-1.92.97-7.16 6.81-.93 1.95-6.23 4.87-8.16 5.84zm317.94-34.56s-2.86 2.92-2.86 2.92c-1.92 1.46-1.96-.48-1.01-1.94 1.38-3.9 1.79-7.3 3.22-8.76zm-6.32.49c-2-2.43-3.03-4.87-.64-7.3 1.42-1.95 2.86-2.92 4.76-5.35-.37 5.84-1.78 8.27-4.12 12.65zm-.82 76.42-2.4 1.46c.01.49-.94 1.46-1.41 2.43-1.95 0-2.44 0-3.92-.97.92-2.43-1.98-1.46 1.92-1.46h2.43c-.55-2.92-1.46 0-2.01-2.92-.95.97-.46.97-1.44.97-1.46 0-2.44-.48-2.94-.97l-.99-.49c-.1-4.86 1.24-10.7 2.12-15.09 1.79-7.3 6.96-16.55 10.22-23.36l5.63-10.22s0 0-.01-.49h.49c-.9 3.41-.34 6.82-1.24 10.22-2.23 9.74-3.71 9.25-7.49 14.61-.93 1.94-2.81 5.35-3.25 7.78 2.92-.48 13.48-7.78 15.4-9.24 2.85-3.41 4.6-12.66 6.45-17.53 1.96.49.48-.48 1.47.49-2.01-2.92.71-12.66 2.61-15.09 2.35-3.89 5.7-6.81 9.04-10.22 5.68-7.79 9.9-15.58 22.55-16.55-.45 1.95-1.87 3.89-3.28 6.33-4.66 9.73-8.81 20.93-12.01 31.15l-10.19 24.82c-3.27 6.82-1.83 5.84-7.59 9.74zm-194.9.49c-6.31.97-14.25-5.84-18.71-9.25-1.49-1.46-3.46-2.43-5.44-3.89-6.93-4.87-6.89-3.41-9.45-9.25-7.2-17.53-15.36-34.56-23.04-52.09l-6.11-12.65c17.63 4.38 19.3 14.11 32.75 27.74 2.49 2.92 1.54 3.9 2.12 8.28 1.58 5.35-.42 2.92-1.31 7.3h.49.49c2.46.97 3.64 10.71 8.62 16.06 1.98 1.46 13.84 9.25 16.28 9.25-3.11-8.76-7.06-11.19-8.56-13.14-4.55-7.79-4.13-10.71-2.81-17.52 3.45 1.94 10.62 18.49 12.15 21.41 2.58 6.82 6.71 18.01 7.37 25.8-4.87.49-4.39 0-5.92-3.41-3.03-4.86-8.52-11.19-13.47-14.6-1-1.46-3.95-2.43-5.92-3.41-6.9-3.89-9.92-8.27-15.37-12.65 3.53 5.84 12.47 13.63 18.88 17.03 6.38 2.44 6.86 1.95 10.39 7.79 1.53 2.92 5.54 8.28 6.57 11.2zm-36.34-36.51c1.49 1.46-1-.97 0 0zm245.02-49.65c10.08-7.3 24.2-7.79 36.9-6.33 1.96.49 4.39.49 6.35.98l5.37.49c.99.48.49 0 .99.48-35.08 0-33.86 11.68-47.13 29.21-.96.97-1.92 1.46-2.87 2.92l-3.26 6.81c-.47.98.01.49-.47.98-.13-6.33 1.7-11.69 3.05-17.04 1.34-5.84 1.21-11.68 1.07-18.5zm-279.81-5.35c1.94-.49 1.94-.49 5.84-.49 19.45-1.95 23.35-1.95 41.53 5.36-.28 9.73-.27 10.22 2.35 18.98 2.08 5.84 3.16 11.19 4.75 17.04-1.47-.49-.98 0-1.98-1.46l-8.54-12.17c-11.56-16.55-18.1-26.29-44.43-26.77zm58.78 14.6c-.04-1.95-3.04-5.84-4.09-9.25-1.05-3.4-.19-8.76-1.23-12.17 10.34 5.36 10.04 14.12 5.32 21.42zm206.08-24.82c-1.24-12.66 6.58-11.69 7.87-19.47.62 6.32 1.87 18.98-6.83 22.39l.85-5.84zm2.81-5.36c-.47.49-.49 0-.92 2.44.95-.98.95-.98.92-2.44zm-.83 6.82c1.44-.98-.49 0-.49 0-.46.97.49 0 .49 0zm-4.98-5.36c-.43 2.92.09 4.38.63 6.82 1.57 5.35-3.1 14.6-.09 18.98 2.54 4.87 10.52 13.63 10.65 19.47.14 6.81-13.64 23.36-18.64 40.4-5.41 20.44-10.61 51.11-14.52 73.5l-2.51 19.47c-.47.97-.43 2.43-.91 2.92l-.91 2.92c-.22-10.22 1.94-23.36 3.67-33.58.44-2.44 1.3-7.79 1.25-9.74 0 0-6.19 29.69-6.98 38.45-.76 9.74-.24 11.69-3.97 19.47-2.34 4.38-5.13 10.71-7.96 15.09-.57-3.89 1.02-20.93 1.91-24.82 1.29-7.79 2.11-15.09 3.41-22.88 2.17-12.65 6.5-37.97 9.67-49.65l3.56-16.06c1.31-6.81.37-5.35 3.18-10.71.94-1.46 1.4-2.92 1.85-4.87.95-.97 1.9-1.94 2.85-3.4 3.28-5.84 6.09-11.2 9.88-16.55 4.22-7.79 9.47-13.15 5.96-17.53-.91 2.92-.88 4.38-2.77 7.31-1.42 1.94-2.35 3.89-3.76 6.32-5.63 10.22-9.44 14.61-13.56 26.77-8.31 21.91-8.27 23.86-13.14 46.73-2.21 10.71-4.4 22.39-6.11 33.59-3.88 23.85-5.26 51.11-8.73 71.06-3.04 17.53-9.17 50.14-18.19 61.33-1.43 1.46-8.6 8.28-11.01 9.25-4.84 1.46-14.12.49-19.02-.48-5.86-.98-9.81-3.41-14.74-5.85-4.94-3.4-6.92-4.86-9.01-11.19-7.24-19.96-14.98-40.4-20.31-61.82-3.72-14.6-4.39-23.36-6.59-35.04-2.19-11.2-4.38-22.88-7.54-33.59-2.65-10.22-6.31-21.9-8.96-32.13l-7.53-33.58c-1.79 7.79 10.29 48.67 12.94 58.9 1.63 7.78 9.58 37.96 8.77 45.75-.35 6.81.69 9.74.82 16.06l-.99-.97c-.01-.49-.51-.97-.52-1.46-.51-.97-1.01-1.46-1.51-2.43-1.01-1.46-1.53-2.92-2.54-4.87-3.04-5.36-9.09-15.09-9.69-20.45-.1-4.38-1.16-8.76-1.74-13.14-1.17-8.76-3.3-17.52-4.45-25.8-1.06-3.89-1.64-8.27-2.7-12.65-.54-2.43-2.64-9.25-2.19-11.2-.42 3.41 1.18 9.74 2.25 14.12 1.69 10.71 5.11 34.07 5.3 43.32-1.98-1.46-1.99-1.95-2.54-4.87l-2.36-19.47c-3.39-21.9-4.48-27.26-9.8-48.67-3.73-15.09-7.93-29.21-15.52-42.35-15.16-25.8-15.47-17.04-4.19-36.99 5.61-11.2 1.8-6.82 1.93-23.85-.01-.49-.02-.98-.02-.98.45-1.46.46-.97.95-.97-.04-1.95-.04-1.95.42-2.92-.03-1.46.49 0-.52-1.95-.56-3.4.9-3.4-1.1-5.84l-11.42-9.73c1.02 1.94 1.99 1.94 3.53 5.35 2.56 5.84 4.45 2.92 7.5 9.25 1.03 2.43.08 3.41.64 6.81-1.51-1.94-2.53-4.38-4.04-6.32-.5-.98-3.06-6.82-3.06-6.82l1.06 4.38c1.07 4.38 1.64 8.28 1.74 13.14-1.97-.97-4.95-3.89-6.43-4.86-2.5-2.92-2.28-15.58-1.88-19.47.45-1.95-.63-6.82-.7-10.23 1.97.98 3.96 2.93 7.41 4.87 3.44 1.46 4.43 1.95 5.97 5.84 2.88-1.94 1.94-.48 1.94-.48-.02-.98-.57-3.9-.58-4.38 0 0-.49 0-.5-.49-2.48-1.95-4.45-2.92-6.9-3.89l-7.39-3.9c.35-6.33.16-15.09 1.5-20.93 1.08 4.87.19 8.76.29 13.63 4.05-15.58 1.97-21.9 17.83-32.13 2.41-1.46 1.41-2.43 2.41-1.46-1.92 1.46-1.42 1.95-2.86 2.92l1.47.49c-1.93.97-.49 0-2.43.49.52 1.46 3.35-2.92-2.81 5.35-1.4 2.92-3.33 3.41-2.27 7.79.56 3.41 1.58 5.35 2.63 8.76 2.57 6.33 2.03 3.9 3.52 5.36.51.97.96-.49.03 1.46l-.05-2.44c.4-3.89-4.68-13.63-4.25-16.55.93-1.94 7.6-9.25 9.02-11.19 7.64-7.3 12.43-11.2 24.01-16.55 6.28-2.92 8.19-4.38 16.49-3.9 10.72 0 22.52 4.87 32.34 8.77 2.96 1.46 11.34 5.84 14.73 4.86 2.91-.48 15.9-8.27 28.98-11.68 15.04-3.41 20.92-1.95 33.7 3.41 10.82 4.87 16.78 10.22 23.76 17.52 5.97 5.84 8.45 7.79 7.09 12.66-.9 3.4-4.61 12.65-3.55 16.55l2.86-2.92.99.48h.49c.95-.97-1.47 0 .95-.97-1.97-.97-.96.49-1.97-.97 1.44-.98 2.38-2.44 2.34-4.38l-2.37 2.92c1.39-3.41 2.79-6.33 3.19-10.23.86-5.35-2.1-7.3-4.59-9.73-1.5-1.95-.52-1.46-3.99-4.38l-5.49-6.33c-1.51-1.95-2-2.43-3.02-4.38 2.46.97 9.88 6.33 12.35 7.79 2.98 2.92 6.95 6.33 9.95 9.73 4.49 4.87 4.01 5.36 6.61 13.14 1.58 5.36 3.14 10.23 2.79 16.55-2.87 2.44-8.7 3.41-12.53 6.82l-1.44.97c-.46.98-.38 4.87.13 5.84.5.98.52 1.46.54 2.44l-.46 1.46.04 1.94s0 0 .48-.48l.96-.49c2.88-1.95 3.81-4.38 4.2-8.76-1.43 1.46-1.42 1.95-2.36 3.41l-1.88 3.4-.53-1.94c-.05-2.44 3.85-2.44 5.24-5.84-1.95 0-3.38 1.46-4.82 2.43 1.43-1.46 4.33-2.43 6.24-4.38 1.43-1.46 4.29-4.38 6.72-4.87.26 12.17.63 6.82-2.21 10.71-.96.97-.94 1.95-1.89 2.92-.93 1.95-3.33 3.89-4.27 5.35-1.03-2.43.48-.48.41-3.4-1.45.48-1.44.97-1.44.97s1.43-1.46 1.92-1.46c0 0 .5.49.97-.49.94-1.46.48 0 .92-2.43-1.93.97-1.45.49-2.88 1.95-1.92 1.46-1.9 2.43-2.85 3.89l-.95.97s.51.98 1.45-.48c-.94 1.46-1.91 1.94-1.84 4.87l-.01-.49s.44-1.95.01.49c-.45 1.94.02.97.56 3.4zm-148.59-90.53c.87-4.87 14.47-6.82 19.8-8.28 12.63-1.94 40.4-1.94 53.11 0 4.4.49 20.04 2.92 20.15 7.79-.97.49-16.5 3.41-24.72 6.33-25.13 9.73-14.35 12.65-31.58 4.38-13.77-5.84-21.12-7.79-36.76-10.22z" fill="#270318"/><path d="m1866.44 12028.94c-1.93.49-9.77-1.46-12.22-1.94-15.18-3.41-24.39-1.46-39.91 1.94 19.33-7.3 32.96-8.27 52.13 0zm16.8-58.41-4.98 18.01c-3.66 11.2-7.79 23.37-19.87 28.24l-6.28 2.43c-.49 0-2.43.49-2.92.49-5.35.48-18.49.97-22.91-.49-1.47-.49-2.46-.97-4.41-1.46-13.27-5.35-19.88-18.01-25.5-30.18-1.54-3.89-6.15-14.6-5.74-18.01.99.49-.01-.49 1.5 1.46.01.49.51 1.46.52 1.95 4.09 8.76 7.76 20.93 13.26 27.74 2 2.44 3.48 3.41 5.96 5.36 6.46 5.84 16.77 9.25 26.02 9.25 13.65 0 27.18-5.36 31.87-13.63 2.84-4.38 12.12-26.29 13.48-31.16zm46.3-206.38c-1.49-.97-.48.49-1-.97l-1.06-3.89c-.04-1.95.91-3.41 1.86-4.39-1-.97.49 0-1.47-.48-.48.48-.48.48-.48.48l-.04-1.94-.02-.98c-.57-3.89-.44 2.44-.02-.97-.06-2.92-.51-.97-.04-1.95-.51-.97-.59-4.86-.13-5.84-1-1.46-.54-2.43-.58-4.38l-4.06-7.79c-.01-.48-1.98-1.46 1.39-3.4-.5-.49-.51-.98-1.01-1.46l-2.86 2.92c-1.06-3.9 2.65-13.15 3.55-16.55 1.36-4.87-1.12-6.82-7.09-12.66-6.98-7.3-12.94-12.65-23.76-17.52-12.78-5.36-18.66-6.82-33.7-3.41-13.08 3.41-26.07 11.2-28.98 11.68-3.39.98-11.77-3.4-14.73-4.86-9.82-3.9-21.62-8.77-32.34-8.77-8.3-.48-10.21.98-16.49 3.9-11.58 5.35-16.37 9.25-24.01 16.55-1.42 1.94-8.09 9.25-9.02 11.19-.43 2.92 4.65 12.66 4.25 16.55.5.49 1.48.98.55 2.92l-3.29 5.84c-1.87 3.9-1.41 2.44-1.82 5.85l.09 4.38c.01.48.56 3.4.58 4.38.04 1.94-.42 3.4.11 5.35l-1.45.49c.01.48.01.48.01.48.49 0 1.47.49 1.54 3.41l-1.37 4.38c1.01 1.95.49.49.52 1.95-.46.97-.46.97-.42 2.92.51.97.03 1.46-.93 1.95-.13 17.03 3.68 12.65-1.93 23.85-11.28 19.95-10.97 11.19 4.19 36.99 7.59 13.14 11.79 27.26 15.52 42.35 5.32 21.41 6.41 26.77 9.8 48.67l2.36 19.47c.55 2.92.56 3.41 2.54 4.87-.19-9.25-3.61-32.61-5.3-43.32-1.07-4.38-2.67-10.71-2.25-14.12-.45 1.95 1.65 8.77 2.19 11.2 1.06 4.38 1.64 8.76 2.7 12.65 1.15 8.28 3.28 17.04 4.45 25.8.58 4.38 1.64 8.76 1.74 13.14.6 5.36 6.65 15.09 9.69 20.45 1.01 1.95 1.53 3.41 2.54 4.87.5.97 1 1.46 1.51 2.43.01.49.51.97.52 1.46l.99.97c-.13-6.32-1.17-9.25-.82-16.06.81-7.79-7.14-37.97-8.77-45.75-2.65-10.23-14.73-51.11-12.94-58.9l7.53 33.58c2.65 10.23 6.31 21.91 8.96 32.13 3.16 10.71 5.35 22.39 7.54 33.59 2.2 11.68 2.87 20.44 6.59 35.04 5.33 21.42 13.07 41.86 20.31 61.82 2.09 6.33 4.07 7.79 9.01 11.19 4.93 2.44 8.88 4.87 14.74 5.85 4.9.97 14.18 1.94 19.02.48 2.41-.97 9.58-7.79 11.01-9.25 9.02-11.19 15.15-43.8 18.19-61.33 3.47-19.95 4.85-47.21 8.73-71.06 1.71-11.2 3.9-22.88 6.11-33.59 4.87-22.87 4.83-24.82 13.14-46.73 4.12-12.16 7.93-16.55 13.56-26.77 1.41-2.43 2.34-4.38 3.76-6.32 1.89-2.93 1.86-4.39 2.77-7.31 3.51 4.38-1.74 9.74-5.96 17.53-3.79 5.35-6.6 10.71-9.88 16.55-.95 1.46-1.9 2.43-2.85 3.4-.45 1.95-.91 3.41-1.85 4.87-2.81 5.36-1.87 3.9-3.18 10.71l-3.56 16.06c-3.17 11.68-7.5 37-9.67 49.65-1.3 7.79-2.12 15.09-3.41 22.88-.89 3.89-2.48 20.93-1.91 24.82 2.83-4.38 5.62-10.71 7.96-15.09 3.73-7.78 3.21-9.73 3.97-19.47.79-8.76 6.98-38.45 6.98-38.45.05 1.95-.81 7.3-1.25 9.74-1.73 10.22-3.89 23.36-3.67 33.58l.91-2.92c.48-.49.44-1.95.91-2.92l2.51-19.47c3.91-22.39 9.11-53.06 14.52-73.5 5-17.04 18.78-33.59 18.64-40.4-.13-5.84-8.11-14.6-10.65-19.47-3.01-4.38 1.66-13.63.09-18.98-.54-2.44-1.06-3.9-.63-6.82zm-5.18-37.48h-.49c.5.49.01.49.49 0zm-190.08 90.05c6.35.98 21.05 27.75 23.66 36.02-4.02-5.84-7.09-12.65-11.11-18.5zm179.72-26.77c-1.44.97-1.47-.49 1.54 3.41 1.48.97 2 2.43 2.53 4.38-1-.98-1.99-1.95-2.99-2.92-.5-.49-.99-.98-1.49-1.46 0 0-.99-.49-.99-.49-.99-.97-.49-.49-.99-.97 0 0-1.45.48.53 1.94.99.98.98.49 1.98 1.46-4.87.49-.51-.97-6.32.98l1 .97s.48 0 .5.49h4.38c-2.43.49-6.3 1.46-8.24 1.95-2.92.48-4.35 1.94-6.26 3.4l-3.86 1.95c-.95.97 1.95 0 0 0-3.4.49-6.36-.97-8.82-2.43l.03 1.46c-2.47-1.46-5.41-2.44-7.38-3.41-2.46-.97-4.44-2.43-6.91-3.9-1.47-.48-2.46-.97-3.45-1.94l-3.45-1.95c-2.96-1.46-3.49-3.41-7.38-3.41l23.2 14.12c.98.49 1.98 1.46 2.97 2.43l-11.83-6.32c-5.4-1.95-13.78-6.82-15.26-7.31-1.47-.48-1.96-.48-2.95-1.46-2.46-.97-4.44-2.43-6.83-.48-3.34 3.4-4.71 7.79-6.09 11.68h.49s4.77-4.87 8.15-6.33c5.32-1.95 11.29 3.9 13.81 7.79 1.01 1.95 1.05 3.89 2.07 5.84 6.11 12.66 39.84 17.52 45.13 14.12 1.9-1.95 6.22-5.36 9.12-6.33l-13.7 20.44c-11.24 21.42-17.31 56.95-21.18 81.29-2.61 14.6-4.25 29.2-7.35 43.81-1.74 9.73-4.99 17.52-7.73 26.28-1.81 6.33-5.07 13.63-10.89 14.6-10.19 2.44-11.63 3.41-23.32 3.41-4.39 0-10.74-.97-14.19-2.92l-5.44-3.41c-2.94-.97-3.44-1.46-4.47-4.38-1.03-2.43-2.03-3.4-3.04-5.35-1.03-2.44-1.55-3.9-2.57-6.33-2.01-2.92-6.65-14.6-7.7-18.5l-4.85-21.9c-7.7-41.37-11.41-55.49-28.82-94.92-2.57-6.32-8.64-17.03-13.14-22.39-1.02-1.94-6.51-8.27-7.05-10.71 5.43 3.41 13.37 10.23 20.68 10.23 9.76.48 27.69-4.38 32.37-13.15 1.87-3.89.32-7.78 3.65-11.68.46-1.46 7.18-6.33 9.13-6.33 3.9 0 6.92 4.87 9.87 5.85-.1-4.39-2.12-7.79-6.07-10.23-4.93-2.92-16.43 6.33-21.25 8.77-3.37 1.94-7.21 4.86-10.6 5.84l17.77-12.17c-3.85 1.94-6.72 4.87-10.59 5.84-4.36 1.46-7.76 1.95-11.6 4.38-8.21 3.89-9.83-3.89-17.15-4.38-3.42-.49-3.91-.49-6.36-.97 1.94-.49 4.85-.98 6.3-1.95-5.89-1.95-4.4-.49-8.79-.49 1.44-1.46 2.88-2.43 3.82-3.89l-5.81 1.94c-1.93.49-3.81 3.9-5.24 5.36.44-1.95 1.39-3.41 2.82-4.87.47-.49 1.43-1.46 1.43-1.46h.49l-.02-.97c1.45-.49 2.89-1.46 3.34-2.92-3.4.48-4.34 1.94-7.24 2.92.93-1.95-1.44.97.92-2.44l1.9-2.43c.95-.97.49 0 .95-.97-3.41 0-4.83 1.94-8.22 2.92 3.34-3.41 6.74-3.9 9.08-8.28-.96.49-2.42.49-4.37.49-1.46 0-3.41 0-4.4-.49l4.38-.48c-1-.98-2.97-1.95-4.44-2.44l3.75-6.81c2.81-5.36-2.04-4.38-.12-5.84-1.55-4.38-.33-15.58.03-21.42.45-1.95.38-5.36 1.32-6.82 2.49 2.44 6.42 3.9 8.91 6.33 9.92 8.28 24.9 25.31 31.81 29.69 5.44 3.9 17.7 7.31 24.48 5.36 3.88-.98 1.43-1.46 6.33 0 2.45.49 4.39 0 7.31 0-2.38 2.43-5.79 2.43-8.67 4.87l4.35-1.95c1.45-.49 2.4-1.46 4.84-1.46 3.9 0 9.26 0 12.68.49 1.47.48 3.43.97 4.43 1.94 2.95 1.46 5.48 5.84 14.25 5.84-2.47-1.46-5.91-2.92-8.86-4.38-1.98-1.46-6.41-3.4-7.91-5.35 2.9-.98-.51-.98 2.42-.49 5.36 0 3.89-.49 9.28.98 5.87.97 7.81.48 13.14-.98 11.62-3.41 10.17-2.92 17.77-12.17 4.75-5.84 23.31-26.77 31.06-28.72 3.03 4.87 3.38 21.42 3.97 26.29.52 1.46.51.97-.42 2.92l-2.38 2.92c1.49 1.46 3.55 6.33 5.52 7.3l-1.48-.49c-1.46 0 .46-1.46-.97 0l.5.49c.98.49 0 0 .98.49.99.48 1.47.48 1.96.48-1.41 2.44.97-.48-2.86 2.93-.97.48-.97.48-.97.48h3.9c-3.4.49-5.33 1.46-8.27.49l.51.97c2.52 3.9 5.44 3.9 8.45 7.79-3.44-.97-4.95-3.41-9.34-3.89 1.01 1.94 3.01 4.38 4.99 5.84-.5-.49-3.45-1.95-3.94-1.95zm-1.47-.49c.5.49-.47.98.49 0zm1.98-67.65c-4.92-1.95-6.41-3.41-13.22-2.93-4.39 0-10.69 1.47-13.09 3.41.46-1.46 2.4-1.94 3.35-2.92l1.44-.97c-3.88.48-6.29 1.95-10.17 2.92 6.27-3.41 9.18-3.9 15.51-3.9 7.8 0 10.72 0 16.18 4.39zm-170.98 2.43c.92-2.43 3.81-3.89 6.22-5.36 7.22-3.89 20.41-2.43 26.88 3.9-.99-.49-2.95-.97-3.92-.97-.98-.49-2.44 0-3.91-.49-3.44-1.46-5.4-1.95-8.82-2.44-9.28-.97-13.06 4.39-16.45 5.36z" fill="#dfe2e1"/><path d="m1832.31 11981.73c3.89-.49 5.95 4.87 6.49 7.3.56 3.41 1.66 9.25 1.22 11.68-1.45.49-4.37.49-6.33 0-2.94-.48-1.98-1.46-1.57-4.86-.09-4.39-.7-10.23.19-14.12zm15.58-.49c1.05 3.41 2.78 16.07 2.34 18.5l-7.3.49-1.01-1.95c-.02-.97-.05-2.43-.07-3.41-.06-2.43-.1-4.38.35-6.33.39-4.38 1.8-6.81 5.69-7.3zm-25.57 12.17c.45-1.95.91-3.41 1.85-4.87.9-3.4-.08-3.89 2.82-4.86 1.51 2.43 2.73 13.63 2.77 15.57-2.94-.48-6.42-3.89-7.44-5.84zm30.97-10.22c.01.49 4.57 8.76 4.6 10.22-1.41 2.44-1.87 3.41-5.26 4.38-.05-2.43-.59-4.86-.64-7.3-.04-1.46-.06-2.43-.08-3.41.4-4.38.43-2.92 1.38-3.89zm3.93 1.46c1.42-1.95 3.73-7.79 3.68-10.22l1.01 1.46c2.57 6.33-.22 12.65-3.1 14.6-.52-1.46-1.03-2.43-1.56-4.38-1.5-1.95-.55-2.92-2.04-4.38-1.99-1.95-3.9 0-4.86.49-2.57-6.33-6.84-.98-10.22.48-.16-7.3-.07-26.28-2.14-31.64.15 6.82-.88 27.26.21 32.62-1.49-.98-2.01-2.92-4.47-3.9-4.42-1.46-4.39 0-4.32 2.92l-1.48-.48c-.98-.49-2.93-.49-3.4.48 0 0 0 0 .01.49l-.47.49c-.58-4.38-3.65-11.2-4.26-17.04-1.48-.49-.49 0-2.44 0-1.14-7.79-4.03-6.33-5.06-8.76-1.5-1.95-3.07-6.82-4.6-10.22-3.07-6.82-5.17-14.12-2.43-22.88 2.74-8.27 6.57-11.68 16.89-7.79 12.27 4.38 12.41 11.2 15.86 12.66 3.75-6.82 9.02-11.2 18.21-14.12 6.31-1.46 8.76-.48 11.29 3.9 4.08 8.27 3.83 19.47.59 27.74-1.85 4.38-2.27 7.79-4.62 11.68-3.32 4.38-2.8 5.84-3.64 12.17-.43 2.92-2.66 12.66-2.64 13.63zm-39.31-15.58c1.6 6.33 4.7 15.09 3.38 21.42-2.47-1.46-5.5-6.33-5.56-9.25-.55-2.92.35-6.32 1.28-8.76l.44-1.95s-.01-.48.48-.48zm-13.2-1.94c.99.48-.01-.49 1 .97.49.49.99.97 1 1.46l5.05 8.28c1.03 2.43 1.56 4.38 2.57 6.32 1.03 2.44 2.02 3.41 3.53 5.36 3.04 5.84 4.01 5.35 8.48 9.25 3.98 3.89 5.94 4.38 13.72 3.89 11.69-.49 16.52-2.43 22.15-12.66 2.35-3.89 3.25-7.3 5.1-12.16.93-1.95 4.65-10.71 6.09-11.69.16 7.79-3.14 13.15-5.39 21.91-1.81 6.33-1.2 12.17-12.84 14.6-8.73 1.95-24.77 3.89-33.15-.49-9.38-5.84-8.85-3.89-11.46-12.17-.03-1.46-1.03-2.43-1.54-3.4l-5.16-13.63c-1.54-3.9-2.53-4.38.85-5.84zm59.71 12.17c-.5-.49.01.48-.52-1.46l-1.56-4.38c-.62-6.33-.84-17.04 9.03-11.2.59 4.87-4.19 9.25-6.95 17.04zm-58.31-15.09c1.42-1.95 3.82-3.9 6.77-2.44 3.94 1.95 2.74 14.12.86 17.53-2.03-3.9-6.57-11.2-7.63-15.09zm-1.53-3.41c-1.04-2.92-1.04-2.92-.14-6.33l1.38-3.89c.96-.98.48-.49.96-.98 1.01 1.95 1.55 4.39 2.1 7.31.53 1.94 1.02 1.94-.42 2.92-.97.48-2.42.97-3.88.97zm65.03-12.17s.49 0 .51.97l1.05 3.41c.54 2.44.57 3.9.61 5.84l-4.88-.48c-.04-1.95 1.77-8.28 2.71-9.74zm-67.07 7.79-.31-14.6c-.02-.98-.03-1.46-.05-1.95.48-.49.47-.97.47-.97.47-.98.48-.49.96-.98-.42 3.41 3.07 7.3.79 14.6l-.45 1.47c-.92 2.92.04 1.94-1.41 2.43zm68.47-10.71c.46-1.46.45-1.95.41-3.89l.42-2.92c.45-1.95 0 0 .46-1.46.07 3.4 1.25 13.14.83 16.06 0 0-.48.49-.48.49.02.97-.48.48-.47.97-.05-2.44.36-6.33-.67-8.76-.49 0-.5-.49-.5-.49zm-50.05-62.79c-2.35-18.5 14.19-19.96 14.03-4.38.11 4.87.31 14.6-4.55 15.09-6.79 1.46-8.88-5.36-9.48-10.71zm34.24 6.33c-4.02-5.84-4.36-21.91-.11-28.23 3.41 0 4.42 1.94 5.46 4.86.55 2.92 1.11 6.33 1.17 9.25.63 6.82-.68 13.63-6.52 14.12zm-37.5.97c-8.81-1.95-8.3-23.85-2.01-25.8 4.44 2.44 6.7 17.04 2.01 25.8zm17.77-12.17c-1.09-5.35 4.13-12.17 9.51-11.19 7.84 1.94 8.88 28.23-3.81 27.25-5.86-.48-5.11-11.19-5.7-16.06zm-31.07-17.52c4.41.97 4.57 8.76 4.68 13.63.54 2.92.61 5.84.67 8.76.08 3.89-.39 4.87-4.28 4.87-6.01-7.3-6.74-18.99-1.07-27.26zm61.95 26.28c-1.97-.97-2.51-3.89-2.57-6.32-.06-2.92-.62-6.33-.67-8.77-.07-3.4 2.19-11.68 4.6-13.14 2.4-1.46 1.94 0 2.54 5.36.59 4.38.95 21.41-3.9 22.87zm7.75-2.43c-.01-.49-.53-1.95-.54-2.43-1.59-5.84-1.15-8.28-.31-14.61.43-2.92.84-6.32 1.26-9.73 1.38-3.9 1.81-6.33 4.25-6.33 1.51 2.43 1.09 5.36 1.18 9.74.07 3.4.13 6.32-.28 9.73-.83 6.82-2.22 10.22-4.54 15.58zm-78.88 2.92c-1.51-2.43-2.52-3.89-3.09-7.79-1.02-2.43-1.09-5.84-1.64-8.76s-.62-6.33-1.17-9.25c-.62-5.84-1.14-7.79 1.76-8.76 3.95 2.43 9.74 22.88 5.09 33.1-.47.97.01.49-.47.97zm-27.35-49.16c4.39.49 11.8 4.87 16.21 6.33 13.77 5.84 36.37 14.6 51.48 14.6 7.3 0 27.12-7.79 33.39-10.71 4.34-1.95 27.01-13.14 29.93-13.14-3.36 2.43-10.52 9.25-13.38 12.17l-2.39 2.43h-.49l-1.92.97c-1.97-.97-1.5-1.46-3.46-1.94-2.4 1.46-4.22 7.79-5.13 10.71-.99-.98-1.51-2.44-2.51-3.41-4.37.49-6.25 3.89-7.13 8.27l-1.52-2.92s-1.49-.97-1.97-.97c-1-.97-2.02-2.92-4.43-1.95-1.92 1.46-4.25 6.33-4.17 10.22-9.43-8.27-10.76-1.94-16.07.49-1.49-1.46-3.47-2.92-6.41-3.41-4.39-.48-4.35 1.46-7.74 2.44-4.12-10.22-6.43-4.38-9.8-2.44-1.49-1.46-1.02-2.43-2.04-4.38-.53-1.94-1.51-2.43-3-3.4-4.36.97-4.76 5.35-6.12 9.73-1.51-1.95-2.11-7.3-3.14-10.22-1.03-2.44-3.56-6.82-6.01-7.3l-2.37 2.92c-3.92-.98-7.91-5.36-10.39-7.3-1.99-1.95-7.92-5.84-9.42-7.79zm141.43-40.4-3.92-.98c1.9-1.94 3.37-1.94 6.78-1.94-1.01-1.46-1.99-1.95-2.52-3.9 1.96.49 4.42 1.95 5.42 2.92l1 .98c-.52-1.46-.02-.49-.52-1.46l-1.51-1.95c-.98-.49-.98-.49-1.48-.97l-.98-.49c-.01-.49-.01-.49-.01-.49h.97.49c.96-.48.96-.48.98.49.49 0 3.44 1.46 3.94 1.95-1.98-1.46-3.98-3.9-4.99-5.84 4.39.48 5.9 2.92 9.34 3.89-3.01-3.89-5.93-3.89-8.45-7.79l-.51-.97c2.94.97 4.87 0 8.27-.49h-3.9s0 0 .97-.48c3.83-3.41 1.45-.49 2.86-2.93-.49 0-.97 0-1.96-.48-.98-.49 0 0-.98-.49l-.5-.49c1.43-1.46-.49 0 .97 0l1.48.49c-1.97-.97-4.03-5.84-5.52-7.3l2.38-2.92c.93-1.95.94-1.46.42-2.92-.59-4.87-.94-21.42-3.97-26.29-7.75 1.95-26.31 22.88-31.06 28.72-7.6 9.25-6.15 8.76-17.77 12.17-5.33 1.46-7.27 1.95-13.14.98-5.39-1.47-3.92-.98-9.28-.98-2.93-.49.48-.49-2.42.49 1.5 1.95 5.93 3.89 7.91 5.35 2.95 1.46 6.39 2.92 8.86 4.38-8.77 0-11.3-4.38-14.25-5.84-1-.97-2.96-1.46-4.43-1.94-3.42-.49-8.78-.49-12.68-.49-2.44 0-3.39.97-4.84 1.46l-4.35 1.95c2.88-2.44 6.29-2.44 8.67-4.87-2.92 0-4.86.49-7.31 0-4.9-1.46-2.45-.98-6.33 0-6.78 1.95-19.04-1.46-24.48-5.36-6.91-4.38-21.89-21.41-31.81-29.69-2.49-2.43-6.42-3.89-8.91-6.33-.94 1.46-.87 4.87-1.32 6.82-.36 5.84-1.58 17.04-.03 21.42-1.92 1.46 2.93.48.12 5.84l-3.75 6.81c1.47.49 3.44 1.46 4.44 2.44l-4.38.48c.99.49 2.94.49 4.4.49 1.95 0 3.41 0 4.37-.49-2.34 4.38-5.74 4.87-9.08 8.28 3.39-.98 4.81-2.92 8.22-2.92-.46.97 0 0-.95.97l-1.9 2.43c-2.36 3.41.01.49-.92 2.44 2.9-.98 3.84-2.44 7.24-2.92-.45 1.46-1.89 2.43-3.34 2.92l.02.97c-.49 0 0 0-.49 0 0 0-.96.97-1.43 1.46-1.43 1.46-2.38 2.92-2.82 4.87 1.43-1.46 3.31-4.87 5.24-5.36l5.81-1.94c-.94 1.46-2.38 2.43-3.82 3.89 4.39 0 2.9-1.46 8.79.49-1.45.97-4.36 1.46-6.3 1.95 2.45.48 2.94.48 6.36.97 7.32.49 8.94 8.27 17.15 4.38 3.84-2.43 7.24-2.92 11.6-4.38 3.87-.97 6.74-3.9 10.59-5.84l-17.77 12.17c3.39-.98 7.23-3.9 10.6-5.84 4.82-2.44 16.32-11.69 21.25-8.77 3.95 2.44 5.97 5.84 6.07 10.23-2.95-.98-5.97-5.85-9.87-5.85-1.95 0-8.67 4.87-9.13 6.33-3.33 3.9-1.78 7.79-3.65 11.68-4.68 8.77-22.61 13.63-32.37 13.15-7.31 0-15.25-6.82-20.68-10.23.54 2.44 6.03 8.77 7.05 10.71 4.5 5.36 10.57 16.07 13.14 22.39 17.41 39.43 21.12 53.55 28.82 94.92l4.85 21.9c1.05 3.9 5.69 15.58 7.7 18.5 1.02 2.43 1.54 3.89 2.57 6.33 1.01 1.95 2.01 2.92 3.04 5.35 1.03 2.92 1.53 3.41 4.47 4.38l5.44 3.41c3.45 1.95 9.8 2.92 14.19 2.92 11.69 0 13.13-.97 23.32-3.41 5.82-.97 9.08-8.27 10.89-14.6 2.74-8.76 5.99-16.55 7.73-26.28 3.1-14.61 4.74-29.21 7.35-43.81 3.87-24.34 9.94-59.87 21.18-81.29l13.7-20.44c-2.9.97-7.22 4.38-9.12 6.33-5.29 3.4-39.02-1.46-45.13-14.12-1.02-1.95-1.06-3.89-2.07-5.84-2.52-3.89-8.49-9.74-13.81-7.79-3.38 1.46-8.15 6.33-8.15 6.33h-.49c1.38-3.89 2.75-8.28 6.09-11.68 2.39-1.95 4.37-.49 6.83.48.99.98 1.48.98 2.95 1.46 1.48.49 9.86 5.36 15.26 7.31l11.83 6.32c-.99-.97-1.99-1.94-2.97-2.43l-23.2-14.12c3.89 0 4.42 1.95 7.38 3.41l3.45 1.95c.99.97 1.98 1.46 3.45 1.94 2.47 1.47 4.45 2.93 6.91 3.9 1.97.97 4.91 1.95 7.38 3.41l-.03-1.46c2.46 1.46 5.42 2.92 8.82 2.43 1.95 0-.95.97 0 0l3.86-1.95c1.91-1.46 3.34-2.92 6.26-3.4 1.94-.49 5.81-1.46 8.24-1.95h-4.38zm-47.03 11.19c.7 10.23-9.07 9.25-14.33 13.63l-1.42 1.95c-.5-.49-.49 0-.49 0l.5.49c.47-.49-.01-.49 1.44-.98 1.41-2.43 9.17-3.89 12.98-8.27 1.91-1.95 1.41-2.44 2.84-3.9 2.48 1.95 3.99 4.38 6.97 6.82 3.95 2.43 9.36 4.87 13.77 6.33.99.48 1.96.48 2.46.97l1.47.49c2.94.48 6.36.97 9.31 2.43.99.49.49 0 .99.49-1.93.97-4.32 2.92-6.25 3.89-2.41 1.46-4.35 1.95-6.75 3.41-1.93.97-2.39 2.43-5.76 4.38l-13.99 6.33-21.76 8.27c-12.58 3.9-37.1-3.41-49.88-8.76l-13.3-6.81c-.05-1.95-.52-1.46.92-2.44-4.41-.97-10.79-3.41-14.73-5.35.45-1.46-.51-.98 1.91-1.46l7.76-1.95c3.39-.97 6.31-.97 9.68-2.92 2.89-1.95 5.29-3.41 7.69-5.35 5.27-3.9 3.37-1.95 6.69-5.85l10.44 9.74c.99.49.49 0 1.48.49-3.02-4.38-9.44-8.28-11.02-14.12-1.09-5.35-.16-7.3 3.2-9.73.47-.98.95-.98 1.92-1.46 1.91-1.95 2.85-3.41 6.79-1.46 1.48.97 6.45 5.35 7.44 6.32 1.01 1.46 3.57 7.3 4.09 8.76-.03-1.46-1.01-1.46-1.61-6.81-1.3-15.58-5.12-11.68-8.19-18.5 1.41-2.43 3.33-3.89 6.22-5.35 5.3-2.92 14.57-2.43 19.01 0 2.46 1.46 4.45 3.41 5.48 5.84-1.39 3.41-4.29 4.38-5.65 9.25-1.85 4.87-.32 7.79-1.68 12.65 5.52-15.57 19.6-18.01 23.36-1.46zm-78.63-31.15 2.47 1.46c3.42.49 7.83 1.46 9.35 4.38-6.71 5.36-15.94 6.33-23.77 4.87-14.18-2.43-9.35-27.26 0-22.88 2.47 1.46 6.99 7.79 10.46 10.71 1 .97.5.49 1.49 1.46zm85.38 4.87c2.38-2.43 6.27-2.92 9.15-4.87 2.4-1.95 4.77-4.87 7.17-6.81 1.91-1.95 4.75-5.84 8.66-5.36 5.86.98 13.58 19.96-4.86 23.85-5.81 1.46-17.61-3.4-20.12-6.81z" fill="#270318"/><path d="m1932.15 12002.17c-3.81 4.38-6.12 10.23-8.96 14.12-.47.97-.96.97-1.91 1.95l-7.54 12.16c-1.41 2.44-4.3 3.9-6.13 9.74-.92 2.43-11.82 17.04-12.76 18.5-1.91 1.94-1.9 2.43-2.82 4.86-1.9 2.44-5.69 7.31-8.04 11.69-.47.48-1.41 2.43-1.44.97-1.92 1.46-.96.49-1.9 2.43-.94 1.46-.95.98-1.9 1.95-1.44 1.46-2.36 3.89-1.34 5.84 1.94-.49 6.17-7.79 7.11-9.25 2.32-5.35 7.53-12.65 10.83-18.01.96-.48 1.44-.97 1.9-1.94.94-1.95 1.88-3.41 3.31-4.87.47-.97.95-1.46 1.91-1.95l7.12-8.76c4.28-4.87 8.54-11.2 13.32-15.58l15.73-16.55c12.91-11.19 17.71-14.6 33.61-23.36 4.81-2.92 13.45-9.25 15.96-5.84 2.99 3.41 6.11 12.66 7.19 17.52 1.06 3.9 1.13 7.3 1.21 11.2l.56 3.41c2.92 0 .51.97 3.75-6.82 7.91-18.01 15.33-35.53 26.18-52.57l14.13-22.88c5.66-8.76 11.34-16.55 18.01-23.85-.53-1.94-4.53-6.81-6.04-9.24l-22.4-22.4-17.1 20.94c-1.43 1.46-1.9 2.43-3.33 3.89l-10.46 12.17c-4.27 5.84-10.96 11.68-14.28 16.06l-8.56 10.22c-1.42 1.95-.48 0-1.41 2.44 2.43-.49 3.39-.98 5.83-.98l-6.15 8.76c-4.72 7.31-7.58 10.23-12.31 17.04-6.15 8.28-9.39 16.55-17.97 25.8l-8.56 9.73c-.96.49-.95.98-1.92 1.46-1.43 1.46-1.9 2.44-3.82 3.41.46-.97.44-1.95 1.39-3.41z" fill="#4c303d"/><path d="m1627.13 11911.15c-.96.49-.5-.49-.95.97.01.49.51.98.51.98h-.49c-.48.48-.5-.49-.47.97.5.49 1.95 0 .01.49h.49c.03 1.46.02.97 1.01 1.46-.52-1.46-.02-.49-.52-1.46 2.94.97 11.94 11.68 14.44 14.6 9.04 12.66 17.05 22.88 25.14 36.51 3.03 5.35 25.29 43.8 26.39 49.65.04 1.94-.99-.49.5.97.51.97 3.04 5.35 3.56 6.81-.24-11.19-2.38-20.44.31-31.15 3.61-13.63 6.58-11.68 17.9-6.33 7.87 3.41 14.78 7.79 21.69 11.69 3.95 2.43 11.35 6.81 14.83 10.22 1.97.97 2.97 1.94 4.94 2.92 7.93 6.33 7.96 7.79 10.93 10.22 3.97 3.41 10.47 11.2 13.97 15.09 6 7.3 12.98 15.09 18.52 23.36l5.99 6.82c1.01 1.46.51.97 1.52 2.43 1.52 2.92 2.01 2.92 3.51 4.87 2.51 3.41 2.02 3.41 5.5 6.81l1.99 1.95c-.53-2.43-6.07-10.71-7.58-13.14-7.55-11.2-12.04-16.06-20.05-26.29l-9.01-11.19c-2-2.44-3.99-4.38-7-8.28l-13.04-17.52c-1.01-1.95-2.51-3.41-4.02-5.84-1.5-1.95-3-3.41-4.51-5.84-1.51-2.44-1.09-5.36-3.07-6.82-.95.98 1.46 0-.95.98-.51-.98-5.09-10.22-6.57-11.2 1.01 1.95 3.02 4.87 3.55 6.82l.55 2.92c-.01-.49-.01-.49-.01-.49-.49 0-.49 0-.49 0l-9.46-9.73c-1.49-1.46-1.99-1.95-3.47-2.92-6.48-6.82-12.94-12.66-18.93-19.47l-54.41-60.85-10.55-15.09c-4.25 6.33-19.86 28.23-22.17 34.56-.51-.97-.95.97-.03-1.46z" fill="#4c303d"/><path d="m1859.39 11949.12c.46-1.46.47-.98.92-2.44 3.28-6.32 4.08-14.6 5.98-17.03.59 4.87-1.7 11.68-4.53 16.06.01.49-.47.97-.94 1.95zm-47.73-21.91c.5.49.01.49.02.98.5.48.5.48.52 1.46.51.97 1.02 1.94 1.53 3.4 1.08 4.87 2.13 8.28 4.18 13.15 1.02 1.94 2.51 3.4 3.04 5.35-2.45-.49-3.46-2.43-4.49-4.87-3.5-4.38-9.58-15.09-5.78-19.95.98.48-.01-.49.98.48zm45.59 58.9-.03-1.46c-.02-.97 2.21-10.71 2.64-13.63.84-6.33.32-7.79 3.64-12.17 2.35-3.89 2.77-7.3 4.62-11.68 3.24-8.27 3.49-19.47-.59-27.74-2.53-4.38-4.98-5.36-11.29-3.9-9.19 2.92-14.46 7.3-18.21 14.12-3.45-1.46-3.59-8.28-15.86-12.66-10.32-3.89-14.15-.48-16.89 7.79-2.74 8.76-.64 16.06 2.43 22.88 1.53 3.4 3.1 8.27 4.6 10.22 1.03 2.43 3.92.97 5.06 8.76 1.95 0 .96-.49 2.44 0 .61 5.84 3.68 12.66 4.26 17.04l.47-.49c-.01-.49-.01-.49-.01-.49.47-.97 2.42-.97 3.4-.48l1.48.48c-.07-2.92-.1-4.38 4.32-2.92 2.46.98 2.98 2.92 4.47 3.9-1.09-5.36-.06-25.8-.21-32.62 2.07 5.36 1.98 24.34 2.14 31.64 3.38-1.46 7.65-6.81 10.22-.48.96-.49 2.87-2.44 4.86-.49 1.49 1.46.54 2.43 2.04 4.38z" fill="#f60000"/><path d="m1847.97 11824.02s-.48.49-.48.49l-.95.97c-2.36 3.9-3.8 4.87-7.15 7.79-7.67 5.84-8.01 12.66-19.96.49-1.98-1.46-2.99-2.92-4.01-4.87l-3.99-4.38-10.44-9.74c-3.32 3.9-1.42 1.95-6.69 5.85-2.4 1.94-4.8 3.4-7.69 5.35-3.37 1.95-6.29 1.95-9.68 2.92l-7.76 1.95c-2.42.48-1.46 0-1.91 1.46 3.94 1.94 10.32 4.38 14.73 5.35-1.44.98-.97.49-.92 2.44l13.3 6.81c12.78 5.35 37.3 12.66 49.88 8.76l21.76-8.27 13.99-6.33c3.37-1.95 3.83-3.41 5.76-4.38 2.4-1.46 4.34-1.95 6.75-3.41 1.93-.97 4.32-2.92 6.25-3.89-.5-.49 0 0-.99-.49-2.95-1.46-6.37-1.95-9.31-2.43l-1.47-.49c-.5-.49-1.47-.49-2.46-.97-4.41-1.46-9.82-3.9-13.77-6.33-2.98-2.44-4.49-4.87-6.97-6.82-1.43 1.46-.93 1.95-2.84 3.9-3.81 4.38-11.57 5.84-12.98 8.27z" fill="#dfe2e1"/><path d="m1952.61 11955.93 5.2-7.3c21.79-29.69 9.37-17.52 36.07-45.27l10.94-12.65c5.23-6.33 10.45-12.66 14.67-20.45l11.2-23.36-1.41 2.43c-3.42-.48-5.38-.97-9.25 0-3.87 1.46-4.37.98-7.81-.48-6.38-1.95-28.17-18.5-38.01-22.88-.43 2.43-1.85 4.38-2.75 7.79 7.41 4.87 10.86 6.81 18.28 12.17 2.98 2.43 13.47 14.6 13.03 17.03-.91 2.92-9.5 11.68-11.88 14.12-5.23 6.33-23.99 40.4-29.19 48.19-13.19 21.41-22.91 45.75-35.11 67.66-6.1 11.19-12.22 21.41-18.8 32.61-7.98 14.11-12.25 19.95-19.79 31.64-6.12 10.22-8.09 9.24-11.89 14.11-2.84 3.9-7.05 12.17-8.41 17.04-.86 5.35-12.51 30.18-13.82 37.48.91-2.92 6.52-14.12 8.38-18.5 4.66-9.73 8.82-20.44 14.47-29.69 2.33-5.35 2.77-7.3 6.59-11.2 2.38-2.43 5.69-7.3 7.58-10.22 3.72-8.27 8.95-14.6 13.17-22.39 4.72-7.3 8.95-14.6 13.17-22.39 3.74-7.3 8.44-15.57 12.18-22.88l25.33-46.24c-.44 1.95-1.36 4.87-2.28 7.3-1.38 3.9-2.79 6.33-1.79 7.31.47-.49.46-.98.94-1.46.96-.49.47-.98.99.48z" fill="#820024"/><path d="m1664.64 11887.79.5.48 14.43 14.12c2.49 2.43 4.97 4.38 7.46 6.81 9.95 9.74 19.88 18.5 28.39 29.21 2.02 3.41 3.53 5.84 6.03 8.76l-2.99-3.41 2.52 3.9s0 0 .49.48.5.49.5.49c-.01-.49-.01-.49-.52-1.46 2.53 4.38 7.54 10.71 10.54 14.6l10.56 15.09c1.48.98 6.06 10.22 6.57 11.2 2.41-.98 0 0 .95-.98-.56-3.4-3.57-7.78-5.11-11.19-6.58-11.68-3.58-8.28-12.13-20.44-7.53-10.71-26.21-41.38-31.3-51.6-8.12-15.09-29.4-30.67-31.91-34.07-4.55-7.79 21.27-31.15 22.03-41.38-5.8 2.44-14.4 10.23-19.68 14.12-10.06 8.27-8.58 9.25-25.64 8.76l.01.49c.05 2.43 10.69 21.41 12.75 26.77 2.04 4.38 3.05 5.84 5.55 9.25zm-4.01-5.36-.51-.97c.02.97.02.97.51.97z" fill="#820024"/><path d="m1935.36 11855.17c3.28-6.32 9.59-7.3 15.35-11.68 2.89-1.46 11.95-10.71 12.88-13.14-.42 3.41-9.49 12.17-11.89 14.12-4.79 3.89-11.05 7.3-16.34 10.7zm-11.42 12.66h2.92c.42-3.41 1.32-6.81 2.72-9.73.5.48.96-.49.06 2.92.03 1.46-.84 6.32-.32 7.78.51.98 2.93.49 4.39.49l20.16-14.6c5.76-3.9 4.32-2.92 7.59-9.74l10.19-24.82c3.2-10.22 7.35-21.42 12.01-31.15 1.41-2.44 2.83-4.38 3.28-6.33-12.65.97-16.87 8.76-22.55 16.55-3.34 3.41-6.69 6.33-9.04 10.22-1.9 2.43-4.62 12.17-2.61 15.09-.99-.97.49 0-1.47-.49-1.85 4.87-3.6 14.12-6.45 17.53-1.92 1.46-12.48 8.76-15.4 9.24.44-2.43 2.32-5.84 3.25-7.78 3.78-5.36 5.26-4.87 7.49-14.61.9-3.4.34-6.81 1.24-10.22 0 0 0 0-.49 0 .01.49.01.49.01.49l-5.63 10.22c-3.26 6.81-8.43 16.06-10.22 23.36-.88 4.39-2.22 10.23-2.12 15.09z" fill="#dfe2e1"/><path d="m1702.47 11833.27c-1-.97 1.49 1.46 0 0zm36.34 36.51c-1.03-2.92-5.04-8.28-6.57-11.2-3.53-5.84-4.01-5.35-10.39-7.79-6.41-3.4-15.35-11.19-18.88-17.03 5.45 4.38 8.47 8.76 15.37 12.65 1.97.98 4.92 1.95 5.92 3.41 4.95 3.41 10.44 9.74 13.47 14.6 1.53 3.41 1.05 3.9 5.92 3.41-.66-7.79-4.79-18.98-7.37-25.8-1.53-2.92-8.7-19.47-12.15-21.41-1.32 6.81-1.74 9.73 2.81 17.52 1.5 1.95 5.45 4.38 8.56 13.14-2.44 0-14.3-7.79-16.28-9.25-4.98-5.35-6.16-15.09-8.62-16.06h-.49c-.49 0-.49 0-.49 0 .89-4.38 2.89-1.95 1.31-7.3-.58-4.38.37-5.36-2.12-8.28-13.45-13.63-15.12-23.36-32.75-27.74l6.11 12.65c7.68 17.53 15.84 34.56 23.04 52.09 2.56 5.84 2.52 4.38 9.45 9.25 1.98 1.46 3.95 2.43 5.44 3.89 4.46 3.41 12.4 10.22 18.71 9.25z" fill="#dfe2e1"/><path d="m1780.95 11673.62c15.64 2.43 22.99 4.38 36.76 10.22 17.23 8.27 6.45 5.35 31.58-4.38 8.22-2.92 23.75-5.84 24.72-6.33-.11-4.87-15.75-7.3-20.15-7.79-12.71-1.94-40.48-1.94-53.11 0-5.33 1.46-18.93 3.41-19.8 8.28z" fill="#4c303d"/><path d="m1801.89 11810.88 5.85.49c.41-3.9.9-3.9-2.54-4.87 1.94-.49 1.93-.97 3.89-.49 10.75 1.46 15.01 18.5 23.29 18.01 4.87 0 9.58-7.79 11.45-11.19 1.9-2.44 3.34-3.41 6.22-5.36 3.36-2.43 4.85-1.46 8.28-.48h-1.95c.05 2.43-.89 3.89 1.08 4.86l-.03-1.46c1.96.98 3.4-.48 3.88-.48.48-.49-.01-.49.96-.98-3.76-16.55-17.84-14.11-23.36 1.46 1.36-4.86-.17-7.78 1.68-12.65 1.36-4.87 4.26-5.84 5.65-9.25-1.03-2.43-3.02-4.38-5.48-5.84-4.44-2.43-13.71-2.92-19.01 0-2.89 1.46-4.81 2.92-6.22 5.35 3.07 6.82 6.89 2.92 8.19 18.5.6 5.35 1.58 5.35 1.61 6.81-.52-1.46-3.08-7.3-4.09-8.76-.99-.97-5.96-5.35-7.44-6.32-3.94-1.95-4.88-.49-6.79 1.46-.97.48-1.45.48-1.92 1.46-3.36 2.43-4.29 4.38-3.2 9.73z" fill="#dfe2e1"/><path d="m1767.87 11838.14c1.5 1.95 7.43 5.84 9.42 7.79 2.48 1.94 6.47 6.32 10.39 7.3l2.37-2.92c2.45.48 4.98 4.86 6.01 7.3 1.03 2.92 1.63 8.27 3.14 10.22 1.36-4.38 1.76-8.76 6.12-9.73 1.49.97 2.47 1.46 3 3.4 1.02 1.95.55 2.92 2.04 4.38 3.37-1.94 5.68-7.78 9.8 2.44 3.39-.98 3.35-2.92 7.74-2.44 2.94.49 4.92 1.95 6.41 3.41 5.31-2.43 6.64-8.76 16.07-.49-.08-3.89 2.25-8.76 4.17-10.22 2.41-.97 3.43.98 4.43 1.95.48 0 1.97.97 1.97.97l1.52 2.92c.88-4.38 2.76-7.78 7.13-8.27 1 .97 1.52 2.43 2.51 3.41.91-2.92 2.73-9.25 5.13-10.71 1.96.48 1.49.97 3.46 1.94l1.92-.97h.49l2.39-2.43c2.86-2.92 10.02-9.74 13.38-12.17-2.92 0-25.59 11.19-29.93 13.14-6.27 2.92-26.09 10.71-33.39 10.71-15.11 0-37.71-8.76-51.48-14.6-4.41-1.46-11.82-5.84-16.21-6.33z" fill="#f60000"/><path d="m2030.69 11846.9-11.2 23.36c-4.22 7.79-9.44 14.12-14.67 20.45l-10.94 12.65c-26.7 27.75-14.28 15.58-36.07 45.27l-5.2 7.3c-.88 4.87-6.09 11.68-7.96 15.58-2.81 5.35-5.14 10.22-7.94 16.06-3.74 7.3-8.42 16.55-12.66 23.36-7.1 9.74-15.57 24.34-23.11 36.02-3.8 4.87-16.56 23.37-18.39 29.21.03 1.46.97-.49 1.44-.97 2.35-4.38 6.14-9.25 8.04-11.69.92-2.43.91-2.92 2.82-4.86.94-1.46 11.84-16.07 12.76-18.5 1.83-5.84 4.72-7.3 6.13-9.74l7.54-12.16c.95-.98 1.44-.98 1.91-1.95 2.84-3.89 5.15-9.74 8.96-14.12.92-2.43 2.35-3.89 3.76-6.32 3.78-5.36 7.04-12.66 10.82-18.5 5.18-8.28 12.82-15.58 15.08-23.85l-3.91-.49c.47-.97 1.87-3.89 2.82-4.87.46-1.46 1.88-3.4 2.83-4.38l10.91-14.11c1.41-2.44 3.29-5.84 4.71-7.79 4.75-5.84 14.83-13.14 18.1-19.47.94-1.95 4.29-4.87 6.2-6.33 5.23-6.33 6.17-7.79 10.91-14.11 1.89-2.92 3.31-4.87 5.21-7.31 4.71-7.78 16.83-33.58 19.06-43.32 1.38-3.89 2.8-5.84 3.72-8.27l-4.42-1.46c-2.91.49-.82 7.3-2.61 14.6-1.37 4.38-3.26 7.3-4.65 10.71z" fill="#f60000"/><path d="m1924.36 11726.67c-.48.49.01.49-.49 0l-.99-.48c.5.48.51.97 1.01 1.46-3.37 1.94-1.4 2.92-1.39 3.4l4.06 7.79c.04 1.95-.42 2.92.58 4.38l1.44-.97c3.83-3.41 9.66-4.38 12.53-6.82.35-6.32-1.21-11.19-2.79-16.55-2.6-7.78-2.12-8.27-6.61-13.14-3-3.4-6.97-6.81-9.95-9.73-2.47-1.46-9.89-6.82-12.35-7.79 1.02 1.95 1.51 2.43 3.02 4.38l5.49 6.33c3.47 2.92 2.49 2.43 3.99 4.38 2.49 2.43 5.45 4.38 4.59 9.73-.4 3.9-1.8 6.82-3.19 10.23l2.37-2.92c.04 1.94-.9 3.4-2.34 4.38 1.01 1.46 0 0 1.97.97-2.42.97 0 0-.95.97z" fill="#4c303d"/><path d="m1667.2 11778.76c26.33.48 32.87 10.22 44.43 26.77l8.54 12.17c1 1.46.51.97 1.98 1.46-1.59-5.85-2.67-11.2-4.75-17.04-2.62-8.76-2.63-9.25-2.35-18.98-18.18-7.31-22.08-7.31-41.53-5.36-3.9 0-3.9 0-5.84.49z" fill="#dfe2e1"/><path d="m1947.49 11783.62c.14 6.82.27 12.66-1.07 18.5-1.35 5.35-3.18 10.71-3.05 17.04.48-.49 0 0 .47-.98l3.26-6.81c.95-1.46 1.91-1.95 2.87-2.92 13.27-17.53 12.05-29.21 47.13-29.21-.5-.48 0 0-.99-.48l-5.37-.49c-1.96-.49-4.39-.49-6.35-.98-12.7-1.46-26.82-.97-36.9 6.33z" fill="#dfe2e1"/><path d="m1807.74 11811.37c-.46.97-.95.97-1.91 1.46 1.52 2.92 3.01 4.38 6.93 5.35 3.91.49 5.41 2.44 7.89 4.38 3.95 2.44 3.93 1.46 5.98 6.33 4.11 9.74 8.39 4.87 12.66-.49l9.58-7.78c1.44-.98 2.89-1.46 4.83-1.95 1.44-.97 4.34-2.44 4.78-4.38.91-2.92-.04-1.95-1.02-2.44-1.97-.97-1.03-2.43-1.08-4.86h1.95c-3.43-.98-4.92-1.95-8.28.48-2.88 1.95-4.32 2.92-6.22 5.36-1.87 3.4-6.58 11.19-11.45 11.19-8.28.49-12.54-16.55-23.29-18.01-1.96-.48-1.95 0-3.89.49 3.44.97 2.95.97 2.54 4.87z" fill="#270318"/><path d="m1733.23 11744.2-.09-4.38c.41-3.41-.05-1.95 1.82-5.85l3.29-5.84c.93-1.94-.05-2.43-.55-2.92l.05 2.44c.93-1.95.48-.49-.03-1.46-1.49-1.46-.95.97-3.52-5.36-1.05-3.41-2.07-5.35-2.63-8.76-1.06-4.38.87-4.87 2.27-7.79 6.16-8.27 3.33-3.89 2.81-5.35 1.94-.49.5.48 2.43-.49l-1.47-.49c1.44-.97.94-1.46 2.86-2.92-1-.97 0 0-2.41 1.46-15.86 10.23-13.78 16.55-17.83 32.13-.1-4.87.79-8.76-.29-13.63-1.34 5.84-1.15 14.6-1.5 20.93l7.39 3.9c2.45.97 4.42 1.94 6.9 3.89.01.49.5.49.5.49z" fill="#4c303d"/><path d="m1883.24 11970.53c-1.36 4.87-10.64 26.78-13.48 31.16-4.69 8.27-18.22 13.63-31.87 13.63-9.25 0-19.56-3.41-26.02-9.25-2.48-1.95-3.96-2.92-5.96-5.36-5.5-6.81-9.17-18.98-13.26-27.74-.01-.49-.51-1.46-.52-1.95-1.51-1.95-.51-.97-1.5-1.46-.41 3.41 4.2 14.12 5.74 18.01 5.62 12.17 12.23 24.83 25.5 30.18 1.95.49 2.94.97 4.41 1.46 4.42 1.46 17.56.97 22.91.49.49 0 2.43-.49 2.92-.49l6.28-2.43c12.08-4.87 16.21-17.04 19.87-28.24z" fill="#270318"/><path d="m1804.71 11967.13c-3.38 1.46-2.39 1.94-.85 5.84l5.16 13.63c.51.97 1.51 1.94 1.54 3.4 2.61 8.28 2.08 6.33 11.46 12.17 8.38 4.38 24.42 2.44 33.15.49 11.64-2.43 11.03-8.27 12.84-14.6 2.25-8.76 5.55-14.12 5.39-21.91-1.44.98-5.16 9.74-6.09 11.69-1.85 4.86-2.75 8.27-5.1 12.16-5.63 10.23-10.46 12.17-22.15 12.66-7.78.49-9.74 0-13.72-3.89-4.47-3.9-5.44-3.41-8.48-9.25-1.51-1.95-2.5-2.92-3.53-5.36-1.01-1.94-1.54-3.89-2.57-6.32l-5.05-8.28c-.01-.49-.51-.97-1-1.46-1.01-1.46-.01-.49-1-.97z" fill="#f60000"/><path d="m1862.27 11808.93c-.97.49-.48.49-.96.98-.48 0-1.92 1.46-3.88.48l.03 1.46c.98.49 1.93-.48 1.02 2.44-.44 1.94-3.34 3.41-4.78 4.38-1.94.49-3.39.97-4.83 1.95l-9.58 7.78c-4.27 5.36-8.55 10.23-12.66.49-2.05-4.87-2.03-3.89-5.98-6.33-2.48-1.94-3.98-3.89-7.89-4.38-3.92-.97-5.41-2.43-6.93-5.35.96-.49 1.45-.49 1.91-1.46l-5.85-.49c1.58 5.84 8 9.74 11.02 14.12-.99-.49-.49 0-1.48-.49l3.99 4.38c1.02 1.95 2.03 3.41 4.01 4.87 11.95 12.17 12.29 5.35 19.96-.49 3.35-2.92 4.79-3.89 7.15-7.79l.95-.97s.48-.49.48-.49c-1.45.49-.97.49-1.44.98l-.5-.49s-.01-.49.49 0l1.42-1.95c5.26-4.38 15.03-3.4 14.33-13.63z" fill="#a6908a"/><path d="m1835.47 11878.05c.59 4.87-.16 15.58 5.7 16.06 12.69.98 11.65-25.31 3.81-27.25-5.38-.98-10.6 5.84-9.51 11.19z" fill="#dfe2e1"/><g fill="#f60000"><path d="m1877.31 11783.14c-1.1-5.85 9.57-8.28 9.72-1.46-.43 2.92-1.35 5.35-4.27 5.35-2.44 0-5.4-1.46-5.45-3.89zm16.53-1.95c-2.51-3.41-3.13-9.74 1.76-8.76 3.43.97 4.07 7.79-1.76 8.76zm-24.82 1.46c2.51 3.41 14.31 8.27 20.12 6.81 18.44-3.89 10.72-22.87 4.86-23.85-3.91-.48-6.75 3.41-8.66 5.36-2.4 1.94-4.77 4.86-7.17 6.81-2.88 1.95-6.77 2.44-9.15 4.87z"/><path d="m1769.14 11783.14c-3.94-1.95-4.13-10.71-.23-10.71 1.95 0 3.47 2.92 3.04 5.35-.43 2.92-.98 0-2.81 5.36zm16.97-3.9c1.51 2.44 2.02 3.41.12 5.84-1.43 1.46-4.33 2.44-6.8.98-2.96-1.95-4.6-10.23 4.21-8.28-.99-.97-.49-.49-1.49-1.46-3.47-2.92-7.99-9.25-10.46-10.71-9.35-4.38-14.18 20.45 0 22.88 7.83 1.46 17.06.49 23.77-4.87-1.52-2.92-5.93-3.89-9.35-4.38z"/><path d="m1721.97 11948.63s-.5-.49-.5-.49c-.49-.48-.49-.48-.49-.48l-2.52-3.9-5.52-7.3c-2.99-3.41-9.98-11.19-13.45-14.11-5.97-5.36-33.31-31.16-34.35-34.08l-.5-.48c-1.48-.98-2.99-3.41-4.01-5.36-.49 0-.49 0-.51-.97-5.07-9.74-10.66-20.44-15.74-30.18-4.55-7.79-10.06-14.6-11.22-23.36-.06-2.92.41-3.9-2.03-3.9-1.96-.48-4.38 0-1.44.98.13 6.32.62 6.32 3.16 11.19 1.54 3.41 3.07 6.82 5.07 9.25 3.05 5.84 7.06 11.2 10.6 17.52 3.06 6.33 11.19 21.91 15.68 26.77l34.86 35.54c9.46 9.73 11.47 12.17 19.97 22.39 2.02 3.4 3.54 6.33 6.51 8.27-.53-1.94-.01-.48-.54-2.43z"/></g><path d="m1820.96 11882.92c.6 5.35 2.69 12.17 9.48 10.71 4.86-.49 4.66-10.22 4.55-15.09.16-15.58-16.38-14.12-14.03 4.38z" fill="#dfe2e1"/><path d="m1732.65 11762.69 1.37-4.38c-.07-2.92-1.05-3.41-1.54-3.41 0 0 0 0-.01-.48l1.45-.49c-.53-1.95-.07-3.41-.11-5.35 0 0 .94-1.46-1.94.48-1.54-3.89-2.53-4.38-5.97-5.84-3.45-1.94-5.44-3.89-7.41-4.87.07 3.41 1.15 8.28.7 10.23-.4 3.89-.62 16.55 1.88 19.47 1.48.97 4.46 3.89 6.43 4.86-.1-4.86-.67-8.76-1.74-13.14l-1.06-4.38s2.56 5.84 3.06 6.82c1.51 1.94 2.53 4.38 4.04 6.32-.56-3.4.39-4.38-.64-6.81-3.05-6.33-4.94-3.41-7.5-9.25-1.54-3.41-2.51-3.41-3.53-5.35l11.42 9.73c2 2.44.54 2.44 1.1 5.84zm-.83 6.82c.96-.49 1.44-.98.93-1.95-.49 0-.5-.49-.95.97 0 0 .01.49.02.98z" fill="#4c303d"/><path d="m1834.52 12085.89h2.43c.99.49 1.97.98 2.95.98 5.4 1.94 13.69 2.43 19.54 2.43.92-2.43.86-5.35 1.3-7.79.37-5.35 2.29-6.81 1.29-7.78-.47.48-.47.48-.47.48-8.63 6.82-17.42 5.84-30.14 3.41.53 1.95 2.09 6.81 3.1 8.27z" fill="#75686b"/><g fill="#dfe2e1"><path d="m1855.2 11889.25c5.84-.49 7.15-7.3 6.52-14.12-.06-2.92-.62-6.33-1.17-9.25-1.04-2.92-2.05-4.86-5.46-4.86-4.25 6.32-3.91 22.39.11 28.23z"/><path d="m1795.22 11887.3.48-.49c.48-.48 0 0 .47-.97 4.65-10.22-1.14-30.67-5.09-33.1-2.9.97-2.38 2.92-1.76 8.76.55 2.92.62 6.33 1.17 9.25s.62 6.33 1.64 8.76c.57 3.9 1.58 5.36 3.09 7.79z"/><path d="m1804.4 11860.53c-5.67 8.27-4.94 19.96 1.07 27.26 3.89 0 4.36-.98 4.28-4.87-.06-2.92-.13-5.84-.67-8.76-.11-4.87-.27-12.66-4.68-13.63z"/><path d="m1875.12 11886.33c2.32-5.36 3.71-8.76 4.54-15.58.41-3.41.35-6.33.28-9.73-.09-4.38.33-7.31-1.18-9.74-2.44 0-2.87 2.43-4.25 6.33-.42 3.41-.83 6.81-1.26 9.73-.84 6.33-1.28 8.77.31 14.61.01.48.53 1.94.54 2.43z"/><path d="m1817.7 11890.22c4.69-8.76 2.43-23.36-2.01-25.8-6.29 1.95-6.8 23.85 2.01 25.8z"/><path d="m1866.35 11886.81c4.85-1.46 4.49-18.49 3.9-22.87-.6-5.36-.14-6.82-2.54-5.36-2.41 1.46-4.67 9.74-4.6 13.14.05 2.44.61 5.85.67 8.77.06 2.43.6 5.35 2.57 6.32z"/><path d="m1847.89 11981.24c-3.89.49-5.3 2.92-5.69 7.3-.45 1.95-.41 3.9-.35 6.33.02.98.05 2.44.07 3.41l1.01 1.95 7.3-.49c.44-2.43-1.29-15.09-2.34-18.5z"/><path d="m1832.31 11981.73c-.89 3.89-.28 9.73-.19 14.12-.41 3.4-1.37 4.38 1.57 4.86 1.96.49 4.88.49 6.33 0 .44-2.43-.66-8.27-1.22-11.68-.54-2.43-2.6-7.79-6.49-7.3z"/></g><path d="m1927.87 11754.42c1.96.48.47-.49 1.47.48-.95.98-1.9 2.44-1.86 4.39l1.06 3.89c.52 1.46-.49 0 1 .97-.54-2.43-1.01-1.46-.56-3.4.43-2.44-.01-.49-.01-.49l.01.49c-.07-2.93.9-3.41 1.84-4.87-.94 1.46-1.45.48-1.45.48l.95-.97c.95-1.46.93-2.43 2.85-3.89 1.43-1.46.95-.98 2.88-1.95-.44 2.43.02.97-.92 2.43-.47.98-.97.49-.97.49-.49 0-1.92 1.46-1.92 1.46s-.01-.49 1.44-.97c.07 2.92-1.44.97-.41 3.4.94-1.46 3.34-3.4 4.27-5.35.95-.97.93-1.95 1.89-2.92 2.84-3.89 2.47 1.46 2.21-10.71-2.43.49-5.29 3.41-6.72 4.87-1.91 1.95-4.81 2.92-6.24 4.38 1.44-.97 2.87-2.43 4.82-2.43-1.39 3.4-5.29 3.4-5.24 5.84l.53 1.94 1.88-3.4c.94-1.46.93-1.95 2.36-3.41-.39 4.38-1.32 6.81-4.2 8.76zm-.6-5.36c-.47.98-.02-.97.04 1.95-.42 3.41-.55-2.92.02.97l.02.98.46-1.46c-.02-.98-.04-1.46-.54-2.44z" fill="#4c303d"/><path d="m2052.2 11826.94-.5-.48s-.5-.49-.5-.49 0 0-.01-.49c-6.01-7.78-27.22-19.95-36.01-20.93 1.98 1.46 6.43 4.38 8.89 5.84l26.16 15.58s0 0 .5.49l.98.48z" fill="#f60000"/><path d="m1864.42 11979.3c2.76-7.79 7.54-12.17 6.95-17.04-9.87-5.84-9.65 4.87-9.03 11.2l1.56 4.38c.53 1.94.02.97.52 1.46z" fill="#dfe2e1"/><path d="m1726.46 11792.87c4.72-7.3 5.02-16.06-5.32-21.42 1.04 3.41.18 8.77 1.23 12.17 1.05 3.41 4.05 7.3 4.09 9.25z" fill="#4c303d"/><path d="m1806.11 11964.21c1.06 3.89 5.6 11.19 7.63 15.09 1.88-3.41 3.08-15.58-.86-17.53-2.95-1.46-5.35.49-6.77 2.44z" fill="#dfe2e1"/><path d="m1934.03 11769.51s1.93-.98.49 0-.95.97-.49 0zm1.32-6.82c.03 1.46.03 1.46-.92 2.44.43-2.44.45-1.95.92-2.44zm-2.81 5.36 1.89-2.92-.85 5.84c8.7-3.41 7.45-16.07 6.83-22.39-1.29 7.78-9.11 6.81-7.87 19.47z" fill="#4c303d"/><path d="m1622.91 11826.94c1.93-.97 7.23-3.89 8.16-5.84 5.24-5.84.94-1.46 7.16-6.81 4.31-3.9 12.01-8.28 16.32-11.68-7.76 1.46-20.22 11.19-25.48 16.06-.94 1.46-1.9 2.43-3.34 3.41-2.37 2.92-2.39 1.94-2.82 4.86z" fill="#f60000"/><path d="m1866.44 12028.94c-19.17-8.27-32.8-7.3-52.13 0 15.52-3.4 24.73-5.35 39.91-1.94 2.45.48 10.29 2.43 12.22 1.94z" fill="#270318"/><g fill="#dfe2e1"><path d="m1786.11 11779.24-2.47-1.46c-8.81-1.95-7.17 6.33-4.21 8.28 2.47 1.46 5.37.48 6.8-.98 1.9-2.43 1.39-3.4-.12-5.84z"/><path d="m1877.31 11783.14c.05 2.43 3.01 3.89 5.45 3.89 2.92 0 3.84-2.43 4.27-5.35-.15-6.82-10.82-4.39-9.72 1.46z"/><path d="m1817.93 11970.05c-.49 0-.48.48-.48.48l-.44 1.95c-.93 2.44-1.83 5.84-1.28 8.76.06 2.92 3.09 7.79 5.56 9.25 1.32-6.33-1.78-15.09-3.38-21.42z"/><path d="m1729.71 11877.08c1.04 2.92 1.22 11.68 2.28 15.57 0 0 .51.98.51.98.51.97.51.97.52 1.46.89-3.9 3.56-15.58 3.5-18.5h-4.38c-.97.49.48 0-.97.49-.48 0-1.46 0-1.46 0z"/><path d="m1820.95 11951.55c-.53-1.95-2.02-3.41-3.04-5.35-2.05-4.87-3.1-8.28-4.18-13.15-.51-1.46-1.02-2.43-1.53-3.4-.02-.98-.02-.98-.52-1.46-.01-.49.48-.49-.02-.98-.99-.97 0 0-.98-.48-3.8 4.86 2.28 15.57 5.78 19.95 1.03 2.44 2.04 4.38 4.49 4.87z"/><path d="m1822.32 11993.41c1.02 1.95 4.5 5.36 7.44 5.84-.04-1.94-1.26-13.14-2.77-15.57-2.9.97-1.92 1.46-2.82 4.86-.94 1.46-1.4 2.92-1.85 4.87z"/><path d="m1932.41 11876.59c.07 3.41 1.11 6.33 2.14 9.25.56 3.41 1.12 6.81 2.16 9.74l2.02-19.47-1.47-.49c-.97.49 0 0-.97.49-.48 0-.97 0-1.46 0-1.45.48-.97 0-2.42.48z"/></g><path d="m1734.28 11816.72 12.55 17.52c4.02 5.85 7.09 12.66 11.11 18.5-2.61-8.27-17.31-35.04-23.66-36.02z" fill="#270318"/><path d="m1743.53 11724.24c3.39-.97 7.17-6.33 16.45-5.36 3.42.49 5.38.98 8.82 2.44 1.47.49 2.93 0 3.91.49.97 0 2.93.48 3.92.97-6.47-6.33-19.66-7.79-26.88-3.9-2.41 1.47-5.3 2.93-6.22 5.36z" fill="#6f4c51"/><path d="m1729.71 11877.08h1.46c1.45-.49 0 0 .97-.49l-2.45-.48c.5.48 9.26 0 9.26 0 .46-1.47.46-1.47.41-3.41-2.45-.98-3.44-1.46-5.86-.98-3.89.49.98.49-.97.49 0 0-5.4-1.95-5.76 3.9z" fill="#6f4c51"/><path d="m1853.29 11983.19c-.95.97-.98-.49-1.38 3.89.02.98.04 1.95.08 3.41.05 2.44.59 4.87.64 7.3 3.39-.97 3.85-1.94 5.26-4.38-.03-1.46-4.59-9.73-4.6-10.22z" fill="#dfe2e1"/><path d="m1857.22 11984.65.03 1.46c.53 1.95 1.04 2.92 1.56 4.38 2.88-1.95 5.67-8.27 3.1-14.6l-1.01-1.46c.05 2.43-2.26 8.27-3.68 10.22z" fill="#dfe2e1"/><path d="m1935.36 11855.17c5.29-3.4 11.55-6.81 16.34-10.7 2.4-1.95 11.47-10.71 11.89-14.12-.93 2.43-9.99 11.68-12.88 13.14-5.76 4.38-12.07 5.36-15.35 11.68z" fill="#270318"/><g fill="#dfe2e1"><path d="m1769.14 11783.14c1.83-5.36 2.38-2.44 2.81-5.36.43-2.43-1.09-5.35-3.04-5.35-3.9 0-3.71 8.76.23 10.71z"/><path d="m1893.84 11781.19c5.83-.97 5.19-7.79 1.76-8.76-4.89-.98-4.27 5.35-1.76 8.76z"/><path d="m1804.58 11960.8c1.46 0 2.91-.49 3.88-.97 1.44-.98.95-.98.42-2.92-.55-2.92-1.09-5.36-2.1-7.31-.48.49 0 0-.96.98l-1.38 3.89c-.9 3.41-.9 3.41.14 6.33z"/></g><path d="m1914.51 11721.81c-5.46-4.39-8.38-4.39-16.18-4.39-6.33 0-9.24.49-15.51 3.9 3.88-.97 6.29-2.44 10.17-2.92l-1.44.97c-.95.98-2.89 1.46-3.35 2.92 2.4-1.94 8.7-3.41 13.09-3.41 6.81-.48 8.3.98 13.22 2.93z" fill="#8d6f6c"/><path d="m1802.54 11956.42c1.45-.49.49.49 1.41-2.43l.45-1.47c2.28-7.3-1.21-11.19-.79-14.6-.48.49-.49 0-.96.98 0 0 .01.48-.47.97.02.49.03.97.05 1.95z" fill="#dfe2e1"/><path d="m1934.53 11792.87c2.34-4.38 3.75-6.81 4.12-12.65-1.9 2.43-3.34 3.4-4.76 5.35-2.39 2.43-1.36 4.87.64 7.3z" fill="#4c303d"/><path d="m1932.41 11876.59c1.45-.48.97 0 2.42-.48h1.46c.97-.49 0 0 .97-.49l4.36-.98c-.5-.97-.52-1.94-2.48-2.43-2.46-.97-5.85 0-7.78.97.03 1.46-.46 1.46.55 2.93z" fill="#6f4c51"/><path d="m1923.94 11867.83c.5.49 1.48.97 2.94.97.98 0 .49 0 1.44-.97.55 2.92 1.46 0 2.01 2.92 0 0-1.95 0-2.43 0-3.9 0-1-.97-1.92 1.46 1.48.97 1.97.97 3.92.97.47-.97 1.42-1.94 1.41-2.43l2.4-1.46c-1.46 0-3.88.49-4.39-.49-.52-1.46.35-6.32.32-7.78.9-3.41.44-2.44-.06-2.92-1.4 2.92-2.3 6.32-2.72 9.73z" fill="#c6b8b8"/><path d="m1869.61 11948.63c-.94 1.46-2.75 7.79-2.71 9.74l4.88.48c-.04-1.94-.07-3.4-.61-5.84l-1.05-3.41c-.02-.97-.51-.97-.51-.97z" fill="#dfe2e1"/><path d="m1859.39 11949.12 1.43-1.46c.47-.98.95-1.46.94-1.95 2.83-4.38 5.12-11.19 4.53-16.06-1.9 2.43-2.7 10.71-5.98 17.03-.45 1.46-.46.98-.92 2.44z" fill="#dfe2e1"/><path d="m1940.85 11792.38-.65-7.78c-1.43 1.46-1.84 4.86-3.22 8.76-.95 1.46-.91 3.4 1.01 1.94 0 0 2.86-2.92 2.86-2.92z" fill="#4c303d"/><path d="m1961.81 11953.5c.96-.98 1.35-5.36 4.73-6.82-3.87 1.46-2.39 1.95-5.31 2.44.91-2.92.94-1.95 2.32-5.36-.95.98-2.37 2.92-2.83 4.38-.95.98-2.35 3.9-2.82 4.87z" fill="#702e3a"/><path d="m1909.3 11797.74c-.02-.49-.5-.49-.5-.49l-1-.97c5.81-1.95 1.45-.49 6.32-.98-1-.97-.99-.48-1.98-1.46-1.98-1.46-.53-1.94-.53-1.94.5.48 0 0 .99.97 0 0 .99.49.99.49.5.48.99.97 1.49 1.46 1 .97 1.99 1.94 2.99 2.92-.53-1.95-1.05-3.41-2.53-4.38-3.01-3.9-2.98-2.44-1.54-3.41-.02-.97-.02-.97-.98-.49-.96.98.01.49-.49 0h-.97s0 0 .01.49l.98.49c.5.48.5.48 1.48.97l1.51 1.95c.5.97 0 0 .52 1.46l-1-.98c-1-.97-3.46-2.43-5.42-2.92.53 1.95 1.51 2.44 2.52 3.9-3.41 0-4.88 0-6.78 1.94z" fill="#c6b8b8"/><path d="m1871.51 11946.2c1.03 2.43.62 6.32.67 8.76-.01-.49.49 0 .47-.97 0 0 .48-.49.48-.49.42-2.92-.76-12.66-.83-16.06-.46 1.46-.01-.49-.46 1.46l-.42 2.92c.04 1.94.05 2.43-.41 3.89 0 0 .01.49.5.49z" fill="#dfe2e1"/><rect fill="none" height="1474.27" rx="95.91" ry="273.01" stroke="#666" stroke-miterlimit="22.9256" stroke-width="26.45" width="824.82" x="1444.56" y="10730.83"/><path d="m1667.97 10982.9c11.7 64.74 34.44 118.04 63.86 176.18 21.07 41.64 48.21 89.68 48.21 137.46 0 88.23-35.67 180.96-138.15 180.96-102.47 0-138.14-92.73-138.14-180.96 0-47.78 27.14-95.81 48.21-137.46 29.41-58.14 52.15-111.44 63.85-176.18l26.08-144.33z" fill="#fefe1e"/><path d="m1641.89 10987.61c27.91 154.47 111.65 231.7 111.65 308.93s-27.91 154.46-111.65 154.46c-83.73 0-111.64-77.23-111.64-154.46s83.73-154.46 111.64-308.93z" fill="#300"/><path d="m1557.7 1143.96h8568.6" fill="none" stroke="#dddad6" stroke-linecap="round" stroke-miterlimit="22.9256" stroke-width="67.73"/></svg>