<svg clip-rule="evenodd" fill-rule="evenodd" height="128.5mm" image-rendering="optimizeQuality" shape-rendering="geometricPrecision" text-rendering="geometricPrecision" viewBox="0 0 11684 12850" width="116.84mm" xmlns="http://www.w3.org/2000/svg"><g fill="#1a1a1a"><path d="m7782.71 10158.77c0-43.45 34.76-78.21 60.83-95.59 26.07 8.69 43.45 17.38 60.83 34.76 60.83 43.45 147.73 121.65 191.18 182.48 60.82 112.97 26.06 52.14 78.2 112.97s52.14 43.45 34.76 52.14c-60.83-52.14-78.21-69.52-139.03-86.9-43.45-17.38-78.21-43.45-112.97-60.83-26.07 0-26.07 0-43.45-8.69 8.69-26.07 8.69-26.07 17.38-43.45 26.07 8.69 60.83 17.38 86.9 34.76 34.76 8.69 52.14 34.76 78.21 43.45-26.07-43.45-60.83-69.52-112.97-95.59-78.21-26.07-26.07-78.2-112.97-86.89 17.38 26.07 43.45 34.75 43.45 78.2 0 52.14-130.35-8.69-130.35-60.82zm321.53 191.17c-17.38 17.38 8.69 8.69 8.69 8.69 26.06 8.69 0-17.38-8.69-8.69zm-868.98-26.07c0-60.83 17.38-86.9 60.83-104.28 52.14 43.45 95.59 156.42 95.59 234.63 0 0-156.42-95.59-156.42-130.35zm-1129.67 0c69.52-17.38 651.73-8.69 738.63 0 52.14 8.69 121.66-8.69 165.11 17.38-95.59 26.07-330.21 17.38-443.18 17.38-191.18 0-356.28-17.38-547.46-17.38 17.38-26.07 34.76-17.38 86.9-17.38zm-2076.85-34.76c60.83-86.9 26.07-69.52 156.42-199.86 78.2-86.9 43.45-69.52 130.34-104.28 34.76-26.07 26.07-26.07 69.52-8.69 112.97 34.76 104.28 60.83 147.73 86.9-8.69 26.07 0 112.96-112.97 112.96 17.38-43.44-17.38-165.1-104.28-182.48 17.38 26.07 34.76 60.83 43.45 86.9-34.76 52.14-112.96 69.52-165.1 104.27zm86.9-26.07c43.45-26.07 78.21-60.83 130.35-78.21l69.51-34.75c26.07-17.38 34.76-34.76 60.83-43.45 0 86.89-69.52 60.83-112.97 86.89-43.44 17.38-26.06 17.38-69.51 43.45zm-651.73-8.69c-60.83 0-95.59-8.69-147.73-8.69 0-26.07 43.45-17.38 78.21-17.38 60.83 0 43.45 0 69.52 26.07zm4788.05-43.45c17.38-26.07 0-8.69 43.45-17.38 112.97-17.38 69.52 8.69 130.35 0 121.65-17.38 69.51 0 121.65 0v8.69c-60.83 0-95.58 8.69-147.72 8.69s-95.59 0-147.73 0zm-2719.89 52.14c-34.76 0-52.14 8.69-86.9 8.69h-599.59l964.56-34.76c-34.76-26.07-112.97-26.07-156.41-26.07-43.45 0-52.14-8.69-86.9-8.69l-434.49-8.69c86.9 0 139.04-17.38 217.24 0l443.18 8.69c139.04 0 938.49-17.38 981.94 0h17.38l60.83 34.76h-139.04c8.69-43.45 8.69-8.69 0-26.07-17.37 0-43.44 0-60.82 0-52.14 8.69 8.69 0-26.07 8.69-43.45 26.07-60.83 0-86.9-8.69-8.69 17.38 17.38 0 0 17.38-26.07 17.38-69.52 0-104.28 0l-182.48 8.69c17.38 17.38-8.69 8.69 69.52 26.07 26.07 8.69 43.44 8.69 78.2 8.69v8.69c-78.2 0-130.34 8.69-191.17 0l-391.04-8.69c-112.97 0-182.48 0-286.76-8.69zm1034.08-43.45h43.45v-8.69h-43.45zm590.9 17.38c0-78.2 156.42-191.17 252.01-69.51 43.44 69.51 52.13 191.17 26.06 269.38l-17.38 34.76v8.69c0-121.66-26.06-147.73-78.2-243.32-60.83-104.27-121.66-8.69-147.73 86.9-26.07-17.38-34.76-43.45-34.76-86.9zm451.87-52.14c0-34.75 8.69-26.06 8.69-60.82h17.38c8.69 43.45 34.76 60.82-26.07 60.82zm-2841.55-69.51 43.45 43.45c-17.38 8.69-17.38 8.69-43.45 8.69zm-1216.56 43.45c8.68-121.66 156.41-217.25 304.14-217.25 0 60.83 0 34.76-26.07 69.52l-26.07 26.07c34.76 0 34.76-8.69 43.45 17.38 26.07 43.45-139.04 60.83-173.8 78.21l-60.83 17.38c17.38-17.38 26.07-26.07 43.45-34.76 34.76-34.76 95.59-60.83 147.73-69.52-8.69-8.69-8.69-17.38-17.38-26.07l-8.69-17.38c0-8.69 0-8.69 0-8.69 0 52.14-8.69 52.14-43.45 60.83-130.35 34.76-139.04 95.59-182.48 104.28zm973.25 8.69c0-17.38 8.69-34.76 17.38-43.45 0-17.38 0-8.69 8.69-17.38 0-17.38 0-8.69 8.69-17.38 8.69 43.45 26.07 78.21-34.76 78.21zm1512.01-43.45c86.9-17.38 373.66-8.69 451.87 8.69h121.66c104.27 0 78.21-8.69 95.59 17.38-182.49 17.38-121.66 8.69-295.46 0h-312.83c-69.52 0-112.96-8.69-191.17-8.69 26.07-34.76 34.76-8.69 130.34-17.38zm-660.42 8.69h130.35c52.14 0 69.52 8.69 112.97 8.69 69.51 0 191.17-17.38 243.31-8.69 17.38 8.69 17.38 17.38 43.45 26.07 60.83 8.69 364.97 8.69 425.8 8.69l-912.43 8.68zm-677.8-26.07s8.69-17.38 8.69-26.07h26.07c8.69 43.45 0 26.07 0 86.9-17.38-8.69-34.76-8.69-34.76-60.83zm1572.85-26.07c43.45 0 34.76-8.69 78.21-8.69h86.89c34.76 0 34.76-8.69 78.21-8.69l182.49 17.38c-34.76 0-52.14 8.69-104.28 8.69zm1381.67 8.69c0-78.21 86.9-147.73 165.1-34.76-26.07 43.45-69.51 43.45-130.34 60.83 17.38 43.45 0-8.69 17.38 26.07 17.38 17.38 8.69 0 17.38 26.07-34.76 0-34.76 0-52.14-26.07-8.69-8.69-17.38-34.76-17.38-52.14zm-703.87 52.14c0-26.07 34.76-104.28 52.14-121.66 26.07-52.14 34.76-69.52 95.58-78.21 69.52-17.38 156.42 8.69 199.87 69.52l8.69 52.14c-104.28 0-156.42 34.76-217.25 121.65-34.75-26.06-34.75-26.06-86.89-26.06-26.07 95.58 26.07 26.06 43.45 86.89-78.21 17.38-95.59-34.76-95.59-104.27zm1355.6-52.14c-34.76 0-60.83-8.69-78.21-8.69l-199.86 8.69c-26.07 0-234.63-199.87 121.65-69.52 34.76 8.69 139.04 43.45 156.42 69.52zm-695.18-147.73c17.38-8.69 17.38 0 52.14 0v8.69c-26.07 0-69.52 17.38-95.59 26.07l-34.76-34.76zm-3041.41 95.59c-26.07 0-8.69-26.07-60.83-60.83-26.07-17.38-43.45-17.38-69.52-43.45 52.14 0 182.48-26.07 182.48 139.04zm2928.44-208.56c208.56 0 60.83-43.44 217.25 8.69 26.07 8.69 34.76 17.38 52.14 34.76-34.76 0-43.45 8.69-95.59 8.69l34.76 17.38h43.45-86.9s8.69-8.69-8.69-8.69-8.69 0-34.76 8.69c-8.69-17.38 0 8.69 8.69-26.07h-26.07c-8.69 26.07 0 8.69-26.07 17.38-8.69 8.69-8.69 8.69-26.07 8.69-17.38 8.69-26.07 17.38-43.45 26.07 8.69-26.07 8.69-69.52-8.69-95.59zm-2728.58 182.49c-8.69 43.45 0 26.07-8.69 69.52-26.07-8.69-17.38-8.69-34.76-17.38-8.69 0-8.69-8.69-8.69-8.69-8.69 0 0 8.69-8.69-8.69-8.69-8.69-26.07-43.45-34.76-60.83-34.76-52.14-43.45-60.83-112.96-78.21 8.69-34.76 26.07-26.07 52.13-43.45 69.52-34.76 78.21-34.76 191.18 0 43.45 8.69 69.52 17.38 95.59 43.45 26.07 34.76 78.2 147.73 78.2 199.87-26.06 0-34.75 8.69-52.13 17.38-34.76-60.83-26.07-165.11-69.52-199.87 0 78.21 52.14 147.73 52.14 217.25-34.76 0-112.97 26.07-112.97-34.76 0-34.76 0-52.14 8.69-78.21 8.69-17.38 0 0 8.69-17.38h8.69c34.76-43.45 26.07-95.59 0-52.14-17.38 17.38 0 8.69-8.69 34.76-26.07 43.45 8.69-8.69-43.45 17.38zm-686.49 26.07c-8.69 34.76 8.69 8.69-26.07 8.69-78.21 0-130.35 43.45-130.35-60.83 0-34.76 8.69-60.83 17.38-86.9 8.69-112.96 95.59-43.45 225.94-17.38v17.38c-52.14 0-69.52 8.69-121.66 8.69v34.76h86.9c-34.76 52.14-69.52 17.38-78.21 78.21zm3180.45-104.28c8.69-26.07 26.07-52.14 43.45-69.52 0 17.38-8.69 60.83-17.38 78.21-17.38-8.69 0 0-26.07-8.69zm-2737.27-112.96c-8.69 8.68 0 0-8.69 8.68v8.69c0-8.69 0 0 0 0-8.69-17.37 0-17.37-8.69-52.13 34.76 17.38 26.07-8.69 52.14 26.07-26.07 0-17.38-8.69-34.76 8.69zm-52.14 52.13c-8.69-26.07-17.38-69.51-17.38-104.27l34.76 8.69c-8.69 17.38-8.69 34.76-8.69 60.82 0 34.76 26.07 8.69-8.69 34.76zm-269.38-26.07c8.69-43.44 69.51-69.51 121.65-69.51s17.38 0 34.76 43.45c8.69 34.75 34.76 17.37 8.69 34.75-26.07 26.07-121.65 17.38-139.03 8.69s-17.38-8.69-26.07-17.38zm1303.46-34.75c0 17.37-8.69 17.37-8.69 17.37l-69.52-60.82c34.76 8.69 69.52 17.38 78.21 43.45zm1859.61 165.1c0-26.07 60.82-199.86 69.51-217.24h34.76c0 8.69-86.89 121.65-86.89 234.62-8.69-8.69-17.38-8.69-17.38-17.38zm-677.8 8.69c17.38-43.45 43.44-78.21 60.82-121.66 17.38-52.13 17.38-86.89 52.14-121.65 78.21-78.21 112.97-69.52 191.18-78.21 52.14-8.69 156.41-52.14 234.62 60.83-69.52 34.76-43.45-17.38-139.04 34.76-69.51 43.45-139.03 112.96-173.79 191.17l-69.52 104.28v8.69c0-60.83 69.52-208.56-8.69-112.97 0-43.45 26.07-52.14 34.76-104.28-17.38-8.69 8.69-8.69-8.69 8.69-17.38 8.69 0 0-17.38 8.69l8.69-34.76c-26.07 26.07-43.45 60.83-78.21 86.9-69.51 52.14-26.07 69.52-86.89 69.52zm-2050.79-399.73h8.69l243.32-260.69v-8.69l-8.69 43.45c-52.14 69.52-112.97 130.34-182.49 173.79-78.21 60.83-43.45 95.59-69.52 69.52zm2268.03-17.38c0-34.76 8.69-34.76 34.76-43.45-8.69 17.38-8.69 17.38-17.38 43.45zm-2241.96 139.04c17.38-78.21 173.8-112.97 191.18-130.35 52.14-26.07 78.21-69.52 112.96-104.27 17.38-26.07 26.07-34.76 43.45-60.83 26.07-52.14 17.38-43.45 69.52-86.9l26.07-26.07c8.69 17.38 0 0 0 8.69 26.07 69.52 26.07 8.69 60.83 69.52 17.38 17.38 17.38 34.76 34.76 52.14 17.38 34.76 17.38 17.38 8.69 52.13 26.07 0 34.76 0 52.14-8.68l-43.45 26.06c-26.07 8.69-34.76 8.69-60.83 8.69l-69.52 34.76c-26.07 8.69-8.69 0-17.38 8.69 34.76 0 86.9-17.38 121.66-34.76 60.83-17.38 60.83-43.44 95.59 0-78.21 43.45-139.04 26.07-147.73 95.59l321.52 17.38s8.69 8.69 17.38 8.69l8.69 8.69c-95.59 17.38-347.59-34.76-364.97-17.38-26.07 26.07 78.21 43.45 112.97 69.52 139.03 69.52 130.34 182.48 156.41 234.62 26.07 26.07 26.07 8.69 26.07 8.69s26.07 8.69-8.69 34.76c0 0-17.38 17.38-26.07 17.38-43.45-26.07-43.45-26.07-69.52-69.52-17.37-8.69-17.37-17.38-26.06-43.45l-26.07-34.76c0 86.9 60.82 95.59 78.2 173.8-43.44 8.69-34.75-8.69-69.51-34.76 8.69 17.38 8.69 17.38 8.69 43.45-17.38-17.38-26.07-43.45-34.76-69.52-78.21-208.55-252.01-182.48-391.04-234.62-112.97-43.45-69.52-26.07-191.18-17.38zm599.6 130.34c8.69 0-8.69-26.06-8.69 0 0 26.07 8.69 0 8.69 0zm-60.83-2328.85c43.45 0 43.45-26.07 34.76-60.83-8.69-69.52-8.69-26.07 17.38-78.21 26.07-78.2-17.38-104.27 43.45-173.79 34.75-34.76 78.2-60.83 121.65-95.59s69.52-78.21 112.97-104.27c52.14 17.38 95.59 69.51 139.03 104.27l729.94 582.22c69.52 60.82 130.35 104.27 147.73 199.86-78.21-52.14-225.93-208.55-321.52-234.62 17.38 26.07 208.55 156.41 243.31 191.17 52.14 43.45 95.59 78.21 95.59 156.42-34.76-17.38-34.76-26.07-52.14-60.83-52.14-52.14-338.9-312.83-399.73-356.28l-252-182.49c-34.76-26.07-217.24-173.79-243.31-182.48 26.07 43.45 69.51 78.21 112.96 112.97l243.32 191.17c43.44 34.76 78.2 69.52 121.65 95.59 86.9 69.52 147.73 130.34 225.94 208.55l208.55 225.94c-8.69 43.44-43.45 86.89-60.83 130.34-26.07 34.76-52.14 78.21-52.14 130.35 26.07-8.69 8.69 0 26.07-26.07 17.38-8.69 17.38-17.38 26.07-26.07 34.76-43.45 104.28-130.35 147.73-147.73 26.07 43.45 26.07 104.28 34.76 156.42 0 52.14 0 43.45 17.38 78.21 8.69 26.07 17.38 43.45 34.76 60.83-17.38-69.52-43.45-52.14-17.38-121.66 8.69-34.76 43.44-78.21 86.89-86.9 26.07-8.69 26.07 0 34.76 34.76 8.69 43.45 0 26.07 34.76 52.14 52.14 43.45 139.04 260.69 173.8 330.21 78.2 156.42 130.34 208.55 86.89 391.04v-8.69l-26.07-52.14c-52.13-86.9-173.79-312.83-234.62-356.28 8.69 26.07 43.45 78.21 69.52 104.28 17.38 43.45 43.45 78.21 60.83 112.96l173.79 347.59c60.83 112.97 95.59 278.08 95.59 417.11-34.76-26.07-60.83-78.21-78.21-121.65-69.52-130.35-112.96-260.7-191.17-382.35-60.83-95.59-243.32-356.28-347.59-425.8 8.69 43.45 60.83 86.9 95.58 121.66l147.73 208.55c165.11 243.31 130.35 260.69 191.18 364.97l-199.87-260.69c-78.21-78.21-104.28-112.97-156.41 34.76-17.38 60.82-95.59 347.59-104.28 399.72h-17.38c0-112.96-34.76-295.45-60.83-399.72-34.76-147.73-182.48-573.53-243.31-677.81-78.21-112.96-104.28-295.45-139.04-321.52-95.59 69.52-121.66 373.66-139.03 512.7l-78.21 573.52c-17.38 95.59-26.07 225.94-52.14 321.52l-17.38 34.76c0-69.52-17.38-130.34-26.07-191.17-43.45-234.63-78.21-477.94-147.73-703.87-17.38-60.83-26.06-104.28-43.44-165.11-26.07-86.89-69.52-286.76-156.42-286.76-43.45 0-191.17 199.87-225.93 243.31-95.59 139.04-182.49 278.08-286.77 408.42-17.37 8.69-26.06 26.07-34.75 34.76 8.69-34.76 26.06-60.83 52.13-86.9 69.52-112.96 199.87-338.9 269.39-425.79 26.07-34.76 104.27-130.35 112.96-165.11-95.58 60.83-199.86 234.62-278.07 330.21-69.52 69.52-112.97 147.73-165.1 234.62-34.76 43.45-52.14 78.21-78.21 121.66l-147.73 252c0-60.82 8.69-156.41 34.76-217.24 17.38-17.38 17.38-26.07 26.07-43.45 26.07-26.07 26.07-52.14 34.76-86.9 8.69-17.38 17.38-17.38 26.07-34.75-8.69-34.76-8.69-8.69-17.38-43.45 60.83-34.76 321.52-530.08 321.52-616.98-43.45 26.07-43.45 95.59-78.21 147.73-26.07 52.14-52.14 95.59-78.21 139.04l-139.03 199.86c-34.76 43.45-34.76 69.52-52.14 52.14l26.07-52.14c8.69-17.38 17.38-34.76 26.07-52.14 60.83-139.03 104.28-182.48 165.1-286.76-52.13 17.38-112.96 112.97-139.03 165.1-26.07 52.14-52.14 173.8-86.9 217.25 8.69-43.45 8.69-95.59 17.38-130.35 8.69-52.14 26.07-78.21 26.07-121.65-34.76 43.44-17.38 78.2-52.14 95.58 8.69-26.07 17.38-86.89 17.38-121.65 0-86.9 34.76-130.35 86.9-191.18 26.07-26.07 43.45-52.14 60.83-78.21 43.44-60.82 217.24-243.31 234.62-312.83 26.07 43.45-8.69 69.52 121.66 69.52l-86.9 95.59c-17.38 26.07-8.69 8.69-17.38 34.76 43.45-34.76 78.21-78.21 112.97-121.66 34.75-43.45 86.89-52.14 86.89-139.03 0-52.14-17.38-86.9-60.83-95.59 0-43.45 86.9-104.28 104.28-165.11 17.38-34.76 17.38-34.76 0-52.14-8.69 52.14-52.14 104.28-86.9 130.35-86.89 86.9-60.82 34.76-139.03 78.21zm1416.43 1120.98c26.07 26.07-26.07-26.07 0 0zm182.48-86.9c26.07 17.38 8.69 0 17.38 26.07 17.38 17.38 8.69 26.07 26.07 8.69-43.45-52.14-26.07-52.14-43.45-34.76zm-95.58-139.03s0 8.69 8.68 17.37c17.38 34.76 52.14 86.9 78.21 104.28-8.69-43.45 0-8.69-17.38-34.76-26.07-34.76-52.14-69.52-69.51-86.89zm-1094.91-1199.19v8.69l8.69-8.69c-17.38-17.38-8.69-8.69-34.76-17.38zm573.52 408.42c-8.69-8.69 0-17.38-17.38 0 17.38 17.38 34.76 26.07 60.83 34.76-26.07-34.76 0 0-43.45-34.76zm-1025.39 391.04 17.38-17.38-8.69-8.69-17.38 17.38zm669.11 1685.81c78.21-52.14 104.28-208.56 121.66-295.45 26.07-112.97 26.07-252.01 69.51-338.9 78.21 52.14 95.59 156.41 69.52 252 43.45-17.38 52.14-156.42 104.28-191.17l26.07 86.89c17.38 78.21 8.69 286.76 8.69 373.66 0 43.45-8.69 34.76-8.69 78.21 52.14-34.76 95.59-182.48 112.97-243.31 8.69-43.45 17.38-112.97 34.75-139.04 17.38-43.45 60.83-52.14 69.52-104.28h17.38c0 34.76 8.69 34.76 17.38 69.52 34.76 104.28 43.45 217.25 78.21 321.52 17.38 78.21 8.69 104.28 34.76 121.66 8.69-43.45 26.07-69.52 43.45-112.97 17.38-34.76 26.07-78.21 52.14-104.27 26.07 52.13 60.82 199.86 43.44 269.38-8.69 17.38-17.37 34.76-34.75 52.14l-78.21 165.1c-52.14 0-121.66 0-165.11 0l-660.42 8.69c-8.69-34.76-52.14-69.52-69.52-104.28-104.27-182.48-26.07-139.03-26.07-243.31 0-121.66-52.13-26.07-17.38-191.17 8.69-17.38 0-8.69 8.69-17.38 43.45-104.28 8.69-86.9 60.83-147.73 8.69 69.52 34.76 147.73 43.45 217.25 17.38 52.13 43.45 173.79 43.45 217.24zm2120.3-504.01v-8.69l130.35-634.35c0-8.69 0-8.69 0-8.69 0 130.35-34.76 399.73-69.52 521.39-8.69 17.38-43.45 147.72-52.14 139.03zm-130.35 391.04c-26.07-17.38-26.07-34.76-34.76-69.52-34.75-139.03-43.44-86.89-34.75-260.69l17.38-295.45c43.44-34.76 8.68-78.21 43.44-130.35 0 60.83 8.69 86.9 8.69 147.73l17.38 451.87c0-156.42 17.38-139.04 17.38-260.7l8.69-260.69c0-60.83 0-121.66-8.69-182.48-8.69-52.14-8.69-112.97-8.69-173.8 26.07 17.38 17.38 26.07 26.07 60.83 26.07 121.66 34.76 225.93 43.45 347.59 8.69 43.45 8.69 78.21 17.38 139.04 17.38 156.41 17.38 121.65-26.07 260.69zm86.9-1147.05s8.69 8.69 8.69 8.69c0 17.38 8.69 26.07 8.69 34.76 78.21 312.83 26.07 173.8 26.07 356.28h-17.38c0-86.89-17.38-139.03-26.07-208.55-17.38-147.73-8.69-95.59-8.69-208.55 8.69 8.68 0 0 8.69 17.37zm-2302.78 112.97c17.38 43.45 43.45 112.97 43.45 165.11-26.07-8.69-17.38 0-34.76-26.07-26.07-60.83-69.52-243.32-69.52-295.45v8.69l26.07 26.06c8.69 26.07 8.69 17.38 8.69 43.45 17.38 26.07 17.38 43.45 26.07 78.21zm1277.39-225.93c0-8.69 0-8.69 0-8.69l69.52 60.83c95.59 156.41 0 60.82 52.14 121.65 60.83 78.21 139.03 208.56 139.03 304.14l-43.45-52.13s0-8.69 0-17.38l-208.55-408.42zm790.77 286.76c8.69 112.97 0 182.48 8.69 260.69l17.38 338.9c-26.07-17.38-34.76-69.52-52.14-104.27-69.52-182.49-147.73-382.35-182.49-573.53-8.69-34.76-17.38-78.21-26.07-121.65-8.69-26.07-26.06-78.21-26.06-121.66l104.27 234.62c0-34.76 0-78.21 0-112.96 0-69.52 8.69-69.52 34.76-78.21 0 139.03 60.83 321.52 78.21 538.76 34.76-26.07 8.69 8.69 17.38-34.76 17.38-60.82 8.69-156.41 8.69-217.24 0-43.45 8.69-43.45 8.69-78.21 34.76 26.07 8.69 8.69 8.69 69.52zm-660.42-304.14c-8.69-8.69-17.38-43.45-26.07-60.83l-34.76-43.45 8.69-8.69c34.76 52.14 130.34 112.97 130.34 199.87-43.44-26.07-17.38-8.69-43.44-43.45-17.38-17.38-26.07-26.07-34.76-43.45zm112.96 295.45c0-34.76 8.69-43.45 8.69-78.21l-17.38-156.41c-8.69-34.76-52.13-78.21-69.51-112.97-43.45-60.83-60.83-52.14-78.21-121.66l-17.38-52.14c60.83 34.76 60.83 78.21 104.28 130.35 121.65 139.04 95.58 43.45 95.58 408.42 0 43.45-8.69 34.76-8.69 78.21-17.38-26.07-17.38-69.52-17.38-95.59zm-2876.3-547.45c0-104.28 8.69-173.8 8.69-278.08l17.37 43.45c0 17.38 0 34.76 8.69 43.45 26.07 191.18 130.35 512.7 130.35 608.28-8.69-8.69 0 0-8.69-17.38-60.83-104.27-156.41-295.45-156.41-399.72zm2476.57-26.07c-26.06 17.38-26.06 17.38-69.51 17.38l-26.07 43.44c8.69-86.89 8.69-52.13 0-104.27 95.58-43.45 86.89 8.69 95.58 43.45zm842.91-269.39s8.69-8.69 8.69-8.69v-8.69c8.69 43.45 8.69 78.21-17.38 112.97-26.07 26.07-199.86 156.42-260.69 173.8 8.69-43.45 43.45-17.38 121.65-78.21 43.45-43.45 86.9-60.83 95.59-104.28-52.14 26.07-69.52 52.14-121.65 86.9-86.9 69.52-112.97 26.07-130.35 69.52-26.07-17.38-17.38 0-8.69-26.07l-26.07 26.07c0-60.83 17.38-60.83 52.14-86.9 191.17-139.04 208.55-86.9 286.76-121.66zm-851.6 338.9c60.83-8.69 173.8-191.17 217.25-130.34-69.52 17.38-86.9 52.14-139.04 95.59l-60.83 60.82c-26.06 17.38-26.06 43.45-52.13 60.83v-78.21zm391.04-139.03c43.45-8.69 26.07-17.38 60.83-52.14l43.45-43.45h8.69l8.69-8.69c26.07-26.07 26.07-34.76 60.83-52.14 60.83-52.14 43.45-78.2 60.83-52.14-26.07 17.38-104.28 95.59-130.35 121.66-43.45 69.52-52.14 52.14-95.59 95.59-17.38 26.07-8.69 17.38-34.76 26.07-8.69-26.07-17.38-26.07-17.38-60.83 0-52.14 26.07-104.28 69.52-130.35 0 26.07 0 34.76 8.69 52.14h-26.07c0 43.45 17.38 17.38 0 60.83-26.07 43.45 0 8.69-17.38 43.45zm-3667.07-1755.33c0-8.69 60.83-60.83 69.52-104.28 43.45 0 34.76 0 69.51 8.69l-8.69 17.38v8.69c17.38-8.69 26.07-17.38 43.45-26.07 8.69 8.69 8.69-17.38 0 26.07 43.45-17.38 182.49-26.07 234.63-8.69 86.89 17.38 95.58 86.9 104.27 173.8 17.38 156.41 60.83 356.28 60.83 486.62h8.69c0-104.28-8.69-173.79-8.69-269.38 0-139.04-34.76-191.18-34.76-234.62 52.14 43.44 86.9 260.69 104.28 338.9 52.14 295.45 52.14 425.79 34.76 703.87 0 34.76-8.69 34.76-8.69 78.2l-8.69 686.49c0 112.97 8.69 121.66 8.69 182.49 8.69 156.41-8.69 260.69-8.69 382.35l-165.11-443.18c-34.75-69.52-43.44-52.14-43.44-156.41 26.06 26.06 8.69 17.38 60.82 69.51 8.69 8.69 8.69 8.69 17.38 17.38-8.69-34.76-26.07-34.76-43.45-78.2-17.38-78.21 8.69-17.38-26.06-95.59-26.07-60.83-156.42-504.01-165.11-556.15-8.69-95.58 8.69-52.13-17.38-225.93-43.45-269.38-69.52-364.97-69.52-643.04h8.69c0 52.14 17.38 121.66 26.07 173.79 69.52 304.15 112.97 686.49 217.25 981.95 17.37 43.44 34.75 95.58 43.44 147.72l-17.38-34.76c-8.69-8.69-8.69-17.38-17.38-26.07-34.75-78.2-26.06-104.27-43.44-130.34-69.52-182.49-43.45-121.66-95.59-286.76l-26.07-60.83c8.69 78.2 26.07 156.41 52.14 217.24 26.07 86.9 104.28 321.52 139.03 382.35 26.07 43.45 78.21 121.66 78.21 182.48h17.38c0-43.44-34.76-112.96-43.45-156.41-17.38-34.76-43.45-399.73-43.45-443.18 0-78.21 8.69-225.93 8.69-269.38-8.69-8.69 8.69-425.8-17.38-634.35-8.69-34.76-17.38-95.59-17.38-130.35l-8.69-182.48c-52.13 0-52.13 8.69-95.58 8.69 0-69.52 43.45-112.97 0-86.9-34.76 26.07-26.07 69.52-43.45 43.45 8.69-8.69 0 0 0-17.38l-8.69-17.38c-8.69 0-8.69 8.69-8.69 17.38l-34.76 17.38-86.9-8.69h-8.69c-52.14-26.07 0-52.14-43.45-78.21-8.69 26.07-17.38 34.76-26.06 52.14 17.37 8.69-8.69 0 17.37 0 0 0 8.69-8.69 17.38-8.69 8.69 43.45 17.38 26.07-8.69 60.83l69.52 8.69c-52.14 0-69.52-8.69-104.27-8.69 0-26.07 0-26.07 8.69-43.45-60.83 8.69-17.38 26.07-60.83 60.83-8.69-17.38 0-8.69-17.38-17.38s0 0-26.07-8.69c-8.69-17.38-8.69-17.38-8.69-43.45zm3189.14 1720.57c-26.07 0-43.45-34.76-43.45-60.83-8.69-26.07-17.38-52.14-26.07-78.21 43.45 8.69 156.41 139.04 69.52 139.04zm156.41-182.49c0-43.44 8.69-78.2 43.45-86.89l69.52-8.69c0-8.69-8.69-8.69 17.38-8.69 8.69 34.76 26.07 26.07 34.76 69.52 8.69 26.06 8.69 52.13 0 78.2 26.07-8.69 34.76 0 52.14-17.38 26.07-17.38 17.38-26.07 52.14-34.76-8.69 26.07-95.59 104.28-121.66 121.66s-60.83 17.38-34.76-17.38c8.69-8.69 17.38-8.69 43.45-43.45l-95.59 26.07c-8.69-34.76 0-34.76-34.76-43.45 0-60.82 0-60.82 26.07-95.58-52.14 8.69-17.38 17.38-52.14 60.82zm121.66-86.89c8.69 0-17.38-26.07-8.69 0 0 17.38-8.69 0 8.69 0zm-1616.29 121.65c34.75-43.45 34.75-26.07 34.75-104.27 17.38 8.69 17.38 0 17.38 26.07 0 121.65-52.13 69.51-121.65 112.96l-17.38-17.38c-8.69-8.69 0 0-8.69-17.38 34.76-8.69 43.45 0 95.59 0zm1764.02-95.58c26.06-17.38 26.06-26.07 60.82-69.52 60.83-60.83 60.83-69.52 69.52-52.14-34.76 26.07-8.69 34.76-78.21 69.52 8.69 26.07 8.69 43.45 0 52.14-8.69 17.38-26.07 34.76-43.44 43.45 0-34.76 0-17.38 17.37-43.45-43.44 8.69-8.69 8.69-26.06 0zm52.13-26.07c8.69 0-8.69-17.38-8.69 0 0 26.07 8.69 0 8.69 0zm-1894.36 26.07c17.38 0 60.83-34.76 78.21-43.45l17.38 17.38c-17.38 78.2-121.66 112.96-130.35 17.38 26.07 8.69 17.38 8.69 34.76 8.69zm-399.73 504c0-95.59-8.69-130.34 34.76-191.17 26.07-52.14 156.41-199.87 199.86-252.01 34.76-43.44 60.83-86.89 104.28-112.96-17.38 165.1-34.76 191.17-130.35 312.83-34.76 43.45-69.51 78.21-104.27 121.66-26.07 43.44-69.52 95.58-104.28 121.65zm43.45-269.38c0-60.83 8.69-104.28 17.38-156.42 0-52.13-8.69-121.65 8.69-156.41 17.38-43.45 130.34-130.35 156.41-173.8 34.76 0 34.76 8.69 78.21 8.69 8.69 60.83 52.14 60.83 52.14 104.28 0 78.21-34.76 78.21-69.52 104.28-26.07 34.76-52.14 60.83-86.9 86.89-34.76 43.45-121.65 156.42-156.41 182.49zm2415.75-356.28c34.76-43.45-8.69-17.38 43.45-78.21l17.38 60.83c-60.83 34.76-52.14 34.76-60.83 17.38zm17.38-26.07c-8.69 17.38 8.69 0 8.69 0 17.38-17.38-8.69 0-8.69 0zm-669.11 112.97c-26.07-52.14-26.07-34.76-52.14-78.21l-26.07-34.76h17.38c60.83 43.45 95.59 43.45 95.59 147.73-34.76-17.38-17.38 0-34.76-34.76zm-8.69-60.83c8.69 0-8.69-26.07-8.69 0s8.69 0 8.69 0zm95.59-60.83 17.37-17.38-8.69-8.69-17.37 17.38zm-173.8-34.76c8.69-17.38 26.07-34.76 43.45-43.45 8.69-8.69 17.38-8.69 26.07-17.38h8.69 8.69c52.14 0 78.21 26.07 104.27 60.83 17.38-8.69 17.38-8.69 43.45-17.38l-104.27 95.59c8.69-43.45 8.69-34.76-34.76-60.83-34.76-8.69-52.14-17.38-95.59-17.38zm-2476.58 1112.29c34.76 86.9 43.45 52.14 52.14 86.9l26.07 252s0 0 0-8.69h-8.69l-8.69-34.76c-8.69-8.69-8.69-26.07-17.38-43.45-26.07-78.2-78.21-173.79-104.28-260.69l-165.1-434.49c-17.38-43.45-8.69-60.83-17.38-104.27-26.07-60.83-43.45-112.97-60.83-173.8-17.38-69.52-34.76-121.66-43.45-199.86-8.69-52.14-34.76-139.04-34.76-199.87 26.07 34.76 147.73 469.25 165.11 547.46 8.69 17.38 26.07 60.82 26.07 69.51 0 34.76-26.07 0 0 52.14zm2633-1207.88c78.2-112.96 278.07-199.86 408.41-243.31 52.14-17.38 104.28 8.69 139.04 43.45 86.9 78.21 43.45 17.38 86.9 78.21-17.38 52.14 0-26.07-17.38 26.07v8.69l43.45 130.34c-17.38-17.38-8.69-8.69-17.38-34.76-8.69-17.38-17.38-86.89-52.14-78.2-17.38 8.69-8.69 0 17.38 52.13 8.69 26.07 8.69 43.45 17.38 69.52-43.45-26.07-34.76-26.07-86.9 8.69-86.9 60.83-43.45 52.14-95.59 112.97-60.83 86.9-121.65 78.21-130.34 147.73-26.07-17.38-43.45-52.14-43.45-95.59 60.83 8.69 43.45 34.76 95.59 17.38-17.38-26.07-34.76-52.14-78.21-52.14 17.38-69.52 78.21-52.14 112.96-147.73 17.38-26.07 26.07-69.51 43.45-86.89 8.69-17.38 17.38-17.38 34.76-34.76 17.38 0 17.38 0 26.07-8.69 17.38-8.69 8.69 0 17.38-8.69-130.35-34.76-78.21 0-156.41 60.83 8.69-34.76 43.44-60.83 34.75-86.9-17.38-26.07-60.82 17.38-78.2 26.07l-139.04 104.27c17.38-8.69 52.14-43.44 60.83-52.13-43.45 8.69-8.69 8.69-26.07 0 43.45-26.07 34.76 0 60.83-34.76-43.45 0-69.52 26.07-95.59 52.14l-8.69 8.68v8.69c-26.07 17.38-8.69 8.69-34.76 17.38l8.69 8.69v8.69c0 17.38 8.69 0 0 17.38-43.45 43.45-86.9 0-147.72-43.45zm278.07-86.89c-8.69 8.69 8.69 17.38 17.38 0 17.38-26.07 0 0-8.69 0zm-2589.55 130.34c-17.38-78.2-86.9-173.79-112.97-260.69-78.2-199.86-104.27-382.35-147.72-590.9-8.69-43.45-26.07-95.59-34.76-147.73-8.69-43.45-34.76-104.28-34.76-147.72 78.21 86.89 60.83 139.03 112.97 269.38 69.52 165.1 78.21 295.45 121.65 443.18 17.38 95.58 60.83 330.21 95.59 399.72 8.69 26.07 0 34.76 0 26.07zm17.38-147.72c-8.69-17.38 0 0-8.69-26.07l95.59 112.96c-8.69 17.38-8.69 17.38-8.69 43.45-34.76-8.69-17.38-8.69-34.76-34.76-17.38-43.44-26.07-26.06-34.76-69.51zm686.49-17.38c0-34.76 52.14-69.52 78.21-86.9 8.69 43.45 43.45 43.45 43.45 78.21 0 86.9-52.14 95.59-112.97 78.21zm2285.41 112.96c0-43.44-8.69-60.82-17.38-86.89-43.45-112.97-52.14-69.52-78.21-95.59-26.07-17.38-34.76-26.07-43.45-52.14 95.59 0 78.21 34.76 147.73 43.45 34.76 8.69 8.69 0 52.13 0 69.52 0 26.07 0 52.14 8.69 43.45 17.38 17.38-17.38 43.45 17.38 0 8.69 8.69 52.14 17.38 78.21 26.07 95.58 43.45 104.27-17.38 147.72 8.69-34.76 8.69-43.45 0-86.89 0-52.14-8.69-52.14-34.76-78.21 0 43.45 8.69 34.76 8.69 78.21 0 43.44-17.38 43.44-26.07 78.2l-17.38 156.42c0 26.07 17.38 43.45 26.07 69.52 34.76-26.07 26.07-52.14 34.76-104.28 8.69-69.52 8.69-78.21 34.76-95.59 0 43.45 26.07 52.14 26.07 95.59 0 60.83-17.38 95.59-17.38 165.11h-43.45c8.69 34.75 17.38 17.37 8.69 43.44 0 26.07-8.69 17.38-26.07 26.07-52.14 8.69-17.38-17.38-78.21-17.38 60.83-121.65 26.07-78.2 17.38-173.79h-17.38c0 95.59-86.89 104.28-112.96 139.03-34.76 34.76-104.28 95.59-139.04 104.28-43.45-78.21 52.14-121.65 139.04-217.24h8.69l8.69-8.69c0-8.69 0-8.69 0-8.69 26.07-26.07 26.07-26.07 34.76-52.14 26.07 0 26.07 0 34.76 17.38 0-26.07 0-26.07-8.69-43.45 17.38-8.69-8.69 0 26.07 8.69 0-43.45-34.76-69.52-34.76-95.59s43.44-69.52 52.13-112.96c-43.44 26.07-17.37 26.07-60.82 52.13zm60.82-60.82c-8.69 26.07 8.69 0 8.69 0 26.07-17.38-8.69 0-8.69 0zm78.21 425.79c-17.38-8.69 8.69-8.69-8.69 0l-43.45 26.07c34.76 0 17.38 0 43.45-8.69 34.76-26.07 8.69-17.38 8.69-17.38zm-868.97-356.28c0-86.89 0-95.58 34.76-147.72 43.44-52.14 26.07-8.69 86.89-95.59h69.52l-52.14 26.07c52.14 0 43.45 0 78.21 17.38-8.69 8.69-165.1 104.28-191.17 199.86zm-1512.02-295.45c69.52 8.69 26.07 69.52 8.69 86.9-8.69-26.07-8.69 8.69-8.69-26.07zm1329.53 486.63c-130.34-86.9-182.48-139.04-286.76-243.31-78.21-69.52-208.55-165.11-269.38-252.01 17.38-17.38 8.69-8.69 17.38-34.76 69.52 34.76 34.76 34.76 60.83 60.83 0 8.69 173.79 130.35 225.93 182.49l69.52 69.52c52.14 34.75 165.1 156.41 182.48 217.24zm-1034.08-808.15c0-26.07 26.07-43.45 43.45-52.14 34.76 17.38 34.76 43.45 104.28 95.59l104.27 86.9c17.38 8.69 17.38 17.38 34.76 34.76l139.04 121.65c17.38 8.69 8.69 0 17.38 8.69 26.07 17.38 0 8.69 26.07 43.45 34.76 43.45 69.52 60.83 95.59 95.59l278.07 243.31c26.07 26.07 43.45 43.45 69.52 60.83 52.13 43.45 182.48 130.35 191.17 199.87-43.45-43.45-86.9-78.21-139.04-121.66-34.75-17.38-52.13-34.76-78.2-52.14l-356.28-278.07c-26.07-26.07-43.45-43.45-60.83-69.52l-338.9-295.45c-43.45-34.76-130.35-95.59-130.35-121.66zm1320.84 286.76c139.04 0 156.42-60.82 278.08 0-17.38 26.07-43.45 60.83-78.21 69.52 17.38-26.07 17.38-8.69 17.38-43.45l-8.69 8.69c-26.07 34.76-26.07 26.07-60.83 26.07-69.52 8.69-147.73 34.76-147.73-60.83zm-1598.91-17.38c8.69 0 26.07-8.69 34.76-17.38 52.14-17.37 43.45-26.06 43.45-86.89 43.45 34.76 17.38 69.52-8.69 112.96h-8.69c-52.14-26.07-139.04 60.83-139.04-69.51h17.38c8.69 34.76 34.76 60.82 60.83 60.82zm3119.62 69.52c-52.14-34.76-86.9-86.9-112.97-139.03l-17.38-17.38 8.69-8.69c17.38 34.76 34.76 34.76 60.83 60.83 26.07 17.37 34.76 34.75 60.83 52.13zm-3024.03-217.24c17.38-34.76 34.76-60.83 69.52-78.21 60.82 26.07 182.48 121.66 217.24 173.8-34.76 26.07-43.45 26.07-69.52 60.82l-225.93 165.11c-121.66-191.18 130.34-86.9 8.69-321.52zm1885.67 60.83c0-60.83-17.38-69.52-17.38-217.25 26.07 17.38 34.76 34.76 60.83 60.83 26.07 34.76 26.07 34.76 69.52 52.14-8.69 60.83-52.14 104.28-112.97 104.28zm-2502.65-1590.23c26.07-17.38 43.45-26.07 69.52-43.45 8.69 26.07 0 17.38 8.69 52.14 17.38 52.14 52.14 86.9 86.9 121.66 60.83 69.52 78.21 147.72 112.97 173.79-26.07-95.58-95.59-173.79-112.97-234.62 78.21 52.14 156.42 208.55 182.48 243.31 26.07 26.07 17.38 17.38 52.14 34.76 52.14 26.07 26.07 52.14 86.9 78.21 139.04 78.21 130.35 104.28 243.31 182.48 8.69 17.38 130.35 86.9 130.35 95.59l-8.69 8.69c-17.38-26.07-43.45-43.45-69.52-52.14l78.21 86.9-165.11 199.87c0-52.14-26.06-104.28-52.13-130.35l-139.04-225.93c-26.07-34.76-52.14-78.21-86.9-86.9 8.69 26.07 34.76 69.52 52.14 95.59 17.38 34.75 208.56 364.96 208.56 382.34-8.69 43.45-34.76 8.69-8.69 104.28 8.69 69.52 8.69 60.83-34.76 95.59-43.45 43.45-34.76 60.83-78.21 34.76 0 130.34 104.28 130.34 112.97 225.93-69.52 17.38-26.07 26.07-95.59 69.52v-60.83c17.38 26.07 8.69 43.45 17.38 26.07v8.69c8.69-43.45 0-34.76 34.76-34.76v-17.38c-34.76 0-26.07-8.69-60.83-8.69 0 43.45 0 8.69-17.38 26.07s0 8.69-8.69 60.83c-26.07 86.9-156.42 26.07-121.66 147.72 17.38 78.21 8.69 86.9 43.45 95.59-8.69 86.9-60.83 69.52-86.9 130.35-8.69 26.07-17.38 60.83-17.38 86.9 17.38 104.27 52.14 43.44-26.06 139.03-34.76 34.76-78.21 112.97-69.52 0 0-34.76 0-69.52 0-104.28 0-43.44 8.69-52.13 8.69-104.27l17.38-295.45c26.07-347.59 60.82-790.77-60.83-1112.29-52.14-156.42-112.97-295.45-199.87-434.49-8.69-26.07-17.38-34.76-26.07-60.83zm643.05 938.5c-8.69 17.37-8.69 34.75-8.69 52.13-26.07-17.38-78.21-199.86-78.21-208.55l-17.38-17.38c-17.38-26.07-17.38-52.14-43.45-69.52 0 34.76 26.07 69.52 34.76 104.28 17.38 26.07 26.07 60.83 43.45 86.9l34.76 95.58 17.38 52.14c17.38 34.76 8.69 52.14 17.38 34.76v8.69c0-43.45-8.69-43.45-8.69-78.21 8.69-8.69-17.38-8.69 26.07 0 0-34.76-8.69-26.07-17.38-60.82zm130.34-278.08 8.69-8.69-17.38-17.38-8.69 8.69zm-234.62 773.39c8.69 0-8.69-26.07-8.69 0s8.69 0 8.69 0zm1720.57-1173.12c17.38-17.37 17.38-17.37 17.38-52.13 17.38-60.83 26.07-52.14 86.9-95.59 52.14-34.76 86.89-78.21 139.03-112.97-26.07 121.66-69.51 234.63-95.58 364.97-26.07 139.04-43.45 269.38-43.45 417.11 0 156.42 17.38 504.01 34.76 660.42 8.69 69.52 52.13 165.11 8.69 165.11-43.45 0-86.9-8.69-121.66 0-60.83 17.38-182.49 43.45-225.93 60.82 0 52.14 34.75 86.9 0 130.35-78.21 95.59-78.21 191.18-112.97 234.62-17.38 26.07-52.14 69.52-86.9 78.21-78.21-52.14-173.79-173.79-252-234.62l-304.14-269.38c-52.14-60.83-112.97-156.42-173.8-182.49h-8.69c-34.76-26.07-17.38-17.38-8.69-34.76-26.07-17.38-8.69-17.38-34.76-34.76l8.69 34.76c-34.76-17.38-86.89-43.45-86.89-86.9 60.82-17.37 8.69-8.68 52.13-52.13 60.83-43.45 130.35-69.52 199.87-95.59 43.45-26.07 86.9-43.45 130.35-69.52 95.58-34.76 165.1-95.59 243.31-147.72 69.52-52.14 269.38-208.56 312.83-278.08-43.45 8.69-373.66 321.52-477.94 304.14-26.07-8.69-34.76-8.69-34.76-34.75-43.44 26.06 26.07 34.75-52.13 78.2-26.07 17.38-69.52 34.76-95.59 60.83v-26.07c-26.07 8.69-173.8 78.21-173.8 104.28v8.69c0-8.69-199.86 112.97-234.62 121.66 17.38 69.51 156.42 139.03 217.24 182.48 69.52 52.14 130.35 139.04 182.49 208.55-60.83 17.38-60.83-26.06-121.66-78.2l-173.79-139.04c-95.59-69.52-86.9-69.52-147.73-165.1-26.07 17.37-34.76 43.44-52.14 69.51-26.07 60.83-34.76 86.9-52.14 69.52l34.76-95.59c-43.45 8.69-34.76 34.76-78.2 34.76 8.69-26.07 0-26.07 26.06-43.45 26.07-26.06 34.76-8.69 60.83-26.06l26.07-34.76c-26.07-43.45-43.45-43.45-60.83-95.59-8.69-34.76-26.07-86.9-26.07-130.35 0-86.89 217.25-304.14 295.46-321.52 26.07 17.38 17.38 8.69 26.07 34.76-86.9 17.38-112.97 52.14-182.49 112.97-104.28 104.27-130.35 182.48-60.83 321.52 26.07 52.14 60.83 34.76 78.21 86.9l86.9-60.83c8.69-8.69 8.69 0 17.38-8.69l8.69-8.69c-43.45 0-69.52 26.07-112.97 26.07 8.69-34.76 86.9-60.83 112.97-86.9 26.07-17.38 95.58-52.14 112.96-78.21-52.13 8.69-182.48 95.59-225.93 130.35-8.69-8.69-8.69 17.38 0-26.07h-60.83c34.76-43.45 139.04-86.9 182.49-121.66l460.55-286.76c86.9-52.14 52.14-26.07 95.59-17.38 0-43.45 0-60.83 34.76-69.52 0 43.45-26.07 60.83-43.45 95.59l-8.69 8.69c-8.69 34.76-26.07 34.76-43.45 52.14 60.83 0 34.76-8.69 69.52-43.45 26.07-34.76 26.07-17.38 43.45-60.83 60.83-130.34 199.86-191.17 312.83-269.38 0-8.69 8.69-8.69 8.69-17.38h26.07c-26.07 17.38-26.07 34.76-43.45 52.14-26.07 26.07-34.76 17.38-17.38 52.14 34.76-26.07 60.83-86.9 95.59-112.97 0 78.21-34.76 78.21-52.14 130.35 52.14-34.76 78.21-104.28 78.21-173.8 78.21-43.45 130.34-95.59 208.55-139.03l69.52-43.45c-8.69 17.38-17.38 43.45-17.38 69.51zm-973.25 773.39c-17.38 17.38 8.69 8.69 8.69 8.69 26.07 8.69 0-17.38-8.69-8.69zm112.96-86.89c0-17.38-8.68 0-8.68 0h-8.69c0 26.06 8.69 0 17.37 0zm52.14-43.45-26.07 26.07c26.07-17.38 17.38 8.69 26.07-26.07zm121.66-43.45c34.76-34.76 121.66-86.9 147.73-121.66-34.76 8.69-182.49 130.35-217.25 156.42-8.69 0-69.52 52.14-69.52 52.14zm373.66-199.87 26.07-26.07-8.69-8.69-26.07 26.07zm-895.05 669.11c17.38 8.69 0 8.69 26.07 26.07 0-17.38-17.38-34.76-17.38-34.76zm782.08-677.8c17.38-17.38 26.07-34.76 43.45-52.13 8.69-8.69 17.38-8.69 26.07-17.38l17.38-17.38c0-8.69 0-8.69 0-8.69l-8.69-8.69c-17.38 17.38-26.07 34.76-43.45 52.14-26.07 34.75-43.45 43.44-43.45 43.44zm34.76-130.34c-26.07 17.38-52.14 60.83-86.9 95.58-17.38 26.07-17.38 34.76-34.76 52.14l-26.06 60.83c17.38-8.69 8.69 0 17.38-8.69 26.06-26.07 17.37-34.76 34.75-69.52l69.52-95.58c26.07-26.07 26.07 0 26.07-26.07zm-8.69 34.76s-8.69 8.69-8.69 8.69c0 26.07 8.69 8.69 17.38-8.69 0-26.07-8.69 0-8.69 0zm-947.18 573.52c-8.69 26.07 8.69 0 8.69 0 26.07-17.38-8.69 0-8.69 0zm556.14-312.83c-34.76 8.69-243.31 147.72-295.45 173.79-17.38 17.38-26.07 17.38-43.45 34.76-26.07 8.69-8.69 0-26.07 8.69-8.69 8.69-8.69 8.69-17.38 17.38 43.45-8.69 330.21-191.17 382.35-234.62zm1998.65 721.25c-26.07-17.38-34.76-52.14-60.83-78.21l-60.83-43.45c-8.69-8.69 0 0-8.69-17.38 52.14 26.07 95.59 43.45 121.66 86.9 8.69 26.07 8.69 17.38 8.69 52.14zm-999.33-1199.19c8.69-130.34 69.52-252 112.97-364.97 17.38-17.38 17.38-26.07 26.07-52.14l26.07-52.13c0 104.27 69.52 278.07 121.66 356.28 86.89 147.72 78.2 147.72 182.48 295.45 86.9 139.03 295.45 330.21 486.63 347.59 43.45 0 52.14-8.69 78.2 26.07-86.89 17.38-69.51 0-139.03 52.14-86.9 60.82-182.49 147.72-252 217.24-43.45 43.45-26.07 69.52-43.45 43.45 43.45-43.45 95.58-173.8 139.03-234.63 17.38-26.06 34.76-52.13 43.45-78.2-43.45 8.69-78.21 60.82-95.59 95.58-34.75 60.83-208.55 286.77-269.38 304.15-17.38-78.21 0-234.63-26.07-408.42-17.38-78.21-34.76-182.49-69.51-260.7-34.76-52.13-43.45-43.44-60.83-43.44 43.45 69.51 69.51 182.48 69.51 304.14-34.75-26.07-78.2-225.94-78.2-260.7h-17.38c0 52.14 26.07 95.59 34.76 139.04 43.45 191.17 52.14 234.62 52.14 460.56h8.68c0-60.83-8.68-95.59 8.69-147.73l8.69-34.76c8.69 60.83 17.38 86.9-17.38 191.18l-43.44 69.51c0-43.44-8.69-43.44-8.69-43.44l-17.38-26.07c-43.45-139.04-8.69 34.76-43.45-130.35l-17.38-139.04c-26.07 17.38 0 0-26.07 34.76 0-52.13 8.69-69.51 8.69-121.65 0-86.9-26.07-156.42-26.07-173.8 0-121.65 43.45-252-8.69-286.76 0 78.21-26.07 130.35-26.07 199.86 0 182.49 26.07 34.76-8.69 278.08-8.69 60.82-8.69 26.07-26.07 60.82-17.38 26.07-17.38 130.35-69.52 165.11-17.38-69.52 17.38-121.66 26.07-191.17 17.38-130.35 104.28-469.25 104.28-582.22h-8.69c0 52.14-26.07 130.35-43.45 173.8-8.69 60.83-17.38 130.34-34.76 182.48-8.69 60.83-26.07 112.97-43.45 173.8-8.69 52.14-8.69 130.34-43.44 165.1 0-121.65-8.69-330.21 17.37-425.8 8.69-43.44 17.38-43.44 17.38-95.58 0-95.59 69.52-165.11 69.52-252.01-26.07 26.07-43.45 52.14-78.21 69.52zm-1850.91 921.12c34.76-17.38 60.83-43.45 95.58-60.83 8.69 26.07 0 0 0 43.45l34.76-8.69c-17.38 34.76-52.14 52.14-86.89 69.51zm3050.1 69.51c-43.45-156.41-34.76-86.89-95.59-147.72l-43.45-78.21 8.69-8.69c8.69 8.69 8.69 17.38 17.38 26.07 60.83 69.52 112.97 60.83 165.11 86.9 0 69.52-17.38 95.58-17.38 208.55-26.07-26.07-26.07-52.14-34.76-86.9zm-3623.63-486.62c0-43.45 8.69-95.59 8.69-139.04l17.38-347.59c0-43.45-8.69-34.76 17.38-52.14l52.14 173.8c17.38 60.83 34.76 104.28 34.76 182.48l-8.69-8.69h-8.69v-8.69h-8.69c-26.07-26.07-8.69-26.07-34.76-43.44 0 26.06-8.69 26.06-8.69 52.13-17.38 78.21 17.38 260.7 26.07 330.21 8.69 60.83 26.07 139.04 26.07 199.87 8.69 86.9 0 130.34 17.38 199.86 8.69 104.28 0 95.59-34.76 173.8l-86.9 191.17c-78.2 121.66-60.83 234.63-147.72 234.63-8.69-34.76-43.45-78.21-69.52-104.28-86.9-147.73-95.59-191.18-139.04-364.97-86.89-399.73-147.72-330.21-182.48-495.32l34.76 52.14c8.69 17.38 17.38 34.76 26.07 52.14 26.07 43.45 43.45 43.45 60.83 104.28 17.37 34.76 34.75 78.2 52.13 112.96 52.14 191.18 52.14 243.32 165.11 417.11 17.38 34.76 69.52 121.66 104.28 130.35 26.07-17.38 43.44-43.45 43.44-95.59-34.75 0-43.44-8.69-43.44-43.45 34.75-17.38 60.82 0 69.51-52.14 17.38-43.44 0 8.69 8.69-34.76 0-17.37 8.69-26.06 8.69-43.44l34.76-173.8c26.07-8.69-17.38 0 17.38 8.69h8.69c0 156.42-26.07 95.59-34.76 182.49 26.07-17.38 69.52-69.52 69.52-112.97s-34.76-286.76-78.21-312.83c17.38 112.96 0 208.55-26.07 321.52-8.69 60.83-17.38 60.83-52.13 95.59-17.38 26.07-43.45 60.82-60.83 78.2-34.76-26.07-95.59-95.58-121.66-130.34-34.76-34.76-60.83-121.66-69.52-182.49-52.14-191.17-86.9-191.17-130.34-312.83l-17.38-34.76c-8.69 0-8.69 0-8.69 0l43.45 17.38c17.38 8.69 17.38 8.69 26.06 26.07 26.07 17.38 34.76 34.76 60.83 52.14-17.38-69.52-60.83-52.14-34.76-69.52l43.45 43.45c60.83 43.45 78.21 95.59 130.35 130.35-8.69-43.45-86.9-112.97-121.66-147.73s-104.27-95.59-156.41-112.97v-17.38c43.45 0 112.96 34.76 139.03 60.83 52.14 34.76 69.52 26.07 112.97 86.9 95.59 121.66 26.07 60.83 69.52 191.17 8.69 26.07 17.38 26.07 26.07 60.83v-43.45c26.07 17.38 52.14 78.21 52.14 112.97 8.69 0 34.75 8.69 8.69-52.14-8.69-17.38-17.38-34.76-34.76-52.14-17.38-60.82-26.07-86.89-52.14-130.34 60.83 17.38 60.83 139.03 130.34 156.41-8.69-17.38-26.07-60.82-26.07-86.89 34.76 26.07 0 17.38 34.76 26.07-17.38-69.52-26.07-52.14-43.44-95.59-43.45-69.52-60.83-60.83-139.04-139.04-52.14-52.14-60.83-26.07-60.83-69.52 34.76-8.69 26.07-26.07 69.52-26.07 165.1 0 173.79 17.38 173.79-26.06 0-26.07-8.69-34.76-8.69-78.21h8.69c0 43.45 8.69 86.9 34.76 104.27 0-60.82-17.38-69.51-17.38-121.65zm8.69 816.83c26.07-8.68 17.38 17.38 17.38-26.06zm-165.1-347.59c-34.76 26.07 8.69 86.9 17.38 95.59-8.69-43.45-17.38-43.45-17.38-95.59zm3588.87-356.28c43.44-17.37 86.89 17.38 86.89 43.45 17.38 43.45 0-8.69 0 17.38s43.45 60.83 69.52 112.97c-17.38 0-112.97-26.07-86.9-60.83l8.69-8.69c-26.07-8.69-8.69-8.69-43.45-26.07l17.38-26.07c-34.75 0-52.13-17.38-52.13-52.14zm-130.35 60.83c8.69-52.14 26.07-26.07 34.76-69.51 52.14 8.68 52.14 0 69.52 60.82 26.07 69.52 95.58 217.25 112.96 269.39 26.07 8.69-17.38 8.69 8.69-8.69 17.38-8.69-26.07-8.69 8.69 0 26.07 8.69 43.45 60.82 52.14 86.89 17.38 52.14 43.45 243.32 17.38 295.46-60.83-17.38-147.73-243.32-165.1-304.15h-26.07c0 43.45 8.69 43.45 8.69 78.21l-34.76-78.21c-34.76 26.07-8.69 8.69-8.69 52.14-112.97-26.07-34.76-60.83-217.25-60.83-52.14 0-69.51 0-86.89 26.07 156.41 0 225.93 95.59 304.14 199.87 26.07 26.07 43.45 60.83 69.52 95.58 130.34 182.49 147.72 269.39 147.72 521.39l-17.38 78.21v8.69c-8.69-26.07-17.38-52.14-26.07-78.21l-60.83-225.93c-26.07-52.14-86.89-217.25-130.34-252.01 0 34.76 95.58 243.32 121.65 304.14 17.38 60.83 26.07 104.28 43.45 165.11 43.45 130.35 78.21 269.38 104.28 417.11 26.07 147.72 0 312.83-26.07 460.55-34.76 156.42-52.14 147.73-78.21 338.91-34.76 260.69-112.96 408.41-199.86 634.35-34.76 86.89-60.83 217.24-147.73 269.38l60.83-121.66c95.59-225.93 173.8-451.86 199.87-712.56 17.37-147.72 26.06-304.14 26.06-460.55 0-95.59-43.44-451.87-69.51-564.84-8.69-52.14-8.69-95.58-26.07-139.03-26.07-112.97 0-286.77-112.97-356.28 8.69 26.07 8.69 26.07 17.38 60.82 26.07 60.83 34.76 112.97 34.76 182.49v-8.69l-17.38-26.07c-69.52-156.41-130.35-304.14-295.45-382.35-139.04-69.52-382.35-52.14-486.63-60.83-43.45-8.69-104.28 8.69-121.65-52.14 112.96-26.06 199.86-43.44 312.83-78.2 112.96-43.45 69.51-17.38 156.41-17.38 8.69 0 26.07-8.69 52.14-8.69 34.76 0 26.07 8.69 69.52 17.38 17.38 8.69 17.38 8.69 43.45 8.69 78.21 8.69 165.1 52.14 225.93 104.27 52.14 60.83 78.21 156.42 95.59 234.63 8.69 26.07 17.38 52.14 26.07 78.21l121.65 530.07c8.69 34.76 17.38 52.14 26.07 86.9s17.38 43.45 17.38 86.9h8.69c0-60.83-8.69-78.21-8.69-130.35 0-121.66-34.76-225.93-52.14-338.9-26.07-147.73-60.82-278.07-121.65-399.73-8.69-43.45-26.07-60.83-34.76-95.59-52.14-104.27 17.38-60.83-112.97-147.72-147.72-86.9-139.03-43.45-260.69-69.52-34.76-8.69 0-8.69-43.45-17.38-78.21-8.69-182.48 0-234.62 26.07 8.69-43.45 78.2-121.66 112.96-139.04l173.8-69.52c86.9-34.75 338.9-69.51 425.8-69.51-17.38-26.07 0-8.69-34.76-26.07-26.07 0-34.76 0-60.83 0 34.76-34.76 104.28-26.07 121.66-78.21-112.97 26.07-234.63 112.97-347.59 112.97 17.38-26.07 252-234.63 312.83-252.01-17.38-26.07-8.69-8.69-26.07-17.38zm-2467.89-34.76c0-34.75 8.69-60.82 17.38-86.89 43.45-60.83 112.97-86.9 182.48-104.28 173.8-69.52 95.59-34.76 191.18-104.28 278.07-225.93 147.72-217.24 269.38-417.11 52.14-86.89 34.76-95.58 104.28-139.03l199.86-139.04c121.66-95.58 104.28-78.21 208.56-182.48 112.96-121.66 234.62-234.63 286.76-399.73 17.38-34.76 8.69-34.76 52.14-43.45 26.07 43.45 17.38 52.14 17.38 121.66 0 60.82-95.59 199.86-139.04 260.69-26.07 26.07-52.14 34.76-60.83 69.52 43.45-26.07 86.9-86.9 130.35-112.97-8.69 43.45-34.76 60.83-60.83 95.59-112.97 104.27-60.83 52.14-86.9 130.34l-26.07 43.45c-8.69 26.07-8.69 34.76-43.45 43.45h-17.38c-52.13 17.38-191.17 121.66-225.93 165.11-8.69 0-78.21 130.34-86.9 121.65l-8.69-8.69c17.38-8.69 60.83-78.2 78.21-95.58-26.07 8.69-130.34 121.65-191.17 173.79l-173.8 191.18c34.76-8.69 121.66-78.21 156.42-104.28 225.93-130.35 538.76-382.35 677.8-599.59 26.07-26.07 34.76-43.45 52.14-78.21 43.45-60.83 95.58-199.87 139.03-234.63 0 60.83 0 104.28-8.69 156.42 17.38-17.38 43.45-34.76 60.83-52.14 26.07-26.07 34.76-34.76 69.52-8.69 78.21 34.76 130.35 43.45 139.04 78.21-147.73 0-199.87 95.59-321.53 217.24l-104.27 104.28c-8.69 17.38-17.38 17.38-26.07 34.76-26.07 26.07-43.45 52.14-60.83 78.21-52.14 43.45-582.21 373.66-660.42 417.11-34.76 17.38-52.14 26.07-86.9 43.44v8.69c0 8.69 8.69-8.69 0 8.69-17.38 26.07-417.11 225.94-477.94 269.39l17.38-34.76c43.45-52.14 95.59-17.38 112.97-78.21-26.07 8.69-121.66 34.76-156.41 60.83-8.69 8.69-86.9 139.03-60.83 43.45h-17.38c-8.69 26.07-34.76 69.51-60.83 86.89zm634.35-356.28c-60.83 17.38-121.65 52.14-173.79 78.21l-147.73 78.21c-8.69 0-8.69 8.69-8.69 8.69 0-8.69-8.69 0-8.69 0 26.07 0 321.52-139.04 338.9-165.11zm590.9-608.28s8.69-8.69 17.38-17.38h8.69l26.07-26.07c-34.76 8.69 0 0-17.38 8.69l-43.45 26.07zm34.76-121.65 69.52-69.52-8.69-8.69-69.52 69.52zm-2259.33 999.32c60.83-43.45 78.21-112.97 121.65-165.11-8.69 147.73-8.69 26.07 0 173.8-43.44-8.69-8.69 0-34.75-17.38-52.14-52.14-69.52 26.07-78.21 17.38zm-1181.81-43.45c34.76 8.69 52.14 26.07 69.52 52.14-34.76 0-78.21-17.38-112.97-26.07l78.21 43.45c-43.45 8.69-69.52 8.69-121.66 8.69 8.69-43.45 17.38-8.69-26.07-43.45l-43.44-69.52c-8.69-8.69 8.69-8.69 8.69-8.69 52.13-26.07 8.69-17.38 34.75-17.38 34.76 0 17.38 8.69 52.14 8.69 17.38 60.83-8.69 26.07 60.83 52.14zm-425.8-347.59c0-8.69 43.45-52.14 52.14-60.83 8.69 26.07 8.69 26.07 0 60.83s-17.38 26.07-17.38 60.83c0 26.07 78.21 121.65 95.59 139.03 26.07 26.07 95.59 69.52 112.97 121.66-26.07-8.69-34.76-8.69-43.45-26.07-34.76-26.07 0 0-17.38-34.76-43.45 17.38 34.76-17.38-8.69 8.69-26.07 8.69 0-17.38-86.9-17.38-8.69-8.69 0-26.07-34.76-78.21-17.38-26.07-43.45-43.45-60.83-69.52 17.38-43.44-8.69 8.69 17.38-17.37 8.69-17.38 0-17.38 0-26.07 0-26.07-8.69-17.38-8.69-60.83zm225.94 304.14c26.07 26.07-26.07-26.07 0 0zm-34.76-26.07c-17.38 17.38 8.69 8.69 8.69 8.69 26.07 8.69 0-17.38-8.69-8.69zm1720.57 451.87c-8.69-69.52-8.69-130.35-17.38-182.49-26.07-173.79-52.14-156.41-52.14-338.9 34.76 26.07 43.45 86.9 52.14 147.73 60.83 225.93 60.83 260.69 60.83 530.07-52.14-34.76-26.07-86.9-43.45-156.41zm-60.83-582.22c26.07 17.38 34.76 26.07 34.76 78.21 0 0 0 0 0-8.69l-17.38-8.69c-8.69-17.38 0 0-8.69-17.38s-8.69-17.38-8.69-43.45zm-1494.64-95.58c43.45 0 52.14-26.07 104.28-26.07 8.69 0 26.07 17.38 34.76 26.07 0 34.76-8.69 17.38-8.69 52.13 0 34.76 60.83 104.28 86.9 121.66-8.69-34.76-52.14-69.52-52.14-69.52l8.69-8.69c26.07 34.76 52.14 43.45 52.14 78.21l-17.38 43.45c-8.69 17.38-17.38 26.07-34.76 34.76-26.07-17.38-86.9-130.35-86.9-173.8 0-26.07 17.38-43.44 26.07-60.82zm95.59 8.69c26.07-8.69 17.38 17.38 17.38-26.07zm2155.06-347.59c-8.69-69.52-26.07-34.76-86.9-139.04-8.69-17.38-17.38-26.07-17.38-52.14 43.45 8.69 139.04 130.35 173.8 165.11l8.69 8.69c78.21 69.51 52.14 104.27 78.21 191.17l43.44 112.97v26.07c8.69 17.38 17.38 8.69 0 26.07-17.38-26.07-34.76-86.9-52.13-112.97 0 43.45 26.06 60.83 26.06 104.28l-17.37-26.07c-8.69-8.69-8.69-8.69-8.69-26.07l-52.14-156.42c-8.69-43.45-17.38-69.52-43.45-104.27 0 0-26.07-43.45-26.07-43.45-17.38-8.69-8.69-8.69-17.38 17.38zm147.73 217.24c8.69 0-8.69-26.07-8.69 0s8.69 0 8.69 0zm-634.36-425.8c0-34.76-17.38-60.83-26.07-86.9-17.38-34.75-26.07-156.41-26.07-199.86s-8.68-60.83 8.69-86.9c8.69 43.45 43.45 112.97 60.83 147.73 43.45 86.9 52.14 112.97 104.28 199.86 17.38 17.38 26.07 43.45 43.45 60.83 121.66 208.55 139.03 208.55 252 356.28l165.11 243.31c-34.76-17.38-86.9-34.76-86.9-78.2 0-17.38-139.04-199.87-156.42-217.25 8.69 34.76 34.76 69.52 52.14 104.28l52.14 69.52c17.38 26.07 26.07 8.69 8.69 26.07-8.69-8.69-17.38-17.38-26.07-17.38l-8.69-17.38-52.14-60.83c-34.76-60.83-43.45-78.21-78.2-121.66-34.76-26.07-182.49-243.31-208.56-286.76-52.14-78.21-78.21-182.48-104.28-199.86 0 43.45 8.69 69.51 26.07 104.27 17.38 78.21 0 52.14 17.38 78.21 26.07 69.52 52.14 112.97 78.21 173.8 34.76 52.13 104.28 191.17 139.04 243.31 17.38 17.38 43.45 43.45 52.14 69.52-60.83-43.45-104.28-69.52-147.73-130.35-43.45-52.14-182.49-173.79-252-286.76-130.35-199.86-104.28-173.8-34.76-286.76l26.07-26.07c0 60.83 95.58 208.55 121.65 225.93zm-1755.33 512.7c78.21-43.45 69.52-69.52 104.28-121.66 17.38-17.38 17.38-17.38 52.14-17.38-8.69 26.07-34.76 78.21-52.14 95.59-17.38 26.07-52.14 34.76-69.52 43.45l-17.38 8.69c0-8.69-8.69 0-8.69 0zm2302.79 156.41c-17.38-8.69-43.45-17.38-60.83-34.76-78.21-52.13-95.59-60.82-130.35-130.34 17.38 8.69 173.8 139.03 191.18 165.1zm669.11-225.93c26.07-17.38 43.45-43.45 69.52-69.52l78.2-52.14v8.69zm-3406.38 34.76c-69.52-34.76-34.76-34.76-34.76-34.76h8.69 34.76zm773.38-52.14c78.21 0 139.04-17.38 165.11-17.38v8.69c-43.45 0-8.69 0-43.45 17.38-26.07 17.38-17.38 8.69-52.14 8.69-52.14 8.69-52.14 8.69-86.9 26.07 8.69-26.07 8.69-26.07 17.38-43.45zm-338.9 34.76c8.69-52.14 43.45-43.45 43.45-60.83h8.69l-8.69 26.07c-26.07 34.76-17.38 26.07-43.45 34.76zm2589.55 165.1c0-60.82 17.38-86.89 26.07-139.03 17.38-104.28 17.38-95.59 60.83-95.59-8.69 17.38-17.38 43.45-17.38 69.52-8.69 26.07-8.69 34.76-26.07 52.14 0 8.69-34.76 121.65-43.45 104.27zm-2102.92-382.35c52.14-8.68 95.59-8.68 147.73-17.37 78.2-17.38 199.86 0 304.14 0v8.69c-26.07 0-52.14 0-78.21 0-69.52 8.68-52.14 0-43.45 17.37 8.69 26.07 0 8.69 43.45 0 26.07 0 43.45 0 60.83-8.69-26.07 34.76-43.45 60.83-95.59 69.52-34.76 8.69-434.49 17.38-469.25 0 0 34.76-8.69 43.45-8.69 86.9v-104.28c26.07 8.69-8.69 8.69 26.07 8.69h78.21c95.59-8.69 269.38 0 312.83-26.07-52.14-8.69-34.76-17.38-86.9-8.69-95.58 8.69-269.38-17.38-330.21 8.69v-26.07zm2033.4 391.04c-8.69-26.07-8.69-34.76-17.38-69.51-8.69-17.38-8.69-43.45-17.38-69.52h-17.38c0 43.45 8.69 52.14 8.69 104.27h-8.69l-17.38-173.79c-8.69-60.83-17.38-86.9-17.38-165.11 34.76 0 26.07 0 34.76 34.76 8.69 17.38 8.69 26.07 8.69 52.14 0 34.76 8.69 78.21 17.38 104.28 17.38 60.83 69.52 121.66 26.07 182.48zm-2493.96-312.83c17.38 8.69 8.69 0 17.38 8.69-69.52 0-582.21-8.69-669.11-17.38l-191.17-34.76v-8.69c34.76 0 60.83 8.69 95.58 17.38 86.9 8.69 165.11 8.69 199.87 8.69 165.1 34.76 469.24-43.45 547.45 26.07zm1720.57-8.69c-17.38-17.38-26.07-34.76-34.76-60.83 34.76 8.69 34.76 17.38 34.76 60.83zm721.25-86.89h-8.69v-8.69l-95.58-43.45c-8.69 0 8.69 26.07-17.38-8.69-17.38-17.38-17.38-26.07-26.07-43.45l-130.35-147.73c-17.38-26.07-26.07-43.45-43.45-69.52-52.14-86.89-43.45-8.69-43.45-156.41h17.38c0 130.35 95.59 199.86 147.73 269.38 43.45 43.45 78.21 130.35 147.72 165.11 8.69 8.69 60.83 34.76 60.83 34.76zm-3406.38-34.76c173.8 43.45 417.11 34.76 625.66 34.76 121.66 0 208.56 8.69 321.52 8.69 121.66 0 208.56 8.68 312.83 17.37v26.07c-60.82 0-95.58-8.69-165.1-8.69l-643.04-17.38c-173.8 0-147.73 8.69-321.52-26.06-43.45-8.69-104.28-8.69-130.35-34.76zm3536.73-69.52c0-26.07 0-34.76 8.69-52.14 8.69 17.38 8.69 26.07 8.69 52.14v60.83c0 8.69-17.38 26.07-17.38 26.07 112.97-8.69 217.24-26.07 312.83-78.21-8.69 26.07-43.45 69.52-60.83 86.9-17.38 34.75-26.07 60.82-43.45 95.58-17.38 60.83-43.45 121.66-69.51 173.8-17.38 17.38-8.69 8.69-17.38 17.38 0-130.35 95.58-217.25 95.58-304.14-52.14 0-156.41 26.07-217.24 43.44l43.45 17.38c34.76-8.69 8.69 8.69 43.45-8.69-8.69 52.14-8.69 52.14-60.83 60.83-60.83 8.69-34.76 8.69-78.21 34.76-17.38-34.76 0-43.45-8.69-69.52-8.69-52.13-17.38-26.07-17.38-69.51 8.69-8.69 43.45-112.97 52.14-121.66 26.07 8.69 8.69 0 17.38 17.38zm-2493.96-8.69c69.52-34.76 95.59-104.28 95.59-182.49 69.52 43.45 34.76 121.66-52.14 165.11zm2945.83-130.35c52.14-104.27 112.96-217.24 182.48-312.83 26.07-34.76 52.14-78.21 86.9-104.28-8.69 34.76-43.45 104.28-60.83 139.04-17.38 52.14-43.45 86.9-69.52 130.35-52.14 112.96-34.76 104.27-112.96 182.48-8.69 8.69-17.38 17.38-26.07 26.07l-34.76 8.69zm-147.73-130.34c0 17.38 0 8.69 8.69 0 34.76-17.38-8.69 0-8.69 0zm-417.11 191.17c-34.76-26.07-26.07-34.76-52.14-69.52-17.38-34.76-26.07-34.76-43.44-69.52-17.38-34.75-26.07-43.44-52.14-69.51-34.76-60.83-60.83-130.35-78.21-156.42-52.14-69.52-52.14-130.35-69.52-156.41-17.38-34.76-8.69-8.69-26.07-34.76-17.38-17.38-8.69-17.38-17.38-34.76 43.45 8.69 0-17.38 52.14 43.45 26.07 26.07 17.38 17.38 26.07 60.82l52.14 130.35c34.76-8.69 17.38-17.38 52.14-26.07 0 26.07 17.38 60.83 26.07 86.9 17.38 52.14 8.69 60.83 26.07 78.21 26.06 17.38 156.41 8.69 199.86 8.69 8.69-34.76 8.69-43.45 8.69-86.9 8.69 8.69 0 0 8.69 17.38 17.38 43.45-8.69 26.07 8.69 60.83 8.69 34.76 17.38 0 52.14 17.38-8.69-43.45-8.69-8.69 0-26.07 52.14 0 112.96-8.69 156.41-26.07l17.38-17.38c252.01-86.9 112.97-104.28 243.32-130.35-17.38-34.76 0-17.38-26.07-26.07 17.38-17.38 26.07-34.76 52.14-43.45 0 0-17.38 17.38-17.38 17.38-8.69 26.07 26.06 34.76-34.76 112.97-52.14 69.52-60.83 95.59-112.97 121.66-8.69 0-8.69-8.69-8.69 17.38-8.69 26.07 8.69 8.69-17.38 26.07-69.52 60.82-34.76 43.44-95.59 112.96-52.14 52.14-43.45 26.07-52.14 26.07l-52.13-26.07 8.69 43.45h8.69v8.69c0 17.38 8.69 0 0 17.38-8.69 8.69-8.69 0-17.38 8.69-26.07-52.14-8.69-43.45-52.14-86.9-26.07-34.76-34.76-43.45-69.52-60.83-86.9 60.83-60.83 86.9-104.28 130.35zm-173.79-356.28c-8.69 43.45-8.69 26.07 8.69 60.83 26.07 52.14 17.38 60.83 34.76 43.45-26.07-26.07-26.07-60.83-26.07-104.28zm-95.59-156.41c8.69 0-8.69-26.07-8.69 0 0 26.06 8.69 0 8.69 0zm-1998.64-130.35c17.38-26.07 8.69-34.76 43.45-43.45 0 43.45 0 52.14-17.38 78.21l-17.38 52.14c0-8.69 0 0 0 0 26.07 60.82 199.86 0 295.45 477.93 17.38 69.52 26.07 147.73 52.14 199.87-69.52 17.38-147.73 34.76-225.94 34.76 26.07-52.14 17.38-69.52 17.38-130.35h26.07c0-34.76 0-78.21 0-112.97v-95.58l-34.76 78.2c-8.69 26.07-8.69 60.83-8.69 95.59-17.38 139.04 34.76 173.8-78.2 173.8-69.52 0-121.66 0-156.42-43.45 52.14-34.76 156.42-26.07 156.42-112.97 0-78.21-8.69-95.59-69.52-156.42-43.45-34.75-60.83-17.37-60.83-95.58-34.76 8.69-17.38 8.69-43.45-8.69 0 43.45 17.38 26.07 26.07 69.52-43.45-8.69-17.38 8.69-26.07-43.45-26.07 17.38-8.69 8.69-26.07 43.45l-26.07 34.75c-17.38-69.51-43.45-60.82-17.38-139.03 43.45-104.28-26.07-104.28 26.07-165.11 26.07-26.07 43.45-52.14 69.52-43.45 43.45 0 95.59 26.07 121.66 43.45 52.14 34.76 34.76 43.45 43.45 121.66 8.69 17.38 8.69 43.45 17.37 69.52 8.69 34.76 0 34.76 26.07 52.14 0-78.21-26.07-104.28-34.75-173.8 26.06 17.38 78.2 95.59 78.2 130.35h17.38c0-130.35-156.41-278.07-295.45-278.07 8.69-26.07 8.69-26.07 8.69-60.83 43.45 0 69.52 8.69 112.97 0 0-43.45 8.69-17.38-17.38-17.38l-121.66-17.38c-17.38 34.76 0 26.07-34.76 60.83-34.76 17.38-139.03 112.96-147.72 139.03 34.76 17.38 43.45 0 69.51 17.38 69.52 34.76 8.69 112.97 8.69 156.42 0 86.9 69.52 86.9 8.69 173.79 34.76-8.69 43.45-17.38 43.45 34.76 78.21-52.14 0-86.9 95.59-130.34l26.07 69.51c17.38 52.14 0 52.14-8.69 78.21v8.69l-8.69 34.76c0 17.38-60.83 69.52-69.52 78.21 8.69 17.38-8.69 8.69 17.38 17.38v34.76c-86.9 0-17.38 17.38-182.48 0 69.51-147.73-43.45-121.66-43.45-234.63 0-34.76 17.38-43.45 43.45-52.14 0 43.45-8.69 78.21 26.07 104.28 0-26.07 0-52.14 0-78.21 8.69-26.07 17.38-17.38 17.38-52.13 0-34.76-17.38-43.45-17.38-78.21 0-52.14 17.38-78.21 26.06-112.97-26.06 8.69-17.37 8.69-34.75 26.07-17.38 43.45-17.38 86.9-17.38 139.04-52.14 8.69-95.59 52.13-95.59 112.96 0 43.45 34.76 78.21 52.14 112.97s0 69.52 8.69 112.97h-69.52c8.69-43.45 26.07-26.07 26.07-52.14 0-69.52-17.38-78.21-60.83-121.66-26.07-26.07-52.14-60.83-86.9-69.52 8.69 34.76 17.38 60.83 43.45 86.9 17.38 26.07 52.14 43.45 52.14 78.21 0 52.14-17.38 69.52-69.52 69.52 0-43.45 8.69-17.38-17.38-34.76v34.76h-130.34l-8.69-130.35c0-43.45 17.38-34.76 8.69-78.21 0-8.69 0 8.69-8.69-17.38-34.76-182.48 86.89-304.14 112.96-382.35-26.07 17.38-43.45 43.45-60.82 78.21-8.69 8.69 0-17.38-17.38-8.69-8.69 34.76-17.38 43.45-34.76 78.21-17.38 78.21-17.38 199.86-69.52 243.31 0-52.14 17.38-86.89 26.07-139.03 8.69-78.21 17.38-147.73 60.83-199.87 34.76-43.45 78.2-60.83 130.34-78.21 8.69 17.38 17.38 60.83 17.38 95.59h8.69c0-60.83 0-95.59 34.76-130.34 26.07-26.07 69.52-43.45 86.9-69.52-8.69-34.76 0 0-8.69-26.07-17.38-17.38-17.38 8.69-8.69-8.69 26.07-34.76 347.59-8.69 399.73-8.69zm-530.08 738.63c0 26.07 8.69 0 8.69 0 8.69 0-8.69-26.07-8.69 0zm391.04-182.49c43.45 0 43.45 8.69 60.83-26.07-26.07 8.69-26.07 8.69-60.83 8.69zm-60.83 69.52c8.69 0 0-17.38 0-17.38-17.38 0-17.38 17.38 0 17.38zm2398.37-304.14c8.69-86.9 26.07-95.59 52.14-139.04 69.52 34.76 86.9 60.83 86.9 182.49 0 8.69-52.14 52.14-139.04-8.69h8.69 34.76c-17.38-17.38-26.07-26.07-43.45-34.76zm43.45 34.76c-17.38 17.38 8.69 0 8.69 0 43.45 17.38 0-8.69-8.69 0zm182.49-69.52c0-34.76 26.07-69.52 52.14-69.52 104.27 0 60.83 121.66 60.83 147.73-43.45 8.69-52.14 8.69-104.28 8.69 0-34.76-8.69-17.38-8.69-86.9zm269.38-104.28c78.21 52.14 43.45 139.04-26.07 156.42l-8.69-130.35zm69.52-17.38c-26.07-17.38-26.07-17.38 0-43.44l52.14-26.07c-8.69 17.38-26.07 26.07-26.07 34.76-26.07 26.06 8.69 8.68-26.07 34.75zm-2997.97 17.38c0-34.76 26.07-43.45 52.14-60.82 26.07-26.07 17.38-34.76 43.45-60.83 0 86.89-43.45 78.2-60.83 156.41-17.38-8.69-34.76-8.69-34.76-34.76zm-304.14-173.79c0-17.38 0-8.69-8.69-34.76 43.45 26.07-8.69 34.76 43.45 60.83 17.38 8.69 52.14 17.38 69.52 8.69-8.69 17.38 0 8.69-17.38 17.38l-60.83 43.45c-234.62 104.27-217.24 121.65-243.31 417.1-8.69 34.76-17.38 69.52-26.07 104.28 0 17.38 0 52.14-8.69 69.52 0 34.76-8.69 17.38 17.38 34.76 26.07-43.45-8.69-69.52 43.45-165.11 34.76 8.69 17.38 8.69 43.45 26.07-8.69 26.07-8.69 60.83-17.38 86.9-26.07 52.14-8.69 17.38-8.69 104.28l-52.14-8.69c-26.07-8.69 0 8.69-52.14 8.69 0-112.97 8.69-165.11 17.38-278.08 8.69-60.82 17.38-147.72 34.76-217.24 60.83-199.86 225.93-165.1 225.93-278.07zm434.49-60.83c-86.9 17.38-312.83 8.69-399.73-8.69-8.69-17.38-8.69-17.38-8.69-43.45v-26.07c43.45 0 95.59 17.38 139.04 17.38 95.59 17.38 312.83 26.07 417.11 26.07-43.45 34.76-69.52 8.69-121.66 26.07-26.07 8.69 8.69 0-26.07 8.69zm-451.87-69.52c17.38 17.38 17.38-8.69 17.38 52.14-26.07 0-34.76 0-34.76-26.07s0-17.38 17.38-26.07zm3667.08-60.83c-8.69 26.07 0 17.38-17.38 34.76 8.69-26.07 0-17.38 17.38-34.76zm-573.52 347.59c-8.69 8.69 0 0-8.69 8.69v8.69 17.38c-43.45-26.07-104.28-26.07-121.66 34.76-26.07-17.38-26.07-34.76-26.07-78.21l-8.69 43.45v-8.69l-8.69-8.69c-17.38-17.38 8.69 8.69-34.76 8.69-26.07-8.69-43.45-26.07-78.21-26.07 8.69-52.13 43.45-60.82 0-95.58 0 34.76-8.69 52.14-26.07 78.2-60.82-17.37-78.2-69.51-95.58-69.51l-8.69 8.69c17.38 17.38 26.07 26.07 26.07 60.82 26.07-8.69 26.07-8.69 60.82 8.69l-60.82 112.97v8.69c0-43.45-17.38-104.28-26.07-139.04-26.07-43.44-26.07-52.13-69.52-78.2-52.14-26.07-34.76-52.14-104.28-34.76-86.9 8.69-130.34 69.52-173.79-34.76-26.07-43.45-8.69-26.07 0-60.83-26.07 17.38-8.69 17.38-43.45 17.38-69.52-104.28-69.52-60.83-34.76-182.48 17.38-43.45 0-34.76 34.76-60.83 8.69 34.76 52.14 95.58 43.45 130.34 0 17.38 8.69 0 0 17.38-8.69 8.69-26.07 8.69-8.69 17.38 17.38-17.38 8.69-8.69 34.76-17.38 8.69 60.83-8.69 26.07-26.07 78.21l52.14-43.45c43.44 17.38 0 0 17.37 17.38l60.83 26.07c199.87 69.52 304.14-60.83 382.35-78.21-8.69 26.07-17.38 34.76-34.76 60.83-17.38 43.45 8.69 17.38 8.69 69.52 60.83-17.38 78.21-95.59 95.59-147.73 8.69-34.76 26.07-60.82 34.76-86.89 8.69-60.83-17.38-69.52 34.76-86.9 8.69 34.76 8.69 34.76 0 69.52 43.45 8.69 17.38 8.69 60.83 0 0 43.45-17.38 34.76-17.38 69.51 0 34.76 8.69 43.45 17.38 78.21-34.76-8.69-26.07-43.45-78.21-43.45-17.38 34.76-17.38 69.52-34.76 112.97-17.38 34.76-43.45 52.14-43.45 104.28s86.9-43.45 95.59-52.14l17.38 52.14c156.41 0 69.52-112.97 52.14-199.87-8.69-17.38-17.38-17.38-17.38-26.07l17.38-52.13v17.37c8.69 26.07 17.38 52.14 34.76 78.21 26.06 17.38 69.51 34.76 95.58 52.14s69.52 17.38 104.28 34.76c104.28 34.76 156.42 26.07 260.69-26.07 52.14-17.38 60.83-52.14 104.28-78.21 0 17.38 0 0-8.69 17.38v26.07c26.07-34.76 60.83-43.45 60.83-95.59 0 0-17.38 0-26.07 0s0 8.69-8.69 0c8.69-43.44 17.38-78.2 17.38-139.03 34.76 0 34.76 8.69 52.14 34.76 8.69 8.69 34.76 34.76 34.76 43.45 17.38 26.07 0 34.76 17.38 69.51 8.68 26.07 17.37 26.07 17.37 60.83 0 86.9-26.06 86.9-95.58 121.66-43.45 17.38-60.83 43.45-112.97 60.83-104.28 34.76-139.04-26.07-208.55 8.69-34.76 8.69-26.07 17.38-26.07 17.38v8.69l-52.14 26.07c-17.38 8.69-26.07 0-26.07 26.06-43.45 8.69-17.38-8.68-26.07 17.38-17.38-17.38-17.38-17.38-34.76-26.06 8.69 43.44-17.38 60.82-43.45 34.75 0 52.14-17.38 34.76-17.38 78.21-104.27-52.14-43.45-26.07-69.51-78.21zm-964.57-364.97c26.07-43.44 0-34.75 43.45-34.75 0 78.2-8.69 60.82-8.69 104.27-17.38-8.69-43.45-17.38-43.45-52.14 0-26.07 0 8.69 8.69-17.38zm-2059.47 17.38c139.04 0 338.9-52.13 521.39 8.69 52.13 17.38 60.82 17.38 60.82 86.9-26.06 0-26.06 0-43.44 8.69 8.69-17.38 17.38-17.38 17.38-43.45-8.69-34.76-17.38-34.76-34.76-43.45v8.69 8.69c-8.69 8.69 0 0-8.69 17.38-52.14 0-69.52 17.38-139.04 8.69l-269.38-26.07c-95.59-8.69-78.21-26.07-165.11-8.69 8.69-34.76 8.69-26.07 60.83-26.07zm1268.71 0c8.68-8.69 0 0 17.37-8.69 0-8.69 8.69-8.69 8.69-17.38 139.04-86.89 304.15-173.79 451.87-234.62 347.59-147.72 530.08-165.1 886.36-217.24 104.27-17.38 199.86-43.45 312.83-52.14 147.72-26.07 173.79-8.69 260.69-17.38l173.79-8.69c34.76 0 182.49-26.07 217.25 8.69v8.69c95.59 0 69.52 17.38 86.9-8.69l-60.83-8.69c95.59-8.69 139.03-17.38 217.24 8.69 104.28 34.76 86.9-8.69 260.69 78.21 121.66 69.52 86.9 69.52 121.66 104.27 43.45 26.07 112.97 34.76 139.04 78.21-8.69 0-364.97-156.41-530.08-191.17-225.93-43.45-634.35-26.07-868.97 0-95.59 8.69-182.49 17.38-278.08 34.76-43.44 8.69-78.2 17.38-130.34 26.07-295.45 34.76-599.59 86.89-860.29 225.93zm1937.81-69.51c0-17.38 17.38-60.83 34.76-69.52 69.52-69.52 165.1-8.69 165.1 69.52 0 121.65-199.86 130.34-199.86 0zm-1008.01 278.07c-26.07 0-43.45-8.69-60.83-17.38-104.28-34.76-17.38-43.45-173.79-199.87-60.83-60.82-69.52-43.44-52.14-78.2 34.76 8.69 17.38 8.69 34.76 43.45 34.75 43.44 52.13 26.06 112.96 104.27 69.52 112.97 60.83 60.83 104.28 112.97 17.38 8.69 26.07 17.38 34.76 34.76zm304.14-208.56c-69.52 0-112.97-104.27-60.83-156.41 60.83-52.14 156.42-17.38 156.42 60.83 0 52.14-43.45 95.58-95.59 95.58zm634.35-1042.77c60.83 0 86.9-8.69 147.73-8.69 26.07 0 191.17 17.38 182.48 26.07h-130.34c-43.45 0-78.21 0-121.66 0v8.69c225.93 0 139.04 26.07 208.55 43.45 69.52 17.38 156.42 17.38 252.01 69.52 60.82 34.76 60.82 26.07 43.45 34.76-26.07-26.07-69.52-34.76-112.97-43.45-191.18-52.14-295.45 0-373.66-34.76 8.69 26.07 8.69 17.38 78.21 34.76 78.2 8.69 95.58 26.07 173.79 52.14l451.87 217.24c26.07 8.69 52.14 17.38 78.21 34.76 78.2 34.76 408.42 243.31 408.42 260.69l-8.69 8.69c-34.76-26.07-17.38-17.38-43.45-8.69-69.52 17.38-156.42-86.89-182.49-104.27-34.76-17.38-52.14-26.07-78.21-43.45-225.93-104.28-121.65-34.76-278.07-86.9-95.59-34.76-538.76-17.38-669.11-17.38-165.1 0-312.83 34.76-460.56 52.14l-425.79 78.21c-69.52 17.38-139.04 34.76-199.87 60.83l-295.45 86.89c-69.52 34.76-34.76 26.07-130.35 60.83l-130.34 52.14c34.76-17.38 60.83-43.45 86.9-69.52 139.03-95.59 86.89-43.45 191.17-104.27 26.07-17.38 60.83-52.14 95.59-52.14 17.38 0 69.52 17.38 112.96-17.38 86.9-104.28 86.9-69.52 243.32-130.35l43.45-26.07c-69.52 0-165.11 34.76-208.56 60.83-121.65 86.9-60.83 43.45-173.79 95.59 17.38-52.14 86.89-69.52 130.34-95.59 86.9-69.52 156.42-139.04 260.7-191.17l304.14-147.73c182.48-78.21 338.9-121.66 538.76-139.04 17.38-60.82-26.07 34.76-8.69-17.38zm669.11 973.26c0-26.07 0-26.07 17.38-43.45 34.76-34.76 199.87-112.97 260.69-130.35 0 43.45 0 43.45-34.75 69.52-43.45 52.14-78.21 60.83-147.73 86.9-34.76 17.38-43.45 17.38-95.59 17.38zm-8.69 112.96c26.07-17.38 34.76-17.38 60.83-34.76 86.9-34.76 269.38-173.79 321.52-243.31 26.07-34.76 17.38-34.76 26.07-17.38l-43.45 52.14c-69.52 78.21-156.41 156.42-252 217.24-52.14 26.07-17.38-8.69-52.14 43.45-17.38 17.38-8.69 0-52.14 17.38zm-3667.07-295.45c-26.07-60.83 60.83-156.41 95.58-199.86l78.21-130.35c0 34.76 8.69 52.14 8.69 86.9-17.38 95.59-52.14 130.34-112.96 173.79 8.69 52.14 34.75 86.9 69.51 121.66v8.69c60.83 52.14 112.97 69.52 121.66 139.04-69.52-17.38-69.52-8.69-139.04-8.69zm173.79 173.8c8.69 0-8.69-26.07-8.69 0s8.69 0 8.69 0zm4431.78-52.14c-60.83 0-286.77-104.28-338.9-147.73zm-1790.09-95.59c-8.69-104.28 8.69-86.9 78.21-104.28h17.37l26.07-8.69c78.21-17.38 86.9-43.44 139.04-60.82 139.04-60.83 139.04-26.07 278.07 34.75 52.14 17.38 139.04 43.45 139.04 78.21 0 60.83-112.97 34.76-165.11 34.76h-78.21c-26.06 0-60.82 0-69.51 0-26.07 8.69-60.83 34.76-95.59 43.45-60.83 26.07-86.9 0-139.04 26.07v8.69c-34.76 26.07-112.96 34.76-130.34-34.76 26.07-17.38 34.76-8.69 52.14-34.76-43.45 0-8.69 8.69-52.14 17.38zm-78.21-17.38c0-43.45 0-43.45 34.76-52.14-8.69 34.76 0 43.45-34.76 52.14zm-616.97-60.83c43.45-8.69 95.58-8.69 130.34-26.07 34.76-8.69 0 0 34.76-8.69 112.97-26.07 147.73 69.52 330.21 69.52 8.69-17.38 0-26.07 52.14-26.07 8.69 43.45 17.38 86.9-34.76 130.35-104.27 60.83-86.9-69.52-260.69-69.52h-269.38c0-34.76 8.69-52.14 17.38-69.52zm1181.8-139.03s-8.69-8.69-8.69-8.69l-8.69-8.69c52.14 0 86.9 17.38 104.28 52.14zm243.32-399.73c-26.07-8.69-26.07-8.69-60.83-8.69l-199.87-52.14c-26.07-17.38-8.69-8.69-17.38-17.38 95.59 0 147.73 8.69 243.32 43.45l199.86 86.9zm-1998.65-816.84c17.38-26.07 43.45-52.14 69.52-78.21 156.42-173.79 112.97-243.31 399.73-321.52 130.35-43.45 217.24-52.14 356.28-52.14 173.79 0 703.87 43.45 842.91 130.35 26.07 17.38 104.27 182.49 95.58 208.55-26.07-17.37-26.07-26.06-43.45-52.13 0-17.38-26.06-52.14-26.06-60.83-8.69-52.14 8.68 26.07 0-17.38 0-34.76 0-17.38-8.69-17.38 0 0-34.76-8.69-60.83-8.69 17.38 60.83 78.2 86.9 78.2 234.62v26.07l17.38 26.07v8.69l-8.69 8.69c-26.06-43.45-60.82-86.9-104.27-112.97 17.38 78.21 95.58 191.18 104.27 278.08 8.69 26.06 17.38 78.2 17.38 104.27-78.2-43.45-130.34-121.65-182.48-182.48-17.38-26.07-34.76-52.14-52.14-69.52 17.38 69.52 130.35 173.79 173.8 234.62-60.83-17.38-112.97-52.14-165.11-69.51 43.45 69.51 269.38 147.72 278.07 243.31-17.38-17.38-34.76-34.76-52.14-43.45 8.69 43.45 52.14 69.52 78.21 104.28l86.9 95.58c-78.21 0-78.21-34.76-139.04-43.44 26.07 34.75 34.76 8.68 60.83 43.44-69.52-17.38-139.03-52.13-199.86-60.82l-234.63-17.38c-121.65-8.69-225.93 17.38-312.83 78.2-95.58 52.14 0 8.69-78.2 69.52l-34.76 17.38c34.76 0 43.44-17.38 78.2-17.38-43.44 34.76-139.03 52.14-191.17 52.14-8.69 17.38 8.69 8.69 8.69 17.38-17.38 8.69-52.14 17.38-78.21 26.07-8.69 8.69-26.07 8.69-34.76 17.38-34.76 8.69 0 0-34.76 8.69l286.77-225.94c78.2-60.82 286.76-121.65 391.03-121.65-8.69-17.38 0-17.38-26.07-17.38-86.89 0-156.41 34.76-234.62 60.83-69.52 17.38-139.03 60.83-217.24 69.52 8.69-8.69 0-8.69 17.38-17.38 43.45-17.38 95.58-26.07 121.65-69.52-60.82 8.69-112.96 43.45-173.79 69.52-43.45 26.06-78.21 60.82-112.97 95.58-8.69 17.38-8.69 26.07-17.38 8.69l208.56-347.59c-34.76 17.38-78.21 95.59-112.97 130.35-26.07 43.45-52.14 121.66-95.59 147.72 8.69-34.75 26.07-60.82 43.45-86.89 34.76-86.9 86.9-165.11 139.04-243.32 43.45-52.13 78.2-86.89 121.65-139.03 43.45-34.76 104.28-69.52 139.04-112.97-86.9 17.38-208.55 147.73-260.69 217.24-43.45 43.45-173.8 286.77-182.49 295.46 8.69-34.76 0-17.38 0-60.83 17.38-78.21 52.14-191.18 95.59-260.69 17.38-34.76 26.07-60.83 43.45-95.59 43.45-95.59 112.97-173.8 182.48-252 26.07-26.07 52.14-43.45 69.52-69.52-34.76 8.69-17.38 8.69-34.76 26.07-17.38 8.69-26.07 17.38-34.76 26.07l-199.86 165.1c-60.83 60.83-112.97 130.35-165.11 199.87 0 8.69-43.45 78.2-43.45 78.2v-34.76c8.69-60.82 26.07-112.96 60.83-165.1 26.07-43.45 86.9-112.97 95.59-165.11-8.69 8.69-26.07 17.38-43.45 26.07-8.69 17.38 0 8.69-17.38 17.38l-104.27 130.35c-34.76 34.76-34.76 95.59-78.21 121.66 0-34.76 0-52.14 8.69-69.52 17.38-139.04 17.38-52.14 0-104.28-8.69-26.07 17.38-60.83 26.07-95.59 17.38-34.76 60.82-112.96 60.82-147.72-34.75 26.07-69.51 104.27-95.58 139.03-26.07 43.45-26.07 26.07-52.14 69.52-26.07 26.07-17.38 34.76-52.14 60.83 0-52.14 8.69-60.83 26.07-95.59 17.38-43.45 0-60.83 26.07-104.27 0-8.69 17.38-17.38 26.07-26.07 34.76-34.76 8.69 8.69 34.76-26.07 8.69-17.38 0-8.69 8.69-8.69 8.69-8.69 8.69 8.69 26.07-26.07-52.14 0-60.83 17.38-86.9 52.14-8.69 8.69-26.07 26.07-34.76 34.76-34.76 26.06 8.69-8.69-34.76 8.69 8.69-52.14 43.45-69.52 69.52-104.28-69.52 17.38-139.04 165.1-173.8 217.24-26.07 52.14-95.58 121.66-52.14 8.69 17.38-43.45 52.14-78.21 60.83-130.34 0 0-8.69-8.69-8.69-8.69h-8.69c-17.38-8.69-8.69-17.38-26.07 0-8.69 8.69-17.38 34.75-26.06 52.13-26.07 52.14-17.38 69.52-69.52 95.59 8.69-34.76 8.69-8.69 17.38-43.45-17.38 17.38-26.07 34.76-43.45 52.14l-26.07-17.38c-17.38-8.69 17.38-17.38-17.38 0h-26.07c17.38-8.69 26.07-26.07 34.76-52.14l-26.07 26.07c-8.69-8.69-8.69 17.38 0-26.07-43.45 26.07-69.52 43.45-130.35 60.83zm981.95 677.8s17.37-8.69 17.37-17.38c26.07-8.69 8.69 0 17.38-8.69-34.75 8.69-26.06 0-34.75 26.07zm-825.53-764.7c8.69 8.69 8.69-17.38 0 26.07 26.07-17.38 43.45-34.76 52.14-60.83-43.45 0-26.07 8.69-60.83 43.45-8.69 0-17.38 8.69-17.38 8.69zm78.21 43.45 43.45-60.83c8.69 0 8.69-8.69 8.69-8.69h8.68c0-8.69 0-8.69 0-8.69l-8.68-8.68c-26.07 52.13-43.45 52.13-52.14 86.89zm69.51-95.58c8.69-17.38 8.69-17.38 26.07-34.76h-26.07s-8.69 26.07-8.69 26.07zm-651.73 304.14c43.45 0 17.38 8.69 69.52 0 26.07 0 43.45-8.69 60.83-17.38 34.76-8.69 86.9-26.07 130.35-26.07 112.96 0 312.83 26.07 391.03 60.83 295.46 130.34 225.94 321.52 252.01 364.97 17.38 43.44 34.76 8.69 26.07 78.2-17.38 69.52-52.14 147.73-121.66 191.18-34.76 26.07-95.59 52.14-147.73 52.14 17.38 78.2 95.59-26.07 95.59 104.27-121.65 26.07-182.48 86.9-399.73 95.59 26.07 43.45 69.52 60.83 139.04 60.83-8.69 34.76-8.69 26.07-43.45 43.45l-225.93 165.1c-130.35 95.59-330.21 269.39-477.94 304.14v26.07c52.14 8.69 69.52 34.76 112.97 52.14 139.03 52.14 252 69.52 373.66 112.97 95.58 26.07 234.62 26.07 373.66 43.45 60.82 17.38 147.72 8.69 156.41 78.21-95.59 60.82-86.9-69.52-191.17 95.58-104.28 139.04-225.94 321.52-408.42 321.52 17.38 69.52 60.83 60.83 104.28 191.18 17.38 69.52 26.06 182.48 26.06 260.69 0 173.8-121.65 425.8-225.93 512.7-86.9 60.82-43.45 26.07-156.41 0-52.14-8.69-156.42-26.07-191.18-52.14-8.69-17.38-8.69-17.38-26.07-34.76-78.21-60.83-26.07-78.21-86.9-95.59-34.75-8.69-182.48-17.38-182.48-182.48 0-26.07 17.38-26.07 34.76-34.76 34.76-8.69 17.38 0 43.45-17.38s52.14-34.76 78.21-52.14c95.58-78.21 260.69 52.14 295.45-69.52l17.38-43.45h8.69c8.69-8.69 8.69-8.69 17.38-17.38 104.27-104.27-121.66-130.34-165.11-139.03-199.86-26.07-191.17 8.69-199.86-86.9l-34.76-147.73c-17.38-121.65-43.45-199.86-95.59-286.76-26.07-34.76-52.14-69.52-86.9-104.27-112.96-104.28-95.59-17.38-86.9-139.04 69.52-8.69 95.59-104.28 52.14-147.73-43.45-52.14-95.58-60.82-165.1-78.2-60.83-8.69-43.45-17.38-69.52-60.83-26.07-60.83-147.73-95.59-156.42-208.56 78.21-17.38 60.83-52.14 86.9-112.96 17.38-26.07 17.38-17.38 43.45-52.14 86.9-95.59-17.38-147.73-17.38-234.63 0-95.58 43.45-86.89 78.21-95.58 52.14-8.69 78.21-26.07 121.66-43.45 34.75-17.38 86.89-34.76 121.65-52.14 43.45-17.38 78.21-34.76 112.97-52.14l86.9-86.9c26.07-26.07 52.13-52.13 78.2-86.89 34.76-69.52 34.76-95.59 52.14-165.11 17.38-60.83 17.38-26.07 17.38-104.28 26.07-8.69 43.45-17.38 69.52-26.07 0 26.07 8.69 86.9 17.38 104.28 26.07-17.38 26.07-17.38 26.07-60.83 8.69-43.45 0-34.76 34.76-52.13 60.83-43.45 95.59-52.14 156.41-52.14zm-816.83 1320.84c112.96 173.79-8.69 104.28 78.2 147.72 0-34.75 8.69-52.13-8.69-95.58-17.37-26.07-34.75-43.45-69.51-52.14zm2207.19-825.53c8.69-26.07 17.38-26.07 78.21-52.14 43.45-17.38 52.14-17.38 112.97-17.38-17.38 17.38-34.76 17.38-60.83 26.07l34.76 17.38c-34.76 0-43.45 17.38-78.21 17.38-43.45 0-52.14 0-86.9 8.69zm-2632.99 139.04s26.07-52.14 26.07-78.21c26.07-86.9-34.76-208.55 112.96-278.07 43.45-17.38 165.11-17.38 208.56 0l34.76 8.69c-165.11 0-191.18 0-278.07 156.41 34.75-8.69 34.75-8.69 52.13-34.75 139.04-173.8 278.08-17.38 451.87-130.35-17.38 69.52-130.34 252-269.38 252-34.76 0-52.14 0-78.21 8.69-60.83 0-26.07-17.38-60.83-17.38-78.2 0-121.65 225.94-121.65 321.52l-17.38-26.07c-17.38-69.51-60.83-156.41-60.83-182.48zm608.28-391.04c43.45-17.38 52.14-60.83 95.59-69.52-8.69 17.38-34.76 52.14-52.14 69.52-34.76 17.38-43.45 17.38-86.9 26.07zm-625.66 929.8c0-34.76 52.14-121.65 69.52-156.41 121.65-199.87-8.69-295.45 112.96-417.11 52.14-43.45 173.8-8.69 278.08-60.83 69.51-26.07 173.79-165.1 217.24-234.62 43.45-52.14 78.21-60.83 121.66-104.28 17.38-26.07 26.07-43.45 52.13-60.83 34.76-17.38 60.83-17.38 60.83 26.07-8.69 52.14-78.2 199.87-112.96 234.63-17.38 26.06-34.76 43.44-52.14 60.82-69.52 78.21-278.07 156.42-382.35 182.49-69.52 17.38-121.66 17.38-104.28 69.52 8.69 26.07 0-8.69 8.69 17.38 0 26.07 8.69 52.13 17.38 86.89 8.69 86.9 17.38 130.35-34.76 165.11l-8.69-130.35c0-60.83-17.38-78.21-17.38-139.03 0-60.83 34.76-34.76 52.14-86.9-43.45 0-69.52 26.07-78.21 78.21-8.69 86.89 86.9 112.96-78.2 330.21-43.45 52.14-95.59 130.34-104.28 191.17-17.38-17.38-17.38 8.69-17.38-52.14zm1103.6-1346.91c0-34.76 8.69-34.76 43.45-34.76-17.38 26.07-17.38 26.07-34.76 52.14-8.69 26.07-8.69 34.76-26.07 52.14 8.69-34.76 8.69-26.07 8.69-69.52-8.69 8.69 0 0-8.69 17.38-26.07 69.52-43.45 156.42-165.11 165.11 26.07-34.76 78.21-52.14 86.9-95.59l-86.9 52.14c26.07-17.38 78.21-60.83 86.9-95.59-34.76 26.07-43.45 34.76-78.21 60.83-26.07 26.07-34.76 26.07-60.83 43.45-8.69 0-8.69 8.69-8.69 8.69-8.69-8.69-8.69 0-8.69 0l86.9-78.21c17.38-17.38 8.69-8.69 8.69-17.38 8.69-8.69 0-8.69 8.69-17.38 8.69-17.38 78.21-69.52 139.04-69.52 0 34.76 0 17.38 8.69 26.07zm-86.9 86.9c17.38-17.38 8.69-8.69 17.38-34.76 0 0-26.07 26.07-26.07 26.07zm-382.35-182.49c26.07-17.38 8.69-8.69 17.38-26.06l86.9 95.58c17.38 17.38 86.9 69.52 78.21 95.59v8.69l-26.07 147.73c26.07-17.38 52.14-34.76 95.58-34.76-17.38 26.07-17.38 17.38-43.44 34.76-17.38 8.68-8.69 0-17.38 17.37-8.69 0-26.07 8.69-26.07 8.69-34.76 26.07-17.38 52.14-60.83 78.21 8.69-43.45 26.07-78.21 34.76-130.34 8.69-34.76 26.07-104.28 34.76-130.35-26.07-8.69-43.45-52.14-86.9-86.9-69.52-43.45-60.83-60.83-86.9-78.21zm625.66 165.11c17.38-69.52 191.18-139.04 243.32-165.11l252-147.72c-26.07 17.38-43.45 43.45-60.83 69.52l-112.97 139.03c-17.38 8.69-52.13 43.45-69.51 52.14 8.69-60.83 34.76-52.14 43.44-112.97-17.37 8.69-43.44 26.07-52.13 34.76 0 0-112.97 130.35-130.35 112.97l-8.69-8.69c8.69-8.69 95.59-86.9 104.28-95.59-43.45 0-78.21 34.76-104.28 60.83-43.45 34.76-60.83 60.83-104.28 60.83zm-112.96-8.69c8.69-43.45 17.38-69.52 69.51-69.52-8.69 34.76-43.44 52.14-69.51 69.52zm2215.88-278.07c-17.38-26.07-26.07-43.45-43.45-69.52 60.83 0 43.45 17.38 78.21 34.76 8.69 8.69 8.69 0 52.14 34.76-34.76-8.69-17.38-8.69-43.45-26.07 8.69 52.14 34.76 34.76-8.69 60.83-8.69-17.38-8.69-34.76-17.38-52.14zm-3380.31 1060.15c17.38 69.52 95.59 147.72 95.59 225.93 0 95.59-112.97 191.18-112.97 312.83 0 8.69 34.76 60.83 43.45 104.28 0 52.14-34.76 60.83-43.45 104.28 34.76 0 34.76-17.38 60.83-34.76l8.69-26.07c17.38-26.07 17.38-52.14 8.69-78.21 26.07 17.38 95.59 121.66 112.96 156.42-95.58 0-191.17 34.75-278.07 17.38-8.69-26.07-8.69-17.38-17.38-43.45-26.07-104.28 26.07-60.83 26.07-139.04 0-43.45-17.38-95.59-60.83-104.28 8.69 26.07 17.38 43.45 17.38 69.52 0 52.14-52.13 78.21-52.13 147.73s26.06 86.89 26.06 121.65c-26.06 17.38-34.75 8.69-52.13 34.76-78.21 95.59 34.75 104.28 34.75 139.04 0 60.83-78.2 86.9-139.03 147.72-104.28 112.97-95.59 269.39-112.97 417.11-34.76 295.45-43.45 182.49-330.21 182.49-95.59 0-34.76 52.14-26.07 86.9 17.38 26.06 8.69 26.06 17.38 52.13 52.14 86.9 156.42 69.52 199.87 86.9 60.82 8.69 60.82 17.38 78.2 60.83 69.52 104.28 34.76 86.9 139.04 147.73 26.07 8.69 69.52 34.75 86.9 52.13 34.76 26.07 34.76 43.45 52.14 86.9 52.13 104.28 60.82 78.21 165.1 121.66 60.83 34.76 112.97 86.9 165.11 121.65 43.45 26.07 399.73 86.9 399.73 165.11l-8.69 234.62c0 78.21 8.69 121.66 8.69 191.18 0 373.66 43.44 686.49 156.41 1042.77 17.38 52.14 26.07 95.59 43.45 156.41l52.14 147.73c17.38 52.14 34.76 95.59 52.14 147.72 60.82 191.18 182.48 373.66 234.62 564.84 26.07 60.83 8.69 112.97 52.14 139.03 78.21-60.82 34.76-278.07 26.07-356.27-8.69-104.28 0-538.77 0-660.43v8.69l34.76 69.52c52.14 139.04 130.34 252 165.1 399.73 26.07 86.9 17.38 104.28 17.38 191.17 69.52-17.37 69.52-147.72 69.52-208.55 0-165.1 0-217.24-43.45-382.35-26.07-78.21-104.28-312.83-34.76-399.73 0 52.14-8.69 78.21-8.69 139.04 8.69-8.69 0 0 8.69-17.38l43.45-130.35c8.69-17.38 17.38-34.76 34.76-60.82 8.69-34.76 8.69-52.14 43.45-52.14 8.69-43.45-8.69-17.38 17.38-26.07l8.69 86.89c0-60.82 0-112.96 17.38-156.41 34.76 8.69 34.76 26.07 52.14 60.83 34.75 60.83 26.06 78.21 17.37 139.03 17.38-8.69 26.07-17.38 34.76-34.76l34.76-104.27c26.07-60.83 43.45-191.18 112.97-208.56l-8.69 408.42c-8.69 26.07-8.69 52.14-17.38 86.9-8.69 26.07-8.69 60.83-17.38 86.9-17.38 165.1-8.69 52.14-8.69 173.79 0 78.21-43.45 52.14-43.45 199.87 0 208.55-60.83 347.59-60.83 582.21 0 147.73-17.38 260.69-34.75 391.04-43.45 373.66-60.83 260.69-78.21 347.59-69.52 0-52.14-8.69-112.97 8.69-69.52 8.69-130.35-8.69-182.48 26.07-121.66 95.58-252.01 8.69-312.84 34.76-52.13 17.38-26.06 78.2-69.51 104.27-26.07 8.69-52.14 8.69-69.52 17.38-60.83 8.69-147.73 69.52-199.87 43.45 0 112.97-69.51 86.9-182.48 86.9h-530.08c-34.75 0-86.89-8.69-121.65 8.69s17.38 8.69-43.45 8.69c-17.38 0-43.45 0-60.83 0 17.38 26.07 43.45 17.38 86.9 17.38l112.97 17.38c-8.69 17.38 8.69 8.69 8.69 17.38-43.45 17.38-95.59 26.07-147.73 26.07h-121.66-17.38-8.69c26.07 26.07 17.38 17.38 43.45 17.38l147.73 17.38c17.38 17.38 34.76 26.06 60.83 26.06l243.31 8.69h330.21l-86.9-26.06c69.52 0 104.28-8.69 165.11-8.69 0 34.75-8.69 26.06-8.69 60.82-60.83 0-86.9 8.69-156.42 8.69-52.14 0-95.58-8.69-156.41-8.69-104.28 0-225.94 8.69-312.83-8.69 8.69 43.45 43.44 26.07 104.27 26.07l252.01 8.69h121.65l-417.11 17.38c17.38 17.38 0 0 17.38 17.38-78.2 0-86.89 8.69-165.1 8.69 34.76 26.07 121.65 34.76 165.1 34.76 173.8 0 330.21-26.07 495.32-8.69 156.42 17.38 330.21 8.69 486.63 8.69 78.2 0 121.65 8.69 191.17 8.69 43.45 0 52.14-8.69 86.9-8.69 43.45 0 43.45 8.69 86.9 8.69l364.96-17.38c139.04 0 243.32 8.69 382.35 8.69 139.04 0 252.01-8.69 391.04-8.69h391.04c-17.38 34.76 0 0-17.38 26.07l-8.69 8.69c-112.96 0-199.86 8.69-312.83 8.69h-999.32c-43.45 0-86.9 0-130.35 0-52.13 0-60.82-8.69-112.96-8.69h-764.7c-95.59 0-147.73 8.69-243.31 8.69 8.69 34.76 8.69 17.38 26.06 43.45l52.14-17.38c78.21-8.69 399.73 0 486.63 0 60.83 0 78.21-8.69 130.35-8.69l399.72 8.69c269.39 17.38 556.15 0 834.22 0 95.59 0 165.11 8.69 260.69 8.69 182.49 0 356.28 8.69 547.46 8.69 208.55 0 1068.84-8.69 1225.25 17.38 52.14 8.69 43.45 34.76 86.9 52.14 69.52 17.38 52.14-8.69 95.59 43.45 26.07 17.38 52.14 43.44 78.21 52.13 52.13-34.75 26.06-86.89 78.2-121.65 104.28-69.52 373.66-26.07 495.32-26.07 95.59 0 130.35 26.07 191.17 78.21 60.83 34.76 8.69-8.69 121.66 17.38 78.21 17.38 60.83-26.07 8.69-60.83-34.76-26.07-52.14-60.83-78.21-95.59-17.38-17.38-26.07-26.07-43.45-43.45h330.21c34.76-8.69 0-26.07 112.97-43.45l338.9-8.69c165.11 0 295.45-17.38 495.32-17.38 0-8.69 8.69-34.76 0-43.45-8.69-17.38-17.38-8.69-52.14-8.69l-260.69-17.37c-52.14 0-69.52-8.69-121.66-8.69l-512.7-17.38-60.82-52.14c-26.07-8.69-43.45-26.07-69.52-34.76-95.59-52.14-199.87-78.21-304.14-112.97l-165.11-43.45c0-78.2 17.38-43.45-26.07-112.96-43.45 0-43.45 17.38-86.9 17.38-69.51 0-78.2-17.38-130.34-52.14-60.83-34.76-52.14 0-104.28 0-34.76 0-52.14-34.76-86.9-52.14-26.07-26.07-52.14-17.38-95.58-17.38-95.59 0-78.21-304.14-86.9-373.66-17.38-121.66-43.45-269.38-43.45-399.73 0-139.03-34.76-669.11 8.69-782.08 8.69-34.76 8.69-8.69 17.38-43.45h17.38c0 69.52 26.07 165.11 43.45 234.63 69.52 443.18 269.38 842.9 408.42 1260.01 17.38 69.52 43.44 139.04 95.58 173.8 78.21-52.14 121.66-191.18 156.42-278.07 60.83-173.8 173.79-321.53 217.24-495.32 43.45-147.73 52.14-330.21 95.59-477.94 52.14-139.03 86.9-295.45 86.9-477.93 0-130.35-17.38-330.21-34.76-451.87-8.69-104.28 60.83-191.18 86.9-278.07 60.82-269.39-78.21-86.9-78.21-538.77 0-191.17 121.65-147.72-34.76-243.31-69.52-34.76-86.9-104.28-112.97-165.11-78.21-156.41-78.21-130.34-234.62-173.79-34.76-8.69-60.83-26.07-95.59-43.45-86.9-60.83-269.38-269.38-321.52-356.28s-165.1-252-165.1-382.35c0-112.97 86.89-269.38 86.89-304.14 0-60.83-191.17-104.28-278.07-182.48l-165.1-182.49c-17.38-17.38-52.14-34.76-60.83-52.14 43.45-8.69 78.2 0 130.34-8.69 121.66-17.38 773.39-121.65 842.91-121.65v-34.76c-104.28-26.07-399.73-260.7-504.01-330.21-356.28-234.63-278.07-191.18-547.45-425.8-121.66-95.59-147.73-69.52-147.73-260.69l-78.2 52.13c-17.38-17.38-26.07-26.07-43.45-43.44-8.69-17.38-17.38-34.76-26.07-52.14-17.38-34.76-43.45-69.52-60.83-104.28-26.07-78.21-60.83-165.11-60.83-260.69 0-391.04 252-364.97-43.45-512.7-60.83-26.07-130.34-34.76-199.86-52.14-139.04-34.76-260.69-69.51-425.8-86.89-391.04-34.76-573.52-52.14-886.35 78.2l-173.8 86.9c-147.73 86.9-147.73 104.28-321.52 191.18-52.14 26.06-130.35 52.13-191.17 60.82-382.35 43.45-243.32 243.32-495.32-43.44-86.9-95.59-34.76-52.14-182.49-52.14-78.2 0-139.03-17.38-208.55-17.38 17.38 52.14 69.52 86.89 121.66 104.27 86.89 26.07 95.58 8.69 191.17 8.69 8.69 26.07 17.38 52.14 34.76 69.52 26.07 43.45 26.07 8.69 34.76 69.52 8.69 69.52 0 112.97-8.69 182.48-8.69 78.21-17.38 43.45-43.45 95.59-8.69 17.38-52.14 60.83-78.21 60.83-95.58 34.76-139.03 0-191.17 0s-26.07 8.69-78.21 0c-34.76 0-43.45-8.69-78.21-8.69-52.14 0-139.03 69.52-165.1 95.59-52.14 78.21-34.76 112.96-43.45 217.24-8.69 69.52-78.21 156.42-104.28 225.94l-8.69 17.37c-26.07 34.76-34.76 43.45-43.45 86.9l130.35-191.17z"/><path d="m6531.39 10454.22c-43.45 0-43.45-8.69-95.59-8.69h-808.14c-60.83 0-78.21 8.69-130.35 8.69l173.79 8.69c217.25 17.38 408.42 8.69 625.67 8.69 86.89 0 147.72-8.69 234.62-8.69z"/><path d="m8321.48 10384.7c78.21 17.38 112.97 17.38 208.55 17.38 69.52 0 139.04 43.45 173.8-8.69-78.21 0-17.38-17.38-86.9-26.07h-208.55c-26.07 0-60.83 0-86.9 17.38z"/><path d="m7513.33 6604.66c52.14-43.45 69.52-295.45 69.52-356.28h-17.38c0 78.2-52.14 295.45-52.14 356.28z"/><path d="m5062.82 6291.83h8.69c0-95.59-34.76-252.01-69.52-347.59-8.69-17.38-8.69-26.07-17.38-52.14l-34.75-43.45c26.06 104.28 112.96 338.9 112.96 443.18z"/><path d="m5923.11 3676.21c34.76 0 373.66-60.83 443.17-60.83v-8.69c-52.13 0-78.2 0-112.96 8.69-78.21 8.69-156.42 0-286.76 34.76z"/><path d="m6905.05 9698.21c8.69 8.69 17.38 8.69-17.38 17.38zm-26.07 8.69c-8.69 26.07 26.07-8.69-52.14 43.45-17.38 17.38-26.07 26.07-34.76 52.14 104.28-52.14 43.45-43.45 191.18-95.59 34.76-8.69 52.14-8.69 69.52-34.76-52.14 0-130.35 8.69-173.8 34.76z"/><path d="m7513.33 6960.94c17.38 26.07 43.45 17.38 86.9 26.07 17.38 8.69 69.52 17.38 86.9 26.07 26.07 8.68 52.14 26.06 69.52 43.44 34.75 17.38 34.75 26.07 60.82 43.45-8.69-34.76-78.2-86.89-112.96-112.96-69.52-26.07-104.28-26.07-191.18-26.07z"/><path d="m3281.42 4267.11v17.38c34.76 0 17.38 0 43.45 8.69 8.69 52.14 0 69.52 60.83 69.52-17.38-34.76 0 0-17.38-26.07s-34.76-69.52-34.76-104.28h-17.38c-8.69 26.07-8.69 26.07-34.76 34.76z"/><path d="m4037.43 2876.75c0-43.45-26.07-112.96-69.52-121.65 0 43.45 8.69 43.45 17.38 78.2 26.07 34.76 17.38 26.07 52.14 43.45z"/><path d="m4758.68 9663.45v8.69c52.14 0 112.97 0 121.66-60.83 26.07 0 17.38 8.69 43.45-17.38 0-8.69 0-8.69 0-8.69l-8.69-8.69v8.69c-8.69 17.38-34.76-8.69-69.52 43.45-17.38 26.07-43.45 34.76-86.9 34.76z"/><path d="m5592.9 4718.98 8.69 8.69c17.38 8.69 8.69 0 17.38 0 17.38 8.69 78.2 26.07 60.82 60.83h17.38 17.38c-8.69-8.69-17.38-26.07-26.07-34.76-8.69-26.07-8.69-34.76-17.38-52.14-34.75 17.38-34.75 8.69-78.2 17.38z"/><path d="m7035.4 10132.7c17.38-17.38 52.13-78.21 130.34-78.21-26.07-34.76-17.38-8.69-52.14-26.07-26.07 43.45-60.82 26.07-78.2 104.28z"/><path d="m6731.25 7386.73v8.69c34.76 0 104.28 8.69 104.28-26.07 0-43.44-8.69 26.07 0-8.68 17.38-26.07 17.38-43.45 52.14-52.14-17.38-17.38 0-26.07-26.07 0-8.69 8.69-43.45 78.2-130.35 78.2z"/><path d="m6018.69 5353.33c34.76-17.38 60.83-52.14 86.9-95.58l34.76-34.76c-34.76 8.69-112.97 95.58-121.66 130.34z"/><path d="m6288.08 4319.25c52.14 8.69 95.58-26.07 112.96-52.14-34.76 0-34.76 8.69-60.82 17.38-8.69 8.69-17.38 8.69-26.07 17.38 0 0 0 0-8.69 0z"/><path d="m6131.66 5179.54 17.38 34.76c17.38-26.07 26.07-34.76 34.76-69.52-26.07 17.38-26.07 17.38-52.14 34.76z"/><path d="m5940.49 4910.15h34.76c0-26.06 0-17.37 8.69-34.75-34.76 8.69-34.76 0-43.45 34.75z"/><path d="m6088.21 4797.19c-8.69-26.07-8.69-26.07-34.76-34.76 34.76 34.76 8.69 26.07 8.69 26.07 0 17.38-17.38 8.69 0 17.38 26.07 8.69 8.69 0 26.07-8.69z"/></g><g fill-rule="nonzero"><g fill="#2f2f2f"><path d="m4807.11 206.83c5.6 36.63 19.85 74.95 42.58 114.8s47.49 82.42 74.46 127.86c26.8 45.62 62.24 107.51 106.01 185.69 43.76 78.34 75.98 137.35 96.51 177.2 20.52 40.02 36.3 64.27 46.98 72.92 10.86 8.65 16.97 16.96 18.33 24.93h-147.57c-1.87-9.33 3.56-16.11 16.45-20.01 12.72-4.07 19.17-10.69 19.17-20.18-14.93-38.5-30.7-74.61-47.15-108.19-16.29-33.58-33.93-67.49-52.59-101.75-18.82-34.42-41.73-74.78-68.86-121.24h-274.1c-18.33 35.27-37.15 71.39-56.32 108.53-19.16 37.13-36.63 72.74-52.41 107.17-15.6 34.25-27.31 61.04-34.77 80.55-7.46 19.5-11.2 30.69-11.2 33.57 0 6.61 4.75 12.89 14.25 18.99 9.51 6.11 14.25 10.52 14.25 13.4 0 3.22-2.37 6.27-7.12 9.16h-50.55-10.52-9.15-8.48c-9.51 0-18.83-.17-28.16-.68s-18.49-1.36-27.48-2.88c42.57-35.11 80.57-77.84 114.15-128.03 33.42-50.03 72.94-120.74 118.56-211.63 45.8-90.89 77.35-153.64 94.82-187.72 17.64-34.26 35.28-66.48 53.09-96.49s36.81-55.28 56.82-75.97zm-35.96 109.88c-14.58 16.45-31.55 40.19-51.22 71.57-19.68 31.2-35.11 57.14-46.3 77.83-11.38 20.52-20.36 37.31-27.48 50.36h250.69c-14.59-30.86-31.05-61.38-49.53-91.4-18.48-30.18-40.54-64.77-66.32-104.12z"/><path d="m5242.18 214.12c11.7-1.86 28.5-3.39 50.54-4.92 22.06-1.35 50.71-2.03 86.33-2.03-1.01 4.24-7.63 7.29-20.34 9.16-12.56 1.86-18.84 7.46-18.84 16.78 0 65.12.17 130.41.34 195.52.17 65.12.51 138.38 1.02 219.94.51 81.57.68 139.73.68 174.33 0 16.95 2.03 30.52 5.93 40.86 3.91 10.18 12.9 17.3 26.97 21.03 6.96.85 14.25-1.02 22.06-5.76 7.63-4.92 15.09-9.67 22.04-14.59.85 1.36 1.36 3.73 1.36 7.12 0 7.13-4.24 13.4-12.89 18.66-8.65 5.25-16.46 9.83-23.07 13.9-6.78 4.07-15.77 6.11-26.96 6.11-5.6 0-11.03-.51-16.12-1.36-5.09-1.02-12.38-2.88-21.71-5.6l-11.2-14.07-20.35-517.54-5.59-137.02c-1.87-7.97-7.13-12.89-15.61-14.75-8.31-1.87-16.62-3.9-24.59-5.77z"/><path d="m5567.67 630.43c13.06 0 24.42 6.44 33.93 19.16 9.66 12.89 18.82 25.27 27.64 37.48-7.46 2.37-17.98-.51-31.71-8.82-13.92-8.14-23.75-12.21-29.86-12.21-18.15 0-34.09 1.53-47.66 4.58s-26.97 11.02-40.53 23.74c-13.58 12.72-20.36 29.33-20.36 50.02 0 10.01 3.9 24.93 11.87 44.94 7.98 20.01 24.59 38.32 49.87 54.77 25.1 16.45 46.47 26.29 64.11 29.68 17.48 3.22 27.99 4.92 31.72 4.92 11.36 0 21.04-4.07 29.18-12.38s15.09-15.43 20.69-21.2c-2.89 18.65-11.53 34.09-26.29 46.46-14.76 12.38-31.72 18.66-50.89 18.66-66.82 0-108.55-18.99-125.35-57.15-16.78-37.98-25.26-63.42-25.26-76.14 0-11.19 1.69-22.55 5.25-33.74 3.56-11.37 11.7-27.48 24.59-48.67 12.73-21.2 27.65-37.14 44.79-47.82 16.96-10.85 35.1-16.28 54.27-16.28z"/><path d="m5696.08 206.83c4.24 1.36 10.68 2.04 19.51 2.37 8.82.34 15.94.34 21.7.34 6.62 0 16.45-.17 29.35-.67 13.06-.34 22.38-.68 28.15-.68 11.71 0 22.56.68 32.57 2.2v6.28c-14.08 0-24.42.84-30.7 2.37-6.28 1.7-10.69 6.95-13.06 15.77 0 59.01.17 108.36.68 148.21.5 39.68 1.18 88.01 2.03 144.82.85 56.8 1.36 97.5 1.36 121.75l4.58 4.92c35.62-21.54 73.44-32.22 113.64-32.22 27.65 0 47.66 3.56 60.05 10.85 12.38 7.29 19.5 12.72 21.37 16.11 1.86 3.56 4.91 10.85 8.81 22.22 4.08 11.19 5.95 26.79 5.95 46.97 0 11.19-.85 27.81-2.88 49.68-1.88 22.05-2.9 38.5-2.9 49.18 0 13.57 1.02 26.11 3.24 37.48 2.03 11.53 5.93 22.38 11.53 32.72 2.37.85 6.1 1.36 11.36 1.36 6.44-.68 11.36-1.02 14.75-1.02 7.47 0 13.07 1.7 16.8 4.92-2.2.85-4.58 1.87-6.95 3.05-2.38 1.19-3.56 2.21-3.56 3.23 0 1.35 2.71 2.03 7.8 2.03l-100.76 9.16c-1.36-13.57-2.04-27.13-2.04-40.7 0-9.5.85-28.15 2.55-55.96 1.69-27.98 2.54-48.67 2.54-62.23 0-20.18-.85-36.29-2.37-48.5-1.7-12.21-4.75-24.08-9.16-35.61-4.58-11.37-11.02-18.66-19.33-21.37-8.49-2.88-19-4.24-31.72-4.24h-12.55c-20.7 0-39.01 4.75-55.3 14.41-16.11 9.67-27.99 23.07-35.45 40.36l-2.04 182.97c1.36 6.96 8.65 12.38 21.89 16.11 13.22 3.74 19.84 8.65 19.84 14.76h-120.09c1.02-4.75 7.46-10.18 19.34-16.45 11.87-6.45 18.99-12.21 21.37-17.3v-156.18c0-79.7-.34-140.74-1.02-183.14-.68-42.39-2.54-88.35-5.26-137.86-2.88-49.52-5.93-90.39-9.49-122.77-3.56-32.39-8.65-50.71-15.44-55.12-6.79-4.57-13.74-9.32-20.69-14.58z"/><path d="m6177.62 642.3c12.21-7.97 25.27-11.87 39.35-11.87 14.92 0 29.51 3.56 43.76 10.51 14.24 7.12 31.21 17.3 50.88 30.86-14.92 17.47-44.1 44.43-87.52 81.23-43.25 36.8-69.38 59.86-78.36 69.19 9.83 14.92 21.88 27.3 35.96 36.8 13.9 9.66 26.46 15.09 37.48 16.61 11.02 1.36 19.33 2.04 25.11 2.04 12.55 0 23.23-1.7 31.88-5.26 8.66-3.39 28.84-14.92 60.22-34.42-9.84 12.55-18.33 22.55-25.28 29.84-7.12 7.3-14.58 12.04-22.55 14.76-7.98 2.54-22.06 7.8-42.41 15.77s-35.62 11.87-45.96 11.87c-6.62 0-11.37-.34-14.42-1.02-3.06-.68-12.04-4.58-26.98-11.36-15.09-6.78-30.52-20.86-46.64-42.06-16.28-21.36-24.93-39-26.45-53.07-1.36-14.08-2.04-23.91-2.04-29.51 0-27.3 8.14-50.87 24.25-70.71 16.12-20.01 39.35-40.02 69.72-60.2zm42.91 24.76c-9.33-6.11-20.01-9.16-31.72-9.16-20.69 0-37.66 8.48-50.88 25.61-13.06 17.12-19.68 36.62-19.68 58.67 0 21.53 6.62 42.56 19.85 63.25 20.17-12.72 43.42-31.54 69.71-56.64 26.28-24.93 43.93-41.04 52.92-47.99-4.24-6.61-9.16-12.04-14.75-16.62-5.78-4.4-14.09-10.17-25.45-17.12z"/><path d="m6464.27 635.52 7.12 44.26c5.6-1.87 22.23-10.52 49.87-26.12 27.48-15.43 49.37-23.23 65.31-23.23 10.17 0 21.54 2.88 33.58 8.48 12.72 17.29 26.3 25.94 40.71 25.94 6.61 0 14.75-3.9 24.6-11.7 9.83-7.63 20.01-13.39 30.18-17.13 10.36-3.73 23.08-5.59 38-5.59 16.29 0 30.7 3.9 42.74 11.53 12.22 7.8 18.32 18.14 18.32 31.37 0 28.49 1.36 67.66 4.07 117.35 2.72 49.68 4.07 76.64 4.07 80.88 2.89 4.24 7.97 6.28 15.44 6.28 7.46 0 12.55 1.52 14.76 4.24-7.81 7.46-19.85 13.56-35.62 18.31-19.17 4.75-33.08 7.97-42.07 9.84-3.56-6.96-5.42-15.77-5.42-25.95 0-6.61.68-16.11 2.03-28.49 1.36-12.38 2.04-20.51 2.04-24.25 0-12.71.51-28.82 1.52-48.49 1.02-19.67 1.53-30.53 1.53-32.39 0-21.54-2.71-39.51-8.14-54.1-5.27-14.41-15.95-27.3-31.89-38.66-4.24-1.36-8.65-2.04-13.24-2.04-10.85 0-20.35 2.55-28.83 7.81-8.47 5.08-19.34 13.73-32.9 25.94-7.12 13.91-11.87 29.85-14.42 47.65-2.54 17.81-3.91 37.48-3.91 59.01 0 14.42.17 28.66.68 42.74.52 14.07.86 27.81 1.37 41.37 1.02 3.73 5.25 7.12 12.89 9.84 7.63 2.88 11.53 5.93 11.53 9.15 0 2.38-.85 5.09-2.72 8.48-7.46 0-17.63.34-30.19 1.19-12.55.85-20.18 1.19-23.06 1.19-12.56 0-23.75-1.87-33.59-5.6 6.61-16.96 11.53-35.61 15.09-56.3s5.26-41.2 5.26-61.89c0-17.81-1.02-35.27-2.88-52.4-1.87-16.96-4.41-34.93-7.63-53.76-5.09-7.46-11.2-12.71-18.15-15.77-7.12-3.05-15.1-4.58-23.92-4.58-7.46 0-19.5 2.72-36.13 8.14-16.62 5.43-29.33 18.49-38.16 39.18-8.99 20.85-13.4 46.29-13.4 76.47 0 8.82.51 24.42 1.53 46.64.85 22.21 1.35 33.4 1.35 33.91 0 10.86 2.89 18.83 8.48 24.08l24.09 8.48c-3.22 4.75-8.65 8.14-16.12 10.18-7.63 2.2-16.28 3.22-26.11 3.22-3.73 0-10.52-.34-20.02-.85-9.67-.51-17.13-.85-22.22-.85-6.1.51-10.52.68-13.4.68-.51-4.24 2.88-10.68 9.84-19.67 6.96-8.82 10.86-15.94 11.53-21.03.68-5.09 1.02-11.53 1.02-19.33 0-7.63 0-13.57 0-17.8 0-18.83-1.02-44.43-3.05-77.16-2.2-32.9-3.22-50.37-3.22-52.74-1.36-6.1-4.92-9.16-10.52-9.16-2.72 0-7.13.68-12.89 1.87-5.94 1.19-9.33 1.69-10.35 1.69-3.22 0-5.76-.5-7.63-1.35 6.95-7.97 20.52-17.64 40.71-29.17 20.18-11.53 34.43-21.37 42.91-29.84z"/><path d="m6945.31 589.22c4.07-3.73 9.33-15.26 15.77-34.59 6.27-19.33 15.1-29 26.29-29 5.09 0 11.2 1.36 18.15 4.24 0 10.85-2.71 22.38-7.97 34.93-5.43 12.55-13.06 22.56-22.89 30.02-1.87-.51-6.28-1.02-13.24-1.36-7.12-.51-12.38-1.86-16.11-4.24zm34.94 43.24c.51 42.91 1.19 85.81 2.21 128.88.84 43.07 2.03 72.58 3.56 88.69 1.35 15.94 4.92 25.26 10.85 27.81 5.77 2.54 12.9 3.9 21.38 3.9 9.32 0 16.79-.68 22.38-2.04v6.45c-13.06 7.8-28.32 13.56-45.96 17.63-17.47 4.07-34.78 6.11-51.56 6.28-2.72-11.7-4.75-23.57-5.94-35.44s-1.7-26.12-1.7-42.4c0-8.48.17-21.36.68-39 .51-17.47.68-30.35.68-38.83v-9.16c0-22.89-1.19-40.19-3.56-51.72-2.37-11.7-6.45-17.64-12.56-17.64-2.88 0-7.12.68-13.06 1.87-5.76 1.02-9.15 1.7-10.17 1.7-6.1 0-10.52-2.21-13.24-6.28 14.43-5.26 29.01-10.34 43.43-15.43 14.93-6.61 28.83-14.92 41.39-25.27z"/><path d="m7141.22 630.43h23.91c14.93 0 26.97 1.52 35.79 4.58 8.82 3.05 16.29 9.49 22.39 19.33-1.86 11.19-5.08 16.96-9.66 16.96-2.38 0-9.51-5.77-21.38-16.96s-20.18-16.79-24.94-16.79c-14.75 0-27.47 2.54-37.64 7.8-10.36 5.09-17.48 12.55-21.38 22.22-3.9 9.49-5.93 17.8-5.93 24.92 0 12.21 4.07 24.08 12.21 35.61s26.46 21.03 54.95 28.83c28.5 7.8 44.96 18.15 49.7 31.37 4.58 13.06 6.96 23.74 6.96 31.71 0 9.84-2.21 19.34-6.62 28.49-4.57 9.16-11.37 18.99-20.36 29.68-9.15 10.51-18.65 18.82-28.48 24.93-9.85 6.1-21.04 9.15-33.59 9.15-9 0-18.15-1.86-27.82-5.76-9.5-3.73-16.62-9.84-21.38-18.49-4.57-11.87-7.97-20.35-9.83-25.6 4.75 0 13.91 4.24 27.82 12.88 13.73 8.65 22.55 13.57 26.63 14.76 3.9 1.19 10.52 1.86 20.01 1.86 7.46 0 14.59-1.52 21.72-4.58 6.95-3.05 12.88-8.13 17.46-15.43 4.75-7.29 7.13-15.26 7.13-23.74 0-6.95-2.72-14.75-8.14-23.23-5.43-8.48-23.75-17.63-55.13-27.47s-48.68-21.03-52.24-33.41c-3.57-12.54-5.94-22.72-7.47-30.69-1.35-7.97-2.03-14.41-2.03-18.99 0-13.23 3.9-26.62 11.87-40.19 7.98-13.74 16.12-24.42 24.26-32.05 8.14-7.8 18.65-11.7 31.21-11.7z"/><path d="m7277.93 552.42c2.71-1.52 9.16-6.1 19.34-14.07s17.47-12.04 22.05-12.04c2.71 0 5.93 1.53 9.49 4.24v115.48c1.36.51 3.74 1.02 6.97 1.53 3.39.33 6.44.67 9.15.67 5.6 0 16.79-1.35 33.42-3.9 16.62-2.54 27.13-3.9 31.88-3.9 5.1 0 8.83.34 11.2.68v17.64c-7.97 1.86-23.92 3.22-48 4.24-23.92.84-40.03 1.86-47.84 2.71-1.02 15.94-1.69 34.25-2.2 54.77-.51 20.69-.68 41.89-.68 63.93 0 24.42 1.02 42.91 2.88 55.79 1.87 12.89 7.13 23.23 15.95 31.04 8.99 7.63 20.18 11.53 33.76 11.53 4.58 0 9.49-.68 14.58-1.87 5.26-1.19 14.07-4.41 26.63-9.83 12.72-5.43 22.05-8.65 27.98-9.67-5.08 16.28-14.41 26.79-27.98 31.71-13.74 4.92-26.97 9.33-40.2 13.23-13.06 3.9-23.07 5.93-30.19 5.93-14.93 0-28.33-3.56-40.03-10.85s-18.83-17.98-21.55-32.22c-2.54-14.41-4.24-30.52-5.25-48.84-.85-18.31-1.36-38.66-1.36-61.04 0-14.93 0-29.85 0-44.94 0-14.92 0-29.68 0-44.09-1.86-2.88-7.8-5.09-17.97-6.78-10.36-1.53-13.75-6.11-10.53-13.57.51-.51 5.44-1.19 14.76-2.2 9.33-.85 14.93-4.41 16.79-10.52-2.03-6.95-3.05-15.43-3.05-25.26 0-3.74.51-9.84 1.53-18.15 1.01-8.48 1.52-14.75 1.52-18.99 0-6.95-1.01-14.59-3.05-22.39z"/></g><g fill="#dddad6"><path d="m4807.11 196.1c5.61 36.63 19.85 74.95 42.58 114.8s47.5 82.42 74.46 127.86c26.8 45.62 62.25 107.51 106.01 185.69 43.76 78.34 75.99 137.35 96.51 177.2 20.53 40.02 36.3 64.27 46.98 72.92 10.87 8.65 16.97 16.96 18.33 24.93h-147.57c-1.87-9.33 3.56-16.11 16.46-20.01 12.71-4.07 19.16-10.69 19.16-20.18-14.92-38.5-30.7-74.61-47.15-108.19-16.28-33.58-33.93-67.49-52.58-101.75-18.83-34.42-41.73-74.78-68.87-121.24h-274.1c-18.32 35.27-37.15 71.39-56.31 108.53-19.17 37.13-36.64 72.74-52.42 107.17-15.6 34.25-27.3 61.04-34.76 80.55-7.47 19.5-11.21 30.69-11.21 33.57 0 6.61 4.75 12.89 14.26 18.99 9.5 6.11 14.24 10.52 14.24 13.4 0 3.22-2.37 6.27-7.12 9.16h-50.54-10.53-9.15-8.48c-9.5 0-18.83-.17-28.16-.68s-18.48-1.36-27.47-2.88c42.57-35.11 80.57-77.84 114.14-128.03 33.42-50.03 72.94-120.74 118.56-211.63 45.8-90.89 77.35-153.64 94.83-187.72 17.63-34.26 35.28-66.48 53.08-96.49 17.81-30.01 36.81-55.28 56.82-75.97zm-35.96 109.88c-14.58 16.45-31.54 40.19-51.22 71.57-19.67 31.2-35.11 57.14-46.3 77.83-11.37 20.52-20.35 37.31-27.48 50.36h250.7c-14.6-30.86-31.05-61.38-49.54-91.4-18.48-30.18-40.54-64.77-66.31-104.12z"/><path d="m5242.18 203.39c11.7-1.86 28.5-3.39 50.54-4.92 22.06-1.35 50.72-2.03 86.34-2.03-1.01 4.24-7.64 7.29-20.35 9.16-12.55 1.86-18.83 7.46-18.83 16.78 0 65.12.17 130.41.34 195.52.17 65.12.51 138.38 1.02 219.94.51 81.57.68 139.73.68 174.33 0 16.95 2.03 30.52 5.93 40.86 3.9 10.18 12.89 17.3 26.96 21.03 6.97.85 14.26-1.02 22.06-5.76 7.63-4.92 15.09-9.67 22.05-14.59.85 1.36 1.36 3.73 1.36 7.12 0 7.13-4.25 13.4-12.9 18.66-8.65 5.25-16.45 9.83-23.06 13.9-6.78 4.07-15.78 6.11-26.97 6.11-5.6 0-11.02-.51-16.11-1.36-5.1-1.02-12.39-2.88-21.72-5.6l-11.19-14.07-20.36-517.54-5.59-137.02c-1.87-7.97-7.13-12.89-15.6-14.75-8.31-1.87-16.63-3.9-24.6-5.77z"/><path d="m5567.67 619.7c13.07 0 24.43 6.44 33.93 19.16 9.66 12.89 18.83 25.27 27.65 37.48-7.46 2.37-17.99-.51-31.72-8.82-13.91-8.14-23.75-12.21-29.86-12.21-18.14 0-34.09 1.53-47.66 4.58-13.56 3.05-26.97 11.02-40.53 23.74-13.57 12.72-20.35 29.33-20.35 50.02 0 10.01 3.9 24.93 11.87 44.94s24.58 38.32 49.86 54.77c25.11 16.45 46.47 26.29 64.12 29.68 17.47 3.22 27.98 4.92 31.71 4.92 11.37 0 21.04-4.07 29.18-12.38s15.1-15.43 20.7-21.2c-2.89 18.65-11.54 34.09-26.3 46.46-14.75 12.38-31.72 18.66-50.88 18.66-66.83 0-108.56-18.99-125.35-57.15-16.79-37.98-25.27-63.42-25.27-76.14 0-11.19 1.69-22.55 5.25-33.74 3.56-11.37 11.7-27.48 24.6-48.67 12.72-21.2 27.64-37.14 44.78-47.82 16.96-10.85 35.11-16.28 54.27-16.28z"/><path d="m5696.08 196.1c4.24 1.36 10.69 2.04 19.51 2.37 8.82.34 15.94.34 21.7.34 6.63 0 16.46-.17 29.35-.67 13.06-.34 22.39-.68 28.16-.68 11.7 0 22.55.68 32.57 2.2v6.28c-14.09 0-24.43.84-30.71 2.37-6.27 1.7-10.68 6.95-13.05 15.77 0 59.01.17 108.36.68 148.21.5 39.68 1.18 88.01 2.03 144.82.85 56.8 1.36 97.5 1.36 121.75l4.58 4.92c35.62-21.54 73.44-32.22 113.64-32.22 27.64 0 47.66 3.56 60.04 10.85s19.51 12.72 21.38 16.11c1.86 3.56 4.91 10.85 8.81 22.22 4.07 11.19 5.94 26.79 5.94 46.97 0 11.19-.85 27.81-2.88 49.68-1.87 22.05-2.89 38.5-2.89 49.18 0 13.57 1.02 26.11 3.23 37.48 2.03 11.53 5.93 22.38 11.53 32.72 2.37.85 6.1 1.36 11.36 1.36 6.45-.68 11.37-1.02 14.76-1.02 7.46 0 13.06 1.7 16.79 4.92-2.2.85-4.58 1.87-6.95 3.05-2.38 1.19-3.56 2.21-3.56 3.23 0 1.35 2.71 2.03 7.8 2.03l-100.75 9.16c-1.36-13.57-2.04-27.13-2.04-40.7 0-9.5.85-28.15 2.55-55.96 1.69-27.98 2.54-48.67 2.54-62.23 0-20.18-.85-36.29-2.37-48.5-1.7-12.21-4.75-24.08-9.17-35.61-4.58-11.37-11.02-18.66-19.33-21.37-8.48-2.88-18.99-4.24-31.72-4.24h-12.55c-20.7 0-39.01 4.75-55.29 14.41-16.12 9.67-27.99 23.07-35.45 40.36l-2.04 182.97c1.36 6.96 8.65 12.38 21.88 16.11 13.22 3.74 19.85 8.65 19.85 14.76h-120.09c1.02-4.75 7.46-10.18 19.33-16.45 11.87-6.45 19-12.21 21.38-17.3v-156.18c0-79.7-.34-140.74-1.02-183.14-.68-42.39-2.54-88.35-5.26-137.86-2.89-49.52-5.94-90.39-9.5-122.77-3.56-32.39-8.65-50.71-15.44-55.12-6.78-4.57-13.73-9.32-20.69-14.58z"/><path d="m6177.62 631.57c12.22-7.97 25.27-11.87 39.35-11.87 14.93 0 29.51 3.56 43.76 10.51 14.25 7.12 31.21 17.3 50.89 30.86-14.93 17.47-44.1 44.43-87.53 81.23-43.25 36.8-69.37 59.86-78.35 69.19 9.83 14.92 21.87 27.3 35.95 36.8 13.91 9.66 26.46 15.09 37.48 16.61 11.03 1.36 19.34 2.04 25.11 2.04 12.55 0 23.24-1.7 31.89-5.26 8.65-3.39 28.83-14.92 60.21-34.42-9.84 12.55-18.32 22.55-25.27 29.84-7.13 7.3-14.59 12.04-22.56 14.76-7.97 2.54-22.06 7.8-42.41 15.77s-35.62 11.87-45.96 11.87c-6.61 0-11.36-.34-14.42-1.02s-12.04-4.58-26.97-11.36c-15.1-6.78-30.53-20.86-46.64-42.06-16.29-21.36-24.94-39-26.46-53.07-1.36-14.08-2.04-23.91-2.04-29.51 0-27.3 8.14-50.87 24.26-70.71 16.11-20.01 39.35-40.02 69.71-60.2zm42.91 24.76c-9.33-6.11-20.01-9.16-31.71-9.16-20.7 0-37.66 8.48-50.89 25.61-13.06 17.12-19.67 36.62-19.67 58.67 0 21.53 6.61 42.56 19.84 63.25 20.18-12.72 43.42-31.54 69.71-56.64 26.29-24.93 43.93-41.04 52.92-47.99-4.24-6.61-9.16-12.04-14.75-16.62-5.77-4.4-14.08-10.17-25.45-17.12z"/><path d="m6464.27 624.79 7.13 44.26c5.6-1.87 22.22-10.52 49.87-26.12 27.47-15.43 49.36-23.23 65.3-23.23 10.18 0 21.54 2.88 33.58 8.48 12.73 17.29 26.3 25.94 40.71 25.94 6.61 0 14.76-3.9 24.6-11.7 9.83-7.63 20.01-13.39 30.19-17.13 10.35-3.73 23.07-5.59 38-5.59 16.28 0 30.69 3.9 42.74 11.53 12.21 7.8 18.31 18.14 18.31 31.37 0 28.49 1.36 67.66 4.07 117.35 2.72 49.68 4.07 76.64 4.07 80.88 2.89 4.24 7.97 6.28 15.45 6.28 7.46 0 12.54 1.52 14.75 4.24-7.8 7.46-19.84 13.56-35.62 18.31-19.16 4.75-33.08 7.97-42.07 9.84-3.56-6.96-5.42-15.77-5.42-25.95 0-6.61.68-16.11 2.03-28.49 1.36-12.38 2.04-20.51 2.04-24.25 0-12.71.51-28.82 1.52-48.49 1.02-19.67 1.53-30.53 1.53-32.39 0-21.54-2.71-39.51-8.14-54.1-5.26-14.41-15.94-27.3-31.89-38.66-4.24-1.36-8.65-2.04-13.23-2.04-10.85 0-20.36 2.55-28.84 7.81-8.47 5.08-19.33 13.73-32.9 25.94-7.12 13.91-11.87 29.85-14.42 47.65-2.54 17.81-3.9 37.48-3.9 59.01 0 14.42.17 28.66.68 42.74.51 14.07.85 27.81 1.36 41.37 1.02 3.73 5.25 7.12 12.89 9.84 7.63 2.88 11.53 5.93 11.53 9.15 0 2.38-.85 5.09-2.72 8.48-7.46 0-17.63.34-30.18 1.19-12.56.85-20.19 1.19-23.07 1.19-12.55 0-23.74-1.87-33.59-5.6 6.61-16.96 11.54-35.61 15.1-56.3s5.26-41.2 5.26-61.89c0-17.81-1.02-35.27-2.88-52.4-1.87-16.96-4.41-34.93-7.63-53.76-5.1-7.46-11.21-12.71-18.16-15.77-7.12-3.05-15.09-4.58-23.92-4.58-7.46 0-19.5 2.72-36.12 8.14-16.63 5.43-29.34 18.49-38.16 39.18-9 20.85-13.41 46.29-13.41 76.47 0 8.82.51 24.42 1.53 46.64.85 22.21 1.35 33.4 1.35 33.91 0 10.86 2.89 18.83 8.49 24.08l24.08 8.48c-3.22 4.75-8.65 8.14-16.11 10.18-7.63 2.2-16.29 3.22-26.12 3.22-3.73 0-10.52-.34-20.01-.85-9.68-.51-17.14-.85-22.23-.85-6.1.51-10.51.68-13.39.68-.51-4.24 2.88-10.68 9.83-19.67 6.96-8.82 10.86-15.94 11.53-21.03.68-5.09 1.02-11.53 1.02-19.33 0-7.63 0-13.57 0-17.8 0-18.83-1.02-44.43-3.05-77.16-2.2-32.9-3.22-50.37-3.22-52.74-1.36-6.1-4.92-9.16-10.52-9.16-2.71 0-7.12.68-12.88 1.87-5.95 1.19-9.34 1.69-10.36 1.69-3.22 0-5.76-.5-7.63-1.35 6.95-7.97 20.53-17.64 40.71-29.17 20.19-11.53 34.43-21.37 42.91-29.84z"/><path d="m6945.31 578.49c4.07-3.73 9.34-15.26 15.78-34.59 6.27-19.33 15.09-29 26.28-29 5.09 0 11.21 1.36 18.16 4.24 0 10.85-2.71 22.38-7.97 34.93-5.44 12.55-13.07 22.56-22.9 30.02-1.87-.51-6.28-1.02-13.23-1.36-7.12-.51-12.39-1.86-16.12-4.24zm34.94 43.24c.51 42.91 1.19 85.81 2.21 128.88.84 43.07 2.03 72.58 3.56 88.69 1.35 15.94 4.92 25.26 10.86 27.81 5.77 2.54 12.89 3.9 21.37 3.9 9.32 0 16.8-.68 22.39-2.04v6.45c-13.07 7.8-28.33 13.56-45.96 17.63-17.48 4.07-34.78 6.11-51.57 6.28-2.72-11.7-4.75-23.57-5.94-35.44s-1.7-26.12-1.7-42.4c0-8.48.17-21.36.68-39 .51-17.47.68-30.35.68-38.83v-9.16c0-22.89-1.19-40.19-3.56-51.72-2.37-11.7-6.44-17.64-12.55-17.64-2.88 0-7.12.68-13.07 1.87-5.76 1.02-9.15 1.7-10.17 1.7-6.1 0-10.51-2.21-13.23-6.28 14.42-5.26 29-10.34 43.42-15.43 14.93-6.61 28.84-14.92 41.39-25.27z"/><path d="m7141.22 619.7h23.92c14.92 0 26.96 1.52 35.79 4.58 8.82 3.05 16.28 9.49 22.38 19.33-1.86 11.19-5.08 16.96-9.66 16.96-2.38 0-9.5-5.77-21.38-16.96-11.87-11.19-20.18-16.79-24.93-16.79-14.76 0-27.48 2.54-37.65 7.8-10.35 5.09-17.48 12.55-21.38 22.22-3.9 9.49-5.93 17.8-5.93 24.92 0 12.21 4.07 24.08 12.21 35.61 8.15 11.53 26.46 21.03 54.96 28.83s44.95 18.15 49.69 31.37c4.58 13.06 6.96 23.74 6.96 31.71 0 9.84-2.21 19.34-6.62 28.49-4.57 9.16-11.36 18.99-20.35 29.68-9.16 10.51-18.66 18.82-28.49 24.93-9.84 6.1-21.04 9.15-33.59 9.15-8.99 0-18.14-1.86-27.82-5.76-9.5-3.73-16.62-9.84-21.37-18.49-4.57-11.87-7.97-20.35-9.83-25.6 4.75 0 13.9 4.24 27.81 12.88 13.74 8.65 22.56 13.57 26.63 14.76 3.9 1.19 10.52 1.86 20.01 1.86 7.47 0 14.6-1.52 21.72-4.58 6.95-3.05 12.88-8.13 17.46-15.43 4.76-7.29 7.14-15.26 7.14-23.74 0-6.95-2.73-14.75-8.15-23.23-5.43-8.48-23.74-17.63-55.13-27.47-31.38-9.84-48.67-21.03-52.23-33.41-3.57-12.54-5.94-22.72-7.47-30.69-1.36-7.97-2.04-14.41-2.04-18.99 0-13.23 3.91-26.62 11.88-40.19 7.97-13.74 16.11-24.42 24.25-32.05 8.15-7.8 18.66-11.7 31.21-11.7z"/><path d="m7277.94 541.69c2.71-1.52 9.16-6.1 19.33-14.07 10.18-7.97 17.47-12.04 22.06-12.04 2.71 0 5.93 1.53 9.49 4.24v115.48c1.36.51 3.73 1.02 6.96 1.53 3.39.33 6.44.67 9.15.67 5.6 0 16.8-1.35 33.42-3.9 16.62-2.54 27.14-3.9 31.89-3.9 5.09 0 8.82.34 11.19.68v17.64c-7.97 1.86-23.92 3.22-48 4.24-23.92.84-40.03 1.86-47.83 2.71-1.02 15.94-1.69 34.25-2.2 54.77-.51 20.69-.68 41.89-.68 63.93 0 24.42 1.02 42.91 2.88 55.79 1.87 12.89 7.12 23.23 15.94 31.04 8.99 7.63 20.19 11.53 33.76 11.53 4.58 0 9.49-.68 14.58-1.87 5.26-1.19 14.08-4.41 26.63-9.83 12.72-5.43 22.05-8.65 27.99-9.67-5.08 16.28-14.42 26.79-27.99 31.71-13.73 4.92-26.97 9.33-40.2 13.23-13.05 3.9-23.07 5.93-30.19 5.93-14.92 0-28.32-3.56-40.03-10.85-11.7-7.29-18.82-17.98-21.54-32.22-2.54-14.41-4.24-30.52-5.25-48.84-.85-18.31-1.36-38.66-1.36-61.04 0-14.93 0-29.85 0-44.94 0-14.92 0-29.68 0-44.09-1.87-2.88-7.81-5.09-17.98-6.78-10.35-1.53-13.74-6.11-10.52-13.57.51-.51 5.43-1.19 14.75-2.2 9.33-.85 14.94-4.41 16.8-10.52-2.03-6.95-3.05-15.43-3.05-25.26 0-3.74.51-9.84 1.53-18.15 1.01-8.48 1.52-14.75 1.52-18.99 0-6.95-1.01-14.59-3.05-22.39z"/></g></g></svg>