<svg clip-rule="evenodd" fill-rule="evenodd" height="128.5mm" image-rendering="optimizeQuality" shape-rendering="geometricPrecision" text-rendering="geometricPrecision" viewBox="0 0 5080 12850" width="50.8mm" xmlns="http://www.w3.org/2000/svg" xmlns:xlink="http://www.w3.org/1999/xlink"><linearGradient id="a" gradientUnits="userSpaceOnUse" x1="2540.02" x2="2540.02" y1="1588.19" y2="1913.07"><stop offset="0" stop-color="#610000"/><stop offset="1" stop-color="#f00"/></linearGradient><path d="m1283.24 2472.85-47.94 19.74v62.03l42.3-14.1v129.7h73.33v-197.37z" fill="#dddad6" fill-rule="nonzero"/><path d="m317.19 1957.06 329.39-412.87 329.4 412.87h-294.01v-96.18h95.28l-130.67-163.34-130.67 163.34h95.28v96.18z" fill="#282c02" fill-rule="nonzero"/><path d="m1780.38 1956.25 326.84-205.62c1.38-.83 2.06-2.21 2.06-4.14 0-1.38-.96-2.34-2.89-2.9l-146.46-36.81 143.15-155.98c.82-.83 1.24-1.8 1.24-2.89 0-1.39-.48-2.35-1.45-2.91-.96-.55-1.86-.82-2.68-.82-.84 0-1.52.14-2.07.41l-326.43 199.42c-1.11.28-1.66 1.38-1.66 3.31s.83 3.17 2.49 3.72l146.04 43.03-143.56 156.38c-.55.29-.83 1.11-.83 2.49 0 2.76 1.38 4.14 4.14 4.14.82 0 1.52-.28 2.07-.83z" fill="#282c02"/><g fill="#dddad6"><path d="m1070.53 1365.31v-59.02h-50.1l142.51-251.64 131.39 233.83h84.62l131.4-233.83 142.51 251.64h-50.11v59.02h293.96v-59.02h-148.08l-190.42-337.39 223.82-397.49h-95.77l-175.91 310.66-131.4-233.83h-84.62l-131.39 233.83-175.92-310.66h-95.75l222.69 397.49-189.28 337.39h-148.1v59.02zm141.4-396.41 124.72-220.45 124.7 220.45-124.7 219.37z"/><g fill-rule="nonzero"><path d="m3800.99 2591.27c0 14.1-14.11 28.2-36.66 28.2-16.93 0-31.03-8.46-31.03-8.46l-19.74 45.11s25.38 18.33 64.86 18.33c50.77 0 93.08-42.29 93.08-102.91 0-66.26-36.67-102.91-90.26-102.91-47.94 0-78.96 31.01-78.96 71.89 0 39.48 25.38 64.85 64.87 64.85 22.55 0 33.84-14.1 33.84-14.1zm-33.84-50.75c0-12.68 7.05-19.73 14.09-19.73 7.05 0 14.11 7.05 14.11 19.73 0 12.69-7.06 19.74-14.11 19.74-7.04 0-14.09-7.05-14.09-19.74z"/><path d="m3667.02 3773.88-47.94 19.73v62.03l42.3-14.1v129.69h73.31v-197.35z"/><path d="m3858.77 3833.08c11.29 0 22.57 11.28 22.57 39.47 0 28.2-11.28 39.47-22.57 39.47-11.27 0-22.55-11.27-22.55-39.47 0-28.19 11.28-39.47 22.55-39.47zm0 142.38c53.59 0 95.89-42.29 95.89-102.91 0-60.61-42.3-102.9-95.89-102.9-53.57 0-95.87 42.29-95.87 102.9 0 60.62 42.3 102.91 95.87 102.91z"/><path d="m3707.91 5074.72-47.94 19.73v62.03l42.3-14.1v129.7h73.33v-197.36z"/><path d="m3846.11 5074.72-47.94 19.73v62.03l42.3-14.1v129.7h73.33v-197.36z"/><path d="m3683.24 6377.77-47.94 19.73v62.03l42.3-14.1v129.7h73.33v-197.36z"/><path d="m3938.47 6436.97c0-32.42-31.02-63.43-80.38-63.43-53.58 0-78.96 31.01-78.96 31.01l26.79 42.29s16.92-15.5 40.9-15.5c9.86 0 15.5 5.63 15.5 14.09 0 25.38-78.96 73.31-78.96 73.31v56.39h152.29v-62.03h-56.4s59.22-28.19 59.22-76.13z"/><path d="m3684.65 7674.47-47.94 19.73v62.03l42.3-14.1v129.7h73.33v-197.36z"/><path d="m3928.6 7733.67v-59.2h-138.19v59.2h64.86l-33.84 22.56v36.65h23.98c9.86 0 15.5 5.64 15.5 12.69s-5.64 12.69-15.5 12.69c-23.98 0-40.9-15.51-40.9-15.51l-26.79 42.29s25.38 31.02 78.96 31.02c49.36 0 80.38-31.02 80.38-62.03 0-46.52-47.94-54.98-47.94-54.98z"/><path d="m3678.3 8977.51-47.94 19.73v62.03l42.3-14.1v129.7h73.33v-197.36z"/><path d="m3926.48 9090.29v-112.78h-84.6l-70.5 112.78v53.57h81.78v31.01h73.32v-31.01h16.93v-53.57zm-90.24 0 16.92-36.66v36.66z"/><path d="m3686.06 10276.33-47.94 19.73v62.03l42.3-14.1v129.7h73.33v-197.36z"/><path d="m3867.96 10346.81c-11.28 0-19.73 2.82-19.73 2.82l2.82-14.1h73.32v-59.2h-126.9l-14.11 93.04 33.84 22.55s11.28-5.63 22.57-5.63c12.69 0 19.73 7.04 19.73 16.91s-7.04 16.92-19.73 16.92c-19.75 0-36.67-15.51-36.67-15.51l-26.79 42.29s25.38 31.02 78.96 31.02c49.36 0 80.38-31.02 80.38-66.26 0-36.65-28.2-64.85-67.69-64.85z"/><path d="m3678.3 11579.41-47.94 19.73v62.03l42.3-14.1v129.7h73.33v-197.36z"/><path d="m3844.7 11658.35c0-14.1 14.1-28.19 36.66-28.19 16.93 0 31.02 8.45 31.02 8.45l19.75-45.11s-25.39-18.32-64.87-18.32c-50.76 0-93.06 42.29-93.06 102.91 0 66.26 36.66 102.91 90.24 102.91 47.94 0 78.97-31.02 78.97-71.9 0-39.47-25.39-64.85-64.87-64.85-22.56 0-33.84 14.1-33.84 14.1zm33.84 50.75c0 12.69-7.05 19.74-14.1 19.74s-14.1-7.05-14.1-19.74 7.05-19.73 14.1-19.73 14.1 7.04 14.1 19.73z"/><path d="m1372.8 3835.11c0-32.43-31.03-63.44-80.38-63.44-53.6 0-78.97 31.01-78.97 31.01l26.78 42.3s16.93-15.51 40.9-15.51c9.88 0 15.52 5.64 15.52 14.1 0 25.37-78.97 73.31-78.97 73.31v56.39h152.3v-62.03h-56.42s59.24-28.2 59.24-76.13z"/><path d="m1364.34 5131.81v-59.21h-138.2v59.21h64.87l-33.85 22.56v36.65h23.97c9.88 0 15.52 5.64 15.52 12.69s-5.64 12.69-15.52 12.69c-23.97 0-40.89-15.51-40.89-15.51l-26.8 42.29s25.39 31.02 78.98 31.02c49.35 0 80.38-31.02 80.38-62.03 0-46.53-47.95-54.98-47.95-54.98z"/><path d="m1362.21 6488.42v-112.78h-84.61l-70.5 112.78v53.57h81.79v31.02h73.32v-31.02h16.92v-53.57zm-90.25 0 16.93-36.65v36.65z"/><path d="m1305.11 7744.95c-11.28 0-19.75 2.82-19.75 2.82l2.82-14.1h73.34v-59.21h-126.92l-14.1 93.04 33.84 22.56s11.28-5.64 22.56-5.64c12.7 0 19.75 7.05 19.75 16.92s-7.05 16.92-19.75 16.92c-19.74 0-36.66-15.51-36.66-15.51l-26.8 42.29s25.39 31.02 78.98 31.02c49.35 0 80.38-31.02 80.38-66.26 0-36.66-28.21-64.85-67.69-64.85z"/><path d="m1279.01 9056.45c0-14.1 14.11-28.2 36.66-28.2 16.93 0 31.03 8.46 31.03 8.46l19.74-45.11s-25.38-18.33-64.86-18.33c-50.77 0-93.07 42.29-93.07 102.91 0 66.26 36.66 102.92 90.25 102.92 47.94 0 78.96-31.02 78.96-71.9 0-39.47-25.38-64.85-64.87-64.85-22.55 0-33.84 14.1-33.84 14.1zm33.84 50.75c0 12.69-7.05 19.74-14.09 19.74-7.05 0-14.11-7.05-14.11-19.74s7.06-19.74 14.11-19.74c7.04 0 14.09 7.05 14.09 19.74z"/><path d="m1367.86 10278.43h-149.48v62.03h71.92l-66.28 135.34h76.15l67.69-138.16z"/><path d="m1293.12 11618.87c7.05 0 12.68 5.64 12.68 15.51s-5.63 15.51-12.68 15.51-12.7-5.64-12.7-15.51 5.65-15.51 12.7-15.51zm0 78.95c8.45 0 15.5 7.05 15.5 16.92s-7.05 16.92-15.5 16.92c-8.47 0-15.52-7.05-15.52-16.92s7.05-16.92 15.52-16.92zm0-122.65c-49.36 0-77.56 28.19-77.56 56.39 0 31.02 28.2 40.88 28.2 40.88v1.41s-39.48 9.87-39.48 49.35c0 29.6 28.19 57.8 88.84 57.8 60.63 0 88.83-28.2 88.83-57.8 0-39.48-39.48-49.35-39.48-49.35v-1.41s28.2-9.86 28.2-40.88c0-28.2-28.2-56.39-77.55-56.39z"/></g></g><path d="m2810.96 1957.06 329.39-412.87 329.4 412.87h-294.01v-96.18h95.28l-130.67-163.34-130.67 163.34h95.28v96.18z" fill="#282c02" fill-rule="nonzero"/><path d="m4274.15 1956.25 326.84-205.62c1.38-.83 2.07-2.21 2.07-4.14 0-1.38-.97-2.34-2.9-2.9l-146.46-36.81 143.15-155.98c.82-.83 1.24-1.8 1.24-2.89 0-1.39-.48-2.35-1.45-2.91-.96-.55-1.86-.82-2.68-.82-.84 0-1.52.14-2.07.41l-326.43 199.42c-1.11.28-1.65 1.38-1.65 3.31s.82 3.17 2.48 3.72l146.04 43.03-143.56 156.38c-.55.29-.83 1.11-.83 2.49 0 2.76 1.38 4.14 4.14 4.14.82 0 1.52-.28 2.07-.83z" fill="#282c02"/><path d="m2540.02 1588.19c19.57 108.29 78.27 162.44 78.27 216.59 0 54.14-19.56 108.29-78.27 108.29s-78.27-54.15-78.27-108.29c0-54.15 58.7-108.3 78.27-216.59z" fill="url(#a)"/><path d="m2540 2404.57v9439.69" fill="none" stroke="#dddad6" stroke-linecap="round" stroke-miterlimit="22.9256" stroke-width="42.33"/><g fill-rule="nonzero"><g fill="#2f2f2f"><path d="m3051.62 12291.53v2.91c-4.46.39-7.82 1.16-10.02 2.39-2.27 1.23-4.08 2.85-5.5 4.98 0 22.11 1.88 48.23 5.63 78.23s7.5 60.52 11.31 91.61c3.82 31.04 5.75 57.68 5.75 79.79 1.75.9 3.82 1.87 6.08 2.84 2.33.97 4.14 1.75 5.56 2.26-3.17.78-6.66 1.36-10.41 1.69-3.68.32-7.43.45-11.18.45-2.65 0-6.6-.07-11.83-.13-5.24-.07-9-.13-11.33-.13-.71-1.23.84-2.72 4.59-4.27 3.76-1.61 6.09-3.04 7-4.33.9-1.23 1.48-2.72 1.74-4.4s.39-4.39.39-8.14c0-21.92-1.1-43.32-3.36-64.07-2.2-20.76-5.37-42.35-9.52-64.72-4.07-22.44-8.08-44.16-12.02-65.17l-5.89 6.4c-7.5 16.61-16.94 38.08-28.26 64.52-11.38 26.38-21.92 50.95-31.75 73.84-9.83 22.82-20.11 46.22-30.78 70.34h-1.87c-8.94-23.92-19.73-52.24-32.28-84.96-12.6-32.71-22.76-59.54-30.39-80.42-7.7-20.89-15.26-43.06-22.76-66.47l-2.99-3.75c-3.94 5.37-7.04 11.25-9.37 17.72-2.33 6.4-6.08 20.69-11.38 42.73-5.24 22.11-9.76 40.86-13.51 56.32-3.75 15.45-7.9 34.07-12.49 55.79-4.53 21.73-7.89 40.15-10.02 55.35.39 1.74 1.94 2.84 4.72 3.16 2.71.39 3.68 1.88 2.78 4.53h-39.97l10.75-14.74c6.01-20.76 14.8-48.75 26.31-83.99 11.51-35.23 20.5-63.23 26.91-84.05 6.4-20.88 12.28-42.54 17.65-65.04-.72-2.97-2.27-5.17-4.66-6.59-2.46-1.49-7.11-2.2-14.09-2.2 4.65-3.49 9.44-6.21 14.35-8.21 4.91-2.01 10.09-2.97 15.66-2.97h2.9c1.43.38 2.53.51 3.24.51 1.42 2.01 2.84 4.2 4.26 6.6 1.43 2.39 4.79 10.02 10.03 22.82 5.3 12.74 12.15 32 20.63 57.8 8.47 25.73 16.81 51.01 25.02 75.9 8.21 24.83 16.56 47.33 25.16 67.57l6.4-8.6c10.86-24.05 22.32-49.33 34.28-75.97 11.89-26.57 22.63-51.47 32.08-74.61 9.44-23.08 17.71-46.1 24.89-69.05 2.45-1.1 5.36-1.88 8.53-2.33 3.24-.45 7.19-.64 11.78-.64 1.81 0 3.62.12 5.49.45 1.88.32 3.82.45 5.76.45z"/><path d="m3178.01 12452.19c4.46-.9 8.34-1.35 11.5-1.35 6.48 0 12.17 1.29 17.28 3.88 5.1 2.58 9.57 6.91 13.38 12.86 3.82 6.01 6.85 11.19 8.99 15.45 2.13 4.27 3.17 8.67 3.17 13.13 0 3.62-2.46 10.28-7.38 20.11-4.84 9.89-12.02 19.39-21.4 28.57-9.31 9.25-20.82 13.84-34.34 13.84-1.29 0-2.07 0-2.45 0-8.86 0-16.76-2.65-23.68-7.89-6.85-5.3-12.54-11.9-17.13-19.78-4.53-7.96-6.79-15.13-6.79-21.6 0-5.3 2.2-11.96 6.53-19.91 4.4-7.95 10.99-15.45 19.85-22.63 8.8-7.11 19.67-12.03 32.47-14.68zm10.73 15.13c-2.72-1.55-5.43-2.71-8.15-3.49-2.78-.71-5.62-1.03-8.47-1.03-5.88 0-11.51 1.48-16.81 4.52-5.37 3.11-10.09 6.99-14.23 11.83-4.07 4.85-6.14 10.15-6.14 15.91 0 3.17.39 6.08 1.1 8.6.71 2.45 2.45 7.3 5.3 14.48 2.91 7.18 7.76 13.25 14.62 18.3 6.85 4.98 15.13 7.5 24.76 7.5 6.92 0 12.94-1.62 18.05-4.85s9.5-7.7 13.25-13.45c3.75-5.69 5.63-11.64 5.63-17.71 0-5.37-1.42-10.87-4.14-16.56-2.78-5.62-6.01-10.15-9.76-13.51-3.75-3.43-8.79-6.92-15.01-10.54z"/><path d="m3351.73 12290.63c5.18.77 10.35 1.22 15.52 1.22h11.25 8.86c2.85 0 5.95.07 9.32.33-3.37.71-6.22 1.35-8.54 2-2.33.65-3.75 2.26-4.27 4.98 0 21.08-.19 40.99-.52 59.67-.32 18.69-.71 41.25-1.03 67.7 0 22.56.39 42.15 1.23 58.77.77 16.61 2.32 34.65 4.65 54.18 1.04 2.52 2.2 4.46 3.49 5.88 1.23 1.42 2.99 2.52 5.31 3.23 1.81.52 4.21-.39 7.25-2.71 2.97-2.4 5.49-3.04 7.43-1.94-2.84 3.94-5.62 7.24-8.4 9.95-2.78 2.65-5.89 4.01-9.26 4.01-1.94 0-4.2-.84-6.66-2.45-2.2-4.21-4.33-7.18-6.59-8.93-2.2-1.74-4.59-2.58-7.05-2.58-3.04 0-7.95 2.13-14.74 6.4-6.8 4.26-12.17 6.4-16.05 6.4-3.03 0-6.07 0-9.11 0s-5.95 0-8.86 0c-6.59 0-12.03-.39-16.43-1.23-4.4-.78-9.57-3.1-15.65-7.05-6.07-3.94-11.12-9.44-15.13-16.55-4-7.11-6.02-14.87-6.02-23.21 0-5.56 1.16-12.54 3.5-21.14 2.33-8.53 7.44-15.97 15.39-22.37 7.95-6.47 16.42-10.6 25.55-12.61 9.11-1.94 16.03-2.91 20.88-2.91 6.21 0 12.28.84 18.18 2.52 5.88 1.75 11.7 4.08 17.39 7.12 0-7.89-.97-25.15-2.91-51.92s-2.91-46.49-2.91-59.16v-6.21c0-12.15-.26-21.72-.77-28.7-.59-6.92-1.62-12.09-3.11-15.39-1.55-3.3-3.36-4.98-5.49-4.98-1.62 0-3.24.33-4.86.91s-2.72.9-3.24.9zm-42.49 172.17c-6.85 3.94-11.9 8.47-15.32 13.51-3.43 5.11-5.11 11.31-5.11 18.62 0 9.12.9 16.68 2.71 22.76 1.75 6.08 5.44 12.02 11 17.97 5.56 5.88 11.45 10.02 17.72 12.41 6.27 2.4 13.77 3.63 22.56 3.63 5.89 0 11.2-1.36 15.85-4.14 4.66-2.78 7.76-6.99 9.25-12.61 1.55-5.62 2.91-11.38 4.07-17.39 1.17-5.95 1.75-11.12 1.75-15.39 0-5.69-.91-11.05-2.59-15.9-1.68-4.92-5.69-11.12-11.96-18.49-6.28-7.44-15.65-11.13-28.2-11.13-7.3 0-14.61 2.07-21.73 6.15z"/><path d="m3531.02 12466.68c0-5.56 3.04-9.38 9.18-11.58 6.15-2.13 12.87-3.23 20.25-3.23-3.04 15.58-4.6 31.16-4.6 46.74 0 7.89.4 15.13 1.24 21.79.77 6.6 1.68 11.83 2.65 15.58s2.2 5.63 3.62 5.63c2.52-.52 4.33-.78 5.37-.78 1.09 0 1.74.39 1.87 1.1-3.88 4.27-9.18 7.44-15.91 9.51-6.66 2.07-12.22 3.75-16.68 4.98.84-3.75 1.68-8.02 2.58-12.87.84-4.79 1.29-9.05 1.29-12.8 0-4.14-.32-7.89-.97-11.25-14.28 16.74-24.05 27.67-29.29 32.71-5.24 5.11-12.42 7.63-21.53 7.63-3.43 0-7.83-1.1-13.39-3.36-5.5-2.2-9.57-6.21-12.16-12.03-2.59-5.75-3.88-12.93-3.88-21.53 0-4.07.32-10.34 1.03-18.68.72-8.41 1.04-14.55 1.04-18.49 0-4.79-.39-8.92-1.16-12.29 0-2.52-1.75-3.75-5.24-3.75-.71 0-1.29 0-1.75 0-.39 0-.84.13-1.16.26 3.17-3.16 7.43-6.46 12.74-9.76 5.3-3.3 10.03-5.37 14.29-6.27.33 2.52.52 4.98.52 7.5v7.5c0 3.88-.19 10.41-.58 19.59s-.58 14.16-.58 14.87c0 6.92.32 12.87.97 17.71.58 4.92 1.81 10.41 3.62 16.49 1.74 6.01 5.95 9.05 12.61 9.05 4.65 0 13.31-4.91 25.93-14.74 12.61-9.89 18.94-26.51 18.94-49.98 0-1.55 0-3.16-.06-4.65-.06-1.55-.39-4.53-.91-8.99z"/><path d="m3608.78 12293.28c4.46-.72 10.86-1.3 19.27-1.88 8.4-.52 19.34-.77 32.92-.77-.39 1.61-2.91 2.78-7.76 3.49-4.79.71-7.18 2.84-7.18 6.4 0 24.82.07 49.72.13 74.54.07 24.83.19 52.76.39 83.86.19 31.1.26 53.27.26 66.46 0 6.47.77 11.64 2.26 15.58 1.49 3.88 4.91 6.6 10.28 8.02 2.65.32 5.43-.39 8.41-2.2 2.9-1.87 5.75-3.68 8.4-5.56.32.52.52 1.42.52 2.72 0 2.71-1.62 5.1-4.92 7.11-3.29 2-6.27 3.75-8.79 5.3-2.59 1.55-6.01 2.33-10.28 2.33-2.13 0-4.2-.2-6.14-.52-1.94-.39-4.72-1.1-8.28-2.13l-4.27-5.37-7.76-197.32-2.14-52.24c-.71-3.04-2.71-4.91-5.94-5.63-3.17-.71-6.34-1.48-9.38-2.19z"/><path d="m3749.07 12456.53c4.65-3.04 9.64-4.53 15-4.53 5.69 0 11.25 1.36 16.69 4.01 5.43 2.71 11.89 6.59 19.4 11.77-5.7 6.65-16.82 16.93-33.37 30.96-16.5 14.03-26.45 22.83-29.88 26.38 3.75 5.69 8.34 10.41 13.71 14.03 5.3 3.69 10.09 5.76 14.3 6.34 4.2.52 7.37.77 9.56.77 4.79 0 8.86-.64 12.16-2 3.3-1.29 10.99-5.69 22.96-13.12-3.75 4.78-6.98 8.59-9.63 11.37-2.73 2.78-5.57 4.59-8.61 5.63-3.04.97-8.41 2.97-16.16 6.01-7.76 3.04-13.58 4.53-17.54 4.53-2.52 0-4.33-.13-5.49-.39-1.17-.26-4.59-1.75-10.28-4.33-5.76-2.59-11.64-7.95-17.78-16.04-6.21-8.14-9.52-14.87-10.1-20.23-.51-5.37-.77-9.12-.77-11.25 0-10.41 3.1-19.4 9.25-26.96 6.14-7.63 15-15.26 26.58-22.95zm16.36 9.44c-3.55-2.33-7.64-3.5-12.1-3.5-7.89 0-14.35 3.24-19.39 9.77-4.98 6.53-7.5 13.96-7.5 22.37 0 8.21 2.52 16.22 7.56 24.11 7.69-4.85 16.55-12.02 26.58-21.59 10.02-9.51 16.75-15.65 20.18-18.3-1.62-2.52-3.5-4.59-5.63-6.33-2.2-1.69-5.37-3.88-9.7-6.53z"/><path d="m3878.36 12452h9.12c5.69 0 10.28.58 13.65 1.75 3.36 1.16 6.2 3.62 8.53 7.37-.71 4.26-1.94 6.46-3.69 6.46-.9 0-3.62-2.2-8.14-6.46-4.53-4.27-7.7-6.4-9.51-6.4-5.62 0-10.48.97-14.36 2.97-3.94 1.94-6.66 4.78-8.15 8.47-1.48 3.62-2.26 6.79-2.26 9.5 0 4.66 1.55 9.18 4.66 13.58 3.1 4.4 10.08 8.02 20.95 10.99 10.87 2.98 17.14 6.92 18.95 11.96 1.74 4.98 2.65 9.05 2.65 12.09 0 3.75-.84 7.37-2.52 10.86-1.75 3.5-4.33 7.25-7.76 11.32-3.49 4.01-7.11 7.17-10.86 9.5s-8.02 3.49-12.81 3.49c-3.43 0-6.92-.71-10.61-2.19-3.62-1.43-6.33-3.75-8.14-7.05-1.75-4.53-3.04-7.76-3.75-9.76 1.81 0 5.3 1.61 10.6 4.91 5.24 3.3 8.6 5.17 10.15 5.62 1.49.46 4.01.72 7.64.72 2.84 0 5.56-.59 8.27-1.75 2.66-1.16 4.92-3.1 6.66-5.88 1.81-2.78 2.72-5.82 2.72-9.06 0-2.65-1.03-5.62-3.1-8.85-2.07-3.24-9.06-6.73-21.03-10.48-11.96-3.75-18.55-8.01-19.91-12.73-1.36-4.79-2.26-8.67-2.84-11.71-.52-3.03-.78-5.49-.78-7.24 0-5.04 1.49-10.15 4.53-15.32 3.03-5.24 6.14-9.31 9.24-12.22 3.1-2.97 7.11-4.46 11.9-4.46z"/></g><g fill="#dddad6"><path d="m3040.2 12288.5v2.91c-4.46.39-7.82 1.16-10.02 2.39-2.27 1.23-4.08 2.85-5.5 4.98 0 22.11 1.88 48.23 5.63 78.23s7.5 60.52 11.31 91.61c3.82 31.04 5.75 57.68 5.75 79.79 1.75.9 3.82 1.87 6.08 2.84 2.33.97 4.15 1.75 5.57 2.26-3.18.78-6.67 1.36-10.42 1.69-3.68.32-7.43.45-11.18.45-2.65 0-6.6-.07-11.83-.13-5.24-.07-8.99-.13-11.33-.13-.71-1.23.84-2.72 4.6-4.27 3.75-1.61 6.08-3.04 6.99-4.33.9-1.23 1.48-2.72 1.74-4.4s.39-4.39.39-8.14c0-21.92-1.1-43.32-3.36-64.07-2.2-20.76-5.37-42.35-9.52-64.72-4.07-22.44-8.08-44.16-12.02-65.17l-5.89 6.4c-7.5 16.61-16.94 38.08-28.26 64.52-11.38 26.38-21.92 50.95-31.74 73.84-9.84 22.82-20.12 46.22-30.79 70.34h-1.87c-8.93-23.92-19.73-52.24-32.28-84.96-12.6-32.71-22.76-59.54-30.39-80.42-7.7-20.89-15.26-43.06-22.76-66.47l-2.98-3.75c-3.95 5.37-7.05 11.25-9.38 17.72-2.33 6.4-6.08 20.69-11.38 42.73-5.24 22.11-9.76 40.86-13.51 56.32-3.75 15.45-7.9 34.07-12.49 55.79-4.53 21.73-7.89 40.15-10.02 55.35.39 1.74 1.94 2.84 4.72 3.16 2.71.39 3.68 1.88 2.78 4.53h-39.97l10.75-14.74c6.01-20.76 14.8-48.75 26.31-83.99 11.52-35.23 20.5-63.23 26.91-84.05 6.4-20.88 12.28-42.54 17.65-65.04-.72-2.97-2.27-5.17-4.66-6.59-2.46-1.49-7.11-2.2-14.09-2.2 4.65-3.49 9.44-6.21 14.35-8.21 4.91-2.01 10.09-2.97 15.66-2.97h2.9c1.43.38 2.53.51 3.24.51 1.42 2.01 2.84 4.2 4.26 6.6 1.43 2.39 4.79 10.02 10.03 22.82 5.3 12.74 12.15 32 20.63 57.8 8.47 25.73 16.81 51.01 25.02 75.9 8.21 24.83 16.56 47.33 25.16 67.57l6.4-8.6c10.86-24.05 22.32-49.33 34.28-75.97 11.89-26.57 22.63-51.47 32.08-74.61 9.44-23.08 17.71-46.1 24.89-69.05 2.45-1.1 5.36-1.88 8.54-2.33 3.23-.45 7.18-.64 11.77-.64 1.81 0 3.62.12 5.49.45 1.88.32 3.82.45 5.76.45z"/><path d="m3166.59 12449.16c4.46-.9 8.34-1.35 11.5-1.35 6.48 0 12.17 1.29 17.28 3.88 5.1 2.58 9.57 6.91 13.38 12.86 3.82 6.01 6.85 11.19 8.99 15.45 2.14 4.27 3.18 8.67 3.18 13.13 0 3.62-2.47 10.28-7.39 20.11-4.84 9.89-12.02 19.39-21.4 28.57-9.31 9.25-20.82 13.84-34.34 13.84-1.29 0-2.07 0-2.45 0-8.86 0-16.75-2.65-23.68-7.89-6.85-5.3-12.54-11.9-17.13-19.78-4.53-7.96-6.79-15.13-6.79-21.6 0-5.3 2.2-11.96 6.53-19.91 4.4-7.95 10.99-15.45 19.85-22.63 8.8-7.11 19.67-12.03 32.47-14.68zm10.73 15.13c-2.72-1.55-5.43-2.71-8.15-3.49-2.78-.71-5.62-1.03-8.47-1.03-5.88 0-11.51 1.48-16.81 4.52-5.36 3.11-10.09 6.99-14.23 11.83-4.07 4.85-6.14 10.15-6.14 15.91 0 3.17.39 6.08 1.1 8.6.71 2.45 2.45 7.3 5.3 14.48 2.91 7.18 7.76 13.25 14.62 18.3 6.85 4.98 15.13 7.5 24.76 7.5 6.92 0 12.94-1.62 18.05-4.85s9.5-7.7 13.25-13.45c3.75-5.69 5.63-11.64 5.63-17.71 0-5.37-1.42-10.87-4.14-16.56-2.78-5.62-6.01-10.15-9.76-13.51-3.75-3.43-8.79-6.92-15.01-10.54z"/><path d="m3340.32 12287.6c5.17.77 10.34 1.22 15.51 1.22h11.25 8.86c2.85 0 5.96.07 9.32.33-3.36.71-6.22 1.35-8.54 2-2.33.65-3.75 2.26-4.27 4.98 0 21.08-.19 40.99-.52 59.67-.32 18.69-.71 41.25-1.03 67.7 0 22.56.39 42.15 1.23 58.77.77 16.61 2.32 34.65 4.65 54.18 1.04 2.52 2.2 4.46 3.5 5.88 1.23 1.42 2.98 2.52 5.3 3.23 1.81.52 4.21-.39 7.25-2.71 2.97-2.4 5.49-3.04 7.43-1.94-2.84 3.94-5.62 7.24-8.4 9.95-2.78 2.65-5.89 4.01-9.25 4.01-1.94 0-4.21-.84-6.67-2.45-2.2-4.21-4.33-7.18-6.59-8.93-2.2-1.74-4.59-2.58-7.05-2.58-3.04 0-7.95 2.13-14.74 6.4-6.79 4.26-12.17 6.4-16.05 6.4-3.03 0-6.07 0-9.11 0s-5.95 0-8.86 0c-6.59 0-12.02-.39-16.43-1.23-4.4-.78-9.57-3.1-15.65-7.05-6.07-3.94-11.12-9.44-15.13-16.55-4-7.11-6.01-14.87-6.01-23.21 0-5.56 1.16-12.54 3.49-21.14 2.33-8.53 7.44-15.97 15.39-22.37 7.95-6.47 16.42-10.6 25.55-12.61 9.11-1.94 16.03-2.91 20.88-2.91 6.21 0 12.28.84 18.18 2.52 5.88 1.75 11.7 4.08 17.39 7.12 0-7.89-.97-25.15-2.91-51.92s-2.91-46.49-2.91-59.16v-6.21c0-12.15-.26-21.72-.77-28.7-.59-6.92-1.62-12.09-3.11-15.39-1.55-3.3-3.36-4.98-5.49-4.98-1.62 0-3.24.33-4.85.91-1.63.58-2.73.9-3.25.9zm-42.5 172.17c-6.85 3.94-11.9 8.47-15.32 13.51-3.43 5.11-5.11 11.31-5.11 18.62 0 9.12.9 16.68 2.71 22.76 1.75 6.08 5.44 12.02 11 17.97 5.56 5.88 11.45 10.02 17.72 12.41 6.27 2.4 13.77 3.63 22.56 3.63 5.89 0 11.2-1.36 15.85-4.14 4.66-2.78 7.76-6.99 9.25-12.61 1.55-5.62 2.91-11.38 4.07-17.39 1.17-5.95 1.75-11.12 1.75-15.39 0-5.69-.91-11.05-2.59-15.9-1.68-4.92-5.69-11.12-11.96-18.49-6.27-7.44-15.65-11.13-28.2-11.13-7.3 0-14.61 2.07-21.73 6.15z"/><path d="m3519.6 12463.65c0-5.56 3.04-9.38 9.18-11.58 6.15-2.13 12.87-3.23 20.25-3.23-3.04 15.58-4.59 31.16-4.59 46.74 0 7.89.39 15.13 1.23 21.79.77 6.6 1.68 11.83 2.65 15.58s2.2 5.63 3.62 5.63c2.52-.52 4.33-.78 5.37-.78 1.09 0 1.74.39 1.87 1.1-3.88 4.27-9.18 7.44-15.9 9.51-6.67 2.07-12.23 3.75-16.69 4.98.84-3.75 1.68-8.02 2.58-12.87.84-4.79 1.29-9.05 1.29-12.8 0-4.14-.32-7.89-.97-11.25-14.28 16.74-24.05 27.67-29.29 32.71-5.24 5.11-12.42 7.63-21.53 7.63-3.43 0-7.83-1.1-13.39-3.36-5.5-2.2-9.57-6.21-12.16-12.03-2.59-5.75-3.88-12.93-3.88-21.53 0-4.07.32-10.34 1.03-18.68.72-8.41 1.04-14.55 1.04-18.49 0-4.79-.39-8.92-1.16-12.29 0-2.52-1.75-3.75-5.24-3.75-.71 0-1.29 0-1.75 0-.39 0-.84.13-1.16.26 3.17-3.16 7.43-6.46 12.74-9.76 5.3-3.3 10.03-5.37 14.29-6.27.33 2.52.52 4.98.52 7.5v7.5c0 3.88-.19 10.41-.58 19.59s-.58 14.16-.58 14.87c0 6.92.32 12.87.97 17.71.58 4.92 1.81 10.41 3.62 16.49 1.74 6.01 5.95 9.05 12.61 9.05 4.65 0 13.31-4.91 25.93-14.74 12.61-9.89 18.94-26.51 18.94-49.98 0-1.55 0-3.16-.06-4.65-.06-1.55-.39-4.53-.91-8.99z"/><path d="m3597.36 12290.25c4.46-.72 10.86-1.3 19.27-1.88 8.41-.52 19.34-.77 32.92-.77-.39 1.61-2.91 2.78-7.76 3.49-4.79.71-7.18 2.84-7.18 6.4 0 24.82.07 49.72.13 74.54.07 24.83.19 52.76.39 83.86.19 31.1.26 53.27.26 66.46 0 6.47.77 11.64 2.26 15.58 1.49 3.88 4.91 6.6 10.28 8.02 2.65.32 5.43-.39 8.41-2.2 2.9-1.87 5.75-3.68 8.41-5.56.32.52.52 1.42.52 2.72 0 2.71-1.62 5.1-4.93 7.11-3.29 2-6.27 3.75-8.79 5.3-2.59 1.55-6.01 2.33-10.28 2.33-2.13 0-4.2-.2-6.14-.52-1.94-.39-4.72-1.1-8.28-2.13l-4.27-5.37-7.76-197.32-2.14-52.24c-.71-3.04-2.71-4.91-5.94-5.63-3.17-.71-6.34-1.48-9.38-2.19z"/><path d="m3737.65 12453.5c4.65-3.04 9.64-4.53 15-4.53 5.69 0 11.25 1.36 16.69 4.01 5.43 2.71 11.89 6.59 19.4 11.77-5.7 6.65-16.82 16.93-33.37 30.96-16.5 14.03-26.45 22.83-29.88 26.38 3.75 5.69 8.34 10.41 13.71 14.03 5.31 3.69 10.09 5.76 14.3 6.34 4.2.52 7.37.77 9.56.77 4.79 0 8.86-.64 12.16-2 3.3-1.29 11-5.69 22.96-13.12-3.75 4.78-6.98 8.59-9.63 11.37-2.72 2.78-5.57 4.59-8.61 5.63-3.04.97-8.41 2.97-16.16 6.01-7.76 3.04-13.58 4.53-17.53 4.53-2.53 0-4.34-.13-5.5-.39-1.17-.26-4.59-1.75-10.28-4.33-5.76-2.59-11.64-7.95-17.78-16.04-6.21-8.14-9.52-14.87-10.1-20.23-.51-5.37-.77-9.12-.77-11.25 0-10.41 3.11-19.4 9.25-26.96 6.14-7.63 15-15.26 26.58-22.95zm16.36 9.44c-3.55-2.33-7.63-3.5-12.1-3.5-7.89 0-14.35 3.24-19.39 9.77-4.98 6.53-7.5 13.96-7.5 22.37 0 8.21 2.52 16.22 7.56 24.11 7.69-4.85 16.55-12.02 26.58-21.59 10.02-9.51 16.75-15.65 20.18-18.3-1.62-2.52-3.5-4.59-5.63-6.33-2.2-1.69-5.37-3.88-9.7-6.53z"/><path d="m3866.95 12448.97h9.11c5.69 0 10.28.58 13.65 1.75 3.36 1.16 6.2 3.62 8.53 7.37-.71 4.26-1.94 6.46-3.69 6.46-.9 0-3.62-2.2-8.14-6.46-4.53-4.27-7.7-6.4-9.51-6.4-5.62 0-10.47.97-14.36 2.97-3.94 1.94-6.66 4.78-8.15 8.47-1.48 3.62-2.26 6.79-2.26 9.5 0 4.66 1.55 9.18 4.66 13.58 3.1 4.4 10.09 8.02 20.95 10.99 10.87 2.98 17.14 6.92 18.95 11.96 1.74 4.98 2.65 9.05 2.65 12.09 0 3.75-.84 7.37-2.52 10.86-1.75 3.5-4.33 7.25-7.76 11.32-3.49 4.01-7.11 7.17-10.86 9.5s-8.02 3.49-12.8 3.49c-3.44 0-6.93-.71-10.62-2.19-3.62-1.43-6.33-3.75-8.14-7.05-1.75-4.53-3.04-7.76-3.75-9.76 1.81 0 5.3 1.61 10.6 4.91 5.24 3.3 8.6 5.17 10.15 5.62 1.49.46 4.02.72 7.64.72 2.84 0 5.56-.59 8.27-1.75 2.66-1.16 4.92-3.1 6.66-5.88 1.81-2.78 2.72-5.82 2.72-9.06 0-2.65-1.03-5.62-3.1-8.85-2.07-3.24-9.06-6.73-21.03-10.48-11.96-3.75-18.55-8.01-19.91-12.73-1.36-4.79-2.26-8.67-2.84-11.71-.52-3.03-.78-5.49-.78-7.24 0-5.04 1.49-10.15 4.53-15.32 3.03-5.24 6.14-9.31 9.24-12.22 3.1-2.97 7.11-4.46 11.91-4.46z"/></g><g fill="#2f2f2f"><path d="m1220.81 12310.15c14.68-12.99 30.85-19.52 48.7-19.52h5.1c1.62 0 3.56.19 5.89.51.91 2.01 1.62 4.27 2.27 6.98.65 2.66.97 5.05.97 7.18 0 2.14-.39 3.95-1.1 5.37-7.32-5.37-15.72-8.02-25.16-8.02-10.02 0-19.02 2.46-26.97 7.37-7.89 4.91-13.45 9.38-16.55 13.38-3.17 4.01-5.43 8.47-6.98 13.39-1.49 4.85-2.53 9.11-3.11 12.67-.51 3.56-.77 6.72-.77 9.37 0 15.2 7.95 29.68 23.79 43.65 14.81 11.57 29.62 23.14 44.43 34.78 16.1 14.42 24.12 29.93 24.12 46.55v6.92c-.52 2.32-1.49 7.43-2.91 15.38-1.48 7.96-6.79 17.66-16.11 29.03-9.24 11.45-21.2 18.56-35.81 21.4-1.11.39-2.92.72-5.64.97-2.65.26-5.24.39-7.76.39-8.34 0-16.1-1.48-23.27-4.52-7.12-2.98-14.5-7.24-22.19-12.74 3.04-4.91 5.37-8.34 7.05-10.22 1.74-1.87 3.55-2.78 5.49-2.78.71 0 1.94.33 3.75 1.04 11.39 11.7 25.81 17.58 43.28 17.58h4.01c2.13-.38 7.56-1.09 16.42-2.26 8.79-1.16 14.67-6.66 17.58-16.48 2.99-9.83 4.67-16.23 5.25-19.27.52-3.04.78-5.95.78-8.86 0-13.9-6.35-26.83-18.96-38.79-12.8-9.96-26.13-20.69-39.9-32.13-13.77-11.38-22.24-22.76-25.34-34.01-3.12-11.19-4.67-21.27-4.67-30.19 0-10.74 1.94-20.5 5.77-29.36 3.81-8.79 10.02-17.07 18.55-24.76z"/><path d="m1389.36 12452.58c2.65-.9 5.63-1.36 8.79-1.36 3.43 0 6.74.78 10.04 2.27 3.29 1.48 8.79 5.75 16.48 12.8 7.63 6.98 12.67 21.14 15.13 42.48 2.39 21.27 4.41 34.97 6.02 40.99l9.06 4.59c-1.94 1.22-4.85 2.07-8.67 2.65-3.82.51-7.7.77-11.65.77-2.32 0-4.65 0-6.98 0s-4.52-.13-6.66-.26c3.24 0 5.5-1.09 6.79-3.23 1.36-2.13 2.01-4.85 2.01-8.21 0-2.33-.13-4.78-.46-7.37-.32-2.59-.58-5.04-.71-7.31-.71-1.74-1.87-2.58-3.49-2.58-1.81 0-3.68.77-5.62 2.39-7.31 7.76-15.78 14.35-25.49 19.91-9.63 5.56-18.75 8.34-27.28 8.34-5.05 0-10.03-1.22-15.01-3.75-5.04-2.45-8.92-5.49-11.7-9.11-2.78-3.56-4.14-8.08-4.14-13.64 0-5.31 1.49-10.09 4.52-14.29 3.04-4.2 7.5-7.89 13.26-11.06 5.82-3.23 12.49-5.88 20.12-7.89 7.56-2.06 15.25-3.1 23.08-3.1 4.13 0 7.89.26 11.26.78 3.42.45 6.98 1.35 10.73 2.71 1.62-1.61 2.39-3.55 2.39-5.88 0-1.42-.52-3.23-1.62-5.37-1.03-2.13-3.1-6.66-6.14-13.64-3.04-6.92-10.99-10.41-23.8-10.41-5.88 0-10.93 1.23-15.13 3.75s-9.7 6.6-16.5 12.16c2.91-6.6 6.93-12.35 12.11-17.14 5.17-4.85 11.57-8.53 19.26-10.99zm22.38 50.63c-5.36-2.33-11.26-3.5-17.66-3.5-8.21 0-15.9 1.75-23.14 5.31-7.18 3.55-12.04 7.43-14.43 11.57-2.39 4.2-3.62 7.43-3.62 9.76 0 2.85.71 5.43 2.13 7.82 1.42 2.4 4.14 5.63 8.16 9.57 4.01 4.01 8.98 6.02 14.87 6.02 1.74 0 5.36-.65 10.79-1.88 5.44-1.23 12.61-5.3 21.41-12.22 8.86-6.92 13.26-13.71 13.26-20.24 0-1.22-.32-2.78-.91-4.52-.64-1.81-1.81-3.23-3.49-4.27-1.68-1.03-4.14-2.2-7.37-3.42z"/><path d="m1496.1 12476.12c3.36-3.75 9.05-8.41 17-14.03 8.02-5.63 12.75-8.99 14.17-10.09.71 1.29 1.03 2.97 1.03 4.91 0 1.62.07 3.24.13 4.79.07 1.61.78 2.84 2.01 3.75 5.56-3.17 12.09-6.01 19.72-8.54 7.56-2.52 15.07-3.75 22.38-3.75 5.36 0 10.21.84 14.48 2.53 4.33 1.68 8.08 4.39 11.25 8.14 3.23 3.75 5.43 7.82 6.6 12.16 1.17 4.39 1.75 9.31 1.75 14.87 0 3.04-.39 8.72-1.16 17.19-.72 8.47-1.1 14.03-1.1 16.75 0 3.17.06 6.14.26 8.79.19 2.65.58 5.24 1.22 7.76.65 2.52 1.81 4.46 3.49 5.88 1.69 1.43 4.47 2.14 8.22 2.14 1.29 0 2.78-.13 4.59-.39.38 2.46-.39 4.01-2.14 4.53-2.71.19-6.2.9-10.6 2.13s-9.51 1.87-15.46 1.87c-1.94 0-3.49-.13-4.53-.32-.71-3.88-1.16-6.72-1.23-8.53-.06-1.75-.13-3.17-.13-4.27 0-4.07.59-11.7 1.75-22.69 1.16-11.06 1.75-18.56 1.75-22.5 0-8.34-1.23-15.46-3.63-21.27-2.39-5.76-6.33-10.35-11.76-13.65-5.43-3.29-11.12-4.91-17.02-4.91-8.01 0-14.54 2.52-19.65 7.5-5.11 5.04-8.6 11.44-10.54 19.2-2 7.76-2.97 16.68-2.97 26.7 0 6.6.06 11.12.26 13.58.19 2.39.84 9.96 2.06 22.69 0 2.14 2.14 3.69 6.34 4.66s6.47 2.13 6.85 3.36c-3.94.39-7.76.71-11.44 1.1-3.69.32-7.19.52-10.61.52-4.66 0-8.02-.13-10.09-.39s-4.78-.84-8.21-1.75c3.81-3.94 6.47-8.85 7.89-14.67 1.48-5.82 2.2-12.93 2.2-21.34 0-5.75-.33-13.57-.91-23.4s-.84-15.97-.84-18.3c0-2.52-.71-3.75-2.13-3.75-.71 0-2.14.45-4.14 1.36-2.07.9-3.43 1.29-4.14 1.29-1.1 0-2.07-.52-2.97-1.61z"/><path d="m1706.43 12455.1h30.91 30.59c-.32 2.59-3.3 4.21-8.86 4.85-5.63.65-8.02 2.91-7.12 6.73 4.79 4.65 8.47 8.66 10.93 12.02 2.52 3.43 3.95 6.53 4.34 9.38.33 2.84.52 4.97.52 6.4 0 7.11-2.98 13.64-8.87 19.52-5.88 5.89-10.67 10.61-14.42 14.16 14.16 9.25 23.61 17.72 28.46 25.28 4.85 7.57 7.24 15.65 7.24 24.18 0 11.25-3.1 20.63-9.37 28.13-6.28 7.5-14.3 13.96-24.13 19.52-9.83 5.5-18.1 8.28-24.9 8.28-3.43 0-6.92-.39-10.6-1.23-3.62-.78-7.7-2.01-12.16-3.69s-8.66-4.59-12.6-8.66c-4.28-5.17-7.71-9.05-10.17-11.7-.58-1.94-.19-3.88 1.04-5.76 1.23-1.81 2.46-3.68 3.62-5.43 12.36 12.09 20.96 19.98 25.87 23.6 4.91 3.69 12.54 5.5 22.9 5.5 6.98 0 13.06-1.94 18.36-5.89 5.24-3.94 9.5-9.05 12.8-15.26 3.3-6.27 4.98-12.67 4.98-19.26 0-6.08-2.33-13.58-6.92-22.5-4.65-8.92-12.41-15.26-23.27-18.88-10.88-3.69-25.16-5.5-42.81-5.5-3.75.39-7.31.97-10.68 1.81-3.36.78-6.66 1.75-9.89 2.85 1.94-2.91 3.68-5.95 5.23-9.18 1.62-3.23 1.94-5.76 1.04-7.57-3.36-4.26-6.73-8.66-10.09-13.12-3.36-5.17-5.04-10.35-5.04-15.52v-2.65c1.1-11.25 5.69-20.82 13.9-28.64 8.22-7.82 17.92-11.77 29.17-11.77zm-6.98 12.42c-4.79 0-8.28.64-10.54 1.87-2.2 1.23-4.67 3.75-7.45 7.5-2.78 3.69-4.14 7.7-4.14 11.96 0 3.56 2.14 8.41 6.4 14.42 4.28 6.08 9.71 11.19 16.31 15.39 6.59 4.2 13.96 6.27 22.11 6.27 3.44 0 8.03-.58 13.91-1.75 5.88-1.16 10.21-3.94 13.06-8.4 2.84-4.46 4.27-8.08 4.27-10.93 0-4.14-1.62-8.14-4.92-12.15-3.29-4.01-6.85-7.96-10.54-11.9-3.75-3.94-8.79-6.92-15.07-9.05-6.34-2.13-14.09-3.23-23.4-3.23z"/><path d="m1898.13 12466.68c0-5.56 3.04-9.38 9.18-11.58 6.15-2.13 12.87-3.23 20.24-3.23-3.04 15.58-4.59 31.16-4.59 46.74 0 7.89.39 15.13 1.23 21.79.77 6.6 1.68 11.83 2.65 15.58.98 3.75 2.21 5.63 3.63 5.63 2.52-.52 4.33-.78 5.37-.78 1.09 0 1.74.39 1.87 1.1-3.88 4.27-9.18 7.44-15.91 9.51-6.66 2.07-12.22 3.75-16.68 4.98.84-3.75 1.68-8.02 2.58-12.87.84-4.79 1.29-9.05 1.29-12.8 0-4.14-.32-7.89-.97-11.25-14.28 16.74-24.06 27.67-29.29 32.71-5.24 5.11-12.42 7.63-21.53 7.63-3.43 0-7.83-1.1-13.4-3.36-5.49-2.2-9.56-6.21-12.15-12.03-2.59-5.75-3.88-12.93-3.88-21.53 0-4.07.32-10.34 1.03-18.68.72-8.41 1.04-14.55 1.04-18.49 0-4.79-.39-8.92-1.16-12.29 0-2.52-1.75-3.75-5.24-3.75-.71 0-1.29 0-1.75 0-.39 0-.84.13-1.16.26 3.17-3.16 7.43-6.46 12.74-9.76 5.3-3.3 10.02-5.37 14.29-6.27.33 2.52.52 4.98.52 7.5v7.5c0 3.88-.19 10.41-.58 19.59s-.58 14.16-.58 14.87c0 6.92.32 12.87.97 17.71.58 4.92 1.81 10.41 3.62 16.49 1.74 6.01 5.95 9.05 12.61 9.05 4.65 0 13.31-4.91 25.93-14.74 12.61-9.89 18.94-26.51 18.94-49.98 0-1.55 0-3.16-.06-4.65-.06-1.55-.39-4.53-.91-8.99z"/><path d="m1998.26 12436.29c1.55-1.42 3.56-5.82 6.01-13.19 2.4-7.37 5.77-11.06 10.04-11.06 1.93 0 4.26.52 6.91 1.62 0 4.14-1.03 8.53-3.04 13.32-2.06 4.78-4.97 8.6-8.72 11.44-.71-.19-2.41-.39-5.06-.51-2.71-.2-4.72-.72-6.14-1.62zm13.33 16.49c.19 16.35.45 32.71.84 49.13.32 16.42.78 27.67 1.36 33.82.52 6.07 1.87 9.63 4.14 10.6 2.19.97 4.91 1.49 8.14 1.49 3.56 0 6.4-.26 8.54-.78v2.46c-4.98 2.97-10.8 5.17-17.52 6.72-6.66 1.55-13.27 2.33-19.67 2.39-1.03-4.46-1.81-8.98-2.26-13.51s-.65-9.96-.65-16.16c0-3.24.07-8.15.26-14.87.19-6.66.26-11.58.26-14.81v-3.49c0-8.73-.45-15.32-1.36-19.72-.9-4.46-2.46-6.72-4.78-6.72-1.1 0-2.72.26-4.98.71-2.2.39-3.49.64-3.88.64-2.33 0-4.01-.84-5.04-2.39 5.49-2 11.05-3.94 16.55-5.88 5.69-2.52 10.99-5.69 15.77-9.63z"/><path d="m2072.92 12476.12c3.36-3.75 9.05-8.41 17.01-14.03 8.02-5.63 12.74-8.99 14.16-10.09.71 1.29 1.03 2.97 1.03 4.91 0 1.62.07 3.24.13 4.79.07 1.61.78 2.84 2.01 3.75 5.56-3.17 12.09-6.01 19.72-8.54 7.57-2.52 15.07-3.75 22.38-3.75 5.36 0 10.21.84 14.48 2.53 4.33 1.68 8.09 4.39 11.26 8.14 3.23 3.75 5.43 7.82 6.59 12.16 1.17 4.39 1.75 9.31 1.75 14.87 0 3.04-.39 8.72-1.16 17.19-.72 8.47-1.1 14.03-1.1 16.75 0 3.17.06 6.14.26 8.79.19 2.65.58 5.24 1.22 7.76.65 2.52 1.81 4.46 3.49 5.88 1.69 1.43 4.47 2.14 8.22 2.14 1.29 0 2.78-.13 4.59-.39.38 2.46-.39 4.01-2.14 4.53-2.71.19-6.2.9-10.6 2.13s-9.5 1.87-15.45 1.87c-1.95 0-3.5-.13-4.54-.32-.71-3.88-1.16-6.72-1.23-8.53-.06-1.75-.13-3.17-.13-4.27 0-4.07.59-11.7 1.75-22.69 1.16-11.06 1.75-18.56 1.75-22.5 0-8.34-1.23-15.46-3.63-21.27-2.39-5.76-6.33-10.35-11.76-13.65-5.43-3.29-11.12-4.91-17.01-4.91-8.02 0-14.55 2.52-19.66 7.5-5.11 5.04-8.6 11.44-10.54 19.2-2 7.76-2.97 16.68-2.97 26.7 0 6.6.06 11.12.26 13.58.19 2.39.84 9.96 2.06 22.69 0 2.14 2.14 3.69 6.34 4.66s6.47 2.13 6.85 3.36c-3.94.39-7.76.71-11.44 1.1-3.69.32-7.18.52-10.6.52-4.66 0-8.03-.13-10.1-.39s-4.78-.84-8.21-1.75c3.81-3.94 6.47-8.85 7.89-14.67 1.48-5.82 2.2-12.93 2.2-21.34 0-5.75-.33-13.57-.91-23.4s-.84-15.97-.84-18.3c0-2.52-.71-3.75-2.13-3.75-.71 0-2.14.45-4.14 1.36-2.07.9-3.43 1.29-4.14 1.29-1.1 0-2.07-.52-2.97-1.61z"/><path d="m2274.46 12456.53c4.65-3.04 9.63-4.53 14.99-4.53 5.7 0 11.26 1.36 16.7 4.01 5.43 2.71 11.89 6.59 19.39 11.77-5.69 6.65-16.81 16.93-33.36 30.96-16.5 14.03-26.45 22.83-29.88 26.38 3.75 5.69 8.34 10.41 13.71 14.03 5.3 3.69 10.08 5.76 14.29 6.34 4.21.52 7.38.77 9.57.77 4.79 0 8.86-.64 12.16-2 3.3-1.29 10.99-5.69 22.96-13.12-3.76 4.78-6.99 8.59-9.64 11.37-2.72 2.78-5.56 4.59-8.6 5.63-3.04.97-8.41 2.97-16.16 6.01-7.76 3.04-13.59 4.53-17.54 4.53-2.52 0-4.33-.13-5.49-.39-1.17-.26-4.59-1.75-10.28-4.33-5.76-2.59-11.64-7.95-17.79-16.04-6.21-8.14-9.51-14.87-10.09-20.23-.51-5.37-.77-9.12-.77-11.25 0-10.41 3.1-19.4 9.24-26.96 6.15-7.63 15.01-15.26 26.59-22.95zm16.35 9.44c-3.55-2.33-7.63-3.5-12.09-3.5-7.89 0-14.35 3.24-19.39 9.77-4.98 6.53-7.5 13.96-7.5 22.37 0 8.21 2.52 16.22 7.56 24.11 7.69-4.85 16.55-12.02 26.57-21.59 10.03-9.51 16.76-15.65 20.19-18.3-1.62-2.52-3.5-4.59-5.63-6.33-2.2-1.69-5.37-3.88-9.71-6.53z"/></g><g fill="#dddad6"><path d="m1209.39 12307.12c14.68-12.99 30.85-19.52 48.7-19.52h5.1c1.62 0 3.56.19 5.9.51.9 2.01 1.61 4.27 2.26 6.98.65 2.66.97 5.05.97 7.18 0 2.14-.39 3.95-1.1 5.37-7.32-5.37-15.72-8.02-25.16-8.02-10.02 0-19.01 2.46-26.97 7.37-7.89 4.91-13.45 9.38-16.55 13.38-3.17 4.01-5.43 8.47-6.98 13.39-1.49 4.85-2.53 9.11-3.11 12.67-.51 3.56-.77 6.72-.77 9.37 0 15.2 7.95 29.68 23.79 43.65 14.81 11.57 29.62 23.14 44.43 34.78 16.1 14.42 24.12 29.93 24.12 46.55v6.92c-.52 2.32-1.49 7.43-2.91 15.38-1.48 7.96-6.79 17.66-16.11 29.03-9.24 11.45-21.2 18.56-35.81 21.4-1.1.39-2.92.72-5.64.97-2.65.26-5.24.39-7.76.39-8.34 0-16.1-1.48-23.27-4.52-7.12-2.98-14.5-7.24-22.19-12.74 3.04-4.91 5.37-8.34 7.05-10.22 1.74-1.87 3.55-2.78 5.49-2.78.71 0 1.94.33 3.76 1.04 11.38 11.7 25.8 17.58 43.27 17.58h4.01c2.13-.38 7.56-1.09 16.42-2.26 8.79-1.16 14.67-6.66 17.59-16.48 2.98-9.83 4.66-16.23 5.24-19.27.52-3.04.78-5.95.78-8.86 0-13.9-6.34-26.83-18.96-38.79-12.8-9.96-26.12-20.69-39.9-32.13-13.77-11.38-22.24-22.76-25.34-34.01-3.11-11.19-4.67-21.27-4.67-30.19 0-10.74 1.95-20.5 5.77-29.36 3.81-8.79 10.02-17.07 18.55-24.76z"/><path d="m1377.94 12449.55c2.65-.9 5.63-1.36 8.79-1.36 3.44 0 6.74.78 10.04 2.27 3.29 1.48 8.79 5.75 16.48 12.8 7.63 6.98 12.67 21.14 15.13 42.48 2.4 21.27 4.41 34.97 6.02 40.99l9.06 4.59c-1.94 1.22-4.85 2.07-8.67 2.65-3.81.51-7.7.77-11.65.77-2.32 0-4.65 0-6.98 0s-4.52-.13-6.66-.26c3.24 0 5.5-1.09 6.79-3.23 1.36-2.13 2.01-4.85 2.01-8.21 0-2.33-.13-4.78-.46-7.37-.32-2.59-.58-5.04-.71-7.31-.71-1.74-1.87-2.58-3.49-2.58-1.81 0-3.68.77-5.62 2.39-7.31 7.76-15.78 14.35-25.49 19.91-9.63 5.56-18.75 8.34-27.28 8.34-5.04 0-10.03-1.22-15.01-3.75-5.04-2.45-8.92-5.49-11.7-9.11-2.78-3.56-4.14-8.08-4.14-13.64 0-5.31 1.49-10.09 4.52-14.29 3.04-4.2 7.5-7.89 13.26-11.06 5.83-3.23 12.49-5.88 20.12-7.89 7.56-2.06 15.25-3.1 23.08-3.1 4.14 0 7.89.26 11.26.78 3.42.45 6.98 1.35 10.73 2.71 1.62-1.61 2.39-3.55 2.39-5.88 0-1.42-.52-3.23-1.62-5.37-1.03-2.13-3.1-6.66-6.14-13.64-3.04-6.92-10.99-10.41-23.8-10.41-5.88 0-10.93 1.23-15.13 3.75s-9.7 6.6-16.5 12.16c2.92-6.6 6.93-12.35 12.11-17.14 5.17-4.85 11.57-8.53 19.26-10.99zm22.38 50.63c-5.36-2.33-11.25-3.5-17.66-3.5-8.21 0-15.9 1.75-23.14 5.31-7.18 3.55-12.04 7.43-14.43 11.57-2.39 4.2-3.62 7.43-3.62 9.76 0 2.85.71 5.43 2.13 7.82 1.42 2.4 4.15 5.63 8.16 9.57 4.01 4.01 8.98 6.02 14.87 6.02 1.74 0 5.36-.65 10.79-1.88 5.44-1.23 12.62-5.3 21.41-12.22 8.86-6.92 13.26-13.71 13.26-20.24 0-1.22-.32-2.78-.91-4.52-.64-1.81-1.81-3.23-3.49-4.27-1.68-1.03-4.14-2.2-7.37-3.42z"/><path d="m1484.68 12473.09c3.36-3.75 9.05-8.41 17-14.03 8.03-5.63 12.75-8.99 14.17-10.09.71 1.29 1.03 2.97 1.03 4.91 0 1.62.07 3.24.13 4.79.07 1.61.78 2.84 2.01 3.75 5.56-3.17 12.09-6.01 19.72-8.54 7.56-2.52 15.07-3.75 22.38-3.75 5.36 0 10.21.84 14.48 2.53 4.33 1.68 8.08 4.39 11.25 8.14 3.23 3.75 5.44 7.82 6.6 12.16 1.17 4.39 1.75 9.31 1.75 14.87 0 3.04-.39 8.72-1.16 17.19-.72 8.47-1.1 14.03-1.1 16.75 0 3.17.06 6.14.26 8.79.19 2.65.58 5.24 1.22 7.76.65 2.52 1.81 4.46 3.49 5.88 1.69 1.43 4.47 2.14 8.22 2.14 1.29 0 2.78-.13 4.59-.39.38 2.46-.39 4.01-2.14 4.53-2.71.19-6.2.9-10.6 2.13s-9.51 1.87-15.46 1.87c-1.94 0-3.49-.13-4.53-.32-.71-3.88-1.16-6.72-1.23-8.53-.06-1.75-.13-3.17-.13-4.27 0-4.07.59-11.7 1.75-22.69 1.16-11.06 1.75-18.56 1.75-22.5 0-8.34-1.23-15.46-3.63-21.27-2.39-5.76-6.33-10.35-11.76-13.65-5.43-3.29-11.12-4.91-17.02-4.91-8.01 0-14.54 2.52-19.65 7.5-5.11 5.04-8.6 11.44-10.54 19.2-2 7.76-2.97 16.68-2.97 26.7 0 6.6.06 11.12.26 13.58.19 2.39.84 9.96 2.06 22.69 0 2.14 2.14 3.69 6.34 4.66s6.47 2.13 6.85 3.36c-3.94.39-7.76.71-11.44 1.1-3.69.32-7.18.52-10.61.52-4.66 0-8.02-.13-10.09-.39s-4.78-.84-8.21-1.75c3.81-3.94 6.47-8.85 7.89-14.67 1.48-5.82 2.2-12.93 2.2-21.34 0-5.75-.33-13.57-.91-23.4s-.84-15.97-.84-18.3c0-2.52-.71-3.75-2.13-3.75-.71 0-2.14.45-4.14 1.36-2.07.9-3.43 1.29-4.14 1.29-1.1 0-2.07-.52-2.97-1.61z"/><path d="m1695.01 12452.07h30.91 30.59c-.32 2.59-3.29 4.21-8.86 4.85-5.63.65-8.02 2.91-7.12 6.73 4.79 4.65 8.47 8.66 10.93 12.02 2.53 3.43 3.95 6.53 4.34 9.38.33 2.84.52 4.97.52 6.4 0 7.11-2.97 13.64-8.87 19.52-5.88 5.89-10.67 10.61-14.42 14.16 14.16 9.25 23.61 17.72 28.46 25.28 4.85 7.57 7.24 15.65 7.24 24.18 0 11.25-3.1 20.63-9.37 28.13s-14.3 13.96-24.13 19.52c-9.83 5.5-18.1 8.28-24.9 8.28-3.43 0-6.92-.39-10.6-1.23-3.62-.78-7.7-2.01-12.16-3.69s-8.66-4.59-12.6-8.66c-4.28-5.17-7.71-9.05-10.17-11.7-.58-1.94-.19-3.88 1.04-5.76 1.23-1.81 2.46-3.68 3.62-5.43 12.36 12.09 20.96 19.98 25.87 23.6 4.91 3.69 12.54 5.5 22.9 5.5 6.98 0 13.06-1.94 18.36-5.89 5.24-3.94 9.5-9.05 12.8-15.26 3.31-6.27 4.99-12.67 4.99-19.26 0-6.08-2.33-13.58-6.93-22.5-4.65-8.92-12.41-15.26-23.27-18.88-10.87-3.69-25.16-5.5-42.81-5.5-3.75.39-7.31.97-10.68 1.81-3.36.78-6.66 1.75-9.89 2.85 1.94-2.91 3.68-5.95 5.23-9.18 1.62-3.23 1.94-5.76 1.04-7.57-3.36-4.26-6.73-8.66-10.09-13.12-3.36-5.17-5.04-10.35-5.04-15.52v-2.65c1.1-11.25 5.69-20.82 13.9-28.64 8.22-7.82 17.92-11.77 29.17-11.77zm-6.98 12.42c-4.79 0-8.28.64-10.54 1.87-2.2 1.23-4.66 3.75-7.45 7.5-2.78 3.69-4.14 7.7-4.14 11.96 0 3.56 2.14 8.41 6.41 14.42 4.27 6.08 9.7 11.19 16.3 15.39 6.59 4.2 13.96 6.27 22.11 6.27 3.44 0 8.03-.58 13.91-1.75 5.88-1.16 10.21-3.94 13.06-8.4 2.84-4.46 4.27-8.08 4.27-10.93 0-4.14-1.62-8.14-4.92-12.15-3.29-4.01-6.85-7.96-10.54-11.9-3.75-3.94-8.79-6.92-15.06-9.05-6.35-2.13-14.1-3.23-23.41-3.23z"/><path d="m1886.71 12463.65c0-5.56 3.04-9.38 9.18-11.58 6.15-2.13 12.87-3.23 20.25-3.23-3.05 15.58-4.6 31.16-4.6 46.74 0 7.89.39 15.13 1.23 21.79.78 6.6 1.69 11.83 2.66 15.58s2.2 5.63 3.62 5.63c2.52-.52 4.33-.78 5.37-.78 1.09 0 1.74.39 1.87 1.1-3.88 4.27-9.18 7.44-15.91 9.51-6.66 2.07-12.22 3.75-16.68 4.98.84-3.75 1.68-8.02 2.58-12.87.84-4.79 1.29-9.05 1.29-12.8 0-4.14-.32-7.89-.97-11.25-14.28 16.74-24.06 27.67-29.29 32.71-5.24 5.11-12.42 7.63-21.53 7.63-3.43 0-7.83-1.1-13.4-3.36-5.49-2.2-9.56-6.21-12.15-12.03-2.59-5.75-3.88-12.93-3.88-21.53 0-4.07.32-10.34 1.03-18.68.72-8.41 1.04-14.55 1.04-18.49 0-4.79-.39-8.92-1.16-12.29 0-2.52-1.75-3.75-5.24-3.75-.71 0-1.29 0-1.75 0-.39 0-.84.13-1.16.26 3.17-3.16 7.43-6.46 12.74-9.76 5.3-3.3 10.02-5.37 14.29-6.27.33 2.52.52 4.98.52 7.5v7.5c0 3.88-.19 10.41-.58 19.59s-.58 14.16-.58 14.87c0 6.92.32 12.87.97 17.71.58 4.92 1.81 10.41 3.62 16.49 1.74 6.01 5.95 9.05 12.61 9.05 4.65 0 13.31-4.91 25.93-14.74 12.61-9.89 18.94-26.51 18.94-49.98 0-1.55 0-3.16-.06-4.65-.06-1.55-.39-4.53-.91-8.99z"/><path d="m1986.84 12433.26c1.55-1.42 3.56-5.82 6.01-13.19 2.41-7.37 5.77-11.06 10.04-11.06 1.93 0 4.26.52 6.91 1.62 0 4.14-1.03 8.53-3.04 13.32-2.06 4.78-4.97 8.6-8.72 11.44-.71-.19-2.4-.39-5.06-.51-2.71-.2-4.72-.72-6.14-1.62zm13.33 16.49c.19 16.35.45 32.71.84 49.13.32 16.42.78 27.67 1.36 33.82.52 6.07 1.87 9.63 4.14 10.6 2.19.97 4.91 1.49 8.14 1.49 3.56 0 6.4-.26 8.54-.78v2.46c-4.98 2.97-10.8 5.17-17.52 6.72-6.66 1.55-13.27 2.33-19.67 2.39-1.03-4.46-1.81-8.98-2.26-13.51s-.65-9.96-.65-16.16c0-3.24.07-8.15.26-14.87.19-6.66.26-11.58.26-14.81v-3.49c0-8.73-.45-15.32-1.36-19.72-.9-4.46-2.46-6.72-4.78-6.72-1.1 0-2.72.26-4.98.71-2.2.39-3.49.64-3.88.64-2.33 0-4.01-.84-5.04-2.39 5.49-2 11.05-3.94 16.55-5.88 5.69-2.52 10.99-5.69 15.78-9.63z"/><path d="m2061.5 12473.09c3.36-3.75 9.05-8.41 17.01-14.03 8.02-5.63 12.74-8.99 14.16-10.09.71 1.29 1.03 2.97 1.03 4.91 0 1.62.07 3.24.13 4.79.07 1.61.78 2.84 2.01 3.75 5.56-3.17 12.09-6.01 19.73-8.54 7.56-2.52 15.06-3.75 22.37-3.75 5.36 0 10.21.84 14.48 2.53 4.34 1.68 8.09 4.39 11.26 8.14 3.23 3.75 5.43 7.82 6.59 12.16 1.17 4.39 1.75 9.31 1.75 14.87 0 3.04-.39 8.72-1.16 17.19-.72 8.47-1.1 14.03-1.1 16.75 0 3.17.06 6.14.26 8.79.19 2.65.58 5.24 1.22 7.76.65 2.52 1.81 4.46 3.49 5.88 1.69 1.43 4.47 2.14 8.22 2.14 1.29 0 2.78-.13 4.59-.39.38 2.46-.39 4.01-2.14 4.53-2.71.19-6.2.9-10.6 2.13s-9.5 1.87-15.45 1.87c-1.94 0-3.5-.13-4.54-.32-.71-3.88-1.16-6.72-1.23-8.53-.06-1.75-.13-3.17-.13-4.27 0-4.07.59-11.7 1.75-22.69 1.17-11.06 1.76-18.56 1.76-22.5 0-8.34-1.24-15.46-3.64-21.27-2.39-5.76-6.33-10.35-11.76-13.65-5.43-3.29-11.12-4.91-17.01-4.91-8.01 0-14.55 2.52-19.66 7.5-5.11 5.04-8.6 11.44-10.54 19.2-2 7.76-2.97 16.68-2.97 26.7 0 6.6.06 11.12.26 13.58.19 2.39.84 9.96 2.06 22.69 0 2.14 2.14 3.69 6.34 4.66s6.47 2.13 6.85 3.36c-3.94.39-7.76.71-11.44 1.1-3.69.32-7.18.52-10.6.52-4.66 0-8.02-.13-10.1-.39-2.07-.26-4.78-.84-8.21-1.75 3.81-3.94 6.47-8.85 7.89-14.67 1.49-5.82 2.21-12.93 2.21-21.34 0-5.75-.33-13.57-.91-23.4s-.85-15.97-.85-18.3c0-2.52-.71-3.75-2.13-3.75-.71 0-2.14.45-4.14 1.36-2.07.9-3.43 1.29-4.14 1.29-1.1 0-2.07-.52-2.97-1.61z"/><path d="m2263.04 12453.5c4.65-3.04 9.63-4.53 15-4.53 5.69 0 11.25 1.36 16.69 4.01 5.43 2.71 11.89 6.59 19.39 11.77-5.69 6.65-16.81 16.93-33.36 30.96-16.5 14.03-26.45 22.83-29.88 26.38 3.75 5.69 8.34 10.41 13.71 14.03 5.3 3.69 10.08 5.76 14.3 6.34 4.2.52 7.37.77 9.56.77 4.79 0 8.86-.64 12.16-2 3.3-1.29 10.99-5.69 22.96-13.12-3.75 4.78-6.99 8.59-9.64 11.37-2.72 2.78-5.56 4.59-8.6 5.63-3.04.97-8.41 2.97-16.16 6.01-7.76 3.04-13.59 4.53-17.54 4.53-2.52 0-4.33-.13-5.49-.39-1.17-.26-4.59-1.75-10.28-4.33-5.76-2.59-11.64-7.95-17.78-16.04-6.22-8.14-9.52-14.87-10.1-20.23-.51-5.37-.77-9.12-.77-11.25 0-10.41 3.1-19.4 9.24-26.96 6.15-7.63 15.01-15.26 26.59-22.95zm16.36 9.44c-3.56-2.33-7.64-3.5-12.1-3.5-7.89 0-14.35 3.24-19.39 9.77-4.98 6.53-7.5 13.96-7.5 22.37 0 8.21 2.52 16.22 7.56 24.11 7.69-4.85 16.55-12.02 26.57-21.59 10.03-9.51 16.76-15.65 20.19-18.3-1.62-2.52-3.5-4.59-5.63-6.33-2.2-1.69-5.37-3.88-9.7-6.53z"/></g></g><path d="m2558.12 12641.83c.06 2.75-1.68 7.32-2.53 10.07-.84 3.66-1.23 6.86-2.07 10.53-.76 7.32-2.43 15.1-2.72 22.88h.91c3.06-6.86 7.5-13.73 11.03-20.14 9.24-17.85 24.32-41.65 36.36-57.21 9.81-12.82 18.32-21.97 30.48-32.04 7.64-7.33 27.49-21.97 37.5-25.18 6.07 5.49 8.36 5.49 9.4 10.99 1.04 5.95 1.18 12.36 1.76 18.31.57 5.49.76 14.19.87 19.22.12 5.95-.65 12.82-.06 19.22.86-2.74 1.66-8.23 2.05-11.44 5.42-25.63 11.82-47.6 23.7-70.95 5.72-11.44 22.53-39.82 30.54-50.8 1.78-2.75 3.55-5.5 5.79-7.79 1.79-2.28 4.48-5.03 6.26-7.32-4.76-8.7-7.61-13.27-14.19-21.05-5.16-5.5-11.74-13.28-16.87-17.86 3.03-8.23 11.55-16.93 21.13-18.76 7.75-1.83 16.12 3.66 21.71 7.78 1.4 1.37 3.28 3.66 5.58 4.12l-.01-.46c-.47-.46 0 0-.47-.46l-5.23-9.15c-4.29-7.78-13.71-19.68-20.24-25.18-9.81-9.15-21.85-15.1-35.19-17.39-1.84-.46-3.69-.92-5.99-1.37.97 2.28 13.49 9.61 16.85 16.47 3.84 8.24.9 21.06-4.98 24.72-4.97 3.21-15.69-5.49-22.19-9.15l-19.97-12.82c-.52-2.75 7.34-21.05 8.63-25.17 7.91-16.02 6.67-9.62 22.19-12.36-6.97-4.58-18.02-6.87-27.66-7.78-20.2-1.84-26.46 5.49-29.22 5.03-.99-3.66.03-20.14-.09-26.09-1-25.63-7.29-41.2-25.49-56.76-16.33-13.73-32.55-22.43-54.64-27-3.69-.92-7.37-1.83-11.51-2.29l-11.01-.92c-.93-.46-.46 0-.93-.46h-16.95c-3.19.92-1.38 0-6.4.92-1.83 0-4.11.46-5.95.46-12.33 1.83-20.54 3.66-32.36 8.24-11.8 5.03-24.46 13.27-32.54 21.05-9.44 8.7-17.06 16.48-20.85 32.5-3.34 15.56-.66 33.87-.3 50.81-4.15-1.37-8.32-3.66-13.39-5.04-12.89-2.74-34.8 1.38-44.76 6.87 4.16 1.83 12.37 0 16.53 1.83 2.79 1.83 5.2 7.32 7.12 11.44s10.13 23.81 10.18 26.55c-5.39 5.04-11.26 9.16-17.12 13.73-6.75 5.5-14.4 12.36-19.59 5.04-4.25-5.95-8.1-14.65-5.56-24.26 1.74-4.58 11.17-13.73 14.78-16.02-6.42-.46-16.85 4.58-20.93 6.86-5.87 4.12-10.36 8.24-14.38 13.28-5.37 5.95-12.92 17.39-15.96 25.17l-3.48 8.7c-.44.92.01.46-.44.92l.02.91c3.15-2.29 4.46-5.49 11.25-9.61 4.52-2.75 9.98-4.58 16.45-2.29 8.31 3.2 17.32 17.39 18.81 22.89-.43 1.37-.89 1.37-1.79 2.29-5.37 5.95-20.45 29.29-20.33 35.24-.86 2.29-.44.46.03 1.37 2.17-5.95 16.85-26.54 20.85-32.49l9.92 14.18 51.16 57.22c5.64 6.41 11.71 11.9 17.8 18.31 1.4.92 1.87 1.37 3.27 2.75l8.9 9.15h.46s0 0 .01.46l-.52-2.75c-.5-1.83-2.39-4.58-3.34-6.41l-9.93-14.19c-2.82-3.66-7.53-9.61-9.91-13.73.48.92.48.92.49 1.38l2.84 4.57c.5 1.83.01.46.51 2.29-2.79-1.83-4.22-4.58-6.12-7.78-7.99-9.61-9.88-11.9-18.78-21.06l-32.78-33.41c-4.22-4.58-11.86-19.22-14.74-25.17-3.33-5.95-7.1-10.99-9.97-16.48-1.88-2.29-3.32-5.5-4.77-8.7-2.39-4.58-2.84-4.58-2.97-10.53-2.77-.91-.49-1.37 1.36-.91 2.29 0 1.85.91 1.91 3.66 1.09 8.24 6.26 14.65 10.54 21.97 4.78 9.15 10.03 19.22 14.81 28.38l.48.91c.95 1.84 2.38 4.12 3.77 5.04l.47.46c.97 2.74 26.69 27 32.29 32.04 3.27 2.74 9.84 10.07 12.66 13.27l5.18 6.87 2.82 3.2c-2.35-2.74-3.77-5.03-5.67-8.24-8.01-10.07-17.35-18.31-26.7-27.46-2.34-2.29-4.67-4.12-7.01-6.41l-13.57-13.27-.47-.46c-2.36-3.2-3.31-4.58-5.23-8.7-1.94-5.03-11.94-22.88-11.98-25.17l-.01-.46c16.04.46 14.65-.46 24.11-8.24 4.96-3.66 13.05-10.98 18.5-13.27-.71 9.61-24.99 31.58-20.71 38.9 2.36 3.21 22.37 17.86 30.01 32.04 4.78 9.62 22.35 38.45 29.43 48.52 8.04 11.45 5.22 8.24 11.41 19.23 1.44 3.2 4.28 7.32 4.8 10.53 1.87 1.37 1.47 4.12 2.89 6.4 1.42 2.29 2.83 3.67 4.24 5.5 1.42 2.29 2.83 3.66 3.78 5.49l12.27 16.48c2.82 3.66 4.69 5.49 6.58 7.78l8.47 10.53c7.53 9.61 11.75 14.19 18.85 24.71 1.42 2.29 6.63 10.07 7.14 12.36l-1.88-1.83c-3.27-3.2-2.81-3.2-5.17-6.41-1.42-1.83-1.87-1.83-3.31-4.57-.94-1.38-.47-.92-1.42-2.29l-5.64-6.41c-5.2-7.78-11.77-15.11-17.42-21.97-3.28-3.66-9.39-10.99-13.13-14.19-2.79-2.29-2.82-3.66-10.28-9.61-1.85-.92-2.79-1.83-4.64-2.75-3.28-3.2-10.24-7.32-13.95-9.61-6.49-3.66-13-7.78-20.4-10.99-10.64-5.03-13.43-6.86-16.82 5.95-2.54 10.07-.52 18.77-.3 29.3-.49-1.38-2.87-5.49-3.34-6.41-1.41-1.37-.44.92-.48-.92-1.03-5.49-21.96-41.65-24.82-46.68-7.6-12.82-15.14-22.43-23.64-34.33-2.35-2.75-10.81-12.82-13.58-13.74.48.92 0 0 .49 1.38.96 1.83 4.69 5.03 6.56 6.86 6.57 7.33 12.25 15.57 17.92 23.81 14.18 20.59 30.35 48.51 38.65 72.32 2.91 7.78 7.38 23.8 8.94 32.95.52 2.75 1.12 9.62 2.08 11.45-.08-3.67-.6-6.87-.68-10.53-.77-14.65.15-36.16 1.68-50.35.7-10.07 3.04-7.78 6.57-14.19 6.89.46 35.24 19.22 40.36 23.34 12.57 9.16 22.41 19.69 32.29 31.59 9.86 10.98 18.38 23.8 26.46 37.53 4.26 6.41 19.5 33.87 21.96 41.65h.91c-.14-6.86-1.75-17.85-2.81-24.71-1-3.67-1.54-7.79-2.54-11.45-.98-3.2-2.45-7.78-3.43-10.53-.94-1.37-2.41-5.95-2.91-7.78 11.96 2.29 20.23 3.21 28.34-3.2 0 0 0 0 .45-.46.94.92-.87 2.29-1.22 7.33-.41 2.28-.35 5.03-1.22 7.32zm-219.77-164.78.01.45c1.82-.45.46 0-.01-.45zm.44-.92h.45s-.46-.46-.47-.91zm380.37-62.25c1.31-3.2 3.09-5.95 4.37-10.07 1.69-6.87-.28-13.27 2.46-13.73l4.15 1.37c-.86 2.29-2.2 4.12-3.5 7.78-2.09 9.16-13.49 33.42-17.92 40.74-1.78 2.29-3.12 4.12-4.89 6.87-4.46 5.95-5.35 7.32-10.26 13.27-1.81 1.37-4.96 4.12-5.83 5.95-3.08 5.95-12.56 12.82-17.03 18.31-1.33 1.83-3.1 5.04-4.42 7.32l-10.26 13.28c-1.31 3.2-1.33 2.29-2.19 5.03 2.74-.45 1.36-.91 5-2.29-3.18 1.38-3.55 5.5-4.45 6.41-2.13 7.78-9.31 14.65-14.19 22.43-3.55 5.49-6.61 12.36-10.17 17.4-1.32 2.28-2.67 3.66-3.54 5.95-.89 1.37-.87 2.28-1.3 3.2 1.81-.92 2.25-1.83 3.59-3.2.91-.46.9-.92 1.81-1.38l8.05-9.15c8.06-8.7 11.11-16.48 16.9-24.26 4.45-6.41 7.14-9.16 11.57-16.02l5.79-8.24c-2.3 0-3.2.46-5.48.91.86-2.28-.01-.45 1.32-2.28l8.05-9.62c3.12-4.12 9.41-9.61 13.42-15.1l9.84-11.44c1.35-1.38 1.79-2.29 3.13-3.67l16.08-19.68 21.07 21.06c1.42 2.29 5.18 6.86 5.68 8.69-6.27 6.87-11.61 14.19-16.94 22.43l-13.29 21.52c-10.2 16.02-17.18 32.49-24.61 49.43-3.05 7.32-.78 6.41-3.53 6.41l-.53-3.21c-.07-3.66-.14-6.86-1.14-10.52-1.01-4.58-3.94-13.28-6.76-16.48-2.36-3.21-10.48 2.74-15.01 5.49-14.94 8.24-19.46 11.44-31.61 21.97l-14.79 15.56c-4.49 4.12-8.49 10.07-12.52 14.65l-6.7 8.24c-.9.46-1.35.92-1.79 1.83-1.34 1.37-2.23 2.75-3.11 4.58-.44.91-.89 1.37-1.79 1.83-3.1 5.03-8 11.9-10.18 16.94-.89 1.37-4.87 8.23-6.69 8.69-.96-1.83-.09-4.12 1.26-5.49.89-.92.9-.46 1.79-1.83.88-1.83-.02-.92 1.78-2.29 1.72-5.49 13.72-22.89 17.29-27.46 7.1-10.99 15.06-24.72 21.74-33.88 3.99-6.4 8.38-15.1 11.9-21.97 2.64-5.49 4.83-10.07 7.47-15.1 1.76-3.66 6.66-10.07 7.48-14.65-.49-1.37-.02-.91-.92-.46-.45.46-.44.92-.89 1.38-.94-.92.39-3.21 1.69-6.87.86-2.29 1.72-5.03 2.14-6.86l-23.82 43.48c-3.52 6.87-7.94 14.65-11.46 21.51-3.97 7.33-7.95 14.19-12.38 21.06-3.97 7.32-8.89 13.27-12.39 21.05-1.77 2.75-4.88 7.33-7.12 9.62-3.59 3.66-4.01 5.49-6.2 10.52-5.31 8.7-9.22 18.77-13.61 27.92-1.74 4.12-7.02 14.65-7.88 17.4 1.23-6.87 12.19-30.21 13-35.25 1.28-4.57 5.24-12.36 7.91-16.02 3.57-4.57 5.42-3.66 11.17-13.27 7.1-10.99 11.11-16.48 18.62-29.75 6.19-10.53 11.94-20.14 17.68-30.67 11.47-20.6 20.61-43.49 33.01-63.63 4.89-7.32 22.54-39.36 27.45-45.31 2.25-2.29 10.32-10.53 11.18-13.27.41-2.29-9.46-13.74-12.26-16.02-6.98-5.04-10.22-6.87-17.19-11.45.85-3.2 2.18-5.03 2.59-7.32 9.25 4.12 29.75 19.68 35.74 21.51 3.24 1.37 3.71 1.83 7.34.46 3.65-.92 5.49-.46 8.71 0zm-280.75 27.92h4.12c.06 2.75-2.46 13.73-3.29 17.4-.01-.46-.01-.46-.49-1.38 0 0-.48-.91-.48-.91-.99-3.66-1.17-11.9-2.14-14.65l-2.77-.92c.34-5.49 5.42-3.66 5.42-3.66 1.83 0-2.75 0 .91-.46 2.28-.45 3.2 0 5.51.92.04 1.83.04 1.83-.39 3.2 0 0-8.23.46-8.7 0zm192.89-.91 1.38.45-1.9 18.31c-.97-2.74-1.5-5.95-2.03-9.15-.97-2.75-1.94-5.49-2.01-8.7l-.47-.46c-.95-1.37-.49-1.37-.52-2.74 1.82-.92 5-1.83 7.32-.92 1.84.46 1.86 1.38 2.33 2.29zm108.09-45.78c-.46 0-.46 0-.46 0l-.93-.45c-.47-.46-.47-.46-.47-.46l-24.59-14.65c-2.32-1.37-6.5-4.12-8.37-5.49 8.27.91 28.22 12.36 33.87 19.68.01.46.01.46.01.46s.47.46.47.46zm-403.7 0c.4-2.74.42-1.83 2.66-4.57 1.35-.92 2.25-1.83 3.14-3.21 4.94-4.58 16.66-13.73 23.96-15.1-4.05 3.2-11.3 7.32-15.35 10.98-5.85 5.04-1.81.92-6.73 6.41-.88 1.83-5.86 4.58-7.68 5.49zm298.99-32.5s-2.69 2.75-2.69 2.75c-1.8 1.37-1.84-.46-.96-1.83 1.3-3.66 1.69-6.87 3.04-8.24zm-5.95.46c-1.88-2.29-2.84-4.57-.6-6.86 1.34-1.83 2.69-2.75 4.48-5.04-.35 5.49-1.67 7.78-3.88 11.9zm-.76 71.87-2.27 1.37c.01.46-.88 1.37-1.32 2.29-1.83 0-2.29 0-3.69-.92.87-2.29-1.86-1.37 1.81-1.37h2.29c-.52-2.75-1.38 0-1.89-2.75-.9.92-.44.92-1.36.92-1.37 0-2.3-.46-2.77-.92l-.92-.45c-.1-4.58 1.16-10.07 1.99-14.19 1.68-6.87 6.54-15.57 9.61-21.98l5.3-9.61s0 0-.01-.46h.46c-.85 3.21-.33 6.41-1.18 9.62-2.09 9.15-3.48 8.69-7.04 13.73-.87 1.83-2.64 5.03-3.05 7.32 2.74-.46 12.68-7.32 14.48-8.69 2.68-3.21 4.33-11.91 6.07-16.48 1.84.45.44-.46 1.38.45-1.89-2.74.66-11.9 2.45-14.18 2.21-3.67 5.36-6.41 8.5-9.62 5.35-7.32 9.31-14.64 21.21-15.56-.42 1.83-1.76 3.66-3.08 5.95-4.39 9.16-8.29 19.68-11.3 29.3l-9.58 23.34c-3.07 6.41-1.72 5.49-7.14 9.15zm-183.28.45c-5.94.92-13.41-5.49-17.6-8.69-1.4-1.38-3.25-2.29-5.12-3.66-6.51-4.58-6.48-3.21-8.89-8.7-6.76-16.48-14.43-32.5-21.66-48.98l-5.75-11.9c16.59 4.12 18.16 13.27 30.8 26.09 2.35 2.75 1.45 3.66 2 7.78 1.48 5.04-.4 2.75-1.23 6.87h.46.45c2.31.91 3.43 10.07 8.11 15.1 1.87 1.38 13.02 8.7 15.31 8.7-2.92-8.24-6.64-10.53-8.05-12.36-4.28-7.32-3.88-10.07-2.64-16.48 3.24 1.83 9.99 17.4 11.42 20.14 2.43 6.41 6.32 16.94 6.93 24.26-4.57.46-4.12 0-5.57-3.2-2.84-4.58-8.01-10.53-12.66-13.73-.94-1.38-3.71-2.29-5.56-3.21-6.5-3.66-9.33-7.78-14.46-11.9 3.32 5.49 11.73 12.82 17.75 16.02 6.01 2.29 6.45 1.83 9.78 7.33 1.43 2.74 5.2 7.78 6.18 10.52zm-34.18-34.33c1.4 1.38-.94-.91 0 0zm230.41-46.68c9.48-6.87 22.76-7.33 34.7-5.95 1.84.45 4.13.45 5.98.91l5.05.46c.92.46.45 0 .92.46-32.99 0-31.84 10.98-44.32 27.46-.9.92-1.8 1.37-2.69 2.75l-3.07 6.4c-.44.92.01.46-.44.92-.13-5.95 1.6-10.99 2.87-16.02 1.25-5.49 1.14-10.99 1-17.39zm-263.12-5.04c1.82-.46 1.82-.46 5.49-.46 18.29-1.83 21.95-1.83 39.05 5.04-.26 9.15-.25 9.61 2.21 17.85 1.95 5.49 2.97 10.53 4.47 16.02-1.39-.46-.92 0-1.87-1.37l-8.03-11.45c-10.87-15.56-17.02-24.71-41.77-25.17zm55.27 13.73c-.04-1.83-2.86-5.49-3.85-8.69-.98-3.21-.17-8.24-1.16-11.45 9.73 5.04 9.45 13.28 5.01 20.14zm193.79-23.34c-1.16-11.9 6.19-10.99 7.41-18.31.58 5.95 1.75 17.85-6.43 21.05l.8-5.49zm2.65-5.04c-.45.46-.46 0-.87 2.29.9-.91.9-.91.87-2.29zm-.78 6.41c1.35-.91-.46 0-.46 0-.44.92.46 0 .46 0zm-4.69-5.03c-.4 2.74.08 4.12.59 6.4 1.48 5.04-2.91 13.74-.08 17.86 2.39 4.57 9.9 12.81 10.01 18.31.14 6.4-12.82 21.97-17.52 37.99-5.09 19.22-9.98 48.06-13.66 69.11l-2.36 18.31c-.44.92-.41 2.29-.86 2.75l-.85 2.75c-.21-9.62 1.82-21.98 3.45-31.59.41-2.29 1.22-7.32 1.18-9.15 0 0-5.82 27.92-6.56 36.16-.73 9.15-.23 10.98-3.74 18.31-2.2 4.12-4.83 10.07-7.49 14.19-.53-3.66.96-19.69 1.8-23.35 1.22-7.32 1.99-14.19 3.21-21.51 2.04-11.9 6.11-35.7 9.09-46.69l3.34-15.1c1.24-6.41.36-5.04 3-10.07.88-1.38 1.31-2.75 1.73-4.58.9-.92 1.8-1.83 2.68-3.2 3.1-5.5 5.74-10.53 9.3-15.57 3.97-7.32 8.9-12.36 5.61-16.48-.86 2.75-.83 4.12-2.61 6.87-1.33 1.83-2.21 3.66-3.54 5.95-5.29 9.61-8.87 13.73-12.75 25.18-7.81 20.59-7.78 22.42-12.36 43.94-2.08 10.07-4.14 21.05-5.75 31.58-3.64 22.43-4.93 48.06-8.2 66.83-2.86 16.48-8.62 47.14-17.11 57.67-1.34 1.38-8.08 7.78-10.35 8.7-4.55 1.37-13.28.46-17.88-.46-5.52-.91-9.23-3.2-13.87-5.49-4.65-3.21-6.51-4.58-8.47-10.53-6.81-18.77-14.09-37.99-19.1-58.13-3.5-13.73-4.13-21.97-6.2-32.96-2.05-10.52-4.12-21.51-7.08-31.58-2.5-9.61-5.94-20.6-8.43-30.21l-7.09-31.58c-1.67 7.32 9.68 45.77 12.18 55.38 1.53 7.33 9 35.7 8.24 43.03-.32 6.41.65 9.15.78 15.1l-.94-.91c-.01-.46-.48-.92-.49-1.38-.47-.91-.94-1.37-1.42-2.28-.94-1.38-1.43-2.75-2.39-4.58-2.85-5.04-8.55-14.19-9.11-19.23-.09-4.12-1.09-8.23-1.64-12.35-1.09-8.24-3.1-16.48-4.18-24.26-.99-3.67-1.54-7.79-2.54-11.9-.51-2.29-2.48-8.7-2.06-10.53-.39 3.2 1.11 9.15 2.12 13.27 1.59 10.07 4.8 32.04 4.98 40.74-1.86-1.37-1.87-1.83-2.38-4.58l-2.22-18.31c-3.19-20.59-4.21-25.63-9.22-45.77-3.51-14.19-7.46-27.46-14.59-39.82-14.26-24.26-14.55-16.02-3.95-34.79 5.28-10.53 1.7-6.41 1.82-22.43-.01-.46-.02-.91-.02-.91.43-1.38.44-.92.89-.92-.03-1.83-.03-1.83.4-2.75-.02-1.37.46 0-.49-1.83-.53-3.2.85-3.2-1.04-5.49l-10.73-9.15c.96 1.83 1.87 1.83 3.32 5.03 2.4 5.49 4.18 2.75 7.05 8.7.97 2.29.07 3.2.6 6.41-1.42-1.83-2.38-4.12-3.79-5.95-.48-.92-2.89-6.41-2.89-6.41l1 4.12c1.01 4.12 1.54 7.78 1.64 12.36-1.85-.92-4.66-3.67-6.05-4.58-2.35-2.75-2.15-14.65-1.77-18.31.42-1.83-.59-6.41-.66-9.61 1.85.91 3.73 2.74 6.97 4.57 3.24 1.38 4.16 1.84 5.62 5.5 2.71-1.83 1.82-.46 1.82-.46-.02-.92-.54-3.66-.55-4.12 0 0-.45 0-.46-.46-2.33-1.83-4.19-2.74-6.5-3.66l-6.95-3.66c.34-5.95.16-14.19 1.42-19.68 1.01 4.57.17 8.24.27 12.81 3.81-14.64 1.85-20.6 16.77-30.21 2.26-1.37 1.33-2.29 2.26-1.37-1.8 1.37-1.33 1.83-2.69 2.75l1.39.45c-1.82.92-.46 0-2.28.46.48 1.37 3.15-2.75-2.65 5.04-1.31 2.74-3.14 3.2-2.13 7.32.52 3.2 1.48 5.03 2.46 8.24 2.42 5.95 1.91 3.66 3.32 5.03.48.92.9-.45.03 1.38l-.05-2.29c.38-3.66-4.4-12.82-4-15.56.88-1.84 7.15-8.7 8.49-10.53 7.18-6.87 11.69-10.53 22.58-15.56 5.9-2.75 7.7-4.12 15.5-3.67 10.08 0 21.17 4.58 30.42 8.24 2.77 1.38 10.65 5.5 13.84 4.58 2.74-.46 14.96-7.78 27.26-10.99 14.14-3.2 19.66-1.83 31.69 3.21 10.17 4.58 15.78 9.61 22.34 16.48 5.61 5.49 7.94 7.32 6.67 11.9-.85 3.2-4.33 11.9-3.34 15.56l2.69-2.75.93.46h.46c.89-.91-1.38 0 .89-.91-1.85-.92-.9.45-1.85-.92 1.36-.91 2.24-2.29 2.2-4.12l-2.23 2.75c1.31-3.21 2.63-5.95 3.01-9.61.81-5.04-1.98-6.87-4.32-9.16-1.42-1.83-.49-1.37-3.76-4.12l-5.16-5.95c-1.42-1.83-1.88-2.29-2.84-4.12 2.31.92 9.29 5.95 11.61 7.32 2.81 2.75 6.54 5.96 9.36 9.16 4.22 4.58 3.77 5.03 6.22 12.36 1.48 5.03 2.95 9.61 2.62 15.56-2.7 2.29-8.18 3.2-11.78 6.41l-1.35.91c-.44.92-.36 4.58.11 5.5.48.91.49 1.37.51 2.29l-.43 1.37.04 1.83s0 0 .45-.46l.91-.46c2.71-1.83 3.57-4.12 3.94-8.23-1.34 1.37-1.33 1.83-2.22 3.2l-1.76 3.2-.5-1.83c-.05-2.29 3.62-2.29 4.92-5.49-1.83 0-3.17 1.37-4.53 2.29 1.35-1.37 4.08-2.29 5.87-4.12 1.34-1.37 4.04-4.12 6.32-4.58.24 11.44.59 6.41-2.08 10.07-.9.92-.88 1.83-1.77 2.75-.88 1.83-3.13 3.66-4.02 5.03-.97-2.29.45-.45.39-3.2-1.37.46-1.36.91-1.36.91s1.35-1.37 1.81-1.37c0 0 .46.46.9-.46.89-1.37.46 0 .87-2.29-1.81.92-1.36.46-2.71 1.84-1.8 1.37-1.78 2.28-2.67 3.66l-.9.91s.48.92 1.37-.45c-.89 1.37-1.8 1.83-1.74 4.57l-.01-.46s.42-1.83.01.46c-.42 1.83.02.92.53 3.21zm-139.73-85.14c.82-4.58 13.61-6.41 18.62-7.78 11.87-1.83 37.99-1.83 49.95 0 4.13.46 18.84 2.74 18.94 7.32-.91.46-15.51 3.21-23.24 5.95-23.64 9.16-13.5 11.9-29.7 4.12-12.95-5.49-19.86-7.32-34.57-9.61z" fill="#270318"/><path d="m2564.71 12585.07c-1.83.46-9.2-1.37-11.5-1.83-14.27-3.2-22.94-1.37-37.53 1.83 18.18-6.87 30.99-7.78 49.03 0zm15.79-54.93-4.68 16.94c-3.45 10.53-7.33 21.97-18.69 26.55l-5.9 2.29c-.46 0-2.29.45-2.74.45-5.04.46-17.4.92-21.55-.45-1.38-.46-2.31-.92-4.15-1.38-12.48-5.03-18.69-16.93-23.97-28.38-1.46-3.66-5.79-13.73-5.4-16.93.92.46-.01-.46 1.4 1.37.01.46.49 1.37.5 1.83 3.84 8.24 7.29 19.68 12.46 26.09 1.89 2.29 3.28 3.21 5.61 5.04 6.07 5.49 15.76 8.69 24.47 8.69 12.83 0 25.55-5.03 29.97-12.81 2.66-4.12 11.39-24.72 12.67-29.3zm43.54-194.07c-1.4-.92-.45.45-.94-.92l-.99-3.66c-.04-1.83.85-3.2 1.74-4.12-.93-.92.46 0-1.38-.46-.45.46-.45.46-.45.46l-.04-1.83-.02-.92c-.53-3.66-.41 2.29-.02-.91-.06-2.75-.48-.92-.04-1.83-.47-.92-.55-4.58-.11-5.5-.95-1.37-.51-2.28-.55-4.12l-3.82-7.32c-.01-.46-1.86-1.37 1.31-3.2-.47-.46-.48-.92-.95-1.38l-2.69 2.75c-.99-3.66 2.49-12.36 3.34-15.56 1.27-4.58-1.06-6.41-6.67-11.9-6.56-6.87-12.17-11.9-22.34-16.48-12.03-5.04-17.55-6.41-31.69-3.21-12.3 3.21-24.52 10.53-27.26 10.99-3.19.92-11.07-3.2-13.84-4.58-9.25-3.66-20.34-8.24-30.42-8.24-7.8-.45-9.6.92-15.5 3.67-10.89 5.03-15.4 8.69-22.58 15.56-1.34 1.83-7.61 8.69-8.49 10.53-.4 2.74 4.38 11.9 4 15.56.47.46 1.39.91.52 2.74l-3.1 5.5c-1.75 3.66-1.32 2.29-1.71 5.49l.08 4.12c.01.46.53 3.2.55 4.12.04 1.83-.39 3.2.11 5.03l-1.37.46c.01.46.01.46.01.46.46 0 1.39.46 1.44 3.2l-1.28 4.12c.95 1.83.47.46.49 1.83-.43.92-.43.92-.4 2.75.48.92.03 1.37-.87 1.83-.12 16.02 3.46 11.9-1.82 22.43-10.6 18.77-10.31 10.53 3.95 34.79 7.13 12.36 11.08 25.63 14.59 39.82 5.01 20.14 6.03 25.18 9.22 45.77l2.22 18.31c.51 2.75.52 3.21 2.38 4.58-.18-8.7-3.39-30.67-4.98-40.74-1.01-4.12-2.51-10.07-2.12-13.27-.42 1.83 1.55 8.24 2.06 10.53 1 4.11 1.55 8.23 2.54 11.9 1.08 7.78 3.09 16.02 4.18 24.26.55 4.12 1.55 8.23 1.64 12.35.56 5.04 6.26 14.19 9.11 19.23.96 1.83 1.45 3.2 2.39 4.58.48.91.95 1.37 1.42 2.28.01.46.48.92.49 1.38l.94.91c-.13-5.95-1.1-8.69-.78-15.1.76-7.33-6.71-35.7-8.24-43.03-2.5-9.61-13.85-48.06-12.18-55.38l7.09 31.58c2.49 9.61 5.93 20.6 8.43 30.21 2.96 10.07 5.03 21.06 7.08 31.58 2.07 10.99 2.7 19.23 6.2 32.96 5.01 20.14 12.29 39.36 19.1 58.13 1.96 5.95 3.82 7.32 8.47 10.53 4.64 2.29 8.35 4.58 13.87 5.49 4.6.92 13.33 1.83 17.88.46 2.27-.92 9.01-7.32 10.35-8.7 8.49-10.53 14.25-41.19 17.11-57.67 3.27-18.77 4.56-44.4 8.2-66.83 1.61-10.53 3.67-21.51 5.75-31.58 4.58-21.52 4.55-23.35 12.36-43.94 3.88-11.45 7.46-15.57 12.75-25.18 1.33-2.29 2.21-4.12 3.54-5.95 1.78-2.75 1.75-4.12 2.61-6.87 3.29 4.12-1.64 9.16-5.61 16.48-3.56 5.04-6.2 10.07-9.3 15.57-.88 1.37-1.78 2.28-2.68 3.2-.42 1.83-.85 3.2-1.73 4.58-2.64 5.03-1.76 3.66-3 10.07l-3.34 15.1c-2.98 10.99-7.05 34.79-9.09 46.69-1.22 7.32-1.99 14.19-3.21 21.51-.84 3.66-2.33 19.69-1.8 23.35 2.66-4.12 5.29-10.07 7.49-14.19 3.51-7.33 3.01-9.16 3.74-18.31.74-8.24 6.56-36.16 6.56-36.16.04 1.83-.77 6.86-1.18 9.15-1.63 9.61-3.66 21.97-3.45 31.59l.85-2.75c.45-.46.42-1.83.86-2.75l2.36-18.31c3.68-21.05 8.57-49.89 13.66-69.11 4.7-16.02 17.66-31.59 17.52-37.99-.11-5.5-7.62-13.74-10.01-18.31-2.83-4.12 1.56-12.82.08-17.86-.51-2.28-.99-3.66-.59-6.4zm-4.87-35.25h-.46c.47.46.01.46.46 0zm-178.75 84.68c5.98.92 19.8 26.09 22.26 33.87-3.79-5.49-6.67-11.9-10.45-17.39zm169.01-25.17c-1.35.91-1.38-.46 1.44 3.2 1.4.92 1.88 2.29 2.38 4.12-.93-.92-1.87-1.83-2.81-2.75-.46-.45-.93-.91-1.4-1.37 0 0-.93-.46-.93-.46-.93-.91-.46-.46-.93-.91 0 0-1.37.45.5 1.83.93.91.92.46 1.86 1.37-4.58.46-.48-.91-5.94.92l.94.91s.45 0 .46.46h4.13c-2.28.46-5.93 1.37-7.75 1.83-2.74.46-4.09 1.83-5.89 3.2l-3.63 1.84c-.9.91 1.83 0 0 0-3.2.45-5.98-.92-8.3-2.29l.03 1.37c-2.32-1.37-5.09-2.29-6.94-3.2-2.31-.92-4.17-2.29-6.49-3.67-1.38-.45-2.31-.91-3.25-1.83l-3.24-1.83c-2.78-1.37-3.28-3.2-6.94-3.2l21.81 13.27c.93.46 1.87 1.38 2.8 2.29l-11.12-5.95c-5.08-1.83-12.97-6.41-14.35-6.87-1.39-.45-1.85-.45-2.78-1.37-2.31-.91-4.17-2.29-6.43-.46-3.14 3.21-4.42 7.33-5.72 10.99h.46s4.48-4.58 7.66-5.95c5-1.83 10.62 3.66 12.99 7.32.95 1.83.99 3.66 1.95 5.5 5.75 11.9 37.46 16.47 42.43 13.27 1.8-1.83 5.85-5.04 8.58-5.95l-12.88 19.22c-10.57 20.14-16.27 53.56-19.91 76.44-2.46 13.74-4 27.47-6.92 41.2-1.64 9.15-4.69 16.48-7.26 24.72-1.71 5.95-4.77 12.81-10.25 13.73-9.58 2.29-10.93 3.2-21.93 3.2-4.12 0-10.1-.91-13.35-2.74l-5.1-3.21c-2.77-.91-3.24-1.37-4.21-4.12-.97-2.29-1.91-3.2-2.86-5.03-.97-2.29-1.45-3.66-2.42-5.95-1.89-2.75-6.25-13.73-7.24-17.4l-4.56-20.59c-7.24-38.91-10.73-52.18-27.1-89.26-2.41-5.95-8.13-16.02-12.36-21.06-.95-1.83-6.12-7.78-6.62-10.07 5.1 3.21 12.57 9.62 19.44 9.62 9.18.45 26.04-4.12 30.44-12.36 1.76-3.66.31-7.33 3.44-10.99.43-1.37 6.74-5.95 8.58-5.95 3.66 0 6.51 4.58 9.28 5.49-.09-4.12-1.99-7.32-5.71-9.61-4.64-2.74-15.45 5.95-19.98 8.24-3.17 1.83-6.78 4.58-9.97 5.49l16.71-11.44c-3.62 1.83-6.31 4.58-9.96 5.49-4.09 1.38-7.29 1.83-10.91 4.12-7.71 3.66-9.24-3.66-16.12-4.12-3.22-.45-3.68-.45-5.98-.91 1.82-.46 4.56-.92 5.92-1.83-5.54-1.83-4.14-.46-8.26-.46 1.35-1.37 2.7-2.29 3.59-3.66l-5.46 1.83c-1.83.46-3.59 3.66-4.94 5.03.42-1.83 1.31-3.2 2.66-4.57.44-.46 1.34-1.38 1.34-1.38h.46l-.02-.91c1.37-.46 2.72-1.38 3.15-2.75-3.2.46-4.09 1.83-6.81 2.75.87-1.83-1.36.91.86-2.29l1.79-2.29c.89-.92.46 0 .89-.92-3.2 0-4.54 1.84-7.73 2.75 3.14-3.2 6.34-3.66 8.54-7.78-.9.46-2.28.46-4.11.46-1.37 0-3.21 0-4.13-.46l4.11-.46c-.94-.91-2.79-1.83-4.17-2.29l3.53-6.41c2.64-5.03-1.92-4.11-.12-5.49-1.46-4.12-.31-14.65.03-20.14.42-1.83.35-5.03 1.24-6.41 2.34 2.29 6.04 3.67 8.38 5.95 9.32 7.79 23.41 23.81 29.91 27.93 5.12 3.66 16.65 6.86 23.02 5.03 3.65-.91 1.35-1.37 5.96 0 2.3.46 4.12 0 6.87 0-2.24 2.29-5.45 2.29-8.15 4.58l4.09-1.83c1.36-.46 2.26-1.38 4.55-1.38 3.66 0 8.71 0 11.92.46 1.39.46 3.23.92 4.17 1.83 2.77 1.38 5.15 5.5 13.4 5.5-2.32-1.38-5.56-2.75-8.34-4.12-1.86-1.38-6.02-3.21-7.43-5.04 2.73-.91-.48-.91 2.28-.46 5.04 0 3.65-.45 8.72.92 5.52.91 7.34.46 12.36-.92 10.93-3.2 9.56-2.74 16.71-11.44 4.46-5.49 21.92-25.18 29.21-27.01 2.85 4.58 3.18 20.14 3.73 24.72.49 1.37.48.92-.4 2.75l-2.23 2.74c1.4 1.38 3.33 5.95 5.18 6.87l-1.38-.46c-1.38 0 .43-1.37-.92 0l.47.46c.93.46 0 0 .93.46.92.46 1.38.46 1.84.46-1.33 2.28.91-.46-2.69 2.74-.91.46-.91.46-.91.46h3.67c-3.2.46-5.01 1.37-7.78.46l.48.91c2.36 3.66 5.11 3.66 7.94 7.33-3.23-.92-4.65-3.21-8.78-3.67.95 1.84 2.83 4.12 4.7 5.5-.47-.46-3.25-1.83-3.71-1.83zm-1.38-.46c.46.46-.44.91.45 0zm1.85-63.63c-4.62-1.83-6.02-3.2-12.43-2.74-4.12 0-10.05 1.37-12.3 3.2.43-1.37 2.25-1.83 3.15-2.74l1.36-.92c-3.66.46-5.92 1.83-9.57 2.75 5.89-3.21 8.63-3.67 14.59-3.67 7.33 0 10.08 0 15.2 4.12zm-160.78 2.29c.87-2.29 3.59-3.66 5.85-5.03 6.79-3.66 19.19-2.29 25.28 3.66-.93-.46-2.77-.92-3.69-.92-.92-.45-2.29 0-3.67-.45-3.24-1.38-5.08-1.83-8.3-2.29-8.73-.92-12.28 4.12-15.47 5.03z" fill="#dfe2e1"/><path d="m2532.61 12540.67c3.65-.46 5.59 4.58 6.1 6.87.53 3.2 1.56 8.69 1.15 10.98-1.37.46-4.12.46-5.96 0-2.76-.46-1.86-1.37-1.47-4.57-.09-4.12-.66-9.62.18-13.28zm14.65-.46c.99 3.21 2.61 15.11 2.2 17.4l-6.86.45-.96-1.83c-.02-.91-.04-2.28-.06-3.2-.05-2.29-.09-4.12.33-5.95.37-4.12 1.69-6.41 5.35-6.87zm-24.04 11.45c.42-1.83.85-3.21 1.73-4.58.85-3.2-.07-3.66 2.66-4.58 1.42 2.29 2.56 12.82 2.6 14.65-2.76-.46-6.04-3.66-6.99-5.49zm29.12-9.62c.01.46 4.3 8.24 4.33 9.62-1.33 2.29-1.77 3.2-4.96 4.12-.04-2.29-.55-4.58-.6-6.87-.03-1.37-.05-2.29-.07-3.2.37-4.12.4-2.75 1.3-3.67zm3.69 1.38c1.34-1.83 3.52-7.33 3.47-9.61l.94 1.37c2.42 5.95-.2 11.9-2.91 13.73-.49-1.37-.97-2.29-1.47-4.12-1.41-1.83-.51-2.75-1.92-4.12-1.87-1.83-3.66 0-4.57.46-2.42-5.95-6.43-.92-9.61.46-.15-6.87-.07-24.72-2.01-29.76.14 6.41-.83 25.64.19 30.67-1.39-.91-1.89-2.74-4.2-3.66-4.15-1.37-4.12 0-4.06 2.75l-1.39-.46c-.92-.46-2.76-.46-3.19.46v.45l-.44.46c-.55-4.12-3.43-10.53-4.01-16.02-1.38-.46-.46 0-2.29 0-1.07-7.32-3.79-5.95-4.76-8.24-1.41-1.83-2.88-6.41-4.32-9.61-2.89-6.41-4.87-13.27-2.29-21.51 2.58-7.78 6.18-10.99 15.88-7.33 11.54 4.12 11.68 10.53 14.91 11.9 3.53-6.4 8.49-10.52 17.14-13.27 5.92-1.37 8.23-.46 10.61 3.66 3.83 7.78 3.6 18.31.55 26.09-1.74 4.12-2.13 7.33-4.34 10.99-3.12 4.12-2.64 5.49-3.43 11.44-.4 2.75-2.49 11.9-2.48 12.82zm-36.96-14.65c1.5 5.95 4.42 14.19 3.17 20.14-2.32-1.37-5.16-5.95-5.22-8.7-.52-2.74.33-5.95 1.2-8.24l.42-1.83s-.01-.45.45-.45zm-12.41-1.83c.92.46-.01-.46.93.91.47.46.94.92.95 1.38l4.74 7.78c.97 2.29 1.47 4.12 2.42 5.95.97 2.29 1.9 3.2 3.32 5.03 2.86 5.5 3.77 5.04 7.97 8.7 3.74 3.66 5.59 4.12 12.91 3.66 10.99-.45 15.53-2.29 20.82-11.9 2.22-3.66 3.07-6.86 4.8-11.44.88-1.83 4.37-10.07 5.73-10.99.15 7.33-2.95 12.36-5.07 20.6-1.7 5.95-1.13 11.44-12.08 13.73-8.21 1.83-23.29 3.67-31.17-.45-8.82-5.5-8.32-3.67-10.78-11.45-.03-1.37-.96-2.29-1.44-3.2l-4.85-12.82c-1.46-3.66-2.38-4.12.8-5.49zm56.14 11.44c-.47-.46.01.46-.49-1.37l-1.46-4.12c-.58-5.95-.8-16.02 8.49-10.53.55 4.58-3.94 8.7-6.54 16.02zm-54.83-14.19c1.34-1.83 3.59-3.66 6.37-2.29 3.7 1.84 2.57 13.28.81 16.48-1.91-3.66-6.18-10.53-7.18-14.19zm-1.44-3.2c-.97-2.75-.97-2.75-.13-5.95l1.3-3.66c.9-.92.45-.46.9-.92.95 1.83 1.46 4.12 1.98 6.87.49 1.83.95 1.83-.4 2.74-.91.46-2.28.92-3.65.92zm61.16-11.44s.46 0 .48.91l.98 3.21c.51 2.28.54 3.66.58 5.49l-4.6-.46c-.04-1.83 1.67-7.78 2.56-9.15zm-63.08 7.32-.29-13.73c-.02-.92-.03-1.38-.04-1.83.45-.46.44-.92.44-.92.44-.91.45-.46.9-.91-.39 3.2 2.89 6.86.74 13.73l-.42 1.37c-.86 2.75.03 1.83-1.33 2.29zm64.4-10.07c.42-1.37.41-1.83.38-3.66l.4-2.75c.42-1.83 0 0 .42-1.37.07 3.2 1.18 12.36.78 15.1 0 0-.45.46-.45.46.02.92-.44.46-.43.92-.05-2.29.33-5.95-.64-8.24-.46 0-.46-.46-.46-.46zm-47.08-59.05c-2.2-17.39 13.35-18.76 13.2-4.12.1 4.58.29 13.73-4.28 14.19-6.39 1.38-8.35-5.03-8.92-10.07zm32.2 5.95c-3.78-5.49-4.1-20.59-.1-26.55 3.21 0 4.16 1.84 5.14 4.58.51 2.75 1.04 5.95 1.1 8.7.59 6.41-.65 12.82-6.14 13.27zm-35.26.92c-8.29-1.83-7.81-22.43-1.89-24.26 4.17 2.29 6.3 16.02 1.89 24.26zm16.71-11.44c-1.02-5.04 3.88-11.45 8.94-10.53 7.37 1.83 8.35 26.55-3.58 25.63-5.51-.46-4.8-10.53-5.36-15.1zm-29.22-16.48c4.15.91 4.3 8.24 4.4 12.81.52 2.75.57 5.5.63 8.24.08 3.66-.36 4.58-4.02 4.58-5.65-6.87-6.34-17.85-1.01-25.63zm58.26 24.71c-1.85-.91-2.37-3.66-2.41-5.95-.06-2.74-.59-5.95-.64-8.24-.06-3.2 2.06-10.98 4.32-12.35 2.27-1.38 1.84 0 2.4 5.03.55 4.12.89 20.14-3.67 21.51zm7.29-2.28c-.01-.46-.5-1.84-.51-2.29-1.49-5.5-1.08-7.78-.29-13.73.4-2.75.79-5.96 1.18-9.16 1.3-3.66 1.71-5.95 4-5.95 1.42 2.29 1.02 5.04 1.11 9.15.07 3.21.12 5.96-.27 9.16-.78 6.41-2.08 9.61-4.27 14.65zm-74.18 2.74c-1.42-2.29-2.37-3.66-2.9-7.32-.97-2.29-1.03-5.49-1.55-8.24s-.59-5.95-1.1-8.7c-.58-5.49-1.07-7.32 1.66-8.24 3.71 2.29 9.16 21.52 4.78 31.13-.44.91.01.46-.44.91zm-25.72-46.23c4.13.46 11.09 4.58 15.25 5.95 12.94 5.49 34.2 13.73 48.4 13.73 6.87 0 25.51-7.32 31.4-10.07 4.09-1.83 25.4-12.36 28.15-12.36-3.16 2.29-9.89 8.7-12.59 11.45l-2.24 2.29h-.46l-1.81.91c-1.85-.91-1.4-1.37-3.25-1.83-2.26 1.37-3.97 7.33-4.82 10.07-.94-.91-1.43-2.29-2.36-3.2-4.12.46-5.88 3.66-6.71 7.78l-1.43-2.75s-1.4-.91-1.86-.91c-.93-.92-1.89-2.75-4.16-1.83-1.8 1.37-4 5.95-3.92 9.61-8.87-7.78-10.12-1.83-15.11.46-1.4-1.38-3.27-2.75-6.03-3.21-4.13-.46-4.09 1.38-7.28 2.29-3.87-9.61-6.04-4.12-9.21-2.29-1.4-1.37-.97-2.29-1.92-4.12-.5-1.83-1.42-2.29-2.82-3.2-4.1.91-4.47 5.03-5.76 9.15-1.41-1.83-1.98-6.86-2.95-9.61-.97-2.29-3.35-6.41-5.65-6.87l-2.23 2.75c-3.69-.91-7.44-5.03-9.77-6.86-1.87-1.84-7.45-5.5-8.86-7.33zm132.99-37.99-3.68-.92c1.79-1.83 3.17-1.83 6.37-1.83-.94-1.37-1.87-1.83-2.36-3.66 1.84.46 4.16 1.83 5.09 2.75l.94.91c-.49-1.37-.01-.45-.49-1.37l-1.41-1.83c-.93-.46-.93-.46-1.39-.92l-.93-.45c-.01-.46-.01-.46-.01-.46h.92.45c.91-.46.91-.46.93.46.46 0 3.24 1.37 3.71 1.83-1.87-1.38-3.75-3.66-4.7-5.5 4.13.46 5.55 2.75 8.78 3.67-2.83-3.67-5.58-3.67-7.94-7.33l-.48-.91c2.77.91 4.58 0 7.78-.46h-3.67s0 0 .91-.46c3.6-3.2 1.36-.46 2.69-2.74-.46 0-.92 0-1.84-.46-.93-.46 0 0-.93-.46l-.47-.46c1.35-1.37-.46 0 .92 0l1.38.46c-1.85-.92-3.78-5.49-5.18-6.87l2.23-2.74c.88-1.83.89-1.38.4-2.75-.55-4.58-.88-20.14-3.73-24.72-7.29 1.83-24.75 21.52-29.21 27.01-7.15 8.7-5.78 8.24-16.71 11.44-5.02 1.38-6.84 1.83-12.36.92-5.07-1.37-3.68-.92-8.72-.92-2.76-.45.45-.45-2.28.46 1.41 1.83 5.57 3.66 7.43 5.04 2.78 1.37 6.02 2.74 8.34 4.12-8.25 0-10.63-4.12-13.4-5.5-.94-.91-2.78-1.37-4.17-1.83-3.21-.46-8.26-.46-11.92-.46-2.29 0-3.19.92-4.55 1.38l-4.09 1.83c2.7-2.29 5.91-2.29 8.15-4.58-2.75 0-4.57.46-6.87 0-4.61-1.37-2.31-.91-5.96 0-6.37 1.83-17.9-1.37-23.02-5.03-6.5-4.12-20.59-20.14-29.91-27.93-2.34-2.28-6.04-3.66-8.38-5.95-.89 1.38-.82 4.58-1.24 6.41-.34 5.49-1.49 16.02-.03 20.14-1.8 1.38 2.76.46.12 5.49l-3.53 6.41c1.38.46 3.23 1.38 4.17 2.29l-4.11.46c.92.46 2.76.46 4.13.46 1.83 0 3.21 0 4.11-.46-2.2 4.12-5.4 4.58-8.54 7.78 3.19-.91 4.53-2.75 7.73-2.75-.43.92 0 0-.89.92l-1.79 2.29c-2.22 3.2.01.46-.86 2.29 2.72-.92 3.61-2.29 6.81-2.75-.43 1.37-1.78 2.29-3.15 2.75l.02.91c-.46 0 0 0-.46 0 0 0-.9.92-1.34 1.38-1.35 1.37-2.24 2.74-2.66 4.57 1.35-1.37 3.11-4.57 4.94-5.03l5.46-1.83c-.89 1.37-2.24 2.29-3.59 3.66 4.12 0 2.72-1.37 8.26.46-1.36.91-4.1 1.37-5.92 1.83 2.3.46 2.76.46 5.98.91 6.88.46 8.41 7.78 16.12 4.12 3.62-2.29 6.82-2.74 10.91-4.12 3.65-.91 6.34-3.66 9.96-5.49l-16.71 11.44c3.19-.91 6.8-3.66 9.97-5.49 4.53-2.29 15.34-10.98 19.98-8.24 3.72 2.29 5.62 5.49 5.71 9.61-2.77-.91-5.62-5.49-9.28-5.49-1.84 0-8.15 4.58-8.58 5.95-3.13 3.66-1.68 7.33-3.44 10.99-4.4 8.24-21.26 12.81-30.44 12.36-6.87 0-14.34-6.41-19.44-9.62.5 2.29 5.67 8.24 6.62 10.07 4.23 5.04 9.95 15.11 12.36 21.06 16.37 37.08 19.86 50.35 27.1 89.26l4.56 20.59c.99 3.67 5.35 14.65 7.24 17.4.97 2.29 1.45 3.66 2.42 5.95.95 1.83 1.89 2.74 2.86 5.03.97 2.75 1.44 3.21 4.21 4.12l5.1 3.21c3.25 1.83 9.23 2.74 13.35 2.74 11 0 12.35-.91 21.93-3.2 5.48-.92 8.54-7.78 10.25-13.73 2.57-8.24 5.62-15.57 7.26-24.72 2.92-13.73 4.46-27.46 6.92-41.2 3.64-22.88 9.34-56.3 19.91-76.44l12.88-19.22c-2.73.91-6.78 4.12-8.58 5.95-4.97 3.2-36.68-1.37-42.43-13.27-.96-1.84-1-3.67-1.95-5.5-2.37-3.66-7.99-9.15-12.99-7.32-3.18 1.37-7.66 5.95-7.66 5.95h-.46c1.3-3.66 2.58-7.78 5.72-10.99 2.26-1.83 4.12-.45 6.43.46.93.92 1.39.92 2.78 1.37 1.38.46 9.27 5.04 14.35 6.87l11.12 5.95c-.93-.91-1.87-1.83-2.8-2.29l-21.81-13.27c3.66 0 4.16 1.83 6.94 3.2l3.24 1.83c.94.92 1.87 1.38 3.25 1.83 2.32 1.38 4.18 2.75 6.49 3.67 1.85.91 4.62 1.83 6.94 3.2l-.03-1.37c2.32 1.37 5.1 2.74 8.3 2.29 1.83 0-.9.91 0 0l3.63-1.84c1.8-1.37 3.15-2.74 5.89-3.2 1.82-.46 5.47-1.37 7.75-1.83zm-44.22 10.53c.66 9.61-8.52 8.69-13.48 12.81l-1.33 1.83c-.47-.45-.46 0-.46 0l.47.46c.45-.46-.01-.46 1.35-.91 1.33-2.29 8.63-3.66 12.21-7.78 1.79-1.84 1.33-2.29 2.67-3.67 2.33 1.83 3.76 4.12 6.55 6.41 3.72 2.29 8.81 4.58 12.96 5.95.93.46 1.84.46 2.31.92l1.38.46c2.76.45 5.98.91 8.76 2.28.93.46.46 0 .93.46-1.82.92-4.07 2.75-5.88 3.66-2.27 1.38-4.09 1.83-6.35 3.21-1.81.91-2.24 2.29-5.41 4.12l-13.16 5.95-20.46 7.78c-11.84 3.66-34.89-3.2-46.91-8.24l-12.51-6.41c-.04-1.83-.49-1.37.87-2.29-4.15-.91-10.15-3.2-13.86-5.03.43-1.37-.47-.92 1.81-1.37l7.29-1.84c3.19-.91 5.94-.91 9.11-2.74 2.71-1.83 4.97-3.21 7.22-5.04 4.96-3.66 3.17-1.83 6.3-5.49l9.82 9.15c.92.46.46 0 1.38.46-2.84-4.12-8.87-7.78-10.36-13.27-1.02-5.04-.15-6.87 3.01-9.16.44-.91.9-.91 1.81-1.37 1.79-1.83 2.68-3.2 6.38-1.37 1.4.91 6.07 5.03 7 5.95.95 1.37 3.35 6.86 3.84 8.24-.03-1.38-.94-1.38-1.51-6.41-1.23-14.65-4.81-10.99-7.7-17.39 1.33-2.29 3.13-3.67 5.85-5.04 4.98-2.75 13.7-2.29 17.87 0 2.32 1.37 4.19 3.2 5.16 5.49-1.31 3.21-4.04 4.12-5.32 8.7-1.73 4.58-.3 7.32-1.58 11.9 5.19-14.65 18.43-16.94 21.97-1.37zm-73.94-29.3 2.32 1.38c3.22.45 7.36 1.37 8.8 4.12-6.31 5.03-15 5.95-22.36 4.57-13.34-2.29-8.79-25.63 0-21.51 2.32 1.37 6.57 7.32 9.84 10.07.94.92.47.46 1.4 1.37zm80.29 4.58c2.24-2.29 5.9-2.75 8.61-4.58 2.25-1.83 4.48-4.57 6.74-6.41 1.79-1.83 4.46-5.49 8.14-5.03 5.51.92 12.77 18.77-4.57 22.43-5.47 1.37-16.56-3.21-18.92-6.41z" fill="#270318"/><path d="m2626.49 12559.9c-3.58 4.12-5.75 9.61-8.42 13.27-.44.92-.9.92-1.8 1.83l-7.09 11.44c-1.32 2.29-4.04 3.67-5.76 9.16-.87 2.29-11.11 16.02-12 17.39-1.8 1.83-1.79 2.29-2.65 4.58-1.79 2.29-5.36 6.87-7.56 10.98-.45.46-1.33 2.29-1.36.92-1.8 1.37-.9.46-1.78 2.29-.89 1.37-.9.91-1.79 1.83-1.35 1.37-2.22 3.66-1.26 5.49 1.82-.46 5.8-7.32 6.69-8.69 2.18-5.04 7.08-11.91 10.18-16.94.9-.46 1.35-.92 1.79-1.83.88-1.83 1.77-3.21 3.11-4.58.44-.91.89-1.37 1.79-1.83l6.7-8.24c4.03-4.58 8.03-10.53 12.52-14.65l14.79-15.56c12.15-10.53 16.67-13.73 31.61-21.97 4.53-2.75 12.65-8.7 15.01-5.49 2.82 3.2 5.75 11.9 6.76 16.48 1 3.66 1.07 6.86 1.14 10.52l.53 3.21c2.75 0 .48.91 3.53-6.41 7.43-16.94 14.41-33.41 24.61-49.43l13.29-21.52c5.33-8.24 10.67-15.56 16.94-22.43-.5-1.83-4.26-6.4-5.68-8.69l-21.07-21.06-16.08 19.68c-1.34 1.38-1.78 2.29-3.13 3.67l-9.84 11.44c-4.01 5.49-10.3 10.98-13.42 15.1l-8.05 9.62c-1.33 1.83-.46 0-1.32 2.28 2.28-.45 3.18-.91 5.48-.91l-5.79 8.24c-4.43 6.86-7.12 9.61-11.57 16.02-5.79 7.78-8.84 15.56-16.9 24.26l-8.05 9.15c-.91.46-.9.92-1.81 1.38-1.34 1.37-1.78 2.28-3.59 3.2.43-.92.41-1.83 1.3-3.2z" fill="#4c303d"/><path d="m2339.66 12474.3c-.9.46-.46-.46-.89.92.01.45.47.91.47.91h-.45c-.45.46-.47-.46-.44.92.47.45 1.83 0 .01.45h.46c.02 1.38.01.92.94 1.38-.49-1.38-.01-.46-.49-1.38 2.77.92 11.23 10.99 13.58 13.74 8.5 11.9 16.04 21.51 23.64 34.33 2.86 5.03 23.79 41.19 24.82 46.68.04 1.84-.93-.45.48.92.47.92 2.85 5.03 3.34 6.41-.22-10.53-2.24-19.23.3-29.3 3.39-12.81 6.18-10.98 16.82-5.95 7.4 3.21 13.91 7.33 20.4 10.99 3.71 2.29 10.67 6.41 13.95 9.61 1.85.92 2.79 1.83 4.64 2.75 7.46 5.95 7.49 7.32 10.28 9.61 3.74 3.2 9.85 10.53 13.13 14.19 5.65 6.86 12.22 14.19 17.42 21.97l5.64 6.41c.95 1.37.48.91 1.42 2.29 1.44 2.74 1.89 2.74 3.31 4.57 2.36 3.21 1.9 3.21 5.17 6.41l1.88 1.83c-.51-2.29-5.72-10.07-7.14-12.36-7.1-10.52-11.32-15.1-18.85-24.71l-8.47-10.53c-1.89-2.29-3.76-4.12-6.58-7.78l-12.27-16.48c-.95-1.83-2.36-3.2-3.78-5.49-1.41-1.83-2.82-3.21-4.24-5.5-1.42-2.28-1.02-5.03-2.89-6.4-.89.91 1.38 0-.89.91-.48-.91-4.79-9.61-6.18-10.53.95 1.83 2.84 4.58 3.34 6.41l.52 2.75c-.01-.46-.01-.46-.01-.46-.46 0-.46 0-.46 0l-8.9-9.15c-1.4-1.38-1.87-1.83-3.27-2.75-6.09-6.41-12.16-11.9-17.8-18.31l-51.16-57.22-9.92-14.18c-4 5.95-18.68 26.54-20.85 32.49-.47-.91-.89.92-.03-1.37z" fill="#4c303d"/><path d="m2558.08 12510c.42-1.37.43-.91.86-2.29 3.09-5.95 3.84-13.73 5.62-16.02.56 4.58-1.6 10.99-4.26 15.11.01.46-.44.91-.88 1.83zm-44.89-20.59c.47.45.01.45.02.91.47.46.47.46.49 1.37.48.92.95 1.84 1.44 3.21 1.01 4.58 2 7.78 3.93 12.36.95 1.83 2.36 3.2 2.85 5.03-2.3-.46-3.25-2.29-4.22-4.58-3.29-4.11-9-14.18-5.43-18.76.92.46-.01-.46.92.46zm42.87 55.38-.03-1.37c-.01-.92 2.08-10.07 2.48-12.82.79-5.95.31-7.32 3.43-11.44 2.21-3.66 2.6-6.87 4.34-10.99 3.05-7.78 3.28-18.31-.55-26.09-2.38-4.12-4.69-5.03-10.61-3.66-8.65 2.75-13.61 6.87-17.14 13.27-3.23-1.37-3.37-7.78-14.91-11.9-9.7-3.66-13.3-.45-15.88 7.33-2.58 8.24-.6 15.1 2.29 21.51 1.44 3.2 2.91 7.78 4.32 9.61.97 2.29 3.69.92 4.76 8.24 1.83 0 .91-.46 2.29 0 .58 5.49 3.46 11.9 4.01 16.02l.44-.46c0-.45 0-.45 0-.45.43-.92 2.27-.92 3.19-.46l1.39.46c-.06-2.75-.09-4.12 4.06-2.75 2.31.92 2.81 2.75 4.2 3.66-1.02-5.03-.05-24.26-.19-30.67 1.94 5.04 1.86 22.89 2.01 29.76 3.18-1.38 7.19-6.41 9.61-.46.91-.46 2.7-2.29 4.57-.46 1.41 1.37.51 2.29 1.92 4.12z" fill="#f60000"/><path d="m2547.33 12392.37s-.44.45-.44.45l-.9.92c-2.22 3.66-3.57 4.58-6.72 7.32-7.21 5.5-7.54 11.91-18.78.46-1.86-1.37-2.8-2.74-3.76-4.58l-3.75-4.12-9.82-9.15c-3.13 3.66-1.34 1.83-6.3 5.49-2.25 1.83-4.51 3.21-7.22 5.04-3.17 1.83-5.92 1.83-9.11 2.74l-7.29 1.84c-2.28.45-1.38 0-1.81 1.37 3.71 1.83 9.71 4.12 13.86 5.03-1.36.92-.91.46-.87 2.29l12.51 6.41c12.02 5.04 35.07 11.9 46.91 8.24l20.46-7.78 13.16-5.95c3.17-1.83 3.6-3.21 5.41-4.12 2.26-1.38 4.08-1.83 6.35-3.21 1.81-.91 4.06-2.74 5.88-3.66-.47-.46 0 0-.93-.46-2.78-1.37-6-1.83-8.76-2.28l-1.38-.46c-.47-.46-1.38-.46-2.31-.92-4.15-1.37-9.24-3.66-12.96-5.95-2.79-2.29-4.22-4.58-6.55-6.41-1.34 1.38-.88 1.83-2.67 3.67-3.58 4.12-10.88 5.49-12.21 7.78z" fill="#dfe2e1"/><path d="m2645.73 12516.41 4.9-6.86c20.48-27.93 8.81-16.48 33.92-42.57l10.29-11.9c4.91-5.95 9.82-11.9 13.79-19.23l10.53-21.97-1.32 2.29c-3.22-.46-5.06-.92-8.71 0-3.63 1.37-4.1.91-7.34-.46-5.99-1.83-26.49-17.39-35.74-21.51-.41 2.29-1.74 4.12-2.59 7.32 6.97 4.58 10.21 6.41 17.19 11.45 2.8 2.28 12.67 13.73 12.26 16.02-.86 2.74-8.93 10.98-11.18 13.27-4.91 5.95-22.56 37.99-27.45 45.31-12.4 20.14-21.54 43.03-33.01 63.63-5.74 10.53-11.49 20.14-17.68 30.67-7.51 13.27-11.52 18.76-18.62 29.75-5.75 9.61-7.6 8.7-11.17 13.27-2.67 3.66-6.63 11.45-7.91 16.02-.81 5.04-11.77 28.38-13 35.25.86-2.75 6.14-13.28 7.88-17.4 4.39-9.15 8.3-19.22 13.61-27.92 2.19-5.03 2.61-6.86 6.2-10.52 2.24-2.29 5.35-6.87 7.12-9.62 3.5-7.78 8.42-13.73 12.39-21.05 4.43-6.87 8.41-13.73 12.38-21.06 3.52-6.86 7.94-14.64 11.46-21.51l23.82-43.48c-.42 1.83-1.28 4.57-2.14 6.86-1.3 3.66-2.63 5.95-1.69 6.87.45-.46.44-.92.89-1.38.9-.45.43-.91.92.46z" fill="#820024"/><path d="m2374.94 12452.33.47.46 13.57 13.27c2.34 2.29 4.67 4.12 7.01 6.41 9.35 9.15 18.69 17.39 26.7 27.46 1.9 3.21 3.32 5.5 5.67 8.24l-2.82-3.2 2.37 3.66s0 0 .47.46.47.46.47.46c-.01-.46-.01-.46-.49-1.38 2.38 4.12 7.09 10.07 9.91 13.73l9.93 14.19c1.39.92 5.7 9.62 6.18 10.53 2.27-.91 0 0 .89-.91-.52-3.21-3.36-7.33-4.8-10.53-6.19-10.99-3.37-7.78-11.41-19.23-7.08-10.07-24.65-38.9-29.43-48.52-7.64-14.18-27.65-28.83-30.01-32.04-4.28-7.32 20-29.29 20.71-38.9-5.45 2.29-13.54 9.61-18.5 13.27-9.46 7.78-8.07 8.7-24.11 8.24l.01.46c.04 2.29 10.04 20.14 11.98 25.17 1.92 4.12 2.87 5.5 5.23 8.7zm-3.77-5.04-.48-.91c.02.91.02.91.48.91z" fill="#820024"/><path d="m2629.52 12421.66c3.08-5.95 9.02-6.86 14.43-10.98 2.72-1.38 11.24-10.07 12.11-12.36-.39 3.2-8.92 11.44-11.18 13.27-4.5 3.66-10.39 6.87-15.36 10.07zm-10.75 11.9h2.75c.39-3.2 1.24-6.41 2.56-9.15.47.46.9-.46.06 2.74.02 1.38-.79 5.96-.31 7.33.48.91 2.76.46 4.14.46l18.95-13.74c5.42-3.66 4.07-2.74 7.14-9.15l9.58-23.34c3.01-9.62 6.91-20.14 11.3-29.3 1.32-2.29 2.66-4.12 3.08-5.95-11.9.92-15.86 8.24-21.21 15.56-3.14 3.21-6.29 5.95-8.5 9.62-1.79 2.28-4.34 11.44-2.45 14.18-.94-.91.46 0-1.38-.45-1.74 4.57-3.39 13.27-6.07 16.48-1.8 1.37-11.74 8.23-14.48 8.69.41-2.29 2.18-5.49 3.05-7.32 3.56-5.04 4.95-4.58 7.04-13.73.85-3.21.33-6.41 1.18-9.62 0 0 0 0-.46 0 .01.46.01.46.01.46l-5.3 9.61c-3.07 6.41-7.93 15.11-9.61 21.98-.83 4.12-2.09 9.61-1.99 14.19z" fill="#dfe2e1"/><path d="m2410.51 12401.06c-.94-.91 1.4 1.38 0 0zm34.18 34.33c-.98-2.74-4.75-7.78-6.18-10.52-3.33-5.5-3.77-5.04-9.78-7.33-6.02-3.2-14.43-10.53-17.75-16.02 5.13 4.12 7.96 8.24 14.46 11.9 1.85.92 4.62 1.83 5.56 3.21 4.65 3.2 9.82 9.15 12.66 13.73 1.45 3.2 1 3.66 5.57 3.2-.61-7.32-4.5-17.85-6.93-24.26-1.43-2.74-8.18-18.31-11.42-20.14-1.24 6.41-1.64 9.16 2.64 16.48 1.41 1.83 5.13 4.12 8.05 12.36-2.29 0-13.44-7.32-15.31-8.7-4.68-5.03-5.8-14.19-8.11-15.1h-.45c-.46 0-.46 0-.46 0 .83-4.12 2.71-1.83 1.23-6.87-.55-4.12.35-5.03-2-7.78-12.64-12.82-14.21-21.97-30.8-26.09l5.75 11.9c7.23 16.48 14.9 32.5 21.66 48.98 2.41 5.49 2.38 4.12 8.89 8.7 1.87 1.37 3.72 2.28 5.12 3.66 4.19 3.2 11.66 9.61 17.6 8.69z" fill="#dfe2e1"/><path d="m2484.31 12250.93c14.71 2.29 21.62 4.12 34.57 9.61 16.2 7.78 6.06 5.04 29.7-4.12 7.73-2.74 22.33-5.49 23.24-5.95-.1-4.58-14.81-6.86-18.94-7.32-11.96-1.83-38.08-1.83-49.95 0-5.01 1.37-17.8 3.2-18.62 7.78z" fill="#4c303d"/><path d="m2504 12380.01 5.51.46c.38-3.67.84-3.67-2.39-4.58 1.82-.46 1.81-.92 3.66-.46 10.11 1.37 14.11 17.39 21.89 16.94 4.58 0 9.01-7.33 10.77-10.53 1.79-2.29 3.14-3.2 5.85-5.04 3.16-2.28 4.56-1.37 7.78-.45h-1.83c.05 2.29-.84 3.66 1.02 4.57l-.03-1.37c1.85.92 3.19-.46 3.65-.46.45-.45-.01-.45.9-.91-3.54-15.57-16.78-13.28-21.97 1.37 1.28-4.58-.15-7.32 1.58-11.9 1.28-4.58 4.01-5.49 5.32-8.7-.97-2.29-2.84-4.12-5.16-5.49-4.17-2.29-12.89-2.75-17.87 0-2.72 1.37-4.52 2.75-5.85 5.04 2.89 6.4 6.47 2.74 7.7 17.39.57 5.03 1.48 5.03 1.51 6.41-.49-1.38-2.89-6.87-3.84-8.24-.93-.92-5.6-5.04-7-5.95-3.7-1.83-4.59-.46-6.38 1.37-.91.46-1.37.46-1.81 1.37-3.16 2.29-4.03 4.12-3.01 9.16z" fill="#dfe2e1"/><path d="m2472.01 12405.64c1.41 1.83 6.99 5.49 8.86 7.33 2.33 1.83 6.08 5.95 9.77 6.86l2.23-2.75c2.3.46 4.68 4.58 5.65 6.87.97 2.75 1.54 7.78 2.95 9.61 1.29-4.12 1.66-8.24 5.76-9.15 1.4.91 2.32 1.37 2.82 3.2.95 1.83.52 2.75 1.92 4.12 3.17-1.83 5.34-7.32 9.21 2.29 3.19-.91 3.15-2.75 7.28-2.29 2.76.46 4.63 1.83 6.03 3.21 4.99-2.29 6.24-8.24 15.11-.46-.08-3.66 2.12-8.24 3.92-9.61 2.27-.92 3.23.91 4.16 1.83.46 0 1.86.91 1.86.91l1.43 2.75c.83-4.12 2.59-7.32 6.71-7.78.93.91 1.42 2.29 2.36 3.2.85-2.74 2.56-8.7 4.82-10.07 1.85.46 1.4.92 3.25 1.83l1.81-.91h.46l2.24-2.29c2.7-2.75 9.43-9.16 12.59-11.45-2.75 0-24.06 10.53-28.15 12.36-5.89 2.75-24.53 10.07-31.4 10.07-14.2 0-35.46-8.24-48.4-13.73-4.16-1.37-11.12-5.49-15.25-5.95z" fill="#f60000"/><path d="m2719.16 12413.88-10.53 21.97c-3.97 7.33-8.88 13.28-13.79 19.23l-10.29 11.9c-25.11 26.09-13.44 14.64-33.92 42.57l-4.9 6.86c-.82 4.58-5.72 10.99-7.48 14.65-2.64 5.03-4.83 9.61-7.47 15.1-3.52 6.87-7.91 15.57-11.9 21.97-6.68 9.16-14.64 22.89-21.74 33.88-3.57 4.57-15.57 21.97-17.29 27.46.03 1.37.91-.46 1.36-.92 2.2-4.11 5.77-8.69 7.56-10.98.86-2.29.85-2.75 2.65-4.58.89-1.37 11.13-15.1 12-17.39 1.72-5.49 4.44-6.87 5.76-9.16l7.09-11.44c.9-.91 1.36-.91 1.8-1.83 2.67-3.66 4.84-9.15 8.42-13.27.87-2.29 2.22-3.67 3.54-5.95 3.56-5.04 6.62-11.91 10.17-17.4 4.88-7.78 12.06-14.65 14.19-22.43l-3.68-.45c.44-.92 1.76-3.67 2.66-4.58.43-1.38 1.76-3.21 2.66-4.12l10.26-13.28c1.32-2.28 3.09-5.49 4.42-7.32 4.47-5.49 13.95-12.36 17.03-18.31.87-1.83 4.02-4.58 5.83-5.95 4.91-5.95 5.8-7.32 10.26-13.27 1.77-2.75 3.11-4.58 4.89-6.87 4.43-7.32 15.83-31.58 17.92-40.74 1.3-3.66 2.64-5.49 3.5-7.78l-4.15-1.37c-2.74.46-.77 6.86-2.46 13.73-1.28 4.12-3.06 6.87-4.37 10.07z" fill="#f60000"/><path d="m2619.17 12300.82c-.45.46.01.46-.46 0l-.93-.46c.47.46.48.92.95 1.38-3.17 1.83-1.32 2.74-1.31 3.2l3.82 7.32c.04 1.84-.4 2.75.55 4.12l1.35-.91c3.6-3.21 9.08-4.12 11.78-6.41.33-5.95-1.14-10.53-2.62-15.56-2.45-7.33-2-7.78-6.22-12.36-2.82-3.2-6.55-6.41-9.36-9.16-2.32-1.37-9.3-6.4-11.61-7.32.96 1.83 1.42 2.29 2.84 4.12l5.16 5.95c3.27 2.75 2.34 2.29 3.76 4.12 2.34 2.29 5.13 4.12 4.32 9.16-.38 3.66-1.7 6.4-3.01 9.61l2.23-2.75c.04 1.83-.84 3.21-2.2 4.12.95 1.37 0 0 1.85.92-2.27.91 0 0-.89.91z" fill="#4c303d"/><path d="m2377.35 12349.8c24.75.46 30.9 9.61 41.77 25.17l8.03 11.45c.95 1.37.48.91 1.87 1.37-1.5-5.49-2.52-10.53-4.47-16.02-2.46-8.24-2.47-8.7-2.21-17.85-17.1-6.87-20.76-6.87-39.05-5.04-3.67 0-3.67 0-5.49.46z" fill="#dfe2e1"/><path d="m2640.92 12354.38c.14 6.4.25 11.9-1 17.39-1.27 5.03-3 10.07-2.87 16.02.45-.46 0 0 .44-.92l3.07-6.4c.89-1.38 1.79-1.83 2.69-2.75 12.48-16.48 11.33-27.46 44.32-27.46-.47-.46 0 0-.92-.46l-5.05-.46c-1.85-.46-4.14-.46-5.98-.91-11.94-1.38-25.22-.92-34.7 5.95z" fill="#dfe2e1"/><path d="m2509.51 12380.47c-.44.91-.9.91-1.81 1.37 1.44 2.75 2.84 4.12 6.53 5.03 3.67.46 5.08 2.29 7.41 4.12 3.72 2.29 3.7 1.38 5.63 5.95 3.86 9.16 7.89 4.58 11.9-.45l9.01-7.33c1.36-.91 2.72-1.37 4.55-1.83 1.35-.91 4.07-2.29 4.49-4.12.86-2.74-.04-1.83-.96-2.29-1.86-.91-.97-2.28-1.02-4.57h1.83c-3.22-.92-4.62-1.83-7.78.45-2.71 1.84-4.06 2.75-5.85 5.04-1.76 3.2-6.19 10.53-10.77 10.53-7.78.45-11.78-15.57-21.89-16.94-1.85-.46-1.84 0-3.66.46 3.23.91 2.77.91 2.39 4.58z" fill="#270318"/><path d="m2439.43 12317.3-.08-4.12c.39-3.2-.04-1.83 1.71-5.49l3.1-5.5c.87-1.83-.05-2.28-.52-2.74l.05 2.29c.87-1.83.45-.46-.03-1.38-1.41-1.37-.9.92-3.32-5.03-.98-3.21-1.94-5.04-2.46-8.24-1.01-4.12.82-4.58 2.13-7.32 5.8-7.79 3.13-3.67 2.65-5.04 1.82-.46.46.46 2.28-.46l-1.39-.45c1.36-.92.89-1.38 2.69-2.75-.93-.92 0 0-2.26 1.37-14.92 9.61-12.96 15.57-16.77 30.21-.1-4.57.74-8.24-.27-12.81-1.26 5.49-1.08 13.73-1.42 19.68l6.95 3.66c2.31.92 4.17 1.83 6.5 3.66.01.46.46.46.46.46z" fill="#4c303d"/><path d="m2580.5 12530.14c-1.28 4.58-10.01 25.18-12.67 29.3-4.42 7.78-17.14 12.81-29.97 12.81-8.71 0-18.4-3.2-24.47-8.69-2.33-1.83-3.72-2.75-5.61-5.04-5.17-6.41-8.62-17.85-12.46-26.09-.01-.46-.49-1.37-.5-1.83-1.41-1.83-.48-.91-1.4-1.37-.39 3.2 3.94 13.27 5.4 16.93 5.28 11.45 11.49 23.35 23.97 28.38 1.84.46 2.77.92 4.15 1.38 4.15 1.37 16.51.91 21.55.45.45 0 2.28-.45 2.74-.45l5.9-2.29c11.36-4.58 15.24-16.02 18.69-26.55z" fill="#270318"/><path d="m2506.66 12526.94c-3.18 1.37-2.26 1.83-.8 5.49l4.85 12.82c.48.91 1.41 1.83 1.44 3.2 2.46 7.78 1.96 5.95 10.78 11.45 7.88 4.12 22.96 2.28 31.17.45 10.95-2.29 10.38-7.78 12.08-13.73 2.12-8.24 5.22-13.27 5.07-20.6-1.36.92-4.85 9.16-5.73 10.99-1.73 4.58-2.58 7.78-4.8 11.44-5.29 9.61-9.83 11.45-20.82 11.9-7.32.46-9.17 0-12.91-3.66-4.2-3.66-5.11-3.2-7.97-8.7-1.42-1.83-2.35-2.74-3.32-5.03-.95-1.83-1.45-3.66-2.42-5.95l-4.74-7.78c-.01-.46-.48-.92-.95-1.38-.94-1.37-.01-.45-.93-.91z" fill="#f60000"/><path d="m2560.78 12378.18c-.91.46-.45.46-.9.91-.46 0-1.8 1.38-3.65.46l.03 1.37c.92.46 1.82-.45.96 2.29-.42 1.83-3.14 3.21-4.49 4.12-1.83.46-3.19.92-4.55 1.83l-9.01 7.33c-4.01 5.03-8.04 9.61-11.9.45-1.93-4.57-1.91-3.66-5.63-5.95-2.33-1.83-3.74-3.66-7.41-4.12-3.69-.91-5.09-2.28-6.53-5.03.91-.46 1.37-.46 1.81-1.37l-5.51-.46c1.49 5.49 7.52 9.15 10.36 13.27-.92-.46-.46 0-1.38-.46l3.75 4.12c.96 1.84 1.9 3.21 3.76 4.58 11.24 11.45 11.57 5.04 18.78-.46 3.15-2.74 4.5-3.66 6.72-7.32l.9-.92s.44-.45.44-.45c-1.36.45-.9.45-1.35.91l-.47-.46s-.01-.45.46 0l1.33-1.83c4.96-4.12 14.14-3.2 13.48-12.81z" fill="#a6908a"/><path d="m2535.58 12443.18c.56 4.57-.15 14.64 5.36 15.1 11.93.92 10.95-23.8 3.58-25.63-5.06-.92-9.96 5.49-8.94 10.53z" fill="#dfe2e1"/><g fill="#f60000"><path d="m2574.93 12353.92c-1.03-5.49 9-7.78 9.13-1.38-.4 2.75-1.26 5.04-4.01 5.04-2.29 0-5.07-1.37-5.12-3.66zm15.54-1.83c-2.36-3.21-2.94-9.16 1.66-8.24 3.22.91 3.82 7.32-1.66 8.24zm-23.34 1.37c2.36 3.2 13.45 7.78 18.92 6.41 17.34-3.66 10.08-21.51 4.57-22.43-3.68-.46-6.35 3.2-8.14 5.03-2.26 1.84-4.49 4.58-6.74 6.41-2.71 1.83-6.37 2.29-8.61 4.58z"/><path d="m2473.2 12353.92c-3.7-1.83-3.88-10.07-.21-10.07 1.83 0 3.27 2.74 2.86 5.03-.4 2.75-.92 0-2.65 5.04zm15.96-3.66c1.43 2.28 1.9 3.2.12 5.49-1.35 1.37-4.08 2.29-6.4.91-2.78-1.83-4.32-9.61 3.96-7.78-.93-.91-.46-.45-1.4-1.37-3.27-2.75-7.52-8.7-9.84-10.07-8.79-4.12-13.34 19.22 0 21.51 7.36 1.38 16.05.46 22.36-4.57-1.44-2.75-5.58-3.67-8.8-4.12z"/><path d="m2428.85 12509.55s-.47-.46-.47-.46c-.47-.46-.47-.46-.47-.46l-2.37-3.66-5.18-6.87c-2.82-3.2-9.39-10.53-12.66-13.27-5.6-5.04-31.32-29.3-32.29-32.04l-.47-.46c-1.39-.92-2.82-3.2-3.77-5.04-.46 0-.46 0-.48-.91-4.78-9.16-10.03-19.23-14.81-28.38-4.28-7.32-9.45-13.73-10.54-21.97-.06-2.75.38-3.66-1.91-3.66-1.85-.46-4.13 0-1.36.91.13 5.95.58 5.95 2.97 10.53 1.45 3.2 2.89 6.41 4.77 8.7 2.87 5.49 6.64 10.53 9.97 16.48 2.88 5.95 10.52 20.59 14.74 25.17l32.78 33.41c8.9 9.16 10.79 11.45 18.78 21.06 1.9 3.2 3.33 5.95 6.12 7.78-.5-1.83-.01-.46-.51-2.29z"/></g><path d="m2521.93 12447.75c.57 5.04 2.53 11.45 8.92 10.07 4.57-.46 4.38-9.61 4.28-14.19.15-14.64-15.4-13.27-13.2 4.12z" fill="#dfe2e1"/><path d="m2438.89 12334.69 1.28-4.12c-.05-2.74-.98-3.2-1.44-3.2 0 0 0 0-.01-.46l1.37-.46c-.5-1.83-.07-3.2-.11-5.03 0 0 .89-1.37-1.82.46-1.46-3.66-2.38-4.12-5.62-5.5-3.24-1.83-5.12-3.66-6.97-4.57.07 3.2 1.08 7.78.66 9.61-.38 3.66-.58 15.56 1.77 18.31 1.39.91 4.2 3.66 6.05 4.58-.1-4.58-.63-8.24-1.64-12.36l-1-4.12s2.41 5.49 2.89 6.41c1.41 1.83 2.37 4.12 3.79 5.95-.53-3.21.37-4.12-.6-6.41-2.87-5.95-4.65-3.21-7.05-8.7-1.45-3.2-2.36-3.2-3.32-5.03l10.73 9.15c1.89 2.29.51 2.29 1.04 5.49zm-.78 6.41c.9-.46 1.35-.91.87-1.83-.45 0-.46-.46-.89.92 0 0 .01.45.02.91z" fill="#4c303d"/><path d="m2534.68 12638.62h2.3c.92.46 1.85.92 2.76.92 5.08 1.83 12.88 2.29 18.38 2.29.87-2.29.81-5.04 1.22-7.32.35-5.04 2.16-6.41 1.22-7.33-.45.46-.45.46-.45.46-8.11 6.41-16.38 5.49-28.34 3.2.5 1.83 1.97 6.41 2.91 7.78z" fill="#75686b"/><g fill="#dfe2e1"><path d="m2554.13 12453.7c5.49-.45 6.73-6.86 6.14-13.27-.06-2.75-.59-5.95-1.1-8.7-.98-2.74-1.93-4.58-5.14-4.58-4 5.96-3.68 21.06.1 26.55z"/><path d="m2497.73 12451.87.45-.46c.45-.45 0 0 .44-.91 4.38-9.61-1.07-28.84-4.78-31.13-2.73.92-2.24 2.75-1.66 8.24.51 2.75.58 5.95 1.1 8.7s.58 5.95 1.55 8.24c.53 3.66 1.48 5.03 2.9 7.32z"/><path d="m2506.36 12426.7c-5.33 7.78-4.64 18.76 1.01 25.63 3.66 0 4.1-.92 4.02-4.58-.06-2.74-.11-5.49-.63-8.24-.1-4.57-.25-11.9-4.4-12.81z"/><path d="m2572.86 12450.96c2.19-5.04 3.49-8.24 4.27-14.65.39-3.2.34-5.95.27-9.16-.09-4.11.31-6.86-1.11-9.15-2.29 0-2.7 2.29-4 5.95-.39 3.2-.78 6.41-1.18 9.16-.79 5.95-1.2 8.23.29 13.73.01.45.5 1.83.51 2.29z"/><path d="m2518.87 12454.62c4.41-8.24 2.28-21.97-1.89-24.26-5.92 1.83-6.4 22.43 1.89 24.26z"/><path d="m2564.62 12451.41c4.56-1.37 4.22-17.39 3.67-21.51-.56-5.03-.13-6.41-2.4-5.03-2.26 1.37-4.38 9.15-4.32 12.35.05 2.29.58 5.5.64 8.24.04 2.29.56 5.04 2.41 5.95z"/><path d="m2547.26 12540.21c-3.66.46-4.98 2.75-5.35 6.87-.42 1.83-.38 3.66-.33 5.95.02.92.04 2.29.06 3.2l.96 1.83 6.86-.45c.41-2.29-1.21-14.19-2.2-17.4z"/><path d="m2532.61 12540.67c-.84 3.66-.27 9.16-.18 13.28-.39 3.2-1.29 4.11 1.47 4.57 1.84.46 4.59.46 5.96 0 .41-2.29-.62-7.78-1.15-10.98-.51-2.29-2.45-7.33-6.1-6.87z"/></g><path d="m2622.47 12326.91c1.84.46.45-.46 1.38.46-.89.92-1.78 2.29-1.74 4.12l.99 3.66c.49 1.37-.46 0 .94.92-.51-2.29-.95-1.38-.53-3.21.41-2.29-.01-.46-.01-.46l.01.46c-.06-2.74.85-3.2 1.74-4.57-.89 1.37-1.37.45-1.37.45l.9-.91c.89-1.38.87-2.29 2.67-3.66 1.35-1.38.9-.92 2.71-1.84-.41 2.29.02.92-.87 2.29-.44.92-.9.46-.9.46-.46 0-1.81 1.37-1.81 1.37s-.01-.45 1.36-.91c.06 2.75-1.36.91-.39 3.2.89-1.37 3.14-3.2 4.02-5.03.89-.92.87-1.83 1.77-2.75 2.67-3.66 2.32 1.37 2.08-10.07-2.28.46-4.98 3.21-6.32 4.58-1.79 1.83-4.52 2.75-5.87 4.12 1.36-.92 2.7-2.29 4.53-2.29-1.3 3.2-4.97 3.2-4.92 5.49l.5 1.83 1.76-3.2c.89-1.37.88-1.83 2.22-3.2-.37 4.11-1.23 6.4-3.94 8.23zm-.57-5.03c-.44.91-.02-.92.04 1.83-.39 3.2-.51-2.75.02.91l.02.92.43-1.37c-.02-.92-.03-1.38-.51-2.29z" fill="#4c303d"/><path d="m2739.39 12395.11-.47-.45s-.47-.46-.47-.46 0 0-.01-.46c-5.65-7.32-25.6-18.77-33.87-19.68 1.87 1.37 6.05 4.12 8.37 5.49l24.59 14.65s0 0 .47.46l.93.45z" fill="#f60000"/><path d="m2562.8 12538.38c2.6-7.32 7.09-11.44 6.54-16.02-9.29-5.49-9.07 4.58-8.49 10.53l1.46 4.12c.5 1.83.02.91.49 1.37z" fill="#dfe2e1"/><path d="m2433.07 12363.07c4.44-6.86 4.72-15.1-5.01-20.14.99 3.21.18 8.24 1.16 11.45.99 3.2 3.81 6.86 3.85 8.69z" fill="#4c303d"/><path d="m2507.97 12524.19c1 3.66 5.27 10.53 7.18 14.19 1.76-3.2 2.89-14.64-.81-16.48-2.78-1.37-5.03.46-6.37 2.29z" fill="#dfe2e1"/><path d="m2628.27 12341.1s1.81-.91.46 0-.9.92-.46 0zm1.24-6.41c.03 1.38.03 1.38-.87 2.29.41-2.29.42-1.83.87-2.29zm-2.65 5.04 1.78-2.75-.8 5.49c8.18-3.2 7.01-15.1 6.43-21.05-1.22 7.32-8.57 6.41-7.41 18.31z" fill="#4c303d"/><path d="m2335.69 12395.11c1.82-.91 6.8-3.66 7.68-5.49 4.92-5.49.88-1.37 6.73-6.41 4.05-3.66 11.3-7.78 15.35-10.98-7.3 1.37-19.02 10.52-23.96 15.1-.89 1.38-1.79 2.29-3.14 3.21-2.24 2.74-2.26 1.83-2.66 4.57z" fill="#f60000"/><path d="m2564.71 12585.07c-18.04-7.78-30.85-6.87-49.03 0 14.59-3.2 23.26-5.03 37.53-1.83 2.3.46 9.67 2.29 11.5 1.83z" fill="#270318"/><g fill="#dfe2e1"><path d="m2489.16 12350.26-2.32-1.38c-8.28-1.83-6.74 5.95-3.96 7.78 2.32 1.38 5.05.46 6.4-.91 1.78-2.29 1.31-3.21-.12-5.49z"/><path d="m2574.93 12353.92c.05 2.29 2.83 3.66 5.12 3.66 2.75 0 3.61-2.29 4.01-5.04-.13-6.4-10.16-4.11-9.13 1.38z"/><path d="m2519.09 12529.69c-.46 0-.45.45-.45.45l-.42 1.83c-.87 2.29-1.72 5.5-1.2 8.24.06 2.75 2.9 7.33 5.22 8.7 1.25-5.95-1.67-14.19-3.17-20.14z"/><path d="m2436.13 12442.26c.97 2.75 1.15 10.99 2.14 14.65 0 0 .48.91.48.91.48.92.48.92.49 1.38.83-3.67 3.35-14.65 3.29-17.4h-4.12c-.91.46.46 0-.91.46-.46 0-1.37 0-1.37 0z"/><path d="m2521.92 12512.29c-.49-1.83-1.9-3.2-2.85-5.03-1.93-4.58-2.92-7.78-3.93-12.36-.49-1.37-.96-2.29-1.44-3.21-.02-.91-.02-.91-.49-1.37-.01-.46.45-.46-.02-.91-.93-.92 0 0-.92-.46-3.57 4.58 2.14 14.65 5.43 18.76.97 2.29 1.92 4.12 4.22 4.58z"/><path d="m2523.22 12551.66c.95 1.83 4.23 5.03 6.99 5.49-.04-1.83-1.18-12.36-2.6-14.65-2.73.92-1.81 1.38-2.66 4.58-.88 1.37-1.31 2.75-1.73 4.58z"/><path d="m2626.74 12441.8c.07 3.21 1.04 5.95 2.01 8.7.53 3.2 1.06 6.41 2.03 9.15l1.9-18.31-1.38-.45c-.91.45 0 0-.91.45-.45 0-.91 0-1.37 0-1.37.46-.92 0-2.28.46z"/></g><path d="m2440.42 12385.5 11.81 16.48c3.78 5.49 6.66 11.9 10.45 17.39-2.46-7.78-16.28-32.95-22.26-33.87z" fill="#270318"/><path d="m2449.12 12298.53c3.19-.91 6.74-5.95 15.47-5.03 3.22.46 5.06.91 8.3 2.29 1.38.45 2.75 0 3.67.45.92 0 2.76.46 3.69.92-6.09-5.95-18.49-7.32-25.28-3.66-2.26 1.37-4.98 2.74-5.85 5.03z" fill="#6f4c51"/><path d="m2436.13 12442.26h1.37c1.37-.46 0 0 .91-.46l-2.3-.46c.47.46 8.7 0 8.7 0 .43-1.37.43-1.37.39-3.2-2.31-.92-3.23-1.37-5.51-.92-3.66.46.92.46-.91.46 0 0-5.08-1.83-5.42 3.66z" fill="#6f4c51"/><path d="m2552.34 12542.04c-.9.92-.93-.45-1.3 3.67.02.91.04 1.83.07 3.2.05 2.29.56 4.58.6 6.87 3.19-.92 3.63-1.83 4.96-4.12-.03-1.38-4.32-9.16-4.33-9.62z" fill="#dfe2e1"/><path d="m2556.03 12543.42.03 1.37c.5 1.83.98 2.75 1.47 4.12 2.71-1.83 5.33-7.78 2.91-13.73l-.94-1.37c.05 2.28-2.13 7.78-3.47 9.61z" fill="#dfe2e1"/><path d="m2629.52 12421.66c4.97-3.2 10.86-6.41 15.36-10.07 2.26-1.83 10.79-10.07 11.18-13.27-.87 2.29-9.39 10.98-12.11 12.36-5.41 4.12-11.35 5.03-14.43 10.98z" fill="#270318"/><g fill="#dfe2e1"><path d="m2473.2 12353.92c1.73-5.04 2.25-2.29 2.65-5.04.41-2.29-1.03-5.03-2.86-5.03-3.67 0-3.49 8.24.21 10.07z"/><path d="m2590.47 12352.09c5.48-.92 4.88-7.33 1.66-8.24-4.6-.92-4.02 5.03-1.66 8.24z"/><path d="m2506.53 12520.99c1.37 0 2.74-.46 3.65-.92 1.35-.91.89-.91.4-2.74-.52-2.75-1.03-5.04-1.98-6.87-.45.46 0 0-.9.92l-1.3 3.66c-.84 3.2-.84 3.2.13 5.95z"/></g><path d="m2609.9 12296.24c-5.12-4.12-7.87-4.12-15.2-4.12-5.96 0-8.7.46-14.59 3.67 3.65-.92 5.91-2.29 9.57-2.75l-1.36.92c-.9.91-2.72 1.37-3.15 2.74 2.25-1.83 8.18-3.2 12.3-3.2 6.41-.46 7.81.91 12.43 2.74z" fill="#8d6f6c"/><path d="m2504.61 12516.87c1.36-.46.47.46 1.33-2.29l.42-1.37c2.15-6.87-1.13-10.53-.74-13.73-.45.45-.46 0-.9.91 0 0 .01.46-.44.92.01.45.02.91.04 1.83z" fill="#dfe2e1"/><path d="m2628.73 12363.07c2.21-4.12 3.53-6.41 3.88-11.9-1.79 2.29-3.14 3.21-4.48 5.04-2.24 2.29-1.28 4.57.6 6.86z" fill="#4c303d"/><path d="m2626.74 12441.8c1.36-.46.91 0 2.28-.46h1.37c.91-.45 0 0 .91-.45l4.1-.92c-.47-.91-.49-1.83-2.33-2.29-2.32-.91-5.5 0-7.32.92.03 1.37-.43 1.37.52 2.74z" fill="#6f4c51"/><path d="m2618.77 12433.56c.47.46 1.4.92 2.77.92.92 0 .46 0 1.36-.92.51 2.75 1.37 0 1.89 2.75 0 0-1.83 0-2.29 0-3.67 0-.94-.92-1.81 1.37 1.4.92 1.86.92 3.69.92.44-.92 1.33-1.83 1.32-2.29l2.27-1.37c-1.38 0-3.66.45-4.14-.46-.48-1.37.33-5.95.31-7.33.84-3.2.41-2.28-.06-2.74-1.32 2.74-2.17 5.95-2.56 9.15z" fill="#c6b8b8"/><path d="m2567.69 12509.55c-.89 1.37-2.6 7.32-2.56 9.15l4.6.46c-.04-1.83-.07-3.21-.58-5.49l-.98-3.21c-.02-.91-.48-.91-.48-.91z" fill="#dfe2e1"/><path d="m2558.08 12510 1.34-1.37c.44-.92.89-1.37.88-1.83 2.66-4.12 4.82-10.53 4.26-15.11-1.78 2.29-2.53 10.07-5.62 16.02-.43 1.38-.44.92-.86 2.29z" fill="#dfe2e1"/><path d="m2634.68 12362.61-.61-7.32c-1.35 1.37-1.74 4.58-3.04 8.24-.88 1.37-.84 3.2.96 1.83 0 0 2.69-2.75 2.69-2.75z" fill="#4c303d"/><path d="m2654.39 12514.12c.9-.91 1.27-5.03 4.45-6.41-3.64 1.38-2.26 1.84-5 2.29.86-2.74.88-1.83 2.19-5.03-.9.91-2.23 2.74-2.66 4.12-.9.91-2.22 3.66-2.66 4.58z" fill="#702e3a"/><path d="m2605 12367.65c-.01-.46-.46-.46-.46-.46l-.94-.91c5.46-1.83 1.36-.46 5.94-.92-.94-.91-.93-.46-1.86-1.37-1.87-1.38-.5-1.83-.5-1.83.47.45 0 0 .93.91 0 0 .93.46.93.46.47.46.94.92 1.4 1.37.94.92 1.88 1.83 2.81 2.75-.5-1.83-.98-3.2-2.38-4.12-2.82-3.66-2.79-2.29-1.44-3.2-.02-.92-.02-.92-.93-.46-.89.91.01.46-.45 0h-.92s0 0 .01.46l.93.45c.46.46.46.46 1.39.92l1.41 1.83c.48.92 0 0 .49 1.37l-.94-.91c-.93-.92-3.25-2.29-5.09-2.75.49 1.83 1.42 2.29 2.36 3.66-3.2 0-4.58 0-6.37 1.83z" fill="#c6b8b8"/><path d="m2569.47 12507.26c.97 2.29.59 5.95.64 8.24-.01-.46.45 0 .43-.92 0 0 .45-.46.45-.46.4-2.74-.71-11.9-.78-15.1-.42 1.37 0-.46-.42 1.37l-.4 2.75c.03 1.83.04 2.29-.38 3.66 0 0 0 .46.46.46z" fill="#dfe2e1"/></svg>