<svg clip-rule="evenodd" fill-rule="evenodd" height="128.5mm" image-rendering="optimizeQuality" shape-rendering="geometricPrecision" text-rendering="geometricPrecision" viewBox="0 0 5080 12850" width="50.8mm" xmlns="http://www.w3.org/2000/svg"><g fill-rule="nonzero"><g fill="#333"><path d="m2585 546.83c5.6 36.63 19.85 74.95 42.58 114.8s47.49 82.42 74.46 127.86c26.8 45.62 62.24 107.51 106.01 185.69 43.76 78.34 75.98 137.35 96.51 177.2 20.52 40.02 36.3 64.27 46.98 72.92 10.86 8.65 16.97 16.96 18.33 24.93h-147.57c-1.87-9.33 3.56-16.11 16.45-20.01 12.72-4.07 19.17-10.69 19.17-20.18-14.93-38.5-30.7-74.61-47.15-108.19-16.29-33.58-33.93-67.49-52.59-101.75-18.82-34.42-41.73-74.78-68.86-121.24h-274.1c-18.33 35.27-37.15 71.39-56.32 108.53-19.16 37.13-36.63 72.74-52.41 107.17-15.6 34.25-27.31 61.04-34.77 80.55-7.46 19.5-11.2 30.69-11.2 33.57 0 6.61 4.75 12.89 14.25 18.99 9.51 6.11 14.25 10.52 14.25 13.4 0 3.22-2.37 6.27-7.12 9.16h-50.55-10.52-9.15-8.48c-9.51 0-18.83-.17-28.16-.68s-18.49-1.36-27.48-2.88c42.57-35.11 80.57-77.84 114.15-128.03 33.42-50.03 72.94-120.74 118.56-211.63 45.8-90.89 77.35-153.64 94.82-187.72 17.64-34.26 35.28-66.48 53.09-96.49s36.81-55.28 56.82-75.97zm-35.96 109.88c-14.58 16.45-31.55 40.19-51.22 71.57-19.68 31.2-35.11 57.14-46.3 77.83-11.38 20.52-20.36 37.31-27.48 50.36h250.69c-14.59-30.86-31.05-61.38-49.53-91.4-18.48-30.18-40.54-64.77-66.32-104.12z"/><path d="m3020.07 554.12c11.7-1.86 28.5-3.39 50.54-4.92 22.06-1.35 50.71-2.03 86.33-2.03-1.01 4.24-7.63 7.29-20.34 9.16-12.56 1.86-18.84 7.46-18.84 16.78 0 65.12.17 130.41.34 195.52.17 65.12.51 138.38 1.02 219.94.51 81.57.68 139.73.68 174.33 0 16.95 2.03 30.52 5.93 40.86 3.91 10.18 12.9 17.3 26.97 21.03 6.96.85 14.25-1.02 22.06-5.76 7.63-4.92 15.09-9.67 22.04-14.59.85 1.36 1.36 3.73 1.36 7.12 0 7.13-4.24 13.4-12.89 18.66-8.65 5.25-16.46 9.83-23.07 13.9-6.78 4.07-15.77 6.11-26.96 6.11-5.6 0-11.03-.51-16.12-1.36-5.09-1.02-12.38-2.88-21.71-5.6l-11.2-14.07-20.35-517.54-5.59-137.02c-1.87-7.97-7.13-12.89-15.61-14.75-8.31-1.87-16.62-3.9-24.59-5.77z"/><path d="m3312.66 982.3c12.21-7.97 25.27-11.87 39.35-11.87 14.92 0 29.51 3.56 43.76 10.51 14.24 7.12 31.21 17.3 50.88 30.86-14.92 17.47-44.1 44.43-87.52 81.23-43.25 36.8-69.38 59.86-78.36 69.19 9.83 14.92 21.88 27.3 35.96 36.8 13.9 9.66 26.46 15.09 37.48 16.61 11.02 1.36 19.34 2.04 25.11 2.04 12.55 0 23.23-1.7 31.88-5.26 8.66-3.39 28.84-14.92 60.22-34.42-9.84 12.55-18.32 22.55-25.28 29.84-7.12 7.3-14.58 12.04-22.55 14.76-7.97 2.54-22.06 7.8-42.41 15.77s-35.62 11.87-45.96 11.87c-6.62 0-11.37-.34-14.42-1.02-3.06-.68-12.04-4.58-26.97-11.36-15.1-6.78-30.53-20.86-46.65-42.06-16.28-21.36-24.93-39-26.45-53.07-1.36-14.08-2.04-23.91-2.04-29.51 0-27.3 8.14-50.87 24.25-70.71 16.12-20.01 39.35-40.02 69.72-60.2zm42.91 24.76c-9.33-6.11-20.01-9.16-31.72-9.16-20.69 0-37.66 8.48-50.88 25.61-13.06 17.12-19.67 36.62-19.67 58.67 0 21.53 6.61 42.56 19.84 63.25 20.18-12.72 43.42-31.54 69.71-56.64 26.28-24.93 43.93-41.04 52.92-47.99-4.24-6.61-9.16-12.04-14.75-16.62-5.77-4.4-14.09-10.17-25.45-17.12z"/><path d="m3599.31 975.52 7.12 44.26c5.6-1.87 22.23-10.52 49.88-26.12 27.47-15.43 49.36-23.23 65.3-23.23 10.17 0 21.54 2.88 33.58 8.48 12.72 17.29 26.3 25.94 40.71 25.94 6.61 0 14.75-3.9 24.6-11.7 9.83-7.63 20.01-13.39 30.18-17.13 10.36-3.73 23.08-5.59 38-5.59 16.29 0 30.7 3.9 42.74 11.53 12.22 7.8 18.32 18.14 18.32 31.37 0 28.49 1.36 67.66 4.07 117.35 2.72 49.68 4.07 76.64 4.07 80.88 2.89 4.24 7.97 6.28 15.44 6.28s12.55 1.52 14.76 4.24c-7.8 7.46-19.85 13.56-35.62 18.31-19.17 4.75-33.08 7.97-42.07 9.84-3.56-6.96-5.42-15.77-5.42-25.95 0-6.61.68-16.11 2.03-28.49 1.36-12.38 2.04-20.51 2.04-24.25 0-12.71.51-28.82 1.52-48.49 1.02-19.67 1.53-30.53 1.53-32.39 0-21.54-2.71-39.51-8.14-54.1-5.26-14.41-15.95-27.3-31.89-38.66-4.24-1.36-8.65-2.04-13.23-2.04-10.86 0-20.36 2.55-28.84 7.81-8.47 5.08-19.34 13.73-32.9 25.94-7.12 13.91-11.87 29.85-14.42 47.65-2.54 17.81-3.9 37.48-3.9 59.01 0 14.42.17 28.66.68 42.74.51 14.07.85 27.81 1.36 41.37 1.02 3.73 5.25 7.12 12.89 9.84 7.63 2.88 11.53 5.93 11.53 9.15 0 2.38-.85 5.09-2.72 8.48-7.46 0-17.63.34-30.19 1.19-12.55.85-20.18 1.19-23.06 1.19-12.55 0-23.75-1.87-33.59-5.6 6.61-16.96 11.53-35.61 15.09-56.3s5.27-41.2 5.27-61.89c0-17.81-1.03-35.27-2.89-52.4-1.87-16.96-4.41-34.93-7.63-53.76-5.09-7.46-11.2-12.71-18.15-15.77-7.12-3.05-15.1-4.58-23.92-4.58-7.46 0-19.5 2.72-36.13 8.14-16.62 5.43-29.33 18.49-38.16 39.18-8.99 20.85-13.4 46.29-13.4 76.47 0 8.82.51 24.42 1.53 46.64.85 22.21 1.35 33.4 1.35 33.91 0 10.86 2.89 18.83 8.48 24.08l24.09 8.48c-3.22 4.75-8.65 8.14-16.11 10.18-7.64 2.2-16.29 3.22-26.12 3.22-3.73 0-10.52-.34-20.02-.85-9.67-.51-17.13-.85-22.22-.85-6.1.51-10.51.68-13.39.68-.52-4.24 2.88-10.68 9.83-19.67 6.96-8.82 10.86-15.94 11.53-21.03.68-5.09 1.02-11.53 1.02-19.33 0-7.63 0-13.57 0-17.8 0-18.83-1.02-44.43-3.05-77.16-2.2-32.9-3.22-50.37-3.22-52.74-1.36-6.1-4.92-9.16-10.52-9.16-2.71 0-7.13.68-12.89 1.87-5.94 1.19-9.33 1.69-10.35 1.69-3.22 0-5.76-.5-7.63-1.35 6.95-7.97 20.52-17.64 40.71-29.17 20.18-11.53 34.43-21.37 42.91-29.84z"/><path d="m4032.18 549.54c2.37.51 6.11 1.02 11.36 1.53 5.09.51 9.84.68 14.08.68 6.96 0 17.47-.85 31.55-2.38 14.08-1.69 24.6-2.54 31.55-2.54s12.89.34 17.63.85c4.59.34 9.34 1.86 13.92 4.24-10.01 3.22-18.49 6.1-25.45 8.48-6.95 2.37-10.51 6.95-10.51 13.56v61.73 50.87 41.72 36.62 32.56 27.47 23.4 21.37 19.33 15.94 13.74 12.38 10.34 9.84 8.14 25.6 25.61 7.8c5.09-1.02 23.24-10.52 54.44-28.49 31.22-17.98 54.29-26.96 69.21-26.96 2.88 0 8.14.34 15.6 1.35 30.03 5.6 54.62 17.98 73.79 37.31 19.17 19.16 30.53 38.49 34.09 58 3.56 19.33 5.26 32.89 5.26 40.35 0 29-9.84 55.12-29.52 78.35-19.67 23.23-42.74 41.88-69.03 55.96-26.46 14.07-51.23 21.02-74.12 21.02-39.69 0-72.09-15.26-96.85-45.61l-15.44-19.67c0-58.51-1.69-125.32-4.92-200.44-3.39-75.12-6.61-149.9-9.66-224.35-3.05-74.44-4.58-138.88-4.58-193.14-1.36-5.6-6.79-8.99-16.12-9.84-9.33-1.02-15.94-2.37-19.67-4.24zm154.35 451.24c-15.44 2.89-28.49 8.65-39.01 17.3s-17.47 18.99-21.04 31.2c-3.56 12.21-6.1 23.74-7.8 34.42-1.52 10.86-2.37 21.37-2.37 31.72 0 17.8 3.05 34.08 9.16 49.17 6.1 14.92 17.98 29.51 35.79 43.92 17.63 14.25 39.18 21.37 64.46 21.37 6.95 0 16.27-1.02 27.64-2.88 11.54-1.87 21.71-7.13 30.53-16.11 8.99-8.82 20.36-23.24 34.43-42.91 3.73-13.9 5.6-27.81 5.6-41.37 0-26.8-5.09-49.52-15.43-68.17-10.36-18.82-24.26-33.41-41.73-43.92-17.47-10.52-36.8-15.77-57.84-15.77-6.95 0-14.59.68-22.39 2.03z"/><path d="m4452.32 929.22c4.07-3.73 9.33-15.26 15.78-34.59 6.27-19.33 15.09-29 26.28-29 5.09 0 11.21 1.36 18.16 4.24 0 10.85-2.71 22.38-7.97 34.93-5.44 12.55-13.07 22.56-22.9 30.02-1.87-.51-6.28-1.02-13.23-1.36-7.13-.51-12.39-1.86-16.12-4.24zm34.94 43.24c.51 42.91 1.19 85.81 2.21 128.88.84 43.07 2.03 72.58 3.56 88.69 1.35 15.94 4.92 25.26 10.86 27.81 5.77 2.54 12.89 3.9 21.37 3.9 9.32 0 16.79-.68 22.39-2.04v6.45c-13.07 7.8-28.33 13.56-45.97 17.63-17.47 4.07-34.77 6.11-51.56 6.28-2.72-11.7-4.75-23.57-5.94-35.44s-1.7-26.12-1.7-42.4c0-8.48.17-21.36.68-39 .51-17.47.68-30.35.68-38.83v-9.16c0-22.89-1.19-40.19-3.56-51.72-2.37-11.7-6.44-17.64-12.55-17.64-2.88 0-7.13.68-13.07 1.87-5.76 1.02-9.15 1.7-10.17 1.7-6.1 0-10.51-2.21-13.23-6.28 14.42-5.26 29-10.34 43.42-15.43 14.93-6.61 28.84-14.92 41.39-25.27z"/><path d="m4694.53 970.43c13.07 0 24.43 6.44 33.93 19.16 9.66 12.89 18.83 25.27 27.65 37.48-7.46 2.37-17.99-.51-31.72-8.82-13.91-8.14-23.75-12.21-29.86-12.21-18.14 0-34.09 1.53-47.66 4.58-13.56 3.05-26.97 11.02-40.53 23.74-13.57 12.72-20.35 29.33-20.35 50.02 0 10.01 3.9 24.93 11.87 44.94s24.58 38.32 49.86 54.77c25.11 16.45 46.47 26.29 64.12 29.68 17.47 3.22 27.98 4.92 31.71 4.92 11.37 0 21.04-4.07 29.18-12.38s15.1-15.43 20.7-21.2c-2.89 18.65-11.54 34.09-26.3 46.46-14.75 12.38-31.72 18.66-50.88 18.66-66.83 0-108.56-18.99-125.35-57.15-16.79-37.98-25.27-63.42-25.27-76.14 0-11.19 1.69-22.55 5.25-33.74 3.56-11.37 11.7-27.48 24.6-48.67 12.72-21.2 27.64-37.14 44.78-47.82 16.96-10.85 35.11-16.28 54.27-16.28z"/></g><g fill="#7700a6"><path d="m2585 536.1c5.61 36.63 19.85 74.95 42.58 114.8s47.5 82.42 74.46 127.86c26.8 45.62 62.25 107.51 106.01 185.69 43.76 78.34 75.99 137.35 96.51 177.2 20.53 40.02 36.3 64.27 46.98 72.92 10.87 8.65 16.97 16.96 18.33 24.93h-147.57c-1.87-9.33 3.56-16.11 16.46-20.01 12.71-4.07 19.16-10.69 19.16-20.18-14.92-38.5-30.7-74.61-47.15-108.19-16.28-33.58-33.93-67.49-52.58-101.75-18.83-34.42-41.73-74.78-68.87-121.24h-274.1c-18.32 35.27-37.15 71.39-56.31 108.53-19.17 37.13-36.64 72.74-52.42 107.17-15.6 34.25-27.3 61.04-34.76 80.55-7.47 19.5-11.21 30.69-11.21 33.57 0 6.61 4.75 12.89 14.26 18.99 9.5 6.11 14.24 10.52 14.24 13.4 0 3.22-2.37 6.27-7.12 9.16h-50.54-10.53-9.15-8.48c-9.5 0-18.83-.17-28.16-.68s-18.48-1.36-27.47-2.88c42.57-35.11 80.57-77.84 114.14-128.03 33.42-50.03 72.94-120.74 118.56-211.63 45.8-90.89 77.35-153.64 94.83-187.72 17.63-34.26 35.28-66.48 53.08-96.49 17.81-30.01 36.81-55.28 56.82-75.97zm-35.96 109.88c-14.58 16.45-31.54 40.19-51.22 71.57-19.67 31.2-35.11 57.14-46.3 77.83-11.37 20.52-20.35 37.31-27.48 50.36h250.7c-14.6-30.86-31.05-61.38-49.54-91.4-18.48-30.18-40.54-64.77-66.31-104.12z"/><path d="m3020.07 543.39c11.7-1.86 28.5-3.39 50.54-4.92 22.06-1.35 50.72-2.03 86.34-2.03-1.01 4.24-7.64 7.29-20.35 9.16-12.55 1.86-18.83 7.46-18.83 16.78 0 65.12.17 130.41.34 195.52.17 65.12.51 138.38 1.02 219.94.51 81.57.68 139.73.68 174.33 0 16.95 2.03 30.52 5.93 40.86 3.9 10.18 12.89 17.3 26.96 21.03 6.97.85 14.26-1.02 22.06-5.76 7.63-4.92 15.09-9.67 22.05-14.59.85 1.36 1.36 3.73 1.36 7.12 0 7.13-4.25 13.4-12.9 18.66-8.65 5.25-16.45 9.83-23.06 13.9-6.78 4.07-15.78 6.11-26.97 6.11-5.6 0-11.02-.51-16.11-1.36-5.1-1.02-12.39-2.88-21.72-5.6l-11.19-14.07-20.36-517.54-5.59-137.02c-1.87-7.97-7.13-12.89-15.6-14.75-8.31-1.87-16.63-3.9-24.6-5.77z"/><path d="m3312.66 971.57c12.22-7.97 25.27-11.87 39.35-11.87 14.93 0 29.51 3.56 43.76 10.51 14.25 7.12 31.21 17.3 50.89 30.86-14.93 17.47-44.1 44.43-87.52 81.23-43.26 36.8-69.38 59.86-78.36 69.19 9.83 14.92 21.87 27.3 35.95 36.8 13.91 9.66 26.46 15.09 37.48 16.61 11.03 1.36 19.34 2.04 25.11 2.04 12.55 0 23.24-1.7 31.89-5.26 8.65-3.39 28.84-14.92 60.21-34.42-9.84 12.55-18.32 22.55-25.27 29.84-7.12 7.3-14.59 12.04-22.56 14.76-7.97 2.54-22.05 7.8-42.41 15.77-20.34 7.97-35.62 11.87-45.96 11.87-6.61 0-11.36-.34-14.41-1.02-3.06-.68-12.05-4.58-26.98-11.36-15.09-6.78-30.53-20.86-46.64-42.06-16.29-21.36-24.94-39-26.46-53.07-1.36-14.08-2.04-23.91-2.04-29.51 0-27.3 8.14-50.87 24.26-70.71 16.11-20.01 39.35-40.02 69.71-60.2zm42.91 24.76c-9.33-6.11-20.01-9.16-31.71-9.16-20.7 0-37.66 8.48-50.89 25.61-13.06 17.12-19.67 36.62-19.67 58.67 0 21.53 6.61 42.56 19.84 63.25 20.18-12.72 43.42-31.54 69.71-56.64 26.29-24.93 43.93-41.04 52.92-47.99-4.24-6.61-9.16-12.04-14.75-16.62-5.77-4.4-14.08-10.17-25.45-17.12z"/><path d="m3599.31 964.79 7.13 44.26c5.6-1.87 22.22-10.52 49.87-26.12 27.48-15.43 49.36-23.23 65.31-23.23 10.17 0 21.53 2.88 33.57 8.48 12.73 17.29 26.3 25.94 40.71 25.94 6.62 0 14.76-3.9 24.6-11.7 9.83-7.63 20.01-13.39 30.19-17.13 10.35-3.73 23.07-5.59 38-5.59 16.28 0 30.69 3.9 42.74 11.53 12.21 7.8 18.31 18.14 18.31 31.37 0 28.49 1.36 67.66 4.07 117.35 2.72 49.68 4.07 76.64 4.07 80.88 2.89 4.24 7.98 6.28 15.45 6.28 7.46 0 12.54 1.52 14.75 4.24-7.8 7.46-19.84 13.56-35.62 18.31-19.16 4.75-33.08 7.97-42.07 9.84-3.56-6.96-5.42-15.77-5.42-25.95 0-6.61.68-16.11 2.03-28.49 1.36-12.38 2.04-20.51 2.04-24.25 0-12.71.51-28.82 1.52-48.49 1.02-19.67 1.53-30.53 1.53-32.39 0-21.54-2.71-39.51-8.14-54.1-5.26-14.41-15.94-27.3-31.89-38.66-4.24-1.36-8.65-2.04-13.23-2.04-10.85 0-20.36 2.55-28.84 7.81-8.47 5.08-19.33 13.73-32.9 25.94-7.12 13.91-11.87 29.85-14.42 47.65-2.54 17.81-3.9 37.48-3.9 59.01 0 14.42.17 28.66.68 42.74.51 14.07.85 27.81 1.36 41.37 1.02 3.73 5.25 7.12 12.89 9.84 7.63 2.88 11.54 5.93 11.54 9.15 0 2.38-.85 5.09-2.72 8.48-7.47 0-17.64.34-30.19 1.19-12.56.85-20.19 1.19-23.07 1.19-12.55 0-23.74-1.87-33.59-5.6 6.62-16.96 11.54-35.61 15.1-56.3s5.26-41.2 5.26-61.89c0-17.81-1.02-35.27-2.88-52.4-1.87-16.96-4.41-34.93-7.63-53.76-5.1-7.46-11.21-12.71-18.16-15.77-7.12-3.05-15.09-4.58-23.91-4.58-7.47 0-19.51 2.72-36.13 8.14-16.63 5.43-29.34 18.49-38.16 39.18-8.99 20.85-13.41 46.29-13.41 76.47 0 8.82.51 24.42 1.53 46.64.85 22.21 1.35 33.4 1.35 33.91 0 10.86 2.9 18.83 8.49 24.08l24.08 8.48c-3.22 4.75-8.65 8.14-16.11 10.18-7.63 2.2-16.29 3.22-26.12 3.22-3.73 0-10.52-.34-20.01-.85-9.68-.51-17.14-.85-22.23-.85-6.1.51-10.51.68-13.39.68-.51-4.24 2.88-10.68 9.83-19.67 6.96-8.82 10.86-15.94 11.53-21.03.68-5.09 1.02-11.53 1.02-19.33 0-7.63 0-13.57 0-17.8 0-18.83-1.02-44.43-3.05-77.16-2.2-32.9-3.22-50.37-3.22-52.74-1.36-6.1-4.92-9.16-10.52-9.16-2.71 0-7.12.68-12.88 1.87-5.94 1.19-9.34 1.69-10.36 1.69-3.22 0-5.76-.5-7.63-1.35 6.95-7.97 20.53-17.64 40.71-29.17 20.19-11.53 34.43-21.37 42.91-29.84z"/><path d="m4032.18 538.81c2.37.51 6.11 1.02 11.36 1.53 5.1.51 9.85.68 14.09.68 6.95 0 17.46-.85 31.55-2.38 14.07-1.69 24.59-2.54 31.54-2.54 6.96 0 12.9.34 17.64.85 4.58.34 9.33 1.86 13.91 4.24-10.01 3.22-18.48 6.1-25.44 8.48-6.96 2.37-10.52 6.95-10.52 13.56v61.73 50.87 41.72 36.62 32.56 27.47 23.4 21.37 19.33 15.94 13.74 12.38 10.34 9.84 8.14 25.6 25.61 7.8c5.09-1.02 23.24-10.52 54.45-28.49 31.21-17.98 54.28-26.96 69.2-26.96 2.88 0 8.15.34 15.61 1.35 30.02 5.6 54.61 17.98 73.79 37.31 19.16 19.16 30.52 38.49 34.08 58 3.56 19.33 5.27 32.89 5.27 40.35 0 29-9.85 55.12-29.52 78.35-19.68 23.23-42.74 41.88-69.04 55.96-26.46 14.07-51.22 21.02-74.12 21.02-39.69 0-72.09-15.26-96.85-45.61l-15.44-19.67c0-58.51-1.69-125.32-4.92-200.44-3.39-75.12-6.61-149.9-9.66-224.35-3.05-74.44-4.58-138.88-4.58-193.14-1.36-5.6-6.78-8.99-16.11-9.84-9.34-1.02-15.95-2.37-19.68-4.24zm154.35 451.24c-15.43 2.89-28.49 8.65-39.01 17.3-10.51 8.65-17.46 18.99-21.03 31.2s-6.11 23.74-7.81 34.42c-1.52 10.86-2.37 21.37-2.37 31.72 0 17.8 3.05 34.08 9.17 49.17 6.1 14.92 17.97 29.51 35.78 43.92 17.64 14.25 39.18 21.37 64.46 21.37 6.95 0 16.27-1.02 27.65-2.88 11.53-1.87 21.7-7.13 30.52-16.11 9-8.82 20.36-23.24 34.43-42.91 3.73-13.9 5.6-27.81 5.6-41.37 0-26.8-5.09-49.52-15.43-68.17-10.35-18.82-24.26-33.41-41.73-43.92-17.46-10.52-36.8-15.77-57.83-15.77-6.96 0-14.6.68-22.4 2.03z"/><path d="m4452.33 918.49c4.07-3.73 9.33-15.26 15.77-34.59 6.27-19.33 15.09-29 26.29-29 5.09 0 11.2 1.36 18.15 4.24 0 10.85-2.71 22.38-7.97 34.93-5.43 12.55-13.06 22.56-22.9 30.02-1.87-.51-6.28-1.02-13.23-1.36-7.12-.51-12.38-1.86-16.11-4.24zm34.93 43.24c.51 42.91 1.19 85.81 2.22 128.88.84 43.07 2.03 72.58 3.56 88.69 1.35 15.94 4.92 25.26 10.85 27.81 5.77 2.54 12.89 3.9 21.37 3.9 9.33 0 16.8-.68 22.39-2.04v6.45c-13.06 7.8-28.33 13.56-45.96 17.63-17.48 4.07-34.78 6.11-51.56 6.28-2.73-11.7-4.76-23.57-5.95-35.44s-1.7-26.12-1.7-42.4c0-8.48.17-21.36.68-39 .51-17.47.68-30.35.68-38.83v-9.16c0-22.89-1.19-40.19-3.56-51.72-2.37-11.7-6.44-17.64-12.55-17.64-2.88 0-7.12.68-13.06 1.87-5.76 1.02-9.16 1.7-10.18 1.7-6.1 0-10.51-2.21-13.23-6.28 14.42-5.26 29.01-10.34 43.42-15.43 14.94-6.61 28.84-14.92 41.39-25.27z"/><path d="m4694.54 959.7c13.06 0 24.42 6.44 33.92 19.16 9.67 12.89 18.83 25.27 27.65 37.48-7.46 2.37-17.98-.51-31.72-8.82-13.91-8.14-23.74-12.21-29.85-12.21-18.15 0-34.09 1.53-47.67 4.58-13.56 3.05-26.96 11.02-40.53 23.74s-20.35 29.33-20.35 50.02c0 10.01 3.9 24.93 11.87 44.94s24.59 38.32 49.86 54.77c25.11 16.45 46.48 26.29 64.12 29.68 17.47 3.22 27.99 4.92 31.72 4.92 11.36 0 21.03-4.07 29.18-12.38 8.14-8.31 15.09-15.43 20.69-21.2-2.89 18.65-11.53 34.09-26.3 46.46-14.75 12.38-31.71 18.66-50.88 18.66-66.83 0-108.56-18.99-125.35-57.15-16.78-37.98-25.27-63.42-25.27-76.14 0-11.19 1.69-22.55 5.26-33.74 3.56-11.37 11.7-27.48 24.59-48.67 12.72-21.2 27.65-37.14 44.78-47.82 16.97-10.85 35.11-16.28 54.28-16.28z"/></g></g><g fill="#282828"><path d="m2109.77 9010.78 251.46-1089.64h670.55v1050.46c0 130.42 59.59 195.58 178.77 195.58s178.88-65.16 178.88-195.58v-1050.46h670.54l251.46 1089.64c22.27 104.23 74.43 156.4 156.4 156.4 63.3 0 112.74-14.84 148.1-44.64 35.36-29.79 53.04-68.98 53.04-117.43l-11.13-78.15-229.09-1005.82v-357.65h-2436.3v357.65l-229.19 1005.82-11.13 78.15c0 48.46 18.66 87.64 55.88 117.43 37.21 29.79 85.67 44.64 145.26 44.64 81.96 0 134.13-52.17 156.5-156.4z"/><path d="m1064.77 6937.59c108.05-171.35 230.07-336.15 366.05-494.51 135.99-158.25 276.56-296.1 421.93-413.53 145.27-117.33 284.97-196.45 419.1-237.48-33.62 59.7-58.72 130.42-75.53 212.38-16.69 81.96-25.1 175.06-25.1 279.39 0 156.51 43.77 309.2 131.3 458.17 87.53 149.08 210.52 271.97 368.78 368.89 158.36 96.8 339.96 145.26 544.82 145.26 175.17 0 332.54-44.75 472.24-134.13s250.47-204.85 332.44-346.41c81.96-141.55 123-288.78 123-441.46 0-249.6-54.03-467.56-162.08-653.86-108.04-186.19-256.15-332.43-444.3-438.62-188.05-106.2-401.3-159.24-639.77-159.24-439.61 0-872.68 169.5-1299.19 508.48s-822.36 841.9-1187.43 1508.73l396.72 324.14c63.3-152.79 149.08-314.75 257.02-486.21z"/></g></svg>