<svg clip-rule="evenodd" fill-rule="evenodd" height="7.2372mm" image-rendering="optimizeQuality" shape-rendering="geometricPrecision" text-rendering="geometricPrecision" viewBox="0 0 626.31 355.44" width="12.7526mm" xmlns="http://www.w3.org/2000/svg"><path d="m4.3 134.73 27.23-134.73h46.58l-8.6 43.72h501.63l8.6-43.72h46.58l-27.23 134.73h-46.58l8.6-43.72h-500.91l-9.32 43.72h-46.58zm46.58 220.71c-15.77 0-28.19-6.09-37.27-18.27s-13.61-26.39-13.61-42.63c0-19.11 5.14-37.98 15.41-56.61s23.41-34.16 39.41-46.58c16.01-12.42 32.85-18.63 50.52-18.63 13.85 0 24.12 3.58 30.81 10.75s10.75 14.81 12.18 22.94l5.73-14.34h33.68l-37.27 80.26c-3.82 8.6-5.73 15.29-5.73 20.07 0 12.9 6.45 19.35 19.35 19.35 9.55 0 19.35-2.63 29.38-7.88v-9.31c0-19.11 5.14-37.98 15.41-56.61s23.41-34.16 39.41-46.58c16.01-12.42 32.85-18.63 50.52-18.63 24.84 0 39.17 11.23 42.99 33.68l5.74-14.34h33.68l-37.27 80.26c-3.82 8.6-5.73 15.29-5.73 20.07 0 12.9 6.45 19.35 19.35 19.35 9.56 0 19.35-2.63 29.38-7.88v-9.31c0-19.11 5.13-37.98 15.41-56.61 10.27-18.63 23.41-34.16 39.41-46.58 16.01-12.42 32.85-18.63 50.52-18.63 24.84 0 39.17 11.23 42.99 33.68l5.74-14.34h33.68l-37.26 80.26c-3.82 8.6-5.73 15.29-5.73 20.07 0 12.9 6.45 19.35 19.35 19.35 10.99 0 21.74-3.1 32.25-9.31s22.45-14.81 35.83-25.8l1.43 25.8c-6.69 7.64-15.17 15.28-25.44 22.93-10.27 7.64-21.02 13.97-32.25 18.99s-21.38 7.52-30.45 7.52c-19.11 0-30.81-10.99-35.12-32.96-16.24 24.36-36.07 36.54-59.48 36.54-18.63 0-32.72-8.6-42.28-25.8-22.45 14.81-41.32 22.21-56.61 22.21-19.11 0-30.81-10.99-35.12-32.96-16.24 24.36-36.07 36.54-59.48 36.54-18.63 0-32.73-8.6-42.28-25.8-22.45 14.81-41.32 22.21-56.61 22.21-19.11 0-30.81-10.99-35.12-32.96-16.24 24.36-36.07 36.54-59.48 36.54zm13.61-39.41c8.12 0 16.01-3.34 23.65-10.03s13.85-15.05 18.63-25.08l26.51-57.33c-5.73-13.85-15.28-20.78-28.66-20.78-9.56 0-18.99 5.01-28.3 15.05-9.32 10.03-17.08 21.98-23.29 35.83s-9.31 26.51-9.31 37.98c0 6.21 1.79 11.82 5.37 16.84 3.58 5.01 8.72 7.52 15.41 7.52zm193.48 0c7.64 0 15.41-3.34 23.29-10.03s14.21-15.05 18.99-25.08l26.51-57.33c-5.73-13.85-15.28-20.78-28.66-20.78-9.56 0-18.99 5.01-28.31 15.05-9.31 10.03-17.08 21.98-23.29 35.83s-9.32 26.51-9.32 37.98c0 6.21 1.79 11.82 5.38 16.84 3.58 5.01 8.72 7.52 15.41 7.52zm193.48 0c7.64 0 15.41-3.34 23.29-10.03s14.21-15.05 18.99-25.08l26.51-57.33c-5.73-13.85-15.29-20.78-28.66-20.78-9.56 0-18.99 5.01-28.31 15.05-9.32 10.03-17.08 21.98-23.29 35.83s-9.32 26.51-9.32 37.98c0 6.21 1.79 11.82 5.38 16.84 3.58 5.01 8.72 7.52 15.41 7.52z" fill="#e6e6e6" fill-rule="nonzero"/></svg>