<svg clip-rule="evenodd" fill-rule="evenodd" height="2.0708mm" image-rendering="optimizeQuality" shape-rendering="geometricPrecision" text-rendering="geometricPrecision" viewBox="0 0 35.11 19.14" width="3.8mm" xmlns="http://www.w3.org/2000/svg"><g fill="#00a7ff"><path d="m18.9 16.94c.99-.48 1.88-1.2 2.68-2.15l.1 2.58h2.25v-10.52c0-1.88-.52-3.25-1.55-4.12-1.04-.86-2.62-1.29-4.76-1.29-1.05 0-2.08.12-3.09.36-1 .24-1.97.58-2.89 1.03l1.1 2.34c.83-.41 1.64-.73 2.44-.93.8-.21 1.58-.31 2.34-.31.73 0 1.36.1 1.87.31s.9.52 1.17.93.41.94.41 1.58v1.05l-2.73.1c-2.55.1-4.44.56-5.67 1.39s-1.84 2.04-1.84 3.64c0 1.59.44 2.78 1.32 3.56s2.06 1.17 3.56 1.17c1.21 0 2.31-.24 3.3-.72zm-4.47-2.3c-.43-.38-.65-.96-.65-1.72 0-.64.16-1.16.48-1.56s.84-.71 1.56-.93 1.65-.35 2.8-.38l2.34-.1v1.1c0 .92-.18 1.7-.53 2.32s-.87 1.08-1.56 1.39c-.68.3-1.54.45-2.56.45-.83 0-1.46-.19-1.89-.57z"/><path d="m34.4 2.73-1.2-2.73-7.03 3.16v3.01z"/><path d="m35.11 11.19v-3.01h-8.94v3.01z"/><path d="m34.4 16.36-8.23-3.16v3.02l7.03 2.92z"/><path d="m8.95 3.16-7.08-3.16-1.25 2.73 8.33 3.44z"/><path d="m8.95 11.19v-3.01h-8.95v3.01z"/><path d="m8.95 16.22v-3.02l-8.33 3.16 1.25 2.78z"/></g></svg>