<svg clip-rule="evenodd" fill-rule="evenodd" height="1.7484mm" image-rendering="optimizeQuality" shape-rendering="geometricPrecision" text-rendering="geometricPrecision" viewBox="0 0 90.94 51.39" width="3.0941mm" xmlns="http://www.w3.org/2000/svg"><g fill="#b3b3b3" fill-rule="nonzero"><path d="m.72 48.15h30.91v-13.65h-8.63v-6.47h9.35v-13.66h-9.35v-10.06h-13.66v10.06h-9.34v13.66h9.34v6.47h-8.62z"/><path d="m73.68 17.97c-2.87 0-5.03.72-5.03.72l.72-3.59h18.69v-15.09h-32.35l-3.59 23.72 8.63 5.75s2.87-1.44 5.75-1.44c3.23 0 5.03 1.8 5.03 4.31 0 2.52-1.8 4.31-5.03 4.31-5.03 0-9.35-3.95-9.35-3.95l-6.83 10.78s6.47 7.91 20.13 7.91c12.58 0 20.49-7.91 20.49-16.89 0-9.34-7.19-16.53-17.26-16.53z"/></g></svg>