<svg clip-rule="evenodd" fill-rule="evenodd" height="128.5mm" image-rendering="optimizeQuality" shape-rendering="geometricPrecision" text-rendering="geometricPrecision" viewBox="0 0 12700 12850" width="127mm" xmlns="http://www.w3.org/2000/svg"><g fill-rule="nonzero"><g fill="#333"><path d="m666.5 570.8c35.29 0 65.15 10.32 89.3 30.94 24.44 20.63 45.33 45.59 62.98 75.44 17.64 29.58 29.85 56.99 37.19 82.5 7.06 25.51 10.58 49.94 10.58 73 0 48.04-10.58 87.66-31.49 119.41-20.89 31.48-42.61 57.53-64.6 77.89-22.26 20.62-47.51 40.43-76 59.16 34.47 26.32 64.87 49.66 91.2 70.28 26.61 20.63 51.03 50.75 73.3 90.37 22.52 39.89 33.66 86.3 33.66 139.49 0 58.62-20.64 116.96-62.17 175.58-41.53 58.35-116.45 93.63-225.03 105.57-92.56 5.15-185.39 10.58-278.22 15.74-7.34-.82-11.14-5.7-11.14-14.66 0-5.15 1.9-9.77 5.7-13.57 26.06-3.52 47.24-10.04 63.25-18.99 16.28-8.96 25.79-25.51 28.78-49.39 0-86.3-1.9-188.34-5.7-306.12-3.81-117.5-7.61-242.34-11.41-373.69-3.8-131.61-5.7-231.21-5.7-298.78-2.99-9.77-9.23-16.83-18.45-21.71-9.24-4.89-21.18-7.33-35.29-7.33-6.52 0-11.41.27-14.4 1.09l4.36-12.22c15.74-3.25 34.46-5.7 55.64-7.32 21.44-1.63 40.99-2.45 59.17-2.45 24.7 0 61.62 1.63 111.02 4.89s87.41 4.88 113.47 4.88zm-156.63 17.91c-6.78 29.86-11.39 63.24-14.11 100.14-2.44 36.64-3.8 76.53-3.8 120.22v68.39 67.57 16.83 14.65 13.3c0 14.38-.27 28.77-.81 43.96-.54 14.93-1.63 29.04-3.27 42.61 3.81 8.96 8.7 15.2 14.67 18.45 5.97 3.53 13.56 5.16 22.52 5.16 5.98 0 15.75-1.08 29.05-3.53 13.57-2.44 24.43-3.8 32.57-3.8 45.06 0 82.52-15.19 112.38-45.86 30.13-30.66 52.12-64.04 66.23-99.87 14.39-36.09 21.45-64.58 21.45-85.48 0-19.54-2.71-37.99-7.87-56.18-5.16-17.91-16.29-45.86-33.12-84.12-16.83-38.27-47.23-69.75-91.2-94.71-43.98-25.24-92.03-37.73-144.69-37.73zm100.44 550.63c-22.53-6.78-43.71-10.04-64.06-10.04-20.91 0-40.45 3.26-58.37 10.04 0 37.45-1.36 93.08-4.34 167.17-2.99 73.81-4.61 128.9-4.61 164.73 0 44.77.54 75.98 1.62 93.62 1.09 17.37 3.53 42.07 7.33 73.27 11.95 3.8 29.86 5.7 54.03 5.7 25.23 0 53.47-3.8 84.14-11.12 30.68-7.6 62.7-25.24 96.36-52.65 33.93-27.68 53.21-55.63 58.64-83.59 5.16-27.95 8.41-48.3 10.04-60.51 1.36-12.49 2.17-24.97 2.17-37.72 0-45.6-8.68-87.66-26.33-126.47-17.64-39.07-39.09-67.03-64.6-84.12-25.52-17.37-43.7-28.77-54.57-34.2-10.85-5.7-23.34-10.31-37.45-14.11z"/><path d="m1081.26 1305.42c14.39-15.74 32.58-29.58 55.11-42.06 22.52-12.21 43.43-18.45 62.97-18.45 15.74 0 29.05 4.07 40.45 12.48 11.12 8.14 18.73 17.91 23.07 28.77 4.07 10.85 5.97 17.64 5.97 20.35v7.33c0 12.75-4.34 24.69-13.3 36.09-9.23 11.13-20.09 19-32.84 23.61-2.99-2.17-12.22-16.01-27.42-41.25-15.47-24.97-30.95-35.82-46.96-32.02-36.64 9.77-61.62 33.92-74.65 73-13.3 38.81-19.82 86.57-19.82 143.56 0 23.07.28 45.05 1.1 65.67.81 20.36 1.35 40.44 2.17 59.98 2.17 8.95 13.02 14.65 32.29 17.36 19.28 2.45 29.59 4.35 31.22 4.89v21.44l-174.26-1.09c0-8.95 8.41-17.37 25.23-24.69 16.84-7.6 25.25-17.91 25.25-31.48v-275.99c0-15.74-8.14-23.61-24.7-23.61-5.16 0-11.13.54-17.64 1.35-6.79.55-10.59 1.09-11.4 1.09l-3.26-22.53c20.36-8.95 41.8-20.08 64.6-32.83 22.81-12.76 43.97-25.51 63.52-38.54 2.99 6.24 4.35 14.11 4.35 23.88 0 8.14.27 16.29.54 24.16.54 7.87 3.25 14.38 8.41 19.53z"/><path d="m1535.66 1240.84c11.13-3.8 23.62-5.7 36.91-5.7 14.4 0 28.24 3.25 42.08 9.5 13.85 6.24 36.91 24.15 69.22 53.73 32.03 29.31 53.2 88.74 63.52 178.29 10.04 89.29 18.45 146.82 25.24 172.06l38 19.27c-8.14 5.15-20.35 8.68-36.37 11.12-16.01 2.17-32.3 3.26-48.86 3.26-9.77 0-19.54 0-29.32 0-9.77 0-19-.54-27.95-1.09 13.57 0 23.07-4.61 28.49-13.57 5.71-8.95 8.43-20.35 8.43-34.46 0-9.77-.55-20.08-1.9-30.94-1.36-10.85-2.46-21.17-3-30.66-2.98-7.33-7.87-10.86-14.65-10.86-7.6 0-15.47 3.26-23.61 10.04-30.68 32.57-66.24 60.25-106.96 83.59-40.44 23.34-78.72 35-114.55 35-21.17 0-42.07-5.15-62.98-15.74-21.17-10.31-37.45-23.06-49.13-38.26-11.67-14.93-17.37-33.92-17.37-57.26 0-22.25 6.25-42.34 19-59.97 12.77-17.64 31.49-33.11 55.65-46.41 24.43-13.57 52.39-24.7 84.42-33.11 31.76-8.68 64.06-13.02 96.9-13.02 17.38 0 33.12 1.08 47.23 3.25 14.4 1.9 29.32 5.7 45.06 11.4 6.8-6.78 10.05-14.93 10.05-24.7 0-5.97-2.17-13.56-6.78-22.52-4.35-8.96-13.04-27.95-25.79-57.26-12.76-29.04-46.15-43.69-99.9-43.69-24.69 0-45.87 5.15-63.51 15.74-17.65 10.58-40.72 27.68-69.22 51.02 12.21-27.68 29.04-51.84 50.75-71.92 21.72-20.35 48.6-35.82 80.9-46.13zm93.92 212.49c-22.53-9.77-47.23-14.66-74.1-14.66-34.48 0-66.78 7.33-97.18 22.25-30.13 14.93-50.49 31.21-60.53 48.58-10.05 17.64-15.2 31.21-15.2 40.98 0 11.94 2.98 22.79 8.95 32.84 5.97 10.04 17.37 23.61 34.21 40.16 16.82 16.83 37.73 25.24 62.42 25.24 7.33 0 22.54-2.72 45.33-7.87 22.81-5.16 52.94-22.25 89.86-51.29 37.19-29.04 55.64-57.53 55.64-84.94 0-5.16-1.35-11.67-3.8-19-2.71-7.6-7.59-13.57-14.65-17.91-7.07-4.34-17.38-9.23-30.95-14.38z"/><path d="m1945.55 1172.45c6.51-5.97 14.93-24.42 25.24-55.36 10.04-30.94 24.16-46.41 42.07-46.41 8.14 0 17.92 2.17 29.05 6.79 0 17.36-4.34 35.82-12.75 55.9-8.7 20.08-20.91 36.09-36.65 48.03-2.99-.81-10.05-1.62-21.18-2.17-11.4-.81-19.81-2.98-25.78-6.78zm55.92 69.2c.81 68.66 1.89 137.32 3.52 206.25 1.36 68.93 3.26 116.15 5.7 141.93 2.17 25.51 7.87 40.43 17.38 44.51 9.23 4.07 20.63 6.24 34.19 6.24 14.94 0 26.88-1.09 35.84-3.26v10.31c-20.9 12.49-45.33 21.71-73.56 28.23-27.96 6.51-55.65 9.77-82.53 10.04-4.34-18.73-7.6-37.72-9.49-56.72-1.9-19-2.72-41.79-2.72-67.85 0-13.56.27-34.19 1.09-62.41.81-27.95 1.08-48.58 1.08-62.15v-14.65c0-36.64-1.9-64.32-5.7-82.77-3.8-18.73-10.31-28.23-20.08-28.23-4.62 0-11.41 1.09-20.9 2.99-9.23 1.63-14.66 2.71-16.29 2.71-9.78 0-16.83-3.53-21.17-10.04 23.07-8.41 46.41-16.55 69.49-24.69 23.88-10.59 46.14-23.89 66.22-40.44z"/><path d="m2138.27 1339.62c14.12-15.74 38.01-35.28 71.39-58.89 33.67-23.61 53.48-37.72 59.46-42.34 2.98 5.43 4.34 12.49 4.34 20.63 0 6.78.27 13.57.54 20.08.27 6.79 3.26 11.94 8.41 15.74 23.34-13.3 50.76-25.24 82.79-35.82 31.77-10.58 63.26-15.74 93.92-15.74 22.54 0 42.89 3.53 60.81 10.58 18.18 7.06 33.93 18.46 47.23 34.2 13.57 15.74 22.81 32.83 27.69 51.02 4.89 18.45 7.33 39.07 7.33 62.41 0 12.76-1.63 36.64-4.89 72.19-2.98 35.55-4.61 58.89-4.61 70.29 0 13.29.27 25.78 1.09 36.9.81 11.13 2.44 21.99 5.15 32.57 2.72 10.58 7.6 18.72 14.66 24.69 7.05 5.97 18.73 8.96 34.47 8.96 5.43 0 11.67-.54 19.27-1.63 1.63 10.31-1.63 16.83-8.96 19-11.39.81-26.05 3.8-44.51 8.95-18.46 5.16-39.91 7.87-64.88 7.87-8.14 0-14.66-.54-19-1.35-2.98-16.29-4.88-28.23-5.15-35.83-.28-7.32-.55-13.29-.55-17.91 0-17.09 2.44-49.12 7.33-95.25 4.88-46.41 7.33-77.89 7.33-94.44 0-35.01-5.16-64.86-15.2-89.28-10.04-24.16-26.61-43.42-49.4-57.26-22.81-13.84-46.7-20.63-71.39-20.63-33.66 0-61.08 10.58-82.52 31.48-21.45 21.17-36.11 48.04-44.25 80.6-8.41 32.57-12.49 70.02-12.49 112.08 0 27.68.27 46.68 1.08 56.99.82 10.04 3.54 41.79 8.7 95.25 0 8.96 8.95 15.47 26.59 19.54 17.65 4.07 27.15 8.96 28.78 14.11-16.55 1.63-32.58 2.99-48.04 4.62-15.48 1.35-30.14 2.17-44.52 2.17-19.55 0-33.66-.54-42.35-1.63s-20.09-3.53-34.47-7.33c16.01-16.55 27.15-37.18 33.12-61.6 6.24-24.42 9.22-54.28 9.22-89.55 0-24.16-1.35-56.99-3.79-98.24-2.45-41.25-3.53-67.03-3.53-76.8 0-10.59-2.99-15.74-8.97-15.74-2.98 0-8.95 1.9-17.37 5.7-8.68 3.79-14.38 5.42-17.36 5.42-4.62 0-8.7-2.17-12.5-6.78z"/><path d="m2883.94 1140.16c0 6.24-5.43 18.99-16.29 38.53s-16.29 33.38-16.29 41.52c0 8.96 2.17 16.28 6.52 21.44h78.72c49.4 0 91.74-.81 127.03-2.71 35.02-1.9 69.76-5.97 104.24-12.49.81 3.53 1.63 8.96 2.44 15.47.54 6.79 1.09 10.86 1.09 12.49 0 7.32-3.53 14.38-10.31 20.62-6.53 6.51-36.38 33.92-88.78 82.5-52.65 48.3-97.71 91.45-135.71 129.18-37.74 37.72-72.21 73.27-102.88 106.92 37.45 9.5 82.25 14.38 134.09 14.38 62.16 0 117.81-6.78 166.4-20.08-14.93 56.45-27.69 104.21-38.55 143.56-10.85 39.35-26.87 73-47.77 100.95-.81-10.58 5.7-30.12 19.54-58.62 13.85-28.49 20.91-48.57 20.91-59.7 0-17.1-10.86-28.49-32.58-34.46h-43.97-38.01-33.93-27.96-24.7-21.44-19-16.84-14.65c-14.11 0-28.51 0-43.16 0s-29.05 0-43.43 0h-12.21c28.49-34.74 61.34-70.02 98.8-106.39 37.46-36.09 82.52-78.97 135.45-128.63 52.66-49.93 90.4-87.38 112.92-113.16 0-7.6-3.8-13.03-11.4-16.29-7.32-3.52-16.55-5.15-26.87-5.15h-55.1c-62.17 0-111.3 4.88-147.13 14.65-36.1 9.77-66.77 32.84-92.02 69.48l-10.04-8.96c2.99-5.97 23.34-37.72 61.07-95.53 37.73-57.53 59.45-99.32 64.61-124.56 3.8-5.43 8.95-9.77 15.74-13.57 6.78-3.8 13.85-7.6 21.45-11.39z"/></g><g fill="#7700a6"><path d="m666.5 553.63c35.29 0 65.15 10.32 89.31 30.94 24.43 20.63 45.33 45.59 62.97 75.44 17.65 29.58 29.86 56.99 37.19 82.5 7.06 25.51 10.58 49.94 10.58 73 0 48.04-10.58 87.66-31.48 119.41-20.9 31.48-42.61 57.53-64.6 77.89-22.27 20.62-47.51 40.43-76.01 59.16 34.48 26.32 64.88 49.66 91.2 70.28 26.61 20.63 51.04 50.75 73.3 90.37 22.53 39.89 33.66 86.3 33.66 139.49 0 58.62-20.63 116.96-62.16 175.58-41.54 58.35-116.45 93.63-225.03 105.57-92.56 5.15-185.4 10.58-278.23 15.74-7.33-.82-11.13-5.7-11.13-14.66 0-5.15 1.9-9.77 5.7-13.57 26.06-3.52 47.23-10.04 63.25-18.99 16.28-8.96 25.78-25.51 28.77-49.39 0-86.3-1.9-188.34-5.7-306.12-3.8-117.5-7.6-242.34-11.4-373.69-3.8-131.61-5.7-231.21-5.7-298.78-2.99-9.77-9.24-16.83-18.46-21.71-9.23-4.89-21.17-7.33-35.29-7.33-6.52 0-11.4.27-14.39 1.09l4.35-12.22c15.74-3.25 34.47-5.7 55.64-7.32 21.45-1.63 40.99-2.45 59.18-2.45 24.7 0 61.61 1.63 111.02 4.89 49.4 3.26 87.41 4.88 113.46 4.88zm-156.62 17.91c-6.79 29.86-11.4 63.24-14.12 100.14-2.44 36.64-3.8 76.53-3.8 120.22v68.39 67.57 16.83 14.65 13.3c0 14.38-.27 28.77-.81 43.96-.54 14.93-1.63 29.04-3.26 42.61 3.8 8.96 8.69 15.2 14.66 18.45 5.98 3.53 13.57 5.16 22.53 5.16 5.97 0 15.74-1.08 29.05-3.53 13.57-2.44 24.42-3.8 32.56-3.8 45.07 0 82.53-15.19 112.38-45.86 30.14-30.66 52.13-64.04 66.24-99.87 14.38-36.09 21.44-64.58 21.44-85.48 0-19.54-2.71-37.99-7.87-56.18-5.16-17.91-16.28-45.86-33.12-84.12-16.82-38.27-47.23-69.75-91.2-94.71-43.98-25.24-92.02-37.73-144.68-37.73zm100.43 550.63c-22.52-6.78-43.7-10.04-64.06-10.04-20.9 0-40.45 3.26-58.36 10.04 0 37.45-1.36 93.08-4.34 167.17-2.99 73.81-4.61 128.9-4.61 164.73 0 44.77.54 75.98 1.62 93.62 1.09 17.37 3.53 42.07 7.33 73.27 11.94 3.8 29.86 5.7 54.02 5.7 25.24 0 53.48-3.8 84.14-11.12 30.68-7.6 62.71-25.24 96.37-52.65 33.93-27.68 53.2-55.63 58.63-83.59 5.16-27.95 8.42-48.3 10.05-60.51 1.36-12.49 2.17-24.97 2.17-37.72 0-45.6-8.69-87.66-26.33-126.47-17.64-39.07-39.09-67.03-64.61-84.12-25.51-17.37-43.7-28.77-54.56-34.2-10.85-5.7-23.35-10.31-37.46-14.11z"/><path d="m1081.27 1288.25c14.38-15.74 32.58-29.58 55.1-42.06 22.53-12.21 43.43-18.45 62.98-18.45 15.74 0 29.04 4.07 40.45 12.48 11.12 8.14 18.72 17.91 23.06 28.77 4.07 10.85 5.97 17.64 5.97 20.35v7.33c0 12.75-4.34 24.69-13.29 36.09-9.23 11.13-20.09 19-32.85 23.61-2.99-2.17-12.21-16.01-27.41-41.25-15.48-24.97-30.95-35.82-46.97-32.02-36.64 9.77-61.61 33.92-74.64 73-13.31 38.81-19.82 86.57-19.82 143.56 0 23.07.27 45.05 1.09 65.67.81 20.36 1.35 40.44 2.17 59.98 2.17 8.95 13.02 14.65 32.3 17.36 19.27 2.45 29.59 4.35 31.22 4.89v21.44l-174.27-1.09c0-8.95 8.42-17.37 25.24-24.69 16.83-7.6 25.25-17.91 25.25-31.48v-275.99c0-15.74-8.15-23.61-24.7-23.61-5.16 0-11.13.54-17.64 1.35-6.8.55-10.6 1.09-11.41 1.09l-3.26-22.53c20.37-8.95 41.8-20.08 64.61-32.83 22.8-12.76 43.97-25.51 63.51-38.54 2.99 6.24 4.36 14.11 4.36 23.88 0 8.14.27 16.29.54 24.16.54 7.87 3.25 14.38 8.41 19.53z"/><path d="m1535.67 1223.67c11.12-3.8 23.62-5.7 36.91-5.7 14.39 0 28.24 3.25 42.08 9.5 13.84 6.24 36.91 24.15 69.22 53.73 32.02 29.31 53.2 88.74 63.51 178.29 10.04 89.29 18.46 146.82 25.25 172.06l38 19.27c-8.14 5.15-20.36 8.68-36.37 11.12-16.02 2.17-32.31 3.26-48.86 3.26-9.78 0-19.55 0-29.32 0s-19.01-.54-27.96-1.09c13.58 0 23.08-4.61 28.5-13.57 5.7-8.95 8.42-20.35 8.42-34.46 0-9.77-.55-20.08-1.9-30.94-1.36-10.85-2.45-21.17-2.99-30.66-2.98-7.33-7.87-10.86-14.65-10.86-7.61 0-15.48 3.26-23.62 10.04-30.68 32.57-66.24 60.25-106.96 83.59-40.44 23.34-78.71 35-114.54 35-21.18 0-42.07-5.15-62.98-15.74-21.17-10.31-37.46-23.06-49.13-38.26-11.67-14.93-17.38-33.92-17.38-57.26 0-22.25 6.26-42.34 19.01-59.97 12.76-17.64 31.49-33.11 55.64-46.41 24.44-13.57 52.4-24.7 84.42-33.11 31.76-8.68 64.07-13.02 96.91-13.02 17.37 0 33.12 1.08 47.23 3.25 14.39 1.9 29.32 5.7 45.06 11.4 6.79-6.78 10.04-14.93 10.04-24.7 0-5.97-2.17-13.56-6.78-22.52-4.34-8.96-13.03-27.95-25.79-57.26-12.76-29.04-46.15-43.69-99.89-43.69-24.7 0-45.87 5.15-63.52 15.74-17.64 10.58-40.72 27.68-69.21 51.02 12.21-27.68 29.03-51.84 50.75-71.92 21.72-20.35 48.59-35.82 80.9-46.13zm93.91 212.49c-22.52-9.77-47.23-14.66-74.1-14.66-34.47 0-66.77 7.33-97.18 22.25-30.13 14.93-50.48 31.21-60.52 48.58-10.06 17.64-15.21 31.21-15.21 40.98 0 11.94 2.98 22.79 8.95 32.84 5.98 10.04 17.38 23.61 34.21 40.16 16.83 16.83 37.73 25.24 62.43 25.24 7.33 0 22.53-2.72 45.33-7.87 22.8-5.16 52.93-22.25 89.85-51.29 37.19-29.04 55.65-57.53 55.65-84.94 0-5.16-1.36-11.67-3.81-19-2.71-7.6-7.59-13.57-14.65-17.91s-17.37-9.23-30.95-14.38z"/><path d="m1945.55 1155.28c6.51-5.97 14.93-24.42 25.25-55.36 10.04-30.94 24.15-46.41 42.07-46.41 8.14 0 17.91 2.17 29.04 6.79 0 17.36-4.34 35.82-12.75 55.9-8.69 20.08-20.9 36.09-36.65 48.03-2.99-.81-10.04-1.62-21.17-2.17-11.41-.81-19.82-2.98-25.79-6.78zm55.92 69.2c.82 68.66 1.9 137.32 3.53 206.25 1.36 68.93 3.26 116.15 5.7 141.93 2.17 25.51 7.87 40.43 17.37 44.51 9.23 4.07 20.64 6.24 34.2 6.24 14.93 0 26.88-1.09 35.84-3.26v10.31c-20.91 12.49-45.33 21.71-73.57 28.23-27.96 6.51-55.64 9.77-82.52 10.04-4.34-18.73-7.6-37.72-9.49-56.72-1.9-19-2.72-41.79-2.72-67.85 0-13.56.27-34.19 1.09-62.41.81-27.95 1.08-48.58 1.08-62.15v-14.65c0-36.64-1.9-64.32-5.7-82.77-3.8-18.73-10.32-28.23-20.09-28.23-4.61 0-11.4 1.09-20.89 2.99-9.24 1.63-14.67 2.71-16.3 2.71-9.77 0-16.82-3.53-21.16-10.04 23.06-8.41 46.41-16.55 69.48-24.69 23.89-10.59 46.15-23.89 66.23-40.44z"/><path d="m2138.28 1322.45c14.11-15.74 38.01-35.28 71.39-58.89 33.66-23.61 53.48-37.72 59.45-42.34 2.98 5.43 4.34 12.49 4.34 20.63 0 6.78.27 13.57.54 20.08.27 6.79 3.26 11.94 8.41 15.74 23.35-13.3 50.77-25.24 82.79-35.82 31.77-10.58 63.26-15.74 93.93-15.74 22.53 0 42.89 3.53 60.8 10.58 18.19 7.06 33.93 18.46 47.23 34.2 13.58 15.74 22.81 32.83 27.69 51.02 4.89 18.45 7.33 39.07 7.33 62.41 0 12.76-1.63 36.64-4.89 72.19-2.98 35.55-4.61 58.89-4.61 70.29 0 13.29.27 25.78 1.09 36.9.81 11.13 2.44 21.99 5.15 32.57 2.72 10.58 7.6 18.72 14.67 24.69 7.05 5.97 18.72 8.96 34.46 8.96 5.44 0 11.68-.54 19.28-1.63 1.63 10.31-1.63 16.83-8.96 19-11.4.81-26.06 3.8-44.51 8.95-18.47 5.16-39.91 7.87-64.88 7.87-8.14 0-14.66-.54-19-1.35-2.99-16.29-4.89-28.23-5.16-35.83-.28-7.32-.55-13.29-.55-17.91 0-17.09 2.44-49.12 7.34-95.25 4.88-46.41 7.33-77.89 7.33-94.44 0-35.01-5.16-64.86-15.21-89.28-10.04-24.16-26.6-43.42-49.4-57.26s-46.69-20.63-71.39-20.63c-33.65 0-61.07 10.58-82.52 31.48-21.44 21.17-36.11 48.04-44.25 80.6-8.41 32.57-12.48 70.02-12.48 112.08 0 27.68.27 46.68 1.08 56.99.82 10.04 3.53 41.79 8.69 95.25 0 8.96 8.95 15.47 26.6 19.54 17.64 4.07 27.15 8.96 28.78 14.11-16.56 1.63-32.58 2.99-48.05 4.62-15.47 1.35-30.13 2.17-44.52 2.17-19.54 0-33.66-.54-42.35-1.63-8.68-1.09-20.08-3.53-34.47-7.33 16.02-16.55 27.15-37.18 33.12-61.6 6.24-24.42 9.22-54.28 9.22-89.55 0-24.16-1.35-56.99-3.79-98.24-2.45-41.25-3.53-67.03-3.53-76.8 0-10.59-2.99-15.74-8.96-15.74-2.98 0-8.95 1.9-17.37 5.7-8.69 3.79-14.39 5.42-17.37 5.42-4.62 0-8.69-2.17-12.49-6.78z"/><path d="m2883.94 1122.99c0 6.24-5.43 18.99-16.28 38.53-10.86 19.54-16.29 33.38-16.29 41.52 0 8.96 2.17 16.28 6.52 21.44h78.72c49.4 0 91.74-.81 127.03-2.71 35.02-1.9 69.76-5.97 104.23-12.49.81 3.53 1.63 8.96 2.44 15.47.54 6.79 1.09 10.86 1.09 12.49 0 7.32-3.53 14.38-10.31 20.62-6.52 6.51-36.38 33.92-88.77 82.5-52.65 48.3-97.71 91.45-135.71 129.18-37.74 37.72-72.21 73.27-102.89 106.92 37.46 9.5 82.25 14.38 134.09 14.38 62.17 0 117.81-6.78 166.41-20.08-14.94 56.45-27.69 104.21-38.55 143.56s-26.87 73-47.78 100.95c-.81-10.58 5.71-30.12 19.55-58.62 13.84-28.49 20.9-48.57 20.9-59.7 0-17.1-10.86-28.49-32.57-34.46h-43.98-38-33.93-27.96-24.71-21.43-19.01-16.83-14.65c-14.12 0-28.51 0-43.16 0-14.66 0-29.05 0-43.44 0h-12.21c28.5-34.74 61.35-70.02 98.81-106.39 37.46-36.09 82.52-78.97 135.45-128.63 52.65-49.93 90.39-87.38 112.92-113.16 0-7.6-3.8-13.03-11.41-16.29-7.32-3.52-16.55-5.15-26.86-5.15h-55.11c-62.16 0-111.29 4.88-147.12 14.65-36.1 9.77-66.78 32.84-92.02 69.48l-10.05-8.96c2.99-5.97 23.35-37.72 61.08-95.53 37.73-57.53 59.44-99.32 64.6-124.56 3.81-5.43 8.96-9.77 15.75-13.57 6.78-3.8 13.84-7.6 21.44-11.39z"/></g></g></svg>