<svg clip-rule="evenodd" fill-rule="evenodd" height="128.5mm" image-rendering="optimizeQuality" shape-rendering="geometricPrecision" text-rendering="geometricPrecision" viewBox="0 0 4572 12850" width="45.72mm" xmlns="http://www.w3.org/2000/svg"><g fill-rule="nonzero"><g fill="#333"><path d="m1369.84 685.14c20.82 0 38.44 6.08 52.69 18.25 14.42 12.17 26.76 26.9 37.16 44.52 10.41 17.45 17.62 33.62 21.94 48.68 4.17 15.05 6.26 29.46 6.26 43.07 0 28.34-6.26 51.72-18.59 70.46-12.33 18.57-25.15 33.95-38.12 45.96-13.13 12.17-28.03 23.86-44.84 34.9 20.34 15.54 38.28 29.31 53.81 41.48 15.7 12.17 30.11 29.94 43.24 53.32 13.3 23.54 19.87 50.92 19.87 82.31 0 34.59-12.17 69.01-36.68 103.6-24.51 34.43-68.72 55.25-132.78 62.29-54.62 3.05-109.4 6.25-164.17 9.29-4.32-.48-6.58-3.36-6.58-8.65 0-3.04 1.13-5.76 3.38-8 15.37-2.08 27.86-5.93 37.31-11.21 9.61-5.29 15.22-15.05 16.98-29.15 0-50.92-1.12-111.13-3.36-180.62-2.24-69.34-4.49-143-6.73-220.5-2.24-77.66-3.36-136.43-3.36-176.3-1.76-5.77-5.45-9.93-10.9-12.81-5.44-2.89-12.49-4.33-20.82-4.33-3.84 0-6.72.16-8.48.64l2.56-7.2c9.29-1.93 20.34-3.37 32.83-4.33 12.66-.96 24.19-1.44 34.91-1.44 14.59 0 36.36.96 65.52 2.88 29.15 1.93 51.57 2.89 66.95 2.89zm-92.42 10.57c-4.01 17.61-6.73 37.31-8.33 59.08-1.44 21.62-2.24 45.16-2.24 70.94v40.35 39.88 9.92 8.65 7.85c0 8.48-.16 16.97-.48 25.94-.32 8.81-.96 17.13-1.92 25.14 2.24 5.28 5.12 8.97 8.64 10.89 3.53 2.08 8.01 3.04 13.3 3.04 3.53 0 9.29-.64 17.14-2.08 8-1.44 14.41-2.24 19.21-2.24 26.6 0 48.7-8.97 66.32-27.07 17.78-18.09 30.75-37.79 39.08-58.92 8.49-21.3 12.65-38.11 12.65-50.44 0-11.53-1.6-22.42-4.64-33.15-3.05-10.57-9.61-27.06-19.54-49.64s-27.87-41.15-53.82-55.89c-25.94-14.89-54.3-22.25-85.37-22.25zm59.26 324.9c-13.3-4-25.79-5.93-37.8-5.93-12.33 0-23.87 1.93-34.43 5.93 0 22.1-.8 54.92-2.57 98.64-1.76 43.55-2.72 76.06-2.72 97.2 0 26.42.32 44.83.96 55.24.64 10.25 2.08 24.82 4.33 43.24 7.04 2.24 17.61 3.36 31.87 3.36 14.89 0 31.56-2.24 49.65-6.56 18.1-4.49 37-14.9 56.86-31.07 20.02-16.33 31.39-32.83 34.6-49.32 3.04-16.49 4.96-28.5 5.92-35.71.8-7.37 1.28-14.73 1.28-22.26 0-26.9-5.12-51.72-15.53-74.62-10.41-23.06-23.07-39.55-38.12-49.64-15.05-10.25-25.79-16.97-32.2-20.17-6.4-3.37-13.77-6.09-22.1-8.33z"/><path d="m1728.13 1115.41c0-13.78 7.53-23.22 22.75-28.67 15.21-5.28 31.87-8 50.13-8-7.53 38.59-11.37 77.18-11.37 115.77 0 19.54.96 37.47 3.04 53.96 1.92 16.34 4.16 29.31 6.57 38.6 2.4 9.28 5.44 13.93 8.96 13.93 6.26-1.28 10.74-1.93 13.3-1.93 2.73 0 4.33.97 4.65 2.73-9.61 10.57-22.75 18.41-39.4 23.54-16.51 5.12-30.28 9.28-41.33 12.33 2.08-9.29 4.17-19.86 6.41-31.87 2.08-11.85 3.2-22.42 3.2-31.71 0-10.24-.8-19.53-2.4-27.86-35.4 41.48-59.58 68.54-72.56 81.03-12.97 12.65-30.75 18.89-53.33 18.89-8.49 0-19.39-2.72-33.16-8.32-13.61-5.45-23.7-15.38-30.12-29.79-6.4-14.25-9.6-32.02-9.6-53.32 0-10.09.8-25.62 2.56-46.28 1.76-20.82 2.56-36.03 2.56-45.8 0-11.85-.96-22.09-2.88-30.42 0-6.25-4.33-9.29-12.97-9.29-1.76 0-3.21 0-4.33 0-.96 0-2.08.32-2.88.64 7.85-7.84 18.42-16.01 31.55-24.18 13.14-8.16 24.83-13.29 35.4-15.53.8 6.25 1.28 12.33 1.28 18.58v18.57c0 9.61-.48 25.78-1.44 48.52s-1.45 35.07-1.45 36.83c0 17.13.81 31.87 2.41 43.88 1.44 12.17 4.48 25.78 8.97 40.83 4.33 14.89 14.74 22.42 31.23 22.42 11.54 0 33-12.17 64.23-36.51 31.24-24.5 46.93-65.66 46.93-123.78 0-3.85 0-7.85-.16-11.53-.16-3.85-.96-11.21-2.24-22.26z"/><path d="m1984.09 683.21v8.97c-1.28.48-4.01.64-8.17.64h-12.02c-7.69 0-11.53 2.4-11.53 7.37 3.36 26.58 5.77 54.28 7.37 83.11 1.6 28.82 2.56 58.44 2.56 89.03 0 36.83-.96 73.82-2.56 110.81s-3.21 77.18-4.97 120.74c-1.6 43.39-2.4 78.14-2.4 104.4 1.76 3.52 4.64 5.29 8.65 5.29 2.72 0 5.28-1.61 8-4.65 30.12-22.9 57.67-45.8 82.65-68.53 25.15-22.74 49.82-47.4 74.16-73.98l39.24 6.72c-15.53 26.9-38.6 49.96-69.34 69.18-30.76 19.21-56.23 35.07-76.08 47.4-1.29 1.28-1.93 2.88-1.93 4.64s.64 2.88 1.93 3.36c30.58 24.34 63.1 50.12 97.53 77.35 34.6 27.38 64.4 46.59 89.7 57.64-15.54 7.05-31.07 10.57-46.45 10.57-27.55 0-61.98-18.89-103.46-56.69-41.65-37.79-67.76-59.56-78.33-65.33-5.6-2.24-11.7 1.12-18.26 10.09-6.73 8.81-9.29 17.77-8.01 26.58.8 13.45 1.92 26.42 3.2 39.39 2.73 12.97 7.37 21.14 14.25 24.66 6.74 3.53 12.02 5.93 15.71 7.05 3.68 1.12 6.4 2.4 8.16 3.68-.8 2.24-1.92 4.33-3.2 6.57s-3.36 3.52-6.4 4h-103.96c.8-.96 7.69-5.92 20.35-15.21 12.81-9.45 19.21-18.42 19.21-27.38v-78.95c0-88.23-.32-157.89-.96-209.13-.64-51.08-2.24-101.68-4.64-151.48s-6.57-104.25-12.17-163.17c-.96-3.05-5.77-5.13-14.58-6.25s-18.58-2.56-29.15-4.32c2.73-2.08 13.29-3.2 32.19-3.52 18.75-.48 32.68-.65 41.97-.65h28.83z"/><path d="m2371.69 1080.5c6.57-2.24 13.94-3.37 21.79-3.37 8.48 0 16.65 1.93 24.83 5.61 8.16 3.68 21.77 14.25 40.84 31.71 18.9 17.29 31.39 52.36 37.47 105.2 5.94 52.68 10.9 86.63 14.9 101.52l22.42 11.37c-4.8 3.04-12.01 5.13-21.46 6.57-9.44 1.28-19.06 1.92-28.83 1.92-5.76 0-11.53 0-17.29 0-5.77 0-11.22-.32-16.51-.64 8.02 0 13.62-2.72 16.83-8.01 3.36-5.28 4.96-12.01 4.96-20.33 0-5.77-.32-11.85-1.12-18.26-.8-6.4-1.44-12.49-1.76-18.09-1.76-4.33-4.65-6.41-8.65-6.41-4.49 0-9.14 1.92-13.94 5.93-18.09 19.21-39.08 35.54-63.1 49.32-23.87 13.77-46.45 20.65-67.6 20.65-12.49 0-24.83-3.04-37.16-9.29-12.49-6.08-22.09-13.61-28.99-22.57-6.89-8.81-10.25-20.02-10.25-33.79 0-13.13 3.68-24.98 11.21-35.39 7.54-10.41 18.59-19.54 32.84-27.38 14.42-8.01 30.91-14.57 49.81-19.54 18.74-5.12 37.8-7.68 57.18-7.68 10.25 0 19.54.64 27.88 1.92 8.48 1.12 17.29 3.36 26.58 6.72 4-4 5.92-8.8 5.92-14.57 0-3.52-1.28-8.01-4-13.29-2.56-5.28-7.69-16.49-15.21-33.79-7.53-17.13-27.23-25.78-58.95-25.78-14.57 0-27.06 3.04-37.48 9.29-10.41 6.24-24.02 16.33-40.84 30.1 7.21-16.33 17.14-30.58 29.95-42.43 12.82-12.01 28.67-21.14 47.73-27.22zm55.42 125.38c-13.3-5.77-27.87-8.65-43.72-8.65-20.35 0-39.4 4.33-57.35 13.13-17.77 8.81-29.78 18.42-35.72 28.67-5.92 10.4-8.96 18.41-8.96 24.18 0 7.04 1.76 13.45 5.28 19.37 3.52 5.93 10.26 13.93 20.19 23.7 9.92 9.93 22.25 14.89 36.84 14.89 4.32 0 13.29-1.6 26.74-4.64 13.46-3.04 31.23-13.13 53.02-30.27 21.94-17.13 32.83-33.94 32.83-50.12 0-3.04-.8-6.88-2.24-11.21-1.61-4.48-4.49-8-8.65-10.56-4.16-2.57-10.25-5.45-18.26-8.49z"/><path d="m2564.85 1079.06h29.64 30.27 22.26c7.21 0 15.06.64 23.55 1.92-6.25 4.48-11.22 9.45-14.74 15.05-3.69 5.6-5.45 11.37-5.45 17.61 0 4.01 5.13 17.3 15.54 40.04 10.41 22.58 21.14 45.95 32.19 70.13 11.22 24.18 25.31 46.76 42.62 67.58 17.61-29.95 35.54-59.89 53.65-89.83 20.02-36.99 29.95-70.46 29.95-100.41v-8c0-3.2 0-7.85 0-14.09h53.98l-149.12 264.21h-9.29c-11.05-20.98-27.07-51.72-48.05-92.23-20.99-40.52-36.36-69.66-45.97-87.44-9.78-17.93-19.54-36.02-29.15-54.44z"/><path d="m3007.4 1080.5c6.56-2.24 13.93-3.37 21.79-3.37 8.48 0 16.65 1.93 24.82 5.61 8.16 3.68 21.78 14.25 40.84 31.71 18.91 17.29 31.4 52.36 37.48 105.2 5.93 52.68 10.89 86.63 14.9 101.52l22.42 11.37c-4.8 3.04-12.01 5.13-21.46 6.57-9.45 1.28-19.06 1.92-28.83 1.92-5.76 0-11.53 0-17.3 0s-11.21-.32-16.5-.64c8.01 0 13.61-2.72 16.82-8.01 3.37-5.28 4.97-12.01 4.97-20.33 0-5.77-.32-11.85-1.12-18.26-.8-6.4-1.44-12.49-1.76-18.09-1.77-4.33-4.66-6.41-8.66-6.41-4.48 0-9.13 1.92-13.93 5.93-18.09 19.21-39.08 35.54-63.11 49.32-23.86 13.77-46.45 20.65-67.59 20.65-12.5 0-24.83-3.04-37.16-9.29-12.5-6.08-22.1-13.61-28.99-22.57-6.89-8.81-10.25-20.02-10.25-33.79 0-13.13 3.68-24.98 11.21-35.39s18.59-19.54 32.84-27.38c14.41-8.01 30.91-14.57 49.81-19.54 18.74-5.12 37.8-7.68 57.18-7.68 10.25 0 19.54.64 27.87 1.92 8.48 1.12 17.3 3.36 26.59 6.72 4-4 5.92-8.8 5.92-14.57 0-3.52-1.28-8.01-4-13.29-2.56-5.28-7.69-16.49-15.21-33.79-7.54-17.13-27.23-25.78-58.95-25.78-14.57 0-27.07 3.04-37.48 9.29-10.41 6.24-24.02 16.33-40.84 30.1 7.2-16.33 17.14-30.58 29.95-42.43 12.81-12.01 28.67-21.14 47.73-27.22zm55.41 125.38c-13.29-5.77-27.86-8.65-43.72-8.65-20.34 0-39.4 4.33-57.34 13.13-17.77 8.81-29.79 18.42-35.72 28.67-5.92 10.4-8.96 18.41-8.96 24.18 0 7.04 1.76 13.45 5.28 19.37 3.52 5.93 10.25 13.93 20.19 23.7 9.92 9.93 22.25 14.89 36.83 14.89 4.33 0 13.3-1.6 26.75-4.64s31.23-13.13 53.01-30.27c21.95-17.13 32.84-33.94 32.84-50.12 0-3.04-.8-6.88-2.24-11.21-1.61-4.48-4.49-8-8.65-10.56-4.16-2.57-10.25-5.45-18.27-8.49z"/><path d="m3315.57 1079.06c12.33 0 23.05 6.08 32.03 18.09 9.13 12.17 17.78 23.86 26.1 35.39-7.04 2.24-16.97-.48-29.95-8.33-13.13-7.68-22.42-11.53-28.18-11.53-17.15 0-32.2 1.44-45.01 4.33-12.82 2.88-25.47 10.41-38.28 22.42-12.82 12.01-19.23 27.7-19.23 47.23 0 9.45 3.69 23.54 11.21 42.44 7.54 18.89 23.23 36.19 47.1 51.72 23.7 15.53 43.89 24.82 60.54 28.02 16.5 3.05 26.43 4.65 29.95 4.65 10.73 0 19.86-3.85 27.56-11.69 7.68-7.85 14.25-14.57 19.53-20.02-2.72 17.62-10.89 32.19-24.83 43.88-13.93 11.69-29.94 17.61-48.05 17.61-63.1 0-102.5-17.93-118.36-53.96-15.86-35.87-23.86-59.89-23.86-71.9 0-10.57 1.6-21.3 4.96-31.87 3.36-10.73 11.05-25.94 23.22-45.95 12.02-20.02 26.11-35.07 42.28-45.16 16.03-10.25 33.16-15.37 51.27-15.37z"/></g><g fill="#dddad6"><path d="m1369.84 675.01c20.82 0 38.44 6.08 52.69 18.25 14.43 12.17 26.76 26.9 37.16 44.52 10.41 17.45 17.63 33.62 21.95 48.68 4.17 15.05 6.25 29.46 6.25 43.07 0 28.34-6.25 51.72-18.59 70.46-12.33 18.57-25.14 33.95-38.12 45.96-13.13 12.17-28.02 23.86-44.84 34.9 20.34 15.54 38.28 29.31 53.82 41.48 15.69 12.17 30.1 29.94 43.24 53.32 13.29 23.54 19.86 50.92 19.86 82.31 0 34.59-12.17 69.01-36.68 103.6-24.5 34.43-68.71 55.25-132.78 62.29-54.61 3.05-109.4 6.25-164.17 9.29-4.32-.48-6.57-3.36-6.57-8.65 0-3.04 1.12-5.76 3.37-8 15.37-2.08 27.87-5.93 37.32-11.21 9.6-5.29 15.21-15.05 16.97-29.15 0-50.92-1.12-111.13-3.36-180.62-2.24-69.34-4.49-143-6.73-220.5-2.24-77.66-3.36-136.43-3.36-176.3-1.76-5.77-5.44-9.93-10.89-12.81-5.45-2.89-12.5-4.33-20.83-4.33-3.84 0-6.72.16-8.48.64l2.56-7.2c9.29-1.93 20.34-3.37 32.84-4.33 12.65-.96 24.18-1.44 34.91-1.44 14.58 0 36.36.96 65.51 2.88 29.15 1.93 51.58 2.89 66.95 2.89zm-92.41 10.57c-4.01 17.61-6.74 37.31-8.34 59.08-1.44 21.62-2.24 45.16-2.24 70.94v40.35 39.88 9.92 8.65 7.85c0 8.48-.16 16.97-.48 25.94-.32 8.81-.96 17.13-1.92 25.14 2.24 5.28 5.12 8.97 8.65 10.89 3.53 2.08 8.01 3.04 13.29 3.04 3.53 0 9.29-.64 17.14-2.08 8-1.44 14.42-2.24 19.22-2.24 26.59 0 48.69-8.97 66.31-27.07 17.78-18.09 30.75-37.79 39.08-58.92 8.5-21.3 12.66-38.11 12.66-50.44 0-11.53-1.6-22.42-4.64-33.15-3.06-10.57-9.62-27.06-19.55-49.64s-27.87-41.15-53.81-55.89c-25.95-14.89-54.31-22.25-85.37-22.25zm59.25 324.9c-13.29-4-25.79-5.93-37.8-5.93-12.33 0-23.86 1.93-34.43 5.93 0 22.1-.8 54.92-2.57 98.64-1.76 43.55-2.72 76.06-2.72 97.2 0 26.42.32 44.83.96 55.24.64 10.25 2.08 24.82 4.33 43.24 7.04 2.24 17.62 3.36 31.87 3.36 14.89 0 31.56-2.24 49.65-6.56 18.11-4.49 37-14.9 56.87-31.07 20.01-16.33 31.39-32.83 34.6-49.32 3.04-16.49 4.96-28.5 5.92-35.71.8-7.37 1.28-14.73 1.28-22.26 0-26.9-5.12-51.72-15.54-74.62-10.41-23.06-23.06-39.55-38.12-49.64-15.05-10.25-25.78-16.97-32.19-20.17-6.41-3.37-13.78-6.09-22.11-8.33z"/><path d="m1728.14 1105.28c0-13.78 7.52-23.22 22.74-28.67 15.22-5.28 31.87-8 50.14-8-7.54 38.59-11.38 77.18-11.38 115.77 0 19.54.96 37.47 3.04 53.96 1.92 16.34 4.16 29.31 6.58 38.6 2.4 9.28 5.44 13.93 8.96 13.93 6.25-1.28 10.73-1.93 13.29-1.93 2.73 0 4.33.97 4.65 2.73-9.61 10.57-22.74 18.41-39.4 23.54-16.5 5.12-30.28 9.28-41.33 12.33 2.08-9.29 4.17-19.86 6.41-31.87 2.08-11.85 3.2-22.42 3.2-31.71 0-10.24-.8-19.53-2.4-27.86-35.39 41.48-59.58 68.54-72.55 81.03-12.98 12.65-30.76 18.89-53.34 18.89-8.49 0-19.38-2.72-33.16-8.32-13.61-5.45-23.7-15.38-30.11-29.79-6.4-14.25-9.61-32.02-9.61-53.32 0-10.09.8-25.62 2.57-46.28 1.76-20.82 2.56-36.03 2.56-45.8 0-11.85-.96-22.09-2.88-30.42 0-6.25-4.34-9.29-12.98-9.29-1.76 0-3.21 0-4.33 0-.96 0-2.08.32-2.88.64 7.85-7.84 18.42-16.01 31.56-24.18 13.13-8.16 24.82-13.29 35.4-15.53.8 6.25 1.28 12.33 1.28 18.58v18.57c0 9.61-.48 25.78-1.44 48.52s-1.45 35.07-1.45 36.83c0 17.13.81 31.87 2.41 43.88 1.44 12.17 4.48 25.78 8.96 40.83 4.33 14.89 14.74 22.42 31.24 22.42 11.53 0 33-12.17 64.22-36.51 31.24-24.5 46.93-65.66 46.93-123.78 0-3.85 0-7.85-.16-11.53-.16-3.85-.96-11.21-2.24-22.26z"/><path d="m1984.09 673.08v8.97c-1.28.48-4.01.64-8.17.64h-12.01c-7.7 0-11.54 2.4-11.54 7.37 3.36 26.58 5.77 54.28 7.38 83.11 1.6 28.82 2.56 58.44 2.56 89.03 0 36.83-.96 73.82-2.56 110.81-1.61 36.99-3.22 77.18-4.98 120.74-1.6 43.39-2.4 78.14-2.4 104.4 1.76 3.52 4.64 5.29 8.66 5.29 2.72 0 5.28-1.61 8-4.65 30.11-22.9 57.66-45.8 82.65-68.53 25.14-22.74 49.81-47.4 74.16-73.98l39.24 6.72c-15.54 26.9-38.6 49.96-69.35 69.18-30.76 19.21-56.23 35.07-76.08 47.4-1.29 1.28-1.93 2.88-1.93 4.64s.64 2.88 1.93 3.36c30.59 24.34 63.11 50.12 97.53 77.35 34.6 27.38 64.4 46.59 89.71 57.64-15.55 7.05-31.08 10.57-46.46 10.57-27.54 0-61.98-18.89-103.46-56.69-41.65-37.79-67.76-59.56-78.33-65.33-5.6-2.24-11.69 1.12-18.25 10.09-6.74 8.81-9.3 17.77-8.02 26.58.8 13.45 1.92 26.42 3.2 39.39 2.73 12.97 7.38 21.14 14.26 24.66 6.73 3.53 12.01 5.93 15.7 7.05 3.68 1.12 6.4 2.4 8.16 3.68-.8 2.24-1.92 4.33-3.2 6.57s-3.36 3.52-6.4 4h-103.95c.8-.96 7.69-5.92 20.34-15.21 12.81-9.45 19.22-18.42 19.22-27.38v-78.95c0-88.23-.32-157.89-.96-209.13-.65-51.08-2.25-101.68-4.65-151.48s-6.57-104.25-12.17-163.17c-.96-3.05-5.77-5.13-14.57-6.25-8.81-1.12-18.59-2.56-29.16-4.32 2.73-2.08 13.29-3.2 32.2-3.52 18.74-.48 32.68-.65 41.96-.65h28.84z"/><path d="m2371.7 1070.37c6.56-2.24 13.93-3.37 21.78-3.37 8.48 0 16.66 1.93 24.83 5.61 8.16 3.68 21.77 14.25 40.84 31.71 18.9 17.29 31.4 52.36 37.48 105.2 5.93 52.68 10.89 86.63 14.89 101.52l22.43 11.37c-4.8 3.04-12.02 5.13-21.47 6.57-9.44 1.28-19.05 1.92-28.83 1.92-5.76 0-11.53 0-17.29 0-5.77 0-11.21-.32-16.5-.64 8.01 0 13.61-2.72 16.82-8.01 3.36-5.28 4.96-12.01 4.96-20.33 0-5.77-.32-11.85-1.12-18.26-.8-6.4-1.44-12.49-1.76-18.09-1.76-4.33-4.65-6.41-8.65-6.41-4.48 0-9.13 1.92-13.93 5.93-18.1 19.21-39.08 35.54-63.11 49.32-23.87 13.77-46.45 20.65-67.6 20.65-12.49 0-24.82-3.04-37.16-9.29-12.49-6.08-22.09-13.61-28.98-22.57-6.89-8.81-10.26-20.02-10.26-33.79 0-13.13 3.69-24.98 11.22-35.39s18.58-19.54 32.84-27.38c14.41-8.01 30.9-14.57 49.81-19.54 18.73-5.12 37.8-7.68 57.17-7.68 10.25 0 19.55.64 27.88 1.92 8.48 1.12 17.29 3.36 26.59 6.72 4-4 5.92-8.8 5.92-14.57 0-3.52-1.28-8.01-4-13.29-2.57-5.28-7.7-16.49-15.22-33.79-7.53-17.13-27.22-25.78-58.94-25.78-14.58 0-27.07 3.04-37.48 9.29-10.41 6.24-24.03 16.33-40.84 30.1 7.2-16.33 17.13-30.58 29.95-42.43 12.81-12.01 28.66-21.14 47.73-27.22zm55.41 125.38c-13.29-5.77-27.87-8.65-43.72-8.65-20.35 0-39.4 4.33-57.34 13.13-17.78 8.81-29.79 18.42-35.72 28.67-5.92 10.4-8.97 18.41-8.97 24.18 0 7.04 1.77 13.45 5.29 19.37 3.52 5.93 10.25 13.93 20.18 23.7 9.92 9.93 22.26 14.89 36.84 14.89 4.32 0 13.29-1.6 26.75-4.64 13.45-3.04 31.22-13.13 53.01-30.27 21.95-17.13 32.84-33.94 32.84-50.12 0-3.04-.8-6.88-2.24-11.21-1.61-4.48-4.49-8-8.65-10.56-4.17-2.57-10.26-5.45-18.27-8.49z"/><path d="m2564.85 1068.93h29.64 30.27 22.27c7.21 0 15.05.64 23.54 1.92-6.25 4.48-11.21 9.45-14.73 15.05-3.69 5.6-5.45 11.37-5.45 17.61 0 4.01 5.13 17.3 15.53 40.04 10.41 22.58 21.15 45.95 32.2 70.13 11.21 24.18 25.3 46.76 42.61 67.58 17.61-29.95 35.55-59.89 53.65-89.83 20.03-36.99 29.95-70.46 29.95-100.41v-8c0-3.2 0-7.85 0-14.09h53.98l-149.11 264.21h-9.3c-11.05-20.98-27.06-51.72-48.05-92.23-20.98-40.52-36.36-69.66-45.97-87.44-9.77-17.93-19.53-36.02-29.15-54.44z"/><path d="m3007.4 1070.37c6.57-2.24 13.94-3.37 21.79-3.37 8.48 0 16.65 1.93 24.83 5.61 8.16 3.68 21.77 14.25 40.84 31.71 18.9 17.29 31.39 52.36 37.48 105.2 5.93 52.68 10.89 86.63 14.89 101.52l22.42 11.37c-4.8 3.04-12.01 5.13-21.46 6.57-9.44 1.28-19.06 1.92-28.83 1.92-5.76 0-11.53 0-17.29 0-5.77 0-11.21-.32-16.51-.64 8.02 0 13.62-2.72 16.83-8.01 3.36-5.28 4.96-12.01 4.96-20.33 0-5.77-.32-11.85-1.12-18.26-.8-6.4-1.44-12.49-1.76-18.09-1.76-4.33-4.65-6.41-8.65-6.41-4.48 0-9.14 1.92-13.94 5.93-18.09 19.21-39.08 35.54-63.1 49.32-23.87 13.77-46.45 20.65-67.6 20.65-12.49 0-24.83-3.04-37.16-9.29-12.49-6.08-22.09-13.61-28.99-22.57-6.89-8.81-10.25-20.02-10.25-33.79 0-13.13 3.68-24.98 11.21-35.39 7.54-10.41 18.59-19.54 32.84-27.38 14.42-8.01 30.91-14.57 49.81-19.54 18.74-5.12 37.8-7.68 57.18-7.68 10.25 0 19.54.64 27.88 1.92 8.48 1.12 17.29 3.36 26.58 6.72 4-4 5.92-8.8 5.92-14.57 0-3.52-1.28-8.01-4-13.29-2.56-5.28-7.69-16.49-15.21-33.79-7.53-17.13-27.23-25.78-58.95-25.78-14.57 0-27.06 3.04-37.47 9.29-10.42 6.24-24.03 16.33-40.84 30.1 7.2-16.33 17.13-30.58 29.94-42.43 12.82-12.01 28.67-21.14 47.73-27.22zm55.42 125.38c-13.3-5.77-27.87-8.65-43.72-8.65-20.35 0-39.4 4.33-57.35 13.13-17.77 8.81-29.78 18.42-35.72 28.67-5.92 10.4-8.96 18.41-8.96 24.18 0 7.04 1.76 13.45 5.28 19.37 3.52 5.93 10.26 13.93 20.19 23.7 9.92 9.93 22.25 14.89 36.84 14.89 4.32 0 13.29-1.6 26.74-4.64 13.46-3.04 31.23-13.13 53.02-30.27 21.94-17.13 32.84-33.94 32.84-50.12 0-3.04-.8-6.88-2.25-11.21-1.61-4.48-4.49-8-8.65-10.56-4.16-2.57-10.25-5.45-18.26-8.49z"/><path d="m3315.57 1068.93c12.33 0 23.06 6.08 32.03 18.09 9.13 12.17 17.78 23.86 26.1 35.39-7.04 2.24-16.97-.48-29.94-8.33-13.14-7.68-22.43-11.53-28.19-11.53-17.14 0-32.2 1.44-45.01 4.33-12.81 2.88-25.47 10.41-38.28 22.42s-19.22 27.7-19.22 47.23c0 9.45 3.69 23.54 11.21 42.44 7.53 18.89 23.22 36.19 47.09 51.72 23.71 15.53 43.89 24.82 60.54 28.02 16.5 3.05 26.43 4.65 29.95 4.65 10.73 0 19.87-3.85 27.56-11.69 7.68-7.85 14.25-14.57 19.53-20.02-2.72 17.62-10.89 32.19-24.82 43.88-13.94 11.69-29.95 17.61-48.05 17.61-63.11 0-102.51-17.93-118.36-53.96-15.87-35.87-23.87-59.89-23.87-71.9 0-10.57 1.6-21.3 4.96-31.87 3.36-10.73 11.05-25.94 23.23-45.95 12.01-20.02 26.1-35.07 42.28-45.16 16.02-10.25 33.16-15.37 51.26-15.37z"/></g></g></svg>