<?xml version="1.0" encoding="UTF-8"?>
<!DOCTYPE svg PUBLIC "-//W3C//DTD SVG 1.1//EN" "http://www.w3.org/Graphics/SVG/1.1/DTD/svg11.dtd">
<!-- Creator: CorelDRAW -->
<svg xmlns="http://www.w3.org/2000/svg" xml:space="preserve" width="4.2915mm" height="5.6985mm" version="1.1" shape-rendering="geometricPrecision" text-rendering="geometricPrecision" image-rendering="optimizeQuality" fill-rule="evenodd" clip-rule="evenodd"
viewBox="0 0 16.26 21.59"
 xmlns:xlink="http://www.w3.org/1999/xlink"
 xmlns:xodm="http://www.corel.com/coreldraw/odm/2003">
 <g id="Lights">
  <metadata id="CorelCorpID_0Corel-Layer"/>
  <path fill="#00A7FF" fill-rule="nonzero" d="M1.27 21.59c-0.2,0 -0.32,-0.02 -0.37,-0.07 -0.05,-0.05 -0.07,-0.17 -0.07,-0.37l0 -3.58 -0.3 0c-0.24,0 -0.38,-0.02 -0.44,-0.07 -0.06,-0.05 -0.09,-0.18 -0.09,-0.4l0 -1.72c0,-0.22 0.02,-0.35 0.07,-0.4 0.05,-0.05 0.18,-0.07 0.4,-0.07l5.6 0 0 -2.55 -4.29 0c-0.24,0 -0.38,-0.03 -0.44,-0.09 -0.06,-0.06 -0.09,-0.19 -0.09,-0.39l0 -1.36c0,-0.22 0.02,-0.35 0.07,-0.4 0.05,-0.05 0.18,-0.07 0.4,-0.07l4.35 0 0 -3.14 -5.54 0c-0.24,0 -0.38,-0.03 -0.44,-0.09 -0.06,-0.06 -0.09,-0.19 -0.09,-0.38l0 -1.95c0,-0.22 0.02,-0.35 0.07,-0.4 0.05,-0.05 0.18,-0.07 0.4,-0.07l0.59 0 0 -3.17c0,-0.24 0.02,-0.38 0.07,-0.44 0.05,-0.06 0.18,-0.09 0.4,-0.09l1.72 0c0.24,0 0.38,0.02 0.41,0.07 0.04,0.05 0.06,0.18 0.06,0.4l0 3.23 0.65 0 0 -2.87c0,-0.24 0.03,-0.38 0.09,-0.44 0.06,-0.06 0.19,-0.09 0.38,-0.09l1.66 0c0.24,0 0.38,0.02 0.41,0.07 0.04,0.05 0.06,0.18 0.06,0.4l0 2.93 1.54 0 0 -3.17c0,-0.24 0.02,-0.38 0.07,-0.44 0.05,-0.06 0.18,-0.09 0.4,-0.09l1.95 0c0.24,0 0.38,0.02 0.41,0.07 0.04,0.05 0.06,0.18 0.06,0.4l0 3.23 1.07 0 0 -3.46c0,-0.24 0.03,-0.39 0.09,-0.44 0.06,-0.06 0.19,-0.09 0.38,-0.09l1.36 0c0.22,0 0.35,0.02 0.4,0.07 0.05,0.05 0.07,0.18 0.07,0.4l0 3.52 1.04 0c0.2,0 0.32,0.01 0.36,0.04 0.04,0.03 0.06,0.11 0.06,0.25l0 2.16c0,0.2 -0.02,0.32 -0.06,0.37 -0.04,0.05 -0.17,0.07 -0.39,0.07l-6.43 0 0 8 5.86 0c0.2,0 0.32,0.01 0.36,0.04 0.04,0.03 0.06,0.11 0.06,0.25l0 1.92c0,0.2 -0.02,0.32 -0.06,0.37 -0.04,0.05 -0.17,0.07 -0.38,0.07l-1.21 0 0 3.61c0,0.2 -0.01,0.32 -0.04,0.36 -0.03,0.04 -0.11,0.06 -0.25,0.06l-1.66 0c-0.2,0 -0.32,-0.02 -0.37,-0.07 -0.05,-0.05 -0.07,-0.17 -0.07,-0.37l0 -3.58 -0.47 0 0 3.61c0,0.2 -0.01,0.32 -0.04,0.36 -0.03,0.04 -0.11,0.06 -0.25,0.06l-1.87 0c-0.2,0 -0.32,-0.02 -0.37,-0.07 -0.05,-0.05 -0.07,-0.17 -0.07,-0.37l0 -3.58 -1.24 0 0 3.61c0,0.2 -0.01,0.32 -0.04,0.36 -0.03,0.04 -0.11,0.06 -0.25,0.06l-2.04 0c-0.2,0 -0.32,-0.02 -0.37,-0.07 -0.05,-0.05 -0.07,-0.17 -0.07,-0.37l0 -3.58 -0.77 0 0 3.61c0,0.2 -0.01,0.32 -0.04,0.36 -0.03,0.04 -0.11,0.06 -0.25,0.06l-2.16 0zm0.41 -0.86l1.24 0 0 -4 2.43 0 0 4 1.13 0 0 -4 2.9 0 0 4 0.95 0 0 -4 2.13 0 0 4 0.74 0 0 -4 1.6 0 0 -1.01 -6.22 0 0 -9.65 6.81 0 0 -1.24 -1.42 0 0 -4 -0.65 0 0 4 -2.72 0 0 -3.7 -1.24 0 0 3.7 -3.2 0 0 -3.41 -0.95 0 0 3.41 -2.31 0 0 -3.7 -1.01 0 0 3.7 -1.07 0 0 1.24 6.07 0 0 4.8 -4.83 0 0 0.65 4.83 0 0 4.21 -6.07 0 0 1.01 0.86 0 0 4 0 0z"/>
 </g>
</svg>
