<svg clip-rule="evenodd" fill-rule="evenodd" height="5.6985mm" image-rendering="optimizeQuality" shape-rendering="geometricPrecision" text-rendering="geometricPrecision" viewBox="0 0 79.01 104.91" width="4.2915mm" xmlns="http://www.w3.org/2000/svg"><path d="m6.19 104.91c-.96 0-1.56-.12-1.8-.36s-.36-.84-.36-1.8v-17.41h-1.44c-1.15 0-1.87-.12-2.16-.36s-.43-.89-.43-1.94v-8.35c0-1.05.12-1.7.36-1.94s.89-.36 1.94-.36h27.2v-12.38h-20.87c-1.15 0-1.87-.14-2.16-.43s-.43-.91-.43-1.87v-6.62c0-1.06.12-1.7.36-1.94s.89-.36 1.94-.36h21.16v-15.26h-26.91c-1.15 0-1.87-.14-2.16-.43s-.43-.91-.43-1.87v-9.5c0-1.05.12-1.7.36-1.94s.89-.36 1.94-.36h2.88v-15.4c0-1.15.12-1.87.36-2.16s.89-.43 1.94-.43h8.35c1.15 0 1.82.12 2.01.36s.29.89.29 1.94v15.69h3.17v-13.96c0-1.15.14-1.87.43-2.16s.91-.43 1.87-.43h8.06c1.15 0 1.82.12 2.02.36.19.24.29.89.29 1.94v14.25h7.48v-15.4c0-1.15.12-1.87.36-2.16s.89-.43 1.94-.43h9.5c1.15 0 1.82.12 2.01.36s.29.89.29 1.94v15.69h5.18v-16.84c0-1.15.15-1.87.43-2.16.29-.29.91-.43 1.87-.43h6.62c1.05 0 1.7.12 1.94.36s.36.89.36 1.94v17.13h5.04c.96 0 1.53.07 1.73.22.19.14.29.55.29 1.22v10.51c0 .96-.1 1.56-.29 1.8s-.82.36-1.87.36h-31.23v38.86h28.49c.96 0 1.54.07 1.73.22.19.14.29.55.29 1.22v9.35c0 .96-.1 1.56-.29 1.8s-.82.36-1.87.36h-5.9v17.56c0 .96-.07 1.53-.22 1.73-.14.19-.55.29-1.22.29h-8.06c-.96 0-1.56-.12-1.8-.36s-.36-.84-.36-1.8v-17.41h-2.3v17.56c0 .96-.07 1.53-.22 1.73-.14.19-.55.29-1.22.29h-9.07c-.96 0-1.56-.12-1.8-.36s-.36-.84-.36-1.8v-17.41h-6.04v17.56c0 .96-.07 1.53-.22 1.73-.14.19-.55.29-1.22.29h-9.93c-.96 0-1.56-.12-1.8-.36s-.36-.84-.36-1.8v-17.41h-3.74v17.56c0 .96-.07 1.53-.22 1.73-.14.19-.55.29-1.22.29h-10.51zm2.02-4.17h6.04v-19.43h11.8v19.43h5.47v-19.43h14.1v19.43h4.6v-19.43h10.36v19.43h3.6v-19.43h7.77v-4.89h-30.22v-46.92h33.1v-6.04h-6.91v-19.43h-3.17v19.43h-13.24v-17.99h-6.04v17.99h-15.54v-16.55h-4.6v16.55h-11.23v-17.99h-4.89v17.99h-5.18v6.04h29.5v23.32h-23.46v3.16h23.46v20.44h-29.5v4.89h4.17v19.43z" fill="#e6e6e6" fill-rule="nonzero"/></svg>