<svg clip-rule="evenodd" fill-rule="evenodd" height="5.6985mm" image-rendering="optimizeQuality" shape-rendering="geometricPrecision" text-rendering="geometricPrecision" viewBox="0 0 16.26 21.59" width="4.2915mm" xmlns="http://www.w3.org/2000/svg"><path d="m1.27 21.59c-.2 0-.32-.02-.37-.07s-.07-.17-.07-.37v-3.58h-.3c-.24 0-.38-.02-.44-.07s-.09-.18-.09-.4v-1.72c0-.22.02-.35.07-.4s.18-.07.4-.07h5.6v-2.55h-4.29c-.24 0-.38-.03-.44-.09s-.09-.19-.09-.39v-1.36c0-.22.02-.35.07-.4s.18-.07.4-.07h4.35v-3.14h-5.54c-.24 0-.38-.03-.44-.09s-.09-.19-.09-.38v-1.95c0-.22.02-.35.07-.4s.18-.07.4-.07h.59v-3.17c0-.24.02-.38.07-.44s.18-.09.4-.09h1.72c.24 0 .38.02.41.07.04.05.06.18.06.4v3.23h.65v-2.87c0-.24.03-.38.09-.44s.19-.09.38-.09h1.66c.24 0 .38.02.41.07.04.05.06.18.06.4v2.93h1.54v-3.17c0-.24.02-.38.07-.44s.18-.09.4-.09h1.95c.24 0 .38.02.41.07.04.05.06.18.06.4v3.23h1.07v-3.46c0-.24.03-.39.09-.44.06-.06.19-.09.38-.09h1.36c.22 0 .35.02.4.07s.07.18.07.4v3.52h1.04c.2 0 .32.01.36.04s.06.11.06.25v2.16c0 .2-.02.32-.06.37s-.17.07-.39.07h-6.43v8h5.86c.2 0 .32.01.36.04s.06.11.06.25v1.92c0 .2-.02.32-.06.37s-.17.07-.38.07h-1.21v3.61c0 .2-.01.32-.04.36s-.11.06-.25.06h-1.66c-.2 0-.32-.02-.37-.07s-.07-.17-.07-.37v-3.58h-.47v3.61c0 .2-.01.32-.04.36s-.11.06-.25.06h-1.87c-.2 0-.32-.02-.37-.07s-.07-.17-.07-.37v-3.58h-1.24v3.61c0 .2-.01.32-.04.36s-.11.06-.25.06h-2.04c-.2 0-.32-.02-.37-.07s-.07-.17-.07-.37v-3.58h-.77v3.61c0 .2-.01.32-.04.36s-.11.06-.25.06h-2.16zm.41-.86h1.24v-4h2.43v4h1.13v-4h2.9v4h.95v-4h2.13v4h.74v-4h1.6v-1.01h-6.22v-9.65h6.81v-1.24h-1.42v-4h-.65v4h-2.72v-3.7h-1.24v3.7h-3.2v-3.41h-.95v3.41h-2.31v-3.7h-1.01v3.7h-1.07v1.24h6.07v4.8h-4.83v.65h4.83v4.21h-6.07v1.01h.86v4z" fill="#00a7ff" fill-rule="nonzero"/></svg>