<svg clip-rule="evenodd" fill-rule="evenodd" height="128.5mm" image-rendering="optimizeQuality" shape-rendering="geometricPrecision" text-rendering="geometricPrecision" viewBox="0 0 11176 12850" width="111.76mm" xmlns="http://www.w3.org/2000/svg" xmlns:xlink="http://www.w3.org/1999/xlink"><linearGradient id="a"><stop offset="0"/><stop offset=".768627" stop-color="#262626"/><stop offset="1" stop-color="#4d4d4d"/></linearGradient><linearGradient id="b" gradientUnits="userSpaceOnUse" x1="2830.88" x2="2830.88" xlink:href="#a" y1="4886.97" y2="1013.49"/><linearGradient id="c"><stop offset="0" stop-color="#620000"/><stop offset=".34902" stop-color="#3e0000"/><stop offset="1" stop-color="#1a0000"/></linearGradient><linearGradient id="d" gradientUnits="userSpaceOnUse" x1="2428.13" x2="2428.13" xlink:href="#c" y1="4988.53" y2="6430.99"/><linearGradient id="e" gradientUnits="userSpaceOnUse" x1="2830.88" x2="2830.88" xlink:href="#a" y1="10835.31" y2="6961.83"/><linearGradient id="f" gradientUnits="userSpaceOnUse" x1="2363.85" x2="2363.85" xlink:href="#c" y1="10936.87" y2="12379.33"/><linearGradient id="g" gradientUnits="userSpaceOnUse" x1="8345.48" x2="8345.48" xlink:href="#a" y1="4886.97" y2="1013.49"/><linearGradient id="h" gradientUnits="userSpaceOnUse" x1="8748.26" x2="8748.26" xlink:href="#c" y1="4988.53" y2="6430.99"/><linearGradient id="i" gradientUnits="userSpaceOnUse" x1="8345.48" x2="8345.48" xlink:href="#a" y1="10835.31" y2="6961.83"/><linearGradient id="j" gradientUnits="userSpaceOnUse" x1="8748.26" x2="8748.26" xlink:href="#c" y1="10936.87" y2="12379.33"/><g fill-rule="nonzero"><g fill="#333"><path d="m2090.83 12456.61c16.63-14.73 34.95-22.13 55.17-22.13h5.79c1.83 0 4.04.22 6.67.59 1.03 2.27 1.84 4.84 2.57 7.91.73 3.01 1.1 5.72 1.1 8.13 0 2.42-.44 4.47-1.25 6.08-8.29-6.08-17.81-9.08-28.5-9.08-11.36 0-21.55 2.78-30.56 8.35-8.94 5.57-15.24 10.62-18.76 15.16-3.59 4.55-6.15 9.6-7.91 15.17-1.69 5.49-2.86 10.33-3.52 14.36-.59 4.03-.88 7.61-.88 10.62 0 17.21 9.02 33.62 26.97 49.45 16.77 13.11 33.56 26.22 50.33 39.41 18.25 16.33 27.34 33.91 27.34 52.74v7.84c-.59 2.64-1.69 8.42-3.3 17.43-1.69 9.01-7.69 20-18.25 32.89-10.48 12.97-24.03 21.03-40.59 24.25-1.25.44-3.3.81-6.38 1.1-3 .29-5.93.44-8.79.44-9.45 0-18.24-1.68-26.38-5.13-8.06-3.37-16.41-8.2-25.13-14.43 3.45-5.57 6.08-9.45 7.99-11.57 1.98-2.13 4.03-3.15 6.22-3.15.81 0 2.2.36 4.25 1.17 12.91 13.26 29.24 19.92 49.02 19.92h4.55c2.42-.43 8.57-1.24 18.61-2.56 9.96-1.32 16.63-7.54 19.94-18.68 3.36-11.13 5.27-18.39 5.93-21.83.58-3.44.88-6.74.88-10.04 0-15.75-7.18-30.4-21.48-43.95-14.5-11.28-29.6-23.44-45.2-36.41-15.61-12.89-25.21-25.78-28.73-38.53-3.52-12.67-5.27-24.1-5.27-34.21 0-12.16 2.19-23.22 6.52-33.26 4.32-9.96 11.36-19.34 21.03-28.05z"/><path d="m2281.81 12617.99c3-1.03 6.37-1.54 9.96-1.54 3.88 0 7.62.88 11.36 2.56 3.73 1.69 9.96 6.52 18.69 14.51 8.64 7.91 14.35 23.95 17.14 48.13 2.71 24.1 4.98 39.63 6.81 46.44l10.26 5.2c-2.2 1.39-5.5 2.35-9.82 3-4.32.59-8.72.88-13.19.88-2.63 0-5.27 0-7.91 0s-5.13-.14-7.54-.29c3.66 0 6.22-1.24 7.69-3.66 1.54-2.42 2.27-5.5 2.27-9.31 0-2.63-.15-5.42-.51-8.35-.37-2.93-.66-5.71-.81-8.27-.81-1.98-2.12-2.93-3.96-2.93-2.05 0-4.17.87-6.38 2.71-8.28 8.79-17.87 16.26-28.86 22.56-10.93 6.3-21.25 9.45-30.92 9.45-5.72 0-11.36-1.39-17-4.25-5.72-2.78-10.12-6.23-13.27-10.33-3.15-4.03-4.69-9.16-4.69-15.46 0-6 1.69-11.42 5.13-16.19 3.44-4.76 8.5-8.93 15.03-12.52 6.59-3.66 14.14-6.67 22.78-8.94 8.57-2.34 17.3-3.52 26.16-3.52 4.69 0 8.94.3 12.75.88 3.88.52 7.91 1.54 12.16 3.08 1.83-1.83 2.72-4.03 2.72-6.67 0-1.61-.6-3.66-1.84-6.08-1.17-2.41-3.52-7.54-6.96-15.45-3.44-7.84-12.45-11.8-26.96-11.8-6.68 0-12.39 1.4-17.15 4.25-4.76 2.86-10.99 7.47-18.68 13.77 3.3-7.47 7.84-13.99 13.7-19.41 5.86-5.49 13.11-9.67 21.84-12.45zm25.34 57.36c-6.08-2.64-12.74-3.96-19.99-3.96-9.31 0-18.04 1.98-26.24 6.01-8.13 4.03-13.63 8.42-16.34 13.11-2.71 4.76-4.1 8.42-4.1 11.06 0 3.23.81 6.16 2.42 8.87s4.69 6.37 9.23 10.84c4.54 4.54 10.18 6.81 16.85 6.81 1.98 0 6.08-.73 12.24-2.12 6.16-1.4 14.29-6.01 24.25-13.85 10.04-7.84 15.03-15.53 15.03-22.93 0-1.39-.37-3.15-1.03-5.13-.73-2.05-2.05-3.66-3.96-4.83s-4.69-2.49-8.36-3.88z"/><path d="m2402.73 12644.65c3.81-4.25 10.26-9.52 19.27-15.89 9.08-6.38 14.43-10.19 16.04-11.43.82 1.46 1.18 3.37 1.18 5.57 0 1.83.08 3.66.15 5.42.07 1.83.88 3.22 2.27 4.25 6.3-3.59 13.7-6.82 22.34-9.67 8.57-2.86 17.08-4.25 25.36-4.25 6.08 0 11.57.95 16.41 2.85 4.91 1.91 9.16 4.99 12.75 9.23 3.67 4.25 6.16 8.87 7.48 13.78 1.32 4.98 1.98 10.55 1.98 16.85 0 3.44-.44 9.88-1.32 19.48-.81 9.6-1.25 15.9-1.25 18.97 0 3.59.07 6.96.29 9.97.22 3 .66 5.93 1.4 8.79.73 2.85 2.05 5.05 3.95 6.66 1.91 1.62 5.06 2.42 9.31 2.42 1.46 0 3.15-.15 5.2-.44.44 2.78-.44 4.54-2.42 5.13-3.08.22-7.03 1.02-12.01 2.42-4.99 1.39-10.77 2.12-17.52 2.12-2.2 0-3.96-.15-5.13-.37-.81-4.39-1.32-7.61-1.39-9.66-.08-1.98-.15-3.59-.15-4.84 0-4.61.66-13.26 1.98-25.71 1.32-12.53 1.98-21.03 1.98-25.5 0-9.44-1.39-17.5-4.11-24.1-2.71-6.52-7.17-11.72-13.33-15.45-6.15-3.74-12.6-5.57-19.27-5.57-9.09 0-16.49 2.86-22.27 8.5-5.79 5.71-9.75 12.96-11.94 21.75-2.28 8.79-3.38 18.9-3.38 30.26 0 7.47.07 12.6.29 15.38.22 2.71.95 11.28 2.35 25.71 0 2.42 2.42 4.18 7.18 5.28s7.33 2.42 7.77 3.81c-4.47.44-8.79.8-12.97 1.24-4.18.37-8.14.59-12.02.59-5.28 0-9.09-.15-11.43-.44s-5.42-.95-9.3-1.98c4.32-4.47 7.32-10.03 8.93-16.63 1.69-6.59 2.49-14.65 2.49-24.17 0-6.52-.36-15.38-1.02-26.52-.66-11.13-.95-18.09-.95-20.73 0-2.86-.81-4.25-2.42-4.25-.81 0-2.42.51-4.69 1.54-2.34 1.02-3.88 1.46-4.69 1.46-1.24 0-2.34-.58-3.37-1.83z"/><path d="m2641.04 12620.85h35.02 34.66c-.37 2.93-3.74 4.76-10.04 5.49-6.37.73-9.08 3.3-8.06 7.62 5.42 5.27 9.6 9.81 12.38 13.62 2.86 3.89 4.47 7.4 4.91 10.63.37 3.22.59 5.64.59 7.25 0 8.06-3.37 15.45-10.04 22.12s-12.09 12.01-16.34 16.04c16.05 10.48 26.74 20.08 32.24 28.65s8.21 17.72 8.21 27.39c0 12.75-3.52 23.37-10.63 31.87s-16.19 15.82-27.32 22.12c-11.15 6.23-20.53 9.38-28.22 9.38-3.88 0-7.84-.44-12.01-1.39-4.1-.88-8.73-2.27-13.78-4.18-5.06-1.9-9.82-5.2-14.29-9.81-4.83-5.87-8.72-10.26-11.5-13.26-.66-2.2-.22-4.4 1.17-6.52 1.39-2.05 2.79-4.18 4.11-6.16 13.99 13.7 23.73 22.64 29.31 26.74 5.56 4.18 14.21 6.23 25.93 6.23 7.91 0 14.81-2.2 20.81-6.67 5.94-4.47 10.77-10.25 14.51-17.29 3.73-7.1 5.64-14.35 5.64-21.83 0-6.88-2.64-15.38-7.84-25.49-5.27-10.11-14.06-17.29-26.38-21.39-12.31-4.18-28.5-6.23-48.51-6.23-4.24.44-8.27 1.1-12.08 2.05-3.81.88-7.55 1.98-11.21 3.23 2.2-3.3 4.17-6.74 5.93-10.4 1.83-3.67 2.2-6.52 1.17-8.58-3.8-4.83-7.61-9.81-11.43-14.87-3.81-5.86-5.72-11.72-5.72-17.58v-3c1.25-12.75 6.45-23.59 15.76-32.45 9.31-8.87 20.29-13.33 33.05-13.33zm-7.92 14.06c-5.42 0-9.38.73-11.94 2.12-2.49 1.4-5.28 4.25-8.43 8.5-3.15 4.18-4.68 8.72-4.68 13.55 0 4.03 2.41 9.53 7.25 16.34 4.83 6.89 10.99 12.67 18.46 17.43 7.48 4.77 15.83 7.11 25.06 7.11 3.88 0 9.09-.66 15.75-1.98 6.68-1.32 11.59-4.47 14.81-9.52 3.22-5.06 4.83-9.16 4.83-12.38 0-4.69-1.83-9.23-5.56-13.77-3.74-4.54-7.78-9.01-11.95-13.48-4.25-4.47-9.97-7.84-17.07-10.26-7.18-2.41-15.97-3.66-26.53-3.66z"/><path d="m2858.24 12633.96c0-6.3 3.44-10.62 10.4-13.11 6.96-2.42 14.59-3.67 22.94-3.67-3.44 17.66-5.2 35.31-5.2 52.97 0 8.93.44 17.14 1.39 24.68.88 7.47 1.91 13.41 3 17.66 1.1 4.25 2.49 6.37 4.11 6.37 2.85-.59 4.9-.88 6.08-.88 1.24 0 1.97.44 2.12 1.25-4.39 4.83-10.4 8.42-18.02 10.76-7.55 2.35-13.85 4.25-18.91 5.65.95-4.25 1.91-9.09 2.93-14.58.95-5.42 1.47-10.26 1.47-14.51 0-4.68-.37-8.93-1.1-12.74-16.19 18.97-27.26 31.35-33.2 37.06-5.93 5.79-14.06 8.65-24.39 8.65-3.88 0-8.87-1.25-15.18-3.81-6.22-2.49-10.84-7.03-13.77-13.63-2.93-6.52-4.39-14.65-4.39-24.39 0-4.62.36-11.72 1.17-21.17.81-9.52 1.17-16.48 1.17-20.95 0-5.42-.44-10.11-1.32-13.92 0-2.86-1.97-4.25-5.93-4.25-.81 0-1.47 0-1.98 0-.44 0-.95.15-1.32.29 3.59-3.59 8.43-7.32 14.43-11.06 6.01-3.73 11.36-6.08 16.19-7.1.37 2.85.59 5.64.59 8.49v8.5c0 4.4-.22 11.8-.66 22.2s-.66 16.04-.66 16.85c0 7.83.37 14.57 1.1 20.07.66 5.57 2.06 11.79 4.11 18.68 1.98 6.81 6.74 10.25 14.29 10.25 5.27 0 15.09-5.56 29.38-16.7 14.29-11.21 21.47-30.03 21.47-56.62 0-1.76 0-3.59-.08-5.28-.07-1.76-.44-5.13-1.02-10.18z"/><path d="m2971.69 12599.53c1.76-1.61 4.03-6.6 6.81-14.95 2.72-8.35 6.52-12.52 11.36-12.52 2.2 0 4.83.58 7.84 1.83 0 4.69-1.17 9.67-3.45 15.09-2.34 5.42-5.64 9.74-9.88 12.97-.81-.22-2.72-.44-5.72-.59-3.08-.22-5.35-.81-6.96-1.83zm15.09 18.68c.22 18.53.52 37.06.95 55.67.37 18.61.88 31.35 1.54 38.31.59 6.89 2.13 10.92 4.69 12.02 2.49 1.1 5.57 1.68 9.23 1.68 4.04 0 7.26-.29 9.68-.88v2.79c-5.64 3.37-12.24 5.86-19.86 7.62-7.55 1.75-15.02 2.63-22.27 2.71-1.17-5.06-2.05-10.19-2.56-15.31-.52-5.13-.74-11.29-.74-18.32 0-3.66.08-9.23.3-16.85.22-7.54.29-13.11.29-16.77v-3.96c0-9.89-.51-17.36-1.54-22.34-1.02-5.05-2.79-7.62-5.43-7.62-1.25 0-3.08.29-5.64.81-2.49.44-3.96.73-4.4.73-2.63 0-4.54-.95-5.71-2.71 6.23-2.27 12.53-4.47 18.76-6.67 6.45-2.85 12.46-6.44 17.88-10.91z"/><path d="m3056.27 12644.65c3.81-4.25 10.26-9.52 19.27-15.89 9.08-6.38 14.44-10.19 16.05-11.43.81 1.46 1.17 3.37 1.17 5.57 0 1.83.08 3.66.15 5.42.07 1.83.88 3.22 2.27 4.25 6.3-3.59 13.7-6.82 22.34-9.67 8.58-2.86 17.08-4.25 25.36-4.25 6.08 0 11.57.95 16.41 2.85 4.91 1.91 9.17 4.99 12.76 9.23 3.66 4.25 6.15 8.87 7.47 13.78 1.32 4.98 1.98 10.55 1.98 16.85 0 3.44-.44 9.88-1.32 19.48-.81 9.6-1.25 15.9-1.25 18.97 0 3.59.07 6.96.29 9.97.22 3 .66 5.93 1.4 8.79.73 2.85 2.05 5.05 3.95 6.66 1.91 1.62 5.06 2.42 9.31 2.42 1.46 0 3.15-.15 5.2-.44.44 2.78-.44 4.54-2.42 5.13-3.08.22-7.03 1.02-12.01 2.42-4.99 1.39-10.77 2.12-17.51 2.12-2.21 0-3.97-.15-5.14-.37-.81-4.39-1.32-7.61-1.39-9.66-.08-1.98-.15-3.59-.15-4.84 0-4.61.66-13.26 1.98-25.71 1.32-12.53 1.98-21.03 1.98-25.5 0-9.44-1.39-17.5-4.11-24.1-2.71-6.52-7.17-11.72-13.33-15.45-6.15-3.74-12.6-5.57-19.26-5.57-9.1 0-16.5 2.86-22.28 8.5-5.79 5.71-9.75 12.96-11.94 21.75-2.27 8.79-3.37 18.9-3.37 30.26 0 7.47.07 12.6.29 15.38.22 2.71.95 11.28 2.34 25.71 0 2.42 2.42 4.18 7.18 5.28s7.33 2.42 7.77 3.81c-4.47.44-8.79.8-12.97 1.24-4.17.37-8.13.59-12.02.59-5.28 0-9.09-.15-11.43-.44s-5.42-.95-9.3-1.98c4.32-4.47 7.32-10.03 8.93-16.63 1.69-6.59 2.49-14.65 2.49-24.17 0-6.52-.36-15.38-1.02-26.52-.66-11.13-.95-18.09-.95-20.73 0-2.86-.81-4.25-2.42-4.25-.81 0-2.42.51-4.69 1.54-2.34 1.02-3.88 1.46-4.69 1.46-1.24 0-2.34-.58-3.37-1.83z"/><path d="m3284.61 12622.46c5.28-3.45 10.92-5.13 17-5.13 6.45 0 12.75 1.54 18.9 4.54 6.16 3.08 13.49 7.47 21.99 13.33-6.45 7.55-19.06 19.2-37.81 35.09-18.69 15.9-29.97 25.86-33.85 29.89 4.24 6.45 9.45 11.79 15.53 15.9 6.01 4.17 11.43 6.52 16.2 7.18 4.76.58 8.35.87 10.84.87 5.42 0 10.03-.73 13.77-2.27 3.75-1.46 12.46-6.44 26.01-14.87-4.24 5.42-7.91 9.75-10.91 12.9-3.08 3.15-6.3 5.2-9.74 6.37-3.45 1.1-9.54 3.37-18.33 6.81s-15.38 5.13-19.85 5.13c-2.86 0-4.91-.15-6.23-.44s-5.21-1.98-11.65-4.91c-6.52-2.93-13.19-9.01-20.15-18.17-7.03-9.23-10.78-16.84-11.44-22.92-.58-6.08-.88-10.33-.88-12.75 0-11.79 3.53-21.98 10.49-30.55 6.96-8.64 17-17.29 30.11-26zm18.54 10.69c-4.03-2.64-8.64-3.95-13.7-3.95-8.94 0-16.27 3.66-21.98 11.06-5.64 7.4-8.5 15.82-8.5 25.34 0 9.31 2.86 18.39 8.57 27.33 8.72-5.5 18.75-13.63 30.12-24.47 11.35-10.77 18.97-17.73 22.85-20.73-1.83-2.86-3.95-5.2-6.37-7.18-2.49-1.9-6.08-4.39-10.99-7.4z"/></g><g fill="#dddad6"><path d="m2077.89 12453.18c16.63-14.73 34.95-22.13 55.17-22.13h5.79c1.83 0 4.04.22 6.67.59 1.03 2.27 1.84 4.84 2.57 7.91.73 3.01 1.1 5.72 1.1 8.13 0 2.42-.44 4.47-1.25 6.08-8.29-6.08-17.81-9.08-28.5-9.08-11.36 0-21.55 2.78-30.56 8.35-8.94 5.57-15.24 10.62-18.76 15.16-3.59 4.55-6.15 9.6-7.91 15.17-1.68 5.49-2.86 10.33-3.52 14.36-.59 4.03-.88 7.61-.88 10.62 0 17.21 9.02 33.62 26.97 49.45 16.78 13.11 33.56 26.22 50.33 39.41 18.25 16.33 27.34 33.91 27.34 52.74v7.84c-.59 2.64-1.69 8.42-3.3 17.43-1.69 9.01-7.69 20-18.25 32.89-10.48 12.97-24.03 21.03-40.59 24.25-1.25.44-3.3.81-6.38 1.1-3 .29-5.93.44-8.79.44-9.45 0-18.24-1.68-26.38-5.13-8.06-3.37-16.41-8.2-25.13-14.43 3.45-5.57 6.08-9.45 7.99-11.57 1.98-2.13 4.03-3.15 6.22-3.15.81 0 2.2.36 4.25 1.17 12.91 13.26 29.24 19.92 49.03 19.92h4.54c2.42-.43 8.57-1.24 18.61-2.56 9.96-1.32 16.63-7.54 19.94-18.68 3.36-11.13 5.27-18.39 5.93-21.83.58-3.44.88-6.74.88-10.04 0-15.75-7.18-30.4-21.48-43.95-14.5-11.28-29.6-23.44-45.2-36.41-15.61-12.89-25.21-25.78-28.73-38.53-3.52-12.67-5.27-24.1-5.27-34.21 0-12.16 2.19-23.22 6.52-33.26 4.33-9.96 11.36-19.34 21.03-28.05z"/><path d="m2268.87 12614.56c3-1.03 6.37-1.54 9.96-1.54 3.88 0 7.62.88 11.36 2.56 3.73 1.69 9.96 6.52 18.69 14.51 8.64 7.91 14.35 23.95 17.14 48.13 2.71 24.1 4.98 39.63 6.81 46.44l10.26 5.2c-2.2 1.39-5.5 2.35-9.82 3-4.32.59-8.72.88-13.19.88-2.63 0-5.27 0-7.91 0s-5.13-.14-7.54-.29c3.66 0 6.22-1.24 7.69-3.66 1.54-2.42 2.27-5.5 2.27-9.31 0-2.63-.15-5.42-.51-8.35-.37-2.93-.66-5.71-.81-8.27-.81-1.98-2.12-2.93-3.96-2.93-2.05 0-4.17.87-6.38 2.71-8.28 8.79-17.87 16.26-28.86 22.56-10.92 6.3-21.25 9.45-30.92 9.45-5.72 0-11.36-1.39-17-4.25-5.72-2.78-10.12-6.23-13.27-10.33-3.15-4.03-4.69-9.16-4.69-15.46 0-6 1.69-11.42 5.13-16.19 3.44-4.76 8.5-8.93 15.03-12.52 6.59-3.66 14.14-6.67 22.78-8.94 8.57-2.34 17.3-3.52 26.16-3.52 4.69 0 8.94.3 12.75.88 3.88.52 7.91 1.54 12.16 3.08 1.84-1.83 2.72-4.03 2.72-6.67 0-1.61-.59-3.66-1.83-6.08-1.18-2.41-3.53-7.54-6.97-15.45-3.44-7.84-12.45-11.8-26.96-11.8-6.68 0-12.39 1.4-17.15 4.25-4.76 2.86-10.99 7.47-18.68 13.77 3.3-7.47 7.84-13.99 13.7-19.41 5.86-5.49 13.11-9.67 21.84-12.45zm25.34 57.36c-6.08-2.64-12.74-3.96-19.99-3.96-9.31 0-18.04 1.98-26.24 6.01-8.13 4.03-13.63 8.42-16.34 13.11-2.71 4.76-4.1 8.42-4.1 11.06 0 3.23.81 6.16 2.42 8.87s4.69 6.37 9.23 10.84c4.54 4.54 10.18 6.81 16.85 6.81 1.98 0 6.08-.73 12.24-2.12 6.16-1.4 14.29-6.01 24.25-13.85 10.04-7.84 15.03-15.53 15.03-22.93 0-1.39-.37-3.15-1.03-5.13-.73-2.05-2.05-3.66-3.96-4.83s-4.69-2.49-8.36-3.88z"/><path d="m2389.79 12641.22c3.81-4.25 10.26-9.52 19.27-15.89 9.08-6.38 14.43-10.19 16.05-11.43.81 1.46 1.17 3.37 1.17 5.57 0 1.83.08 3.66.15 5.42.07 1.83.88 3.22 2.27 4.25 6.3-3.59 13.7-6.82 22.34-9.67 8.57-2.86 17.08-4.25 25.36-4.25 6.08 0 11.57.95 16.41 2.85 4.91 1.91 9.16 4.99 12.76 9.23 3.66 4.25 6.15 8.87 7.47 13.78 1.32 4.98 1.98 10.55 1.98 16.85 0 3.44-.44 9.88-1.32 19.48-.81 9.6-1.25 15.9-1.25 18.97 0 3.59.07 6.96.29 9.97.22 3 .66 5.93 1.4 8.79.73 2.85 2.05 5.05 3.95 6.66 1.91 1.62 5.06 2.42 9.31 2.42 1.46 0 3.15-.15 5.2-.44.44 2.78-.44 4.54-2.42 5.13-3.08.22-7.03 1.02-12.01 2.42-4.99 1.39-10.77 2.12-17.52 2.12-2.2 0-3.96-.15-5.13-.37-.81-4.39-1.32-7.61-1.39-9.66-.08-1.98-.15-3.59-.15-4.84 0-4.61.66-13.26 1.98-25.71 1.32-12.53 1.98-21.03 1.98-25.5 0-9.44-1.39-17.5-4.11-24.1-2.71-6.52-7.17-11.72-13.33-15.45-6.15-3.74-12.6-5.57-19.27-5.57-9.09 0-16.49 2.86-22.27 8.5-5.79 5.71-9.75 12.96-11.94 21.75-2.27 8.79-3.38 18.9-3.38 30.26 0 7.47.07 12.6.29 15.38.22 2.71.96 11.28 2.35 25.71 0 2.42 2.42 4.18 7.18 5.28s7.33 2.42 7.77 3.81c-4.47.44-8.79.8-12.97 1.24-4.18.37-8.14.59-12.02.59-5.28 0-9.09-.15-11.43-.44s-5.42-.95-9.3-1.98c4.32-4.47 7.32-10.03 8.93-16.63 1.69-6.59 2.49-14.65 2.49-24.17 0-6.52-.36-15.38-1.02-26.52-.66-11.13-.95-18.09-.95-20.73 0-2.86-.81-4.25-2.42-4.25-.81 0-2.42.51-4.69 1.54-2.34 1.02-3.88 1.46-4.69 1.46-1.24 0-2.34-.58-3.37-1.83z"/><path d="m2628.1 12617.42h35.02 34.66c-.37 2.93-3.74 4.76-10.04 5.49-6.37.73-9.08 3.3-8.06 7.62 5.42 5.27 9.6 9.81 12.38 13.62 2.86 3.89 4.47 7.4 4.91 10.63.37 3.22.59 5.64.59 7.25 0 8.06-3.37 15.45-10.04 22.12s-12.09 12.01-16.34 16.04c16.05 10.48 26.74 20.08 32.24 28.65s8.21 17.72 8.21 27.39c0 12.75-3.51 23.37-10.63 31.87-7.11 8.5-16.19 15.82-27.32 22.12-11.15 6.23-20.53 9.38-28.22 9.38-3.88 0-7.84-.44-12.01-1.39-4.1-.88-8.73-2.27-13.78-4.18-5.06-1.9-9.82-5.2-14.29-9.81-4.83-5.87-8.72-10.26-11.5-13.26-.66-2.2-.22-4.4 1.17-6.52 1.39-2.05 2.79-4.18 4.11-6.16 13.99 13.7 23.73 22.64 29.31 26.74 5.56 4.18 14.21 6.23 25.93 6.23 7.91 0 14.81-2.2 20.81-6.67 5.94-4.47 10.77-10.25 14.51-17.29 3.73-7.1 5.64-14.35 5.64-21.83 0-6.88-2.64-15.38-7.84-25.49-5.27-10.11-14.06-17.29-26.38-21.39-12.31-4.18-28.5-6.23-48.51-6.23-4.24.44-8.27 1.1-12.08 2.05-3.81.88-7.55 1.98-11.21 3.23 2.2-3.3 4.17-6.74 5.93-10.4 1.83-3.67 2.2-6.52 1.17-8.58-3.8-4.83-7.61-9.81-11.43-14.87-3.81-5.86-5.72-11.72-5.72-17.58v-3c1.25-12.75 6.45-23.59 15.76-32.45 9.31-8.87 20.29-13.33 33.05-13.33zm-7.92 14.06c-5.42 0-9.38.73-11.94 2.12-2.49 1.4-5.28 4.25-8.43 8.5-3.15 4.18-4.68 8.72-4.68 13.55 0 4.03 2.41 9.53 7.25 16.34 4.83 6.89 10.99 12.67 18.46 17.43 7.48 4.77 15.83 7.11 25.06 7.11 3.88 0 9.09-.66 15.75-1.98 6.68-1.32 11.59-4.47 14.81-9.52 3.22-5.06 4.83-9.16 4.83-12.38 0-4.69-1.83-9.23-5.56-13.77-3.74-4.54-7.77-9.01-11.95-13.48-4.25-4.47-9.97-7.84-17.07-10.26-7.18-2.41-15.97-3.66-26.53-3.66z"/><path d="m2845.3 12630.53c0-6.3 3.44-10.62 10.4-13.11 6.96-2.42 14.59-3.67 22.94-3.67-3.44 17.66-5.2 35.31-5.2 52.97 0 8.93.44 17.14 1.39 24.68.88 7.47 1.91 13.41 3 17.66 1.1 4.25 2.49 6.37 4.11 6.37 2.85-.59 4.9-.88 6.08-.88 1.24 0 1.97.44 2.12 1.25-4.39 4.83-10.4 8.42-18.02 10.76-7.55 2.35-13.85 4.25-18.91 5.65.95-4.25 1.91-9.09 2.93-14.58.95-5.42 1.47-10.26 1.47-14.51 0-4.68-.37-8.93-1.1-12.74-16.19 18.97-27.25 31.35-33.2 37.06-5.93 5.79-14.06 8.65-24.39 8.65-3.88 0-8.87-1.25-15.18-3.81-6.22-2.49-10.84-7.03-13.77-13.63-2.93-6.52-4.39-14.65-4.39-24.39 0-4.62.36-11.72 1.17-21.17.81-9.52 1.17-16.48 1.17-20.95 0-5.42-.44-10.11-1.32-13.92 0-2.86-1.97-4.25-5.93-4.25-.81 0-1.47 0-1.98 0-.44 0-.95.15-1.32.29 3.59-3.59 8.43-7.32 14.43-11.06 6.01-3.73 11.36-6.08 16.19-7.1.38 2.85.6 5.64.6 8.49v8.5c0 4.4-.22 11.8-.67 22.2-.44 10.4-.66 16.04-.66 16.85 0 7.83.37 14.57 1.11 20.07.66 5.57 2.05 11.79 4.1 18.68 1.98 6.81 6.74 10.25 14.29 10.25 5.27 0 15.09-5.56 29.38-16.7 14.29-11.21 21.47-30.03 21.47-56.62 0-1.76 0-3.59-.08-5.28-.07-1.76-.44-5.13-1.02-10.18z"/><path d="m2958.75 12596.1c1.76-1.61 4.03-6.6 6.81-14.95 2.72-8.35 6.52-12.52 11.36-12.52 2.2 0 4.83.58 7.84 1.83 0 4.69-1.17 9.67-3.45 15.09-2.34 5.42-5.64 9.74-9.88 12.97-.81-.22-2.72-.44-5.72-.59-3.08-.22-5.35-.81-6.96-1.83zm15.09 18.68c.22 18.53.52 37.06.95 55.67.37 18.61.88 31.35 1.54 38.31.59 6.89 2.13 10.92 4.69 12.02 2.49 1.1 5.57 1.68 9.24 1.68 4.03 0 7.25-.29 9.67-.88v2.79c-5.64 3.37-12.24 5.86-19.86 7.62-7.55 1.75-15.02 2.63-22.27 2.71-1.17-5.06-2.05-10.19-2.56-15.31-.52-5.13-.74-11.29-.74-18.32 0-3.66.08-9.23.3-16.85.22-7.54.29-13.11.29-16.77v-3.96c0-9.89-.51-17.36-1.54-22.34-1.02-5.05-2.78-7.62-5.43-7.62-1.25 0-3.08.29-5.64.81-2.49.44-3.96.73-4.4.73-2.63 0-4.54-.95-5.71-2.71 6.23-2.27 12.53-4.47 18.76-6.67 6.45-2.85 12.46-6.44 17.88-10.91z"/><path d="m3043.33 12641.22c3.81-4.25 10.26-9.52 19.27-15.89 9.09-6.38 14.44-10.19 16.05-11.43.81 1.46 1.17 3.37 1.17 5.57 0 1.83.08 3.66.15 5.42.07 1.83.88 3.22 2.27 4.25 6.3-3.59 13.7-6.82 22.34-9.67 8.58-2.86 17.08-4.25 25.36-4.25 6.08 0 11.57.95 16.41 2.85 4.91 1.91 9.17 4.99 12.76 9.23 3.66 4.25 6.15 8.87 7.47 13.78 1.32 4.98 1.98 10.55 1.98 16.85 0 3.44-.44 9.88-1.32 19.48-.81 9.6-1.25 15.9-1.25 18.97 0 3.59.07 6.96.29 9.97.22 3 .66 5.93 1.4 8.79.73 2.85 2.05 5.05 3.95 6.66 1.91 1.62 5.06 2.42 9.31 2.42 1.46 0 3.15-.15 5.2-.44.44 2.78-.44 4.54-2.42 5.13-3.08.22-7.03 1.02-12.01 2.42-4.99 1.39-10.77 2.12-17.51 2.12-2.2 0-3.97-.15-5.14-.37-.81-4.39-1.32-7.61-1.39-9.66-.08-1.98-.15-3.59-.15-4.84 0-4.61.66-13.26 1.98-25.71 1.32-12.53 1.98-21.03 1.98-25.5 0-9.44-1.39-17.5-4.11-24.1-2.71-6.52-7.17-11.72-13.33-15.45-6.15-3.74-12.6-5.57-19.26-5.57-9.1 0-16.5 2.86-22.28 8.5-5.79 5.71-9.75 12.96-11.94 21.75-2.27 8.79-3.37 18.9-3.37 30.26 0 7.47.07 12.6.29 15.38.22 2.71.95 11.28 2.34 25.71 0 2.42 2.42 4.18 7.18 5.28s7.33 2.42 7.77 3.81c-4.47.44-8.79.8-12.97 1.24-4.17.37-8.13.59-12.02.59-5.28 0-9.09-.15-11.43-.44s-5.42-.95-9.3-1.98c4.32-4.47 7.32-10.03 8.93-16.63 1.69-6.59 2.49-14.65 2.49-24.17 0-6.52-.36-15.38-1.02-26.52-.66-11.13-.95-18.09-.95-20.73 0-2.86-.81-4.25-2.42-4.25-.81 0-2.42.51-4.69 1.54-2.34 1.02-3.88 1.46-4.69 1.46-1.24 0-2.34-.58-3.37-1.83z"/><path d="m3271.67 12619.03c5.28-3.45 10.92-5.13 17-5.13 6.45 0 12.75 1.54 18.9 4.54 6.17 3.08 13.49 7.47 21.99 13.33-6.45 7.55-19.06 19.2-37.81 35.09-18.68 15.9-29.97 25.86-33.85 29.89 4.24 6.45 9.45 11.79 15.54 15.9 6 4.17 11.42 6.52 16.19 7.18 4.76.58 8.35.87 10.84.87 5.42 0 10.03-.73 13.78-2.27 3.74-1.46 12.45-6.44 26-14.87-4.24 5.42-7.91 9.75-10.91 12.9-3.08 3.15-6.3 5.2-9.74 6.37-3.45 1.1-9.54 3.37-18.33 6.81s-15.38 5.13-19.85 5.13c-2.86 0-4.91-.15-6.23-.44-1.31-.29-5.21-1.98-11.65-4.91-6.52-2.93-13.19-9.01-20.15-18.17-7.03-9.23-10.77-16.84-11.44-22.92-.58-6.08-.88-10.33-.88-12.75 0-11.79 3.53-21.98 10.49-30.55 6.96-8.64 17-17.29 30.11-26zm18.54 10.69c-4.03-2.64-8.64-3.95-13.7-3.95-8.94 0-16.27 3.66-21.98 11.06-5.64 7.4-8.5 15.82-8.5 25.34 0 9.31 2.86 18.39 8.57 27.33 8.72-5.5 18.76-13.63 30.12-24.47 11.35-10.77 18.97-17.73 22.85-20.73-1.83-2.86-3.95-5.2-6.37-7.18-2.49-1.9-6.08-4.39-10.99-7.4z"/></g><g fill="#333"><path d="m8338.52 12477.27v3.3c-5.05.44-8.86 1.31-11.35 2.71-2.57 1.39-4.62 3.22-6.23 5.64 0 25.05 2.13 54.65 6.38 88.64 4.24 33.99 8.49 68.56 12.81 103.8 4.33 35.16 6.52 65.34 6.52 90.39 1.98 1.03 4.33 2.13 6.89 3.23 2.64 1.1 4.7 1.98 6.31 2.56-3.6.88-7.55 1.54-11.8 1.91-4.18.36-8.43.51-12.68.51-3 0-7.47-.07-13.4-.15-5.95-.07-10.19-.14-12.83-.14-.81-1.4.95-3.08 5.2-4.84 4.26-1.83 6.89-3.44 7.92-4.91 1.03-1.39 1.69-3.07 1.98-4.98.29-1.9.44-4.98.44-9.23 0-24.83-1.25-49.08-3.81-72.59-2.49-23.52-6.09-47.99-10.78-73.33-4.61-25.42-9.16-50.04-13.63-73.84l-6.66 7.25c-8.5 18.83-19.2 43.15-32.02 73.11-12.9 29.89-24.85 57.72-35.98 83.66-11.14 25.85-22.78 52.37-34.88 79.7h-2.13c-10.11-27.11-22.34-59.19-36.56-96.26-14.28-37.07-25.79-67.47-34.44-91.13-8.72-23.66-17.29-48.79-25.79-75.31l-3.37-4.24c-4.46 6.08-7.98 12.74-10.63 20.07-2.63 7.25-6.88 23.44-12.89 48.42-5.93 25.05-11.06 46.3-15.31 63.8-4.25 17.51-8.94 38.61-14.15 63.22-5.13 24.62-8.94 45.49-11.35 62.71.44 1.98 2.19 3.22 5.34 3.59 3.08.44 4.18 2.12 3.15 5.13h-45.28l12.17-16.71c6.82-23.51 16.78-55.23 29.82-95.15 13.05-39.93 23.23-71.65 30.48-95.24 7.25-23.66 13.92-48.2 20.01-73.69-.81-3.37-2.57-5.86-5.28-7.47-2.79-1.69-8.06-2.49-15.97-2.49 5.27-3.96 10.69-7.04 16.26-9.31 5.58-2.27 11.44-3.37 17.74-3.37h3.29c1.61.44 2.86.59 3.67.59 1.61 2.27 3.22 4.76 4.83 7.47s5.42 11.36 11.36 25.86c6.01 14.43 13.78 36.26 23.37 65.49 9.6 29.16 19.05 57.8 28.36 86 9.31 28.13 18.76 53.63 28.5 76.55l7.26-9.74c12.31-27.25 25.27-55.89 38.84-86.07 13.48-30.11 25.64-58.31 36.33-84.54 10.71-26.15 20.08-52.23 28.21-78.24 2.79-1.24 6.08-2.12 9.67-2.63 3.67-.52 8.15-.74 13.35-.74 2.05 0 4.1.15 6.22.52 2.13.36 4.33.51 6.52.51z"/><path d="m8481.73 12659.31c5.06-1.03 9.45-1.54 13.04-1.54 7.33 0 13.77 1.47 19.56 4.4 5.8 2.93 10.85 7.83 15.17 14.57 4.33 6.82 7.77 12.68 10.19 17.51 2.41 4.84 3.59 9.82 3.59 14.87 0 4.1-2.79 11.65-8.36 22.78-5.49 11.21-13.62 21.98-24.25 32.38-10.55 10.48-23.59 15.68-38.91 15.68-1.47 0-2.35 0-2.79 0-10.03 0-18.97-3-26.81-8.94-7.77-6-14.22-13.48-19.42-22.41-5.13-9.01-7.69-17.15-7.69-24.47 0-6.01 2.49-13.55 7.4-22.56 4.98-9.01 12.45-17.51 22.5-25.64 9.96-8.06 22.27-13.63 36.78-16.63zm12.16 17.14c-3.08-1.76-6.15-3.08-9.23-3.96-3.15-.8-6.38-1.17-9.6-1.17-6.67 0-13.04 1.69-19.05 5.13-6.08 3.52-11.43 7.91-16.12 13.41-4.62 5.49-6.97 11.5-6.97 18.02 0 3.59.44 6.88 1.25 9.74.8 2.78 2.78 8.28 6.02 16.41 3.29 8.13 8.79 15.02 16.55 20.73 7.77 5.64 17.14 8.5 28.07 8.5 7.84 0 14.65-1.83 20.44-5.5 5.78-3.66 10.76-8.71 15.02-15.23 4.25-6.45 6.38-13.19 6.38-20.08 0-6.08-1.61-12.3-4.69-18.75-3.16-6.37-6.82-11.5-11.07-15.31-4.25-3.88-9.97-7.84-17-11.94z"/><path d="m8678.56 12476.24c5.87.88 11.73 1.4 17.59 1.4h12.75 10.03c3.24 0 6.75.07 10.56.36-3.81.81-7.03 1.54-9.68 2.27-2.63.74-4.25 2.57-4.83 5.64 0 23.89-.22 46.45-.59 67.62-.36 21.17-.8 46.74-1.17 76.7 0 25.56.44 47.76 1.39 66.59.88 18.82 2.64 39.26 5.28 61.38 1.18 2.86 2.5 5.06 3.96 6.67 1.39 1.61 3.37 2.86 6.01 3.66 2.05.59 4.76-.44 8.2-3.07 3.37-2.72 6.23-3.45 8.43-2.2-3.23 4.47-6.38 8.2-9.53 11.28-3.15 3-6.66 4.54-10.47 4.54-2.2 0-4.76-.95-7.56-2.78-2.49-4.76-4.9-8.13-7.47-10.11-2.49-1.98-5.2-2.93-7.98-2.93-3.45 0-9.01 2.41-16.71 7.25-7.7 4.83-13.78 7.25-18.17 7.25-3.45 0-6.89 0-10.33 0s-6.74 0-10.04 0c-7.47 0-13.63-.44-18.61-1.39-4.99-.88-10.85-3.52-17.73-7.98-6.89-4.47-12.61-10.7-17.15-18.76-4.55-8.06-6.82-16.85-6.82-26.3 0-6.3 1.32-14.21 3.96-23.95 2.64-9.67 8.43-18.09 17.44-25.35 9.01-7.32 18.61-12.01 28.94-14.28 10.34-2.2 18.18-3.3 23.67-3.3 7.03 0 13.92.95 20.6 2.86 6.66 1.98 13.25 4.61 19.7 8.06 0-8.94-1.1-28.5-3.3-58.83-2.19-30.32-3.29-52.67-3.29-67.03v-7.03c0-13.77-.29-24.61-.88-32.52-.66-7.84-1.83-13.7-3.52-17.44-1.76-3.73-3.81-5.64-6.22-5.64-1.84 0-3.67.37-5.51 1.03-1.83.66-3.07 1.02-3.66 1.02zm-48.14 195.08c-7.76 4.47-13.48 9.6-17.36 15.31-3.88 5.79-5.79 12.82-5.79 21.1 0 10.33 1.03 18.9 3.08 25.79 1.98 6.88 6.15 13.62 12.45 20.36 6.3 6.67 12.97 11.36 20.08 14.07s15.61 4.1 25.57 4.1c6.67 0 12.68-1.54 17.96-4.69 5.27-3.15 8.79-7.91 10.47-14.29 1.76-6.37 3.3-12.89 4.62-19.7 1.32-6.74 1.98-12.6 1.98-17.44 0-6.44-1.03-12.52-2.93-18.02-1.91-5.56-6.45-12.6-13.56-20.95-7.11-8.42-17.73-12.6-31.94-12.6-8.28 0-16.57 2.35-24.63 6.96z"/><path d="m8881.7 12675.72c0-6.3 3.45-10.62 10.41-13.11 6.96-2.42 14.58-3.67 22.93-3.67-3.44 17.66-5.2 35.31-5.2 52.97 0 8.93.44 17.14 1.39 24.68.88 7.47 1.91 13.41 3 17.66 1.1 4.25 2.49 6.37 4.11 6.37 2.85-.59 4.91-.88 6.09-.88 1.24 0 1.97.44 2.12 1.25-4.4 4.83-10.41 8.42-18.03 10.76-7.54 2.35-13.84 4.25-18.9 5.65.95-4.25 1.91-9.09 2.93-14.58.95-5.42 1.47-10.26 1.47-14.51 0-4.68-.37-8.93-1.1-12.74-16.2 18.97-27.26 31.35-33.2 37.06-5.93 5.79-14.06 8.65-24.4 8.65-3.88 0-8.87-1.25-15.17-3.81-6.22-2.49-10.84-7.03-13.77-13.63-2.93-6.52-4.39-14.65-4.39-24.39 0-4.62.36-11.72 1.17-21.17.81-9.52 1.17-16.48 1.17-20.95 0-5.42-.44-10.11-1.32-13.92 0-2.86-1.98-4.25-5.94-4.25-.81 0-1.47 0-1.98 0-.44 0-.95.15-1.32.29 3.59-3.59 8.44-7.32 14.44-11.06 6.01-3.73 11.36-6.08 16.19-7.1.37 2.85.59 5.64.59 8.49v8.5c0 4.4-.22 11.8-.66 22.2s-.66 16.04-.66 16.85c0 7.83.37 14.57 1.1 20.07.66 5.57 2.05 11.79 4.1 18.68 1.98 6.81 6.74 10.25 14.3 10.25 5.27 0 15.09-5.56 29.37-16.7 14.3-11.21 21.48-30.03 21.48-56.62 0-1.76 0-3.59-.08-5.28-.07-1.76-.44-5.13-1.02-10.18z"/><path d="m8969.81 12479.25c5.05-.81 12.3-1.47 21.83-2.13 9.52-.58 21.91-.88 37.29-.88-.44 1.84-3.29 3.15-8.79 3.96-5.42.81-8.13 3.22-8.13 7.25 0 28.13.07 56.34.15 84.47.07 28.13.22 59.77.44 95.01.22 35.23.29 60.36.29 75.3 0 7.33.88 13.19 2.56 17.66 1.69 4.39 5.57 7.47 11.65 9.08 3 .37 6.15-.44 9.52-2.49 3.3-2.12 6.52-4.17 9.54-6.3.36.59.58 1.61.58 3.08 0 3.07-1.83 5.78-5.57 8.06-3.74 2.27-7.11 4.24-9.97 6-2.93 1.76-6.81 2.64-11.64 2.64-2.42 0-4.77-.22-6.96-.59-2.2-.44-5.35-1.24-9.39-2.41l-4.83-6.08-8.8-223.58-2.41-59.19c-.81-3.44-3.08-5.57-6.74-6.37-3.59-.81-7.18-1.69-10.62-2.49z"/><path d="m9128.76 12664.22c5.27-3.45 10.91-5.13 16.99-5.13 6.45 0 12.75 1.54 18.9 4.54 6.17 3.08 13.49 7.47 21.99 13.33-6.45 7.55-19.05 19.2-37.81 35.09-18.68 15.9-29.97 25.86-33.85 29.89 4.24 6.45 9.45 11.79 15.54 15.9 6 4.17 11.42 6.52 16.19 7.18 4.76.58 8.35.87 10.84.87 5.42 0 10.04-.73 13.78-2.27 3.74-1.46 12.45-6.44 26-14.87-4.24 5.42-7.91 9.75-10.91 12.9-3.08 3.15-6.3 5.2-9.74 6.37-3.45 1.1-9.53 3.37-18.33 6.81-8.79 3.44-15.38 5.13-19.85 5.13-2.86 0-4.91-.15-6.23-.44-1.31-.29-5.2-1.98-11.65-4.91-6.52-2.93-13.19-9.01-20.15-18.17-7.03-9.23-10.77-16.84-11.43-22.92-.58-6.08-.88-10.33-.88-12.75 0-11.79 3.52-21.98 10.48-30.55 6.96-8.64 17-17.29 30.12-26zm18.53 10.69c-4.03-2.64-8.64-3.95-13.7-3.95-8.94 0-16.27 3.66-21.98 11.06-5.64 7.4-8.5 15.82-8.5 25.34 0 9.31 2.86 18.39 8.57 27.33 8.72-5.5 18.76-13.63 30.12-24.47 11.35-10.77 18.97-17.73 22.85-20.73-1.83-2.86-3.95-5.2-6.37-7.18-2.49-1.9-6.08-4.39-10.99-7.4z"/><path d="m9275.25 12659.09h10.33c6.46 0 11.66.66 15.47 1.98s7.03 4.1 9.67 8.35c-.81 4.83-2.2 7.32-4.18 7.32-1.02 0-4.1-2.49-9.23-7.32-5.13-4.84-8.72-7.25-10.77-7.25-6.38 0-11.88 1.09-16.27 3.37-4.47 2.19-7.55 5.42-9.23 9.59-1.69 4.1-2.56 7.69-2.56 10.77 0 5.27 1.75 10.4 5.27 15.38s11.43 9.09 23.74 12.46 19.42 7.84 21.47 13.55c1.98 5.64 3 10.25 3 13.7 0 4.25-.95 8.35-2.86 12.3-1.97 3.96-4.9 8.21-8.79 12.82-3.95 4.55-8.05 8.14-12.3 10.77-4.26 2.64-9.1 3.96-14.52 3.96-3.88 0-7.84-.81-12.01-2.49-4.1-1.61-7.18-4.25-9.23-7.99-1.98-5.12-3.44-8.79-4.25-11.06 2.05 0 6.01 1.83 12.01 5.57 5.94 3.74 9.75 5.86 11.5 6.37 1.69.51 4.55.81 8.65.81 3.22 0 6.31-.66 9.39-1.98 3-1.32 5.56-3.52 7.54-6.67 2.05-3.15 3.08-6.59 3.08-10.25 0-3.01-1.17-6.37-3.52-10.04-2.34-3.66-10.26-7.62-23.82-11.87-13.55-4.24-21.02-9.08-22.56-14.43-1.54-5.42-2.56-9.81-3.22-13.26-.59-3.44-.88-6.22-.88-8.2 0-5.71 1.68-11.5 5.13-17.36 3.44-5.94 6.96-10.55 10.47-13.85 3.52-3.37 8.06-5.05 13.48-5.05z"/></g><g fill="#dddad6"><path d="m8173.76 12473.84v3.3c-5.05.44-8.86 1.31-11.35 2.71-2.57 1.39-4.62 3.22-6.23 5.64 0 25.05 2.13 54.65 6.38 88.64 4.24 33.99 8.49 68.56 12.81 103.8 4.33 35.16 6.52 65.34 6.52 90.39 1.98 1.03 4.33 2.13 6.89 3.23 2.65 1.1 4.7 1.98 6.31 2.56-3.59.88-7.55 1.54-11.8 1.91-4.18.36-8.43.51-12.68.51-3 0-7.47-.07-13.4-.15-5.94-.07-10.19-.14-12.83-.14-.81-1.4.95-3.08 5.2-4.84 4.26-1.83 6.89-3.44 7.92-4.91 1.03-1.39 1.69-3.07 1.98-4.98.29-1.9.44-4.98.44-9.23 0-24.83-1.25-49.08-3.81-72.59-2.49-23.52-6.09-47.99-10.78-73.33-4.61-25.42-9.16-50.04-13.63-73.84l-6.66 7.25c-8.5 18.83-19.2 43.15-32.02 73.11-12.9 29.89-24.85 57.72-35.98 83.66-11.14 25.85-22.78 52.37-34.88 79.7h-2.13c-10.11-27.11-22.34-59.19-36.56-96.26-14.28-37.07-25.79-67.47-34.43-91.13-8.73-23.66-17.3-48.79-25.8-75.31l-3.37-4.24c-4.46 6.08-7.98 12.74-10.62 20.07-2.64 7.25-6.89 23.44-12.9 48.42-5.93 25.05-11.06 46.3-15.31 63.8-4.25 17.51-8.94 38.61-14.15 63.22-5.13 24.62-8.94 45.49-11.35 62.71.44 1.98 2.19 3.22 5.34 3.59 3.08.44 4.18 2.12 3.15 5.13h-45.28l12.17-16.71c6.82-23.51 16.78-55.23 29.82-95.15 13.05-39.93 23.23-71.65 30.48-95.24 7.25-23.66 13.92-48.2 20.01-73.69-.81-3.37-2.56-5.86-5.28-7.47-2.79-1.69-8.06-2.49-15.97-2.49 5.27-3.96 10.69-7.04 16.26-9.31 5.58-2.27 11.44-3.37 17.74-3.37h3.29c1.61.44 2.86.59 3.67.59 1.61 2.27 3.22 4.76 4.83 7.47s5.42 11.36 11.36 25.86c6.01 14.43 13.78 36.26 23.37 65.49 9.6 29.16 19.06 57.8 28.36 86 9.31 28.13 18.76 53.63 28.5 76.55l7.26-9.74c12.31-27.25 25.27-55.89 38.84-86.07 13.48-30.11 25.64-58.31 36.33-84.54 10.71-26.15 20.08-52.23 28.21-78.24 2.79-1.24 6.08-2.12 9.67-2.63 3.68-.52 8.15-.74 13.35-.74 2.05 0 4.1.15 6.22.52 2.13.36 4.33.51 6.52.51z"/><path d="m8316.97 12655.88c5.06-1.03 9.45-1.54 13.04-1.54 7.33 0 13.77 1.47 19.56 4.4 5.8 2.93 10.85 7.83 15.17 14.57 4.33 6.82 7.77 12.68 10.19 17.51 2.41 4.84 3.59 9.82 3.59 14.87 0 4.1-2.79 11.65-8.36 22.78-5.49 11.21-13.62 21.98-24.25 32.38-10.55 10.48-23.59 15.68-38.91 15.68-1.47 0-2.35 0-2.79 0-10.03 0-18.97-3-26.81-8.94-7.77-6-14.22-13.48-19.42-22.41-5.13-9.01-7.69-17.15-7.69-24.47 0-6.01 2.49-13.55 7.4-22.56 4.98-9.01 12.45-17.51 22.5-25.64 9.96-8.06 22.27-13.63 36.78-16.63zm12.16 17.14c-3.08-1.76-6.15-3.08-9.23-3.96-3.15-.8-6.37-1.17-9.6-1.17-6.67 0-13.04 1.69-19.05 5.13-6.08 3.52-11.43 7.91-16.12 13.41-4.62 5.49-6.97 11.5-6.97 18.02 0 3.59.44 6.88 1.25 9.74.8 2.78 2.79 8.28 6.02 16.41 3.29 8.13 8.79 15.02 16.55 20.73 7.77 5.64 17.14 8.5 28.07 8.5 7.84 0 14.65-1.83 20.44-5.5 5.78-3.66 10.76-8.71 15.02-15.23 4.25-6.45 6.38-13.19 6.38-20.08 0-6.08-1.61-12.3-4.69-18.75-3.15-6.37-6.82-11.5-11.07-15.31-4.25-3.88-9.97-7.84-17-11.94z"/><path d="m8513.8 12472.81c5.87.88 11.73 1.4 17.59 1.4h12.75 10.03c3.24 0 6.75.07 10.56.36-3.81.81-7.03 1.54-9.67 2.27-2.64.74-4.26 2.57-4.84 5.64 0 23.89-.22 46.45-.59 67.62-.36 21.17-.8 46.74-1.17 76.7 0 25.56.44 47.76 1.39 66.59.88 18.82 2.64 39.26 5.29 61.38 1.17 2.86 2.49 5.06 3.95 6.67 1.39 1.61 3.37 2.86 6.01 3.66 2.05.59 4.76-.44 8.2-3.07 3.37-2.72 6.23-3.45 8.43-2.2-3.23 4.47-6.38 8.2-9.53 11.28-3.15 3-6.66 4.54-10.47 4.54-2.2 0-4.76-.95-7.56-2.78-2.49-4.76-4.9-8.13-7.47-10.11-2.49-1.98-5.2-2.93-7.98-2.93-3.45 0-9.01 2.41-16.71 7.25-7.7 4.83-13.78 7.25-18.17 7.25-3.45 0-6.89 0-10.33 0s-6.74 0-10.04 0c-7.47 0-13.63-.44-18.61-1.39-4.99-.88-10.85-3.52-17.73-7.98-6.89-4.47-12.6-10.7-17.15-18.76s-6.82-16.85-6.82-26.3c0-6.3 1.32-14.21 3.96-23.95 2.64-9.67 8.43-18.09 17.44-25.35 9.01-7.32 18.61-12.01 28.94-14.28 10.34-2.2 18.18-3.3 23.67-3.3 7.03 0 13.92.95 20.6 2.86 6.66 1.98 13.25 4.61 19.7 8.06 0-8.94-1.1-28.5-3.3-58.83-2.19-30.32-3.29-52.67-3.29-67.03v-7.03c0-13.77-.29-24.61-.88-32.52-.66-7.84-1.83-13.7-3.52-17.44-1.76-3.73-3.81-5.64-6.22-5.64-1.84 0-3.67.37-5.5 1.03-1.84.66-3.08 1.02-3.67 1.02zm-48.14 195.08c-7.76 4.47-13.48 9.6-17.36 15.31-3.88 5.79-5.79 12.82-5.79 21.1 0 10.33 1.03 18.9 3.08 25.79 1.98 6.88 6.15 13.62 12.45 20.36 6.3 6.67 12.97 11.36 20.08 14.07s15.61 4.1 25.57 4.1c6.67 0 12.68-1.54 17.96-4.69 5.27-3.15 8.79-7.91 10.47-14.29 1.76-6.37 3.3-12.89 4.62-19.7 1.32-6.74 1.98-12.6 1.98-17.44 0-6.44-1.03-12.52-2.93-18.02-1.91-5.56-6.45-12.6-13.56-20.95-7.1-8.42-17.73-12.6-31.94-12.6-8.28 0-16.57 2.35-24.63 6.96z"/><path d="m8716.95 12672.29c0-6.3 3.44-10.62 10.4-13.11 6.96-2.42 14.58-3.67 22.93-3.67-3.44 17.66-5.2 35.31-5.2 52.97 0 8.93.44 17.14 1.39 24.68.88 7.47 1.91 13.41 3 17.66 1.1 4.25 2.49 6.37 4.11 6.37 2.85-.59 4.91-.88 6.09-.88 1.24 0 1.97.44 2.12 1.25-4.39 4.83-10.41 8.42-18.03 10.76-7.54 2.35-13.84 4.25-18.9 5.65.95-4.25 1.91-9.09 2.93-14.58.95-5.42 1.47-10.26 1.47-14.51 0-4.68-.37-8.93-1.1-12.74-16.2 18.97-27.26 31.35-33.2 37.06-5.93 5.79-14.06 8.65-24.4 8.65-3.88 0-8.87-1.25-15.17-3.81-6.22-2.49-10.84-7.03-13.77-13.63-2.93-6.52-4.39-14.65-4.39-24.39 0-4.62.36-11.72 1.17-21.17.81-9.52 1.17-16.48 1.17-20.95 0-5.42-.44-10.11-1.32-13.92 0-2.86-1.97-4.25-5.94-4.25-.81 0-1.47 0-1.98 0-.44 0-.95.15-1.32.29 3.59-3.59 8.44-7.32 14.44-11.06 6.01-3.73 11.36-6.08 16.19-7.1.37 2.85.59 5.64.59 8.49v8.5c0 4.4-.22 11.8-.66 22.2s-.66 16.04-.66 16.85c0 7.83.37 14.57 1.1 20.07.66 5.57 2.05 11.79 4.1 18.68 1.98 6.81 6.74 10.25 14.3 10.25 5.27 0 15.09-5.56 29.37-16.7 14.3-11.21 21.48-30.03 21.48-56.62 0-1.76 0-3.59-.08-5.28-.07-1.76-.44-5.13-1.02-10.18z"/><path d="m8805.05 12475.82c5.05-.81 12.3-1.47 21.83-2.13 9.52-.58 21.91-.88 37.29-.88-.44 1.84-3.29 3.15-8.79 3.96-5.42.81-8.13 3.22-8.13 7.25 0 28.13.07 56.34.15 84.47.07 28.13.22 59.77.44 95.01.22 35.23.29 60.36.29 75.3 0 7.33.88 13.19 2.56 17.66 1.69 4.39 5.57 7.47 11.65 9.08 3 .37 6.15-.44 9.52-2.49 3.3-2.12 6.53-4.17 9.54-6.3.36.59.58 1.61.58 3.08 0 3.07-1.83 5.78-5.57 8.06-3.74 2.27-7.11 4.24-9.97 6-2.93 1.76-6.81 2.64-11.64 2.64-2.42 0-4.77-.22-6.96-.59-2.2-.44-5.35-1.24-9.38-2.41l-4.84-6.08-8.8-223.58-2.41-59.19c-.81-3.44-3.08-5.57-6.74-6.37-3.59-.81-7.18-1.69-10.62-2.49z"/><path d="m8964 12660.79c5.27-3.45 10.91-5.13 16.99-5.13 6.45 0 12.75 1.54 18.91 4.54 6.16 3.08 13.48 7.47 21.98 13.33-6.45 7.55-19.05 19.2-37.81 35.09-18.68 15.9-29.97 25.86-33.85 29.89 4.24 6.45 9.46 11.79 15.54 15.9 6 4.17 11.42 6.52 16.19 7.18 4.76.58 8.35.87 10.84.87 5.42 0 10.04-.73 13.78-2.27 3.74-1.46 12.45-6.44 26-14.87-4.24 5.42-7.91 9.75-10.91 12.9-3.08 3.15-6.3 5.2-9.74 6.37-3.45 1.1-9.53 3.37-18.33 6.81-8.79 3.44-15.38 5.13-19.85 5.13-2.86 0-4.91-.15-6.23-.44-1.31-.29-5.2-1.98-11.65-4.91-6.52-2.93-13.19-9.01-20.15-18.17-7.03-9.23-10.77-16.84-11.43-22.92-.58-6.08-.88-10.33-.88-12.75 0-11.79 3.52-21.98 10.48-30.55 6.96-8.64 17-17.29 30.12-26zm18.53 10.69c-4.03-2.64-8.64-3.95-13.7-3.95-8.93 0-16.27 3.66-21.98 11.06-5.64 7.4-8.5 15.82-8.5 25.34 0 9.31 2.86 18.39 8.57 27.33 8.72-5.5 18.76-13.63 30.12-24.47 11.35-10.77 18.97-17.73 22.86-20.73-1.84-2.86-3.96-5.2-6.38-7.18-2.49-1.9-6.08-4.39-10.99-7.4z"/><path d="m9110.49 12655.66h10.34c6.45 0 11.65.66 15.46 1.98s7.03 4.1 9.67 8.35c-.81 4.83-2.2 7.32-4.18 7.32-1.02 0-4.1-2.49-9.23-7.32-5.13-4.84-8.72-7.25-10.77-7.25-6.38 0-11.88 1.09-16.27 3.37-4.47 2.19-7.55 5.42-9.23 9.59-1.69 4.1-2.56 7.69-2.56 10.77 0 5.27 1.75 10.4 5.27 15.38s11.43 9.09 23.74 12.46 19.42 7.84 21.47 13.55c1.98 5.64 3 10.25 3 13.7 0 4.25-.95 8.35-2.86 12.3-1.97 3.96-4.9 8.21-8.79 12.82-3.95 4.55-8.05 8.14-12.3 10.77-4.26 2.64-9.1 3.96-14.52 3.96-3.88 0-7.84-.81-12.01-2.49-4.1-1.61-7.18-4.25-9.23-7.99-1.98-5.12-3.44-8.79-4.25-11.06 2.05 0 6.01 1.83 12.01 5.57 5.94 3.74 9.75 5.86 11.5 6.37 1.69.51 4.55.81 8.65.81 3.22 0 6.31-.66 9.39-1.98 3-1.32 5.56-3.52 7.54-6.67 2.05-3.15 3.08-6.59 3.08-10.25 0-3.01-1.17-6.37-3.52-10.04-2.34-3.66-10.25-7.62-23.82-11.87-13.55-4.24-21.02-9.08-22.56-14.43-1.54-5.42-2.56-9.81-3.22-13.26-.59-3.44-.88-6.22-.88-8.2 0-5.71 1.68-11.5 5.13-17.36 3.44-5.94 6.96-10.55 10.47-13.85 3.52-3.37 8.06-5.05 13.48-5.05z"/></g></g><path d="m5464.77 1013.49h-4640.68c-344.9 0-627.09 282.19-627.09 627.09v3246.39h4640.68c344.9 0 627.09-282.19 627.09-627.09v-3246.39z" fill="url(#b)" stroke="#666" stroke-miterlimit="22.9256" stroke-width="26.42"/><g fill-rule="nonzero"><path d="m2242.33 1163.05v-33.86h69.52v33.86zm34.94 346.14c-23.53 0-45.51-4.44-65.92-13.33-20.41-8.88-38.3-21.13-53.67-36.74-15.36-15.6-27.37-33.55-36.01-53.84-8.65-20.3-12.97-41.73-12.97-64.3 0-23.53 4.44-45.5 13.33-65.91 8.88-20.41 21.13-38.3 36.74-53.67 15.6-15.37 33.55-27.32 53.84-35.84 20.29-8.53 41.85-12.79 64.66-12.79 23.05 0 44.72 4.38 65.01 13.15 20.29 8.76 38.18 20.83 53.67 36.2s27.62 33.2 36.38 53.49c8.77 20.29 13.15 42.08 13.15 65.37 0 23.05-4.38 44.78-13.15 65.2-8.76 20.41-20.83 38.3-36.2 53.66-15.37 15.37-33.26 27.44-53.67 36.2-20.41 8.77-42.14 13.15-65.19 13.15zm139.39-279.87-20.53-20.53 19.09-19.81 20.89 19.81zm-139.39 253.94c19.69 0 38.12-3.67 55.29-10.99s32.3-17.47 45.38-30.44c13.09-12.96 23.3-28.03 30.62-45.2s10.99-35.72 10.99-55.65-3.61-38.54-10.81-55.83-17.29-32.42-30.26-45.38c-12.96-12.97-28.09-23.11-45.38-30.44-17.29-7.32-35.9-10.98-55.83-10.98-19.69 0-38.18 3.66-55.47 10.98-17.29 7.33-32.48 17.47-45.57 30.44-13.08 12.96-23.29 28.09-30.61 45.38-7.33 17.29-10.99 35.9-10.99 55.83s3.66 38.48 10.99 55.65c7.32 17.17 17.53 32.24 30.61 45.2 13.09 12.97 28.28 23.12 45.57 30.44s35.78 10.99 55.47 10.99zm0-121.03c-6 0-11.11-2.04-15.31-6.12s-6.3-9.13-6.3-15.13c0-4.56 1.26-8.64 3.78-12.25 2.52-3.6 5.94-6 10.26-7.2v-86.44l-18 3.96 25.57-35.3 25.21 35.3-18.01-3.96v86.44c4.32 1.2 7.75 3.6 10.27 7.2 2.52 3.61 3.78 7.69 3.78 12.25 0 6-2.04 11.05-6.12 15.13-4.09 4.08-9.13 6.12-15.13 6.12zm58.71-111.66c-3.12 0-5.76-1.08-7.92-3.24-2.17-2.16-3.25-4.68-3.25-7.56 0-3.12 1.08-5.77 3.25-7.93 2.16-2.16 4.8-3.24 7.92-3.24 2.88 0 5.4 1.08 7.56 3.24 2.17 2.16 3.25 4.81 3.25 7.93 0 2.88-1.08 5.4-3.25 7.56-2.16 2.16-4.68 3.24-7.56 3.24zm-117.78 0c-2.88 0-5.41-1.08-7.57-3.24s-3.24-4.68-3.24-7.56c0-3.12 1.08-5.77 3.24-7.93s4.69-3.24 7.57-3.24c3.12 0 5.76 1.08 7.92 3.24s3.24 4.81 3.24 7.93c0 2.88-1.08 5.4-3.24 7.56s-4.8 3.24-7.92 3.24zm-43.23 43.59c-3.12 0-5.76-1.08-7.92-3.25-2.16-2.16-3.24-4.8-3.24-7.92 0-2.88 1.08-5.4 3.24-7.56s4.8-3.25 7.92-3.25c3.37 0 6.01 1.09 7.93 3.25s2.88 4.68 2.88 7.56c0 3.12-.96 5.76-2.88 7.92-1.92 2.17-4.56 3.25-7.93 3.25zm204.23 0c-3.12 0-5.7-1.08-7.74-3.25-2.04-2.16-3.06-4.8-3.06-7.92 0-2.88 1.02-5.4 3.06-7.56s4.62-3.25 7.74-3.25c3.13 0 5.77 1.09 7.93 3.25s3.24 4.68 3.24 7.56c0 3.12-1.08 5.76-3.24 7.92-2.16 2.17-4.8 3.25-7.93 3.25zm-219.71 57.63c-3.13 0-5.71-1.08-7.75-3.24-2.04-2.17-3.06-4.69-3.06-7.57 0-3.12 1.02-5.76 3.06-7.92s4.62-3.24 7.75-3.24c3.12 0 5.7 1.08 7.74 3.24s3.06 4.8 3.06 7.92c0 2.88-1.02 5.4-3.06 7.57-2.04 2.16-4.62 3.24-7.74 3.24zm235.2 0c-3.12 0-5.7-1.08-7.74-3.24-2.04-2.17-3.06-4.69-3.06-7.57 0-3.12 1.02-5.76 3.06-7.92s4.62-3.24 7.74-3.24c3.36 0 6.01 1.08 7.93 3.24s2.88 4.8 2.88 7.92c0 2.88-.96 5.4-2.88 7.57-1.92 2.16-4.57 3.24-7.93 3.24zm-15.49 58.35c-3.12 0-5.7-1.08-7.74-3.24-2.04-2.17-3.06-4.81-3.06-7.93 0-2.88 1.02-5.4 3.06-7.56s4.62-3.24 7.74-3.24c3.13 0 5.77 1.08 7.93 3.24s3.24 4.68 3.24 7.56c0 3.12-1.08 5.76-3.24 7.93-2.16 2.16-4.8 3.24-7.93 3.24zm-204.23 0c-3.12 0-5.76-1.08-7.92-3.24-2.16-2.17-3.24-4.81-3.24-7.93 0-2.88 1.08-5.4 3.24-7.56s4.8-3.24 7.92-3.24c3.37 0 6.01 1.08 7.93 3.24s2.88 4.68 2.88 7.56c0 3.12-.96 5.76-2.88 7.93-1.92 2.16-4.56 3.24-7.93 3.24zm161.01 43.22c-3.12 0-5.76-1.08-7.92-3.24-2.17-2.16-3.25-4.68-3.25-7.57 0-3.12 1.08-5.76 3.25-7.92 2.16-2.16 4.8-3.24 7.92-3.24 2.88 0 5.4 1.08 7.56 3.24 2.17 2.16 3.25 4.8 3.25 7.92 0 2.89-1.08 5.41-3.25 7.57-2.16 2.16-4.68 3.24-7.56 3.24zm-117.78 0c-2.88 0-5.41-1.08-7.57-3.24s-3.24-4.68-3.24-7.57c0-3.12 1.08-5.76 3.24-7.92s4.69-3.24 7.57-3.24c3.12 0 5.76 1.08 7.92 3.24s3.24 4.8 3.24 7.92c0 2.89-1.08 5.41-3.24 7.57s-4.8 3.24-7.92 3.24zm59.07 16.21c-3.12 0-5.76-1.08-7.93-3.24-2.16-2.16-3.24-4.81-3.24-7.93s1.08-5.7 3.24-7.74c2.17-2.04 4.81-3.06 7.93-3.06 2.88 0 5.4 1.02 7.56 3.06s3.24 4.62 3.24 7.74-1.08 5.77-3.24 7.93-4.68 3.24-7.56 3.24z" fill="#001f32"/><g fill="#dddad6"><path d="m738.86 4553.01c-46.29 0-86.8 2.89-86.8 2.89v202.47h75.23v-65.08s14.46 1.45 26.04 1.45c49.18 0 78.11-28.93 78.11-70.87s-28.93-70.86-92.58-70.86zm-11.57 86.77v-31.81h11.57c10.13 0 17.36 7.23 17.36 15.9 0 8.68-7.23 15.91-17.36 15.91z"/><path d="m828.55 4700.52v57.85h60.75v-57.85z"/><path d="m1086.03 4555.9h-66.54l-21.69 111.36-15.92-111.36h-78.12l43.4 202.47h83.91l21.69-102.68 21.7 102.68h83.9l43.4-202.47h-78.12l-15.91 111.36z"/><path d="m1216.22 4700.52v57.85h60.76v-57.85z"/><path d="m3115.93 4554.45v202.47h75.23v-57.85h60.76v-57.85h-60.76v-23.14h75.22v-63.63z"/><path d="m3266.38 4699.07v57.85h60.75v-57.85z"/><path d="m3526.76 4756.92 34.71-112.8v112.8h75.23v-202.47h-107.05l-33.26 109.91-33.28-109.91h-107.05v202.47h75.23v-112.8l34.72 112.8z"/><path d="m3665.63 4699.07v57.85h60.75v-57.85z"/><path d="m4139.95 4553.01c-46.29 0-86.8 2.89-86.8 2.89v202.47h75.23v-65.08s14.46 1.45 26.04 1.45c49.18 0 78.11-28.93 78.11-70.87s-28.93-70.86-92.58-70.86zm-11.57 86.77v-31.81h11.57c10.13 0 17.36 7.23 17.36 15.9 0 8.68-7.23 15.91-17.36 15.91z"/><path d="m4229.64 4700.52v57.85h60.75v-57.85z"/><path d="m4487.12 4555.9h-66.54l-21.69 111.36-15.92-111.36h-78.12l43.4 202.47h83.91l21.69-102.68 21.7 102.68h83.9l43.4-202.47h-78.12l-15.91 111.36z"/><path d="m4617.31 4700.52v57.85h60.76v-57.85z"/><path d="m4877.7 4758.37 34.7-112.8v112.8h75.23v-202.47h-107.04l-33.27 109.91-33.28-109.91h-107.05v202.47h75.23v-112.8l34.72 112.8z"/><path d="m5016.56 4700.52v57.85h60.76v-57.85z"/><path d="m4385.13 1411.74h124.4v-54.95h-34.72v-26.03h37.62v-54.96h-37.62v-40.49h-54.96v40.49h-37.61v54.96h37.61v26.03h-34.72z"/><path d="m4678.78 1290.26c-11.57 0-20.25 2.89-20.25 2.89l2.89-14.46h75.23v-60.74h-130.19l-14.47 95.45 34.71 23.14s11.57-5.78 23.15-5.78c13.02 0 20.25 7.23 20.25 17.35s-7.23 17.35-20.25 17.35c-20.25 0-37.61-15.9-37.61-15.9l-27.49 43.38s26.05 31.82 81.01 31.82c50.63 0 82.46-31.82 82.46-67.97 0-37.6-28.94-66.53-69.44-66.53z"/><path d="m529.09 1471.1v202.47h75.23v-57.85h60.76v-57.85h-60.76v-23.14h75.22v-63.63z"/><path d="m902.3 1673.57-49.18-78.09s26.04-14.47 26.04-56.41-28.93-70.86-92.58-70.86c-43.4 0-83.91 2.89-83.91 2.89v202.47h75.23v-66.53h2.89l34.72 66.53zm-124.4-118.59v-31.81h8.68c10.13 0 17.36 7.23 17.36 15.9 0 8.68-7.23 15.91-17.36 15.91z"/><path d="m989.11 1601.26h75.21v-57.85h-75.21v-14.46h81v-57.85h-156.23v202.47h162.02v-57.85h-86.79z"/><path d="m1316.04 1572.34c0-59.3-46.29-105.58-112.84-105.58-66.54 0-112.83 46.28-112.83 105.58 0 57.84 43.4 101.23 99.82 104.12 0 0 27.48 57.85 88.24 57.85 14.46 0 26.03-2.89 26.03-2.89v-52.07s-8.68 2.9-17.36 2.9c-20.25 0-27.48-17.36-27.48-17.36s56.42-24.58 56.42-92.55zm-81.01 0c0 20.24-14.47 34.7-31.83 34.7s-31.82-14.46-31.82-34.7c0-20.25 14.46-34.71 31.82-34.71s31.83 14.46 31.83 34.71z"/><path d="m1339.18 1615.72v57.85h60.76v-57.85z"/></g><path d="m2401.12 4620.43v-42.46h-85.26v30.53l-69.48-48.43 69.48-48.77v30.53h121.4v78.6zm-265.26 64.21-48.78-69.48h30.53v-73.33h120.35v36.14h-83.86v37.19h30.18zm180.35 84.91v-36.14h83.86v-37.19h-30.18l48.78-69.48 48.42 69.48h-30.53v73.33zm-77.9 30.53v-30.53h-121.4v-78.6h36.14v42.46h85.26v-30.53l69.48 48.77z" fill="#001f32"/><g fill="#ff0"><path d="m4218.57 2627.25v-43.73h92.77v43.73z"/><path d="m3074.49 2627.25v-43.73h92.77v43.73z"/><path d="m4884.51 2586.86h66.68v37.74h-66.68v66.3h-37.74v-66.3h-66.67v-37.74h66.67v-67.01h37.74z"/><path d="m3740.43 2586.86h66.68v37.74h-66.68v66.3h-37.74v-66.3h-66.67v-37.74h66.67v-67.01h37.74z"/></g></g><path d="m4566.26 2627.19v318.69" fill="none" stroke="#dddad6" stroke-linecap="round" stroke-miterlimit="22.9256" stroke-width="70.56"/><path d="m3422.18 2627.19v318.69" fill="none" stroke="#dddad6" stroke-linecap="round" stroke-miterlimit="22.9256" stroke-width="70.56"/><g fill="#dddad6" fill-rule="nonzero"><path d="m3399.98 3324.74c0-11.69 9.48-21.17 21.17-21.17s21.17 9.48 21.17 21.17zm42.34 21.17h-42.34v-21.17h42.34zm0 0c0 11.69-9.48 21.17-21.17 21.17s-21.17-9.48-21.17-21.17zm-42.34 82.32c0-11.69 9.48-21.17 21.17-21.17s21.17 9.48 21.17 21.17zm42.34 27.44h-42.34v-27.44h42.34zm0 0c0 11.69-9.48 21.17-21.17 21.17s-21.17-9.48-21.17-21.17zm-42.34 82.32c0-11.69 9.48-21.17 21.17-21.17s21.17 9.48 21.17 21.17zm0 21.17v-21.17h42.34v21.17zm42.34 0c0 11.69-9.48 21.17-21.17 21.17s-21.17-9.48-21.17-21.17z"/><path d="m4544.06 3324.74c0-11.69 9.48-21.17 21.17-21.17s21.17 9.48 21.17 21.17zm42.34 21.17h-42.34v-21.17h42.34zm0 0c0 11.69-9.48 21.17-21.17 21.17s-21.17-9.48-21.17-21.17zm-42.34 82.32c0-11.69 9.48-21.17 21.17-21.17s21.17 9.48 21.17 21.17zm42.34 27.44h-42.34v-27.44h42.34zm0 0c0 11.69-9.48 21.17-21.17 21.17s-21.17-9.48-21.17-21.17zm-42.34 82.32c0-11.69 9.48-21.17 21.17-21.17s21.17 9.48 21.17 21.17zm0 21.17v-21.17h42.34v21.17zm42.34 0c0 11.69-9.48 21.17-21.17 21.17s-21.17-9.48-21.17-21.17z"/><path d="m3331.58 1315.47c-2.05-7.21-9.56-11.39-16.77-9.34-7.21 2.06-11.39 9.56-9.34 16.77 18.99 66.46 40.44 99.69 64.37 99.69s45.38-33.23 64.36-99.69c15.23-53.29 27.98-79.94 38.26-79.94s23.03 26.65 38.25 79.94c2.06 7.21 9.56 11.4 16.77 9.34 7.21-2.05 11.4-9.56 9.34-16.77-18.98-66.45-40.43-99.68-64.36-99.68s-45.38 33.23-64.37 99.68c-15.22 53.3-27.97 79.95-38.25 79.95s-23.03-26.65-38.26-79.95z"/></g><path d="m197 4988.53h4195.15c146.91 0 267.1 120.19 267.1 267.1v1175.37h-4195.15c-146.91 0-267.1-120.19-267.1-267.1v-1175.37z" fill="url(#d)" stroke="#838383" stroke-miterlimit="22.9256" stroke-width="26.45"/><g fill="#001f32" fill-rule="nonzero"><path d="m3976.41 5252.99c0 13.79-11.18 24.97-24.96 24.97-13.79 0-24.97-11.18-24.97-24.97v-190h238.5v330.07h138.64v-140.07c0-13.79 11.18-24.96 24.97-24.96s24.96 11.17 24.96 24.96v190h-238.5v-330.07h-138.64z"/><path d="m2913.1 5251.89c-.06 11.88-5.73 21.43-12.68 21.34s-12.54-9.8-12.49-21.68l1.26-188.56 188.94 285.5.63-94.4c.05-11.88 5.73-21.43 12.68-21.34s12.54 9.8 12.48 21.68l-1.25 188.56-188.94-285.5z"/><path d="m1703.15 5263.61c-6.23 10.55-19.83 14.04-30.38 7.81-10.54-6.23-14.04-19.83-7.81-30.37l106.38-179.64 99.81 181.26 66.61 112.48 62.49-113.49c5.89-10.74 19.37-14.67 30.11-8.77s14.66 19.38 8.77 30.11l-99.97 181.57-106.38-179.65-.35-.6-62.49-113.5z"/><path d="m543.23 5259.82c-3.77 13.25-17.57 20.93-30.82 17.16s-20.93-17.57-17.16-30.81c34.88-122.12 74.31-183.18 118.27-183.18 43.97 0 83.39 61.06 118.28 183.18 27.97 97.93 51.4 146.89 70.29 146.89s42.32-48.96 70.3-146.89c3.77-13.25 17.56-20.94 30.81-17.17s20.94 17.57 17.17 30.82c-34.89 122.11-74.31 183.17-118.28 183.17-43.96 0-83.39-61.06-118.27-183.17-27.98-97.93-51.41-146.9-70.3-146.9s-42.32 48.97-70.29 146.9z"/></g><path d="m4837.68 6961.83h-4640.68v3246.39c0 344.9 282.19 627.09 627.09 627.09h4640.68v-3246.39c0-344.9-282.19-627.09-627.09-627.09z" fill="url(#e)" stroke="#666" stroke-miterlimit="22.9256" stroke-width="26.42"/><g fill-rule="nonzero"><path d="m2242.33 7111.39v-33.86h69.52v33.86zm34.94 346.14c-23.53 0-45.51-4.44-65.92-13.33-20.41-8.88-38.3-21.13-53.67-36.74-15.36-15.6-27.37-33.55-36.01-53.84-8.65-20.3-12.97-41.73-12.97-64.3 0-23.53 4.44-45.5 13.33-65.91 8.88-20.41 21.13-38.3 36.74-53.67 15.6-15.37 33.55-27.32 53.84-35.84 20.29-8.53 41.85-12.79 64.66-12.79 23.05 0 44.72 4.38 65.01 13.15 20.29 8.76 38.18 20.83 53.67 36.2s27.62 33.2 36.38 53.49c8.77 20.29 13.15 42.08 13.15 65.37 0 23.05-4.38 44.78-13.15 65.2-8.76 20.41-20.83 38.3-36.2 53.66-15.37 15.37-33.26 27.44-53.67 36.2-20.41 8.77-42.14 13.15-65.19 13.15zm139.39-279.87-20.53-20.53 19.09-19.81 20.89 19.81zm-139.39 253.94c19.69 0 38.12-3.67 55.29-10.99s32.3-17.47 45.38-30.44c13.09-12.96 23.3-28.03 30.62-45.2s10.99-35.72 10.99-55.65-3.61-38.54-10.81-55.83-17.29-32.42-30.26-45.38c-12.96-12.97-28.09-23.11-45.38-30.44-17.29-7.32-35.9-10.98-55.83-10.98-19.69 0-38.18 3.66-55.47 10.98-17.29 7.33-32.48 17.47-45.57 30.44-13.08 12.96-23.29 28.09-30.61 45.38-7.33 17.29-10.99 35.9-10.99 55.83s3.66 38.48 10.99 55.65c7.32 17.17 17.53 32.24 30.61 45.2 13.09 12.97 28.28 23.12 45.57 30.44s35.78 10.99 55.47 10.99zm0-121.03c-6 0-11.11-2.04-15.31-6.12s-6.3-9.13-6.3-15.13c0-4.56 1.26-8.64 3.78-12.25 2.52-3.6 5.94-6 10.26-7.2v-86.44l-18 3.96 25.57-35.3 25.21 35.3-18.01-3.96v86.44c4.32 1.2 7.75 3.6 10.27 7.2 2.52 3.61 3.78 7.69 3.78 12.25 0 6-2.04 11.05-6.12 15.13-4.09 4.08-9.13 6.12-15.13 6.12zm58.71-111.66c-3.12 0-5.76-1.08-7.92-3.24-2.17-2.16-3.25-4.68-3.25-7.56 0-3.12 1.08-5.77 3.25-7.93 2.16-2.16 4.8-3.24 7.92-3.24 2.88 0 5.4 1.08 7.56 3.24 2.17 2.16 3.25 4.81 3.25 7.93 0 2.88-1.08 5.4-3.25 7.56-2.16 2.16-4.68 3.24-7.56 3.24zm-117.78 0c-2.88 0-5.41-1.08-7.57-3.24s-3.24-4.68-3.24-7.56c0-3.12 1.08-5.77 3.24-7.93s4.69-3.24 7.57-3.24c3.12 0 5.76 1.08 7.92 3.24s3.24 4.81 3.24 7.93c0 2.88-1.08 5.4-3.24 7.56s-4.8 3.24-7.92 3.24zm-43.23 43.59c-3.12 0-5.76-1.08-7.92-3.25-2.16-2.16-3.24-4.8-3.24-7.92 0-2.88 1.08-5.4 3.24-7.56s4.8-3.25 7.92-3.25c3.37 0 6.01 1.09 7.93 3.25s2.88 4.68 2.88 7.56c0 3.12-.96 5.76-2.88 7.92-1.92 2.17-4.56 3.25-7.93 3.25zm204.23 0c-3.12 0-5.7-1.08-7.74-3.25-2.04-2.16-3.06-4.8-3.06-7.92 0-2.88 1.02-5.4 3.06-7.56s4.62-3.25 7.74-3.25c3.13 0 5.77 1.09 7.93 3.25s3.24 4.68 3.24 7.56c0 3.12-1.08 5.76-3.24 7.92-2.16 2.17-4.8 3.25-7.93 3.25zm-219.71 57.63c-3.13 0-5.71-1.08-7.75-3.24-2.04-2.17-3.06-4.69-3.06-7.57 0-3.12 1.02-5.76 3.06-7.92s4.62-3.24 7.75-3.24c3.12 0 5.7 1.08 7.74 3.24s3.06 4.8 3.06 7.92c0 2.88-1.02 5.4-3.06 7.57-2.04 2.16-4.62 3.24-7.74 3.24zm235.2 0c-3.12 0-5.7-1.08-7.74-3.24-2.04-2.17-3.06-4.69-3.06-7.57 0-3.12 1.02-5.76 3.06-7.92s4.62-3.24 7.74-3.24c3.36 0 6.01 1.08 7.93 3.24s2.88 4.8 2.88 7.92c0 2.88-.96 5.4-2.88 7.57-1.92 2.16-4.57 3.24-7.93 3.24zm-15.49 58.35c-3.12 0-5.7-1.08-7.74-3.24-2.04-2.17-3.06-4.81-3.06-7.93 0-2.88 1.02-5.4 3.06-7.56s4.62-3.24 7.74-3.24c3.13 0 5.77 1.08 7.93 3.24s3.24 4.68 3.24 7.56c0 3.12-1.08 5.76-3.24 7.93-2.16 2.16-4.8 3.24-7.93 3.24zm-204.23 0c-3.12 0-5.76-1.08-7.92-3.24-2.16-2.17-3.24-4.81-3.24-7.93 0-2.88 1.08-5.4 3.24-7.56s4.8-3.24 7.92-3.24c3.37 0 6.01 1.08 7.93 3.24s2.88 4.68 2.88 7.56c0 3.12-.96 5.76-2.88 7.93-1.92 2.16-4.56 3.24-7.93 3.24zm161.01 43.22c-3.12 0-5.76-1.08-7.92-3.24-2.17-2.16-3.25-4.68-3.25-7.57 0-3.12 1.08-5.76 3.25-7.92 2.16-2.16 4.8-3.24 7.92-3.24 2.88 0 5.4 1.08 7.56 3.24 2.17 2.16 3.25 4.8 3.25 7.92 0 2.89-1.08 5.41-3.25 7.57-2.16 2.16-4.68 3.24-7.56 3.24zm-117.78 0c-2.88 0-5.41-1.08-7.57-3.24s-3.24-4.68-3.24-7.57c0-3.12 1.08-5.76 3.24-7.92s4.69-3.24 7.57-3.24c3.12 0 5.76 1.08 7.92 3.24s3.24 4.8 3.24 7.92c0 2.89-1.08 5.41-3.24 7.57s-4.8 3.24-7.92 3.24zm59.07 16.21c-3.12 0-5.76-1.08-7.93-3.24-2.16-2.16-3.24-4.81-3.24-7.93s1.08-5.7 3.24-7.74c2.17-2.04 4.81-3.06 7.93-3.06 2.88 0 5.4 1.02 7.56 3.06s3.24 4.62 3.24 7.74-1.08 5.77-3.24 7.93-4.68 3.24-7.56 3.24z" fill="#001f32"/><g fill="#dddad6"><path d="m738.86 10501.35c-46.29 0-86.8 2.89-86.8 2.89v202.47h75.23v-65.08s14.46 1.45 26.04 1.45c49.18 0 78.11-28.93 78.11-70.87s-28.93-70.86-92.58-70.86zm-11.57 86.77v-31.81h11.57c10.13 0 17.36 7.23 17.36 15.9 0 8.68-7.23 15.91-17.36 15.91z"/><path d="m828.55 10648.86v57.85h60.75v-57.85z"/><path d="m1086.03 10504.24h-66.54l-21.69 111.36-15.92-111.36h-78.12l43.4 202.47h83.91l21.69-102.68 21.7 102.68h83.9l43.4-202.47h-78.12l-15.91 111.36z"/><path d="m1216.22 10648.86v57.85h60.76v-57.85z"/><path d="m3115.93 10502.79v202.47h75.23v-57.85h60.76v-57.85h-60.76v-23.14h75.22v-63.63z"/><path d="m3266.38 10647.41v57.85h60.75v-57.85z"/><path d="m3526.76 10705.26 34.71-112.8v112.8h75.23v-202.47h-107.05l-33.26 109.91-33.28-109.91h-107.05v202.47h75.23v-112.8l34.72 112.8z"/><path d="m3665.63 10647.41v57.85h60.75v-57.85z"/><path d="m4139.95 10501.35c-46.29 0-86.8 2.89-86.8 2.89v202.47h75.23v-65.08s14.46 1.45 26.04 1.45c49.18 0 78.11-28.93 78.11-70.87s-28.93-70.86-92.58-70.86zm-11.57 86.77v-31.81h11.57c10.13 0 17.36 7.23 17.36 15.9 0 8.68-7.23 15.91-17.36 15.91z"/><path d="m4229.64 10648.86v57.85h60.75v-57.85z"/><path d="m4487.12 10504.24h-66.54l-21.69 111.36-15.92-111.36h-78.12l43.4 202.47h83.91l21.69-102.68 21.7 102.68h83.9l43.4-202.47h-78.12l-15.91 111.36z"/><path d="m4617.31 10648.86v57.85h60.76v-57.85z"/><path d="m4877.7 10706.71 34.7-112.8v112.8h75.23v-202.47h-107.04l-33.27 109.91-33.28-109.91h-107.05v202.47h75.23v-112.8l34.72 112.8z"/><path d="m5016.56 10648.86v57.85h60.76v-57.85z"/><path d="m4385.13 7360.08h124.4v-54.95h-34.72v-26.03h37.62v-54.96h-37.62v-40.49h-54.96v40.49h-37.61v54.96h37.61v26.03h-34.72z"/><path d="m4678.78 7238.6c-11.57 0-20.25 2.89-20.25 2.89l2.89-14.46h75.23v-60.74h-130.19l-14.47 95.45 34.71 23.14s11.57-5.78 23.15-5.78c13.02 0 20.25 7.23 20.25 17.35s-7.23 17.35-20.25 17.35c-20.25 0-37.61-15.9-37.61-15.9l-27.49 43.38s26.05 31.82 81.01 31.82c50.63 0 82.46-31.82 82.46-67.97 0-37.6-28.94-66.53-69.44-66.53z"/><path d="m529.09 7419.44v202.47h75.23v-57.85h60.76v-57.85h-60.76v-23.14h75.22v-63.63z"/><path d="m902.3 7621.91-49.18-78.09s26.04-14.47 26.04-56.41-28.93-70.86-92.58-70.86c-43.4 0-83.91 2.89-83.91 2.89v202.47h75.23v-66.53h2.89l34.72 66.53zm-124.4-118.59v-31.81h8.68c10.13 0 17.36 7.23 17.36 15.9 0 8.68-7.23 15.91-17.36 15.91z"/><path d="m989.11 7549.6h75.21v-57.85h-75.21v-14.46h81v-57.85h-156.23v202.47h162.02v-57.85h-86.79z"/><path d="m1316.04 7520.68c0-59.3-46.29-105.58-112.84-105.58-66.54 0-112.83 46.28-112.83 105.58 0 57.84 43.4 101.23 99.82 104.12 0 0 27.48 57.85 88.24 57.85 14.46 0 26.03-2.89 26.03-2.89v-52.07s-8.68 2.9-17.36 2.9c-20.25 0-27.48-17.36-27.48-17.36s56.42-24.58 56.42-92.55zm-81.01 0c0 20.24-14.47 34.7-31.83 34.7s-31.82-14.46-31.82-34.7c0-20.25 14.46-34.71 31.82-34.71s31.83 14.46 31.83 34.71z"/><path d="m1339.18 7564.06v57.85h60.76v-57.85z"/></g><path d="m2401.12 10568.77v-42.46h-85.26v30.53l-69.48-48.43 69.48-48.77v30.53h121.4v78.6zm-265.26 64.21-48.78-69.48h30.53v-73.33h120.35v36.14h-83.86v37.19h30.18zm180.35 84.91v-36.14h83.86v-37.19h-30.18l48.78-69.48 48.42 69.48h-30.53v73.33zm-77.9 30.53v-30.53h-121.4v-78.6h36.14v42.46h85.26v-30.53l69.48 48.77z" fill="#001f32"/><g fill="#ff0"><path d="m4218.57 8575.59v-43.73h92.77v43.73z"/><path d="m3074.49 8575.59v-43.73h92.77v43.73z"/><path d="m4884.51 8535.2h66.68v37.74h-66.68v66.3h-37.74v-66.3h-66.67v-37.74h66.67v-67.01h37.74z"/><path d="m3740.43 8535.2h66.68v37.74h-66.68v66.3h-37.74v-66.3h-66.67v-37.74h66.67v-67.01h37.74z"/></g></g><path d="m4566.26 8575.53v318.69" fill="none" stroke="#dddad6" stroke-linecap="round" stroke-miterlimit="22.9256" stroke-width="70.56"/><path d="m3422.18 8575.53v318.69" fill="none" stroke="#dddad6" stroke-linecap="round" stroke-miterlimit="22.9256" stroke-width="70.56"/><g fill="#dddad6" fill-rule="nonzero"><path d="m3399.98 9273.08c0-11.69 9.48-21.17 21.17-21.17s21.17 9.48 21.17 21.17zm42.34 21.17h-42.34v-21.17h42.34zm0 0c0 11.69-9.48 21.17-21.17 21.17s-21.17-9.48-21.17-21.17zm-42.34 82.32c0-11.69 9.48-21.17 21.17-21.17s21.17 9.48 21.17 21.17zm42.34 27.44h-42.34v-27.44h42.34zm0 0c0 11.69-9.48 21.17-21.17 21.17s-21.17-9.48-21.17-21.17zm-42.34 82.32c0-11.69 9.48-21.17 21.17-21.17s21.17 9.48 21.17 21.17zm0 21.17v-21.17h42.34v21.17zm42.34 0c0 11.69-9.48 21.17-21.17 21.17s-21.17-9.48-21.17-21.17z"/><path d="m4544.06 9273.08c0-11.69 9.48-21.17 21.17-21.17s21.17 9.48 21.17 21.17zm42.34 21.17h-42.34v-21.17h42.34zm0 0c0 11.69-9.48 21.17-21.17 21.17s-21.17-9.48-21.17-21.17zm-42.34 82.32c0-11.69 9.48-21.17 21.17-21.17s21.17 9.48 21.17 21.17zm42.34 27.44h-42.34v-27.44h42.34zm0 0c0 11.69-9.48 21.17-21.17 21.17s-21.17-9.48-21.17-21.17zm-42.34 82.32c0-11.69 9.48-21.17 21.17-21.17s21.17 9.48 21.17 21.17zm0 21.17v-21.17h42.34v21.17zm42.34 0c0 11.69-9.48 21.17-21.17 21.17s-21.17-9.48-21.17-21.17z"/><path d="m3331.58 7263.81c-2.05-7.21-9.56-11.39-16.77-9.34-7.21 2.06-11.39 9.56-9.34 16.77 18.99 66.46 40.44 99.69 64.37 99.69s45.38-33.23 64.36-99.69c15.23-53.29 27.98-79.94 38.26-79.94s23.03 26.65 38.25 79.94c2.06 7.21 9.56 11.4 16.77 9.34 7.21-2.05 11.4-9.56 9.34-16.77-18.98-66.45-40.43-99.68-64.36-99.68s-45.38 33.23-64.37 99.68c-15.22 53.3-27.97 79.95-38.25 79.95s-23.03-26.65-38.26-79.95z"/></g><path d="m399.82 10936.87h4195.15v1175.37c0 146.91-120.19 267.1-267.1 267.1h-4195.15v-1175.37c0-146.91 120.19-267.1 267.1-267.1z" fill="url(#f)" stroke="#838383" stroke-miterlimit="22.9256" stroke-width="26.45"/><g fill="#001f32" fill-rule="nonzero"><path d="m3976.41 11201.33c0 13.79-11.18 24.97-24.96 24.97-13.79 0-24.97-11.18-24.97-24.97v-190h238.5v330.07h138.64v-140.07c0-13.79 11.18-24.96 24.97-24.96s24.96 11.17 24.96 24.96v190h-238.5v-330.07h-138.64z"/><path d="m2913.1 11200.23c-.06 11.88-5.73 21.43-12.68 21.34s-12.54-9.8-12.49-21.68l1.26-188.56 188.94 285.5.63-94.4c.05-11.88 5.73-21.43 12.68-21.34s12.54 9.8 12.48 21.68l-1.25 188.56-188.94-285.5z"/><path d="m1703.15 11211.95c-6.23 10.55-19.83 14.04-30.38 7.81-10.54-6.23-14.04-19.83-7.81-30.37l106.38-179.64 99.81 181.26 66.61 112.48 62.49-113.49c5.89-10.74 19.37-14.67 30.11-8.77s14.66 19.38 8.77 30.11l-99.97 181.57-106.38-179.65-.35-.6-62.49-113.5z"/><path d="m543.23 11208.16c-3.77 13.25-17.57 20.93-30.82 17.16s-20.93-17.57-17.16-30.81c34.88-122.12 74.31-183.18 118.27-183.18 43.97 0 83.39 61.06 118.28 183.18 27.97 97.93 51.4 146.89 70.29 146.89s42.32-48.96 70.3-146.89c3.77-13.25 17.56-20.94 30.81-17.17s20.94 17.57 17.17 30.82c-34.89 122.11-74.31 183.17-118.28 183.17-43.96 0-83.39-61.06-118.27-183.17-27.98-97.93-51.41-146.9-70.3-146.9s-42.32 48.97-70.29 146.9z"/></g><path d="m10352.27 1013.49h-4640.68v3246.39c0 344.9 282.19 627.09 627.09 627.09h4640.68v-3246.39c0-344.9-282.19-627.09-627.09-627.09z" fill="url(#g)" stroke="#666" stroke-miterlimit="22.9256" stroke-width="26.42"/><g fill-rule="nonzero"><path d="m7756.92 1163.05v-33.86h69.52v33.86zm34.94 346.14c-23.53 0-45.51-4.44-65.92-13.33-20.41-8.88-38.3-21.13-53.67-36.74-15.36-15.6-27.37-33.55-36.01-53.84-8.65-20.3-12.97-41.73-12.97-64.3 0-23.53 4.44-45.5 13.33-65.91 8.88-20.41 21.13-38.3 36.74-53.67 15.6-15.37 33.55-27.32 53.84-35.84 20.29-8.53 41.85-12.79 64.66-12.79 23.05 0 44.72 4.38 65.01 13.15 20.29 8.76 38.18 20.83 53.67 36.2s27.62 33.2 36.38 53.49c8.77 20.29 13.15 42.08 13.15 65.37 0 23.05-4.38 44.78-13.15 65.2-8.76 20.41-20.83 38.3-36.2 53.66-15.37 15.37-33.26 27.44-53.67 36.2-20.41 8.77-42.14 13.15-65.19 13.15zm139.39-279.87-20.53-20.53 19.09-19.81 20.89 19.81zm-139.39 253.94c19.69 0 38.12-3.67 55.29-10.99s32.3-17.47 45.38-30.44c13.09-12.96 23.3-28.03 30.62-45.2s10.99-35.72 10.99-55.65-3.61-38.54-10.81-55.83-17.29-32.42-30.26-45.38c-12.96-12.97-28.09-23.11-45.38-30.44-17.29-7.32-35.9-10.98-55.83-10.98-19.69 0-38.18 3.66-55.47 10.98-17.29 7.33-32.48 17.47-45.57 30.44-13.08 12.96-23.29 28.09-30.61 45.38-7.33 17.29-10.99 35.9-10.99 55.83s3.66 38.48 10.99 55.65c7.32 17.17 17.53 32.24 30.61 45.2 13.09 12.97 28.28 23.12 45.57 30.44s35.78 10.99 55.47 10.99zm0-121.03c-6 0-11.11-2.04-15.31-6.12s-6.3-9.13-6.3-15.13c0-4.56 1.26-8.64 3.78-12.25 2.52-3.6 5.94-6 10.26-7.2v-86.44l-18 3.96 25.57-35.3 25.21 35.3-18.01-3.96v86.44c4.32 1.2 7.75 3.6 10.27 7.2 2.52 3.61 3.78 7.69 3.78 12.25 0 6-2.04 11.05-6.12 15.13-4.09 4.08-9.13 6.12-15.13 6.12zm58.71-111.66c-3.12 0-5.76-1.08-7.92-3.24-2.17-2.16-3.25-4.68-3.25-7.56 0-3.12 1.08-5.77 3.25-7.93 2.16-2.16 4.8-3.24 7.92-3.24 2.88 0 5.4 1.08 7.56 3.24 2.17 2.16 3.25 4.81 3.25 7.93 0 2.88-1.08 5.4-3.25 7.56-2.16 2.16-4.68 3.24-7.56 3.24zm-117.78 0c-2.88 0-5.41-1.08-7.57-3.24s-3.24-4.68-3.24-7.56c0-3.12 1.08-5.77 3.24-7.93s4.69-3.24 7.57-3.24c3.12 0 5.76 1.08 7.92 3.24s3.24 4.81 3.24 7.93c0 2.88-1.08 5.4-3.24 7.56s-4.8 3.24-7.92 3.24zm-43.23 43.59c-3.12 0-5.76-1.08-7.92-3.25-2.16-2.16-3.24-4.8-3.24-7.92 0-2.88 1.08-5.4 3.24-7.56s4.8-3.25 7.92-3.25c3.37 0 6.01 1.09 7.93 3.25s2.88 4.68 2.88 7.56c0 3.12-.96 5.76-2.88 7.92-1.92 2.17-4.56 3.25-7.93 3.25zm204.23 0c-3.12 0-5.7-1.08-7.74-3.25-2.04-2.16-3.06-4.8-3.06-7.92 0-2.88 1.02-5.4 3.06-7.56s4.62-3.25 7.74-3.25c3.13 0 5.77 1.09 7.93 3.25s3.24 4.68 3.24 7.56c0 3.12-1.08 5.76-3.24 7.92-2.16 2.17-4.8 3.25-7.93 3.25zm-219.71 57.63c-3.13 0-5.71-1.08-7.75-3.24-2.04-2.17-3.06-4.69-3.06-7.57 0-3.12 1.02-5.76 3.06-7.92s4.62-3.24 7.75-3.24c3.12 0 5.7 1.08 7.74 3.24s3.06 4.8 3.06 7.92c0 2.88-1.02 5.4-3.06 7.57-2.04 2.16-4.62 3.24-7.74 3.24zm235.2 0c-3.12 0-5.7-1.08-7.74-3.24-2.04-2.17-3.06-4.69-3.06-7.57 0-3.12 1.02-5.76 3.06-7.92s4.62-3.24 7.74-3.24c3.36 0 6.01 1.08 7.93 3.24s2.88 4.8 2.88 7.92c0 2.88-.96 5.4-2.88 7.57-1.92 2.16-4.57 3.24-7.93 3.24zm-15.49 58.35c-3.12 0-5.7-1.08-7.74-3.24-2.04-2.17-3.06-4.81-3.06-7.93 0-2.88 1.02-5.4 3.06-7.56s4.62-3.24 7.74-3.24c3.13 0 5.77 1.08 7.93 3.24s3.24 4.68 3.24 7.56c0 3.12-1.08 5.76-3.24 7.93-2.16 2.16-4.8 3.24-7.93 3.24zm-204.23 0c-3.12 0-5.76-1.08-7.92-3.24-2.16-2.17-3.24-4.81-3.24-7.93 0-2.88 1.08-5.4 3.24-7.56s4.8-3.24 7.92-3.24c3.37 0 6.01 1.08 7.93 3.24s2.88 4.68 2.88 7.56c0 3.12-.96 5.76-2.88 7.93-1.92 2.16-4.56 3.24-7.93 3.24zm161.01 43.22c-3.12 0-5.76-1.08-7.92-3.24-2.17-2.16-3.25-4.68-3.25-7.57 0-3.12 1.08-5.76 3.25-7.92 2.16-2.16 4.8-3.24 7.92-3.24 2.88 0 5.4 1.08 7.56 3.24 2.17 2.16 3.25 4.8 3.25 7.92 0 2.89-1.08 5.41-3.25 7.57-2.16 2.16-4.68 3.24-7.56 3.24zm-117.78 0c-2.88 0-5.41-1.08-7.57-3.24s-3.24-4.68-3.24-7.57c0-3.12 1.08-5.76 3.24-7.92s4.69-3.24 7.57-3.24c3.12 0 5.76 1.08 7.92 3.24s3.24 4.8 3.24 7.92c0 2.89-1.08 5.41-3.24 7.57s-4.8 3.24-7.92 3.24zm59.07 16.21c-3.12 0-5.76-1.08-7.93-3.24-2.16-2.16-3.24-4.81-3.24-7.93s1.08-5.7 3.24-7.74c2.17-2.04 4.81-3.06 7.93-3.06 2.88 0 5.4 1.02 7.56 3.06s3.24 4.62 3.24 7.74-1.08 5.77-3.24 7.93-4.68 3.24-7.56 3.24z" fill="#001f32"/><g fill="#dddad6"><path d="m6253.45 4553.01c-46.29 0-86.8 2.89-86.8 2.89v202.47h75.23v-65.08s14.46 1.45 26.04 1.45c49.18 0 78.11-28.93 78.11-70.87s-28.93-70.86-92.58-70.86zm-11.57 86.77v-31.81h11.57c10.13 0 17.36 7.23 17.36 15.9 0 8.68-7.23 15.91-17.36 15.91z"/><path d="m6343.14 4700.52v57.85h60.75v-57.85z"/><path d="m6600.62 4555.9h-66.54l-21.69 111.36-15.92-111.36h-78.12l43.4 202.47h83.91l21.69-102.68 21.7 102.68h83.9l43.4-202.47h-78.12l-15.91 111.36z"/><path d="m6730.81 4700.52v57.85h60.76v-57.85z"/><path d="m8630.52 4554.45v202.47h75.23v-57.85h60.76v-57.85h-60.76v-23.14h75.22v-63.63z"/><path d="m8780.97 4699.07v57.85h60.75v-57.85z"/><path d="m9041.35 4756.92 34.71-112.8v112.8h75.23v-202.47h-107.05l-33.26 109.91-33.28-109.91h-107.05v202.47h75.23v-112.8l34.72 112.8z"/><path d="m9180.22 4699.07v57.85h60.75v-57.85z"/><path d="m9654.54 4553.01c-46.29 0-86.8 2.89-86.8 2.89v202.47h75.23v-65.08s14.46 1.45 26.04 1.45c49.18 0 78.11-28.93 78.11-70.87s-28.93-70.86-92.58-70.86zm-11.57 86.77v-31.81h11.57c10.13 0 17.36 7.23 17.36 15.9 0 8.68-7.23 15.91-17.36 15.91z"/><path d="m9744.23 4700.52v57.85h60.75v-57.85z"/><path d="m10001.71 4555.9h-66.54l-21.69 111.36-15.92-111.36h-78.12l43.4 202.47h83.91l21.69-102.68 21.7 102.68h83.9l43.4-202.47h-78.12l-15.91 111.36z"/><path d="m10131.9 4700.52v57.85h60.76v-57.85z"/><path d="m10392.29 4758.37 34.7-112.8v112.8h75.23v-202.47h-107.04l-33.27 109.91-33.28-109.91h-107.05v202.47h75.23v-112.8l34.72 112.8z"/><path d="m10531.15 4700.52v57.85h60.76v-57.85z"/><path d="m9899.72 1411.74h124.4v-54.95h-34.72v-26.03h37.62v-54.96h-37.62v-40.49h-54.96v40.49h-37.61v54.96h37.61v26.03h-34.72z"/><path d="m10193.37 1290.26c-11.57 0-20.25 2.89-20.25 2.89l2.89-14.46h75.23v-60.74h-130.19l-14.47 95.45 34.71 23.14s11.57-5.78 23.15-5.78c13.02 0 20.25 7.23 20.25 17.35s-7.23 17.35-20.25 17.35c-20.25 0-37.61-15.9-37.61-15.9l-27.49 43.38s26.05 31.82 81.01 31.82c50.63 0 82.46-31.82 82.46-67.97 0-37.6-28.94-66.53-69.44-66.53z"/><path d="m6043.68 1471.1v202.47h75.23v-57.85h60.76v-57.85h-60.76v-23.14h75.22v-63.63z"/><path d="m6416.89 1673.57-49.18-78.09s26.04-14.47 26.04-56.41-28.93-70.86-92.58-70.86c-43.4 0-83.91 2.89-83.91 2.89v202.47h75.23v-66.53h2.89l34.72 66.53zm-124.4-118.59v-31.81h8.68c10.13 0 17.36 7.23 17.36 15.9 0 8.68-7.23 15.91-17.36 15.91z"/><path d="m6503.7 1601.26h75.21v-57.85h-75.21v-14.46h81v-57.85h-156.23v202.47h162.02v-57.85h-86.79z"/><path d="m6830.63 1572.34c0-59.3-46.29-105.58-112.84-105.58-66.54 0-112.83 46.28-112.83 105.58 0 57.84 43.4 101.23 99.82 104.12 0 0 27.48 57.85 88.24 57.85 14.46 0 26.03-2.89 26.03-2.89v-52.07s-8.68 2.9-17.36 2.9c-20.25 0-27.48-17.36-27.48-17.36s56.42-24.58 56.42-92.55zm-81.01 0c0 20.24-14.47 34.7-31.83 34.7s-31.82-14.46-31.82-34.7c0-20.25 14.46-34.71 31.82-34.71s31.83 14.46 31.83 34.71z"/><path d="m6853.77 1615.72v57.85h60.76v-57.85z"/></g><path d="m7915.71 4620.43v-42.46h-85.26v30.53l-69.48-48.43 69.48-48.77v30.53h121.4v78.6zm-265.26 64.21-48.78-69.48h30.53v-73.33h120.35v36.14h-83.86v37.19h30.18zm180.35 84.91v-36.14h83.86v-37.19h-30.18l48.78-69.48 48.42 69.48h-30.53v73.33zm-77.9 30.53v-30.53h-121.4v-78.6h36.14v42.46h85.26v-30.53l69.48 48.77z" fill="#001f32"/><g fill="#ff0"><path d="m9733.16 2627.25v-43.73h92.77v43.73z"/><path d="m8589.08 2627.25v-43.73h92.77v43.73z"/><path d="m10399.1 2586.86h66.68v37.74h-66.68v66.3h-37.74v-66.3h-66.67v-37.74h66.67v-67.01h37.74z"/><path d="m9255.02 2586.86h66.68v37.74h-66.68v66.3h-37.74v-66.3h-66.67v-37.74h66.67v-67.01h37.74z"/></g></g><path d="m10080.85 2627.19v318.69" fill="none" stroke="#dddad6" stroke-linecap="round" stroke-miterlimit="22.9256" stroke-width="70.56"/><path d="m8936.77 2627.19v318.69" fill="none" stroke="#dddad6" stroke-linecap="round" stroke-miterlimit="22.9256" stroke-width="70.56"/><g fill="#dddad6" fill-rule="nonzero"><path d="m8914.57 3324.74c0-11.69 9.48-21.17 21.17-21.17s21.17 9.48 21.17 21.17zm42.34 21.17h-42.34v-21.17h42.34zm0 0c0 11.69-9.48 21.17-21.17 21.17s-21.17-9.48-21.17-21.17zm-42.34 82.32c0-11.69 9.48-21.17 21.17-21.17s21.17 9.48 21.17 21.17zm42.34 27.44h-42.34v-27.44h42.34zm0 0c0 11.69-9.48 21.17-21.17 21.17s-21.17-9.48-21.17-21.17zm-42.34 82.32c0-11.69 9.48-21.17 21.17-21.17s21.17 9.48 21.17 21.17zm0 21.17v-21.17h42.34v21.17zm42.34 0c0 11.69-9.48 21.17-21.17 21.17s-21.17-9.48-21.17-21.17z"/><path d="m10058.65 3324.74c0-11.69 9.48-21.17 21.17-21.17s21.17 9.48 21.17 21.17zm42.34 21.17h-42.34v-21.17h42.34zm0 0c0 11.69-9.48 21.17-21.17 21.17s-21.17-9.48-21.17-21.17zm-42.34 82.32c0-11.69 9.48-21.17 21.17-21.17s21.17 9.48 21.17 21.17zm42.34 27.44h-42.34v-27.44h42.34zm0 0c0 11.69-9.48 21.17-21.17 21.17s-21.17-9.48-21.17-21.17zm-42.34 82.32c0-11.69 9.48-21.17 21.17-21.17s21.17 9.48 21.17 21.17zm0 21.17v-21.17h42.34v21.17zm42.34 0c0 11.69-9.48 21.17-21.17 21.17s-21.17-9.48-21.17-21.17z"/><path d="m8846.17 1315.47c-2.05-7.21-9.56-11.39-16.77-9.34-7.21 2.06-11.39 9.56-9.34 16.77 18.99 66.46 40.44 99.69 64.37 99.69s45.38-33.23 64.36-99.69c15.23-53.29 27.98-79.94 38.26-79.94s23.03 26.65 38.25 79.94c2.06 7.21 9.56 11.4 16.77 9.34 7.21-2.05 11.4-9.56 9.34-16.77-18.98-66.45-40.43-99.68-64.36-99.68s-45.38 33.23-64.37 99.68c-15.22 53.3-27.97 79.95-38.25 79.95s-23.03-26.65-38.26-79.95z"/></g><path d="m6784.23 4988.53h4195.15v1175.37c0 146.91-120.19 267.1-267.1 267.1h-4195.15v-1175.37c0-146.91 120.19-267.1 267.1-267.1z" fill="url(#h)" stroke="#838383" stroke-miterlimit="22.9256" stroke-width="26.45"/><g fill="#001f32" fill-rule="nonzero"><path d="m10296.54 5252.99c0 13.79-11.18 24.97-24.96 24.97-13.79 0-24.97-11.18-24.97-24.97v-190h238.5v330.07h138.64v-140.07c0-13.79 11.18-24.96 24.97-24.96s24.96 11.17 24.96 24.96v190h-238.5v-330.07h-138.64z"/><path d="m9233.23 5251.89c-.06 11.88-5.73 21.43-12.68 21.34s-12.54-9.8-12.49-21.68l1.26-188.56 188.94 285.5.63-94.4c.05-11.88 5.73-21.43 12.68-21.34s12.54 9.8 12.48 21.68l-1.25 188.56-188.94-285.5z"/><path d="m8023.28 5263.61c-6.23 10.55-19.83 14.04-30.38 7.81-10.54-6.23-14.04-19.83-7.81-30.37l106.38-179.64 99.81 181.26 66.61 112.48 62.49-113.49c5.89-10.74 19.37-14.67 30.11-8.77s14.66 19.38 8.77 30.11l-99.97 181.57-106.38-179.65-.35-.6-62.49-113.5z"/><path d="m6863.36 5259.82c-3.77 13.25-17.57 20.93-30.82 17.16s-20.93-17.57-17.16-30.81c34.88-122.12 74.31-183.18 118.27-183.18 43.97 0 83.39 61.06 118.28 183.18 27.97 97.93 51.4 146.89 70.29 146.89s42.32-48.96 70.3-146.89c3.77-13.25 17.56-20.94 30.81-17.17s20.94 17.57 17.17 30.82c-34.89 122.11-74.31 183.17-118.28 183.17-43.96 0-83.39-61.06-118.27-183.17-27.98-97.93-51.41-146.9-70.3-146.9s-42.32 48.97-70.29 146.9z"/></g><path d="m10979.36 6961.83h-4640.68c-344.9 0-627.09 282.19-627.09 627.09v3246.39h4640.68c344.9 0 627.09-282.19 627.09-627.09z" fill="url(#i)" stroke="#666" stroke-miterlimit="22.9256" stroke-width="26.42"/><g fill-rule="nonzero"><path d="m7756.92 7111.39v-33.86h69.52v33.86zm34.94 346.14c-23.53 0-45.51-4.44-65.92-13.33-20.41-8.88-38.3-21.13-53.67-36.74-15.36-15.6-27.37-33.55-36.01-53.84-8.65-20.3-12.97-41.73-12.97-64.3 0-23.53 4.44-45.5 13.33-65.91 8.88-20.41 21.13-38.3 36.74-53.67 15.6-15.37 33.55-27.32 53.84-35.84 20.29-8.53 41.85-12.79 64.66-12.79 23.05 0 44.72 4.38 65.01 13.15 20.29 8.76 38.18 20.83 53.67 36.2s27.62 33.2 36.38 53.49c8.77 20.29 13.15 42.08 13.15 65.37 0 23.05-4.38 44.78-13.15 65.2-8.76 20.41-20.83 38.3-36.2 53.66-15.37 15.37-33.26 27.44-53.67 36.2-20.41 8.77-42.14 13.15-65.19 13.15zm139.39-279.87-20.53-20.53 19.09-19.81 20.89 19.81zm-139.39 253.94c19.69 0 38.12-3.67 55.29-10.99s32.3-17.47 45.38-30.44c13.09-12.96 23.3-28.03 30.62-45.2s10.99-35.72 10.99-55.65-3.61-38.54-10.81-55.83-17.29-32.42-30.26-45.38c-12.96-12.97-28.09-23.11-45.38-30.44-17.29-7.32-35.9-10.98-55.83-10.98-19.69 0-38.18 3.66-55.47 10.98-17.29 7.33-32.48 17.47-45.57 30.44-13.08 12.96-23.29 28.09-30.61 45.38-7.33 17.29-10.99 35.9-10.99 55.83s3.66 38.48 10.99 55.65c7.32 17.17 17.53 32.24 30.61 45.2 13.09 12.97 28.28 23.12 45.57 30.44s35.78 10.99 55.47 10.99zm0-121.03c-6 0-11.11-2.04-15.31-6.12s-6.3-9.13-6.3-15.13c0-4.56 1.26-8.64 3.78-12.25 2.52-3.6 5.94-6 10.26-7.2v-86.44l-18 3.96 25.57-35.3 25.21 35.3-18.01-3.96v86.44c4.32 1.2 7.75 3.6 10.27 7.2 2.52 3.61 3.78 7.69 3.78 12.25 0 6-2.04 11.05-6.12 15.13-4.09 4.08-9.13 6.12-15.13 6.12zm58.71-111.66c-3.12 0-5.76-1.08-7.92-3.24-2.17-2.16-3.25-4.68-3.25-7.56 0-3.12 1.08-5.77 3.25-7.93 2.16-2.16 4.8-3.24 7.92-3.24 2.88 0 5.4 1.08 7.56 3.24 2.17 2.16 3.25 4.81 3.25 7.93 0 2.88-1.08 5.4-3.25 7.56-2.16 2.16-4.68 3.24-7.56 3.24zm-117.78 0c-2.88 0-5.41-1.08-7.57-3.24s-3.24-4.68-3.24-7.56c0-3.12 1.08-5.77 3.24-7.93s4.69-3.24 7.57-3.24c3.12 0 5.76 1.08 7.92 3.24s3.24 4.81 3.24 7.93c0 2.88-1.08 5.4-3.24 7.56s-4.8 3.24-7.92 3.24zm-43.23 43.59c-3.12 0-5.76-1.08-7.92-3.25-2.16-2.16-3.24-4.8-3.24-7.92 0-2.88 1.08-5.4 3.24-7.56s4.8-3.25 7.92-3.25c3.37 0 6.01 1.09 7.93 3.25s2.88 4.68 2.88 7.56c0 3.12-.96 5.76-2.88 7.92-1.92 2.17-4.56 3.25-7.93 3.25zm204.23 0c-3.12 0-5.7-1.08-7.74-3.25-2.04-2.16-3.06-4.8-3.06-7.92 0-2.88 1.02-5.4 3.06-7.56s4.62-3.25 7.74-3.25c3.13 0 5.77 1.09 7.93 3.25s3.24 4.68 3.24 7.56c0 3.12-1.08 5.76-3.24 7.92-2.16 2.17-4.8 3.25-7.93 3.25zm-219.71 57.63c-3.13 0-5.71-1.08-7.75-3.24-2.04-2.17-3.06-4.69-3.06-7.57 0-3.12 1.02-5.76 3.06-7.92s4.62-3.24 7.75-3.24c3.12 0 5.7 1.08 7.74 3.24s3.06 4.8 3.06 7.92c0 2.88-1.02 5.4-3.06 7.57-2.04 2.16-4.62 3.24-7.74 3.24zm235.2 0c-3.12 0-5.7-1.08-7.74-3.24-2.04-2.17-3.06-4.69-3.06-7.57 0-3.12 1.02-5.76 3.06-7.92s4.62-3.24 7.74-3.24c3.36 0 6.01 1.08 7.93 3.24s2.88 4.8 2.88 7.92c0 2.88-.96 5.4-2.88 7.57-1.92 2.16-4.57 3.24-7.93 3.24zm-15.49 58.35c-3.12 0-5.7-1.08-7.74-3.24-2.04-2.17-3.06-4.81-3.06-7.93 0-2.88 1.02-5.4 3.06-7.56s4.62-3.24 7.74-3.24c3.13 0 5.77 1.08 7.93 3.24s3.24 4.68 3.24 7.56c0 3.12-1.08 5.76-3.24 7.93-2.16 2.16-4.8 3.24-7.93 3.24zm-204.23 0c-3.12 0-5.76-1.08-7.92-3.24-2.16-2.17-3.24-4.81-3.24-7.93 0-2.88 1.08-5.4 3.24-7.56s4.8-3.24 7.92-3.24c3.37 0 6.01 1.08 7.93 3.24s2.88 4.68 2.88 7.56c0 3.12-.96 5.76-2.88 7.93-1.92 2.16-4.56 3.24-7.93 3.24zm161.01 43.22c-3.12 0-5.76-1.08-7.92-3.24-2.17-2.16-3.25-4.68-3.25-7.57 0-3.12 1.08-5.76 3.25-7.92 2.16-2.16 4.8-3.24 7.92-3.24 2.88 0 5.4 1.08 7.56 3.24 2.17 2.16 3.25 4.8 3.25 7.92 0 2.89-1.08 5.41-3.25 7.57-2.16 2.16-4.68 3.24-7.56 3.24zm-117.78 0c-2.88 0-5.41-1.08-7.57-3.24s-3.24-4.68-3.24-7.57c0-3.12 1.08-5.76 3.24-7.92s4.69-3.24 7.57-3.24c3.12 0 5.76 1.08 7.92 3.24s3.24 4.8 3.24 7.92c0 2.89-1.08 5.41-3.24 7.57s-4.8 3.24-7.92 3.24zm59.07 16.21c-3.12 0-5.76-1.08-7.93-3.24-2.16-2.16-3.24-4.81-3.24-7.93s1.08-5.7 3.24-7.74c2.17-2.04 4.81-3.06 7.93-3.06 2.88 0 5.4 1.02 7.56 3.06s3.24 4.62 3.24 7.74-1.08 5.77-3.24 7.93-4.68 3.24-7.56 3.24z" fill="#001f32"/><g fill="#dddad6"><path d="m6253.45 10501.35c-46.29 0-86.8 2.89-86.8 2.89v202.47h75.23v-65.08s14.46 1.45 26.04 1.45c49.18 0 78.11-28.93 78.11-70.87s-28.93-70.86-92.58-70.86zm-11.57 86.77v-31.81h11.57c10.13 0 17.36 7.23 17.36 15.9 0 8.68-7.23 15.91-17.36 15.91z"/><path d="m6343.14 10648.86v57.85h60.75v-57.85z"/><path d="m6600.62 10504.24h-66.54l-21.69 111.36-15.92-111.36h-78.12l43.4 202.47h83.91l21.69-102.68 21.7 102.68h83.9l43.4-202.47h-78.12l-15.91 111.36z"/><path d="m6730.81 10648.86v57.85h60.76v-57.85z"/><path d="m8630.52 10502.79v202.47h75.23v-57.85h60.76v-57.85h-60.76v-23.14h75.22v-63.63z"/><path d="m8780.97 10647.41v57.85h60.75v-57.85z"/><path d="m9041.35 10705.26 34.71-112.8v112.8h75.23v-202.47h-107.05l-33.26 109.91-33.28-109.91h-107.05v202.47h75.23v-112.8l34.72 112.8z"/><path d="m9180.22 10647.41v57.85h60.75v-57.85z"/><path d="m9654.54 10501.35c-46.29 0-86.8 2.89-86.8 2.89v202.47h75.23v-65.08s14.46 1.45 26.04 1.45c49.18 0 78.11-28.93 78.11-70.87s-28.93-70.86-92.58-70.86zm-11.57 86.77v-31.81h11.57c10.13 0 17.36 7.23 17.36 15.9 0 8.68-7.23 15.91-17.36 15.91z"/><path d="m9744.23 10648.86v57.85h60.75v-57.85z"/><path d="m10001.71 10504.24h-66.54l-21.69 111.36-15.92-111.36h-78.12l43.4 202.47h83.91l21.69-102.68 21.7 102.68h83.9l43.4-202.47h-78.12l-15.91 111.36z"/><path d="m10131.9 10648.86v57.85h60.76v-57.85z"/><path d="m10392.29 10706.71 34.7-112.8v112.8h75.23v-202.47h-107.04l-33.27 109.91-33.28-109.91h-107.05v202.47h75.23v-112.8l34.72 112.8z"/><path d="m10531.15 10648.86v57.85h60.76v-57.85z"/><path d="m9899.72 7360.08h124.4v-54.95h-34.72v-26.03h37.62v-54.96h-37.62v-40.49h-54.96v40.49h-37.61v54.96h37.61v26.03h-34.72z"/><path d="m10193.37 7238.6c-11.57 0-20.25 2.89-20.25 2.89l2.89-14.46h75.23v-60.74h-130.19l-14.47 95.45 34.71 23.14s11.57-5.78 23.15-5.78c13.02 0 20.25 7.23 20.25 17.35s-7.23 17.35-20.25 17.35c-20.25 0-37.61-15.9-37.61-15.9l-27.49 43.38s26.05 31.82 81.01 31.82c50.63 0 82.46-31.82 82.46-67.97 0-37.6-28.94-66.53-69.44-66.53z"/><path d="m6043.68 7419.44v202.47h75.23v-57.85h60.76v-57.85h-60.76v-23.14h75.22v-63.63z"/><path d="m6416.89 7621.91-49.18-78.09s26.04-14.47 26.04-56.41-28.93-70.86-92.58-70.86c-43.4 0-83.91 2.89-83.91 2.89v202.47h75.23v-66.53h2.89l34.72 66.53zm-124.4-118.59v-31.81h8.68c10.13 0 17.36 7.23 17.36 15.9 0 8.68-7.23 15.91-17.36 15.91z"/><path d="m6503.7 7549.6h75.21v-57.85h-75.21v-14.46h81v-57.85h-156.23v202.47h162.02v-57.85h-86.79z"/><path d="m6830.63 7520.68c0-59.3-46.29-105.58-112.84-105.58-66.54 0-112.83 46.28-112.83 105.58 0 57.84 43.4 101.23 99.82 104.12 0 0 27.48 57.85 88.24 57.85 14.46 0 26.03-2.89 26.03-2.89v-52.07s-8.68 2.9-17.36 2.9c-20.25 0-27.48-17.36-27.48-17.36s56.42-24.58 56.42-92.55zm-81.01 0c0 20.24-14.47 34.7-31.83 34.7s-31.82-14.46-31.82-34.7c0-20.25 14.46-34.71 31.82-34.71s31.83 14.46 31.83 34.71z"/><path d="m6853.77 7564.06v57.85h60.76v-57.85z"/></g><path d="m7915.71 10568.77v-42.46h-85.26v30.53l-69.48-48.43 69.48-48.77v30.53h121.4v78.6zm-265.26 64.21-48.78-69.48h30.53v-73.33h120.35v36.14h-83.86v37.19h30.18zm180.35 84.91v-36.14h83.86v-37.19h-30.18l48.78-69.48 48.42 69.48h-30.53v73.33zm-77.9 30.53v-30.53h-121.4v-78.6h36.14v42.46h85.26v-30.53l69.48 48.77z" fill="#001f32"/><g fill="#ff0"><path d="m9733.16 8575.59v-43.73h92.77v43.73z"/><path d="m8589.08 8575.59v-43.73h92.77v43.73z"/><path d="m10399.1 8535.2h66.68v37.74h-66.68v66.3h-37.74v-66.3h-66.67v-37.74h66.67v-67.01h37.74z"/><path d="m9255.02 8535.2h66.68v37.74h-66.68v66.3h-37.74v-66.3h-66.67v-37.74h66.67v-67.01h37.74z"/></g></g><path d="m10080.85 8575.53v318.69" fill="none" stroke="#dddad6" stroke-linecap="round" stroke-miterlimit="22.9256" stroke-width="70.56"/><path d="m8936.77 8575.53v318.69" fill="none" stroke="#dddad6" stroke-linecap="round" stroke-miterlimit="22.9256" stroke-width="70.56"/><g fill="#dddad6" fill-rule="nonzero"><path d="m8914.57 9273.08c0-11.69 9.48-21.17 21.17-21.17s21.17 9.48 21.17 21.17zm42.34 21.17h-42.34v-21.17h42.34zm0 0c0 11.69-9.48 21.17-21.17 21.17s-21.17-9.48-21.17-21.17zm-42.34 82.32c0-11.69 9.48-21.17 21.17-21.17s21.17 9.48 21.17 21.17zm42.34 27.44h-42.34v-27.44h42.34zm0 0c0 11.69-9.48 21.17-21.17 21.17s-21.17-9.48-21.17-21.17zm-42.34 82.32c0-11.69 9.48-21.17 21.17-21.17s21.17 9.48 21.17 21.17zm0 21.17v-21.17h42.34v21.17zm42.34 0c0 11.69-9.48 21.17-21.17 21.17s-21.17-9.48-21.17-21.17z"/><path d="m10058.65 9273.08c0-11.69 9.48-21.17 21.17-21.17s21.17 9.48 21.17 21.17zm42.34 21.17h-42.34v-21.17h42.34zm0 0c0 11.69-9.48 21.17-21.17 21.17s-21.17-9.48-21.17-21.17zm-42.34 82.32c0-11.69 9.48-21.17 21.17-21.17s21.17 9.48 21.17 21.17zm42.34 27.44h-42.34v-27.44h42.34zm0 0c0 11.69-9.48 21.17-21.17 21.17s-21.17-9.48-21.17-21.17zm-42.34 82.32c0-11.69 9.48-21.17 21.17-21.17s21.17 9.48 21.17 21.17zm0 21.17v-21.17h42.34v21.17zm42.34 0c0 11.69-9.48 21.17-21.17 21.17s-21.17-9.48-21.17-21.17z"/><path d="m8846.17 7263.81c-2.05-7.21-9.56-11.39-16.77-9.34-7.21 2.06-11.39 9.56-9.34 16.77 18.99 66.46 40.44 99.69 64.37 99.69s45.38-33.23 64.36-99.69c15.23-53.29 27.98-79.94 38.26-79.94s23.03 26.65 38.25 79.94c2.06 7.21 9.56 11.4 16.77 9.34 7.21-2.05 11.4-9.56 9.34-16.77-18.98-66.45-40.43-99.68-64.36-99.68s-45.38 33.23-64.37 99.68c-15.22 53.3-27.97 79.95-38.25 79.95s-23.03-26.65-38.26-79.95z"/></g><path d="m6517.13 10936.87h4195.15c146.91 0 267.1 120.19 267.1 267.1v1175.37h-4195.15c-146.91 0-267.1-120.19-267.1-267.1z" fill="url(#j)" stroke="#838383" stroke-miterlimit="22.9256" stroke-width="26.45"/><g fill="#001f32" fill-rule="nonzero"><path d="m10296.54 11201.33c0 13.79-11.18 24.97-24.96 24.97-13.79 0-24.97-11.18-24.97-24.97v-190h238.5v330.07h138.64v-140.07c0-13.79 11.18-24.96 24.97-24.96s24.96 11.17 24.96 24.96v190h-238.5v-330.07h-138.64z"/><path d="m9233.23 11200.23c-.06 11.88-5.73 21.43-12.68 21.34s-12.54-9.8-12.49-21.68l1.26-188.56 188.94 285.5.63-94.4c.05-11.88 5.73-21.43 12.68-21.34s12.54 9.8 12.48 21.68l-1.25 188.56-188.94-285.5z"/><path d="m8023.28 11211.95c-6.23 10.55-19.83 14.04-30.38 7.81-10.54-6.23-14.04-19.83-7.81-30.37l106.38-179.64 99.81 181.26 66.61 112.48 62.49-113.49c5.89-10.74 19.37-14.67 30.11-8.77s14.66 19.38 8.77 30.11l-99.97 181.57-106.38-179.65-.35-.6-62.49-113.5z"/><path d="m6863.36 11208.16c-3.77 13.25-17.57 20.93-30.82 17.16s-20.93-17.57-17.16-30.81c34.88-122.12 74.31-183.18 118.27-183.18 43.97 0 83.39 61.06 118.28 183.18 27.97 97.93 51.4 146.89 70.29 146.89s42.32-48.96 70.3-146.89c3.77-13.25 17.56-20.94 30.81-17.17s20.94 17.57 17.17 30.82c-34.89 122.11-74.31 183.17-118.28 183.17-43.96 0-83.39-61.06-118.27-183.17-27.98-97.93-51.41-146.9-70.3-146.9s-42.32 48.97-70.29 146.9z"/></g><path d="m5614.03 11320.93c20.21 111.82 59.38 203.96 110.19 304.37 34.02 67.25 79.9 148.11 79.9 225.15 0 139.05-53.19 288.87-216.12 288.87s-216.12-149.82-216.12-288.87c0-77.04 45.88-157.9 79.91-225.15 50.8-100.41 89.98-192.55 110.18-304.37l26.03-144.05z" fill="#ff0"/><path d="m5588 11325.63c47.42 262.41 189.67 393.62 189.67 524.82 0 131.21-47.41 262.42-189.67 262.42-142.25 0-189.67-131.21-189.67-262.42 0-131.2 142.26-262.41 189.67-524.82z" fill="#340000"/></svg>