<svg clip-rule="evenodd" fill-rule="evenodd" height="3.8mm" image-rendering="optimizeQuality" shape-rendering="geometricPrecision" text-rendering="geometricPrecision" viewBox="0 0 39.5 44.57" width="3.3678mm" xmlns="http://www.w3.org/2000/svg"><path d="m15.67 3.97v-3.97h8.15v3.97zm4.1 40.6c-2.76 0-5.34-.52-7.73-1.56s-4.49-2.48-6.29-4.31-3.21-3.93-4.22-6.31-1.52-4.89-1.52-7.54c0-2.76.52-5.34 1.56-7.73s2.48-4.49 4.31-6.29 3.93-3.2 6.31-4.2 4.91-1.5 7.58-1.5c2.7 0 5.24.51 7.62 1.54s4.48 2.44 6.29 4.25c1.82 1.8 3.24 3.89 4.27 6.27s1.54 4.94 1.54 7.67c0 2.7-.51 5.25-1.54 7.65-1.03 2.39-2.44 4.49-4.25 6.29-1.8 1.8-3.9 3.22-6.29 4.25s-4.94 1.54-7.65 1.54zm16.35-32.82-2.41-2.41 2.24-2.32 2.45 2.32zm-16.35 29.78c2.31 0 4.47-.43 6.48-1.29s3.79-2.05 5.32-3.57c1.54-1.52 2.73-3.29 3.59-5.3s1.29-4.19 1.29-6.53-.42-4.52-1.27-6.55c-.84-2.03-2.03-3.8-3.55-5.32s-3.29-2.71-5.32-3.57-4.21-1.29-6.55-1.29c-2.31 0-4.48.43-6.51 1.29s-3.81 2.05-5.34 3.57-2.73 3.29-3.59 5.32-1.29 4.21-1.29 6.55.43 4.51 1.29 6.53c.86 2.01 2.06 3.78 3.59 5.3 1.54 1.52 3.32 2.71 5.34 3.57 2.03.86 4.2 1.29 6.51 1.29zm0-14.19c-.7 0-1.3-.24-1.8-.72-.49-.48-.74-1.07-.74-1.77 0-.53.15-1.01.44-1.44.3-.42.7-.7 1.2-.84v-10.14l-2.11.46 3-4.14 2.96 4.14-2.11-.46v10.14c.51.14.91.42 1.2.84.3.42.44.9.44 1.44 0 .7-.24 1.3-.72 1.77-.48.48-1.07.72-1.77.72zm6.89-13.1c-.37 0-.68-.13-.93-.38s-.38-.55-.38-.89c0-.37.13-.68.38-.93s.56-.38.93-.38c.34 0 .63.13.89.38.25.25.38.56.38.93 0 .34-.13.63-.38.89-.25.25-.55.38-.89.38zm-13.81 0c-.34 0-.63-.13-.89-.38-.25-.25-.38-.55-.38-.89 0-.37.13-.68.38-.93s.55-.38.89-.38c.37 0 .68.13.93.38s.38.56.38.93c0 .34-.13.63-.38.89-.25.25-.56.38-.93.38zm-5.07 5.11c-.37 0-.68-.13-.93-.38s-.38-.56-.38-.93c0-.34.13-.63.38-.89.25-.25.56-.38.93-.38.4 0 .7.13.93.38s.34.55.34.89c0 .37-.11.68-.34.93s-.53.38-.93.38zm23.95 0c-.37 0-.67-.13-.91-.38s-.36-.56-.36-.93c0-.34.12-.63.36-.89.24-.25.54-.38.91-.38s.68.13.93.38.38.55.38.89c0 .37-.13.68-.38.93s-.56.38-.93.38zm-25.77 6.76c-.37 0-.67-.13-.91-.38s-.36-.55-.36-.89c0-.37.12-.68.36-.93s.54-.38.91-.38.67.13.91.38.36.56.36.93c0 .34-.12.63-.36.89-.24.25-.54.38-.91.38zm27.59 0c-.37 0-.67-.13-.91-.38s-.36-.55-.36-.89c0-.37.12-.68.36-.93s.54-.38.91-.38c.39 0 .7.13.93.38s.34.56.34.93c0 .34-.11.63-.34.89-.23.25-.54.38-.93.38zm-1.82 6.84c-.37 0-.67-.13-.91-.38s-.36-.56-.36-.93c0-.34.12-.63.36-.89.24-.25.54-.38.91-.38s.68.13.93.38.38.55.38.89c0 .37-.13.68-.38.93s-.56.38-.93.38zm-23.95 0c-.37 0-.68-.13-.93-.38s-.38-.56-.38-.93c0-.34.13-.63.38-.89.25-.25.56-.38.93-.38.4 0 .7.13.93.38s.34.55.34.89c0 .37-.11.68-.34.93s-.53.38-.93.38zm18.88 5.07c-.37 0-.68-.13-.93-.38s-.38-.55-.38-.89c0-.37.13-.68.38-.93s.56-.38.93-.38c.34 0 .63.13.89.38.25.25.38.56.38.93 0 .34-.13.63-.38.89-.25.25-.55.38-.89.38zm-13.81 0c-.34 0-.63-.13-.89-.38-.25-.25-.38-.55-.38-.89 0-.37.13-.68.38-.93s.55-.38.89-.38c.37 0 .68.13.93.38s.38.56.38.93c0 .34-.13.63-.38.89-.25.25-.56.38-.93.38zm6.93 1.9c-.37 0-.68-.13-.93-.38s-.38-.56-.38-.93.13-.67.38-.91.56-.36.93-.36c.34 0 .63.12.89.36.25.24.38.54.38.91s-.13.68-.38.93-.55.38-.89.38z" fill="#e6e6e6" fill-rule="nonzero"/></svg>