<svg clip-rule="evenodd" fill-rule="evenodd" height="3.8mm" image-rendering="optimizeQuality" shape-rendering="geometricPrecision" text-rendering="geometricPrecision" viewBox="0 0 25.43 28.7" width="3.3678mm" xmlns="http://www.w3.org/2000/svg"><path d="m10.09 2.56v-2.56h5.25v2.56zm2.64 26.14c-1.78 0-3.44-.34-4.98-1.01s-2.89-1.6-4.05-2.77c-1.16-1.18-2.07-2.53-2.72-4.07-.65-1.53-.98-3.15-.98-4.86 0-1.78.34-3.44 1.01-4.98s1.6-2.89 2.77-4.05c1.18-1.16 2.53-2.06 4.07-2.71 1.53-.64 3.16-.97 4.88-.97 1.74 0 3.38.33 4.91.99s2.88 1.57 4.05 2.73 2.09 2.51 2.75 4.04.99 3.18.99 4.94c0 1.74-.33 3.38-.99 4.92s-1.57 2.89-2.73 4.05-2.51 2.07-4.05 2.73-3.18.99-4.92.99zm10.53-21.14-1.55-1.55 1.44-1.5 1.58 1.5zm-10.53 19.18c1.49 0 2.88-.28 4.18-.83s2.44-1.32 3.43-2.3 1.76-2.12 2.31-3.41c.55-1.3.83-2.7.83-4.2 0-1.51-.27-2.91-.82-4.22-.54-1.31-1.31-2.45-2.29-3.43s-2.12-1.75-3.43-2.3-2.71-.83-4.22-.83c-1.49 0-2.88.28-4.19.83s-2.45 1.32-3.44 2.3-1.76 2.12-2.31 3.43-.83 2.71-.83 4.22.28 2.91.83 4.2c.55 1.3 1.32 2.43 2.31 3.41s2.14 1.75 3.44 2.3c1.31.55 2.7.83 4.19.83zm0-9.14c-.45 0-.84-.15-1.16-.46s-.48-.69-.48-1.14c0-.34.1-.65.29-.93.19-.27.45-.45.77-.54v-6.53l-1.36.3 1.93-2.67 1.9 2.67-1.36-.3v6.53c.33.09.59.27.78.54s.29.58.29.93c0 .45-.15.83-.46 1.14s-.69.46-1.14.46zm4.43-8.43c-.24 0-.43-.08-.6-.24-.16-.16-.25-.35-.25-.57 0-.24.08-.44.25-.6.16-.16.36-.24.6-.24.22 0 .41.08.57.24s.25.36.25.6c0 .22-.08.41-.25.57-.16.16-.35.24-.57.24zm-8.89 0c-.22 0-.41-.08-.57-.24s-.24-.35-.24-.57c0-.24.08-.44.24-.6s.35-.24.57-.24c.24 0 .43.08.6.24.16.16.24.36.24.6 0 .22-.08.41-.24.57s-.36.24-.6.24zm-3.26 3.29c-.24 0-.43-.08-.6-.25-.16-.16-.24-.36-.24-.6 0-.22.08-.41.24-.57s.36-.25.6-.25c.25 0 .45.08.6.25.14.16.22.35.22.57 0 .24-.07.43-.22.6-.14.16-.34.25-.6.25zm15.42 0c-.24 0-.43-.08-.58-.25-.15-.16-.23-.36-.23-.6 0-.22.08-.41.23-.57s.35-.25.58-.25c.24 0 .44.08.6.25.16.16.24.35.24.57 0 .24-.08.43-.24.6-.16.16-.36.25-.6.25zm-16.59 4.35c-.24 0-.43-.08-.59-.24-.15-.16-.23-.35-.23-.57 0-.24.08-.43.23-.6.15-.16.35-.24.59-.24s.43.08.58.24.23.36.23.6c0 .22-.08.41-.23.57s-.35.24-.58.24zm17.76 0c-.24 0-.43-.08-.58-.24s-.23-.35-.23-.57c0-.24.08-.43.23-.6.15-.16.35-.24.58-.24.25 0 .45.08.6.24.14.16.22.36.22.6 0 .22-.07.41-.22.57-.14.16-.35.24-.6.24zm-1.17 4.41c-.24 0-.43-.08-.58-.24s-.23-.36-.23-.6c0-.22.08-.41.23-.57s.35-.24.58-.24c.24 0 .44.08.6.24s.24.35.24.57c0 .24-.08.43-.24.6-.16.16-.36.24-.6.24zm-15.42 0c-.24 0-.43-.08-.6-.24-.16-.16-.24-.36-.24-.6 0-.22.08-.41.24-.57s.36-.24.6-.24c.25 0 .45.08.6.24.14.16.22.35.22.57 0 .24-.07.43-.22.6-.14.16-.34.24-.6.24zm12.16 3.26c-.24 0-.43-.08-.6-.24-.16-.16-.25-.35-.25-.57 0-.24.08-.43.25-.6.16-.16.36-.24.6-.24.22 0 .41.08.57.24s.25.36.25.6c0 .22-.08.41-.25.57-.16.16-.35.24-.57.24zm-8.89 0c-.22 0-.41-.08-.57-.24s-.24-.35-.24-.57c0-.24.08-.43.24-.6.16-.16.35-.24.57-.24.24 0 .43.08.6.24.16.16.24.36.24.6 0 .22-.08.41-.24.57s-.36.24-.6.24zm4.46 1.22c-.24 0-.43-.08-.6-.24-.16-.16-.24-.36-.24-.6s.08-.43.24-.58.36-.23.6-.23c.22 0 .41.08.57.23s.24.35.24.58c0 .24-.08.44-.24.6s-.35.24-.57.24z" fill="#effa6e" fill-rule="nonzero"/></svg>