<svg clip-rule="evenodd" fill-rule="evenodd" height="3.7959mm" image-rendering="optimizeQuality" shape-rendering="geometricPrecision" text-rendering="geometricPrecision" viewBox="0 0 46.99 46.94" width="3.8mm" xmlns="http://www.w3.org/2000/svg"><path d="m23.52 46.94c-3.25 0-6.29-.61-9.12-1.83s-5.33-2.91-7.49-5.05-3.85-4.64-5.08-7.49c-1.22-2.85-1.83-5.88-1.83-9.1s.61-6.25 1.83-9.1 2.92-5.34 5.08-7.49c2.16-2.14 4.66-3.83 7.49-5.05s5.87-1.83 9.12-1.83 6.29.61 9.12 1.83 5.32 2.91 7.46 5.05 3.83 4.64 5.05 7.49 1.83 5.88 1.83 9.1-.61 6.25-1.83 9.1-2.91 5.34-5.05 7.49c-2.14 2.14-4.63 3.83-7.46 5.05s-5.87 1.83-9.12 1.83zm0-2.26c2.92 0 5.65-.55 8.22-1.66 2.56-1.11 4.82-2.63 6.76-4.57s3.47-4.2 4.57-6.76c1.11-2.56 1.66-5.3 1.66-8.22 0-2.91-.55-5.65-1.66-8.22-1.11-2.56-2.63-4.82-4.57-6.76s-4.2-3.47-6.76-4.57c-2.56-1.11-5.3-1.66-8.22-1.66-2.91 0-5.66.55-8.24 1.66s-4.84 2.63-6.78 4.57-3.47 4.2-4.57 6.76c-1.11 2.56-1.66 5.3-1.66 8.22 0 2.91.55 5.65 1.66 8.22 1.11 2.56 2.63 4.82 4.57 6.76s4.21 3.47 6.78 4.57c2.58 1.11 5.33 1.66 8.24 1.66zm0-17.59c-1.01 0-1.86-.36-2.56-1.08s-1.06-1.57-1.06-2.54c0-1.17.47-2.11 1.41-2.81v-9.7h.5v-6.83h3.37v6.83h.5v9.7c.94.67 1.41 1.61 1.41 2.81 0 .97-.35 1.82-1.06 2.54-.7.72-1.54 1.08-2.51 1.08zm-9.25-18.14c-.34 0-.64-.13-.9-.38-.27-.25-.4-.59-.4-1.03 0-.34.12-.64.38-.91.25-.27.56-.4.93-.4s.69.13.98.38c.28.25.43.58.43.98 0 .44-.17.77-.5 1.01-.34.23-.64.35-.91.35zm18.44 0c-.44 0-.78-.14-1.03-.43-.25-.28-.38-.59-.38-.93 0-.4.15-.73.45-.98s.62-.38.95-.38c.3 0 .59.13.88.38.28.25.43.58.43.98s-.13.73-.4.98-.57.38-.9.38zm-25.08 6.68c-.44 0-.78-.14-1.03-.43s-.38-.59-.38-.93c0-.37.14-.69.43-.96.28-.27.61-.4.98-.4s.68.13.93.4.38.59.38.96c0 .4-.13.73-.4.98s-.57.38-.9.38zm31.76 0c-.34 0-.64-.13-.93-.38-.28-.25-.43-.58-.43-.98 0-.34.12-.65.35-.93.23-.29.57-.43 1.01-.43.37 0 .69.13.95.4.27.27.4.59.4.96 0 .4-.12.73-.38.98-.25.25-.58.38-.98.38zm-34.22 9.2c-.37 0-.69-.12-.95-.38-.27-.25-.4-.58-.4-.98 0-.37.13-.69.4-.95.27-.27.59-.4.95-.4.37 0 .68.13.93.4s.38.59.38.95c0 .4-.13.73-.38.98s-.56.38-.93.38zm18.34 0c.37 0 .69-.12.95-.38.27-.25.4-.58.4-.98 0-.37-.13-.69-.4-.95-.27-.27-.59-.4-.95-.4-.37 0-.69.13-.95.4-.27.27-.4.59-.4.95 0 .34.13.65.4.93s.59.43.95.43zm18.29 0c-.34 0-.64-.12-.91-.38-.27-.25-.4-.58-.4-.98 0-.37.13-.69.4-.95.27-.27.57-.4.91-.4.4 0 .74.13 1.01.4s.4.59.4.95c0 .4-.13.73-.4.98s-.6.38-1.01.38zm-34.12 9.2c-.4 0-.75-.13-1.03-.4s-.43-.59-.43-.96.12-.69.38-.95c.25-.27.59-.4 1.03-.4.37 0 .68.13.93.38s.38.58.38.98c0 .34-.12.65-.35.93-.23.29-.54.43-.91.43zm31.66 0c-.4 0-.72-.14-.95-.43-.23-.28-.35-.59-.35-.93 0-.4.14-.73.43-.98s.59-.38.93-.38c.47 0 .81.15 1.03.45s.33.6.33.9c0 .4-.14.73-.43.98-.28.25-.61.38-.98.38zm-25.08 6.68c-.37 0-.68-.14-.93-.43s-.38-.59-.38-.93c0-.4.13-.72.4-.96.27-.23.57-.35.9-.35.4 0 .74.12 1.01.35s.4.55.4.96c0 .4-.14.73-.43.98s-.61.38-.98.38zm18.44 0c-.34 0-.65-.13-.95-.38s-.45-.58-.45-.98c0-.37.13-.68.4-.93s.6-.38 1.01-.38c.34 0 .64.12.9.35.27.23.4.55.4.96 0 .34-.12.64-.38.93-.25.28-.56.43-.93.43zm-9.2 2.41c-.37 0-.69-.13-.95-.38-.27-.25-.4-.56-.4-.93s.13-.68.4-.93.59-.38.95-.38c.37 0 .69.13.95.38.27.25.4.56.4.93s-.13.68-.4.93-.59.38-.95.38z" fill="#00a7ff" fill-rule="nonzero"/></svg>