<svg clip-rule="evenodd" fill-rule="evenodd" height="3.7959mm" image-rendering="optimizeQuality" shape-rendering="geometricPrecision" text-rendering="geometricPrecision" viewBox="0 0 43.85 43.8" width="3.8mm" xmlns="http://www.w3.org/2000/svg"><path d="m21.95 43.8c-3.03 0-5.87-.57-8.51-1.71s-4.97-2.71-6.99-4.71-3.6-4.33-4.74-6.99-1.71-5.49-1.71-8.49.57-5.83 1.71-8.49 2.72-4.99 4.74-6.99 4.35-3.57 6.99-4.71 5.48-1.71 8.51-1.71 5.87.57 8.51 1.71 4.96 2.71 6.96 4.71 3.57 4.33 4.71 6.99 1.71 5.49 1.71 8.49-.57 5.83-1.71 8.49-2.71 4.99-4.71 6.99-4.32 3.57-6.96 4.71-5.48 1.71-8.51 1.71zm0-2.11c2.72 0 5.28-.52 7.67-1.55s4.49-2.45 6.31-4.27c1.81-1.81 3.24-3.92 4.27-6.31s1.55-4.95 1.55-7.67-.52-5.28-1.55-7.67-2.45-4.49-4.27-6.31c-1.81-1.81-3.92-3.24-6.31-4.27s-4.95-1.55-7.67-1.55-5.28.52-7.69 1.55-4.52 2.45-6.33 4.27c-1.81 1.81-3.24 3.92-4.27 6.31s-1.55 4.95-1.55 7.67.52 5.28 1.55 7.67 2.45 4.49 4.27 6.31c1.81 1.81 3.92 3.24 6.33 4.27s4.97 1.55 7.69 1.55zm0-16.41c-.94 0-1.73-.34-2.39-1.01s-.99-1.46-.99-2.37c0-1.09.44-1.97 1.31-2.63v-9.05h.47v-6.38h3.14v6.38h.47v9.05c.88.63 1.31 1.5 1.31 2.63 0 .91-.33 1.7-.99 2.37s-1.44 1.01-2.34 1.01zm-8.63-16.93c-.31 0-.59-.12-.84-.35s-.38-.56-.38-.96c0-.31.12-.59.35-.84.24-.25.52-.38.87-.38.34 0 .65.12.92.35s.4.54.4.91c0 .41-.16.72-.47.94s-.59.33-.84.33zm17.21 0c-.41 0-.73-.13-.96-.4-.24-.27-.35-.56-.35-.87 0-.38.14-.68.42-.91s.58-.35.89-.35c.28 0 .56.12.82.35.27.23.4.54.4.91 0 .38-.12.68-.38.92-.25.23-.53.35-.84.35zm-23.4 6.24c-.41 0-.73-.13-.96-.4s-.35-.56-.35-.87c0-.34.13-.64.4-.89s.57-.38.92-.38c.34 0 .63.13.87.38s.35.55.35.89c0 .38-.12.68-.38.91-.25.23-.53.35-.84.35zm29.64 0c-.31 0-.6-.12-.87-.35s-.4-.54-.4-.91c0-.31.11-.6.33-.87s.53-.4.94-.4c.34 0 .64.13.89.38s.38.55.38.89c0 .38-.12.68-.35.91-.24.23-.54.35-.92.35zm-31.94 8.58c-.34 0-.64-.12-.89-.35-.25-.24-.38-.54-.38-.92 0-.34.12-.64.38-.89.25-.25.55-.38.89-.38s.63.12.87.38c.23.25.35.55.35.89 0 .38-.12.68-.35.92-.23.23-.52.35-.87.35zm17.12 0c.34 0 .64-.12.89-.35.25-.24.38-.54.38-.92 0-.34-.13-.64-.38-.89s-.55-.38-.89-.38-.64.12-.89.38c-.25.25-.38.55-.38.89 0 .31.12.6.38.87.25.27.55.4.89.4zm17.07 0c-.31 0-.59-.12-.84-.35-.25-.24-.38-.54-.38-.92 0-.34.13-.64.38-.89s.53-.38.84-.38c.38 0 .69.12.94.38.25.25.38.55.38.89 0 .38-.13.68-.38.92-.25.23-.56.35-.94.35zm-31.84 8.58c-.38 0-.7-.13-.96-.38-.27-.25-.4-.55-.4-.89s.12-.64.35-.89c.24-.25.56-.38.96-.38.34 0 .63.12.87.35s.35.54.35.91c0 .31-.11.6-.33.87s-.5.4-.84.4zm29.55 0c-.38 0-.67-.13-.89-.4s-.33-.56-.33-.87c0-.38.13-.68.4-.91s.56-.35.87-.35c.44 0 .76.14.96.42s.3.56.3.84c0 .38-.13.68-.4.92-.27.23-.57.35-.92.35zm-23.4 6.24c-.34 0-.63-.13-.87-.4-.23-.27-.35-.56-.35-.87 0-.38.12-.67.38-.89.25-.22.53-.33.84-.33.38 0 .69.11.94.33s.38.52.38.89c0 .38-.13.68-.4.91s-.57.35-.92.35zm17.21 0c-.31 0-.61-.12-.89-.35s-.42-.54-.42-.91c0-.34.12-.63.38-.87.25-.23.56-.35.94-.35.31 0 .59.11.84.33s.38.52.38.89c0 .31-.12.6-.35.87-.24.27-.52.4-.87.4zm-8.58 2.25c-.34 0-.64-.12-.89-.35s-.38-.52-.38-.87c0-.34.12-.63.38-.87.25-.23.55-.35.89-.35s.64.12.89.35.38.52.38.87c0 .34-.13.63-.38.87-.25.23-.55.35-.89.35z" fill="#e6e6e6" fill-rule="nonzero"/></svg>