<svg clip-rule="evenodd" fill-rule="evenodd" height="3.7959mm" image-rendering="optimizeQuality" shape-rendering="geometricPrecision" text-rendering="geometricPrecision" viewBox="0 0 14.13 14.11" width="3.8mm" xmlns="http://www.w3.org/2000/svg"><path d="m7.07 14.11c-.98 0-1.89-.18-2.74-.55s-1.6-.87-2.25-1.52c-.65-.64-1.16-1.4-1.53-2.25-.37-.86-.55-1.77-.55-2.74s.18-1.88.55-2.74.88-1.61 1.53-2.25 1.4-1.15 2.25-1.52 1.77-.55 2.74-.55c.98 0 1.89.18 2.74.55s1.6.87 2.24 1.52c.64.64 1.15 1.4 1.52 2.25.37.86.55 1.77.55 2.74s-.18 1.88-.55 2.74-.87 1.61-1.52 2.25c-.64.64-1.39 1.15-2.24 1.52s-1.77.55-2.74.55zm0-.68c.88 0 1.7-.17 2.47-.5s1.45-.79 2.03-1.38c.58-.58 1.04-1.26 1.38-2.03.33-.77.5-1.59.5-2.47s-.17-1.7-.5-2.47-.79-1.45-1.38-2.03c-.58-.58-1.26-1.04-2.03-1.38-.77-.33-1.59-.5-2.47-.5s-1.7.17-2.48.5-1.46.79-2.04 1.38c-.58.58-1.04 1.26-1.38 2.03-.33.77-.5 1.59-.5 2.47s.17 1.7.5 2.47.79 1.45 1.38 2.03c.58.58 1.26 1.04 2.04 1.38.78.33 1.6.5 2.48.5zm0-11.48c-.12 0-.22-.04-.29-.12-.08-.08-.11-.17-.11-.27 0-.11.04-.21.11-.29.08-.09.17-.13.29-.13.11 0 .21.04.29.13s.12.18.12.29c0 .1-.04.19-.12.27s-.18.12-.29.12zm-2.78.74c-.1 0-.19-.04-.27-.11-.08-.08-.12-.18-.12-.31 0-.1.04-.19.11-.27.08-.08.17-.12.28-.12s.21.04.29.11c.09.08.13.17.13.29 0 .13-.05.23-.15.3s-.19.11-.27.11zm5.55 0c-.13 0-.23-.04-.31-.13s-.11-.18-.11-.28c0-.12.05-.22.14-.29.09-.08.19-.11.29-.11.09 0 .18.04.26.11.09.08.13.17.13.29s-.04.22-.12.29c-.08.08-.17.11-.27.11zm-7.54 2.01c-.13 0-.23-.04-.31-.13s-.11-.18-.11-.28c0-.11.04-.21.13-.29s.18-.12.29-.12.2.04.28.12.11.18.11.29c0 .12-.04.22-.12.29-.08.08-.17.11-.27.11zm9.55 0c-.1 0-.19-.04-.28-.11-.09-.08-.13-.17-.13-.29 0-.1.04-.19.11-.28s.17-.13.3-.13c.11 0 .21.04.29.12s.12.18.12.29c0 .12-.04.22-.11.29-.08.08-.17.11-.29.11zm-5.29 8.18v-4.88c-.1-.05-.19-.11-.26-.18s-.13-.15-.18-.24h-2.72v-1.03h2.72c.09-.17.22-.31.39-.42s.36-.16.57-.16c.29 0 .54.11.76.32.21.21.32.47.32.77 0 .2-.05.39-.16.56s-.24.3-.4.38v4.88h-1.03zm-5-5.41c-.11 0-.21-.04-.29-.11-.08-.08-.12-.17-.12-.29 0-.11.04-.21.12-.29s.18-.12.29-.12.2.04.28.12.11.18.11.29c0 .12-.04.22-.11.29-.08.08-.17.11-.28.11zm5.52 0c.11 0 .21-.04.29-.11.08-.08.12-.17.12-.29 0-.11-.04-.21-.12-.29s-.18-.12-.29-.12-.21.04-.29.12-.12.18-.12.29.04.21.11.29c.08.08.17.12.29.12zm5.5 0c-.1 0-.19-.04-.27-.11-.08-.08-.12-.17-.12-.29 0-.11.04-.21.12-.29s.17-.12.27-.12c.12 0 .22.04.3.12s.12.18.12.29c0 .12-.04.22-.12.29-.08.08-.18.11-.3.11zm-10.26 2.77c-.12 0-.22-.04-.31-.12s-.13-.18-.13-.29.04-.21.11-.29c.08-.08.18-.12.31-.12.11 0 .2.04.28.11.08.08.11.17.11.29 0 .1-.04.19-.11.28s-.16.13-.27.13zm9.52 0c-.12 0-.22-.04-.29-.13s-.11-.18-.11-.28c0-.12.04-.22.13-.29.09-.08.18-.11.28-.11.14 0 .24.04.31.14.07.09.1.18.1.27 0 .12-.04.22-.13.29-.09.08-.18.11-.29.11zm-7.54 2.01c-.11 0-.2-.04-.28-.13s-.11-.18-.11-.28c0-.12.04-.22.12-.29s.17-.11.27-.11c.12 0 .22.04.3.11s.12.17.12.29-.04.22-.13.29c-.09.08-.18.11-.29.11zm5.55 0c-.1 0-.2-.04-.29-.11-.09-.08-.14-.17-.14-.29 0-.11.04-.2.12-.28s.18-.11.3-.11c.1 0 .19.04.27.11s.12.17.12.29c0 .1-.04.19-.11.28-.08.09-.17.13-.28.13z" fill="#00a7ff" fill-rule="nonzero"/></svg>