<?xml version="1.0" encoding="UTF-8"?>
<!DOCTYPE svg PUBLIC "-//W3C//DTD SVG 1.1//EN" "http://www.w3.org/Graphics/SVG/1.1/DTD/svg11.dtd">
<!-- Creator: CorelDRAW -->
<svg xmlns="http://www.w3.org/2000/svg" xml:space="preserve" width="3.8mm" height="3.7959mm" version="1.1" shape-rendering="geometricPrecision" text-rendering="geometricPrecision" image-rendering="optimizeQuality" fill-rule="evenodd" clip-rule="evenodd"
viewBox="0 0 55.7 55.64"
 xmlns:xlink="http://www.w3.org/1999/xlink"
 xmlns:xodm="http://www.corel.com/coreldraw/odm/2003">
 <g id="Layer_x0020_1">
  <metadata id="CorelCorpID_0Corel-Layer"/>
  <path fill="#E6E6E6" fill-rule="nonzero" d="M27.88 55.64c-3.85,0 -7.46,-0.72 -10.81,-2.17 -3.36,-1.45 -6.31,-3.45 -8.88,-5.99 -2.56,-2.54 -4.57,-5.5 -6.02,-8.88 -1.45,-3.38 -2.17,-6.97 -2.17,-10.78 0,-3.81 0.72,-7.41 2.17,-10.78 1.45,-3.38 3.46,-6.33 6.02,-8.88 2.56,-2.54 5.52,-4.54 8.88,-5.99 3.36,-1.45 6.96,-2.17 10.81,-2.17 3.85,0 7.46,0.72 10.81,2.17 3.36,1.45 6.3,3.45 8.85,5.99 2.54,2.54 4.54,5.5 5.99,8.88 1.45,3.38 2.17,6.97 2.17,10.78 0,3.81 -0.72,7.41 -2.17,10.78 -1.45,3.38 -3.45,6.33 -5.99,8.88 -2.54,2.54 -5.49,4.54 -8.85,5.99 -3.36,1.45 -6.96,2.17 -10.81,2.17zm0 -2.68c3.46,0 6.7,-0.66 9.74,-1.97 3.04,-1.31 5.71,-3.12 8.01,-5.42 2.3,-2.3 4.11,-4.97 5.42,-8.01 1.31,-3.04 1.97,-6.28 1.97,-9.74 0,-3.46 -0.66,-6.7 -1.97,-9.74 -1.31,-3.04 -3.12,-5.71 -5.42,-8.01 -2.3,-2.3 -4.97,-4.11 -8.01,-5.42 -3.04,-1.31 -6.28,-1.97 -9.74,-1.97 -3.45,0 -6.71,0.66 -9.77,1.97 -3.06,1.31 -5.74,3.12 -8.04,5.42 -2.3,2.3 -4.11,4.97 -5.42,8.01 -1.31,3.04 -1.97,6.28 -1.97,9.74 0,3.45 0.66,6.7 1.97,9.74 1.31,3.04 3.12,5.71 5.42,8.01 2.3,2.3 4.99,4.11 8.04,5.42 3.06,1.31 6.31,1.97 9.77,1.97zm0 -45.27c-0.48,0 -0.86,-0.16 -1.16,-0.48 -0.3,-0.32 -0.45,-0.68 -0.45,-1.07 0,-0.44 0.15,-0.82 0.45,-1.16 0.3,-0.34 0.68,-0.51 1.16,-0.51 0.44,0 0.81,0.17 1.13,0.51 0.32,0.34 0.48,0.72 0.48,1.16 0,0.4 -0.16,0.75 -0.48,1.07 -0.32,0.32 -0.7,0.48 -1.13,0.48zm-10.96 2.92c-0.4,0 -0.75,-0.15 -1.07,-0.45 -0.32,-0.3 -0.48,-0.71 -0.48,-1.22 0,-0.4 0.15,-0.75 0.45,-1.07 0.3,-0.32 0.67,-0.48 1.1,-0.48 0.44,0 0.82,0.15 1.16,0.45 0.34,0.3 0.51,0.69 0.51,1.16 0,0.52 -0.2,0.91 -0.6,1.19 -0.4,0.28 -0.75,0.42 -1.07,0.42zm21.86 0c-0.52,0 -0.92,-0.17 -1.22,-0.51 -0.3,-0.34 -0.45,-0.71 -0.45,-1.1 0,-0.48 0.18,-0.86 0.54,-1.16 0.36,-0.3 0.73,-0.45 1.13,-0.45 0.36,0 0.71,0.15 1.04,0.45 0.34,0.3 0.51,0.69 0.51,1.16 0,0.48 -0.16,0.86 -0.48,1.16 -0.32,0.3 -0.67,0.45 -1.07,0.45zm-29.73 7.92c-0.52,0 -0.92,-0.17 -1.22,-0.51 -0.3,-0.34 -0.45,-0.71 -0.45,-1.1 0,-0.44 0.17,-0.81 0.51,-1.13 0.34,-0.32 0.72,-0.48 1.16,-0.48 0.44,0 0.8,0.16 1.1,0.48 0.3,0.32 0.45,0.69 0.45,1.13 0,0.48 -0.16,0.86 -0.48,1.16 -0.32,0.3 -0.68,0.45 -1.07,0.45zm37.65 0c-0.4,0 -0.76,-0.15 -1.1,-0.45 -0.34,-0.3 -0.51,-0.69 -0.51,-1.16 0,-0.4 0.14,-0.76 0.42,-1.1 0.28,-0.34 0.68,-0.51 1.19,-0.51 0.44,0 0.81,0.16 1.13,0.48 0.32,0.32 0.48,0.69 0.48,1.13 0,0.48 -0.15,0.86 -0.45,1.16 -0.3,0.3 -0.69,0.45 -1.16,0.45zm-20.85 32.23l0 -19.24c-0.4,-0.2 -0.73,-0.44 -1.01,-0.71 -0.28,-0.28 -0.52,-0.6 -0.72,-0.95l-10.72 0 0 -4.05 10.72 0c0.36,-0.68 0.86,-1.22 1.52,-1.64 0.66,-0.42 1.4,-0.63 2.23,-0.63 1.15,0 2.14,0.42 2.98,1.25 0.83,0.83 1.25,1.85 1.25,3.04 0,0.79 -0.21,1.53 -0.63,2.2 -0.42,0.68 -0.94,1.17 -1.58,1.49l0 19.24 -4.05 0zm-19.72 -21.33c-0.44,0 -0.81,-0.15 -1.13,-0.45 -0.32,-0.3 -0.48,-0.68 -0.48,-1.16 0,-0.44 0.16,-0.81 0.48,-1.13 0.32,-0.32 0.69,-0.48 1.13,-0.48 0.44,0 0.8,0.16 1.1,0.48 0.3,0.32 0.45,0.69 0.45,1.13 0,0.48 -0.15,0.86 -0.45,1.16 -0.3,0.3 -0.67,0.45 -1.1,0.45zm21.74 0c0.44,0 0.81,-0.15 1.13,-0.45 0.32,-0.3 0.48,-0.68 0.48,-1.16 0,-0.44 -0.16,-0.81 -0.48,-1.13 -0.32,-0.32 -0.7,-0.48 -1.13,-0.48 -0.44,0 -0.81,0.16 -1.13,0.48 -0.32,0.32 -0.48,0.69 -0.48,1.13 0,0.44 0.15,0.81 0.45,1.13 0.3,0.32 0.68,0.48 1.16,0.48zm21.68 0c-0.4,0 -0.75,-0.15 -1.07,-0.45 -0.32,-0.3 -0.48,-0.68 -0.48,-1.16 0,-0.44 0.16,-0.81 0.48,-1.13 0.32,-0.32 0.68,-0.48 1.07,-0.48 0.48,0 0.87,0.16 1.19,0.48 0.32,0.32 0.48,0.69 0.48,1.13 0,0.48 -0.16,0.86 -0.48,1.16 -0.32,0.3 -0.72,0.45 -1.19,0.45zm-40.45 10.9c-0.48,0 -0.88,-0.16 -1.22,-0.48 -0.34,-0.32 -0.51,-0.69 -0.51,-1.13 0,-0.44 0.15,-0.81 0.45,-1.13 0.3,-0.32 0.71,-0.48 1.22,-0.48 0.44,0 0.8,0.15 1.1,0.45 0.3,0.3 0.45,0.69 0.45,1.16 0,0.4 -0.14,0.76 -0.42,1.1 -0.28,0.34 -0.64,0.51 -1.07,0.51zm37.53 0c-0.48,0 -0.85,-0.17 -1.13,-0.51 -0.28,-0.34 -0.42,-0.71 -0.42,-1.1 0,-0.48 0.17,-0.86 0.51,-1.16 0.34,-0.3 0.71,-0.45 1.1,-0.45 0.56,0 0.96,0.18 1.22,0.54 0.26,0.36 0.39,0.72 0.39,1.07 0,0.48 -0.17,0.86 -0.51,1.16 -0.34,0.3 -0.73,0.45 -1.16,0.45zm-29.73 7.92c-0.44,0 -0.8,-0.17 -1.1,-0.51 -0.3,-0.34 -0.45,-0.71 -0.45,-1.1 0,-0.48 0.16,-0.85 0.48,-1.13 0.32,-0.28 0.67,-0.42 1.07,-0.42 0.48,0 0.87,0.14 1.19,0.42 0.32,0.28 0.48,0.66 0.48,1.13 0,0.48 -0.17,0.86 -0.51,1.16 -0.34,0.3 -0.73,0.45 -1.16,0.45zm21.86 0c-0.4,0 -0.78,-0.15 -1.13,-0.45 -0.36,-0.3 -0.54,-0.69 -0.54,-1.16 0,-0.44 0.16,-0.8 0.48,-1.1 0.32,-0.3 0.72,-0.45 1.19,-0.45 0.4,0 0.75,0.14 1.07,0.42 0.32,0.28 0.48,0.66 0.48,1.13 0,0.4 -0.15,0.77 -0.45,1.1 -0.3,0.34 -0.67,0.51 -1.1,0.51z"/>
 </g>
</svg>
