<?xml version="1.0" encoding="UTF-8"?>
<!DOCTYPE svg PUBLIC "-//W3C//DTD SVG 1.1//EN" "http://www.w3.org/Graphics/SVG/1.1/DTD/svg11.dtd">
<!-- Creator: CorelDRAW -->
<svg xmlns="http://www.w3.org/2000/svg" xml:space="preserve" width="3.3678mm" height="3.8mm" version="1.1" shape-rendering="geometricPrecision" text-rendering="geometricPrecision" image-rendering="optimizeQuality" fill-rule="evenodd" clip-rule="evenodd"
viewBox="0 0 25.43 28.7"
 xmlns:xlink="http://www.w3.org/1999/xlink"
 xmlns:xodm="http://www.corel.com/coreldraw/odm/2003">
 <g id="Lights">
  <metadata id="CorelCorpID_0Corel-Layer"/>
  <path id="Clock_x0020_Lit" fill="#EFFA6E" fill-rule="nonzero" d="M10.09 2.56l0 -2.56 5.25 0 0 2.56 -5.25 0zm2.64 26.14c-1.78,0 -3.44,-0.34 -4.98,-1.01 -1.54,-0.67 -2.89,-1.6 -4.05,-2.77 -1.16,-1.18 -2.07,-2.53 -2.72,-4.07 -0.65,-1.53 -0.98,-3.15 -0.98,-4.86 0,-1.78 0.34,-3.44 1.01,-4.98 0.67,-1.54 1.6,-2.89 2.77,-4.05 1.18,-1.16 2.53,-2.06 4.07,-2.71 1.53,-0.64 3.16,-0.97 4.88,-0.97 1.74,0 3.38,0.33 4.91,0.99 1.53,0.66 2.88,1.57 4.05,2.73 1.17,1.16 2.09,2.51 2.75,4.04 0.66,1.53 0.99,3.18 0.99,4.94 0,1.74 -0.33,3.38 -0.99,4.92 -0.66,1.54 -1.57,2.89 -2.73,4.05 -1.16,1.16 -2.51,2.07 -4.05,2.73 -1.54,0.66 -3.18,0.99 -4.92,0.99zm10.53 -21.14l-1.55 -1.55 1.44 -1.5 1.58 1.5 -1.47 1.55zm-10.53 19.18c1.49,0 2.88,-0.28 4.18,-0.83 1.3,-0.55 2.44,-1.32 3.43,-2.3 0.99,-0.98 1.76,-2.12 2.31,-3.41 0.55,-1.3 0.83,-2.7 0.83,-4.2 0,-1.51 -0.27,-2.91 -0.82,-4.22 -0.54,-1.31 -1.31,-2.45 -2.29,-3.43 -0.98,-0.98 -2.12,-1.75 -3.43,-2.3 -1.31,-0.55 -2.71,-0.83 -4.22,-0.83 -1.49,0 -2.88,0.28 -4.19,0.83 -1.31,0.55 -2.45,1.32 -3.44,2.3 -0.99,0.98 -1.76,2.12 -2.31,3.43 -0.55,1.31 -0.83,2.71 -0.83,4.22 0,1.51 0.28,2.91 0.83,4.2 0.55,1.3 1.32,2.43 2.31,3.41 0.99,0.98 2.14,1.75 3.44,2.3 1.31,0.55 2.7,0.83 4.19,0.83zm0 -9.14c-0.45,0 -0.84,-0.15 -1.16,-0.46 -0.32,-0.31 -0.48,-0.69 -0.48,-1.14 0,-0.34 0.1,-0.65 0.29,-0.93 0.19,-0.27 0.45,-0.45 0.77,-0.54l0 -6.53 -1.36 0.3 1.93 -2.67 1.9 2.67 -1.36 -0.3 0 6.53c0.33,0.09 0.59,0.27 0.78,0.54 0.19,0.27 0.29,0.58 0.29,0.93 0,0.45 -0.15,0.83 -0.46,1.14 -0.31,0.31 -0.69,0.46 -1.14,0.46zm4.43 -8.43c-0.24,0 -0.43,-0.08 -0.6,-0.24 -0.16,-0.16 -0.25,-0.35 -0.25,-0.57 0,-0.24 0.08,-0.44 0.25,-0.6 0.16,-0.16 0.36,-0.24 0.6,-0.24 0.22,0 0.41,0.08 0.57,0.24 0.16,0.16 0.25,0.36 0.25,0.6 0,0.22 -0.08,0.41 -0.25,0.57 -0.16,0.16 -0.35,0.24 -0.57,0.24zm-8.89 0c-0.22,0 -0.41,-0.08 -0.57,-0.24 -0.16,-0.16 -0.24,-0.35 -0.24,-0.57 0,-0.24 0.08,-0.44 0.24,-0.6 0.16,-0.16 0.35,-0.24 0.57,-0.24 0.24,0 0.43,0.08 0.6,0.24 0.16,0.16 0.24,0.36 0.24,0.6 0,0.22 -0.08,0.41 -0.24,0.57 -0.16,0.16 -0.36,0.24 -0.6,0.24zm-3.26 3.29c-0.24,0 -0.43,-0.08 -0.6,-0.25 -0.16,-0.16 -0.24,-0.36 -0.24,-0.6 0,-0.22 0.08,-0.41 0.24,-0.57 0.16,-0.16 0.36,-0.25 0.6,-0.25 0.25,0 0.45,0.08 0.6,0.25 0.14,0.16 0.22,0.35 0.22,0.57 0,0.24 -0.07,0.43 -0.22,0.6 -0.14,0.16 -0.34,0.25 -0.6,0.25zm15.42 0c-0.24,0 -0.43,-0.08 -0.58,-0.25 -0.15,-0.16 -0.23,-0.36 -0.23,-0.6 0,-0.22 0.08,-0.41 0.23,-0.57 0.15,-0.16 0.35,-0.25 0.58,-0.25 0.24,0 0.44,0.08 0.6,0.25 0.16,0.16 0.24,0.35 0.24,0.57 0,0.24 -0.08,0.43 -0.24,0.6 -0.16,0.16 -0.36,0.25 -0.6,0.25zm-16.59 4.35c-0.24,0 -0.43,-0.08 -0.59,-0.24 -0.15,-0.16 -0.23,-0.35 -0.23,-0.57 0,-0.24 0.08,-0.43 0.23,-0.6 0.15,-0.16 0.35,-0.24 0.59,-0.24 0.24,0 0.43,0.08 0.58,0.24 0.15,0.16 0.23,0.36 0.23,0.6 0,0.22 -0.08,0.41 -0.23,0.57 -0.15,0.16 -0.35,0.24 -0.58,0.24zm17.76 0c-0.24,0 -0.43,-0.08 -0.58,-0.24 -0.15,-0.16 -0.23,-0.35 -0.23,-0.57 0,-0.24 0.08,-0.43 0.23,-0.6 0.15,-0.16 0.35,-0.24 0.58,-0.24 0.25,0 0.45,0.08 0.6,0.24 0.14,0.16 0.22,0.36 0.22,0.6 0,0.22 -0.07,0.41 -0.22,0.57 -0.14,0.16 -0.35,0.24 -0.6,0.24zm-1.17 4.41c-0.24,0 -0.43,-0.08 -0.58,-0.24 -0.15,-0.16 -0.23,-0.36 -0.23,-0.6 0,-0.22 0.08,-0.41 0.23,-0.57 0.15,-0.16 0.35,-0.24 0.58,-0.24 0.24,0 0.44,0.08 0.6,0.24 0.16,0.16 0.24,0.35 0.24,0.57 0,0.24 -0.08,0.43 -0.24,0.6 -0.16,0.16 -0.36,0.24 -0.6,0.24zm-15.42 0c-0.24,0 -0.43,-0.08 -0.6,-0.24 -0.16,-0.16 -0.24,-0.36 -0.24,-0.6 0,-0.22 0.08,-0.41 0.24,-0.57 0.16,-0.16 0.36,-0.24 0.6,-0.24 0.25,0 0.45,0.08 0.6,0.24 0.14,0.16 0.22,0.35 0.22,0.57 0,0.24 -0.07,0.43 -0.22,0.6 -0.14,0.16 -0.34,0.24 -0.6,0.24zm12.16 3.26c-0.24,0 -0.43,-0.08 -0.6,-0.24 -0.16,-0.16 -0.25,-0.35 -0.25,-0.57 0,-0.24 0.08,-0.43 0.25,-0.6 0.16,-0.16 0.36,-0.24 0.6,-0.24 0.22,0 0.41,0.08 0.57,0.24 0.16,0.16 0.25,0.36 0.25,0.6 0,0.22 -0.08,0.41 -0.25,0.57 -0.16,0.16 -0.35,0.24 -0.57,0.24zm-8.89 0c-0.22,0 -0.41,-0.08 -0.57,-0.24 -0.16,-0.16 -0.24,-0.35 -0.24,-0.57 0,-0.24 0.08,-0.43 0.24,-0.6 0.16,-0.16 0.35,-0.24 0.57,-0.24 0.24,0 0.43,0.08 0.6,0.24 0.16,0.16 0.24,0.36 0.24,0.6 0,0.22 -0.08,0.41 -0.24,0.57 -0.16,0.16 -0.36,0.24 -0.6,0.24zm4.46 1.22c-0.24,0 -0.43,-0.08 -0.6,-0.24 -0.16,-0.16 -0.24,-0.36 -0.24,-0.6 0,-0.24 0.08,-0.43 0.24,-0.58 0.16,-0.15 0.36,-0.23 0.6,-0.23 0.22,0 0.41,0.08 0.57,0.23 0.16,0.15 0.24,0.35 0.24,0.58 0,0.24 -0.08,0.44 -0.24,0.6 -0.16,0.16 -0.35,0.24 -0.57,0.24z"/>
 </g>
</svg>
