<svg clip-rule="evenodd" fill-rule="evenodd" height="128.5mm" image-rendering="optimizeQuality" shape-rendering="geometricPrecision" text-rendering="geometricPrecision" viewBox="0 0 2540 12850" width="25.4mm" xmlns="http://www.w3.org/2000/svg"><g fill-rule="nonzero"><g fill="#333"><path d="m442.89 645.6c6.43-1.15 14.39-1.8 24.16-2.18 9.77-.39 15.04-.52 15.68-.52 32.65 0 62.97 6.17 91.11 18.38 28.28 12.2 54.74 29.8 79.55 52.93-1.41 6.68-6.04 11.82-13.88 15.42-7.84 3.46-15.29 6.81-22.36 10.02-22.61-23-47.55-41.12-74.67-54.48-27.23-13.23-55.51-19.91-84.94-19.91-19.14 0-50.5 6.94-94.32 20.94s-73.12 45.48-87.77 94.69c-14.79 49.2-22.11 88-22.11 116.65 0 60.9 17.23 112.81 51.53 155.98 34.44 43.16 67.47 71.69 99.21 85.69 31.75 14 66.95 20.94 105.63 20.94 23.78 0 46.15-5.27 67.34-15.67 21.08-10.41 40.23-23.26 57.45-38.55 17.09-15.41 33.66-32.76 49.73-52.16h5.79c-19.8 36.75-48.19 66.42-85.08 88.91-36.75 22.48-76.33 33.66-118.48 33.66-54.87 0-102.68-10.92-143.16-32.63-40.61-21.84-72.73-53.45-96.25-94.95-23.53-41.37-35.35-82.87-35.35-124.24 0-36.48 9.64-76.18 28.92-119.09 19.4-42.79 46.14-78.5 80.32-107.02 34.18-28.53 74.79-46.13 121.95-52.81z"/><path d="m789.34 997.63c6.82-7.45 15.43-14.01 26.1-19.92 10.66-5.78 20.56-8.73 29.81-8.73 7.45 0 13.75 1.92 19.15 5.91 5.26 3.85 8.86 8.48 10.92 13.62 1.93 5.14 2.83 8.35 2.83 9.63v3.47c0 6.04-2.05 11.69-6.3 17.09-4.37 5.27-9.51 8.99-15.55 11.18-1.41-1.03-5.78-7.58-12.97-19.53-7.33-11.82-14.66-16.96-22.24-15.16-17.35 4.62-29.18 16.06-35.34 34.56-6.3 18.37-9.38 40.98-9.38 67.96 0 10.92.13 21.33.51 31.09.39 9.64.65 19.15 1.03 28.4 1.03 4.24 6.17 6.93 15.29 8.22 9.13 1.15 14.01 2.05 14.78 2.31v10.15l-82.5-.51c0-4.24 3.98-8.23 11.95-11.69 7.97-3.6 11.95-8.48 11.95-14.91v-130.66c0-7.45-3.86-11.18-11.69-11.18-2.44 0-5.27.26-8.35.65-3.22.25-5.01.51-5.4.51l-1.54-10.66c9.63-4.24 19.78-9.51 30.58-15.55s20.82-12.08 30.07-18.24c1.41 2.95 2.06 6.68 2.06 11.3 0 3.86.12 7.71.25 11.44.26 3.72 1.54 6.81 3.98 9.25z"/><path d="m1052.27 995.06c0-11.05 6.04-18.63 18.25-23 12.21-4.24 25.58-6.42 40.22-6.42-6.04 30.96-9.12 61.92-9.12 92.89 0 15.67.77 30.06 2.44 43.29 1.54 13.11 3.34 23.51 5.27 30.97 1.93 7.45 4.37 11.17 7.19 11.17 5.02-1.02 8.62-1.54 10.68-1.54 2.18 0 3.47.77 3.72 2.19-7.71 8.47-18.25 14.77-31.61 18.88-13.24 4.11-24.29 7.45-33.16 9.89 1.67-7.45 3.34-15.93 5.14-25.56 1.67-9.51 2.57-17.99 2.57-25.44 0-8.22-.64-15.68-1.93-22.36-28.39 33.28-47.8 54.99-58.21 65.01-10.4 10.15-24.68 15.16-42.79 15.16-6.81 0-15.56-2.18-26.61-6.68-10.92-4.37-19.01-12.33-24.15-23.89-5.15-11.44-7.72-25.7-7.72-42.79 0-8.09.64-20.55 2.06-37.13 1.41-16.7 2.06-28.9 2.06-36.74 0-9.51-.78-17.73-2.32-24.41 0-5.01-3.47-7.45-10.41-7.45-1.41 0-2.57 0-3.46 0-.78 0-1.67.25-2.32.51 6.3-6.29 14.78-12.85 25.32-19.4s19.92-10.66 28.4-12.46c.64 5.01 1.02 9.89 1.02 14.9v14.91c0 7.7-.38 20.68-1.15 38.92-.77 18.25-1.16 28.14-1.16 29.55 0 13.75.64 25.57 1.93 35.21 1.15 9.76 3.6 20.68 7.2 32.76 3.47 11.95 11.82 17.98 25.06 17.98 9.25 0 26.47-9.76 51.53-29.29 25.06-19.66 37.65-52.67 37.65-99.31 0-3.08 0-6.3-.13-9.25-.13-3.08-.77-8.99-1.8-17.86z"/><path d="m1247.35 965.89c9.89 0 18.5 4.89 25.7 14.52 7.33 9.77 14.27 19.15 20.95 28.4-5.66 1.79-13.62-.39-24.04-6.69-10.53-6.16-17.98-9.25-22.61-9.25-13.76 0-25.83 1.16-36.11 3.47-10.28 2.32-20.44 8.35-30.72 17.99s-15.42 22.23-15.42 37.9c0 7.58 2.96 18.89 9 34.05s18.63 29.03 37.78 41.49c19.01 12.47 35.21 19.92 48.57 22.49 13.24 2.44 21.21 3.72 24.04 3.72 8.61 0 15.93-3.08 22.1-9.37 6.16-6.3 11.43-11.7 15.68-16.06-2.19 14.13-8.74 25.82-19.92 35.2s-24.04 14.13-38.55 14.13c-50.63 0-82.25-14.39-94.97-43.3-12.73-28.77-19.15-48.05-19.15-57.68 0-8.48 1.28-17.09 3.98-25.57 2.7-8.61 8.88-20.81 18.64-36.87 9.64-16.06 20.94-28.14 33.93-36.23 12.85-8.22 26.59-12.34 41.12-12.34z"/><path d="m1382.92 934.67c3.08-2.82 7.07-11.56 11.95-26.2 4.75-14.65 11.44-21.97 19.92-21.97 3.86 0 8.48 1.02 13.75 3.21 0 8.22-2.06 16.96-6.04 26.46-4.11 9.51-9.89 17.09-17.34 22.74-1.42-.38-4.77-.77-10.03-1.02-5.4-.39-9.38-1.42-12.21-3.22zm26.48 32.77c.38 32.5.9 65.01 1.67 97.64.64 32.63 1.54 54.99 2.7 67.19 1.02 12.08 3.72 19.14 8.22 21.07 4.37 1.93 9.76 2.96 16.19 2.96 7.07 0 12.72-.52 16.96-1.54v4.88c-9.89 5.91-21.46 10.28-34.82 13.36-13.24 3.08-26.35 4.62-39.07 4.75-2.06-8.86-3.6-17.86-4.5-26.85s-1.28-19.78-1.28-32.12c0-6.42.13-16.19.51-29.55.39-13.23.52-23 .52-29.42v-6.94c0-17.34-.9-30.45-2.7-39.18-1.8-8.87-4.88-13.36-9.51-13.36-2.18 0-5.4.51-9.9 1.41-4.37.77-6.94 1.28-7.71 1.28-4.62 0-7.97-1.67-10.02-4.75 10.92-3.98 21.97-7.84 32.9-11.69 11.31-5.01 21.84-11.31 31.35-19.14z"/><path d="m1476.73 647.02c1.8.38 4.63.77 8.62 1.15 3.86.39 7.45.52 10.66.52 5.27 0 13.24-.65 23.9-1.8 10.68-1.29 18.64-1.93 23.91-1.93s9.76.26 13.36.64c3.47.26 7.08 1.42 10.54 3.21-7.59 2.45-14.01 4.63-19.28 6.43-5.26 1.8-7.96 5.27-7.96 10.28v46.76 38.54 31.61 27.75 24.67 20.81 17.73 16.19 14.65 12.07 10.41 9.38 7.83 7.46 6.16 19.4 19.4 5.91c3.85-.77 17.6-7.96 41.25-21.58s41.12-20.43 52.43-20.43c2.18 0 6.16.26 11.83 1.03 22.74 4.24 41.38 13.62 55.89 28.26 14.52 14.52 23.14 29.17 25.84 43.94 2.7 14.65 3.98 24.93 3.98 30.58 0 21.97-7.46 41.76-22.36 59.36-14.91 17.6-32.39 31.73-52.3 42.39-20.06 10.67-38.81 15.94-56.17 15.94-30.06 0-54.61-11.57-73.37-34.57l-11.7-14.9c0-44.32-1.28-94.94-3.73-151.86-2.57-56.91-5.01-113.57-7.32-169.97s-3.47-105.22-3.47-146.34c-1.03-4.24-5.14-6.81-12.2-7.45-7.08-.77-12.09-1.8-14.92-3.21zm116.95 341.87c-11.69 2.19-21.59 6.55-29.55 13.11-7.98 6.55-13.25 14.39-15.94 23.64-2.7 9.25-4.63 17.98-5.91 26.08-1.16 8.22-1.8 16.18-1.8 24.02 0 13.49 2.31 25.83 6.94 37.26 4.62 11.31 13.61 22.36 27.11 33.28 13.37 10.79 29.69 16.18 48.84 16.18 5.26 0 12.33-.77 20.95-2.18 8.73-1.41 16.44-5.4 23.12-12.21 6.81-6.68 15.42-17.6 26.09-32.5 2.83-10.54 4.24-21.07 4.24-31.35 0-20.3-3.85-37.51-11.69-51.65-7.85-14.26-18.38-25.31-31.61-33.27-13.25-7.97-27.89-11.95-43.82-11.95-5.27 0-11.06.51-16.97 1.54z"/><path d="m1750.59 650.48c8.86-1.41 21.59-2.57 38.29-3.72 16.71-1.03 38.43-1.54 65.42-1.54-.77 3.21-5.78 5.52-15.43 6.93-9.51 1.42-14.26 5.66-14.26 12.72 0 49.34.13 98.8.26 148.14.13 49.33.38 104.83.77 166.63.38 61.8.51 105.87.51 132.08 0 12.84 1.54 23.12 4.5 30.96 2.95 7.71 9.76 13.1 20.44 15.93 5.26.64 10.79-.77 16.7-4.37 5.78-3.72 11.43-7.32 16.7-11.05.64 1.03 1.03 2.83 1.03 5.4 0 5.39-3.21 10.15-9.77 14.13-6.55 3.98-12.46 7.45-17.47 10.54-5.14 3.08-11.95 4.62-20.44 4.62-4.24 0-8.35-.38-12.2-1.03-3.86-.77-9.38-2.18-16.45-4.24l-8.49-10.66-15.41-392.11-4.24-103.81c-1.42-6.04-5.4-9.76-11.82-11.18-6.31-1.41-12.6-2.95-18.64-4.37z"/><path d="m1972.27 974.89c9.25-6.04 19.14-9 29.8-9 11.32 0 22.37 2.7 33.16 7.97 10.79 5.4 23.65 13.1 38.55 23.38-11.3 13.24-33.41 33.66-66.31 61.54-32.76 27.88-52.56 45.36-59.37 52.42 7.45 11.31 16.58 20.69 27.25 27.88 10.53 7.32 20.04 11.44 28.39 12.59 8.36 1.03 14.66 1.54 19.03 1.54 9.5 0 17.6-1.28 24.15-3.98 6.56-2.57 21.85-11.31 45.63-26.08-7.46 9.51-13.89 17.09-19.15 22.61-5.4 5.53-11.05 9.12-17.09 11.18-6.04 1.93-16.71 5.91-32.13 11.95s-26.99 8.99-34.83 8.99c-5.01 0-8.61-.26-10.92-.77s-9.12-3.47-20.44-8.61c-11.43-5.14-23.12-15.8-35.34-31.86-12.33-16.19-18.88-29.55-20.04-40.21-1.03-10.67-1.54-18.12-1.54-22.36 0-20.68 6.17-38.54 18.37-53.57 12.22-15.16 29.82-30.32 52.83-45.61zm32.5 18.76c-7.07-4.63-15.16-6.94-24.03-6.94-15.68 0-28.53 6.42-38.55 19.4-9.89 12.97-14.9 27.75-14.9 44.45 0 16.32 5.01 32.25 15.03 47.92 15.29-9.63 32.9-23.89 52.81-42.91 19.93-18.88 33.29-31.09 40.1-36.36-3.21-5.01-6.94-9.12-11.18-12.59-4.37-3.34-10.66-7.71-19.28-12.97z"/></g><g fill="#dddad6"><path d="m442.89 637.47c6.43-1.15 14.39-1.8 24.17-2.18 9.76-.39 15.03-.52 15.67-.52 32.65 0 62.98 6.17 91.11 18.38 28.28 12.2 54.75 29.8 79.55 52.93-1.41 6.68-6.04 11.82-13.88 15.42-7.83 3.46-15.28 6.81-22.36 10.02-22.61-23-47.55-41.12-74.66-54.48-27.24-13.23-55.52-19.91-84.95-19.91-19.14 0-50.5 6.94-94.32 20.94s-73.12 45.48-87.77 94.69c-14.78 49.2-22.11 88-22.11 116.65 0 60.9 17.23 112.81 51.54 155.98 34.43 43.16 67.46 71.69 99.2 85.69 31.75 14 66.96 20.94 105.64 20.94 23.77 0 46.14-5.27 67.33-15.67 21.08-10.41 40.23-23.26 57.45-38.55 17.09-15.41 33.67-32.76 49.73-52.16h5.79c-19.79 36.75-48.19 66.42-85.08 88.91-36.75 22.48-76.33 33.66-118.48 33.66-54.87 0-102.67-10.92-143.15-32.63-40.61-21.84-72.74-53.45-96.26-94.95-23.52-41.37-35.35-82.87-35.35-124.24 0-36.48 9.65-76.18 28.92-119.09 19.41-42.79 46.14-78.5 80.32-107.02 34.18-28.53 74.79-46.13 121.95-52.81z"/><path d="m789.35 989.5c6.81-7.45 15.42-14.01 26.09-19.92 10.67-5.78 20.56-8.73 29.81-8.73 7.45 0 13.75 1.92 19.15 5.91 5.27 3.85 8.87 8.48 10.93 13.62 1.92 5.14 2.82 8.35 2.82 9.63v3.47c0 6.04-2.05 11.69-6.29 17.09-4.37 5.27-9.52 8.99-15.56 11.18-1.41-1.03-5.78-7.58-12.97-19.53-7.33-11.82-14.65-16.96-22.24-15.16-17.35 4.62-29.17 16.06-35.33 34.56-6.31 18.37-9.39 40.98-9.39 67.96 0 10.92.13 21.33.51 31.09.39 9.64.65 19.15 1.03 28.4 1.03 4.24 6.17 6.93 15.3 8.22 9.12 1.15 14 2.05 14.77 2.31v10.15l-82.5-.51c0-4.24 3.98-8.23 11.95-11.69 7.98-3.6 11.96-8.48 11.96-14.91v-130.66c0-7.45-3.86-11.18-11.7-11.18-2.44 0-5.27.26-8.35.65-3.22.25-5.01.51-5.4.51l-1.54-10.66c9.63-4.24 19.78-9.51 30.59-15.55 10.79-6.04 20.81-12.08 30.06-18.24 1.41 2.95 2.07 6.68 2.07 11.3 0 3.86.12 7.71.25 11.44.26 3.72 1.54 6.81 3.98 9.25z"/><path d="m1052.27 986.93c0-11.05 6.04-18.63 18.26-23 12.2-4.24 25.57-6.42 40.22-6.42-6.05 30.96-9.13 61.92-9.13 92.89 0 15.67.77 30.06 2.44 43.29 1.54 13.11 3.34 23.51 5.28 30.97 1.93 7.45 4.37 11.17 7.19 11.17 5.01-1.02 8.61-1.54 10.67-1.54 2.18 0 3.47.77 3.72 2.19-7.71 8.47-18.24 14.77-31.61 18.88-13.24 4.11-24.28 7.45-33.16 9.89 1.68-7.45 3.35-15.93 5.15-25.56 1.67-9.51 2.57-17.99 2.57-25.44 0-8.22-.64-15.68-1.93-22.36-28.4 33.28-47.81 54.99-58.22 65.01-10.4 10.15-24.67 15.16-42.79 15.16-6.81 0-15.55-2.18-26.61-6.68-10.92-4.37-19.01-12.33-24.15-23.89-5.14-11.44-7.71-25.7-7.71-42.79 0-8.09.64-20.55 2.06-37.13 1.41-16.7 2.05-28.9 2.05-36.74 0-9.51-.77-17.73-2.31-24.41 0-5.01-3.47-7.45-10.42-7.45-1.41 0-2.57 0-3.46 0-.78 0-1.67.25-2.32.51 6.3-6.29 14.79-12.85 25.32-19.4 10.54-6.55 19.92-10.66 28.41-12.46.64 5.01 1.02 9.89 1.02 14.9v14.91c0 7.7-.38 20.68-1.15 38.92-.77 18.25-1.16 28.14-1.16 29.55 0 13.75.64 25.57 1.93 35.21 1.15 9.76 3.6 20.68 7.19 32.76 3.47 11.95 11.82 17.98 25.06 17.98 9.26 0 26.47-9.76 51.54-29.29 25.05-19.66 37.65-52.67 37.65-99.31 0-3.08 0-6.3-.13-9.25-.13-3.08-.77-8.99-1.8-17.86z"/><path d="m1247.35 957.76c9.89 0 18.5 4.89 25.71 14.52 7.32 9.77 14.26 19.15 20.94 28.4-5.66 1.79-13.62-.39-24.03-6.69-10.54-6.16-17.99-9.25-22.62-9.25-13.75 0-25.83 1.16-36.11 3.47-10.28 2.32-20.43 8.35-30.72 17.99-10.28 9.64-15.42 22.23-15.42 37.9 0 7.58 2.96 18.89 9 34.05s18.64 29.03 37.78 41.49c19.02 12.47 35.21 19.92 48.57 22.49 13.25 2.44 21.21 3.72 24.04 3.72 8.61 0 15.93-3.08 22.1-9.37 6.17-6.3 11.44-11.7 15.68-16.06-2.18 14.13-8.73 25.82-19.92 35.2-11.18 9.38-24.03 14.13-38.55 14.13-50.63 0-82.25-14.39-94.97-43.3-12.72-28.77-19.14-48.05-19.14-57.68 0-8.48 1.28-17.09 3.98-25.57 2.7-8.61 8.87-20.81 18.63-36.87 9.64-16.06 20.95-28.14 33.93-36.23 12.85-8.22 26.6-12.34 41.12-12.34z"/><path d="m1382.92 926.54c3.08-2.82 7.07-11.56 11.96-26.2 4.75-14.65 11.43-21.97 19.91-21.97 3.86 0 8.48 1.02 13.75 3.21 0 8.22-2.06 16.96-6.04 26.46-4.11 9.51-9.89 17.09-17.34 22.74-1.42-.38-4.76-.77-10.02-1.02-5.41-.39-9.39-1.42-12.22-3.22zm26.48 32.77c.38 32.5.9 65.01 1.67 97.64.64 32.63 1.54 54.99 2.7 67.19 1.02 12.08 3.72 19.14 8.22 21.07 4.37 1.93 9.77 2.96 16.2 2.96 7.06 0 12.71-.52 16.95-1.54v4.88c-9.89 5.91-21.45 10.28-34.82 13.36-13.24 3.08-26.34 4.62-39.07 4.75-2.06-8.86-3.6-17.86-4.5-26.85s-1.28-19.78-1.28-32.12c0-6.42.13-16.19.51-29.55.39-13.23.52-23 .52-29.42v-6.94c0-17.34-.9-30.45-2.7-39.18-1.8-8.87-4.88-13.36-9.51-13.36-2.18 0-5.39.51-9.89 1.41-4.38.77-6.95 1.28-7.72 1.28-4.62 0-7.97-1.67-10.02-4.75 10.92-3.98 21.98-7.84 32.9-11.69 11.31-5.01 21.85-11.31 31.36-19.14z"/><path d="m1476.74 638.89c1.8.38 4.63.77 8.61 1.15 3.86.39 7.45.52 10.66.52 5.27 0 13.24-.65 23.91-1.8 10.67-1.29 18.63-1.93 23.9-1.93s9.77.26 13.37.64c3.47.26 7.07 1.42 10.53 3.21-7.58 2.45-14 4.63-19.28 6.43-5.26 1.8-7.96 5.27-7.96 10.28v46.76 38.54 31.61 27.75 24.67 20.81 17.73 16.19 14.65 12.07 10.41 9.38 7.83 7.46 6.16 19.4 19.4 5.91c3.85-.77 17.61-7.96 41.25-21.58 23.65-13.62 41.12-20.43 52.44-20.43 2.18 0 6.16.26 11.82 1.03 22.74 4.24 41.38 13.62 55.89 28.26 14.53 14.52 23.14 29.17 25.84 43.94 2.7 14.65 3.98 24.93 3.98 30.58 0 21.97-7.45 41.76-22.36 59.36s-32.38 31.73-52.3 42.39c-20.05 10.67-38.81 15.94-56.16 15.94-30.07 0-54.62-11.57-73.38-34.57l-11.69-14.9c0-44.32-1.28-94.94-3.73-151.86-2.58-56.91-5.02-113.57-7.33-169.97s-3.47-105.22-3.47-146.34c-1.03-4.24-5.14-6.81-12.2-7.45-7.07-.77-12.08-1.8-14.91-3.21zm116.95 341.87c-11.7 2.19-21.6 6.55-29.56 13.11-7.97 6.55-13.25 14.39-15.94 23.64-2.7 9.25-4.63 17.98-5.91 26.08-1.16 8.22-1.8 16.18-1.8 24.02 0 13.49 2.31 25.83 6.94 37.26 4.62 11.31 13.62 22.36 27.11 33.28 13.37 10.79 29.69 16.18 48.84 16.18 5.26 0 12.34-.77 20.95-2.18 8.73-1.41 16.44-5.4 23.12-12.21 6.82-6.68 15.43-17.6 26.09-32.5 2.83-10.54 4.24-21.07 4.24-31.35 0-20.3-3.85-37.51-11.69-51.65-7.84-14.26-18.38-25.31-31.61-33.27-13.24-7.97-27.89-11.95-43.82-11.95-5.27 0-11.05.51-16.96 1.54z"/><path d="m1750.59 642.35c8.87-1.41 21.59-2.57 38.29-3.72 16.72-1.03 38.43-1.54 65.42-1.54-.77 3.21-5.78 5.52-15.42 6.93-9.52 1.42-14.27 5.66-14.27 12.72 0 49.34.13 98.8.26 148.14.13 49.33.38 104.83.77 166.63.38 61.8.51 105.87.51 132.08 0 12.84 1.54 23.12 4.5 30.96 2.95 7.71 9.77 13.1 20.44 15.93 5.26.64 10.79-.77 16.7-4.37 5.78-3.72 11.44-7.32 16.71-11.05.64 1.03 1.03 2.83 1.03 5.4 0 5.39-3.21 10.15-9.78 14.13-6.55 3.98-12.46 7.45-17.47 10.54-5.14 3.08-11.95 4.62-20.43 4.62-4.25 0-8.36-.38-12.21-1.03-3.86-.77-9.38-2.18-16.45-4.24l-8.48-10.66-15.42-392.11-4.24-103.81c-1.42-6.04-5.4-9.76-11.82-11.18-6.3-1.41-12.59-2.95-18.64-4.37z"/><path d="m1972.27 966.76c9.25-6.04 19.14-9 29.81-9 11.31 0 22.36 2.7 33.15 7.97 10.8 5.4 23.65 13.1 38.55 23.38-11.3 13.24-33.4 33.66-66.3 61.54-32.77 27.88-52.57 45.36-59.38 52.42 7.45 11.31 16.59 20.69 27.25 27.88 10.53 7.32 20.04 11.44 28.4 12.59 8.35 1.03 14.65 1.54 19.02 1.54 9.5 0 17.61-1.28 24.16-3.98 6.55-2.57 21.84-11.31 45.62-26.08-7.45 9.51-13.88 17.09-19.15 22.61-5.4 5.53-11.05 9.12-17.09 11.18-6.04 1.93-16.7 5.91-32.13 11.95-15.42 6.04-26.98 8.99-34.83 8.99-5.01 0-8.61-.26-10.92-.77s-9.12-3.47-20.43-8.61c-11.44-5.14-23.13-15.8-35.34-31.86-12.34-16.19-18.89-29.55-20.05-40.21-1.03-10.67-1.54-18.12-1.54-22.36 0-20.68 6.17-38.54 18.38-53.57 12.21-15.16 29.81-30.32 52.82-45.61zm32.51 18.76c-7.07-4.63-15.17-6.94-24.04-6.94-15.67 0-28.53 6.42-38.55 19.4-9.89 12.97-14.9 27.75-14.9 44.45 0 16.32 5.01 32.25 15.03 47.92 15.3-9.63 32.9-23.89 52.81-42.91 19.93-18.88 33.29-31.09 40.1-36.36-3.21-5.01-6.94-9.12-11.18-12.59-4.37-3.34-10.66-7.71-19.27-12.97z"/></g></g></svg>