<svg clip-rule="evenodd" fill-rule="evenodd" height="128.5mm" image-rendering="optimizeQuality" shape-rendering="geometricPrecision" text-rendering="geometricPrecision" viewBox="0 0 2540 12850" width="25.4mm" xmlns="http://www.w3.org/2000/svg"><g fill-rule="nonzero"><g fill="#2f2f2f"><path d="m271.16 678.17c5.63-1.02 12.61-1.58 21.17-1.92 8.55-.33 13.17-.45 13.73-.45 28.6 0 55.16 5.41 79.81 16.1 24.78 10.69 47.96 26.11 69.69 46.37-1.24 5.85-5.29 10.35-12.15 13.5-6.88 3.04-13.41 5.97-19.6 8.78-19.81-20.14-41.65-36.01-65.41-47.72-23.86-11.59-48.63-17.44-74.4-17.44-16.78 0-44.25 6.08-82.63 18.34-38.39 12.27-64.06 39.84-76.89 82.95-12.96 43.11-19.37 77.1-19.37 102.19 0 53.35 15.09 98.82 45.14 136.64 30.17 37.81 59.11 62.8 86.91 75.07 27.81 12.27 58.66 18.34 92.54 18.34 20.82 0 40.42-4.61 58.99-13.73 18.47-9.11 35.24-20.37 50.32-33.76 14.98-13.51 29.5-28.7 43.56-45.7h5.08c-17.34 32.19-42.22 58.19-74.53 77.89-32.2 19.69-66.87 29.48-103.8 29.48-48.07 0-89.94-9.56-125.41-28.58-35.57-19.14-63.71-46.82-84.32-83.18-20.6-36.24-30.96-72.59-30.96-108.83 0-31.96 8.44-66.74 25.34-104.33 16.99-37.48 40.41-68.77 70.36-93.76 29.94-24.98 65.51-40.4 106.83-46.25z"/><path d="m574.67 986.55c5.97-6.53 13.51-12.27 22.85-17.45 9.35-5.06 18.02-7.65 26.12-7.65 6.53 0 12.04 1.69 16.77 5.18 4.62 3.38 7.77 7.43 9.58 11.93 1.68 4.5 2.47 7.31 2.47 8.44v3.04c0 5.29-1.8 10.24-5.51 14.97-3.84 4.61-8.34 7.88-13.63 9.79-1.24-.9-5.07-6.64-11.37-17.11-6.41-10.35-12.83-14.85-19.48-13.28-15.19 4.05-25.55 14.07-30.95 30.28-5.52 16.09-8.23 35.9-8.23 59.54 0 9.56.12 18.68.45 27.23.34 8.44.58 16.77.91 24.88.9 3.71 5.41 6.07 13.4 7.2 7.99 1.01 12.26 1.8 12.94 2.02v8.9l-72.28-.45c0-3.72 3.49-7.21 10.48-10.25 6.98-3.15 10.47-7.42 10.47-13.05v-114.46c0-6.53-3.38-9.8-10.24-9.8-2.14 0-4.62.23-7.33.57-2.81.22-4.39.45-4.73.45l-1.35-9.34c8.45-3.72 17.35-8.33 26.8-13.62s18.23-10.58 26.35-15.98c1.23 2.58 1.8 5.85 1.8 9.9 0 3.38.11 6.75.22 10.02.23 3.26 1.35 5.96 3.49 8.1z"/><path d="m805 984.3c0-9.68 5.3-16.32 15.99-20.15 10.69-3.71 22.4-5.62 35.24-5.62-5.29 27.12-7.99 54.24-7.99 81.37 0 13.73.67 26.33 2.13 37.93 1.35 11.48 2.93 20.59 4.62 27.12s3.83 9.79 6.3 9.79c4.39-.9 7.54-1.35 9.34-1.35 1.92 0 3.04.68 3.27 1.92-6.76 7.42-15.98 12.94-27.7 16.54-11.59 3.6-21.27 6.53-29.04 8.67 1.47-6.53 2.93-13.96 4.5-22.4 1.47-8.33 2.26-15.76 2.26-22.29 0-7.2-.57-13.73-1.69-19.58-24.89 29.15-41.88 48.17-51 56.95-9.12 8.89-21.62 13.28-37.49 13.28-5.96 0-13.62-1.91-23.3-5.85-9.57-3.83-16.66-10.81-21.16-20.94-4.51-10.01-6.77-22.51-6.77-37.47 0-7.09.57-18.01 1.81-32.53 1.24-14.63 1.81-25.32 1.81-32.19 0-8.33-.68-15.53-2.04-21.38 0-4.39-3.04-6.53-9.12-6.53-1.23 0-2.25 0-3.03 0-.68 0-1.47.22-2.03.45 5.51-5.52 12.94-11.26 22.18-17 9.23-5.74 17.45-9.34 24.87-10.91.57 4.39.9 8.66.9 13.05v13.06c0 6.75-.33 18.12-1.01 34.1-.67 15.98-1.01 24.65-1.01 25.89 0 12.04.56 22.39 1.69 30.83 1.01 8.56 3.15 18.12 6.3 28.7 3.05 10.47 10.36 15.76 21.96 15.76 8.1 0 23.19-8.55 45.14-25.66 21.96-17.22 32.99-46.14 32.99-87 0-2.7 0-5.51-.12-8.1-.11-2.7-.67-7.88-1.57-15.65z"/><path d="m975.89 958.75c8.67 0 16.21 4.28 22.51 12.72 6.42 8.55 12.51 16.77 18.36 24.87-4.95 1.58-11.94-.34-21.06-5.85-9.23-5.4-15.75-8.1-19.81-8.1-12.05 0-22.63 1.01-31.63 3.03-9.01 2.03-17.91 7.32-26.91 15.76s-13.51 19.47-13.51 33.2c0 6.64 2.59 16.55 7.88 29.83s16.33 25.43 33.1 36.35c16.66 10.92 30.85 17.45 42.55 19.7 11.6 2.14 18.57 3.26 21.05 3.26 7.55 0 13.97-2.7 19.37-8.21 5.4-5.52 10.02-10.25 13.73-14.07-1.91 12.38-7.65 22.62-17.44 30.83-9.8 8.22-21.06 12.39-33.78 12.39-44.35 0-72.05-12.61-83.19-37.93-11.14-25.21-16.77-42.1-16.77-50.54 0-7.43 1.12-14.97 3.49-22.39 2.36-7.55 7.76-18.24 16.32-32.31 8.44-14.06 18.35-24.64 29.72-31.73 11.25-7.21 23.3-10.81 36.02-10.81z"/><path d="m1094.66 931.4c2.7-2.47 6.19-10.13 10.47-22.96 4.16-12.83 10.01-19.24 17.44-19.24 3.38 0 7.44.9 12.05 2.81 0 7.2-1.8 14.86-5.3 23.18-3.6 8.33-8.66 14.97-15.19 19.93-1.24-.34-4.16-.68-8.78-.9-4.73-.34-8.21-1.24-10.69-2.82zm23.18 28.7c.34 28.48.79 56.95 1.47 85.54.56 28.59 1.35 48.17 2.36 58.86.9 10.58 3.26 16.77 7.2 18.46 3.84 1.69 8.57 2.59 14.2 2.59 6.19 0 11.14-.45 14.85-1.35v4.27c-8.66 5.18-18.79 9.01-30.51 11.71-11.59 2.7-23.07 4.05-34.21 4.16-1.8-7.76-3.16-15.64-3.95-23.52s-1.13-17.33-1.13-28.14c0-5.62.11-14.18.45-25.88.34-11.6.45-20.15.45-25.78v-6.07c0-15.2-.79-26.68-2.36-34.33-1.58-7.77-4.28-11.71-8.33-11.71-1.91 0-4.73.45-8.67 1.24-3.82.68-6.07 1.13-6.75 1.13-4.05 0-6.98-1.47-8.78-4.17 9.57-3.49 19.25-6.86 28.81-10.24 9.92-4.39 19.15-9.9 27.48-16.77z"/><path d="m1176.84 679.41c1.57.33 4.05.67 7.54 1.01 3.37.34 6.52.45 9.34.45 4.61 0 11.59-.56 20.94-1.58 9.34-1.12 16.32-1.69 20.94-1.69 4.61 0 8.55.23 11.7.57 3.04.22 6.2 1.24 9.24 2.81-6.65 2.14-12.28 4.05-16.89 5.63-4.62 1.57-6.98 4.61-6.98 9v40.97 33.76 27.69 24.31 21.61 18.23 15.54 14.18 12.83 10.58 9.11 8.22 6.86 6.53 5.4 17 16.99 5.18c3.38-.67 15.42-6.98 36.14-18.91 20.71-11.93 36.02-17.89 45.93-17.89 1.91 0 5.4.22 10.35.9 19.93 3.71 36.25 11.93 48.98 24.76 12.72 12.72 20.26 25.55 22.62 38.49 2.37 12.83 3.49 21.84 3.49 26.79 0 19.24-6.53 36.58-19.58 51.99-13.07 15.42-28.37 27.8-45.82 37.15-17.57 9.34-34 13.95-49.2 13.95-26.34 0-47.85-10.13-64.28-30.27l-10.24-13.06c0-38.83-1.14-83.17-3.27-133.03-2.25-49.86-4.39-99.49-6.42-148.9-2.02-49.41-3.04-92.18-3.04-128.2-.9-3.71-4.5-5.96-10.69-6.52-6.19-.68-10.58-1.58-13.06-2.82zm102.43 299.49c-10.24 1.91-18.9 5.74-25.88 11.48-6.99 5.74-11.6 12.6-13.97 20.71-2.36 8.1-4.05 15.75-5.17 22.84-1.02 7.21-1.58 14.18-1.58 21.05 0 11.82 2.03 22.62 6.08 32.64 4.05 9.9 11.93 19.58 23.75 29.15 11.71 9.45 26 14.18 42.78 14.18 4.62 0 10.81-.68 18.35-1.91 7.65-1.24 14.41-4.73 20.27-10.7 5.96-5.85 13.5-15.42 22.84-28.47 2.48-9.23 3.72-18.46 3.72-27.46 0-17.79-3.38-32.87-10.24-45.25-6.87-12.49-16.1-22.17-27.69-29.15-11.6-6.97-24.43-10.46-38.39-10.46-4.62 0-9.69.45-14.87 1.35z"/><path d="m1416.74 682.44c7.76-1.23 18.91-2.25 33.54-3.26 14.64-.9 33.66-1.35 57.3-1.35-.67 2.81-5.06 4.84-13.5 6.08-8.34 1.24-12.5 4.95-12.5 11.14 0 43.22.11 86.55.22 129.77s.34 91.84.68 145.97c.33 54.14.45 92.74.45 115.7 0 11.26 1.35 20.26 3.94 27.13 2.58 6.75 8.56 11.48 17.9 13.95 4.61.57 9.45-.67 14.63-3.82 5.07-3.27 10.02-6.42 14.63-9.68.58.9.91 2.47.91 4.72 0 4.73-2.82 8.9-8.56 12.38-5.74 3.49-10.92 6.53-15.31 9.23-4.5 2.7-10.46 4.06-17.9 4.06-3.72 0-7.32-.34-10.69-.91-3.38-.67-8.22-1.91-14.41-3.71l-7.43-9.34-13.51-343.5-3.72-90.94c-1.24-5.29-4.73-8.55-10.35-9.79-5.52-1.24-11.03-2.59-16.32-3.83z"/><path d="m1610.92 966.63c8.11-5.29 16.78-7.88 26.12-7.88 9.91 0 19.59 2.36 29.05 6.98 9.45 4.73 20.71 11.48 33.77 20.48-9.91 11.59-29.27 29.49-58.09 53.91-28.71 24.43-46.04 39.73-52.01 45.92 6.53 9.91 14.52 18.12 23.86 24.43 9.24 6.41 17.57 10.01 24.88 11.03 7.32.9 12.83 1.35 16.66 1.35 8.34 0 15.43-1.13 21.17-3.49 5.74-2.25 19.13-9.91 39.97-22.85-6.53 8.33-12.16 14.97-16.77 19.81-4.74 4.84-9.69 7.99-14.98 9.79-5.29 1.69-14.63 5.18-28.14 10.47-13.52 5.29-23.65 7.88-30.51 7.88-4.39 0-7.54-.23-9.57-.68s-8-3.04-17.9-7.54c-10.02-4.5-20.26-13.84-30.96-27.91-10.81-14.18-16.55-25.89-17.56-35.23-.9-9.34-1.35-15.87-1.35-19.58 0-18.12 5.4-33.77 16.09-46.94 10.7-13.28 26.12-26.56 46.27-39.95zm28.48 16.43c-6.19-4.05-13.28-6.08-21.04-6.08-13.74 0-25 5.63-33.78 17-8.66 11.37-13.06 24.31-13.06 38.94 0 14.29 4.4 28.25 13.18 41.98 13.39-8.44 28.81-20.93 46.26-37.59 17.45-16.55 29.16-27.24 35.13-31.85-2.82-4.39-6.08-7.99-9.79-11.03-3.84-2.93-9.35-6.75-16.9-11.37z"/></g><g fill="#dddad6"><path d="m271.16 671.05c5.64-1.02 12.61-1.58 21.17-1.92 8.55-.33 13.17-.45 13.73-.45 28.6 0 55.17 5.41 79.81 16.1 24.78 10.69 47.97 26.11 69.69 46.37-1.24 5.85-5.29 10.35-12.15 13.5-6.87 3.04-13.41 5.97-19.6 8.78-19.81-20.14-41.65-36.01-65.4-47.72-23.87-11.59-48.64-17.44-74.41-17.44-16.78 0-44.24 6.08-82.63 18.34-38.39 12.27-64.06 39.84-76.89 82.95-12.95 43.11-19.37 77.1-19.37 102.19 0 53.35 15.09 98.82 45.14 136.64 30.17 37.81 59.11 62.8 86.92 75.07 27.8 12.27 58.65 18.34 92.53 18.34 20.82 0 40.42-4.61 58.99-13.73 18.47-9.11 35.24-20.37 50.33-33.76 14.97-13.51 29.49-28.7 43.56-45.7h5.07c-17.34 32.19-42.22 58.19-74.53 77.89-32.2 19.69-66.87 29.48-103.8 29.48-48.07 0-89.94-9.56-125.41-28.58-35.57-19.14-63.71-46.82-84.32-83.18-20.59-36.24-30.96-72.59-30.96-108.83 0-31.96 8.45-66.74 25.34-104.33 17-37.48 40.41-68.77 70.36-93.76 29.95-24.98 65.51-40.4 106.83-46.25z"/><path d="m574.67 979.43c5.97-6.53 13.51-12.27 22.86-17.45 9.34-5.06 18.01-7.65 26.11-7.65 6.53 0 12.05 1.69 16.78 5.18 4.61 3.38 7.76 7.43 9.57 11.93 1.68 4.5 2.47 7.31 2.47 8.44v3.04c0 5.29-1.8 10.24-5.51 14.97-3.83 4.61-8.33 7.88-13.63 9.79-1.24-.9-5.07-6.64-11.37-17.11-6.41-10.35-12.83-14.85-19.47-13.28-15.2 4.05-25.56 14.07-30.96 30.28-5.52 16.09-8.22 35.9-8.22 59.54 0 9.56.12 18.68.45 27.23.34 8.44.57 16.77.9 24.88.9 3.71 5.41 6.07 13.4 7.2 7.99 1.01 12.26 1.8 12.94 2.02v8.9l-72.27-.45c0-3.72 3.49-7.21 10.47-10.25 6.98-3.15 10.47-7.42 10.47-13.05v-114.46c0-6.53-3.38-9.8-10.24-9.8-2.14 0-4.62.23-7.32.57-2.81.22-4.39.45-4.73.45l-1.35-9.34c8.44-3.72 17.34-8.33 26.79-13.62s18.24-10.58 26.35-15.98c1.23 2.58 1.8 5.85 1.8 9.9 0 3.38.11 6.75.22 10.02.23 3.26 1.35 5.96 3.49 8.1z"/><path d="m805.01 977.18c0-9.68 5.29-16.32 15.98-20.15 10.69-3.71 22.41-5.62 35.24-5.62-5.29 27.12-7.99 54.24-7.99 81.37 0 13.73.67 26.33 2.13 37.93 1.35 11.48 2.93 20.59 4.62 27.12s3.83 9.79 6.3 9.79c4.39-.9 7.54-1.35 9.34-1.35 1.92 0 3.04.68 3.27 1.92-6.76 7.42-15.98 12.94-27.69 16.54-11.6 3.6-21.28 6.53-29.05 8.67 1.47-6.53 2.93-13.96 4.5-22.4 1.47-8.33 2.26-15.76 2.26-22.29 0-7.2-.57-13.73-1.69-19.58-24.88 29.15-41.88 48.17-51 56.95-9.11 8.89-21.62 13.28-37.49 13.28-5.96 0-13.61-1.91-23.3-5.85-9.57-3.83-16.66-10.81-21.16-20.94-4.5-10.01-6.76-22.51-6.76-37.47 0-7.09.57-18.01 1.81-32.53 1.23-14.63 1.8-25.32 1.8-32.19 0-8.33-.68-15.53-2.03-21.38 0-4.39-3.04-6.53-9.13-6.53-1.23 0-2.25 0-3.03 0-.68 0-1.47.22-2.03.45 5.51-5.52 12.95-11.26 22.18-17s17.45-9.34 24.88-10.91c.57 4.39.9 8.66.9 13.05v13.06c0 6.75-.33 18.12-1.01 34.1s-1.02 24.65-1.02 25.89c0 12.04.56 22.39 1.7 30.83 1.01 8.56 3.15 18.12 6.3 28.7 3.04 10.47 10.35 15.76 21.95 15.76 8.1 0 23.19-8.55 45.14-25.66 21.96-17.22 32.99-46.14 32.99-87 0-2.7 0-5.51-.12-8.1-.11-2.7-.67-7.88-1.57-15.65z"/><path d="m975.89 951.63c8.67 0 16.21 4.28 22.51 12.72 6.43 8.55 12.51 16.77 18.36 24.87-4.95 1.58-11.93-.34-21.06-5.85-9.23-5.4-15.75-8.1-19.81-8.1-12.04 0-22.63 1.01-31.63 3.03-9.01 2.03-17.9 7.32-26.91 15.76-9 8.44-13.51 19.47-13.51 33.2 0 6.64 2.59 16.55 7.88 29.83s16.33 25.43 33.1 36.35c16.67 10.92 30.85 17.45 42.55 19.7 11.6 2.14 18.58 3.26 21.06 3.26 7.54 0 13.96-2.7 19.36-8.21 5.4-5.52 10.02-10.25 13.74-14.07-1.92 12.38-7.66 22.62-17.45 30.83-9.8 8.22-21.05 12.39-33.78 12.39-44.35 0-72.05-12.61-83.19-37.93-11.14-25.21-16.77-42.1-16.77-50.54 0-7.43 1.12-14.97 3.49-22.39 2.36-7.55 7.76-18.24 16.32-32.31 8.45-14.06 18.35-24.64 29.72-31.73 11.25-7.21 23.31-10.81 36.02-10.81z"/><path d="m1094.66 924.28c2.7-2.47 6.19-10.13 10.47-22.96 4.16-12.83 10.01-19.24 17.45-19.24 3.38 0 7.43.9 12.04 2.81 0 7.2-1.8 14.86-5.29 23.18-3.6 8.33-8.66 14.97-15.2 19.93-1.24-.34-4.16-.68-8.78-.9-4.73-.34-8.21-1.24-10.69-2.82zm23.18 28.7c.34 28.48.79 56.95 1.47 85.54.56 28.59 1.36 48.17 2.37 58.86.9 10.58 3.26 16.77 7.2 18.46 3.83 1.69 8.56 2.59 14.19 2.59 6.19 0 11.14-.45 14.85-1.35v4.27c-8.66 5.18-18.79 9.01-30.5 11.71-11.6 2.7-23.08 4.05-34.22 4.16-1.8-7.76-3.16-15.64-3.94-23.52-.79-7.88-1.13-17.33-1.13-28.14 0-5.62.11-14.18.45-25.88.34-11.6.45-20.15.45-25.78v-6.07c0-15.2-.79-26.68-2.36-34.33-1.58-7.77-4.28-11.71-8.34-11.71-1.91 0-4.73.45-8.67 1.24-3.82.68-6.07 1.13-6.75 1.13-4.05 0-6.98-1.47-8.78-4.17 9.57-3.49 19.25-6.86 28.82-10.24 9.91-4.39 19.14-9.9 27.47-16.77z"/><path d="m1176.84 672.29c1.57.33 4.05.67 7.54 1.01 3.37.34 6.52.45 9.34.45 4.61 0 11.6-.56 20.94-1.58 9.34-1.12 16.32-1.69 20.94-1.69 4.61 0 8.56.23 11.71.57 3.04.22 6.19 1.24 9.23 2.81-6.64 2.14-12.27 4.05-16.89 5.63-4.62 1.57-6.98 4.61-6.98 9v40.97 33.76 27.69 24.31 21.61 18.23 15.54 14.18 12.83 10.58 9.11 8.22 6.86 6.53 5.4 17 16.99 5.18c3.38-.67 15.43-6.98 36.14-18.91 20.72-11.93 36.02-17.89 45.93-17.89 1.91 0 5.4.22 10.36.9 19.92 3.71 36.24 11.93 48.97 24.76 12.72 12.72 20.26 25.55 22.62 38.49 2.37 12.83 3.49 21.84 3.49 26.79 0 19.24-6.53 36.58-19.58 51.99-13.06 15.42-28.37 27.8-45.82 37.15-17.57 9.34-34 13.95-49.19 13.95-26.35 0-47.86-10.13-64.29-30.27l-10.24-13.06c0-38.83-1.13-83.17-3.26-133.03-2.25-49.86-4.39-99.49-6.43-148.9-2.02-49.41-3.04-92.18-3.04-128.2-.9-3.71-4.5-5.96-10.69-6.52-6.19-.68-10.58-1.58-13.06-2.82zm102.43 299.49c-10.24 1.91-18.9 5.74-25.88 11.48s-11.6 12.6-13.97 20.71c-2.36 8.1-4.05 15.75-5.17 22.84-1.02 7.21-1.58 14.18-1.58 21.05 0 11.82 2.03 22.62 6.08 32.64 4.06 9.9 11.94 19.58 23.75 29.15 11.71 9.45 26.01 14.18 42.78 14.18 4.62 0 10.81-.68 18.36-1.91 7.65-1.24 14.4-4.73 20.26-10.7 5.96-5.85 13.5-15.42 22.85-28.47 2.48-9.23 3.72-18.46 3.72-27.46 0-17.79-3.38-32.87-10.25-45.25-6.87-12.49-16.1-22.17-27.69-29.15-11.6-6.97-24.43-10.46-38.39-10.46-4.61 0-9.68.45-14.87 1.35z"/><path d="m1416.74 675.32c7.76-1.23 18.91-2.25 33.55-3.26 14.63-.9 33.65-1.35 57.29-1.35-.67 2.81-5.06 4.84-13.5 6.08-8.33 1.24-12.5 4.95-12.5 11.14 0 43.22.11 86.55.22 129.77s.34 91.84.68 145.97c.33 54.14.45 92.74.45 115.7 0 11.26 1.35 20.26 3.95 27.13 2.58 6.75 8.55 11.48 17.89 13.95 4.61.57 9.45-.67 14.63-3.82 5.07-3.27 10.03-6.42 14.64-9.68.57.9.9 2.47.9 4.72 0 4.73-2.81 8.9-8.55 12.38-5.75 3.49-10.93 6.53-15.32 9.23-4.5 2.7-10.46 4.06-17.89 4.06-3.72 0-7.32-.34-10.7-.91-3.38-.67-8.22-1.91-14.41-3.71l-7.43-9.34-13.5-343.5-3.73-90.94c-1.24-5.29-4.73-8.55-10.35-9.79-5.52-1.24-11.03-2.59-16.32-3.83z"/><path d="m1610.93 959.51c8.1-5.29 16.77-7.88 26.11-7.88 9.92 0 19.59 2.36 29.05 6.98 9.45 4.73 20.72 11.48 33.77 20.48-9.9 11.59-29.27 29.49-58.09 53.91-28.7 24.43-46.04 39.73-52.01 45.92 6.53 9.91 14.52 18.12 23.87 24.43 9.23 6.41 17.56 10.01 24.87 11.03 7.32.9 12.84 1.35 16.67 1.35 8.33 0 15.42-1.13 21.16-3.49 5.74-2.25 19.14-9.91 39.97-22.85-6.53 8.33-12.16 14.97-16.77 19.81-4.73 4.84-9.68 7.99-14.98 9.79-5.29 1.69-14.63 5.18-28.14 10.47-13.52 5.29-23.65 7.88-30.51 7.88-4.39 0-7.54-.23-9.57-.68-2.02-.45-7.99-3.04-17.9-7.54-10.02-4.5-20.26-13.84-30.95-27.91-10.82-14.18-16.56-25.89-17.57-35.23-.9-9.34-1.35-15.87-1.35-19.58 0-18.12 5.4-33.77 16.09-46.94 10.7-13.28 26.12-26.56 46.28-39.95zm28.47 16.43c-6.19-4.05-13.28-6.08-21.04-6.08-13.74 0-25 5.63-33.78 17-8.66 11.37-13.05 24.31-13.05 38.94 0 14.29 4.39 28.25 13.17 41.98 13.39-8.44 28.82-20.93 46.26-37.59 17.46-16.55 29.16-27.24 35.13-31.85-2.82-4.39-6.08-7.99-9.79-11.03-3.83-2.93-9.34-6.75-16.9-11.37z"/></g></g></svg>