<svg clip-rule="evenodd" fill-rule="evenodd" height="128.5mm" image-rendering="optimizeQuality" shape-rendering="geometricPrecision" text-rendering="geometricPrecision" viewBox="0 0 3048 12850" width="30.48mm" xmlns="http://www.w3.org/2000/svg"><g fill-rule="nonzero"><g fill="#2f2f2f"><path d="m920.65 337.24c23.04-2.45 43.54-4.45 61.35-5.9 17.82-1.45 36.42-2.12 55.8-2.12 49.11 0 92.54 6.35 130.18 19.15 37.64 12.7 67.6 33.4 89.64 62.13 22.17 28.72 37.98 54.77 47.33 78.26 9.36 23.5 14.04 47.66 14.04 72.59 0 13.48-1.23 26.5-3.68 39.08s-9.36 32.62-20.49 60.12c-11.25 27.5-28.96 53.33-53.01 77.38-24.17 24.16-50 38.97-77.51 44.42-27.51 5.57-48.99 9.02-64.48 10.35-15.58 1.45-31.73 2.12-48.66 2.12-13.47 0-36.75-.89-69.6-2.56-32.85-1.78-54.68-2.67-65.48-2.67 2.12-6.13 8.46-9.58 18.82-10.58 10.35-.89 16.82-3.67 19.27-8.24 0-34.4.44-78.04 1.33-131.15.89-52.99 1.34-83.61 1.34-91.51 0-39.64-.45-73.26-1.34-100.98-1-27.84-3.11-58.68-6.56-92.74-1.56-5.57-5.36-8.91-11.37-10.14-6.01-1.22-11.58-2.45-16.92-3.67zm78.95 9.35c0 38.97-1.11 84.5-3.34 136.39-2.11 51.99-4.23 103.87-6.34 155.75-2.01 51.99-3.01 97.75-3.01 137.39 14.14 1.55 28.5 2.89 43.21 4.12 14.58 1.22 28.61 1.89 42.2 1.89 37.87 0 70.82-4.9 98.78-14.7 28.06-9.91 49.77-25.6 65.15-47.09 15.36-21.49 26.05-42.42 31.84-62.91 5.91-20.37 8.8-41.97 8.8-64.68 0-20.93-2.11-41.53-6.23-61.79-4.13-20.26-12.48-45.54-24.95-75.82s-36.97-57-73.84-80.05c-36.75-23.04-77.06-34.51-121.04-34.51-17.82 0-34.97 2-51.23 6.01z"/><path d="m1405.85 616.24c8.01-5.23 16.59-7.79 25.84-7.79 9.79 0 19.37 2.34 28.72 6.9 9.35 4.68 20.5 11.36 33.41 20.26-9.8 11.47-28.96 29.17-57.46 53.33-28.4 24.16-45.54 39.3-51.45 45.43 6.46 9.79 14.37 17.92 23.61 24.16 9.13 6.34 17.37 9.9 24.61 10.91 7.24.89 12.7 1.33 16.48 1.33 8.24 0 15.25-1.11 20.93-3.45 5.69-2.23 18.94-9.8 39.53-22.6-6.45 8.24-12.02 14.81-16.58 19.59-4.68 4.79-9.58 7.91-14.81 9.69-5.23 1.67-14.48 5.12-27.84 10.35-13.36 5.24-23.39 7.8-30.19 7.8-4.34 0-7.46-.22-9.46-.67s-7.9-3.01-17.7-7.46c-9.92-4.45-20.05-13.69-30.63-27.61-10.69-14.03-16.37-25.61-17.38-34.85-.89-9.24-1.33-15.7-1.33-19.37 0-17.92 5.34-33.4 15.93-46.43 10.58-13.13 25.83-26.27 45.77-39.52zm28.17 16.26c-6.13-4.01-13.14-6.02-20.83-6.02-13.58 0-24.72 5.57-33.41 16.82-8.57 11.24-12.91 24.04-12.91 38.52 0 14.14 4.34 27.94 13.03 41.52 13.25-8.35 28.51-20.7 45.76-37.18 17.27-16.37 28.85-26.94 34.75-31.51-2.78-4.34-6.01-7.9-9.69-10.91-3.78-2.89-9.24-6.68-16.7-11.24z"/><path d="m1529.46 649.98c5.79-6.46 15.58-14.48 29.29-24.16 13.8-9.69 21.93-15.48 24.38-17.37 1.23 2.22 1.78 5.12 1.78 8.46 0 2.78.11 5.57.22 8.24.12 2.78 1.34 4.9 3.46 6.46 9.58-5.46 20.83-10.36 33.96-14.7 13.04-4.34 25.95-6.46 38.53-6.46 9.24 0 17.6 1.45 24.95 4.34 7.46 2.9 13.92 7.57 19.37 14.03 5.57 6.46 9.37 13.47 11.37 20.93 2 7.57 3.01 16.03 3.01 25.61 0 5.23-.67 15.03-2.01 29.61-1.22 14.59-1.89 24.16-1.89 28.84 0 5.45.11 10.58.45 15.14.33 4.57 1 9.02 2.11 13.36s3.12 7.68 6.01 10.13c2.9 2.45 7.68 3.68 14.14 3.68 2.23 0 4.79-.23 7.91-.67.66 4.23-.67 6.9-3.68 7.79-4.67.34-10.69 1.56-18.26 3.68-7.57 2.11-16.37 3.22-26.61 3.22-3.34 0-6.02-.22-7.8-.55-1.22-6.68-2-11.58-2.11-14.7-.11-3-.23-5.45-.23-7.35 0-7.01 1.01-20.15 3.01-39.07 2-19.04 3.01-31.96 3.01-38.75 0-14.36-2.12-26.61-6.24-36.63-4.12-9.91-10.91-17.81-20.27-23.49-9.35-5.68-19.15-8.46-29.28-8.46-13.82 0-25.06 4.34-33.86 12.91-8.79 8.69-14.81 19.71-18.15 33.07-3.46 13.36-5.13 28.72-5.13 45.98 0 11.36.12 19.15.45 23.38.33 4.12 1.45 17.15 3.56 39.08 0 3.67 3.68 6.35 10.92 8.02s11.14 3.67 11.8 5.78c-6.79.67-13.36 1.23-19.71 1.9-6.35.55-12.36.89-18.26.89-8.02 0-13.81-.22-17.37-.67-3.57-.45-8.25-1.45-14.15-3.01 6.57-6.79 11.14-15.25 13.58-25.27 2.58-10.02 3.8-22.27 3.8-36.74 0-9.91-.56-23.38-1.56-40.3s-1.45-27.5-1.45-31.51c0-4.34-1.23-6.46-3.68-6.46-1.22 0-3.67.78-7.13 2.34-3.56 1.56-5.9 2.23-7.12 2.23-1.89 0-3.56-.89-5.12-2.78z"/><path d="m1857.52 333.23v6.24c-.89.33-2.78.44-5.68.44h-8.35c-5.34 0-8.01 1.67-8.01 5.12 2.34 18.48 4.01 37.75 5.12 57.79s1.78 40.63 1.78 61.9c0 25.6-.67 51.32-1.78 77.04s-2.23 53.66-3.45 83.94c-1.12 30.18-1.67 54.34-1.67 72.59 1.22 2.45 3.23 3.68 6.01 3.68 1.89 0 3.67-1.12 5.57-3.23 20.93-15.92 40.09-31.84 57.45-47.65 17.49-15.81 34.64-32.96 51.56-51.44l27.29 4.68c-10.8 18.7-26.83 34.73-48.22 48.09-21.38 13.36-39.09 24.39-52.89 32.96-.89.89-1.34 2-1.34 3.23 0 1.22.45 2 1.34 2.34 21.26 16.92 43.87 34.84 67.81 53.77 24.06 19.04 44.77 32.4 62.37 40.08-10.8 4.9-21.61 7.35-32.3 7.35-19.15 0-43.1-13.14-71.94-39.41-28.95-26.28-47.11-41.42-54.45-45.43-3.9-1.56-8.13.78-12.7 7.02-4.67 6.12-6.46 12.35-5.56 18.48.55 9.35 1.33 18.37 2.22 27.39 1.9 9.01 5.13 14.69 9.91 17.14 4.68 2.45 8.35 4.12 10.91 4.9s4.46 1.67 5.68 2.56c-.55 1.56-1.33 3.01-2.22 4.56-.9 1.56-2.34 2.45-4.46 2.79h-72.27c.55-.67 5.34-4.12 14.15-10.58 8.9-6.57 13.36-12.8 13.36-19.04v-54.88c0-61.35-.23-109.78-.67-145.41-.45-35.51-1.56-70.69-3.23-105.32-1.67-34.62-4.57-72.47-8.46-113.45-.67-2.11-4.01-3.56-10.14-4.34s-12.92-1.78-20.27-3c1.9-1.45 9.24-2.23 22.38-2.45 13.04-.34 22.72-.45 29.18-.45h20.05z"/><path d="m2069.32 581.39c2.68-2.45 6.13-10.02 10.37-22.71 4.12-12.69 9.91-19.04 17.25-19.04 3.34 0 7.35.89 11.92 2.79 0 7.12-1.78 14.69-5.24 22.93-3.56 8.24-8.57 14.81-15.03 19.71-1.22-.34-4.12-.67-8.68-.89-4.69-.34-8.14-1.23-10.59-2.79zm22.95 28.39c.33 28.17.78 56.34 1.45 84.62.55 28.28 1.33 47.65 2.33 58.22.89 10.47 3.23 16.59 7.13 18.26 3.78 1.67 8.46 2.56 14.03 2.56 6.13 0 11.03-.44 14.7-1.33v4.23c-8.57 5.12-18.6 8.91-30.18 11.58-11.47 2.67-22.82 4.01-33.85 4.12-1.79-7.69-3.12-15.48-3.9-23.27-.78-7.8-1.11-17.15-1.11-27.84 0-5.56.11-14.02.44-25.6.34-11.47.45-19.93.45-25.5v-6.01c0-15.03-.78-26.39-2.34-33.96-1.56-7.68-4.23-11.57-8.24-11.57-1.89 0-4.68.44-8.57 1.22-3.79.67-6.01 1.11-6.68 1.11-4.02 0-6.92-1.44-8.7-4.12 9.48-3.45 19.05-6.79 28.51-10.13 9.8-4.34 18.93-9.79 27.18-16.59z"/></g><g fill="#dddad6"><path d="m920.65 330.19c23.05-2.45 43.54-4.45 61.36-5.9 17.81-1.45 36.42-2.12 55.79-2.12 49.11 0 92.54 6.35 130.18 19.15 37.64 12.7 67.6 33.4 89.64 62.13 22.17 28.72 37.98 54.77 47.34 78.26 9.35 23.5 14.03 47.66 14.03 72.59 0 13.48-1.23 26.5-3.68 39.08s-9.35 32.62-20.49 60.12c-11.25 27.5-28.95 53.33-53.01 77.38-24.17 24.16-50 38.97-77.51 44.42-27.51 5.57-48.99 9.02-64.47 10.35-15.59 1.45-31.74 2.12-48.67 2.12-13.47 0-36.75-.89-69.59-2.56-32.86-1.78-54.69-2.67-65.49-2.67 2.12-6.13 8.46-9.58 18.82-10.58 10.36-.89 16.82-3.67 19.27-8.24 0-34.4.44-78.04 1.33-131.15.89-52.99 1.34-83.61 1.34-91.51 0-39.64-.45-73.26-1.34-100.98-1-27.84-3.11-58.68-6.56-92.74-1.56-5.57-5.35-8.91-11.36-10.14-6.02-1.22-11.59-2.45-16.93-3.67zm78.95 9.35c0 38.97-1.11 84.5-3.34 136.39-2.11 51.99-4.23 103.87-6.34 155.75-2.01 51.99-3.01 97.75-3.01 137.39 14.14 1.55 28.5 2.89 43.21 4.12 14.58 1.22 28.62 1.89 42.2 1.89 37.87 0 70.83-4.9 98.78-14.7 28.06-9.91 49.78-25.6 65.15-47.09 15.36-21.49 26.06-42.42 31.85-62.91 5.9-20.37 8.79-41.97 8.79-64.68 0-20.93-2.11-41.53-6.23-61.79s-12.48-45.54-24.95-75.82-36.97-57-73.84-80.05c-36.75-23.04-77.06-34.51-121.04-34.51-17.82 0-34.97 2-51.23 6.01z"/><path d="m1405.85 609.19c8.01-5.23 16.6-7.79 25.84-7.79 9.79 0 19.37 2.34 28.72 6.9 9.36 4.68 20.5 11.36 33.41 20.26-9.8 11.47-28.95 29.17-57.46 53.33-28.4 24.16-45.54 39.3-51.44 45.43 6.45 9.79 14.36 17.92 23.6 24.16 9.13 6.34 17.38 9.9 24.61 10.91 7.24.89 12.7 1.33 16.48 1.33 8.24 0 15.26-1.11 20.94-3.45 5.68-2.23 18.93-9.8 39.53-22.6-6.45 8.24-12.03 14.81-16.59 19.59-4.68 4.79-9.58 7.91-14.81 9.69-5.23 1.67-14.47 5.12-27.84 10.35-13.36 5.24-23.38 7.8-30.19 7.8-4.34 0-7.46-.22-9.46-.67s-7.9-3.01-17.7-7.46c-9.91-4.45-20.05-13.69-30.63-27.61-10.69-14.03-16.36-25.61-17.37-34.85-.89-9.24-1.33-15.7-1.33-19.37 0-17.92 5.34-33.4 15.92-46.43 10.58-13.13 25.84-26.27 45.77-39.52zm28.17 16.26c-6.12-4.01-13.14-6.02-20.83-6.02-13.58 0-24.71 5.57-33.41 16.82-8.57 11.24-12.91 24.04-12.91 38.52 0 14.14 4.34 27.94 13.03 41.52 13.25-8.35 28.51-20.7 45.77-37.18 17.26-16.37 28.84-26.94 34.74-31.51-2.78-4.34-6.01-7.9-9.69-10.91-3.78-2.89-9.24-6.68-16.7-11.24z"/><path d="m1529.46 642.93c5.79-6.46 15.59-14.48 29.29-24.16 13.8-9.69 21.93-15.48 24.38-17.37 1.24 2.22 1.79 5.12 1.79 8.46 0 2.78.11 5.57.22 8.24.12 2.78 1.34 4.9 3.46 6.46 9.57-5.46 20.82-10.36 33.95-14.7 13.04-4.34 25.95-6.46 38.53-6.46 9.25 0 17.6 1.45 24.95 4.34 7.46 2.9 13.92 7.57 19.38 14.03 5.57 6.46 9.36 13.47 11.36 20.93 2 7.57 3.01 16.03 3.01 25.61 0 5.23-.67 15.03-2.01 29.61-1.22 14.59-1.89 24.16-1.89 28.84 0 5.45.11 10.58.45 15.14.33 4.57 1 9.02 2.11 13.36s3.12 7.68 6.01 10.13c2.9 2.45 7.68 3.68 14.14 3.68 2.23 0 4.79-.23 7.92-.67.66 4.23-.67 6.9-3.69 7.79-4.67.34-10.69 1.56-18.26 3.68-7.57 2.11-16.36 3.22-26.61 3.22-3.34 0-6.02-.22-7.8-.55-1.22-6.68-2-11.58-2.11-14.7-.11-3-.23-5.45-.23-7.35 0-7.01 1.01-20.15 3.01-39.07 2-19.04 3.01-31.96 3.01-38.75 0-14.36-2.12-26.61-6.24-36.63-4.12-9.91-10.91-17.81-20.26-23.49-9.36-5.68-19.16-8.46-29.29-8.46-13.81 0-25.06 4.34-33.86 12.91-8.79 8.69-14.8 19.71-18.14 33.07-3.47 13.36-5.14 28.72-5.14 45.98 0 11.36.12 19.15.45 23.38.33 4.12 1.45 17.15 3.57 39.08 0 3.67 3.68 6.35 10.91 8.02 7.24 1.67 11.14 3.67 11.8 5.78-6.79.67-13.36 1.23-19.7 1.9-6.36.55-12.37.89-18.27.89-8.02 0-13.81-.22-17.37-.67s-8.24-1.45-14.15-3.01c6.58-6.79 11.15-15.25 13.59-25.27 2.57-10.02 3.79-22.27 3.79-36.74 0-9.91-.56-23.38-1.56-40.3s-1.45-27.5-1.45-31.51c0-4.34-1.22-6.46-3.67-6.46-1.22 0-3.67.78-7.14 2.34-3.56 1.56-5.9 2.23-7.12 2.23-1.89 0-3.56-.89-5.12-2.78z"/><path d="m1857.52 326.18v6.24c-.89.33-2.78.44-5.68.44h-8.35c-5.34 0-8.01 1.67-8.01 5.12 2.34 18.48 4.01 37.75 5.12 57.79s1.78 40.63 1.78 61.9c0 25.6-.67 51.32-1.78 77.04s-2.23 53.66-3.45 83.94c-1.12 30.18-1.67 54.34-1.67 72.59 1.22 2.45 3.23 3.68 6.01 3.68 1.89 0 3.67-1.12 5.57-3.23 20.94-15.92 40.09-31.84 57.45-47.65 17.49-15.81 34.64-32.96 51.57-51.44l27.28 4.68c-10.8 18.7-26.83 34.73-48.22 48.09-21.37 13.36-39.09 24.39-52.89 32.96-.89.89-1.34 2-1.34 3.23 0 1.22.45 2 1.34 2.34 21.26 16.92 43.87 34.84 67.82 53.77 24.05 19.04 44.77 32.4 62.36 40.08-10.8 4.9-21.6 7.35-32.3 7.35-19.15 0-43.1-13.14-71.93-39.41-28.96-26.28-47.12-41.42-54.46-45.43-3.9-1.56-8.13.78-12.7 7.02-4.67 6.12-6.45 12.35-5.56 18.48.55 9.35 1.33 18.37 2.22 27.39 1.9 9.01 5.13 14.69 9.91 17.14 4.68 2.45 8.35 4.12 10.91 4.9s4.46 1.67 5.68 2.56c-.55 1.56-1.33 3.01-2.22 4.56-.9 1.56-2.34 2.45-4.46 2.79h-72.27c.56-.67 5.35-4.12 14.15-10.58 8.9-6.57 13.36-12.8 13.36-19.04v-54.88c0-61.35-.23-109.78-.67-145.41-.45-35.51-1.56-70.69-3.23-105.32-1.67-34.62-4.57-72.47-8.46-113.45-.67-2.11-4.01-3.56-10.13-4.34-6.14-.78-12.93-1.78-20.28-3 1.9-1.45 9.24-2.23 22.39-2.45 13.03-.34 22.71-.45 29.17-.45h20.05z"/><path d="m2069.33 574.34c2.68-2.45 6.13-10.02 10.36-22.71 4.12-12.69 9.91-19.04 17.25-19.04 3.34 0 7.35.89 11.92 2.79 0 7.12-1.78 14.69-5.24 22.93-3.56 8.24-8.57 14.81-15.03 19.71-1.22-.34-4.12-.67-8.68-.89-4.68-.34-8.13-1.23-10.58-2.79zm22.94 28.39c.33 28.17.78 56.34 1.45 84.62.55 28.28 1.33 47.65 2.33 58.22.89 10.47 3.23 16.59 7.13 18.26 3.78 1.67 8.47 2.56 14.04 2.56 6.12 0 11.02-.44 14.69-1.33v4.23c-8.57 5.12-18.59 8.91-30.18 11.58-11.47 2.67-22.82 4.01-33.85 4.12-1.79-7.69-3.12-15.48-3.9-23.27-.78-7.8-1.11-17.15-1.11-27.84 0-5.56.11-14.02.44-25.6.34-11.47.45-19.93.45-25.5v-6.01c0-15.03-.78-26.39-2.34-33.96-1.56-7.68-4.23-11.57-8.24-11.57-1.89 0-4.68.44-8.57 1.22-3.79.67-6.01 1.11-6.68 1.11-4.01 0-6.91-1.44-8.69-4.12 9.47-3.45 19.04-6.79 28.5-10.13 9.8-4.34 18.94-9.79 27.18-16.59z"/></g></g></svg>