<svg clip-rule="evenodd" fill-rule="evenodd" height="128.5mm" image-rendering="optimizeQuality" shape-rendering="geometricPrecision" text-rendering="geometricPrecision" viewBox="0 0 3048 12850" width="30.48mm" xmlns="http://www.w3.org/2000/svg" xmlns:xlink="http://www.w3.org/1999/xlink"><linearGradient id="a" gradientUnits="userSpaceOnUse" x1="1524" x2="1524" y1="11827.54" y2="12212.58"><stop offset="0" stop-color="#620000"/><stop offset="1" stop-color="#f00"/></linearGradient><path d="m1524 11827.55c23.19 128.34 92.76 192.51 92.76 256.68s-23.18 128.34-92.76 128.34-92.77-64.17-92.77-128.34 69.58-128.34 92.77-256.68z" fill="url(#a)"/><g fill="none" stroke="#dddad6" stroke-linecap="round" stroke-miterlimit="22.9256" stroke-width="33.87"><path d="m1031.34 3595.63h992.21"/><path d="m1049.39 9354.45h992.21"/><path d="m1049.39 6475.04h992.21"/></g><path d="m1638.08 10666.34v-186.18h-139.68l-116.4 186.18v88.44h135.03v51.2h121.05v-51.2h27.93v-88.44zm-148.99 0 27.94-60.51v60.51z" fill="#dddad6" fill-rule="nonzero"/><g fill="#001f32"><path d="m516.71 9945.17 326.84-205.62c1.38-.83 2.06-2.21 2.06-4.14 0-1.38-.96-2.34-2.89-2.9l-146.46-36.81 143.15-155.98c.82-.83 1.24-1.8 1.24-2.89 0-1.39-.48-2.35-1.45-2.91-.96-.55-1.86-.82-2.68-.82-.84 0-1.52.14-2.07.41l-326.43 199.42c-1.11.28-1.66 1.38-1.66 3.31s.83 3.17 2.49 3.72l146.04 43.03-143.56 156.38c-.55.29-.83 1.11-.83 2.49 0 2.76 1.38 4.14 4.14 4.14.82 0 1.52-.28 2.07-.83z"/><path d="m2290.95 9865.26h287.5v-65.86h-287.5v-45.59l-125.4 78.51 125.4 78.53z"/><path d="m2578.45 9646.78-125.38-78.53v45.59h-287.52v65.86h287.52v45.61z"/></g><path d="m1641.56 7757.33v-97.74h-228.13v97.74h107.09l-55.88 37.24v60.51h39.57c16.31 0 25.61 9.31 25.61 20.95 0 11.63-9.3 20.94-25.61 20.94-39.57 0-67.5-25.6-67.5-25.6l-44.24 69.82s41.92 51.2 130.37 51.2c81.48 0 132.69-51.2 132.69-102.4 0-76.8-79.15-90.76-79.15-90.76z" fill="#dddad6" fill-rule="nonzero"/><g fill="#001f32"><path d="m516.71 7128.09 326.84-205.62c1.38-.83 2.06-2.21 2.06-4.14 0-1.38-.96-2.34-2.89-2.9l-146.46-36.81 143.15-155.98c.82-.83 1.24-1.8 1.24-2.89 0-1.39-.48-2.35-1.45-2.91-.96-.55-1.86-.82-2.68-.82-.84 0-1.52.14-2.07.41l-326.43 199.42c-1.11.28-1.66 1.38-1.66 3.31s.83 3.17 2.49 3.72l146.04 43.03-143.56 156.38c-.55.29-.83 1.11-.83 2.49 0 2.76 1.38 4.14 4.14 4.14.82 0 1.52-.28 2.07-.83z"/><path d="m2290.95 7048.18h287.5v-65.86h-287.5v-45.59l-125.4 78.51 125.4 78.53z"/><path d="m2578.45 6829.7-125.38-78.53v45.59h-287.52v65.86h287.52v45.61z"/></g><path d="m1655.52 4884.89c0-53.52-51.21-104.72-132.68-104.72-88.46 0-130.36 51.2-130.36 51.2l44.23 69.82s27.92-25.6 67.5-25.6c16.3 0 25.61 9.3 25.61 23.27 0 41.89-130.36 121.02-130.36 121.02v93.09h251.41v-102.4h-93.11s97.76-46.55 97.76-125.68z" fill="#dddad6" fill-rule="nonzero"/><g fill="#001f32"><path d="m516.71 4248.67 326.84-205.62c1.38-.83 2.06-2.21 2.06-4.14 0-1.38-.96-2.34-2.89-2.9l-146.46-36.81 143.15-155.98c.82-.83 1.24-1.8 1.24-2.89 0-1.39-.48-2.35-1.45-2.91-.96-.55-1.86-.82-2.68-.82-.84 0-1.52.14-2.07.41l-326.43 199.42c-1.11.28-1.66 1.38-1.66 3.31s.83 3.17 2.49 3.72l146.04 43.03-143.56 156.38c-.55.29-.83 1.11-.83 2.49 0 2.76 1.38 4.14 4.14 4.14.82 0 1.52-.28 2.07-.83z"/><path d="m2290.95 4168.76h287.5v-65.86h-287.5v-45.59l-125.4 78.51 125.4 78.53z"/><path d="m2578.45 3950.28-125.38-78.54v45.6h-287.52v65.86h287.52v45.61z"/></g><path d="m1507.7 1905.37-79.15 32.58v102.4l69.84-23.27v214.11h121.05v-325.82z" fill="#dddad6" fill-rule="nonzero"/><g fill="#001f32"><path d="m516.71 1370.38 326.84-205.62c1.38-.83 2.06-2.21 2.06-4.14 0-1.38-.96-2.34-2.89-2.9l-146.46-36.81 143.15-155.98c.82-.83 1.24-1.8 1.24-2.89 0-1.39-.48-2.35-1.45-2.91-.96-.55-1.86-.82-2.68-.82-.84 0-1.52.14-2.07.41l-326.43 199.42c-1.11.28-1.66 1.38-1.66 3.31s.83 3.17 2.49 3.72l146.04 43.03-143.56 156.38c-.55.29-.83 1.11-.83 2.49 0 2.76 1.38 4.14 4.14 4.14.82 0 1.52-.28 2.07-.83z"/><path d="m2290.95 1290.47h287.5v-65.86h-287.5v-45.59l-125.4 78.51 125.4 78.53z"/><path d="m2578.45 1071.99-125.38-78.54v45.6h-287.52v65.86h287.52v45.61z"/></g></svg>