<svg clip-rule="evenodd" fill-rule="evenodd" height="128.5mm" image-rendering="optimizeQuality" shape-rendering="geometricPrecision" text-rendering="geometricPrecision" viewBox="0 0 3048 12850" width="30.48mm" xmlns="http://www.w3.org/2000/svg"><g fill-rule="nonzero"><g fill="#333"><path d="m920.66 337.25c23.06-2.45 43.55-4.45 61.36-5.9 17.83-1.44 36.42-2.11 55.8-2.11 49.1 0 92.53 6.34 130.17 19.15 37.64 12.69 67.59 33.39 89.64 62.12 22.17 28.72 37.98 54.77 47.33 78.26 9.36 23.49 14.03 47.64 14.03 72.58 0 13.47-1.22 26.5-3.67 39.08-2.46 12.58-9.36 32.61-20.49 60.11-11.25 27.5-28.96 53.33-53.01 77.37-24.16 24.16-50 38.97-77.51 44.42-27.49 5.57-48.99 9.02-64.47 10.35-15.59 1.45-31.73 2.12-48.66 2.12-13.47 0-36.75-.89-69.6-2.56-32.85-1.78-54.67-2.67-65.48-2.67 2.12-6.13 8.47-9.58 18.82-10.58 10.36-.89 16.81-3.67 19.26-8.24 0-34.4.45-78.04 1.34-131.14.89-52.99 1.34-83.6 1.34-91.51 0-39.63-.45-73.25-1.34-100.97-1-27.83-3.12-58.67-6.57-92.73-1.56-5.57-5.34-8.91-11.35-10.13-6.02-1.23-11.58-2.45-16.94-3.68zm78.96 9.36c0 38.96-1.11 84.49-3.34 136.37-2.12 51.99-4.24 103.86-6.35 155.74-2 51.99-3.01 97.75-3.01 137.38 14.15 1.56 28.51 2.89 43.22 4.12 14.58 1.22 28.61 1.89 42.2 1.89 37.86 0 70.82-4.9 98.76-14.7 28.07-9.9 49.79-25.6 65.15-47.09 15.37-21.48 26.06-42.41 31.85-62.9 5.9-20.37 8.79-41.96 8.79-64.68 0-20.92-2.11-41.52-6.23-61.78s-12.47-45.53-24.94-75.81c-12.48-30.28-36.97-57-73.83-80.05-36.75-23.04-77.06-34.51-121.05-34.51-17.81 0-34.96 2.01-51.22 6.02z"/><path d="m1405.85 616.23c8.02-5.23 16.6-7.79 25.84-7.79 9.8 0 19.37 2.34 28.73 6.9 9.35 4.68 20.48 11.36 33.41 20.26-9.81 11.47-28.96 29.17-57.47 53.33-28.39 24.16-45.54 39.3-51.44 45.42 6.46 9.8 14.36 17.92 23.6 24.16 9.13 6.34 17.38 9.91 24.62 10.91 7.23.89 12.69 1.33 16.47 1.33 8.25 0 15.26-1.11 20.94-3.45 5.68-2.22 18.93-9.79 39.53-22.6-6.46 8.24-12.02 14.81-16.59 19.6-4.68 4.78-9.58 7.9-14.81 9.68-5.23 1.67-14.47 5.12-27.84 10.36-13.36 5.23-23.38 7.79-30.17 7.79-4.35 0-7.47-.22-9.47-.67-2.01-.45-7.91-3.01-17.71-7.46-9.91-4.45-20.04-13.69-30.62-27.61-10.69-14.02-16.37-25.6-17.38-34.84-.89-9.24-1.33-15.7-1.33-19.37 0-17.93 5.35-33.4 15.93-46.43 10.57-13.13 25.83-26.27 45.76-39.52zm28.18 16.26c-6.13-4.01-13.14-6.01-20.83-6.01-13.58 0-24.72 5.56-33.41 16.81-8.57 11.24-12.91 24.04-12.91 38.51 0 14.14 4.34 27.95 13.02 41.53 13.26-8.35 28.51-20.71 45.78-37.18 17.25-16.37 28.83-26.94 34.74-31.51-2.78-4.34-6.02-7.9-9.69-10.91-3.79-2.89-9.24-6.68-16.7-11.24z"/><path d="m1529.47 649.97c5.79-6.46 15.58-14.48 29.28-24.16 13.81-9.69 21.94-15.48 24.39-17.37 1.22 2.23 1.78 5.12 1.78 8.46 0 2.79.11 5.57.22 8.24.11 2.78 1.34 4.9 3.45 6.46 9.58-5.46 20.83-10.36 33.96-14.7 13.04-4.34 25.95-6.45 38.53-6.45 9.25 0 17.6 1.44 24.95 4.34 7.46 2.89 13.92 7.57 19.38 14.02 5.57 6.46 9.35 13.47 11.36 20.93 2 7.57 3 16.03 3 25.61 0 5.23-.67 15.03-2 29.61-1.23 14.58-1.89 24.16-1.89 28.83 0 5.46.11 10.58.44 15.14.33 4.57 1 9.02 2.12 13.36 1.11 4.34 3.11 7.68 6.01 10.13 2.89 2.45 7.68 3.68 14.15 3.68 2.22 0 4.78-.23 7.9-.67.67 4.23-.67 6.9-3.67 7.79-4.69.34-10.7 1.56-18.27 3.68-7.57 2.11-16.37 3.22-26.62 3.22-3.34 0-6.01-.22-7.79-.55-1.23-6.68-2-11.58-2.12-14.7-.11-3-.22-5.45-.22-7.34 0-7.02 1-20.15 3.01-39.08 2-19.04 3-31.95 3-38.74 0-14.36-2.11-26.61-6.23-36.63-4.12-9.9-10.91-17.81-20.27-23.49-9.35-5.67-19.15-8.46-29.28-8.46-13.82 0-25.06 4.34-33.85 12.92-8.81 8.68-14.82 19.7-18.16 33.06-3.45 13.36-5.12 28.72-5.12 45.98 0 11.35.11 19.15.44 23.38.34 4.11 1.45 17.14 3.57 39.07 0 3.67 3.67 6.35 10.91 8.02s11.14 3.67 11.81 5.78c-6.79.67-13.37 1.23-19.72 1.9-6.34.55-12.35.89-18.25.89-8.02 0-13.82-.22-17.38-.67s-8.24-1.45-14.14-3.01c6.57-6.79 11.13-15.25 13.58-25.27 2.56-10.02 3.79-22.26 3.79-36.73 0-9.91-.56-23.38-1.56-40.3s-1.45-27.5-1.45-31.51c0-4.34-1.22-6.46-3.67-6.46-1.23 0-3.68.78-7.13 2.34-3.56 1.56-5.9 2.23-7.12 2.23-1.89 0-3.56-.89-5.12-2.78z"/><path d="m1857.52 333.25v6.23c-.89.33-2.78.45-5.67.45h-8.36c-5.35 0-8.02 1.67-8.02 5.12 2.34 18.48 4.01 37.74 5.12 57.77 1.12 20.04 1.78 40.64 1.78 61.9 0 25.61-.66 51.32-1.78 77.04-1.11 25.71-2.22 53.66-3.45 83.94-1.11 30.17-1.67 54.32-1.67 72.58 1.23 2.45 3.23 3.67 6.01 3.67 1.9 0 3.69-1.11 5.58-3.22 20.93-15.92 40.09-31.84 57.45-47.65 17.49-15.81 34.64-32.95 51.57-51.43l27.27 4.67c-10.8 18.71-26.83 34.74-48.21 48.1-21.39 13.35-39.09 24.38-52.89 32.95-.89.89-1.34 2-1.34 3.23 0 1.22.45 2 1.34 2.33 21.26 16.92 43.87 34.85 67.81 53.77 24.05 19.04 44.77 32.4 62.36 40.08-10.8 4.9-21.6 7.35-32.3 7.35-19.14 0-43.09-13.14-71.93-39.41-28.96-26.27-47.1-41.41-54.45-45.42-3.9-1.56-8.13.78-12.7 7.01-4.68 6.12-6.46 12.36-5.57 18.48.56 9.35 1.34 18.37 2.23 27.39 1.89 9.01 5.12 14.69 9.92 17.14 4.67 2.45 8.35 4.12 10.91 4.9s4.45 1.67 5.67 2.56c-.55 1.56-1.33 3.01-2.22 4.56-.89 1.56-2.34 2.45-4.46 2.79h-72.27c.56-.67 5.35-4.12 14.14-10.58 8.91-6.57 13.37-12.8 13.37-19.03v-54.89c0-61.34-.22-109.76-.67-145.39-.44-35.51-1.55-70.69-3.23-105.31-1.67-34.62-4.57-72.47-8.47-113.44-.66-2.12-4-3.56-10.13-4.34-6.12-.78-12.91-1.78-20.27-3.01 1.9-1.45 9.25-2.23 22.39-2.45 13.02-.33 22.72-.44 29.18-.44h20.04z"/><path d="m2069.32 581.39c2.67-2.45 6.12-10.02 10.35-22.71 4.12-12.69 9.91-19.04 17.27-19.04 3.34 0 7.35.89 11.91 2.79 0 7.12-1.78 14.69-5.23 22.93-3.56 8.24-8.57 14.81-15.04 19.7-1.23-.33-4.12-.66-8.68-.89-4.68-.33-8.13-1.22-10.58-2.78zm22.93 28.39c.34 28.16.79 56.33 1.46 84.6.56 28.28 1.34 47.65 2.34 58.23.89 10.46 3.23 16.58 7.12 18.25 3.79 1.67 8.46 2.57 14.03 2.57 6.12 0 11.02-.45 14.7-1.34v4.23c-8.58 5.12-18.6 8.91-30.17 11.58-11.48 2.67-22.84 4.01-33.86 4.12-1.78-7.68-3.11-15.48-3.89-23.27s-1.12-17.14-1.12-27.83c0-5.57.11-14.03.45-25.61.33-11.46.44-19.92.44-25.49v-6.01c0-15.03-.78-26.39-2.33-33.96-1.56-7.68-4.24-11.57-8.25-11.57-1.89 0-4.68.44-8.57 1.22-3.79.67-6.02 1.11-6.68 1.11-4.01 0-6.91-1.44-8.69-4.11 9.47-3.46 19.04-6.8 28.51-10.13 9.8-4.35 18.93-9.8 27.17-16.59z"/></g><g fill="#7700a6"><path d="m920.67 330.21c23.05-2.45 43.54-4.45 61.35-5.9 17.83-1.44 36.42-2.11 55.8-2.11 49.1 0 92.54 6.34 130.18 19.15 37.64 12.69 67.59 33.39 89.63 62.12 22.17 28.72 37.98 54.77 47.33 78.26 9.36 23.49 14.03 47.64 14.03 72.58 0 13.47-1.22 26.5-3.67 39.08s-9.35 32.61-20.49 60.11c-11.25 27.5-28.96 53.33-53 77.37-24.17 24.16-50.01 38.97-77.51 44.42-27.5 5.57-49 9.02-64.47 10.35-15.6 1.45-31.74 2.12-48.67 2.12-13.47 0-36.75-.89-69.6-2.56-32.85-1.78-54.67-2.67-65.47-2.67 2.12-6.13 8.46-9.58 18.81-10.58 10.36-.89 16.82-3.67 19.27-8.24 0-34.4.45-78.04 1.34-131.14.89-52.99 1.34-83.6 1.34-91.51 0-39.63-.45-73.25-1.34-100.97-1-27.83-3.12-58.67-6.58-92.73-1.56-5.57-5.34-8.91-11.35-10.13-6.02-1.23-11.58-2.45-16.93-3.68zm78.95 9.36c0 38.96-1.11 84.49-3.34 136.37-2.11 51.99-4.23 103.86-6.34 155.74-2 51.99-3.01 97.75-3.01 137.38 14.14 1.56 28.5 2.89 43.21 4.12 14.58 1.22 28.62 1.89 42.2 1.89 37.86 0 70.82-4.9 98.77-14.7 28.07-9.9 49.78-25.6 65.15-47.09 15.36-21.48 26.05-42.41 31.84-62.9 5.91-20.37 8.8-41.96 8.8-64.68 0-20.92-2.11-41.52-6.23-61.78-4.13-20.26-12.48-45.53-24.95-75.81-12.48-30.28-36.97-57-73.83-80.05-36.74-23.04-77.05-34.51-121.05-34.51-17.81 0-34.96 2.01-51.22 6.02z"/><path d="m1405.85 609.19c8.03-5.23 16.6-7.79 25.84-7.79 9.8 0 19.38 2.34 28.73 6.9 9.35 4.68 20.48 11.36 33.41 20.26-9.8 11.47-28.96 29.17-57.47 53.33-28.39 24.16-45.54 39.3-51.44 45.42 6.46 9.8 14.36 17.92 23.6 24.16 9.14 6.34 17.38 9.91 24.62 10.91 7.23.89 12.69 1.33 16.48 1.33 8.24 0 15.25-1.11 20.93-3.45 5.68-2.22 18.94-9.79 39.53-22.6-6.46 8.24-12.02 14.81-16.59 19.6-4.67 4.78-9.57 7.9-14.81 9.68-5.23 1.67-14.47 5.12-27.83 10.36-13.37 5.23-23.39 7.79-30.18 7.79-4.34 0-7.46-.22-9.47-.67s-7.91-3.01-17.71-7.46c-9.9-4.45-20.04-13.69-30.62-27.61-10.69-14.02-16.36-25.6-17.37-34.84-.89-9.24-1.33-15.7-1.33-19.37 0-17.93 5.34-33.4 15.92-46.43 10.57-13.13 25.83-26.27 45.76-39.52zm28.18 16.26c-6.13-4.01-13.14-6.01-20.82-6.01-13.59 0-24.73 5.56-33.41 16.81-8.58 11.24-12.92 24.04-12.92 38.51 0 14.14 4.34 27.95 13.03 41.53 13.25-8.35 28.5-20.71 45.77-37.18 17.25-16.37 28.84-26.94 34.74-31.51-2.78-4.34-6.01-7.9-9.68-10.91-3.8-2.89-9.25-6.68-16.71-11.24z"/><path d="m1529.47 642.93c5.79-6.46 15.58-14.48 29.29-24.16 13.8-9.69 21.93-15.48 24.38-17.37 1.22 2.23 1.78 5.12 1.78 8.46 0 2.79.11 5.57.22 8.24.11 2.78 1.34 4.9 3.45 6.46 9.58-5.46 20.83-10.36 33.96-14.7 13.04-4.34 25.95-6.45 38.54-6.45 9.24 0 17.59 1.44 24.94 4.34 7.46 2.89 13.93 7.57 19.38 14.02 5.57 6.46 9.35 13.47 11.36 20.93 2 7.57 3 16.03 3 25.61 0 5.23-.67 15.03-2 29.61-1.23 14.58-1.89 24.16-1.89 28.83 0 5.46.11 10.58.44 15.14.33 4.57 1 9.02 2.12 13.36 1.11 4.34 3.11 7.68 6.01 10.13 2.89 2.45 7.69 3.68 14.15 3.68 2.22 0 4.78-.23 7.9-.67.67 4.23-.67 6.9-3.67 7.79-4.68.34-10.69 1.56-18.27 3.68-7.57 2.11-16.37 3.22-26.61 3.22-3.35 0-6.02-.22-7.8-.55-1.23-6.68-2-11.58-2.12-14.7-.11-3-.22-5.45-.22-7.34 0-7.02 1-20.15 3.01-39.08 2-19.04 3-31.95 3-38.74 0-14.36-2.11-26.61-6.23-36.63-4.12-9.9-10.91-17.81-20.26-23.49-9.36-5.67-19.16-8.46-29.29-8.46-13.81 0-25.06 4.34-33.85 12.92-8.8 8.68-14.81 19.7-18.16 33.06-3.45 13.36-5.12 28.72-5.12 45.98 0 11.35.11 19.15.44 23.38.34 4.11 1.45 17.14 3.57 39.07 0 3.67 3.67 6.35 10.92 8.02 7.23 1.67 11.13 3.67 11.8 5.78-6.79.67-13.36 1.23-19.72 1.9-6.34.55-12.35.89-18.25.89-8.02 0-13.81-.22-17.38-.67-3.56-.45-8.24-1.45-14.14-3.01 6.57-6.79 11.13-15.25 13.58-25.27 2.57-10.02 3.8-22.26 3.8-36.73 0-9.91-.56-23.38-1.56-40.3-1.01-16.92-1.46-27.5-1.46-31.51 0-4.34-1.22-6.46-3.67-6.46-1.23 0-3.68.78-7.13 2.34-3.56 1.56-5.9 2.23-7.12 2.23-1.89 0-3.56-.89-5.12-2.78z"/><path d="m1857.52 326.21v6.23c-.89.33-2.78.45-5.67.45h-8.35c-5.35 0-8.03 1.67-8.03 5.12 2.35 18.48 4.02 37.74 5.13 57.77 1.12 20.04 1.78 40.64 1.78 61.9 0 25.61-.66 51.32-1.78 77.04-1.11 25.71-2.22 53.66-3.45 83.94-1.12 30.17-1.68 54.32-1.68 72.58 1.23 2.45 3.24 3.67 6.02 3.67 1.9 0 3.68-1.11 5.57-3.22 20.93-15.92 40.09-31.84 57.45-47.65 17.49-15.81 34.64-32.95 51.57-51.43l27.28 4.67c-10.81 18.71-26.84 34.74-48.22 48.1-21.38 13.35-39.09 24.38-52.89 32.95-.89.89-1.34 2-1.34 3.23 0 1.22.45 2 1.34 2.33 21.26 16.92 43.87 34.85 67.82 53.77 24.04 19.04 44.76 32.4 62.35 40.08-10.8 4.9-21.6 7.35-32.29 7.35-19.15 0-43.1-13.14-71.93-39.41-28.96-26.27-47.11-41.41-54.46-45.42-3.9-1.56-8.13.78-12.69 7.01-4.69 6.12-6.47 12.36-5.58 18.48.56 9.35 1.35 18.37 2.24 27.39 1.89 9.01 5.12 14.69 9.91 17.14 4.67 2.45 8.35 4.12 10.91 4.9s4.45 1.67 5.67 2.56c-.55 1.56-1.33 3.01-2.22 4.56-.89 1.56-2.34 2.45-4.46 2.79h-72.27c.56-.67 5.35-4.12 14.14-10.58 8.92-6.57 13.37-12.8 13.37-19.03v-54.89c0-61.34-.22-109.76-.67-145.39-.44-35.51-1.55-70.69-3.22-105.31s-4.57-72.47-8.48-113.44c-.66-2.12-4-3.56-10.13-4.34-6.12-.78-12.91-1.78-20.26-3.01 1.9-1.45 9.24-2.23 22.38-2.45 13.03-.33 22.72-.44 29.18-.44h20.05z"/><path d="m2069.32 574.35c2.67-2.45 6.12-10.02 10.35-22.71 4.12-12.69 9.92-19.04 17.27-19.04 3.34 0 7.35.89 11.91 2.79 0 7.12-1.78 14.69-5.23 22.93-3.56 8.24-8.57 14.81-15.03 19.7-1.23-.33-4.13-.66-8.69-.89-4.68-.33-8.13-1.22-10.58-2.78zm22.94 28.39c.34 28.16.78 56.33 1.45 84.6.56 28.28 1.34 47.65 2.34 58.23.89 10.46 3.23 16.58 7.12 18.25 3.79 1.67 8.46 2.57 14.03 2.57 6.13 0 11.03-.45 14.7-1.34v4.23c-8.57 5.12-18.6 8.91-30.17 11.58-11.47 2.67-22.84 4.01-33.86 4.12-1.78-7.68-3.11-15.48-3.89-23.27s-1.12-17.14-1.12-27.83c0-5.57.11-14.03.45-25.61.33-11.46.44-19.92.44-25.49v-6.01c0-15.03-.78-26.39-2.33-33.96-1.56-7.68-4.23-11.57-8.24-11.57-1.89 0-4.69.44-8.58 1.22-3.79.67-6.02 1.11-6.68 1.11-4.01 0-6.91-1.44-8.69-4.11 9.47-3.46 19.04-6.8 28.51-10.13 9.8-4.35 18.93-9.8 27.18-16.59z"/></g><path d="m1433.25 4616.34h167.53v-530.4h742.27v325.68h160.55v-451.3h-902.82v-141.9h767.87v-134.92h-1689.31v134.92h753.91v141.9h-886.54v451.3h155.9v-325.68h730.64zm290.86-60.49h553.79v-109.33h-553.79zm0-344.29v107.01h497.94v-107.01zm-409.53 0h-490.97v107.01h490.97zm-535.18 344.29h535.18v-109.33h-535.18zm130.3 700.22v-158.19h516.57v158.19zm516.57-435.02v160.52h-516.57v-160.52zm718.99 160.52h-553.78v-160.52h553.78zm-553.78 274.5v-158.19h553.78v158.19zm174.51 295.44c-146.6 0-174.51-16.29-174.51-95.38v-74.44h721.33v-686.26h-1568.31v807.22h165.2v-120.96h516.57v74.44c0 186.1 72.13 230.3 332.74 230.3h535.18c218.73 0 272.24-69.79 297.84-351.27-48.87-9.3-111.69-32.57-151.25-58.16-11.64 232.63-34.9 274.51-158.22 274.51zm742.27 1868.01v-146.56h-1449.63c27.91-67.46 53.51-137.25 76.77-209.36l-179.16-41.88c-95.4 325.68-274.57 623.45-500.27 809.55 46.53 27.92 123.32 81.42 158.23 111.66 141.93-132.6 272.23-314.05 376.94-523.41zm-221.05 328.01v-144.23h-1335.62v144.23zm-709.7 374.53c-72.13 130.27-162.88 253.56-267.58 365.23-148.93-100.04-302.5-193.09-444.44-272.18l-123.32 113.99c144.26 81.42 297.84 179.12 442.11 281.48-193.14 176.8-421.17 321.03-665.49 425.71 37.23 30.24 102.38 97.7 127.97 132.6 242-116.32 472.36-272.18 672.47-460.61 167.53 125.62 311.8 251.24 404.88 358.25l137.28-130.27c-100.05-107.01-248.98-232.63-416.51-353.6 111.69-123.29 211.74-258.21 295.51-404.77zm-891.19-188.43v148.88h1330.97c13.97 635.08 62.83 1067.77 369.97 1070.09 141.94-2.32 179.17-107.01 195.46-397.79-37.23-23.26-88.42-65.14-121-100.03-4.65 195.41-16.28 328.01-62.82 328.01-174.52 0-207.09-448.98-209.42-1049.16z" fill="#282828"/></g></svg>