<svg clip-rule="evenodd" fill-rule="evenodd" height="128.5mm" image-rendering="optimizeQuality" shape-rendering="geometricPrecision" text-rendering="geometricPrecision" viewBox="0 0 4064 12850" width="40.64mm" xmlns="http://www.w3.org/2000/svg"><g fill-rule="nonzero"><g fill="#333"><path d="m153.06 555.41c37.54-3.99 70.92-7.25 99.93-9.61 29.02-2.36 59.32-3.45 90.88-3.45 79.99 0 150.72 10.34 212.03 31.19 61.3 20.68 110.1 54.4 146.01 101.19 36.09 46.78 61.85 89.21 77.08 127.47 15.24 38.27 22.86 77.62 22.86 118.23 0 21.95-2 43.16-5.99 63.65s-15.24 53.13-33.37 97.92c-18.32 44.79-47.16 86.86-86.34 126.03-39.36 39.35-81.44 63.47-126.24 72.35-44.8 9.07-79.8 14.69-105.02 16.86-25.38 2.36-51.69 3.45-79.26 3.45-21.94 0-59.85-1.45-113.36-4.17-53.51-2.9-89.06-4.35-106.65-4.35 3.45-9.98 13.78-15.6 30.66-17.23 16.86-1.45 27.38-5.98 31.37-13.42 0-56.03.72-127.11 2.17-213.61 1.45-86.31 2.18-136.18 2.18-149.05 0-64.56-.73-119.32-2.18-164.47-1.63-45.34-5.07-95.57-10.69-151.05-2.54-9.07-8.71-14.51-18.5-16.51-9.8-1.99-18.87-3.99-27.57-5.98zm128.59 15.23c0 63.47-1.81 137.63-5.44 222.14-3.44 84.68-6.89 169.18-10.33 253.68-3.27 84.68-4.9 159.21-4.9 223.77 23.03 2.53 46.43 4.71 70.37 6.71 23.76 1.99 46.62 3.08 68.74 3.08 61.68 0 115.36-7.98 160.89-23.94 45.7-16.14 81.07-41.7 106.11-76.7 25.02-35 42.44-69.09 51.87-102.46 9.61-33.18 14.32-68.36 14.32-105.35 0-34.09-3.44-67.64-10.15-100.64s-20.31-74.17-40.63-123.49c-20.31-49.32-60.21-92.84-120.26-130.38-59.85-37.53-125.51-56.21-197.15-56.21-29.03 0-56.95 3.26-83.44 9.79z"/><path d="m1005.35 997.68c12.51-2.54 23.4-3.81 32.29-3.81 18.13 0 34.1 3.63 48.43 10.88 14.32 7.26 26.84 19.41 37.54 36.09 10.7 16.86 19.22 31.37 25.22 43.34 5.98 11.97 8.88 24.3 8.88 36.81 0 10.15-6.89 28.83-20.68 56.39-13.6 27.75-33.74 54.4-60.03 80.15-26.12 25.93-58.41 38.81-96.32 38.81-3.63 0-5.8 0-6.89 0-24.84 0-46.97-7.44-66.38-22.12-19.23-14.87-35.19-33.37-48.07-55.49-12.69-22.31-19.04-42.43-19.04-60.57 0-14.87 6.16-33.54 18.31-55.85 12.34-22.3 30.84-43.34 55.69-63.47 24.66-19.94 55.14-33.72 91.05-41.16zm30.11 42.43c-7.61-4.35-15.24-7.61-22.85-9.79-7.8-1.99-15.78-2.9-23.76-2.9-16.51 0-32.29 4.17-47.17 12.69-15.05 8.71-28.28 19.59-39.9 33.19-11.42 13.6-17.23 28.47-17.23 44.61 0 8.88 1.09 17.04 3.09 24.11 1.99 6.89 6.89 20.49 14.87 40.62 8.17 20.13 21.77 37.18 41 51.32 19.22 13.96 42.44 21.03 69.46 21.03 19.41 0 36.28-4.53 50.6-13.6 14.34-9.06 26.67-21.57 37.18-37.71 10.53-15.96 15.79-32.64 15.79-49.69 0-15.05-3.99-30.46-11.61-46.42-7.8-15.78-16.87-28.47-27.39-37.9-10.51-9.61-24.67-19.4-42.08-29.56z"/><path d="m1154.45 551.96c12.51-1.99 30.47-3.62 54.05-5.25 23.58-1.45 54.23-2.18 92.32-2.18-1.09 4.53-8.16 7.8-21.76 9.79-13.43 2-20.14 7.98-20.14 17.95 0 69.64.18 139.45.36 209.08s.55 147.97 1.09 235.19.73 149.42.73 186.41c0 18.13 2.17 32.64 6.35 43.7 4.17 10.88 13.78 18.5 28.83 22.49 7.44.9 15.25-1.09 23.59-6.17 8.16-5.26 16.14-10.33 23.57-15.59.91 1.45 1.45 3.99 1.45 7.61 0 7.62-4.53 14.33-13.78 19.95s-17.59 10.52-24.67 14.87c-7.25 4.35-16.86 6.53-28.83 6.53-5.99 0-11.8-.55-17.24-1.45-5.44-1.09-13.24-3.09-23.21-5.99l-11.98-15.05-21.76-553.43-5.98-146.51c-2-8.53-7.62-13.79-16.69-15.78-8.89-1.99-17.78-4.17-26.3-6.17z"/><path d="m1364.67 551.96c12.51-1.99 30.48-3.62 54.05-5.25 23.58-1.45 54.24-2.18 92.33-2.18-1.09 4.53-8.17 7.8-21.77 9.79-13.42 2-20.13 7.98-20.13 17.95 0 69.64.18 139.45.36 209.08s.55 147.97 1.09 235.19.73 149.42.73 186.41c0 18.13 2.17 32.64 6.34 43.7 4.17 10.88 13.78 18.5 28.83 22.49 7.45.9 15.25-1.09 23.59-6.17 8.16-5.26 16.14-10.33 23.58-15.59.91 1.45 1.45 3.99 1.45 7.61 0 7.62-4.53 14.33-13.79 19.95-9.25 5.62-17.59 10.52-24.66 14.87-7.25 4.35-16.87 6.53-28.84 6.53-5.99 0-11.79-.55-17.23-1.45-5.45-1.09-13.25-3.09-23.22-5.99l-11.97-15.05-21.77-553.43-5.98-146.51c-2-8.53-7.62-13.79-16.68-15.78-8.9-1.99-17.79-4.17-26.31-6.17z"/><path d="m1582.33 1034.13c1.99-7.98 6.89-14.14 14.69-18.31 7.8-4.36 18.68-8.53 32.64-12.52 27.94 46.97 49.53 81.6 64.58 104.09 14.87 22.48 34.28 45.15 57.68 68.18h8.34c21.04-33.91 41.72-64.74 62.21-92.48 20.5-27.74 37.91-48.42 51.88-62.02 13.97-13.78 25.39-20.67 34.46-20.67 4.54 0 8.17.36 10.89 1.09s6.89 2.36 12.33 4.9c-34.47 39.53-65.85 82.14-94.13 127.65-28.3 45.52-56.24 96.11-83.98 151.6-27.76 55.49-54.06 108.62-78.54 159.21-4.53 7.43-11.25 13.6-20.68 18.31-9.25 4.72-18.5 8.89-28.12 12.52 1.63-8.16 6.72-18.68 15.43-31.92 8.7-13.42 15.95-28.1 21.76-44.42 5.8-16.14 18.86-48.96 38.99-97.92 20.32-49.15 31.93-77.62 35.01-85.59-21.58-14.51-47.88-44.97-79.26-91.21-31.2-46.24-56.59-76.53-76.18-90.49z"/><path d="m2170.72 1094.88c3.44-1.09 10.15-5.44 19.95-13.42 9.62-7.8 17.23-11.79 22.85-11.79.91 5.08 1.45 8.71 1.45 10.7 0 14.51-6.52 26.84-19.41 36.99-13.05 9.98-27.02 14.33-42.08 12.7-24.12-2-52.78-3.63-86.33-4.9-33.56-1.27-64.02-1.81-91.6-1.81h-23.94c9.44-11.97 21.22-20.31 35.19-24.85 13.97-4.53 30.29-6.71 48.8-6.71 13.05 0 32.27 1.09 57.85 3.45 25.4 2.18 39.72 3.26 42.81 3.26 13.41 0 25.03-1.08 34.46-3.62z"/><path d="m2819.87 548.88c25.58 0 55.86.55 90.69 1.45 34.83.91 53.51 1.27 56.05 1.27-28.48 15.05-54.42 33.55-77.99 55.31-23.4 21.76-47.35 48.23-71.65 79.42-24.13 31.01-44.8 57.85-61.85 80.51-16.87 22.49-31.92 43.52-44.98 62.75-12.88 19.4-24.66 36.99-35.19 52.95 9.98 21.21 25.76 44.78 47.16 71.08 21.58 26.47 40.45 49.68 56.59 69.99 16.32 20.31 37.91 48.78 64.94 85.41 26.84 36.63 50.6 66.91 70.73 90.67 20.32 23.75 36.64 41.16 49.15 51.86 12.52 10.88 24.13 18.31 34.83 22.67 10.7 4.17 16.87 9.79 18.32 16.86l-10.52 5.26h-158.16c-.91-4.54 3.99-11.61 14.87-21.04 11.06-9.61 16.5-17.22 16.5-22.66 0-5.62-6.71-16.14-20.31-31.74-13.42-15.59-33.56-40.98-60.4-76.16-26.66-35.18-54.05-71.26-82.17-108.25-27.92-36.99-52.23-66.73-72.72-89.4h-11.98c-16.5 24.48-44.07 60.93-82.89 109.34-38.81 48.24-69.1 89.76-90.87 124.22-21.77 34.63-37.36 71.81-46.79 111.88-10.52 1.63-24.49 2.54-41.72 3.08-17.23.55-27.03.73-29.56.73-15.96 0-32.11-.73-48.07-2.18 45.53-28.65 86.52-62.2 123.16-101 36.46-38.81 71.64-82.69 105.38-131.83 33.73-48.96 66.38-96.83 97.94-143.43-20.5-25.94-50.24-66.55-89.42-121.5-38.99-55.12-72.91-99.55-101.75-133.28-28.65-33.73-61.49-64.37-97.94-91.93-5.99-3.09-12.89-5.63-20.69-7.98-7.79-2.18-15.05-3.81-22.12-4.9v-6.71h206.77c-.9 6.53-8.16 11.79-21.41 15.78-13.41 3.99-19.94 8.7-19.94 14.32 0 2.54 4.71 12.33 14.14 29.56 9.61 17.23 24.49 40.62 44.8 69.81 20.14 29.2 39.36 55.13 57.32 77.61 18.14 22.49 45.16 54.77 81.08 96.84h10.52c41.71-49.14 76.72-95.38 105.2-138.72 28.47-43.34 53.32-89.22 74.36-137.82 1.99-5.07-1.45-9.24-10.52-12.87-8.89-3.45-13.42-6.71-13.42-9.79 0-2 1.45-4.36 4.53-7.44z"/></g><g fill="#dddad6"><path d="m153.06 543.94c37.54-3.99 70.92-7.25 99.94-9.61s59.31-3.45 90.87-3.45c79.99 0 150.73 10.34 212.03 31.19 61.31 20.68 110.1 54.4 146.01 101.19 36.1 46.78 61.85 89.21 77.09 127.47 15.23 38.27 22.85 77.62 22.85 118.23 0 21.95-2 43.16-5.99 63.65s-15.23 53.13-33.37 97.92c-18.32 44.79-47.16 86.86-86.34 126.03-39.36 39.35-81.44 63.47-126.24 72.35-44.8 9.07-79.8 14.69-105.01 16.86-25.39 2.36-51.7 3.45-79.26 3.45-21.95 0-59.86-1.45-113.36-4.17-53.52-2.9-89.06-4.35-106.66-4.35 3.45-9.98 13.78-15.6 30.66-17.23 16.86-1.45 27.39-5.98 31.38-13.42 0-56.03.72-127.11 2.17-213.61 1.45-86.31 2.18-136.18 2.18-149.05 0-64.56-.73-119.32-2.18-164.47-1.63-45.34-5.07-95.57-10.7-151.05-2.54-9.07-8.71-14.51-18.5-16.51-9.79-1.99-18.86-3.99-27.57-5.98zm128.6 15.23c0 63.47-1.82 137.63-5.45 222.14-3.44 84.68-6.89 169.18-10.33 253.68-3.27 84.68-4.9 159.21-4.9 223.77 23.04 2.53 46.43 4.71 70.38 6.71 23.75 1.99 46.61 3.08 68.73 3.08 61.68 0 115.36-7.98 160.89-23.94 45.71-16.14 81.07-41.7 106.11-76.7 25.03-35 42.44-69.09 51.87-102.46 9.62-33.18 14.33-68.36 14.33-105.35 0-34.09-3.44-67.64-10.16-100.64-6.71-33-20.31-74.17-40.63-123.49-20.31-49.32-60.21-92.84-120.26-130.38-59.85-37.53-125.51-56.21-197.14-56.21-29.03 0-56.96 3.26-83.44 9.79z"/><path d="m1005.35 986.21c12.52-2.54 23.4-3.81 32.29-3.81 18.14 0 34.1 3.63 48.43 10.88 14.33 7.26 26.84 19.41 37.54 36.09 10.71 16.86 19.23 31.37 25.22 43.34 5.98 11.97 8.88 24.3 8.88 36.81 0 10.15-6.89 28.83-20.67 56.39-13.61 27.75-33.74 54.4-60.04 80.15-26.11 25.93-58.4 38.81-96.31 38.81-3.63 0-5.8 0-6.89 0-24.85 0-46.98-7.44-66.39-22.12-19.22-14.87-35.19-33.37-48.06-55.49-12.7-22.31-19.05-42.43-19.05-60.57 0-14.87 6.16-33.54 18.32-55.85 12.33-22.3 30.84-43.34 55.68-63.47 24.67-19.94 55.15-33.72 91.05-41.16zm30.11 42.43c-7.61-4.35-15.23-7.61-22.84-9.79-7.81-1.99-15.79-2.9-23.77-2.9-16.5 0-32.29 4.17-47.16 12.69-15.06 8.71-28.29 19.59-39.9 33.19-11.42 13.6-17.24 28.47-17.24 44.61 0 8.88 1.09 17.04 3.1 24.11 1.99 6.89 6.89 20.49 14.87 40.62 8.16 20.13 21.76 37.18 40.99 51.32 19.22 13.96 42.44 21.03 69.47 21.03 19.4 0 36.28-4.53 50.6-13.6 14.33-9.06 26.67-21.57 37.18-37.71 10.52-15.96 15.78-32.64 15.78-49.69 0-15.05-3.99-30.46-11.61-46.42-7.79-15.78-16.87-28.47-27.39-37.9-10.51-9.61-24.66-19.4-42.08-29.56z"/><path d="m1154.45 540.49c12.51-1.99 30.48-3.62 54.05-5.25 23.58-1.45 54.24-2.18 92.33-2.18-1.09 4.53-8.16 7.8-21.77 9.79-13.42 2-20.13 7.98-20.13 17.95 0 69.64.18 139.45.36 209.08s.55 147.97 1.09 235.19.73 149.42.73 186.41c0 18.13 2.17 32.64 6.34 43.7 4.17 10.88 13.78 18.5 28.84 22.49 7.44.9 15.24-1.09 23.58-6.17 8.16-5.26 16.15-10.33 23.58-15.59.91 1.45 1.45 3.99 1.45 7.61 0 7.62-4.53 14.33-13.79 19.95-9.25 5.62-17.59 10.52-24.66 14.87-7.25 4.35-16.87 6.53-28.84 6.53-5.99 0-11.79-.55-17.23-1.45-5.44-1.09-13.25-3.09-23.22-5.99l-11.97-15.05-21.77-553.43-5.98-146.51c-2-8.53-7.62-13.79-16.68-15.78-8.89-1.99-17.79-4.17-26.31-6.17z"/><path d="m1364.67 540.49c12.52-1.99 30.48-3.62 54.06-5.25 23.57-1.45 54.23-2.18 92.32-2.18-1.09 4.53-8.16 7.8-21.77 9.79-13.42 2-20.13 7.98-20.13 17.95 0 69.64.18 139.45.36 209.08s.55 147.97 1.09 235.19.73 149.42.73 186.41c0 18.13 2.17 32.64 6.34 43.7 4.17 10.88 13.78 18.5 28.84 22.49 7.44.9 15.24-1.09 23.58-6.17 8.17-5.26 16.15-10.33 23.58-15.59.91 1.45 1.45 3.99 1.45 7.61 0 7.62-4.53 14.33-13.78 19.95-9.26 5.62-17.6 10.52-24.67 14.87-7.25 4.35-16.86 6.53-28.84 6.53-5.99 0-11.79-.55-17.23-1.45-5.44-1.09-13.24-3.09-23.22-5.99l-11.97-15.05-21.76-553.43-5.99-146.51c-2-8.53-7.62-13.79-16.68-15.78-8.89-1.99-17.78-4.17-26.31-6.17z"/><path d="m1582.34 1022.66c1.99-7.98 6.89-14.14 14.68-18.31 7.8-4.36 18.69-8.53 32.65-12.52 27.94 46.97 49.52 81.6 64.57 104.09 14.88 22.48 34.28 45.15 57.68 68.18h8.34c21.05-33.91 41.72-64.74 62.22-92.48 20.49-27.74 37.91-48.42 51.87-62.02 13.97-13.78 25.4-20.67 34.47-20.67 4.53 0 8.16.36 10.88 1.09s6.89 2.36 12.33 4.9c-34.47 39.53-65.84 82.14-94.13 127.65-28.3 45.52-56.23 96.11-83.98 151.6-27.76 55.49-54.05 108.62-78.54 159.21-4.53 7.43-11.24 13.6-20.68 18.31-9.25 4.72-18.5 8.89-28.11 12.52 1.63-8.16 6.71-18.68 15.42-31.92 8.7-13.42 15.96-28.1 21.77-44.42 5.8-16.14 18.85-48.96 38.99-97.92 20.31-49.15 31.92-77.62 35.01-85.59-21.59-14.51-47.89-44.97-79.26-91.21-31.2-46.24-56.6-76.53-76.18-90.49z"/><path d="m2170.72 1083.41c3.44-1.09 10.15-5.44 19.96-13.42 9.61-7.8 17.22-11.79 22.84-11.79.91 5.08 1.45 8.71 1.45 10.7 0 14.51-6.52 26.84-19.4 36.99-13.05 9.98-27.03 14.33-42.08 12.7-24.13-2-52.78-3.63-86.33-4.9-33.56-1.27-64.03-1.81-91.61-1.81h-23.93c9.43-11.97 21.21-20.31 35.19-24.85 13.96-4.53 30.28-6.71 48.79-6.71 13.05 0 32.28 1.09 57.85 3.45 25.4 2.18 39.72 3.26 42.81 3.26 13.42 0 25.03-1.08 34.46-3.62z"/><path d="m2819.87 537.41c25.58 0 55.87.55 90.7 1.45 34.82.91 53.5 1.27 56.04 1.27-28.48 15.05-54.41 33.55-77.99 55.31-23.4 21.76-47.34 48.23-71.65 79.42-24.12 31.01-44.8 57.85-61.84 80.51-16.88 22.49-31.93 43.52-44.98 62.75-12.89 19.4-24.67 36.99-35.19 52.95 9.97 21.21 25.75 44.78 47.15 71.08 21.58 26.47 40.45 49.68 56.59 69.99 16.33 20.31 37.91 48.78 64.94 85.41 26.85 36.63 50.6 66.91 70.74 90.67 20.31 23.75 36.64 41.16 49.15 51.86 12.51 10.88 24.12 18.31 34.83 22.67 10.69 4.17 16.86 9.79 18.31 16.86l-10.52 5.26h-158.16c-.91-4.54 3.99-11.61 14.87-21.04 11.07-9.61 16.51-17.22 16.51-22.66 0-5.62-6.71-16.14-20.32-31.74-13.42-15.59-33.56-40.98-60.39-76.16-26.67-35.18-54.06-71.26-82.17-108.25-27.93-36.99-52.24-66.73-72.73-89.4h-11.97c-16.51 24.48-44.07 60.93-82.89 109.34-38.81 48.24-69.11 89.76-90.88 124.22-21.76 34.63-37.36 71.81-46.79 111.88-10.52 1.63-24.48 2.54-41.72 3.08-17.22.55-27.03.73-29.56.73-15.96 0-32.1-.73-48.07-2.18 45.53-28.65 86.52-62.2 123.16-101 36.46-38.81 71.64-82.69 105.38-131.83 33.74-48.96 66.39-96.83 97.94-143.43-20.49-25.94-50.24-66.55-89.42-121.5-38.99-55.12-72.91-99.55-101.74-133.28-28.66-33.73-61.5-64.37-97.95-91.93-5.99-3.09-12.88-5.63-20.68-7.98-7.8-2.18-15.06-3.81-22.13-4.9v-6.71h206.77c-.9 6.53-8.16 11.79-21.4 15.78-13.42 3.99-19.95 8.7-19.95 14.32 0 2.54 4.71 12.33 14.15 29.56 9.61 17.23 24.48 40.62 44.8 69.81 20.13 29.2 39.36 55.13 57.31 77.61 18.15 22.49 45.16 54.77 81.08 96.84h10.52c41.71-49.14 76.72-95.38 105.2-138.72s53.32-89.22 74.37-137.82c1.99-5.07-1.45-9.24-10.52-12.87-8.9-3.45-13.43-6.71-13.43-9.79 0-2 1.45-4.36 4.53-7.44z"/></g></g></svg>