<svg clip-rule="evenodd" fill-rule="evenodd" height="64.5365mm" image-rendering="optimizeQuality" shape-rendering="geometricPrecision" text-rendering="geometricPrecision" viewBox="0 0 6651.09 6558.68" width="65.4458mm" xmlns="http://www.w3.org/2000/svg"><path d="m4231.94 6525.76c1396.08-394.62 2419.15-1677.82 2419.15-3200.22 0-1836.65-1488.89-3325.54-3325.54-3325.54s-3325.54 1488.89-3325.54 3325.54c0 1028.07 466.6 1947.08 1199.49 2557.1l4.71-15.58c14.12-10-14.12 10.01 7.06 0l-4.4 21.82c382.97 316.89 838.14 549.6 1337.16 669.8l22.44-111.29c0-10.01 0-10.01 0-20.02l7.06-10s0 0 0-10.01l7.05-40.02c0-20.01 0-10 0-20.01v-10.01-9.99l14.12-90.06c0-40.01 7.05 0 7.05-40.01l7.06-40.03c0-20 0-30.01 0-50.02 0-40.02 7.06 0 7.06-40.02l7.05-40.03c0-20 0-50.02 0-70.04l7.06-9.99c0-20.02 0-50.04 0-60.04v-10c7.05-20.01 7.05-50.03 7.05-70.04 0-10 0-10 0-10 14.12-40.03 0-40.03 14.12-100.06 7.06-30.01-7.05-30.01 7.06-90.04 7.06-30.02-7.06-60.03 0-90.06l7.06-30.01c0-60.04 7.05-60.04 7.05-90.05 0-20.01 0-40.01 0-50.02 7.05-40.03 7.05 0 7.05-40.03 0-30.01 0-60.03 0-90.04l7.06-10.01v-10c7.05-20.02 0-60.03 0-90.04 0-90.06 7.05-50.04 7.05-90.06 7.06-50.02-7.05-160.08 0-200.1 14.13-50.03 0-280.16 7.06-360.21 0-30.01-7.06-9.99 7.06-20 0-290.17 0-590.32 0-880.49 0-9.99 0-20 0-30.01l-28.24-50.02c-21.17-10.01-70.58-70.04-77.64-90.05-7.05-30.01 0-660.36 0-680.38h-21.17c0-30.02-7.05-20.01 0-40.02l7.05-50.03c0-10 0-10 0-20.01l14.12-100.05c7.06-20.01 0 0 7.06-10 0-20.02 0-30.03 0-40.02v-10.01h7.06v-10.01c0-10 0-10 0-10 0-20.02 7.05-10.01 7.05-40.02l7.06-30.02v-10.01l7.05-70.03v-10l35.3-190.11c0-10 0-10 0-20 0-20.02 0 0 0-20.02l35.3-210.11c0-20 0-30.01 0-40.02 14.12-60.03 0-70.03 7.05-100.06l7.06-50.02c7.05 0 14.11 20.01 14.11 30.02l7.06 50.03v10l7.06 40.02h7.05v10.01 20.01c7.06 20 0 0 7.06 10.01l21.17 100.04v10.01 10.01l7.06 10v10l21.18 120.07v10l7.05 20.01v10.01h7.05l70.59 370.2v40.03c7.06 30.01 7.06 70.04 7.06 110.05 7.05 0 7.05-10 14.11-20.01 0-10.01 0-10.01 0-20l7.06-10.01v-10.01l7.05-20.01v-10.01h7.06l21.18-90.04 28.23-80.04c0-10.01 0-10.01 0-20.02h7.05v-20h7.06v-10.01l7.05-10v-10.01l14.12-50.02 42.35-160.09h7.06l14.12-70.04v-10l7.06-20.01v-10.01l14.11-40.02v-10l21.18-60.03 28.23-110.07c0-9.99 0-9.99 0-20h7.06c0-10.01 0-10.01 0-10.01v-20.01h7.05l28.24-110.06v-10l7.05-40.02v-10.01l63.53-240.13v-10.01l28.23-100.06 14.12-40.01c0-10.01 0-10.01 0-20.02l35.29-140.07 7.06-40.02s0 0 0-10.01l14.13-70.03c0-50.03 7.05 10 7.05-120.06 0-60.04 0-110.06 0-170.09-14.12 10.01 0 10.01-14.12 20l7.06-40.01v-10.01h7.05c0-20.01 0-20.01 7.06-20.01v-10c-7.06-10.01-7.06 10-7.06-20.01-7.05 10-14.12 10-14.12 30.01s0 40.02-7.06 50.03c-7.06 40.02 7.06 50.02 7.06 70.04-14.13 9.99-14.13 9.99-14.13 60.03l7.06 30.01c0 30.02-7.06-10.01-7.06 30.02h21.19v20c-28.24 0-35.3 10.01-42.36-9.99-14.12-10.01-7.05 9.99-7.05-50.04 0-20 7.05-40.02 7.05-50.02l7.06-80.05c7.05-9.99 7.05 10.01 7.05-20l21.18-110.06c0-10 0 0 0-10 0-10.01 0 0 0-10.01l14.12-60.03c21.17 10 28.23 50.03 21.17 80.04l-7.05 10v70.04 20.01 10.01h7.05v10.01 50.02c0 40.02-7.05 120.06 7.06 160.08l42.35 250.14 42.35 150.08 35.3 150.08v10.01l7.06 10v10 10.01 10.01l14.12 50.02h7.05l7.06 50.04 7.06 20 28.22 110.05v10.01h7.06l28.23 110.07v9.99l14.12 40.03v10.01 9.99l14.12 40.03v10.01l14.12 70.03h7.05l14.13 90.05h7.05v10 10.01h7.06v20.01 10l7.06 20.01 7.05 30.02 63.53 250.14v10.01h7.05v20l28.23 90.06v10l35.3 120.06v10.01l7.06 20v10.01c7.05 30.02 28.23 110.07 35.29 120.06l7.06 20.02c14.12 20.01 0 20.01 21.17 20.01-7.05-20.01-7.05-10.01-7.05-30.02 0-30.01 7.05 10.01 7.05-30.01 0-30.02 0-70.04 0-90.05l21.18-140.08h7.06l7.05-80.03c0-20.02 0 0 0-20.02h7.05c0-10 0-10 0-20.01l21.18-120.06c0-10.01 0-10.01 0-10.01l35.3-190.1c0-20.01 7.05-50.02 7.05-80.04l14.13-40.02c0-10.01 0-10.01 0-20.01l7.05-20.01c0-10 0-10 0-10l28.23-160.09c0-20 0-40.02 0-60.03 7.06-20.02 7.06-10.01 7.06-50.03h7.06c7.05 10.01 7.05 10.01 7.05 20.02l21.17 140.06v60.04l14.13 60.03v30.01l7.05 50.03c0 30.02 0 10.01 7.05 20.01v50.03c7.06 20.01 0 0 7.06 10l7.05 50.03v20.01l70.59 480.27c0 30.01 14.11 40.01 0 60.03-21.18 30.01-14.12 40.02-14.12 140.07v80.04c0 30.02 0 10 7.05 20.01 0 40.02-7.05 0-7.05 40.02v210.11c0 40.03 7.05 0 7.05 40.03v120.06c0 50.02 0 70.04-42.35 90.04l-105.88 70.04c-14.12 10.01-7.06 10.01-28.23 10.01 0 50.02-7.05 260.14 0 290.16 7.05 30.01 0-10 7.05 30.01 7.06 60.03-7.05 400.22 0 460.26 0 20.01 7.06 30.02 7.06 50.02v170.1l7.05 30.01c7.06 60.03-14.12 230.13 7.06 290.16 14.13 60.03-14.12 160.08 0 220.11 7.06 10.01 7.06-10 7.06 20.02 0 50.02-7.06 80.04 7.06 140.07v50.02c0 30.03 7.05 30.03 7.05 90.06v70.02c0 10.01 7.05 20.02 7.05 30.02v20.02c0 40.01 0 60.03 7.06 90.04v30.02 30.01c7.05 40.03 0 0 7.05 30.02 0 30.02 0 70.04 7.06 90.05v60.03c7.06 20.01 7.06 0 7.06 60.03l7.05 20.01v60.04 9.99c7.05 20.02 7.05 40.03 7.05 60.03 7.06 20.02 0-20 7.06 0 7.05 30.02-7.06 30.02 7.05 70.04l7.06 60.03c0 30.02 7.06 60.03 7.06 90.05 7.05 30.01 0-10 7.05 20.02v30.01 10h7.06c7.05 30.03 0 70.04 7.05 100.06h7.05l7.06 80.04h7.06v10l6.77 38.36zm1348.43-2949.95c0 50.02 7.05 40.01-14.12 70.03-7.06 10.01-21.18 20.02-28.24 30.02h-7.05-7.05l7.05 50.03v10 40.02c-7.05 0-14.12-10-14.12-30.02-14.12 10.01-14.12 30.02-21.18 40.03-7.06 20.01-7.06 10.01-7.06 40.02l-28.22-120.07c0-10 0-20.01 0-30.01 0 0-7.06 0-7.06-10-7.06 0 0 0-7.06 0-7.05 20 0 0-7.05 20v20.01c-21.17 0-7.05 10.01-56.46 10.01 0-10.01 0-10.01-7.05-20.01-7.06-10.01-7.06-10.01-14.13-10.01-7.05 30.02-14.12 50.03-7.05 90.05h7.05v50.03c7.06 20.01 0 0 7.06 20.01-21.18 0-14.12 0-21.18-20.01-7.05-20.01-7.05-30.01-7.05-50.03l-14.12 20.02c-7.06 20-14.13 10-21.18 30.01h-7.06c-7.05-20.01-7.05-10.01-14.11-30.01v-10.01h-7.06l-28.24-90.05c-7.04-30.01 7.06-10.01-7.04-20.01-7.06-10 0 0-7.06-10-7.06 0-7.06 0-14.12 0-42.35-10.01-42.35-20.02-84.71-50.04-35.29-30.01-7.05-30.01-63.53-30.01-7.05-10 0-10-7.05-10h-14.12c-21.18 10 7.05 10-21.18 10-21.17 0-35.29 0-56.46 0l-21.17 10.01c-21.18 0-35.31 10.01-56.47 20-7.05 0-7.05 0-14.12 0l-21.17 10.01h-7.06l-49.41 50.03h-7.05l-35.3 50.03c-7.05 10-7.05 10-7.05 30.01 14.12-10.01 21.17-30.01 35.29-40.02h7.06 7.05 7.06l35.3-20.01c28.22-10.01 84.7-20.01 105.88-10.01l42.35 40.03h7.06c14.11 20 7.05 50.02 7.05 90.04 28.23 0 42.35 20.01 42.35 20.01 14.12 10.01 21.17 10.01 28.23 30.02l7.06 20.01v10c7.05 40.03-7.06 70.04-7.06 90.05v40.02h14.12c0-30.01 7.06-30.01 14.12-50.02l21.18-30.02c14.12-10 42.35-20.01 63.53-10l42.35 30.01c28.23 40.03 21.17 40.03 28.23 70.04l14.12 10.01c0-30.02 7.06-20.02 14.12-30.02v-10l14.12-10.01c14.12-20.01 14.12-20.01 28.23-20.01h14.12l63.53 60.03v10.01l42.35 110.05c0 20.01 0 20.01 7.06 30.02 7.05 10.01 0 10.01 14.12 10.01-7.06-20.02 0 0-7.06-20.02v-40.01s0 0-7.05 0c-7.06-30.02 7.05-50.04 7.05-80.05 0-20.01 0-10 0-20.01l14.12-30.01c7.05-20.02 21.18-50.04 42.36-60.04l28.23-10c21.18 0 14.12 10 35.29 10v-40.02l21.18-30.01c0-10.01 0-10.01 0-10.01h7.06l28.22-10c21.18-20.02 63.53-20.02 77.64 20.01 7.06 10 14.12 10 14.12 30.01h14.13v-30.01c-7.06 0-7.06 0-7.06-10.01 0-30.02-7.06-80.04-7.06-100.05l49.41-130.07c7.06-40.02-14.12-40.02 21.18-80.05l14.11-20h7.06l28.24-20.01h91.76l49.4 20.01c14.12 10.01 7.06 10.01 28.23 10.01l-91.76-80.05-28.22-10.01c-28.24 0-21.19-10-70.59-10-7.06 0-7.06 0-14.13 0l-63.52 20.01-56.46 30.01-21.18 10.01h-7.05l-35.3 20.01c-35.3 30.01-21.17 0-56.46 50.03zm-451.73-1350.74c0 10.01 0 0 7.05 10.01 7.06 10 21.17 20.01 35.3 40.01v10.01 20.01h21.18l21.17 20.02h7.06 7.05c21.17 20 42.35 50.02 56.47 90.04l21.17 40.01v10.01l7.05 90.05c7.06 0 7.06 0 7.06 10.01v20 70.04h21.18v-10.01h7.05 35.3l14.12 20.02c21.18 10 35.3 40.02 49.4 60.03l21.18 70.04c7.06 10 0-10.01 7.06 10 7.05 40.02 0 110.06 0 150.08 21.17-10 35.29-50.03 49.41-70.03 14.11-10.01 21.17-10.01 35.29-10.01 35.3-10.01 35.3-10.01 77.64 0l42.35 30.01c0 10.01 0 0 7.05 10.01 7.06 10 0 0 14.13 10 7.05-10 0 0 7.05-10 35.3-30.01 0-20.01 77.64-20.01h21.18 7.06v10l21.17 10.01h7.05l7.06 10h7.06c21.17 20.02 14.11 10.01 35.29 40.03 7.06 20.01 0 0 7.06 20.01 7.06 0 14.12-10.01 21.17-20.01 14.12-20.01 21.18-30.02 35.3-50.03l28.23-10.01v-10c14.12 0 21.18 0 28.23 10l42.35 50.03c7.05 0 14.12 20.01 21.18 20.01 0-10-14.13-20.01-21.18-30.01v-10.01l-35.3-70.04c-14.11-40.01-77.63-110.05-91.75-120.06-7.06-10-7.06 0-7.06-10-7.05 0-7.05 0-7.05-10.01l-14.12-20.01c-7.06-20.01 0 0-7.06-20.01l-35.29 10.01c-14.13 0-42.35 0-56.47 0l-28.23-10.01v-10.01c-7.05 0-7.05 0-14.12 0-7.05 0-7.05-10-21.18-10l-7.05 30.02c-7.06 0-7.06 0-7.06 0l-14.12 40.02c-21.18 0-7.05 0-14.12-10.01-14.12-10.01-7.06 10.01-14.12-10.01-21.17 0-7.05 0-14.12 10.01-7.05 0-7.05 0-14.12 10.01-7.06 10-14.12 30.02-21.18 30.02 0-10.01 0-10.01-7.05-10.01l14.12-30.02v-10.01-10-10l7.05-20.02h7.06l7.06-20.01c0-20 0-30.01 0-50.02h-77.64c0-60.03 7.05-70.04-14.12-70.04 0 30.02 0 10.01-14.12 40.03l-14.13 40.01v10.01l-14.11 20c-14.13 10.01 0 0-14.13 10.01-7.05-30.01-28.23 10.01-28.23-60.03 0-20 14.12-30.01 21.18-40.02 7.05-30.02 21.18-30.02 21.18-70.03-21.18 0-7.06 10-28.24 20.01-7.06 0-7.06 0-14.12 0 0-10.01 0 0 0-10.01l-14.12-40.03v-9.99l-21.18-40.03c-21.17-30.01-42.35-50.02-42.35-100.05 0-30.02 0-30.02-14.12-50.02l-14.11-10.01s0 0-7.06 0c-7.06-10 0 0-7.06-10-7.05 0-7.05 0-14.12 0l-35.3-20.02h-7.05c-7.06 0-21.17 0-28.23 0-28.24 0-21.18-10.01-56.46-10.01h-14.13-7.05v10.01c-21.17 0-35.3 0-56.46 0-14.12 10.01 0 0-14.12 10.01zm846.99 2511.37v110.07c-7.05 0-7.05 0-7.05 10-21.17 0-21.17 0-28.23-30.01v-10.01c-7.06-20.01-7.06-40.02-28.23-50.03 0 30.02-7.05 20.01-7.05 50.03h-56.47c0-10.01 0-10.01-7.06-10.01v-10c-7.05-10.01-7.05-10.01-14.12-10.01 0 40.03-7.06 0-7.06 40.03 14.13 10 7.06 20.01 7.06 60.03-14.11-10.01-42.35-50.03-42.35-70.04v-50.03c-21.17 0-49.41 10.01-70.58 0-21.18-10-35.3-20.01-49.41-50.02l-7.05-20.01c-35.3 0-77.64-10.01-105.88 10l-98.82 40.02-63.53 50.03c-7.05 10-7.05 0-7.05 10 35.3 0 70.58-10 98.81 10.01l77.64 40.02c14.13 10 35.3 40.02 35.3 60.03v30.02c14.12 0 14.12 0 21.18-20.02 7.05 0 7.05-10 14.11-10 7.06-20.01 42.36-10 56.46-10 14.13 0 21.18 10 28.24 20h7.05c28.24 20.02 28.24 40.03 35.3 70.04v20.01h7.06c7.05-10 0 0 7.05-10 14.12-20.02 42.36-10.01 63.53 0l42.35 50.02 14.12 40.03 7.06 50.02c7.06 10.01 7.06-10 7.06 20.02 14.11 0 14.11 9.99 14.11-20.02 0-20.01-7.05 10.01-7.05-50.02 0-30.02 0-10.01 7.05-20.01l14.12-60.04c7.06-10 0 0 7.06-10l35.29-50.03h7.06c14.12 0 21.18 0 35.29 10.01l7.06-20.01c0-10.01 0-10.01 0-10.01v-10.01l7.06-10c7.05-20.01 21.17-30.01 35.29-40.02l7.06-10.01h14.12c14.12 0 42.35-10 56.47 10.01l7.04 20.01c28.24-10 14.13-80.04 28.24-110.06 7.06-30.01 21.17-50.03 42.35-60.03l70.58-30.01c14.12 0 28.24 0 42.36 10h14.11c0-30.02-7.05-20.01-14.11-20.01l-28.24-30.02-14.12-10h-7.05v-10l-42.35-10.01c-28.24-10.01-63.53-10.01-91.77-10.01-28.22 0 0 0-28.22 10.01h-7.06l-56.47 20.01v10l-7.05 30.02c-21.17 40.02-42.35 40.02-49.4 40.02l-7.06 10h-21.18zm-4616.15-2171.18v20c14.12 10.01 0 20.02 21.18 30.02 0 40.02 0 30.01-14.13 60.03-7.05 10.01-21.17 20.02-21.17 40.02l-7.05-20c-7.06-30.02-28.24-40.03-28.24-80.05h-7.06v30.01l-21.17 60.04h-35.29l-28.24-30.02c0-10 0-10 0-10-7.05-10.01 7.06-10.01-14.12-10.01 7.06 20.01 0 0 7.06 10.01v20.01c7.05 40.02 14.12 60.03 14.12 100.05-21.18 0-7.06 0-14.12-10.01 0 0-14.12-9.99-14.12-9.99-7.06-30.02 0-20.02-14.12-40.03-21.18-50.03-28.23-20.01-63.53-30.01l-14.12-10.01c-14.12-10.01-28.23-20.01-35.3-40.03v-9.99s0 0-7.05 0c-7.05-30.02-35.3-20.02-56.46-20.02-7.06 20.02-21.18 0-42.36 20.02l-49.4 20h-14.12c-7.06 10.01 7.05 0 0 10.01-14.13 10-28.24 20.01-42.35 30.02-7.06 20-7.06 10-7.06 40.02l7.06-10.01c35.29-20.01 77.63-20.01 119.98 0l28.24 30.02c14.11 10.01 21.17 30.01 28.23 40.02l7.05 10v20.02 10l14.13 60.03c21.17-10 21.17-60.03 84.7-40.02 7.05 0 42.35 30.02 42.35 40.02h14.12l35.3-20.01h7.05v10.01l28.23 10c14.12 10 35.29 30.01 42.35 40.02 14.12 20.01 0 10.01 7.06 30.02 7.05 10 0 0 7.05 10 0 20.01 7.06 30.02 7.06 50.03v-50.03c-7.06-40.02 7.06-30.01 7.06-60.03 0-10.01 0-20.01 0-20.01 0-20.01 0-10 0-20.01l14.11-50.02c14.12-20.02 35.31-40.03 49.41-60.03 21.18-10.01 35.3-10.01 49.41-10.01 21.18 0 14.12 10.01 35.3 10.01 0-10.01-14.12-60.04-7.06-110.07 14.12-50.02 28.23-50.02 28.23-60.03 0-30.01 0-10.01-7.06-30.01l-7.05-30.02c0-20 7.05-20 14.12-40.02l7.06-10s0-10.01 7.05-10.01c0-20.02 0-20.02 7.06-30.01 14.11-10.01 7.05 0 14.11-10.01l35.31-20.01c35.29-20.02 56.45 0 70.58-20.02 0-9.99 0 0 0-9.99-21.17 0-14.13-10.01-35.3-10.01 0 0-7.05 0-14.12 0h-35.29c-14.13 0-21.19 0-35.3 0l-21.18 10.01h-7.06l-14.11 20-49.41 40.03c-35.3 20-21.18 9.99-42.35 50.02-7.05 30.01-14.12 40.02-21.18 50.03-7.06 10-7.06 20.01-14.12 20.01zm402.33 440.24-7.06 20.01v-10c0-10.01 0 0 7.06-10.01zm112.92-200.11c0 30.02 0 50.03-21.17 70.04l-7.05 10.01c-7.06 10-14.13 10-21.18 30.01l-7.05 50.03v10l-14.12 40.03v10c-28.24 0-21.18-20.01-28.24-50.03-7.05-10-7.05-10-14.11-10l-7.06 30.01c-7.06 20.02-21.18 40.03-35.3 20.02h-14.12c-7.06-10.01-7.06-20.02-14.12-20.02v100.06c-21.17 0-14.12-10.01-21.17-20.01l-14.13-40.02c-7.05-10.01 0 10-7.05-10.01-56.47 0-49.41-10-70.58-10l-70.59-20.02c-7.06 0-7.06-10-21.17 0-21.18 20.02-63.53 60.03-70.59 90.05 14.13 10.01 0 0 14.13 10.01 7.05-10.01 21.17-20.01 35.29-20.01l49.41 20.01h7.05v10l28.23 20.01c7.06 0 14.13 20.01 21.18 30.02v20c7.06 0 0-9.99 7.06 10.01 28.23 0 35.29-30.01 63.52-20l14.12 9.99c14.13 10.01 14.13 30.02 21.18 30.02h7.05c14.12-20.01 0-10 14.12-20.01 21.18 10.01-7.05 0 14.13 10.01 14.12 0 21.17 0 35.29 10l14.13 40.02h7.05l14.12 30.02c7.05 20.02-7.06 10.01 7.05 20.02 0-30.02 0-60.05 0-80.05h7.06v-10.01c0-10 0-10 0-20.01s0-10.01 7.06-10.01c7.05-20 21.17-50.02 35.29-60.03 14.12-10 28.23-20 42.35-20 0-50.03-7.06-70.04 14.12-100.06h7.06l35.3-30.01h42.35v-80.04c0-40.03 7.05 0 7.05-40.03h14.13v-10c14.11 0 14.11 10 14.11-20.01h-21.17c7.06-10.01 0-10.01 7.06-10.01 7.05-50.02 14.11-50.02 49.4-70.03l49.41-30.02h14.12 28.23v-10c-14.12 0-28.23-10.01-35.3-10.01-35.3-10.01-49.4 10.01-84.7 10.01-14.12 0-21.17 0-35.3 10zm-1552.83 270.16 56.46 30.01 21.17 30.02v60.03c21.18 0 28.24 10 42.36 20.01l35.3 10.01c7.06 9.99-7.06 0 7.06 9.99v70.04h21.17 7.05l28.23 10.01c28.24 10.01 0 0 21.18 10.01v10h-7.06c0 10.01 14.13 20.02 21.18 30.01h7.06c14.11 20.02 28.23 50.04 28.23 80.05v30.02c14.12 0 7.05 0 14.12-10.01 7.05-10.01 7.05 0 7.05-20.01 21.18 0 14.12-10.01 28.24-20.02h7.05l7.06-9.99h7.05c7.05-10.01 28.23-10.01 42.36-10.01l63.52 30.01c21.18 20.01 21.18-10.01 49.41-40.02 14.12-20.01 35.29-10 63.53 0h28.22l14.13 10.01c21.17 10.01 35.29 10.01 63.53 10.01 0-10.01 0-10.01-14.13-10.01v-10.01h-7.05l-91.76-70.03s0 0 0-10.01h-7.06s0 0-7.05 0v-10.01c-7.06 0-7.06 0-7.06 0l-35.29-30.01c-14.12-10-7.06 10.01-14.12-10h-21.18c-7.06 10 0 0-7.06 10 0 0 0 0-7.05 0v10.01l-56.47 50.02s0 0-7.04 0c0-20.01 7.04-60.03-14.13-70.03 0 0-21.18 0-28.23 0-14.12-10.01 0 0-7.05-20.02-14.12-20 0 0-14.12-10.01 0 40.03-28.24 30.03-28.24 80.05-14.12-10.01-28.23-30.01-35.3-50.02 0-30.03 0-70.04 0-100.05-21.17 0-7.05 0-14.11-10.01-21.18 0-35.3 0-49.41-10.01-14.12-10-28.23-30.02-28.23-60.03l-21.17-10s0 0-7.06 0c-42.35-10.01-98.82 10-141.17-10.01-7.05 0-7.05 0-14.12 0zm-155.29 1270.69h14.12l35.3 20.01c21.18 10.01 7.05 0 21.18 20.02l21.17 9.99c14.12 20.02 28.23 40.03 35.3 70.04v10.01h7.05v10c0 10.01-7.05 10.01 7.06 20.02l42.35 20v10.01c0 10.01 7.05 10.01 7.05 30.02h28.24c7.06 20 7.06 0 28.23 10.01l21.18 50.02c42.35 0 28.22 0 63.52 20.01l28.24 40.02v10.01l7.05 10c7.05 30.01 7.05 40.02 7.05 70.04 21.18-10.01 7.06-50.03 21.18-80.04 0-10.01 0 0 7.06-10.01l28.22-40.02c7.06-10 7.06-10 7.06-30.02 35.29 0 14.12-10 35.29-10 0 10 7.06 10 7.06 20.01l21.18 10.01c0-20.02 7.06-30.02 14.12-40.03 14.12-30.01 35.3-60.03 70.58-60.03 14.13 0 7.06 0 14.13 10.01h28.22c0-20.02 7.06-30.01 7.06-50.03 7.06-10.01 0 10.01 7.06-10.01l28.23-10c-14.12 0-7.06 0-14.12 0-14.12-10.01-56.46-10.01-70.59-20.02-21.18-9.99-42.35 10.01-63.53 10.01-49.41 0-70.58-10.01-91.76 40.03-7.05 10.01-7.05-10.01-7.05 20l-7.05-40.02c-14.12 10.01-14.12 20.02-21.18 40.02h-35.29c-7.06-20-14.13-30.01-28.24-30.01v60.03c-7.05 0-7.05 0-14.11 0 0 0-7.06-10-7.06-20.01l-35.3-40.02c0-10.01 0-10.01 0-10.01h-7.05c-7.06-10-7.06 20.02-7.06-20.01h-14.12c0 10.01 0 10.01-7.06 10.01s-7.06-20.02-14.11-40.02v-10.01c-7.06-10 0-10-7.06-10-7.06-30.01-7.06-30.01-28.24-40.02l-70.58-30.02c-21.18-10.01-28.23 10.01-56.46-10.01-14.12 0-7.06 0-21.18 0-14.11 0-28.23 0-42.35 0v10.01zm1009.34 520.28-14.12 50.03c-7.05 20.01-21.17 20.01-21.17 40.02l-14.13 50.03v20.01 10.01c-7.05 10-14.12 30.01-21.17 40.02l-21.18 50.02c-7.05 10.01-7.05 10.01-14.12 10.01v-40.02h-14.11c0 20-7.06 40.02-21.18 40.02-7.06 0-14.13-30.01-21.18-40.02 0 0 0 0 0-10.01-7.05-10-7.05-10-14.12-10 0 20.01 0 10-7.06 30.02-21.18 0-14.12-10.01-28.23-20.02l-49.4-50.02c-7.06-20.02-21.18-30.02-28.24-50.04-7.05-9.99-14.12-9.99-14.12-20l-63.52-60.03c-7.06 0-7.06 10-14.13 10-14.12 0-28.22 0-35.29 0-14.12 0-35.29 0-49.41 0l-49.4 20.01c-7.06 0-7.06 0-14.13 0v20.01c42.35 0 91.76-20.01 105.88 40.02h42.35c0 10.01 0 10.01 14.13 10.01v10h7.05v40.02c7.06 10.01 0-10 7.06 10.01 7.05 10.01 7.05-10.01 7.05-10.01h7.06c7.05 0-7.06 10.01 21.18 10.01h14.11c14.12 10.01 21.18 20.01 28.24 30.02h7.05c7.06 10.01-7.05 0 0 10.01h7.06l28.23 60.03h35.29l63.53 60.03v9.99l7.06 10.01v10.01c7.06 20.01 14.12 20.01 14.12 40.03 7.05 0 14.12 0 14.12-30.03 0-20.01 0-30.02 0-50.02h7.05l21.18-40.03c0-9.99 7.05-20 14.12-20 7.05 10.01 0 20 21.18 20l7.05-20c0-20.01 0-30.02 14.12-40.03 14.12-20 35.3 0 21.18-50.02-7.06-30.01 0-80.05 28.23-80.05h28.23l21.17-80.03c7.06-20.01 14.13-20.01 28.24-40.03h7.06l35.29-30.01c7.06-10 0 0 7.06-10-14.13 0-28.24 0-49.41 0l-49.41 20.01c-35.3 20-28.23 20-63.53 20zm487.03-1090.59c35.29 0 98.82-10 127.04 10.01 0 10.01 7.06 10.01 7.06 20.01h7.06v10c7.05 10.01 7.05 30.02 7.05 50.03l56.46 10.01c0 40.02 7.05 0 7.05 40.02 21.18 0 7.06 0 14.13 10h21.18c21.17 0 42.35 40.02 49.41 60.03l14.11 30.02c0 10 0 10 7.06 10 0-30.01 0-20 7.05-30.01l7.06-20.01h7.06l56.46-50.03c14.11 0 7.05 0 21.17-10 0 10 7.06 20.01 14.12 20.01 7.06-10.01 14.12-30.02 14.12-40.03 7.06 0 14.12-20 21.18-20 21.18-20.01 91.76-30.02 119.99-20.01v10h14.12c14.12 0 7.05 10.01 28.24 10.01v-10.01c-21.19 0-7.06 0-28.24-20.01l-21.17-20.01h-7.06s0 0-7.06 0l-63.53-40.02c-14.11 0-49.4 0-70.58 0l-14.12 10.01c-7.06 0 0 0-7.06 0-21.17 10-7.05-10.01-14.11 10-14.12 10 0 0-7.06 20.01l-14.12 20.01v10.01l-14.12 30.01c-14.12-20.01-14.12-10-14.12-40.02h-21.18c-7.05 20.01-7.05 10.01-7.05 30.02h-14.12v-40.03c-21.18 0-7.05 10.01-28.23 20.02-7.06 0-7.06 0-14.13 0 0-20.02 0-10.01-7.05-20.02l-35.3-60.03c0-10 0-10 0-10-14.12-40.02-63.52-30.02-91.76-30.02 0 0 0 0-7.05 0-14.12 0-14.12-10-28.23-10-21.18 0-7.06 10-49.41 10-14.12 0-35.29 10-42.35 40.02zm2773.93 900.49c0-20.01 0-20.01-14.12-30.01 0 20.01-7.06 20.01-7.06 30.01-21.18 0-14.12 0-14.12-20.01l-7.06-10c-42.35 0-28.23-10-35.29 10-7.06 0 0 0-7.06 0l-14.11-10h-7.06c-14.12-10 0 0-14.12-10v-10.01c-14.13-10.01-14.13-20.01-21.18-30.02s-14.12-10.01-28.23-10.01c-7.06 0-28.23 0-35.3 0h-7.05v10.01c-14.13 0-28.23 0-35.3 0-21.18 0-7.05 0-14.12 10.01-14.12 0-21.18 0-35.29 0l49.4 10c0 20.02 7.06 30.02 7.06 60.03h21.17c7.06-10 28.23-10 42.35 0h14.13c28.22 30.02 28.22 60.03 49.4 50.03h7.06c0-10 0-10 0-10l49.41 50.02c7.05 0 21.17-10 21.17-20.01 14.12 10.01 0 0 14.12 10.01 14.12 20.01 21.18 30.01 21.18 60.03 7.05 0 7.05 0 7.05-10.01 7.06-10 7.06 0 7.06-10 7.05-30.02 7.05-30.02 14.12-60.04 7.06-10 21.17-30.01 42.35-60.03l14.12-30.01c14.12-30.02 14.12-10 42.35-10 0-40.03-14.12 0-7.05-40.03 7.05-30.01 21.17-40.02 42.35-50.02l21.18-30.01h7.05c14.12-20.02 35.3 0 56.46-10.01l14.12-10.01c7.06-10.01 0 0 7.06-10.01-28.23 0-70.59-10-98.82 0v10.01l-42.35 10.01h-7.05v10.01h-7.06c-7.06 0-7.06 0-7.06 0h-7.05-7.05c-14.12 9.99-28.24 30.01-35.3 60.03-21.17 40.01-7.06 9.99-14.12 50.02l-7.05 20.01s0 0-7.06 0c0 10-7.06 10-7.06 20.01zm628.19-1820.99c-7.06 0-7.06 0-7.06 10 14.12 10.01 14.12 20.02 21.18 30.02 21.18 60.03 0 40.02 0 80.04 7.06 10.01 14.12 20.01 21.18 30.02 7.05 10.01 0 10.01 0 30.02l7.05 50.02c28.23 0 42.35 0 56.46 30.01l14.13 50.04 7.05 40.01 21.17 10.01h7.06l14.12-10.01c21.17-10 49.41-20.01 56.47 10.01h14.11v-20.01c21.18 0 7.06 0 14.12-10.01 49.41-20 42.36 20.01 98.82 20.01 14.12 0 21.18 0 35.29 10.01 0-10.01 0-10.01-7.05-10.01l-14.12-20.01-14.12-10.01h-7.06l-7.05-9.99c-7.06-10.01-14.12-20.02-28.23-30.02h-7.06c-21.17-20.02-35.29 10-63.53 0-7.05 0-21.17-10.01-35.29-10.01-14.13 10.01-28.23 30.02-49.41 10.01-14.12-10.01-7.06 10-7.06-60.03-21.17 0-42.35 10-56.46-10.01-14.12-30.01-7.05-90.05-7.05-120.06h-14.12c0-20.02-7.06-40.03-14.13-60.03l-14.11-40.03c-7.06-20-28.24-30.01-42.36-40.02 0 0 0-10-7.05-10l-14.12-20.02c-7.06 0-7.06 0-14.12 0l7.05 20.02c7.06 10 14.13 10 14.13 20.01 14.11 10.01 21.17 10.01 21.17 40.02zm-2950.39-1210.67v20.02c-7.06 20-14.12 40.02-28.23 40.02-28.23 0-35.3-10.01-42.35-10.01l-21.18 60.03c-21.17 0-35.3-10.01-49.41 10.01-21.17 10-21.17 10-21.17 20.01l-14.12 60.03v10.01l-7.06 40.01c7.06 0 7.06 0 14.12-20.01 7.06-20-7.05-10 28.23-50.02 7.06-10.01 0 0 7.06-10.01h7.05c14.13-10.01 14.13-10.01 14.13-20h42.35c0-50.04 7.05-40.03 63.52-40.03 0-20 0-20 7.06-40.02 0 0 0 0 0-10 14.12-20.02 28.23-60.04 42.35-70.04l28.23-20.02c0-60.03-35.29-30.01 7.06-90.04 0-50.02-7.06 20.02-7.06-60.03h7.06 7.06c14.11-20.01 0-30.02 0-30.02-7.06-20-14.13-30.01 0-60.03 7.04-10.01 7.04-10.01 14.11-20.01l7.06-20.01 14.12-20.01c7.06-10.01 7.06-10.01 7.06-30.01-14.13 10 0 0-14.13 10l-42.35 50.03c-7.05 0-14.12 20-21.18 30.01l-7.05 10.01c-7.05 0-7.05 0-7.05 0-14.12 40.01-7.06 80.04-7.06 130.07l-7.05 30.02c-7.06 20-14.13 20-21.18 30.01zm-1672.83 280.16h7.05v10l49.41 30.02c21.18 20.02 49.41 30.02 56.46 50.03l7.06 40.02c14.12 30.01 7.06 60.03 21.18 100.05 7.05 10.01 7.05-10.01 7.05 20.01h21.18l7.05-10c21.17 0 35.3 20.01 35.3 30.01 0 20.01-7.06 10-7.06 30.02h7.06 14.12c7.06-10.01 14.12-30.02 21.17-10.01l77.65-50.02h14.11c14.12-10.01 35.3-10.01 49.41-10.01l35.3-10.01c0-10-7.05-20-14.12-20-7.06 0-7.06 0-14.12 0l-56.47-10.01c-14.11 0-35.29 0-49.41 0v10.01l-35.29 20c-14.12 10.01-21.17-10-35.29-20-14.13-30.02-14.13-20.01-7.06-50.03-14.13 0-21.18-10.01-28.23-20.01-14.12-10-28.24-10-21.18-30.02v-10c-14.12 10 0 0-14.12 10 0-30.01 0-30.01-21.17-40.01l-35.3-20.02v-10.01l-49.4-30.01h-7.06c-14.13 0-21.18-10-35.3-10v10zm4284.41 70.04-7.05 60.03c28.23 20.01 0 50.03 21.17 60.03l-21.17 40.02c-7.05 20.01-7.05 0-7.05 30.02 28.22-10.01 0-10.01 49.4-10.01-7.05 20.01-7.05 10.01-7.05 30.01l28.22 10.01c14.13 10.01 7.06 10.01 28.24 10.01v20.01l7.05 20.01v10l7.06 20.02h28.23v10c14.12 10.01 28.23 20.02 35.3 40.02l7.05 10.01v10c7.06 40.02 7.06 30.01 14.13 40.02v-50.02-10.01c-14.13-60.03-28.24-50.02-49.41-90.04l-7.06-40.03c-7.05-10.01-14.12-20.01-21.18-20.01h-7.05c-14.12-10-35.3-30.01-49.41-30.01 0-10.01 0-10.01 0-20.02l7.05-10c7.06-30.01 0-60.03-7.05-90.04l-7.05-20.02c-7.06-30.01 7.05-10-28.24-50.02-21.17-40.03-14.12-20.02-28.22-40.03l-14.13-10c-21.17-20.01-7.05-10-21.17-20.01 0 10.01 0 10.01 7.05 30.01l35.3 40.03c7.05 20.01 0 10.01 7.05 20.01z" fill="#ccc"/></svg>