<svg clip-rule="evenodd" fill-rule="evenodd" height="128.5mm" image-rendering="optimizeQuality" shape-rendering="geometricPrecision" text-rendering="geometricPrecision" viewBox="0 0 4064 12850" width="40.64mm" xmlns="http://www.w3.org/2000/svg" xmlns:xlink="http://www.w3.org/1999/xlink"><linearGradient id="a"><stop offset="0" stop-color="#610000"/><stop offset=".34902" stop-color="#3d0000"/><stop offset="1" stop-color="#180000"/></linearGradient><linearGradient id="b" gradientUnits="userSpaceOnUse" x1="3421.2" x2="3421.2" xlink:href="#a" y1="1394.1" y2="6368.89"/><linearGradient id="c" gradientUnits="userSpaceOnUse" x1="3421.2" x2="3421.2" xlink:href="#a" y1="11619.42" y2="6484.07"/><linearGradient id="d"><stop offset="0" stop-color="#005f30"/><stop offset=".34902" stop-color="#003e26"/><stop offset="1" stop-color="#001c1c"/></linearGradient><linearGradient id="e" gradientUnits="userSpaceOnUse" x1="641.32" x2="641.32" xlink:href="#d" y1="1394.1" y2="6368.9"/><linearGradient id="f" gradientUnits="userSpaceOnUse" x1="641.32" x2="641.32" xlink:href="#d" y1="11619.43" y2="6484.07"/><g fill-rule="nonzero"><g fill="#2f2f2f"><path d="m703.12 12104.41c14.15-12.53 29.74-18.83 46.95-18.83h4.92c1.56 0 3.43.19 5.68.5.87 1.93 1.56 4.11 2.18 6.73.63 2.56.94 4.86.94 6.92s-.37 3.8-1.07 5.17c-7.04-5.17-15.14-7.73-24.25-7.73-9.66 0-18.33 2.37-26 7.11-7.61 4.74-12.97 9.04-15.96 12.9-3.05 3.87-5.24 8.17-6.73 12.91-1.44 4.67-2.43 8.79-2.99 12.22-.5 3.43-.75 6.48-.75 9.04 0 14.65 7.67 28.61 22.94 42.07 14.28 11.16 28.56 22.32 42.84 33.54 15.53 13.9 23.26 28.87 23.26 44.89v6.67c-.5 2.24-1.44 7.17-2.81 14.83-1.43 7.67-6.54 17.02-15.53 27.99-8.91 11.04-20.45 17.89-34.55 20.64-1.06.37-2.8.68-5.42.93-2.56.25-5.05.38-7.48.38-8.04 0-15.52-1.44-22.44-4.37-6.87-2.87-13.98-6.98-21.39-12.28 2.93-4.74 5.17-8.04 6.79-9.85 1.68-1.81 3.43-2.68 5.3-2.68.69 0 1.87.31 3.62 1 10.98 11.28 24.88 16.96 41.72 16.96h3.87c2.05-.38 7.29-1.06 15.83-2.19 8.48-1.12 14.15-6.42 16.95-15.89 2.87-9.48 4.5-15.65 5.06-18.58.5-2.93.75-5.73.75-8.54 0-13.4-6.12-25.87-18.27-37.4-12.35-9.6-25.2-19.95-38.48-30.99-13.27-10.97-21.44-21.94-24.43-32.79-3-10.78-4.5-20.5-4.5-29.11 0-10.35 1.87-19.76 5.56-28.3 3.68-8.48 9.66-16.46 17.89-23.87z"/><path d="m865.64 12241.74c2.55-.88 5.42-1.31 8.47-1.31 3.31 0 6.49.75 9.67 2.18 3.19 1.43 8.49 5.55 15.9 12.34 7.36 6.74 12.22 20.39 14.59 40.96 2.31 20.51 4.24 33.72 5.8 39.52l8.74 4.43c-1.87 1.18-4.69 1.99-8.37 2.55-3.68.5-7.42.75-11.22.75-2.24 0-4.49 0-6.73 0-2.25 0-4.37-.12-6.42-.25 3.11 0 5.3-1.06 6.54-3.11 1.31-2.06 1.94-4.68 1.94-7.92 0-2.25-.13-4.61-.44-7.11-.31-2.49-.56-4.86-.69-7.04-.68-1.69-1.8-2.5-3.36-2.5-1.75 0-3.56.75-5.43 2.31-7.04 7.48-15.22 13.84-24.57 19.2-9.29 5.36-18.08 8.04-26.31 8.04-4.87 0-9.67-1.18-14.47-3.61-4.86-2.37-8.6-5.3-11.28-8.79-2.68-3.43-3.99-7.8-3.99-13.16 0-5.11 1.43-9.72 4.36-13.77 2.93-4.06 7.24-7.61 12.78-10.66 5.61-3.12 12.03-5.68 19.4-7.61 7.29-1.99 14.71-2.99 22.26-2.99 3.99 0 7.6.25 10.84.75 3.32.43 6.74 1.31 10.36 2.62 1.56-1.56 2.31-3.43 2.31-5.68 0-1.37-.5-3.11-1.56-5.17-1-2.06-2.99-6.42-5.92-13.15-2.93-6.67-10.61-10.04-22.95-10.04-5.68 0-10.54 1.18-14.59 3.61-4.05 2.44-9.36 6.36-15.91 11.72 2.81-6.35 6.67-11.9 11.67-16.52 4.99-4.67 11.16-8.22 18.58-10.59zm21.58 48.81c-5.19-2.25-10.86-3.37-17.03-3.37-7.92 0-15.34 1.68-22.32 5.11-6.93 3.43-11.6 7.17-13.91 11.16-2.31 4.05-3.49 7.17-3.49 9.41 0 2.75.68 5.24 2.05 7.55 1.38 2.3 3.99 5.42 7.86 9.22 3.87 3.87 8.67 5.8 14.35 5.8 1.68 0 5.17-.62 10.41-1.81 5.23-1.18 12.15-5.11 20.64-11.78 8.54-6.67 12.78-13.21 12.78-19.51 0-1.18-.31-2.68-.87-4.36-.62-1.75-1.75-3.12-3.37-4.12s-3.99-2.12-7.1-3.3z"/><path d="m968.54 12264.43c3.25-3.62 8.73-8.11 16.4-13.53 7.73-5.42 12.28-8.66 13.65-9.72.69 1.24 1 2.86 1 4.73 0 1.56.06 3.12.12 4.62.07 1.55.75 2.74 1.94 3.61 5.37-3.05 11.66-5.8 19.02-8.23 7.29-2.43 14.52-3.61 21.57-3.61 5.18 0 9.86.81 13.97 2.43 4.18 1.62 7.79 4.24 10.85 7.85 3.12 3.62 5.24 7.55 6.36 11.72 1.12 4.24 1.68 8.98 1.68 14.34 0 2.93-.37 8.42-1.12 16.58-.69 8.17-1.06 13.53-1.06 16.15 0 3.05.06 5.92.25 8.48.19 2.55.56 5.05 1.18 7.48.63 2.43 1.75 4.3 3.37 5.67s4.3 2.06 7.92 2.06c1.25 0 2.69-.13 4.43-.38.38 2.37-.37 3.87-2.06 4.37-2.62.18-5.99.87-10.23 2.05-4.24 1.19-9.16 1.81-14.9 1.81-1.87 0-3.36-.12-4.36-.31-.69-3.74-1.12-6.48-1.19-8.23-.06-1.68-.12-3.05-.12-4.11 0-3.93.56-11.29 1.68-21.88 1.12-10.66 1.69-17.89 1.69-21.7 0-8.04-1.19-14.9-3.5-20.51-2.3-5.54-6.1-9.97-11.35-13.15-5.24-3.18-10.72-4.74-16.4-4.74-7.73 0-14.02 2.43-18.95 7.23-4.93 4.87-8.3 11.04-10.17 18.52-1.93 7.48-2.87 16.08-2.87 25.74 0 6.36.07 10.73.25 13.09.19 2.31.81 9.6 2 21.89 0 2.05 2.06 3.55 6.12 4.48 4.05.94 6.23 2.06 6.61 3.25-3.81.37-7.49.68-11.05 1.06-3.55.31-6.92.49-10.22.49-4.49 0-7.73-.12-9.73-.37-1.99-.25-4.61-.81-7.91-1.68 3.67-3.81 6.23-8.54 7.6-14.15 1.44-5.61 2.12-12.47 2.12-20.58 0-5.54-.31-13.09-.87-22.56-.56-9.48-.81-15.4-.81-17.64 0-2.44-.69-3.62-2.06-3.62-.68 0-2.06.44-3.99 1.31-1.99.87-3.3 1.25-3.99 1.25-1.06 0-1.99-.5-2.87-1.56z"/><path d="m1171.34 12244.17h29.8 29.49c-.31 2.49-3.18 4.05-8.54 4.67-5.42.63-7.73 2.81-6.86 6.49 4.62 4.48 8.17 8.35 10.54 11.59 2.43 3.31 3.8 6.3 4.18 9.04.31 2.74.49 4.8.49 6.17 0 6.86-2.86 13.16-8.54 18.83-5.67 5.67-10.28 10.22-13.9 13.65 13.65 8.91 22.76 17.08 27.43 24.37 4.68 7.3 6.98 15.09 6.98 23.32 0 10.85-2.99 19.89-9.04 27.12-6.04 7.23-13.77 13.46-23.25 18.82-9.48 5.3-17.46 7.98-24.01 7.98-3.3 0-6.67-.37-10.22-1.18-3.49-.75-7.42-1.94-11.73-3.56-4.3-1.62-8.35-4.42-12.16-8.35-4.11-4.99-7.42-8.73-9.78-11.28-.57-1.87-.19-3.74.99-5.55 1.19-1.75 2.37-3.55 3.49-5.24 11.91 11.66 20.2 19.27 24.95 22.76 4.74 3.55 12.09 5.3 22.07 5.3 6.73 0 12.59-1.87 17.71-5.68 5.05-3.8 9.17-8.72 12.34-14.71 3.18-6.05 4.8-12.22 4.8-18.58 0-5.86-2.24-13.09-6.67-21.69-4.48-8.6-11.96-14.71-22.45-18.2-10.47-3.56-24.25-5.3-41.28-5.3-3.61.37-7.04.93-10.28 1.74-3.24.75-6.42 1.69-9.54 2.75 1.87-2.81 3.55-5.74 5.05-8.86 1.56-3.11 1.87-5.54 1-7.29-3.24-4.11-6.49-8.35-9.73-12.65-3.24-4.99-4.86-9.98-4.86-14.96v-2.56c1.06-10.85 5.49-20.07 13.4-27.62 7.92-7.54 17.27-11.34 28.13-11.34zm-6.74 11.97c-4.62 0-7.98.62-10.17 1.8-2.12 1.19-4.48 3.62-7.16 7.24-2.69 3.55-3.99 7.41-3.99 11.53 0 3.43 2.05 8.1 6.17 13.9 4.11 5.86 9.35 10.78 15.71 14.84 6.36 4.05 13.47 6.04 21.33 6.04 3.3 0 7.73-.56 13.4-1.68s9.86-3.8 12.6-8.1c2.74-4.31 4.12-7.8 4.12-10.54 0-3.99-1.56-7.85-4.74-11.72-3.18-3.86-6.62-7.67-10.17-11.47-3.62-3.8-8.48-6.67-14.53-8.73-6.11-2.05-13.59-3.11-22.57-3.11z"/><path d="m1356.17 12255.33c0-5.36 2.93-9.04 8.85-11.16 5.93-2.06 12.41-3.12 19.52-3.12-2.93 15.02-4.43 30.05-4.43 45.07 0 7.61.38 14.59 1.19 21.01.75 6.36 1.62 11.41 2.55 15.02.94 3.62 2.12 5.43 3.5 5.43 2.43-.5 4.17-.75 5.17-.75 1.06 0 1.68.37 1.81 1.06-3.74 4.11-8.85 7.17-15.34 9.16-6.42 2-11.79 3.62-16.09 4.8.81-3.61 1.62-7.73 2.49-12.4.81-4.62 1.25-8.73 1.25-12.35 0-3.99-.31-7.6-.94-10.84-13.77 16.14-23.19 26.68-28.24 31.54-5.04 4.92-11.97 7.36-20.76 7.36-3.31 0-7.55-1.06-12.91-3.25-5.3-2.11-9.22-5.98-11.72-11.59-2.49-5.55-3.75-12.47-3.75-20.76 0-3.93.32-9.97 1.01-18.01.69-8.11 1-14.03 1-17.83 0-4.62-.38-8.61-1.12-11.85 0-2.43-1.7-3.61-5.06-3.61-.69 0-1.25 0-1.69 0-.37 0-.81.12-1.12.25 3.06-3.06 7.17-6.24 12.29-9.42 5.11-3.18 9.66-5.17 13.78-6.04.31 2.43.5 4.8.5 7.23v7.23c0 3.74-.19 10.03-.56 18.89-.38 8.85-.57 13.65-.57 14.33 0 6.67.32 12.41.94 17.09.56 4.73 1.75 10.03 3.49 15.89 1.68 5.8 5.74 8.73 12.16 8.73 4.48 0 12.85-4.74 25-14.21 12.16-9.54 18.27-25.56 18.27-48.19 0-1.5 0-3.06-.06-4.49-.07-1.5-.38-4.36-.88-8.66z"/><path d="m1452.72 12226.03c1.49-1.37 3.42-5.61 5.79-12.72 2.31-7.11 5.55-10.66 9.67-10.66 1.87 0 4.11.5 6.67 1.56 0 3.99-1 8.23-2.93 12.84-2 4.61-4.8 8.29-8.42 11.03-.69-.18-2.31-.37-4.86-.49-2.62-.19-4.55-.69-5.92-1.56zm12.84 15.89c.18 15.78.43 31.55.81 47.38.31 15.83.75 26.68 1.31 32.6.5 5.86 1.8 9.29 3.99 10.23 2.12.93 4.73 1.43 7.85 1.43 3.43 0 6.17-.25 8.23-.75v2.37c-4.8 2.87-10.41 4.99-16.89 6.49-6.43 1.49-12.78 2.24-18.96 2.3-.99-4.3-1.75-8.66-2.19-13.03-.43-4.36-.62-9.6-.62-15.58 0-3.12.06-7.86.25-14.34.19-6.42.25-11.16.25-14.27v-3.37c0-8.42-.44-14.78-1.31-19.01-.87-4.31-2.37-6.49-4.61-6.49-1.06 0-2.62.25-4.8.69-2.12.37-3.37.62-3.74.62-2.25 0-3.87-.81-4.87-2.3 5.3-1.94 10.66-3.81 15.96-5.68 5.5-2.43 10.61-5.48 15.22-9.29z"/><path d="m1524.68 12264.43c3.25-3.62 8.74-8.11 16.41-13.53 7.73-5.42 12.28-8.66 13.65-9.72.69 1.24 1 2.86 1 4.73 0 1.56.06 3.12.12 4.62.07 1.55.75 2.74 1.94 3.61 5.36-3.05 11.65-5.8 19.02-8.23 7.29-2.43 14.52-3.61 21.57-3.61 5.17 0 9.85.81 13.97 2.43 4.18 1.62 7.79 4.24 10.85 7.85 3.12 3.62 5.24 7.55 6.36 11.72 1.12 4.24 1.68 8.98 1.68 14.34 0 2.93-.37 8.42-1.12 16.58-.69 8.17-1.06 13.53-1.06 16.15 0 3.05.06 5.92.25 8.48.19 2.55.56 5.05 1.18 7.48.63 2.43 1.75 4.3 3.37 5.67s4.3 2.06 7.92 2.06c1.24 0 2.68-.13 4.42-.38.38 2.37-.37 3.87-2.06 4.37-2.61.18-5.98.87-10.22 2.05-4.24 1.19-9.16 1.81-14.9 1.81-1.87 0-3.36-.12-4.36-.31-.69-3.74-1.12-6.48-1.19-8.23-.06-1.68-.12-3.05-.12-4.11 0-3.93.56-11.29 1.68-21.88 1.12-10.66 1.69-17.89 1.69-21.7 0-8.04-1.19-14.9-3.5-20.51-2.31-5.54-6.11-9.97-11.35-13.15s-10.72-4.74-16.4-4.74c-7.73 0-14.03 2.43-18.96 7.23-4.92 4.87-8.29 11.04-10.16 18.52-1.93 7.48-2.87 16.08-2.87 25.74 0 6.36.07 10.73.25 13.09.19 2.31.81 9.6 2 21.89 0 2.05 2.06 3.55 6.11 4.48 4.05.94 6.23 2.06 6.61 3.25-3.81.37-7.48.68-11.04 1.06-3.55.31-6.92.49-10.22.49-4.49 0-7.73-.12-9.73-.37-1.99-.25-4.61-.81-7.92-1.68 3.68-3.81 6.24-8.54 7.61-14.15 1.44-5.61 2.12-12.47 2.12-20.58 0-5.54-.31-13.09-.87-22.56-.56-9.48-.81-15.4-.81-17.64 0-2.44-.69-3.62-2.06-3.62-.68 0-2.06.44-3.99 1.31-2 .87-3.31 1.25-4 1.25-1.06 0-1.99-.5-2.87-1.56z"/><path d="m1719 12245.54c4.49-2.93 9.29-4.36 14.47-4.36 5.49 0 10.85 1.3 16.09 3.86 5.23 2.62 11.47 6.36 18.7 11.35-5.49 6.42-16.21 16.33-32.17 29.86-15.91 13.52-25.51 22-28.81 25.43 3.62 5.49 8.04 10.04 13.22 13.53 5.11 3.55 9.72 5.55 13.78 6.11 4.05.5 7.11.75 9.23.75 4.61 0 8.54-.63 11.72-1.94 3.18-1.24 10.6-5.48 22.14-12.65-3.62 4.61-6.74 8.29-9.3 10.97-2.62 2.68-5.36 4.43-8.29 5.42-2.93.94-8.1 2.87-15.59 5.8-7.48 2.93-13.1 4.36-16.9 4.36-2.43 0-4.18-.12-5.3-.37s-4.42-1.68-9.91-4.18c-5.55-2.49-11.22-7.66-17.14-15.46-6-7.85-9.18-14.33-9.74-19.51-.5-5.17-.75-8.79-.75-10.85 0-10.03 3-18.7 8.93-25.99 5.92-7.36 14.46-14.71 25.62-22.13zm15.78 9.1c-3.44-2.24-7.36-3.37-11.67-3.37-7.6 0-13.84 3.12-18.7 9.42-4.8 6.29-7.23 13.46-7.23 21.57 0 7.91 2.43 15.64 7.29 23.25 7.42-4.68 15.96-11.6 25.63-20.82 9.67-9.17 16.15-15.09 19.46-17.64-1.56-2.44-3.37-4.43-5.43-6.11-2.12-1.62-5.17-3.74-9.35-6.3z"/></g><g fill="#dddad6"><path d="m692.11 12101.5c14.15-12.53 29.74-18.83 46.95-18.83h4.92c1.56 0 3.43.19 5.68.5.87 1.93 1.56 4.11 2.18 6.73.62 2.56.93 4.86.93 6.92s-.37 3.8-1.06 5.17c-7.04-5.17-15.14-7.73-24.25-7.73-9.66 0-18.33 2.37-26 7.11-7.61 4.74-12.97 9.04-15.96 12.9-3.05 3.87-5.24 8.17-6.73 12.91-1.44 4.67-2.43 8.79-2.99 12.22-.5 3.43-.75 6.48-.75 9.04 0 14.65 7.67 28.61 22.94 42.07 14.27 11.16 28.56 22.32 42.84 33.54 15.53 13.9 23.26 28.87 23.26 44.89v6.67c-.5 2.24-1.44 7.17-2.81 14.83-1.43 7.67-6.54 17.02-15.53 27.99-8.91 11.04-20.45 17.89-34.55 20.64-1.06.37-2.8.68-5.42.93-2.56.25-5.05.38-7.48.38-8.04 0-15.52-1.44-22.44-4.37-6.87-2.87-13.98-6.98-21.39-12.28 2.93-4.74 5.17-8.04 6.79-9.85 1.68-1.81 3.43-2.68 5.3-2.68.69 0 1.87.31 3.62 1 10.98 11.28 24.88 16.96 41.71 16.96h3.88c2.05-.38 7.29-1.06 15.83-2.19 8.48-1.12 14.15-6.42 16.95-15.89 2.87-9.48 4.49-15.65 5.05-18.58.5-2.93.75-5.73.75-8.54 0-13.4-6.11-25.87-18.26-37.4-12.35-9.6-25.2-19.95-38.48-30.99-13.27-10.97-21.44-21.94-24.44-32.79-2.99-10.78-4.49-20.5-4.49-29.11 0-10.35 1.87-19.76 5.56-28.3 3.68-8.48 9.66-16.46 17.89-23.87z"/><path d="m854.63 12238.83c2.55-.88 5.42-1.31 8.47-1.31 3.31 0 6.49.75 9.67 2.18 3.19 1.43 8.49 5.55 15.9 12.34 7.36 6.74 12.22 20.39 14.59 40.96 2.31 20.51 4.24 33.72 5.8 39.52l8.74 4.43c-1.88 1.18-4.69 1.99-8.37 2.55-3.68.5-7.42.75-11.22.75-2.24 0-4.49 0-6.73 0-2.25 0-4.37-.12-6.42-.25 3.11 0 5.3-1.06 6.54-3.11 1.31-2.06 1.94-4.68 1.94-7.92 0-2.25-.13-4.61-.44-7.11-.31-2.49-.56-4.86-.69-7.04-.68-1.69-1.8-2.5-3.36-2.5-1.75 0-3.56.75-5.43 2.31-7.04 7.48-15.22 13.84-24.57 19.2-9.29 5.36-18.08 8.04-26.31 8.04-4.87 0-9.67-1.18-14.47-3.61-4.86-2.37-8.6-5.3-11.28-8.79-2.68-3.43-3.99-7.8-3.99-13.16 0-5.11 1.43-9.72 4.36-13.77 2.93-4.06 7.24-7.61 12.78-10.66 5.61-3.12 12.03-5.68 19.4-7.61 7.29-1.99 14.71-2.99 22.26-2.99 3.99 0 7.6.25 10.84.75 3.32.43 6.74 1.31 10.36 2.62 1.56-1.56 2.31-3.43 2.31-5.68 0-1.37-.5-3.11-1.56-5.17-1-2.06-2.99-6.42-5.92-13.15-2.94-6.67-10.61-10.04-22.95-10.04-5.68 0-10.54 1.18-14.59 3.61-4.05 2.44-9.36 6.36-15.91 11.72 2.81-6.35 6.67-11.9 11.67-16.52 4.99-4.67 11.16-8.22 18.58-10.59zm21.58 48.81c-5.19-2.25-10.86-3.37-17.03-3.37-7.92 0-15.34 1.68-22.32 5.11-6.93 3.43-11.6 7.17-13.91 11.16-2.31 4.05-3.49 7.17-3.49 9.41 0 2.75.68 5.24 2.05 7.55 1.38 2.3 3.99 5.42 7.86 9.22 3.86 3.87 8.67 5.8 14.35 5.8 1.68 0 5.17-.62 10.41-1.81 5.23-1.18 12.15-5.11 20.63-11.78 8.55-6.67 12.79-13.21 12.79-19.51 0-1.18-.31-2.68-.87-4.36-.62-1.75-1.75-3.12-3.37-4.12s-3.99-2.12-7.1-3.3z"/><path d="m957.53 12261.52c3.25-3.62 8.73-8.11 16.4-13.53 7.73-5.42 12.28-8.66 13.65-9.72.69 1.24 1 2.86 1 4.73 0 1.56.06 3.12.12 4.62.07 1.55.75 2.74 1.94 3.61 5.36-3.05 11.66-5.8 19.02-8.23 7.29-2.43 14.52-3.61 21.57-3.61 5.17 0 9.86.81 13.97 2.43 4.18 1.62 7.79 4.24 10.85 7.85 3.12 3.62 5.24 7.55 6.36 11.72 1.12 4.24 1.68 8.98 1.68 14.34 0 2.93-.37 8.42-1.12 16.58-.69 8.17-1.06 13.53-1.06 16.15 0 3.05.06 5.92.25 8.48.19 2.55.56 5.05 1.18 7.48.63 2.43 1.75 4.3 3.37 5.67s4.3 2.06 7.92 2.06c1.24 0 2.68-.13 4.43-.38.38 2.37-.37 3.87-2.07 4.37-2.61.18-5.98.87-10.22 2.05-4.24 1.19-9.16 1.81-14.9 1.81-1.87 0-3.36-.12-4.36-.31-.69-3.74-1.12-6.48-1.19-8.23-.06-1.68-.12-3.05-.12-4.11 0-3.93.56-11.29 1.68-21.88 1.12-10.66 1.69-17.89 1.69-21.7 0-8.04-1.19-14.9-3.5-20.51-2.3-5.54-6.1-9.97-11.35-13.15-5.24-3.18-10.72-4.74-16.4-4.74-7.73 0-14.02 2.43-18.95 7.23-4.93 4.87-8.3 11.04-10.17 18.52-1.93 7.48-2.87 16.08-2.87 25.74 0 6.36.07 10.73.25 13.09.19 2.31.81 9.6 2 21.89 0 2.05 2.06 3.55 6.11 4.48 4.06.94 6.24 2.06 6.62 3.25-3.81.37-7.49.68-11.05 1.06-3.55.31-6.92.49-10.22.49-4.49 0-7.73-.12-9.73-.37-1.99-.25-4.61-.81-7.91-1.68 3.67-3.81 6.23-8.54 7.6-14.15 1.44-5.61 2.12-12.47 2.12-20.58 0-5.54-.31-13.09-.87-22.56-.56-9.48-.81-15.4-.81-17.64 0-2.44-.69-3.62-2.06-3.62-.68 0-2.06.44-3.99 1.31-1.99.87-3.3 1.25-3.99 1.25-1.06 0-1.99-.5-2.87-1.56z"/><path d="m1160.33 12241.26h29.8 29.49c-.31 2.49-3.18 4.05-8.54 4.67-5.42.63-7.73 2.81-6.86 6.49 4.62 4.48 8.17 8.35 10.54 11.59 2.43 3.31 3.8 6.3 4.18 9.04.31 2.74.49 4.8.49 6.17 0 6.86-2.86 13.16-8.54 18.83-5.67 5.67-10.28 10.22-13.91 13.65 13.66 8.91 22.77 17.08 27.44 24.37 4.68 7.3 6.98 15.09 6.98 23.32 0 10.85-2.99 19.89-9.04 27.12-6.04 7.23-13.77 13.46-23.26 18.82-9.47 5.3-17.45 7.98-24 7.98-3.3 0-6.67-.37-10.22-1.18-3.49-.75-7.43-1.94-11.73-3.56s-8.35-4.42-12.16-8.35c-4.11-4.99-7.42-8.73-9.78-11.28-.57-1.87-.19-3.74.99-5.55 1.19-1.75 2.37-3.55 3.49-5.24 11.91 11.66 20.2 19.27 24.95 22.76 4.74 3.55 12.09 5.3 22.07 5.3 6.73 0 12.59-1.87 17.71-5.68 5.05-3.8 9.17-8.72 12.34-14.71 3.18-6.05 4.8-12.22 4.8-18.58 0-5.86-2.24-13.09-6.67-21.69-4.48-8.6-11.97-14.71-22.45-18.2-10.47-3.56-24.25-5.3-41.28-5.3-3.61.37-7.04.93-10.28 1.74-3.24.75-6.42 1.69-9.54 2.75 1.87-2.81 3.55-5.74 5.05-8.86 1.56-3.11 1.87-5.54 1-7.29-3.24-4.11-6.49-8.35-9.73-12.65-3.24-4.99-4.86-9.98-4.86-14.96v-2.56c1.06-10.85 5.49-20.07 13.4-27.62 7.92-7.54 17.27-11.34 28.13-11.34zm-6.74 11.97c-4.62 0-7.98.62-10.17 1.8-2.12 1.19-4.48 3.62-7.16 7.24-2.69 3.55-3.99 7.41-3.99 11.53 0 3.43 2.05 8.1 6.17 13.9 4.11 5.86 9.35 10.78 15.71 14.84 6.36 4.05 13.47 6.04 21.33 6.04 3.3 0 7.73-.56 13.4-1.68s9.85-3.8 12.6-8.1c2.74-4.31 4.12-7.8 4.12-10.54 0-3.99-1.56-7.85-4.74-11.72-3.19-3.86-6.62-7.67-10.17-11.47-3.62-3.8-8.48-6.67-14.53-8.73-6.11-2.05-13.59-3.11-22.57-3.11z"/><path d="m1345.16 12252.42c0-5.36 2.93-9.04 8.85-11.16 5.92-2.06 12.41-3.12 19.52-3.12-2.93 15.02-4.43 30.05-4.43 45.07 0 7.61.38 14.59 1.19 21.01.75 6.36 1.62 11.41 2.55 15.02.94 3.62 2.12 5.43 3.5 5.43 2.43-.5 4.17-.75 5.17-.75 1.06 0 1.68.37 1.81 1.06-3.74 4.11-8.85 7.17-15.34 9.16-6.42 2-11.79 3.62-16.09 4.8.81-3.61 1.62-7.73 2.49-12.4.81-4.62 1.25-8.73 1.25-12.35 0-3.99-.31-7.6-.94-10.84-13.77 16.14-23.19 26.68-28.24 31.54-5.04 4.92-11.97 7.36-20.76 7.36-3.31 0-7.55-1.06-12.91-3.25-5.3-2.11-9.22-5.98-11.72-11.59-2.5-5.55-3.75-12.47-3.75-20.76 0-3.93.31-9.97 1-18.01.69-8.11 1-14.03 1-17.83 0-4.62-.38-8.61-1.12-11.85 0-2.43-1.69-3.61-5.05-3.61-.69 0-1.25 0-1.69 0-.37 0-.81.12-1.12.25 3.06-3.06 7.17-6.24 12.29-9.42 5.11-3.18 9.66-5.17 13.78-6.04.31 2.43.5 4.8.5 7.23v7.23c0 3.74-.19 10.03-.56 18.89-.38 8.85-.57 13.65-.57 14.33 0 6.67.32 12.41.94 17.09.56 4.73 1.75 10.03 3.49 15.89 1.68 5.8 5.74 8.73 12.16 8.73 4.48 0 12.85-4.74 25-14.21 12.16-9.54 18.27-25.56 18.27-48.19 0-1.5 0-3.06-.06-4.49-.07-1.5-.38-4.36-.88-8.66z"/><path d="m1441.71 12223.12c1.49-1.37 3.42-5.61 5.79-12.72 2.31-7.11 5.55-10.66 9.67-10.66 1.87 0 4.11.5 6.67 1.56 0 3.99-1 8.23-2.93 12.84-2 4.61-4.8 8.29-8.42 11.03-.69-.18-2.31-.37-4.86-.49-2.62-.19-4.55-.69-5.92-1.56zm12.84 15.89c.18 15.78.43 31.55.81 47.38.31 15.83.75 26.68 1.31 32.6.5 5.86 1.8 9.29 3.99 10.23 2.12.93 4.73 1.43 7.85 1.43 3.43 0 6.17-.25 8.23-.75v2.37c-4.8 2.87-10.41 4.99-16.89 6.49-6.43 1.49-12.78 2.24-18.97 2.3-.99-4.3-1.74-8.66-2.18-13.03-.43-4.36-.62-9.6-.62-15.58 0-3.12.06-7.86.25-14.34.19-6.42.25-11.16.25-14.27v-3.37c0-8.42-.44-14.78-1.31-19.01-.87-4.31-2.37-6.49-4.61-6.49-1.06 0-2.62.25-4.8.69-2.12.37-3.37.62-3.74.62-2.25 0-3.87-.81-4.87-2.3 5.3-1.94 10.66-3.81 15.96-5.68 5.49-2.43 10.61-5.48 15.22-9.29z"/><path d="m1513.67 12261.52c3.25-3.62 8.73-8.11 16.41-13.53 7.73-5.42 12.28-8.66 13.65-9.72.69 1.24 1 2.86 1 4.73 0 1.56.06 3.12.12 4.62.07 1.55.75 2.74 1.94 3.61 5.36-3.05 11.65-5.8 19.02-8.23 7.29-2.43 14.52-3.61 21.57-3.61 5.17 0 9.85.81 13.96 2.43 4.19 1.62 7.8 4.24 10.86 7.85 3.12 3.62 5.24 7.55 6.36 11.72 1.12 4.24 1.68 8.98 1.68 14.34 0 2.93-.37 8.42-1.12 16.58-.69 8.17-1.06 13.53-1.06 16.15 0 3.05.06 5.92.25 8.48.19 2.55.56 5.05 1.18 7.48.63 2.43 1.75 4.3 3.37 5.67s4.3 2.06 7.92 2.06c1.24 0 2.68-.13 4.42-.38.38 2.37-.37 3.87-2.06 4.37-2.61.18-5.98.87-10.22 2.05-4.24 1.19-9.16 1.81-14.9 1.81-1.87 0-3.36-.12-4.36-.31-.7-3.74-1.13-6.48-1.2-8.23-.06-1.68-.12-3.05-.12-4.11 0-3.93.56-11.29 1.69-21.88 1.12-10.66 1.69-17.89 1.69-21.7 0-8.04-1.19-14.9-3.51-20.51-2.3-5.54-6.1-9.97-11.34-13.15s-10.72-4.74-16.4-4.74c-7.73 0-14.03 2.43-18.96 7.23-4.92 4.87-8.29 11.04-10.16 18.52-1.93 7.48-2.87 16.08-2.87 25.74 0 6.36.07 10.73.25 13.09.19 2.31.81 9.6 2 21.89 0 2.05 2.06 3.55 6.11 4.48 4.05.94 6.23 2.06 6.61 3.25-3.81.37-7.48.68-11.04 1.06-3.55.31-6.92.49-10.22.49-4.49 0-7.73-.12-9.73-.37-1.99-.25-4.62-.81-7.92-1.68 3.67-3.81 6.24-8.54 7.61-14.15 1.44-5.61 2.12-12.47 2.12-20.58 0-5.54-.31-13.09-.87-22.56-.56-9.48-.81-15.4-.81-17.64 0-2.44-.69-3.62-2.06-3.62-.68 0-2.07.44-4 1.31-1.99.87-3.3 1.25-3.99 1.25-1.06 0-1.99-.5-2.87-1.56z"/><path d="m1707.99 12242.63c4.49-2.93 9.29-4.36 14.46-4.36 5.5 0 10.86 1.3 16.1 3.86 5.23 2.62 11.47 6.36 18.7 11.35-5.49 6.42-16.21 16.33-32.17 29.86-15.91 13.52-25.51 22-28.81 25.43 3.62 5.49 8.04 10.04 13.22 13.53 5.11 3.55 9.72 5.55 13.77 6.11 4.06.5 7.12.75 9.24.75 4.61 0 8.54-.63 11.72-1.94 3.18-1.24 10.6-5.48 22.14-12.65-3.63 4.61-6.74 8.29-9.3 10.97-2.62 2.68-5.36 4.43-8.29 5.42-2.93.94-8.1 2.87-15.59 5.8-7.48 2.93-13.1 4.36-16.9 4.36-2.43 0-4.18-.12-5.3-.37s-4.42-1.68-9.91-4.18c-5.55-2.49-11.22-7.66-17.15-15.46-5.99-7.85-9.17-14.33-9.73-19.51-.5-5.17-.75-8.79-.75-10.85 0-10.03 3-18.7 8.92-25.99 5.93-7.36 14.47-14.71 25.63-22.13zm15.77 9.1c-3.43-2.24-7.35-3.37-11.66-3.37-7.6 0-13.84 3.12-18.7 9.42-4.8 6.29-7.23 13.46-7.23 21.57 0 7.91 2.43 15.64 7.29 23.25 7.42-4.68 15.96-11.6 25.63-20.82 9.67-9.17 16.15-15.09 19.46-17.64-1.56-2.44-3.37-4.43-5.43-6.11-2.12-1.62-5.17-3.74-9.36-6.3z"/></g><g fill="#2f2f2f"><path d="m2581.15 12086.45v2.81c-4.3.37-7.54 1.12-9.66 2.3-2.2 1.19-3.94 2.75-5.31 4.8 0 21.32 1.8 46.51 5.43 75.43 3.62 28.93 7.23 58.35 10.91 88.34 3.68 29.92 5.55 55.6 5.55 76.92 1.68.87 3.68 1.81 5.86 2.75 2.24.93 3.99 1.68 5.36 2.18-3.06.74-6.42 1.31-10.04 1.62-3.55.31-7.17.43-10.78.43-2.56 0-6.36-.06-11.42-.12-5.05-.06-8.67-.13-10.91-.13-.69-1.18.81-2.61 4.43-4.11 3.61-1.56 5.86-2.93 6.73-4.18.87-1.18 1.43-2.61 1.68-4.24.25-1.62.38-4.23.38-7.85 0-21.13-1.06-41.77-3.25-61.78-2.11-20.01-5.17-40.83-9.16-62.4-3.93-21.63-7.79-42.58-11.59-62.83l-5.68 6.17c-7.23 16.02-16.34 36.71-27.25 62.21-10.97 25.43-21.13 49.12-30.62 71.19-9.47 22.01-19.38 44.57-29.67 67.82h-1.81c-8.61-23.06-19.02-50.36-31.11-81.91-12.17-31.54-21.96-57.41-29.31-77.55-7.42-20.13-14.72-41.51-21.95-64.08l-2.87-3.62c-3.81 5.18-6.8 10.85-9.04 17.08-2.25 6.18-5.86 19.95-10.97 41.21-5.05 21.32-9.42 39.4-13.03 54.3-3.62 14.9-7.62 32.85-12.04 53.79-4.37 20.95-7.61 38.72-9.67 53.37.38 1.68 1.87 2.74 4.55 3.05 2.62.38 3.56 1.81 2.68 4.36h-38.53l10.36-14.21c5.79-20.01 14.27-47 25.37-80.98 11.1-33.97 19.77-60.96 25.94-81.04 6.17-20.13 11.85-41.01 17.02-62.71-.69-2.87-2.18-4.99-4.49-6.36-2.37-1.43-6.86-2.12-13.59-2.12 4.49-3.36 9.1-5.98 13.84-7.91 4.74-1.94 9.73-2.87 15.1-2.87h2.8c1.37.37 2.43.5 3.12.5 1.37 1.93 2.74 4.05 4.11 6.36 1.37 2.3 4.62 9.66 9.67 22 5.11 12.28 11.72 30.86 19.88 55.73 8.18 24.81 16.22 49.19 24.14 73.19 7.91 23.94 15.96 45.63 24.26 65.14l6.17-8.29c10.47-23.19 21.5-47.56 33.05-73.25 11.47-25.62 21.82-49.62 30.92-71.94 9.11-22.25 17.09-44.44 24.01-66.57 2.37-1.06 5.17-1.81 8.23-2.25 3.11-.43 6.92-.62 11.35-.62 1.75 0 3.49.12 5.3.44 1.81.31 3.68.43 5.55.43z"/><path d="m2703.01 12241.36c4.3-.87 8.04-1.31 11.1-1.31 6.23 0 11.72 1.25 16.64 3.74 4.93 2.5 9.24 6.67 12.91 12.41 3.68 5.8 6.61 10.78 8.67 14.9 2.06 4.11 3.05 8.35 3.05 12.65 0 3.49-2.37 9.91-7.1 19.39-4.68 9.54-11.6 18.7-20.65 27.55-8.97 8.92-20.07 13.34-33.1 13.34-1.25 0-1.99 0-2.37 0-8.55 0-16.15-2.55-22.82-7.6-6.61-5.11-12.1-11.47-16.52-19.08-4.38-7.66-6.56-14.58-6.56-20.82 0-5.11 2.12-11.53 6.31-19.2 4.24-7.67 10.6-14.9 19.14-21.82 8.47-6.85 18.95-11.59 31.3-14.15zm10.35 14.59c-2.62-1.5-5.24-2.62-7.86-3.37-2.68-.68-5.42-.99-8.16-.99-5.68 0-11.11 1.43-16.22 4.36-5.18 2.99-9.73 6.73-13.72 11.41-3.92 4.67-5.92 9.78-5.92 15.33 0 3.06.38 5.86 1.06 8.29.69 2.37 2.37 7.05 5.11 13.97 2.81 6.92 7.48 12.78 14.09 17.64 6.61 4.8 14.6 7.23 23.89 7.23 6.67 0 12.47-1.56 17.39-4.67 4.92-3.12 9.17-7.42 12.79-12.97 3.62-5.49 5.42-11.22 5.42-17.08 0-5.18-1.37-10.47-3.99-15.96-2.68-5.42-5.8-9.79-9.42-13.03-3.62-3.3-8.48-6.67-14.46-10.16z"/><path d="m2870.51 12085.58c4.99.75 9.97 1.18 14.96 1.18h10.86 8.54c2.74 0 5.73.07 8.97.32-3.24.68-5.98 1.3-8.22 1.93-2.25.62-3.62 2.18-4.12 4.8 0 20.32-.19 39.52-.5 57.54-.31 18.01-.68 39.77-1 65.26 0 21.76.38 40.65 1.19 56.67.75 16.02 2.24 33.41 4.49 52.24 1 2.43 2.12 4.3 3.36 5.67 1.19 1.37 2.87 2.43 5.12 3.12 1.74.5 4.05-.37 6.98-2.62 2.87-2.31 5.3-2.93 7.17-1.87-2.75 3.8-5.43 6.98-8.11 9.6-2.68 2.56-5.67 3.87-8.91 3.87-1.87 0-4.05-.81-6.42-2.37-2.12-4.05-4.18-6.92-6.36-8.61-2.12-1.68-4.43-2.49-6.81-2.49-2.93 0-7.66 2.06-14.21 6.17-6.54 4.12-11.72 6.17-15.46 6.17-2.93 0-5.86 0-8.79 0-2.94 0-5.74 0-8.55 0-6.36 0-11.59-.37-15.83-1.18-4.24-.75-9.23-2.99-15.09-6.8-5.87-3.8-10.73-9.1-14.6-15.95-3.86-6.86-5.79-14.34-5.79-22.38 0-5.36 1.12-12.1 3.36-20.39 2.25-8.23 7.17-15.4 14.84-21.57 7.68-6.23 15.84-10.22 24.63-12.15 8.79-1.87 15.46-2.81 20.15-2.81 5.98 0 11.84.81 17.52 2.43 5.67 1.69 11.28 3.93 16.76 6.86 0-7.61-.93-24.25-2.8-50.06s-2.81-44.82-2.81-57.04v-5.98c0-11.72-.25-20.95-.74-27.68-.57-6.67-1.56-11.66-3-14.84-1.49-3.18-3.24-4.8-5.3-4.8-1.55 0-3.11.32-4.67.88s-2.62.87-3.12.87zm-40.97 166.01c-6.61 3.8-11.47 8.16-14.77 13.02-3.32 4.93-4.94 10.91-4.94 17.96 0 8.79.88 16.08 2.62 21.94 1.7 5.86 5.25 11.6 10.61 17.33 5.36 5.67 11.03 9.66 17.08 11.97s13.29 3.49 21.77 3.49c5.67 0 10.78-1.31 15.27-3.99s7.48-6.73 8.91-12.15c1.5-5.43 2.81-10.98 3.93-16.77 1.12-5.74 1.68-10.73 1.68-14.84 0-5.49-.87-10.66-2.49-15.33-1.62-4.74-5.49-10.73-11.53-17.83-6.05-7.17-15.09-10.73-27.19-10.73-7.05 0-14.09 2-20.95 5.93z"/><path d="m3043.38 12255.33c0-5.36 2.93-9.04 8.85-11.16 5.93-2.06 12.41-3.12 19.52-3.12-2.93 15.02-4.43 30.05-4.43 45.07 0 7.61.38 14.59 1.19 21.01.75 6.36 1.62 11.41 2.55 15.02.94 3.62 2.12 5.43 3.5 5.43 2.43-.5 4.17-.75 5.17-.75 1.06 0 1.68.37 1.81 1.06-3.74 4.11-8.85 7.17-15.34 9.16-6.42 2-11.79 3.62-16.09 4.8.81-3.61 1.62-7.73 2.49-12.4.81-4.62 1.25-8.73 1.25-12.35 0-3.99-.31-7.6-.94-10.84-13.77 16.14-23.19 26.68-28.24 31.54-5.04 4.92-11.97 7.36-20.76 7.36-3.31 0-7.55-1.06-12.91-3.25-5.3-2.11-9.22-5.98-11.72-11.59-2.49-5.55-3.74-12.47-3.74-20.76 0-3.93.31-9.97 1-18.01.69-8.11 1-14.03 1-17.83 0-4.62-.38-8.61-1.12-11.85 0-2.43-1.69-3.61-5.06-3.61-.69 0-1.25 0-1.69 0-.37 0-.81.12-1.12.25 3.06-3.06 7.18-6.24 12.29-9.42s9.66-5.17 13.78-6.04c.31 2.43.5 4.8.5 7.23v7.23c0 3.74-.19 10.03-.56 18.89-.38 8.85-.57 13.65-.57 14.33 0 6.67.32 12.41.94 17.09.56 4.73 1.75 10.03 3.49 15.89 1.68 5.8 5.74 8.73 12.16 8.73 4.49 0 12.85-4.74 25-14.21 12.16-9.54 18.27-25.56 18.27-48.19 0-1.5 0-3.06-.06-4.49-.07-1.5-.38-4.36-.88-8.66z"/><path d="m3118.35 12088.14c4.3-.69 10.47-1.25 18.58-1.81 8.11-.5 18.64-.75 31.73-.75-.37 1.56-2.8 2.68-7.48 3.37-4.61.68-6.92 2.74-6.92 6.17 0 23.93.07 47.94.13 71.87.06 23.94.18 50.87.37 80.86.19 29.98.25 51.36.25 64.08 0 6.23.75 11.22 2.18 15.02 1.44 3.74 4.74 6.36 9.91 7.73 2.56.31 5.24-.37 8.11-2.12 2.81-1.8 5.56-3.55 8.11-5.36.31.5.5 1.37.5 2.62 0 2.62-1.56 4.93-4.74 6.86-3.19 1.93-6.05 3.61-8.48 5.11-2.5 1.5-5.8 2.24-9.92 2.24-2.05 0-4.05-.18-5.92-.49-1.87-.38-4.55-1.06-7.98-2.06l-4.11-5.18-7.49-190.25-2.06-50.37c-.69-2.93-2.62-4.74-5.73-5.43-3.06-.68-6.11-1.43-9.04-2.11z"/><path d="m3253.61 12245.54c4.5-2.93 9.3-4.36 14.47-4.36 5.49 0 10.85 1.3 16.09 3.86 5.23 2.62 11.47 6.36 18.71 11.35-5.5 6.42-16.22 16.33-32.18 29.86-15.91 13.52-25.51 22-28.81 25.43 3.62 5.49 8.04 10.04 13.22 13.53 5.12 3.55 9.73 5.55 13.78 6.11 4.05.5 7.11.75 9.23.75 4.61 0 8.54-.63 11.72-1.94 3.18-1.24 10.61-5.48 22.14-12.65-3.62 4.61-6.73 8.29-9.29 10.97-2.62 2.68-5.37 4.43-8.3 5.42-2.93.94-8.1 2.87-15.59 5.8-7.48 2.93-13.09 4.36-16.89 4.36-2.43 0-4.18-.12-5.31-.37-1.12-.25-4.42-1.68-9.91-4.18-5.55-2.49-11.22-7.66-17.14-15.46-5.99-7.85-9.17-14.33-9.73-19.51-.5-5.17-.75-8.79-.75-10.85 0-10.03 3-18.7 8.92-25.99 5.92-7.36 14.46-14.71 25.62-22.13zm15.78 9.1c-3.43-2.24-7.35-3.37-11.66-3.37-7.61 0-13.85 3.12-18.71 9.42-4.8 6.29-7.23 13.46-7.23 21.57 0 7.91 2.43 15.64 7.29 23.25 7.42-4.68 15.96-11.6 25.64-20.82 9.66-9.17 16.14-15.09 19.45-17.64-1.56-2.44-3.37-4.43-5.43-6.11-2.12-1.62-5.17-3.74-9.35-6.3z"/><path d="m3378.28 12241.18h8.79c5.49 0 9.92.56 13.16 1.68s5.98 3.49 8.23 7.11c-.69 4.11-1.87 6.23-3.56 6.23-.87 0-3.49-2.12-7.85-6.23-4.36-4.12-7.42-6.18-9.16-6.18-5.43 0-10.11.94-13.85 2.87-3.81 1.87-6.42 4.61-7.86 8.17-1.43 3.49-2.18 6.54-2.18 9.16 0 4.49 1.5 8.85 4.49 13.09s9.72 7.73 20.21 10.6c10.47 2.87 16.52 6.67 18.26 11.53 1.68 4.8 2.56 8.73 2.56 11.66 0 3.62-.81 7.11-2.43 10.47-1.69 3.37-4.18 6.98-7.49 10.91-3.36 3.87-6.85 6.92-10.47 9.17-3.61 2.24-7.73 3.36-12.35 3.36-3.31 0-6.67-.68-10.22-2.12-3.5-1.37-6.11-3.61-7.86-6.79-1.68-4.37-2.93-7.48-3.61-9.42 1.74 0 5.11 1.56 10.22 4.74 5.05 3.18 8.29 4.99 9.79 5.43 1.43.43 3.87.68 7.36.68 2.74 0 5.36-.56 7.98-1.68 2.56-1.12 4.74-2.99 6.42-5.67 1.75-2.68 2.62-5.61 2.62-8.73 0-2.56-1-5.43-2.99-8.54-2-3.12-8.73-6.49-20.27-10.1-11.53-3.62-17.89-7.73-19.2-12.28-1.31-4.61-2.18-8.35-2.75-11.28-.49-2.93-.74-5.3-.74-6.99 0-4.86 1.43-9.78 4.36-14.77 2.93-5.05 5.92-8.98 8.91-11.78 3-2.87 6.86-4.3 11.48-4.3z"/></g><g fill="#dddad6"><path d="m2570.14 12083.54v2.81c-4.3.37-7.54 1.12-9.67 2.3-2.19 1.19-3.93 2.75-5.3 4.8 0 21.32 1.8 46.51 5.42 75.43 3.63 28.93 7.24 58.35 10.92 88.34 3.68 29.92 5.55 55.6 5.55 76.92 1.68.87 3.68 1.81 5.86 2.75 2.24.93 3.99 1.68 5.36 2.18-3.06.74-6.42 1.31-10.04 1.62-3.55.31-7.17.43-10.78.43-2.56 0-6.37-.06-11.42-.12s-8.67-.13-10.91-.13c-.69-1.18.81-2.61 4.43-4.11 3.61-1.56 5.86-2.93 6.73-4.18.87-1.18 1.43-2.61 1.68-4.24.25-1.62.38-4.23.38-7.85 0-21.13-1.06-41.77-3.25-61.78-2.11-20.01-5.17-40.83-9.16-62.4-3.93-21.63-7.79-42.58-11.59-62.83l-5.68 6.17c-7.23 16.02-16.34 36.71-27.25 62.21-10.97 25.43-21.14 49.12-30.62 71.19-9.47 22.01-19.38 44.57-29.67 67.82h-1.82c-8.6-23.06-19.01-50.36-31.1-81.91-12.17-31.54-21.96-57.41-29.31-77.55-7.42-20.13-14.72-41.51-21.96-64.08l-2.86-3.62c-3.81 5.18-6.8 10.85-9.04 17.08-2.25 6.18-5.86 19.95-10.97 41.21-5.05 21.32-9.42 39.4-13.03 54.3-3.63 14.9-7.62 32.85-12.04 53.79-4.37 20.95-7.61 38.72-9.67 53.37.38 1.68 1.87 2.74 4.55 3.05 2.62.38 3.56 1.81 2.68 4.36h-38.53l10.35-14.21c5.8-20.01 14.28-47 25.38-80.98 11.1-33.97 19.77-60.96 25.94-81.04 6.17-20.13 11.85-41.01 17.02-62.71-.69-2.87-2.18-4.99-4.49-6.36-2.37-1.43-6.86-2.12-13.59-2.12 4.49-3.36 9.1-5.98 13.84-7.91 4.74-1.94 9.73-2.87 15.09-2.87h2.81c1.37.37 2.43.5 3.12.5 1.37 1.93 2.74 4.05 4.11 6.36 1.37 2.3 4.62 9.66 9.67 22 5.11 12.28 11.72 30.86 19.88 55.73 8.18 24.81 16.22 49.19 24.14 73.19 7.91 23.94 15.96 45.63 24.26 65.14l6.17-8.29c10.47-23.19 21.5-47.56 33.05-73.25 11.47-25.62 21.82-49.62 30.92-71.94 9.11-22.25 17.09-44.44 24.01-66.57 2.37-1.06 5.17-1.81 8.23-2.25 3.11-.43 6.92-.62 11.34-.62 1.75 0 3.5.12 5.31.44 1.81.31 3.68.43 5.55.43z"/><path d="m2692 12238.45c4.3-.87 8.04-1.31 11.1-1.31 6.23 0 11.72 1.25 16.64 3.74 4.93 2.5 9.24 6.67 12.91 12.41 3.68 5.8 6.61 10.78 8.67 14.9 2.06 4.11 3.05 8.35 3.05 12.65 0 3.49-2.37 9.91-7.1 19.39-4.68 9.54-11.6 18.7-20.65 27.55-8.97 8.92-20.07 13.34-33.1 13.34-1.26 0-2 0-2.38 0-8.54 0-16.14-2.55-22.81-7.6-6.61-5.11-12.1-11.47-16.53-19.08-4.37-7.66-6.55-14.58-6.55-20.82 0-5.11 2.12-11.53 6.3-19.2 4.25-7.67 10.61-14.9 19.15-21.82 8.47-6.85 18.95-11.59 31.3-14.15zm10.35 14.59c-2.62-1.5-5.24-2.62-7.86-3.37-2.68-.68-5.42-.99-8.16-.99-5.69 0-11.11 1.43-16.22 4.36-5.18 2.99-9.73 6.73-13.72 11.41-3.92 4.67-5.92 9.78-5.92 15.33 0 3.06.38 5.86 1.06 8.29.69 2.37 2.37 7.05 5.11 13.97 2.81 6.92 7.48 12.78 14.09 17.64 6.61 4.8 14.6 7.23 23.89 7.23 6.67 0 12.47-1.56 17.39-4.67 4.92-3.12 9.16-7.42 12.79-12.97 3.62-5.49 5.42-11.22 5.42-17.08 0-5.18-1.37-10.47-3.99-15.96-2.68-5.42-5.8-9.79-9.42-13.03-3.62-3.3-8.48-6.67-14.46-10.16z"/><path d="m2859.5 12082.67c4.99.75 9.97 1.18 14.96 1.18h10.86 8.54c2.74 0 5.73.07 8.97.32-3.24.68-5.98 1.3-8.22 1.93-2.25.62-3.62 2.18-4.12 4.8 0 20.32-.19 39.52-.5 57.54-.31 18.01-.68 39.77-1 65.26 0 21.76.38 40.65 1.19 56.67.75 16.02 2.24 33.41 4.49 52.24 1 2.43 2.12 4.3 3.36 5.67 1.19 1.37 2.87 2.43 5.12 3.12 1.74.5 4.05-.37 6.98-2.62 2.87-2.31 5.3-2.93 7.17-1.87-2.75 3.8-5.43 6.98-8.11 9.6-2.68 2.56-5.67 3.87-8.91 3.87-1.87 0-4.05-.81-6.42-2.37-2.12-4.05-4.18-6.92-6.36-8.61-2.12-1.68-4.44-2.49-6.81-2.49-2.93 0-7.66 2.06-14.21 6.17-6.54 4.12-11.72 6.17-15.46 6.17-2.93 0-5.86 0-8.8 0-2.93 0-5.73 0-8.54 0-6.36 0-11.59-.37-15.83-1.18-4.24-.75-9.23-2.99-15.1-6.8-5.86-3.8-10.72-9.1-14.59-15.95-3.86-6.86-5.79-14.34-5.79-22.38 0-5.36 1.12-12.1 3.36-20.39 2.25-8.23 7.17-15.4 14.84-21.57 7.68-6.23 15.84-10.22 24.63-12.15 8.79-1.87 15.46-2.81 20.15-2.81 5.98 0 11.84.81 17.52 2.43 5.67 1.69 11.28 3.93 16.76 6.86 0-7.61-.93-24.25-2.8-50.06s-2.81-44.82-2.81-57.04v-5.98c0-11.72-.25-20.95-.74-27.68-.57-6.67-1.56-11.66-3-14.84-1.49-3.18-3.24-4.8-5.3-4.8-1.55 0-3.11.32-4.67.88s-2.62.87-3.12.87zm-40.97 166.01c-6.61 3.8-11.47 8.16-14.78 13.02-3.31 4.93-4.93 10.91-4.93 17.96 0 8.79.88 16.08 2.62 21.94 1.69 5.86 5.25 11.6 10.61 17.33 5.36 5.67 11.03 9.66 17.08 11.97s13.28 3.49 21.77 3.49c5.67 0 10.78-1.31 15.27-3.99s7.48-6.73 8.91-12.15c1.5-5.43 2.81-10.98 3.93-16.77 1.12-5.74 1.68-10.73 1.68-14.84 0-5.49-.87-10.66-2.49-15.33-1.62-4.74-5.49-10.73-11.53-17.83-6.05-7.17-15.09-10.73-27.19-10.73-7.05 0-14.09 2-20.95 5.93z"/><path d="m3032.37 12252.42c0-5.36 2.93-9.04 8.85-11.16 5.93-2.06 12.41-3.12 19.52-3.12-2.93 15.02-4.43 30.05-4.43 45.07 0 7.61.38 14.59 1.19 21.01.75 6.36 1.62 11.41 2.55 15.02.94 3.62 2.12 5.43 3.5 5.43 2.43-.5 4.17-.75 5.17-.75 1.06 0 1.68.37 1.81 1.06-3.74 4.11-8.85 7.17-15.34 9.16-6.42 2-11.79 3.62-16.09 4.8.81-3.61 1.62-7.73 2.49-12.4.81-4.62 1.25-8.73 1.25-12.35 0-3.99-.31-7.6-.94-10.84-13.77 16.14-23.19 26.68-28.24 31.54-5.04 4.92-11.97 7.36-20.76 7.36-3.31 0-7.55-1.06-12.91-3.25-5.3-2.11-9.22-5.98-11.72-11.59-2.49-5.55-3.75-12.47-3.75-20.76 0-3.93.31-9.97 1-18.01.7-8.11 1.01-14.03 1.01-17.83 0-4.62-.38-8.61-1.13-11.85 0-2.43-1.69-3.61-5.05-3.61-.69 0-1.25 0-1.69 0-.37 0-.81.12-1.12.25 3.06-3.06 7.17-6.24 12.29-9.42 5.11-3.18 9.66-5.17 13.78-6.04.31 2.43.5 4.8.5 7.23v7.23c0 3.74-.19 10.03-.56 18.89-.38 8.85-.57 13.65-.57 14.33 0 6.67.32 12.41.94 17.09.56 4.73 1.75 10.03 3.49 15.89 1.68 5.8 5.74 8.73 12.16 8.73 4.48 0 12.85-4.74 25-14.21 12.16-9.54 18.27-25.56 18.27-48.19 0-1.5 0-3.06-.06-4.49-.07-1.5-.38-4.36-.88-8.66z"/><path d="m3107.34 12085.23c4.3-.69 10.47-1.25 18.57-1.81 8.12-.5 18.65-.75 31.74-.75-.37 1.56-2.8 2.68-7.48 3.37-4.61.68-6.92 2.74-6.92 6.17 0 23.93.07 47.94.13 71.87.06 23.94.18 50.87.37 80.86.19 29.98.25 51.36.25 64.08 0 6.23.75 11.22 2.18 15.02 1.44 3.74 4.74 6.36 9.91 7.73 2.56.31 5.24-.37 8.11-2.12 2.8-1.8 5.56-3.55 8.11-5.36.31.5.5 1.37.5 2.62 0 2.62-1.56 4.93-4.74 6.86-3.19 1.93-6.05 3.61-8.48 5.11-2.5 1.5-5.8 2.24-9.92 2.24-2.05 0-4.05-.18-5.92-.49-1.87-.38-4.55-1.06-7.98-2.06l-4.11-5.18-7.49-190.25-2.06-50.37c-.69-2.93-2.62-4.74-5.73-5.43-3.06-.68-6.11-1.43-9.04-2.11z"/><path d="m3242.6 12242.63c4.49-2.93 9.3-4.36 14.47-4.36 5.49 0 10.85 1.3 16.09 3.86 5.23 2.62 11.47 6.36 18.71 11.35-5.5 6.42-16.22 16.33-32.18 29.86-15.91 13.52-25.51 22-28.81 25.43 3.62 5.49 8.04 10.04 13.22 13.53 5.12 3.55 9.73 5.55 13.78 6.11 4.05.5 7.11.75 9.23.75 4.61 0 8.54-.63 11.72-1.94 3.18-1.24 10.61-5.48 22.14-12.65-3.62 4.61-6.73 8.29-9.29 10.97-2.62 2.68-5.37 4.43-8.3 5.42-2.93.94-8.1 2.87-15.59 5.8-7.48 2.93-13.09 4.36-16.89 4.36-2.44 0-4.19-.12-5.31-.37s-4.42-1.68-9.91-4.18c-5.55-2.49-11.22-7.66-17.14-15.46-5.99-7.85-9.17-14.33-9.73-19.51-.5-5.17-.76-8.79-.76-10.85 0-10.03 3.01-18.7 8.93-25.99 5.92-7.36 14.46-14.71 25.62-22.13zm15.78 9.1c-3.43-2.24-7.35-3.37-11.67-3.37-7.6 0-13.84 3.12-18.7 9.42-4.8 6.29-7.23 13.46-7.23 21.57 0 7.91 2.43 15.64 7.29 23.25 7.42-4.68 15.96-11.6 25.64-20.82 9.66-9.17 16.14-15.09 19.45-17.64-1.56-2.44-3.37-4.43-5.43-6.11-2.12-1.62-5.17-3.74-9.35-6.3z"/><path d="m3367.27 12238.27h8.79c5.49 0 9.92.56 13.16 1.68s5.98 3.49 8.23 7.11c-.69 4.11-1.87 6.23-3.56 6.23-.87 0-3.49-2.12-7.85-6.23-4.36-4.12-7.42-6.18-9.16-6.18-5.43 0-10.11.94-13.85 2.87-3.81 1.87-6.42 4.61-7.86 8.17-1.43 3.49-2.18 6.54-2.18 9.16 0 4.49 1.5 8.85 4.49 13.09s9.72 7.73 20.21 10.6c10.47 2.87 16.52 6.67 18.26 11.53 1.68 4.8 2.56 8.73 2.56 11.66 0 3.62-.81 7.11-2.43 10.47-1.69 3.37-4.18 6.98-7.49 10.91-3.36 3.87-6.85 6.92-10.47 9.17-3.61 2.24-7.73 3.36-12.35 3.36-3.31 0-6.67-.68-10.22-2.12-3.5-1.37-6.11-3.61-7.86-6.79-1.68-4.37-2.93-7.48-3.61-9.42 1.74 0 5.11 1.56 10.22 4.74 5.05 3.18 8.29 4.99 9.79 5.43 1.43.43 3.86.68 7.36.68 2.74 0 5.36-.56 7.98-1.68 2.56-1.12 4.74-2.99 6.42-5.67 1.75-2.68 2.62-5.61 2.62-8.73 0-2.56-1-5.43-2.99-8.54-2-3.12-8.73-6.49-20.27-10.1-11.53-3.62-17.89-7.73-19.2-12.28-1.31-4.61-2.18-8.35-2.75-11.28-.49-2.93-.74-5.3-.74-6.99 0-4.86 1.43-9.78 4.36-14.77 2.93-5.05 5.92-8.98 8.91-11.78 3-2.87 6.86-4.3 11.48-4.3z"/></g></g><path d="m2038.91 12449.1c.06 3.02-1.85 8.06-2.79 11.09-.93 4.03-1.36 7.56-2.28 11.59-.84 8.07-2.68 16.64-3 25.21h1.01c3.37-7.56 8.26-15.12 12.15-22.18 10.18-19.66 26.78-45.88 40.05-63.02 10.8-14.12 20.18-24.2 33.57-35.29 8.41-8.07 30.27-24.2 41.3-27.73 6.69 6.05 9.21 6.05 10.35 12.1 1.15 6.55 1.3 13.61 1.94 20.17.64 6.05.84 15.62.96 21.17.14 6.55-.71 14.12-.06 21.18.95-3.03 1.83-9.08 2.26-12.61 5.96-28.23 13.02-52.43 26.1-78.14 6.29-12.61 24.81-43.87 33.64-55.97 1.95-3.02 3.91-6.05 6.38-8.57 1.96-2.52 4.93-5.54 6.89-8.06-5.25-9.58-8.38-14.62-15.63-23.2-5.68-6.05-12.93-14.62-18.59-19.66 3.34-9.07 12.73-18.65 23.29-20.67 8.53-2.02 17.75 4.03 23.9 8.57 1.55 1.51 3.62 4.04 6.15 4.54l-.01-.5c-.51-.51 0 0-.51-.51l-5.77-10.08c-4.72-8.57-15.1-21.68-22.29-27.73-10.81-10.08-24.07-16.64-38.76-19.16-2.03-.5-4.06-1.01-6.6-1.51 1.07 2.52 14.86 10.59 18.56 18.15 4.23 9.07.99 23.19-5.48 27.22-5.48 3.53-17.29-6.05-24.44-10.08l-22-14.12c-.57-3.02 8.08-23.19 9.5-27.73 8.71-17.64 7.35-10.58 24.44-13.61-7.67-5.04-19.84-7.56-30.46-8.57-22.25-2.02-29.14 6.05-32.18 5.55-1.1-4.04.03-22.19-.11-28.74-1.1-28.23-8.03-45.38-28.07-62.52-17.99-15.12-35.86-24.7-60.19-29.74-4.06-1.01-8.12-2.02-12.67-2.52l-12.13-1.01c-1.02-.51-.51 0-1.02-.51h-18.68c-3.51 1.01-1.51 0-7.04 1.01-2.02 0-4.53.51-6.55.51-13.59 2.01-22.63 4.03-35.64 9.07-13.01 5.55-26.95 14.62-35.85 23.19-10.4 9.58-18.8 18.15-22.96 35.8-3.68 17.14-.73 37.31-.33 55.96-4.58-1.51-9.17-4.03-14.76-5.54-14.19-3.03-38.32 1.51-49.3 7.56 4.59 2.01 13.63 0 18.22 2.01 3.07 2.02 5.72 8.07 7.83 12.61 2.12 4.54 11.16 26.21 11.22 29.24-5.94 5.55-12.4 10.08-18.86 15.12-7.44 6.05-15.86 13.62-21.58 5.55-4.68-6.55-8.92-16.13-6.12-26.72 1.91-5.04 12.3-15.13 16.28-17.65-7.07-.5-18.56 5.05-23.05 7.57-6.47 4.53-11.42 9.07-15.84 14.62-5.92 6.55-14.23 19.16-17.59 27.73l-3.83 9.58c-.48 1 .01.5-.48 1l.02 1.01c3.48-2.52 4.92-6.05 12.39-10.59 4.98-3.02 11-5.04 18.12-2.52 9.16 3.53 19.08 19.16 20.72 25.21-.47 1.51-.98 1.51-1.97 2.52-5.91 6.56-22.53 32.27-22.39 38.82-.96 2.52-.49.51.03 1.52 2.39-6.56 18.56-29.25 22.96-35.8l10.94 15.63 56.34 63.02c6.21 7.06 12.9 13.11 19.61 20.17 1.54 1 2.05 1.51 3.6 3.02l9.8 10.08h.51s0 0 .01.51l-.57-3.03c-.55-2.01-2.63-5.04-3.69-7.05l-10.93-15.63c-3.11-4.04-8.3-10.59-10.91-15.13.52 1.01.52 1.01.53 1.51l3.14 5.05c.54 2.01.01.5.56 2.52-3.08-2.02-4.65-5.05-6.75-8.57-8.8-10.59-10.87-13.11-20.68-23.2l-36.11-36.8c-4.65-5.04-13.06-21.17-16.23-27.73-3.67-6.55-7.83-12.1-10.98-18.15-2.08-2.52-3.67-6.05-5.25-9.58-2.64-5.04-3.14-5.04-3.28-11.59-3.05-1.01-.54-1.52 1.49-1.01 2.53 0 2.04 1.01 2.11 4.03 1.2 9.08 6.9 16.13 11.61 24.2 5.27 10.08 11.05 21.18 16.31 31.26l.53 1.01c1.05 2.01 2.62 4.54 4.15 5.54l.52.51c1.07 3.02 29.4 29.74 35.57 35.29 3.6 3.02 10.84 11.09 13.94 14.62l5.71 7.56 3.11 3.53c-2.59-3.02-4.16-5.54-6.25-9.07-8.82-11.09-19.11-20.17-29.41-30.25-2.58-2.52-5.15-4.54-7.72-7.06l-14.95-14.62-.52-.51c-2.59-3.53-3.64-5.04-5.75-9.58-2.14-5.54-13.15-25.2-13.21-27.72l-.01-.51c17.68.51 16.14-.5 26.56-9.07 5.47-4.04 14.38-12.1 20.38-14.62-.78 10.58-27.52 34.78-22.81 42.85 2.6 3.53 24.64 19.66 33.05 35.29 5.27 10.59 24.62 42.35 32.43 53.44 8.84 12.61 5.74 9.08 12.56 21.18 1.59 3.53 4.71 8.06 5.29 11.59 2.05 1.52 1.61 4.54 3.18 7.06s3.11 4.03 4.67 6.05c1.57 2.52 3.11 4.03 4.16 6.05l13.51 18.15c3.12 4.03 5.18 6.05 7.25 8.57l9.33 11.6c8.3 10.59 12.95 15.63 20.76 27.22 1.57 2.52 7.31 11.09 7.86 13.61l-2.06-2.01c-3.61-3.53-3.1-3.53-5.7-7.06-1.56-2.02-2.06-2.02-3.64-5.04-1.04-1.51-.52-1.01-1.57-2.52l-6.2-7.06c-5.74-8.57-12.97-16.64-19.19-24.2-3.62-4.03-10.35-12.1-14.46-15.63-3.08-2.52-3.12-4.03-11.33-10.59-2.04-1.01-3.07-2.01-5.11-3.02-3.61-3.53-11.28-8.07-15.37-10.59-7.15-4.03-14.31-8.57-22.46-12.1-11.73-5.55-14.8-7.56-18.54 6.55-2.79 11.1-.57 20.68-.32 32.27-.54-1.51-3.16-6.05-3.68-7.06-1.55-1.51-.49 1.01-.53-1.01-1.14-6.05-24.19-45.87-27.34-51.42-8.37-14.12-16.67-24.7-26.03-37.81-2.59-3.03-11.91-14.12-14.96-15.13.53 1.01 0 0 .54 1.52 1.05 2.01 5.16 5.54 7.22 7.56 7.24 8.06 13.49 17.14 19.74 26.21 15.62 22.69 33.43 53.45 42.57 79.66 3.21 8.57 8.12 26.22 9.85 36.3.57 3.03 1.24 10.59 2.29 12.61-.09-4.04-.67-7.57-.75-11.6-.85-16.13.16-39.83 1.85-55.46.77-11.09 3.35-8.57 7.24-15.63 7.58.51 38.81 21.18 44.45 25.72 13.85 10.08 24.69 21.67 35.57 34.78 10.85 12.1 20.24 26.22 29.14 41.34 4.69 7.06 21.48 37.31 24.19 45.88h1.01c-.17-7.56-1.94-19.66-3.11-27.22-1.09-4.04-1.69-8.57-2.79-12.61-1.08-3.53-2.7-8.57-3.78-11.59-1.04-1.51-2.66-6.56-3.21-8.57 13.18 2.52 22.29 3.53 31.22-3.53 0 0 0 0 .5-.51 1.03 1.01-.96 2.52-1.35 8.07-.45 2.52-.38 5.55-1.34 8.07zm-242.07-181.5.01.5c2.01-.5.51 0-.01-.5zm.48-1.01h.51s-.52-.5-.53-1.01zm418.97-68.57c1.44-3.53 3.39-6.55 4.81-11.09 1.86-7.56-.31-14.62 2.71-15.12l4.57 1.51c-.95 2.52-2.42 4.54-3.85 8.57-2.31 10.08-14.87 36.8-19.74 44.87-1.97 2.52-3.44 4.54-5.4 7.56-4.9 6.56-5.88 8.07-11.29 14.62-1.99 1.52-5.46 4.54-6.43 6.56-3.39 6.55-13.83 14.12-18.75 20.17-1.47 2.01-3.41 5.54-4.87 8.06l-11.3 14.62c-1.44 3.53-1.46 2.52-2.41 5.55 3.02-.51 1.5-1.01 5.5-2.52-3.5 1.51-3.91 6.05-4.9 7.06-2.34 8.57-10.25 16.13-15.62 24.7-3.91 6.05-7.28 13.61-11.21 19.16-1.46 2.52-2.94 4.03-3.89 6.55-.98 1.51-.96 2.52-1.44 3.53 1.99-1.01 2.48-2.02 3.96-3.53 1-.5.99-1.01 1.99-1.51l8.87-10.08c8.88-9.58 12.23-18.15 18.61-26.72 4.9-7.06 7.86-10.09 12.75-17.65l6.37-9.08c-2.53 0-3.53.51-6.04 1.01.96-2.52-.01-.5 1.46-2.52l8.86-10.58c3.44-4.54 10.38-10.59 14.79-16.64l10.84-12.61c1.48-1.51 1.96-2.52 3.44-4.03l17.71-21.68 23.21 23.19c1.57 2.52 5.71 7.57 6.26 9.58-6.91 7.56-12.79 15.63-18.66 24.71l-14.64 23.69c-11.23 17.65-18.92 35.8-27.11 54.45-3.36 8.07-.86 7.06-3.88 7.06l-.58-3.53c-.09-4.03-.16-7.56-1.26-11.6-1.11-5.04-4.35-14.62-7.45-18.15-2.6-3.52-11.54 3.03-16.53 6.05-16.46 9.08-21.43 12.61-34.81 24.2l-16.29 17.15c-4.95 4.53-9.36 11.09-13.79 16.13l-7.38 9.07c-1 .51-1.49 1.01-1.98 2.02-1.48 1.51-2.46 3.03-3.42 5.04-.49 1.01-.98 1.52-1.98 2.02-3.42 5.55-8.81 13.11-11.21 18.65-.98 1.52-5.36 9.08-7.37 9.58-1.05-2.01-.1-4.54 1.39-6.05.98-1.01.99-.5 1.97-2.01.97-2.02-.02-1.01 1.97-2.53 1.89-6.05 15.11-25.2 19.04-30.24 7.82-12.1 16.58-27.23 23.94-37.31 4.39-7.06 9.24-16.64 13.11-24.2 2.9-6.05 5.32-11.09 8.23-16.64 1.93-4.03 7.34-11.09 8.24-16.13-.54-1.52-.02-1.01-1.02-.51-.5.51-.49 1.01-.98 1.51-1.03-1 .43-3.52 1.86-7.56.95-2.52 1.9-5.54 2.36-7.56l-26.24 47.9c-3.87 7.56-8.74 16.13-12.62 23.69-4.37 8.07-8.75 15.63-13.64 23.19-4.37 8.07-9.78 14.62-13.64 23.19-1.95 3.03-5.38 8.07-7.85 10.59-3.95 4.03-4.41 6.05-6.82 11.6-5.85 9.58-10.16 20.67-14.99 30.75-1.92 4.54-7.73 16.13-8.68 19.16 1.35-7.56 13.43-33.28 14.32-38.82 1.41-5.04 5.77-13.61 8.71-17.65 3.93-5.04 5.97-4.03 12.31-14.62 7.82-12.1 12.23-18.15 20.5-32.77 6.82-11.59 13.16-22.18 19.47-33.78 12.64-22.68 22.71-47.89 36.37-70.08 5.38-8.06 24.82-43.35 30.23-49.91 2.47-2.52 11.36-11.59 12.31-14.62.45-2.52-10.42-15.12-13.5-17.64-7.68-5.55-11.26-7.57-18.94-12.61.94-3.53 2.41-5.54 2.86-8.07 10.19 4.54 32.76 21.68 39.36 23.7 3.57 1.51 4.08 2.02 8.09.5 4.02-1 6.05-.5 9.59 0zm-309.24 30.76h4.55c.06 3.02-2.71 15.12-3.64 19.16-.01-.51-.01-.51-.53-1.52 0 0-.53-1-.53-1-1.09-4.04-1.29-13.11-2.36-16.14l-3.05-1.01c.38-6.05 5.97-4.03 5.97-4.03 2.02 0-3.03 0 1-.5 2.51-.51 3.53 0 6.08 1 .04 2.02.04 2.02-.43 3.53 0 0-9.08.51-9.59 0zm212.46-1.01 1.53.5-2.1 20.17c-1.07-3.02-1.65-6.55-2.23-10.08-1.07-3.03-2.15-6.05-2.22-9.58l-.52-.51c-1.04-1.51-.54-1.51-.57-3.02 2-1.01 5.51-2.02 8.06-1.01 2.03.5 2.05 1.51 2.57 2.52zm119.05-50.42c-.5 0-.5 0-.5 0l-1.02-.5c-.52-.51-.52-.51-.52-.51l-27.09-16.13c-2.55-1.51-7.16-4.54-9.21-6.05 9.1 1.01 31.07 13.61 37.3 21.68.01.5.01.5.01.5s.52.51.52.51zm-444.64 0c.44-3.02.46-2.01 2.92-5.04 1.49-1.01 2.48-2.02 3.46-3.53 5.44-5.04 18.35-15.12 26.39-16.64-4.46 3.53-12.44 8.07-16.9 12.1-6.44 5.55-2 1.01-7.42 7.06-.97 2.02-6.45 5.04-8.45 6.05zm329.32-35.79s-2.97 3.02-2.97 3.02c-1.98 1.52-2.03-.5-1.05-2.01 1.43-4.04 1.86-7.57 3.34-9.08zm-6.55.5c-2.08-2.52-3.14-5.04-.67-7.56 1.47-2.02 2.96-3.03 4.93-5.55-.38 6.05-1.84 8.57-4.26 13.11zm-.85 79.16-2.49 1.51c.01.5-.98 1.51-1.46 2.52-2.02 0-2.53 0-4.06-1.01.96-2.52-2.05-1.51 1.99-1.51h2.52c-.57-3.03-1.51 0-2.08-3.03-.99 1.01-.49 1.01-1.5 1.01-1.51 0-2.53-.5-3.05-1.01l-1.02-.5c-.1-5.04 1.28-11.09 2.2-15.63 1.85-7.56 7.2-17.14 10.59-24.2l5.83-10.59s0 0-.01-.5h.5c-.93 3.53-.35 7.06-1.29 10.59-2.31 10.08-3.83 9.57-7.75 15.12-.97 2.02-2.91 5.55-3.36 8.07 3.01-.51 13.96-8.07 15.94-9.58 2.96-3.53 4.77-13.11 6.69-18.15 2.02.5.49-.51 1.52.5-2.08-3.02.73-13.11 2.7-15.63 2.43-4.03 5.9-7.06 9.36-10.58 5.89-8.07 10.26-16.14 23.36-17.15-.46 2.02-1.93 4.04-3.39 6.56-4.84 10.08-9.13 21.68-12.44 32.26l-10.56 25.72c-3.38 7.06-1.89 6.05-7.86 10.08zm-201.87.5c-6.54 1.01-14.77-6.05-19.38-9.58-1.55-1.51-3.59-2.52-5.64-4.03-7.17-5.04-7.14-3.53-9.79-9.58-7.45-18.15-15.9-35.8-23.86-53.95l-6.33-13.11c18.26 4.54 19.99 14.63 33.92 28.74 2.58 3.03 1.6 4.03 2.2 8.57 1.63 5.55-.44 3.03-1.36 7.56h.51.5c2.55 1.01 3.77 11.1 8.94 16.64 2.05 1.51 14.33 9.58 16.85 9.58-3.22-9.07-7.31-11.59-8.86-13.61-4.72-8.07-4.28-11.09-2.91-18.15 3.57 2.02 11 19.16 12.58 22.18 2.67 7.06 6.96 18.66 7.63 26.72-5.03.51-4.54 0-6.13-3.53-3.13-5.04-8.82-11.59-13.95-15.12-1.04-1.51-4.09-2.52-6.13-3.53-7.15-4.03-10.27-8.57-15.92-13.11 3.66 6.05 12.92 14.12 19.55 17.65 6.62 2.52 7.11 2.01 10.77 8.06 1.58 3.03 5.74 8.57 6.81 11.6zm-37.65-37.81c1.55 1.51-1.03-1.01 0 0zm253.79-51.43c10.44-7.56 25.06-8.06 38.22-6.55 2.03.5 4.55.5 6.58 1.01l5.56.5c1.02.51.51 0 1.02.51-36.34 0-35.07 12.1-48.82 30.24-.98 1.01-1.98 1.52-2.96 3.03l-3.38 7.06c-.49 1.01.01.5-.49 1.01-.14-6.56 1.77-12.1 3.16-17.65 1.39-6.05 1.26-12.1 1.11-19.16zm-289.82-5.54c2.01-.51 2.01-.51 6.05-.51 20.14-2.01 24.18-2.01 43.01 5.55-.29 10.08-.28 10.59 2.44 19.66 2.15 6.05 3.27 11.6 4.92 17.65-1.53-.51-1.01 0-2.05-1.52l-8.85-12.6c-11.97-17.14-18.75-27.22-46.01-27.73zm60.89 15.12c-.05-2.01-3.16-6.05-4.24-9.58-1.09-3.53-.2-9.07-1.28-12.6 10.72 5.54 10.4 14.62 5.52 22.18zm213.45-25.71c-1.29-13.11 6.81-12.1 8.15-20.17.64 6.56 1.93 19.67-7.08 23.19l.88-6.05zm2.91-5.55c-.5.51-.51 0-.96 2.52.99-1 .99-1 .96-2.52zm-.86 7.06c1.49-1.01-.51 0-.51 0-.48 1.01.51 0 .51 0zm-5.17-5.54c-.44 3.02.1 4.53.66 7.05 1.63 5.55-3.22 15.13-.09 19.67 2.63 5.04 10.9 14.11 11.03 20.16.15 7.06-14.13 24.2-19.31 41.85-5.6 21.17-10.99 52.94-15.04 76.13l-2.6 20.16c-.48 1.01-.45 2.52-.94 3.03l-.95 3.02c-.22-10.58 2.01-24.2 3.81-34.78.45-2.52 1.34-8.07 1.3-10.09 0 0-6.42 30.76-7.23 39.83-.8 10.09-.25 12.1-4.12 20.17-2.43 4.54-5.31 11.09-8.25 15.63-.59-4.04 1.06-21.68 1.98-25.71 1.34-8.07 2.19-15.63 3.54-23.7 2.24-13.11 6.73-39.32 10.01-51.42l3.68-16.64c1.37-7.06.39-5.55 3.3-11.09.98-1.52 1.45-3.03 1.91-5.05.99-1 1.98-2.01 2.96-3.52 3.4-6.05 6.31-11.6 10.23-17.15 4.37-8.06 9.81-13.61 6.18-18.15-.95 3.03-.91 4.54-2.87 7.57-1.47 2.01-2.44 4.03-3.9 6.55-5.83 10.59-9.77 15.13-14.05 27.73-8.6 22.69-8.56 24.7-13.61 48.4-2.28 11.09-4.55 23.19-6.32 34.79-4.02 24.7-5.44 52.93-9.04 73.6-3.15 18.15-9.5 51.93-18.84 63.53-1.49 1.51-8.91 8.57-11.41 9.58-5.01 1.51-14.62.5-19.69-.51-6.08-1-10.17-3.53-15.27-6.05-5.12-3.52-7.18-5.04-9.33-11.59-7.51-20.67-15.53-41.85-21.04-64.03-3.86-15.13-4.55-24.2-6.83-36.3-2.26-11.6-4.54-23.7-7.8-34.79-2.75-10.58-6.54-22.68-9.29-33.27l-7.8-34.79c-1.85 8.07 10.66 50.42 13.4 61 1.69 8.07 9.92 39.33 9.08 47.4-.35 7.05.72 10.08.86 16.63l-1.03-1.01c-.01-.5-.53-1-.54-1.51-.52-1.01-1.04-1.51-1.56-2.52-1.05-1.51-1.58-3.02-2.63-5.04-3.15-5.55-9.42-15.63-10.04-21.18-.1-4.53-1.2-9.07-1.81-13.61-1.2-9.07-3.41-18.15-4.6-26.72-1.09-4.03-1.7-8.57-2.8-13.11-.56-2.52-2.73-9.58-2.27-11.59-.43 3.53 1.23 10.08 2.33 14.62 1.75 11.09 5.29 35.29 5.5 44.87-2.05-1.51-2.06-2.02-2.63-5.04l-2.45-20.17c-3.51-22.69-4.64-28.23-10.15-50.42-3.87-15.62-8.22-30.25-16.07-43.86-15.71-26.72-16.02-17.64-4.35-38.31 5.81-11.6 1.87-7.06 2-24.71-.01-.5-.02-1.01-.02-1.01.47-1.51.48-1 .99-1-.05-2.02-.05-2.02.44-3.03-.03-1.51.5 0-.55-2.02-.58-3.53.93-3.53-1.14-6.05l-11.82-10.08c1.05 2.02 2.06 2.02 3.65 5.55 2.65 6.05 4.61 3.02 7.77 9.58 1.07 2.52.08 3.52.66 7.05-1.56-2.01-2.62-4.53-4.18-6.55-.52-1.01-3.18-7.06-3.18-7.06l1.11 4.54c1.11 4.54 1.7 8.57 1.8 13.61-2.04-1.01-5.13-4.03-6.67-5.04-2.58-3.03-2.36-16.13-1.94-20.17.46-2.01-.65-7.06-.73-10.58 2.04 1 4.11 3.02 7.68 5.04 3.57 1.51 4.59 2.01 6.19 6.05 2.98-2.02 2-.51 2-.51-.02-1.01-.59-4.03-.6-4.53 0 0-.5 0-.51-.51-2.57-2.02-4.61-3.02-7.15-4.03l-7.66-4.04c.37-6.55.17-15.62 1.56-21.67 1.12 5.04.19 9.07.3 14.11 4.2-16.13 2.04-22.69 18.47-33.27 2.49-1.52 1.46-2.52 2.49-1.52-1.98 1.52-1.47 2.02-2.96 3.03l1.52.5c-1.99 1.01-.5 0-2.51.51.54 1.51 3.47-3.03-2.91 5.54-1.45 3.03-3.46 3.53-2.35 8.07.58 3.53 1.63 5.55 2.71 9.08 2.67 6.55 2.11 4.03 3.65 5.54.53 1.01 1-.5.04 1.51l-.06-2.52c.42-4.03-4.84-14.11-4.4-17.14.97-2.02 7.87-9.58 9.35-11.59 7.91-7.57 12.87-11.6 24.87-17.15 6.49-3.02 8.48-4.53 17.07-4.03 11.11 0 23.33 5.04 33.5 9.08 3.07 1.51 11.74 6.05 15.25 5.04 3.02-.51 16.48-8.57 30.03-12.1 15.57-3.53 21.66-2.02 34.9 3.53 11.21 5.04 17.38 10.58 24.61 18.15 6.18 6.05 8.75 8.06 7.34 13.1-.93 3.53-4.77 13.11-3.67 17.15l2.96-3.03 1.02.51h.51c.99-1.01-1.52 0 .99-1.01-2.04-1.01-1 .5-2.04-1.01 1.49-1.01 2.47-2.52 2.42-4.54l-2.46 3.03c1.44-3.53 2.89-6.56 3.31-10.59.89-5.55-2.18-7.56-4.75-10.08-1.56-2.02-.54-1.52-4.14-4.54l-5.69-6.56c-1.56-2.01-2.07-2.52-3.12-4.53 2.54 1 10.23 6.55 12.79 8.06 3.09 3.03 7.2 6.56 10.3 10.09 4.65 5.04 4.16 5.54 6.85 13.61 1.63 5.54 3.26 10.59 2.89 17.14-2.98 2.52-9.01 3.53-12.97 7.06l-1.5 1.01c-.48 1.01-.39 5.04.13 6.05.53 1.01.54 1.51.56 2.52l-.47 1.51.04 2.02s0 0 .49-.51l1-.5c2.99-2.02 3.95-4.54 4.35-9.08-1.48 1.52-1.47 2.02-2.45 3.53l-1.94 3.53-.55-2.01c-.05-2.53 3.99-2.53 5.43-6.05-2.02 0-3.5 1.51-5 2.52 1.49-1.52 4.49-2.52 6.47-4.54 1.48-1.51 4.44-4.54 6.96-5.04.26 12.6.65 7.06-2.29 11.09-.99 1.01-.97 2.02-1.96 3.02-.96 2.02-3.44 4.04-4.42 5.55-1.06-2.52.49-.5.43-3.53-1.5.5-1.49 1.01-1.49 1.01s1.48-1.51 1.98-1.51c0 0 .52.5 1-.51.98-1.51.51 0 .96-2.52-2 1.01-1.51.51-2.99 2.02-1.98 1.51-1.96 2.52-2.94 4.03l-.99 1.01s.53 1.01 1.51-.5c-.98 1.51-1.98 2.01-1.92 5.04l-.01-.51s.46-2.01.01.51c-.46 2.01.02 1.01.58 3.53zm-153.9-93.78c.9-5.04 14.99-7.06 20.51-8.57 13.08-2.02 41.85-2.02 55.01 0 4.56.51 20.76 3.03 20.87 8.07-1 .5-17.09 3.53-25.6 6.55-26.04 10.08-14.87 13.11-32.71 4.54-14.26-6.05-21.88-8.07-38.08-10.59z" fill="#270318"/><path d="m2046.16 12386.58c-2 .51-10.12-1.51-12.66-2.02-15.72-3.52-25.26-1.51-41.34 2.02 20.03-7.56 34.14-8.57 54 0zm17.4-60.5-5.16 18.66c-3.79 11.59-8.07 24.2-20.58 29.24l-6.51 2.52c-.5 0-2.51.5-3.01.5-5.54.51-19.16 1.01-23.74-.5-1.52-.51-2.54-1.01-4.57-1.51-13.74-5.55-20.58-18.66-26.4-31.26-1.6-4.04-6.38-15.13-5.95-18.66 1.02.51-.01-.5 1.55 1.52.01.5.53 1.51.54 2.01 4.23 9.08 8.03 21.68 13.74 28.74 2.07 2.52 3.6 3.53 6.17 5.55 6.69 6.05 17.36 9.57 26.95 9.57 14.13 0 28.15-5.54 33.01-14.11 2.94-4.54 12.55-27.23 13.96-32.27zm47.95-213.76c-1.53-1.01-.49.5-1.03-1.01l-1.09-4.04c-.05-2.01.93-3.52 1.92-4.53-1.03-1.01.5 0-1.53-.51-.49.51-.49.51-.49.51l-.04-2.02-.02-1.01c-.59-4.03-.45 2.52-.02-1.01-.07-3.02-.53-1-.05-2.01-.52-1.01-.61-5.04-.13-6.05-1.04-1.52-.55-2.52-.6-4.54l-4.21-8.07c-.01-.5-2.05-1.51 1.44-3.53-.51-.5-.52-1-1.04-1.51l-2.96 3.03c-1.1-4.04 2.74-13.62 3.67-17.15 1.41-5.04-1.16-7.05-7.34-13.1-7.23-7.57-13.4-13.11-24.61-18.15-13.24-5.55-19.33-7.06-34.9-3.53-13.55 3.53-27.01 11.59-30.03 12.1-3.51 1.01-12.18-3.53-15.25-5.04-10.17-4.04-22.39-9.08-33.5-9.08-8.59-.5-10.58 1.01-17.07 4.03-12 5.55-16.96 9.58-24.87 17.15-1.48 2.01-8.38 9.57-9.35 11.59-.44 3.03 4.82 13.11 4.4 17.14.52.51 1.54 1.01.57 3.03l-3.4 6.05c-1.94 4.03-1.46 2.52-1.89 6.05l.09 4.54c.01.5.58 3.52.6 4.53.05 2.02-.43 3.53.12 5.55l-1.5.5c.01.51.01.51.01.51.5 0 1.52.5 1.59 3.53l-1.42 4.53c1.05 2.02.52.51.55 2.02-.49 1.01-.49 1.01-.44 3.03.52 1 .03 1.51-.97 2.01-.13 17.65 3.81 13.11-2 24.71-11.67 20.67-11.36 11.59 4.35 38.31 7.85 13.61 12.2 28.24 16.07 43.86 5.51 22.19 6.64 27.73 10.15 50.42l2.45 20.17c.57 3.02.58 3.53 2.63 5.04-.21-9.58-3.75-33.78-5.5-44.87-1.1-4.54-2.76-11.09-2.33-14.62-.46 2.01 1.71 9.07 2.27 11.59 1.1 4.54 1.71 9.08 2.8 13.11 1.19 8.57 3.4 17.65 4.6 26.72.61 4.54 1.71 9.08 1.81 13.61.62 5.55 6.89 15.63 10.04 21.18 1.05 2.02 1.58 3.53 2.63 5.04.52 1.01 1.04 1.51 1.56 2.52.01.51.53 1.01.54 1.51l1.03 1.01c-.14-6.55-1.21-9.58-.86-16.63.84-8.07-7.39-39.33-9.08-47.4-2.74-10.58-15.25-52.93-13.4-61l7.8 34.79c2.75 10.59 6.54 22.69 9.29 33.27 3.26 11.09 5.54 23.19 7.8 34.79 2.28 12.1 2.97 21.17 6.83 36.3 5.51 22.18 13.53 43.36 21.04 64.03 2.15 6.55 4.21 8.07 9.33 11.59 5.1 2.52 9.19 5.05 15.27 6.05 5.07 1.01 14.68 2.02 19.69.51 2.5-1.01 9.92-8.07 11.41-9.58 9.34-11.6 15.69-45.38 18.84-63.53 3.6-20.67 5.02-48.9 9.04-73.6 1.77-11.6 4.04-23.7 6.32-34.79 5.05-23.7 5.01-25.71 13.61-48.4 4.28-12.6 8.22-17.14 14.05-27.73 1.46-2.52 2.43-4.54 3.9-6.55 1.96-3.03 1.92-4.54 2.87-7.57 3.63 4.54-1.81 10.09-6.18 18.15-3.92 5.55-6.83 11.1-10.23 17.15-.98 1.51-1.97 2.52-2.96 3.52-.46 2.02-.93 3.53-1.91 5.05-2.91 5.54-1.93 4.03-3.3 11.09l-3.68 16.64c-3.28 12.1-7.77 38.31-10.01 51.42-1.35 8.07-2.2 15.63-3.54 23.7-.92 4.03-2.57 21.67-1.98 25.71 2.94-4.54 5.82-11.09 8.25-15.63 3.87-8.07 3.32-10.08 4.12-20.17.81-9.07 7.23-39.83 7.23-39.83.04 2.02-.85 7.57-1.3 10.09-1.8 10.58-4.03 24.2-3.81 34.78l.95-3.02c.49-.51.46-2.02.94-3.03l2.6-20.16c4.05-23.19 9.44-54.96 15.04-76.13 5.18-17.65 19.46-34.79 19.31-41.85-.13-6.05-8.4-15.12-11.03-20.16-3.13-4.54 1.72-14.12.09-19.67-.56-2.52-1.1-4.03-.66-7.05zm-5.36-38.82h-.51c.52.5.01.5.51 0zm-196.88 93.27c6.58 1 21.81 28.73 24.51 37.3-4.16-6.05-7.34-13.1-11.51-19.15zm186.15-27.73c-1.49 1.01-1.52-.51 1.59 3.53 1.54 1 2.08 2.52 2.62 4.53-1.03-1-2.06-2.01-3.09-3.02-.52-.51-1.03-1.01-1.55-1.51 0 0-1.02-.51-1.02-.51-1.03-1.01-.51-.5-1.03-1.01 0 0-1.5.51.55 2.02 1.03 1.01 1.02.5 2.05 1.51-5.03.51-.52-1.01-6.54 1.01l1.03 1.01s.51 0 .52.5h4.54c-2.51.51-6.53 1.52-8.54 2.02-3.01.5-4.5 2.02-6.48 3.53l-4 2.02c-.99 1 2.02 0 0 0-3.52.5-6.58-1.01-9.14-2.53l.04 1.52c-2.56-1.52-5.61-2.52-7.65-3.53-2.54-1.01-4.6-2.52-7.15-4.03-1.53-.51-2.55-1.01-3.58-2.02l-3.57-2.02c-3.06-1.51-3.61-3.53-7.65-3.53l24.03 14.62c1.02.51 2.05 1.52 3.09 2.52l-12.26-6.55c-5.59-2.02-14.28-7.06-15.8-7.56-1.53-.51-2.03-.51-3.06-1.51-2.55-1.01-4.6-2.53-7.08-.51-3.46 3.53-4.88 8.07-6.3 12.1h.5s4.94-5.04 8.44-6.55c5.51-2.02 11.69 4.03 14.3 8.06 1.06 2.02 1.1 4.04 2.15 6.05 6.34 13.11 41.27 18.15 46.74 14.62 1.98-2.01 6.45-5.54 9.45-6.55l-14.18 21.17c-11.65 22.19-17.93 58.99-21.94 84.2-2.71 15.13-4.4 30.25-7.62 45.37-1.8 10.09-5.16 18.15-8 27.23-1.88 6.55-5.25 14.12-11.29 15.12-10.54 2.53-12.04 3.53-24.15 3.53-4.54 0-11.12-1-14.7-3.02l-5.63-3.53c-3.05-1.01-3.56-1.51-4.63-4.54-1.07-2.52-2.1-3.53-3.15-5.54-1.06-2.52-1.6-4.04-2.66-6.56-2.09-3.02-6.88-15.12-7.98-19.16l-5.02-22.68c-7.98-42.86-11.82-57.48-29.85-98.32-2.66-6.55-8.95-17.64-13.61-23.19-1.05-2.01-6.74-8.57-7.3-11.09 5.63 3.53 13.85 10.59 21.42 10.59 10.11.5 28.67-4.54 33.53-13.61 1.93-4.04.33-8.07 3.78-12.1.47-1.52 7.43-6.56 9.45-6.56 4.04 0 7.17 5.04 10.22 6.05-.09-4.53-2.19-8.06-6.28-10.58-5.11-3.03-17.02 6.55-22.01 9.07-3.49 2.02-7.47 5.04-10.98 6.05l18.41-12.6c-4 2.01-6.96 5.04-10.98 6.05-4.51 1.51-8.03 2.01-12.01 4.53-8.5 4.04-10.18-4.03-17.77-4.53-3.54-.51-4.04-.51-6.58-1.01 2.01-.51 5.03-1.01 6.52-2.02-6.1-2.02-4.55-.5-9.09-.5 1.48-1.52 2.97-2.52 3.95-4.04l-6.02 2.02c-2 .5-3.95 4.03-5.43 5.55.46-2.02 1.44-3.53 2.92-5.05.49-.5 1.48-1.51 1.48-1.51h.51l-.02-1.01c1.5-.5 2.99-1.51 3.47-3.02-3.53.5-4.5 2.02-7.51 3.02.97-2.01-1.49 1.01.95-2.52l1.97-2.52c.99-1.01.5 0 .99-1.01-3.53 0-5.01 2.02-8.52 3.03 3.46-3.53 6.98-4.03 9.41-8.57-1 .5-2.51.5-4.53.5-1.52 0-3.53 0-4.55-.5l4.53-.51c-1.03-1-3.07-2.01-4.6-2.52l3.89-7.06c2.91-5.54-2.12-4.53-.13-6.05-1.61-4.53-.34-16.13.04-22.18.46-2.02.38-5.54 1.36-7.06 2.58 2.52 6.65 4.04 9.22 6.56 10.28 8.57 25.79 26.21 32.96 30.75 5.63 4.03 18.33 7.56 25.35 5.55 4.02-1.01 1.48-1.52 6.56 0 2.53.5 4.54 0 7.57 0-2.47 2.52-6 2.52-8.98 5.04l4.5-2.02c1.51-.5 2.49-1.51 5.02-1.51 4.04 0 9.59 0 13.13.5 1.53.51 3.56 1.01 4.59 2.02 3.06 1.51 5.68 6.05 14.76 6.05-2.55-1.51-6.12-3.02-9.18-4.54-2.05-1.51-6.64-3.53-8.19-5.54 3-1.01-.53-1.01 2.51-.51 5.55 0 4.03-.5 9.61 1.01 6.08 1.01 8.09.51 13.61-1.01 12.03-3.53 10.53-3.02 18.4-12.6 4.92-6.05 24.15-27.73 32.18-29.75 3.13 5.04 3.5 22.19 4.11 27.23.54 1.51.52 1.01-.44 3.02l-2.46 3.03c1.54 1.51 3.67 6.55 5.71 7.56l-1.52-.5c-1.52 0 .47-1.52-1.01 0l.51.5c1.02.5 0 0 1.02.5 1.02.51 1.53.51 2.03.51-1.46 2.52 1-.51-2.96 3.02-1 .51-1 .51-1 .51h4.04c-3.53.5-5.52 1.51-8.57.5l.52 1.01c2.61 4.03 5.64 4.03 8.75 8.07-3.55-1.01-5.12-3.53-9.67-4.04 1.05 2.02 3.12 4.54 5.17 6.05-.51-.5-3.57-2.01-4.08-2.01zm-1.52-.51c.51.51-.48 1.01.5 0zm2.05-70.08c-5.09-2.01-6.64-3.53-13.69-3.02-4.55 0-11.08 1.51-13.56 3.53.48-1.51 2.48-2.02 3.47-3.03l1.49-1.01c-4.02.51-6.51 2.02-10.53 3.03 6.49-3.53 9.5-4.03 16.06-4.03 8.08 0 11.11 0 16.76 4.53zm-177.1 2.52c.95-2.52 3.95-4.03 6.44-5.54 7.49-4.03 21.15-2.52 27.85 4.03-1.02-.5-3.05-1.01-4.06-1.01-1.02-.5-2.53 0-4.05-.5-3.57-1.51-5.6-2.02-9.14-2.52-9.61-1.01-13.53 4.54-17.04 5.54z" fill="#dfe2e1"/><path d="m2010.81 12337.68c4.02-.51 6.16 5.04 6.72 7.56.58 3.53 1.72 9.58 1.26 12.1-1.5.5-4.53.5-6.56 0-3.04-.5-2.05-1.51-1.62-5.04-.09-4.54-.73-10.59.2-14.62zm16.14-.51c1.08 3.53 2.87 16.64 2.42 19.16l-7.56.51-1.05-2.02c-.02-1.01-.05-2.52-.07-3.53-.06-2.52-.1-4.54.36-6.55.41-4.54 1.87-7.06 5.9-7.57zm-26.48 12.61c.46-2.02.93-3.53 1.91-5.04.93-3.53-.09-4.04 2.92-5.05 1.57 2.52 2.82 14.12 2.86 16.14-3.03-.51-6.64-4.04-7.69-6.05zm32.07-10.59c.01.5 4.74 9.07 4.77 10.59-1.46 2.52-1.95 3.53-5.46 4.53-.05-2.52-.61-5.04-.66-7.56-.03-1.51-.06-2.52-.08-3.53.41-4.53.44-3.02 1.43-4.03zm4.07 1.51c1.47-2.01 3.87-8.06 3.81-10.59l1.05 1.52c2.66 6.55-.23 13.11-3.22 15.12-.53-1.51-1.06-2.52-1.61-4.54-1.55-2.01-.57-3.02-2.11-4.53-2.06-2.02-4.04 0-5.04.5-2.66-6.55-7.09-1.01-10.59.51-.16-7.57-.07-27.23-2.2-32.78.14 7.06-.92 28.24.21 33.78-1.54-1-2.09-3.02-4.63-4.03-4.58-1.51-4.54 0-4.48 3.03l-1.52-.51c-1.02-.5-3.04-.5-3.53.51 0 0 0 0 .01.5l-.49.5c-.6-4.53-3.78-11.59-4.41-17.64-1.53-.51-.51 0-2.53 0-1.18-8.07-4.17-6.56-5.23-9.08-1.56-2.01-3.18-7.06-4.77-10.58-3.18-7.06-5.36-14.62-2.52-23.7 2.84-8.57 6.81-12.1 17.49-8.07 12.71 4.54 12.86 11.6 16.43 13.11 3.89-7.06 9.34-11.59 18.87-14.62 6.53-1.51 9.07-.5 11.69 4.03 4.22 8.58 3.96 20.17.61 28.74-1.92 4.54-2.35 8.07-4.79 12.1-3.44 4.54-2.9 6.05-3.77 12.61-.44 3.02-2.75 13.1-2.73 14.11zm-40.72-16.13c1.66 6.55 4.88 15.63 3.5 22.18-2.55-1.51-5.69-6.55-5.75-9.58-.57-3.02.36-6.55 1.32-9.07l.46-2.02s-.01-.5.49-.5zm-13.67-2.02c1.02.51-.01-.5 1.03 1.01.52.5 1.03 1.01 1.05 1.51l5.22 8.57c1.07 2.52 1.61 4.54 2.67 6.56 1.06 2.52 2.09 3.53 3.65 5.54 3.15 6.05 4.15 5.55 8.78 9.58 4.12 4.04 6.15 4.54 14.22 4.04 12.1-.51 17.1-2.52 22.94-13.11 2.43-4.04 3.37-7.56 5.28-12.61.97-2.01 4.81-11.09 6.31-12.1.17 8.07-3.25 13.62-5.58 22.69-1.88 6.56-1.25 12.61-13.31 15.13-9.04 2.01-25.65 4.03-34.33-.51-9.71-6.05-9.17-4.03-11.87-12.6-.03-1.51-1.07-2.52-1.59-3.53l-5.35-14.12c-1.6-4.03-2.62-4.54.88-6.05zm61.84 12.61c-.51-.51.02.5-.53-1.52l-1.61-4.53c-.65-6.56-.88-17.65 9.34-11.6.61 5.04-4.34 9.58-7.2 17.65zm-60.39-15.63c1.47-2.02 3.96-4.04 7.02-2.52 4.08 2.01 2.83 14.62.89 18.15-2.11-4.04-6.81-11.6-7.91-15.63zm-1.59-3.53c-1.07-3.03-1.07-3.03-.13-6.56l1.42-4.03c.99-1.01.5-.5.99-1.01 1.05 2.02 1.61 4.54 2.18 7.56.55 2.02 1.05 2.02-.44 3.03-1 .5-2.5 1.01-4.02 1.01zm67.37-12.61s.5 0 .52 1.01l1.09 3.53c.56 2.52.59 4.03.63 6.05l-5.06-.5c-.04-2.02 1.84-8.57 2.82-10.09zm-69.48 8.07-.32-15.12c-.02-1.01-.03-1.52-.04-2.02.49-.51.48-1.01.48-1.01.48-1.01.49-.5.99-1.01-.43 3.53 3.19 7.56.82 15.13l-.47 1.51c-.95 3.02.04 2.02-1.46 2.52zm70.93-11.09c.47-1.51.46-2.02.42-4.03l.44-3.03c.46-2.02 0 0 .47-1.51.07 3.53 1.3 13.61.86 16.64 0 0-.5.5-.5.5.02 1.01-.49.5-.48 1.01-.05-2.52.37-6.56-.7-9.08-.5 0-.51-.5-.51-.5zm-51.85-65.04c-2.43-19.16 14.7-20.67 14.54-4.54.11 5.05.32 15.13-4.72 15.63-7.03 1.52-9.2-5.54-9.82-11.09zm35.47 6.56c-4.17-6.05-4.52-22.69-.12-29.25 3.53 0 4.59 2.02 5.66 5.05.57 3.02 1.15 6.55 1.21 9.58.66 7.05-.71 14.11-6.75 14.62zm-38.84 1c-9.13-2.01-8.6-24.7-2.09-26.72 4.6 2.52 6.94 17.65 2.09 26.72zm18.4-12.6c-1.12-5.55 4.28-12.6 9.85-11.6 8.12 2.02 9.2 29.25-3.94 28.24-6.07-.51-5.3-11.6-5.91-16.64zm-32.18-18.15c4.56 1.01 4.74 9.08 4.84 14.12.57 3.02.64 6.05.7 9.07.09 4.04-.4 5.04-4.44 5.04-6.21-7.56-6.97-19.66-1.1-28.23zm64.17 27.23c-2.04-1.01-2.61-4.04-2.66-6.56-.07-3.02-.64-6.55-.7-9.07-.07-3.53 2.27-12.1 4.76-13.62 2.49-1.51 2.02 0 2.64 5.55.6 4.54.98 22.18-4.04 23.7zm8.02-2.53c-.01-.5-.54-2.01-.56-2.52-1.64-6.05-1.19-8.57-.32-15.12.44-3.03.87-6.56 1.3-10.08 1.43-4.04 1.88-6.56 4.41-6.56 1.57 2.52 1.12 5.55 1.22 10.08.08 3.53.14 6.56-.29 10.09-.86 7.06-2.3 10.59-4.7 16.13zm-81.7 3.03c-1.56-2.52-2.6-4.03-3.19-8.07-1.07-2.52-1.14-6.05-1.71-9.07-.57-3.03-.64-6.56-1.21-9.58-.64-6.05-1.18-8.07 1.82-9.08 4.09 2.52 10.09 23.7 5.27 34.29-.48 1.01.01.5-.48 1.01zm-28.33-50.92c4.55.5 12.22 5.04 16.8 6.55 14.26 6.05 37.66 15.13 53.31 15.13 7.57 0 28.09-8.07 34.59-11.09 4.5-2.02 27.97-13.62 31-13.62-3.48 2.52-10.9 9.58-13.86 12.61l-2.47 2.52h-.51l-1.99 1.01c-2.04-1.01-1.55-1.52-3.58-2.02-2.49 1.51-4.37 8.07-5.32 11.09-1.03-1.01-1.56-2.52-2.59-3.53-4.54.51-6.48 4.04-7.39 8.57l-1.58-3.02s-1.54-1.01-2.04-1.01c-1.03-1.01-2.08-3.02-4.59-2.02-1.98 1.52-4.4 6.56-4.31 10.59-9.78-8.57-11.15-2.02-16.65.51-1.55-1.52-3.6-3.03-6.64-3.53-4.55-.51-4.51 1.51-8.02 2.52-4.26-10.59-6.65-4.54-10.14-2.52-1.55-1.52-1.07-2.52-2.12-4.54-.55-2.02-1.57-2.52-3.1-3.53-4.52 1.01-4.93 5.55-6.35 10.08-1.56-2.01-2.18-7.56-3.25-10.58-1.07-2.53-3.69-7.06-6.22-7.57l-2.46 3.03c-4.06-1.01-8.19-5.55-10.76-7.56-2.06-2.02-8.2-6.05-9.76-8.07zm146.49-41.85-4.06-1c1.98-2.02 3.49-2.02 7.02-2.02-1.04-1.51-2.06-2.02-2.61-4.03 2.03.5 4.59 2.01 5.62 3.02l1.03 1.01c-.54-1.51-.01-.51-.54-1.51l-1.55-2.02c-1.02-.5-1.02-.5-1.54-1.01l-1.02-.5c-.01-.51-.01-.51-.01-.51h1.01.5c1-.5 1-.5 1.02.51.51 0 3.57 1.51 4.08 2.01-2.05-1.51-4.12-4.03-5.17-6.05 4.55.51 6.12 3.03 9.67 4.04-3.11-4.04-6.14-4.04-8.75-8.07l-.52-1.01c3.05 1.01 5.04 0 8.57-.5h-4.04s0 0 1-.51c3.96-3.53 1.5-.5 2.96-3.02-.5 0-1.01 0-2.03-.51-1.02-.5 0 0-1.02-.5l-.51-.5c1.48-1.52-.51 0 1.01 0l1.52.5c-2.04-1.01-4.17-6.05-5.71-7.56l2.46-3.03c.96-2.01.98-1.51.44-3.02-.61-5.04-.98-22.19-4.11-27.23-8.03 2.02-27.26 23.7-32.18 29.75-7.87 9.58-6.37 9.07-18.4 12.6-5.52 1.52-7.53 2.02-13.61 1.01-5.58-1.51-4.06-1.01-9.61-1.01-3.04-.5.49-.5-2.51.51 1.55 2.01 6.14 4.03 8.19 5.54 3.06 1.52 6.63 3.03 9.18 4.54-9.08 0-11.7-4.54-14.76-6.05-1.03-1.01-3.06-1.51-4.59-2.02-3.54-.5-9.09-.5-13.13-.5-2.53 0-3.51 1.01-5.02 1.51l-4.5 2.02c2.98-2.52 6.51-2.52 8.98-5.04-3.03 0-5.04.5-7.57 0-5.08-1.52-2.54-1.01-6.56 0-7.02 2.01-19.72-1.52-25.35-5.55-7.17-4.54-22.68-22.18-32.96-30.75-2.57-2.52-6.64-4.04-9.22-6.56-.98 1.52-.9 5.04-1.36 7.06-.38 6.05-1.65 17.65-.04 22.18-1.99 1.52 3.04.51.13 6.05l-3.89 7.06c1.53.51 3.57 1.52 4.6 2.52l-4.53.51c1.02.5 3.03.5 4.55.5 2.02 0 3.53 0 4.53-.5-2.43 4.54-5.95 5.04-9.41 8.57 3.51-1.01 4.99-3.03 8.52-3.03-.49 1.01 0 0-.99 1.01l-1.97 2.52c-2.44 3.53.02.51-.95 2.52 3.01-1 3.98-2.52 7.51-3.02-.48 1.51-1.97 2.52-3.47 3.02l.02 1.01c-.51 0 0 0-.51 0 0 0-.99 1.01-1.48 1.51-1.48 1.52-2.46 3.03-2.92 5.05 1.48-1.52 3.43-5.05 5.43-5.55l6.02-2.02c-.98 1.52-2.47 2.52-3.95 4.04 4.54 0 2.99-1.52 9.09.5-1.49 1.01-4.51 1.51-6.52 2.02 2.54.5 3.04.5 6.58 1.01 7.59.5 9.27 8.57 17.77 4.53 3.98-2.52 7.5-3.02 12.01-4.53 4.02-1.01 6.98-4.04 10.98-6.05l-18.41 12.6c3.51-1.01 7.49-4.03 10.98-6.05 4.99-2.52 16.9-12.1 22.01-9.07 4.09 2.52 6.19 6.05 6.28 10.58-3.05-1.01-6.18-6.05-10.22-6.05-2.02 0-8.98 5.04-9.45 6.56-3.45 4.03-1.85 8.06-3.78 12.1-4.86 9.07-23.42 14.11-33.53 13.61-7.57 0-15.79-7.06-21.42-10.59.56 2.52 6.25 9.08 7.3 11.09 4.66 5.55 10.95 16.64 13.61 23.19 18.03 40.84 21.87 55.46 29.85 98.32l5.02 22.68c1.1 4.04 5.89 16.14 7.98 19.16 1.06 2.52 1.6 4.04 2.66 6.56 1.05 2.01 2.08 3.02 3.15 5.54 1.07 3.03 1.58 3.53 4.63 4.54l5.63 3.53c3.58 2.02 10.16 3.02 14.7 3.02 12.11 0 13.61-1 24.15-3.53 6.04-1 9.41-8.57 11.29-15.12 2.84-9.08 6.2-17.14 8-27.23 3.22-15.12 4.91-30.24 7.62-45.37 4.01-25.21 10.29-62.01 21.94-84.2l14.18-21.17c-3 1.01-7.47 4.54-9.45 6.55-5.47 3.53-40.4-1.51-46.74-14.62-1.05-2.01-1.09-4.03-2.15-6.05-2.61-4.03-8.79-10.08-14.3-8.06-3.5 1.51-8.44 6.55-8.44 6.55h-.5c1.42-4.03 2.84-8.57 6.3-12.1 2.48-2.02 4.53-.5 7.08.51 1.03 1 1.53 1 3.06 1.51 1.52.5 10.21 5.54 15.8 7.56l12.26 6.55c-1.04-1-2.07-2.01-3.09-2.52l-24.03-14.62c4.04 0 4.59 2.02 7.65 3.53l3.57 2.02c1.03 1.01 2.05 1.51 3.58 2.02 2.55 1.51 4.61 3.02 7.15 4.03 2.04 1.01 5.09 2.01 7.65 3.53l-.04-1.52c2.56 1.52 5.62 3.03 9.14 2.53 2.02 0-.99 1 0 0l4-2.02c1.98-1.51 3.47-3.03 6.48-3.53 2.01-.5 6.03-1.51 8.54-2.02zm-48.71 11.6c.73 10.59-9.39 9.58-14.84 14.12l-1.48 2.01c-.51-.5-.5 0-.5 0l.51.51c.5-.51-.01-.51 1.5-1.01 1.46-2.52 9.5-4.04 13.44-8.57 1.98-2.02 1.46-2.52 2.95-4.04 2.56 2.02 4.13 4.54 7.21 7.06 4.09 2.52 9.7 5.04 14.27 6.56 1.02.5 2.03.5 2.55 1l1.52.51c3.04.5 6.58 1.01 9.64 2.52 1.02.5.51 0 1.02.5-1.99 1.01-4.47 3.03-6.47 4.04-2.49 1.51-4.5 2.01-6.99 3.53-2 1-2.47 2.52-5.96 4.53l-14.5 6.56-22.53 8.57c-13.04 4.03-38.43-3.53-51.67-9.08l-13.78-7.05c-.04-2.02-.54-1.52.96-2.53-4.57-1-11.18-3.52-15.26-5.54.47-1.51-.53-1.01 1.99-1.51l8.03-2.02c3.51-1.01 6.54-1.01 10.03-3.03 2.98-2.01 5.47-3.52 7.96-5.54 5.46-4.03 3.49-2.02 6.93-6.05l10.82 10.08c1.02.51.5 0 1.52.51-3.12-4.54-9.77-8.57-11.41-14.62-1.13-5.55-.16-7.57 3.32-10.09.48-1.01.98-1.01 1.98-1.51 1.98-2.02 2.96-3.53 7.04-1.51 1.53 1.01 6.68 5.54 7.71 6.55 1.04 1.51 3.69 7.56 4.23 9.08-.04-1.52-1.05-1.52-1.67-7.06-1.35-16.13-5.3-12.1-8.48-19.16 1.46-2.52 3.45-4.03 6.44-5.55 5.49-3.02 15.09-2.52 19.69 0 2.55 1.52 4.62 3.53 5.68 6.05-1.44 3.53-4.45 4.54-5.86 9.58-1.91 5.04-.33 8.07-1.74 13.11 5.72-16.13 20.3-18.65 24.2-1.51zm-81.44-32.27 2.56 1.52c3.54.5 8.1 1.51 9.68 4.53-6.95 5.55-16.51 6.56-24.62 5.04-14.69-2.52-9.69-28.23 0-23.69 2.56 1.51 7.24 8.07 10.83 11.09 1.04 1.01.52.5 1.55 1.51zm88.43 5.04c2.47-2.52 6.5-3.02 9.48-5.04 2.48-2.01 4.94-5.04 7.42-7.06 1.98-2.01 4.92-6.05 8.97-5.54 6.08 1.01 14.07 20.67-5.03 24.7-6.02 1.52-18.24-3.53-20.84-7.06z" fill="#270318"/><path d="m2114.22 12358.85c-3.95 4.54-6.34 10.59-9.28 14.62-.49 1.01-.99 1.01-1.98 2.02l-7.81 12.6c-1.46 2.52-4.45 4.04-6.34 10.09-.96 2.52-12.25 17.64-13.23 19.16-1.97 2.01-1.96 2.52-2.92 5.04-1.96 2.52-5.89 7.56-8.32 12.1-.49.5-1.46 2.52-1.49 1-1.99 1.52-1 .51-1.97 2.53-.98 1.51-.99 1-1.97 2.01-1.49 1.51-2.44 4.04-1.39 6.05 2.01-.5 6.39-8.06 7.37-9.58 2.4-5.54 7.79-13.1 11.21-18.65 1-.5 1.49-1.01 1.98-2.02.96-2.01 1.94-3.53 3.42-5.04.49-1.01.98-1.51 1.98-2.02l7.38-9.07c4.43-5.04 8.84-11.6 13.79-16.13l16.29-17.15c13.38-11.59 18.35-15.12 34.81-24.2 4.99-3.02 13.93-9.57 16.53-6.05 3.1 3.53 6.34 13.11 7.45 18.15 1.1 4.04 1.17 7.57 1.26 11.6l.58 3.53c3.02 0 .52 1.01 3.88-7.06 8.19-18.65 15.88-36.8 27.11-54.45l14.64-23.69c5.87-9.08 11.75-17.15 18.66-24.71-.55-2.01-4.69-7.06-6.26-9.58l-23.21-23.19-17.71 21.68c-1.48 1.51-1.96 2.52-3.44 4.03l-10.84 12.61c-4.41 6.05-11.35 12.1-14.79 16.64l-8.86 10.58c-1.47 2.02-.5 0-1.46 2.52 2.51-.5 3.51-1.01 6.04-1.01l-6.37 9.08c-4.89 7.56-7.85 10.59-12.75 17.65-6.38 8.57-9.73 17.14-18.61 26.72l-8.87 10.08c-1 .5-.99 1.01-1.99 1.51-1.48 1.51-1.97 2.52-3.96 3.53.48-1.01.46-2.02 1.44-3.53z" fill="#4c303d"/><path d="m1798.29 12264.57c-1 .51-.51-.5-.99 1.01.01.51.53 1.01.53 1.01h-.51c-.49.5-.51-.5-.48 1.01.52.5 2.02 0 .01.5h.51c.03 1.52.02 1.01 1.04 1.52-.54-1.52-.01-.51-.54-1.52 3.05 1.01 12.37 12.1 14.96 15.13 9.36 13.11 17.66 23.69 26.03 37.81 3.15 5.55 26.2 45.37 27.34 51.42.04 2.02-1.02-.5.53 1.01.52 1.01 3.14 5.55 3.68 7.06-.25-11.59-2.47-21.17.32-32.27 3.74-14.11 6.81-12.1 18.54-6.55 8.15 3.53 15.31 8.07 22.46 12.1 4.09 2.52 11.76 7.06 15.37 10.59 2.04 1.01 3.07 2.01 5.11 3.02 8.21 6.56 8.25 8.07 11.33 10.59 4.11 3.53 10.84 11.6 14.46 15.63 6.22 7.56 13.45 15.63 19.19 24.2l6.2 7.06c1.05 1.51.53 1.01 1.57 2.52 1.58 3.02 2.08 3.02 3.64 5.04 2.6 3.53 2.09 3.53 5.7 7.06l2.06 2.01c-.55-2.52-6.29-11.09-7.86-13.61-7.81-11.59-12.46-16.63-20.76-27.22l-9.33-11.6c-2.07-2.52-4.13-4.54-7.25-8.57l-13.51-18.15c-1.05-2.02-2.59-3.53-4.16-6.05-1.56-2.02-3.1-3.53-4.67-6.05s-1.13-5.54-3.18-7.06c-.99 1.01 1.51 0-.99 1.01-.52-1.01-5.27-10.59-6.81-11.59 1.06 2.01 3.14 5.04 3.69 7.05l.57 3.03c-.01-.51-.01-.51-.01-.51-.51 0-.51 0-.51 0l-9.8-10.08c-1.55-1.51-2.06-2.02-3.6-3.02-6.71-7.06-13.4-13.11-19.61-20.17l-56.34-63.02-10.94-15.63c-4.4 6.55-20.57 29.24-22.96 35.8-.52-1.01-.99 1-.03-1.52z" fill="#4c303d"/><path d="m2038.86 12303.9c.47-1.51.48-1.01.96-2.52 3.39-6.56 4.22-15.13 6.18-17.65.61 5.04-1.76 12.1-4.69 16.64.01.5-.49 1.01-.97 2.02zm-49.44-22.69c.52.51.01.51.02 1.01.52.5.52.5.54 1.51.53 1.01 1.05 2.02 1.59 3.53 1.12 5.04 2.2 8.57 4.33 13.61 1.05 2.02 2.59 3.53 3.14 5.55-2.53-.51-3.59-2.52-4.65-5.04-3.63-4.54-9.92-15.63-5.99-20.67 1.02.5-.01-.51 1.02.5zm47.22 61-.03-1.51c-.02-1.01 2.29-11.09 2.73-14.11.87-6.56.33-8.07 3.77-12.61 2.44-4.03 2.87-7.56 4.79-12.1 3.35-8.57 3.61-20.16-.61-28.74-2.62-4.53-5.16-5.54-11.69-4.03-9.53 3.03-14.98 7.56-18.87 14.62-3.57-1.51-3.72-8.57-16.43-13.11-10.68-4.03-14.65-.5-17.49 8.07-2.84 9.08-.66 16.64 2.52 23.7 1.59 3.52 3.21 8.57 4.77 10.58 1.06 2.52 4.05 1.01 5.23 9.08 2.02 0 1-.51 2.53 0 .63 6.05 3.81 13.11 4.41 17.64l.49-.5c-.01-.5-.01-.5-.01-.5.49-1.01 2.51-1.01 3.53-.51l1.52.51c-.06-3.03-.1-4.54 4.48-3.03 2.54 1.01 3.09 3.03 4.63 4.03-1.13-5.54-.07-26.72-.21-33.78 2.13 5.55 2.04 25.21 2.2 32.78 3.5-1.52 7.93-7.06 10.59-.51 1-.5 2.98-2.52 5.04-.5 1.54 1.51.56 2.52 2.11 4.53z" fill="#f60000"/><path d="m2027.03 12174.33s-.5.5-.5.5l-.98 1.01c-2.44 4.03-3.94 5.04-7.4 8.07-7.95 6.05-8.31 13.11-20.69.5-2.05-1.51-3.09-3.02-4.14-5.04l-4.13-4.54-10.82-10.08c-3.44 4.03-1.47 2.02-6.93 6.05-2.49 2.02-4.98 3.53-7.96 5.54-3.49 2.02-6.52 2.02-10.03 3.03l-8.03 2.02c-2.52.5-1.52 0-1.99 1.51 4.08 2.02 10.69 4.54 15.26 5.54-1.5 1.01-1 .51-.96 2.53l13.78 7.05c13.24 5.55 38.63 13.11 51.67 9.08l22.53-8.57 14.5-6.56c3.49-2.01 3.96-3.53 5.96-4.53 2.49-1.52 4.5-2.02 6.99-3.53 2-1.01 4.48-3.03 6.47-4.04-.51-.5 0 0-1.02-.5-3.06-1.51-6.6-2.02-9.64-2.52l-1.52-.51c-.52-.5-1.53-.5-2.55-1-4.57-1.52-10.18-4.04-14.27-6.56-3.08-2.52-4.65-5.04-7.21-7.06-1.49 1.52-.97 2.02-2.95 4.04-3.94 4.53-11.98 6.05-13.44 8.57z" fill="#dfe2e1"/><path d="m2135.41 12310.96 5.39-7.57c22.56-30.75 9.71-18.15 37.36-46.88l11.33-13.11c5.42-6.56 10.83-13.11 15.2-21.18l11.6-24.2-1.46 2.52c-3.54-.5-5.57-1-9.59 0-4.01 1.52-4.52 1.01-8.09-.5-6.6-2.02-29.17-19.16-39.36-23.7-.45 2.53-1.92 4.54-2.86 8.07 7.68 5.04 11.26 7.06 18.94 12.61 3.08 2.52 13.95 15.12 13.5 17.64-.95 3.03-9.84 12.1-12.31 14.62-5.41 6.56-24.85 41.85-30.23 49.91-13.66 22.19-23.73 47.4-36.37 70.08-6.31 11.6-12.65 22.19-19.47 33.78-8.27 14.62-12.68 20.67-20.5 32.77-6.34 10.59-8.38 9.58-12.31 14.62-2.94 4.04-7.3 12.61-8.71 17.65-.89 5.54-12.97 31.26-14.32 38.82.95-3.03 6.76-14.62 8.68-19.16 4.83-10.08 9.14-21.17 14.99-30.75 2.41-5.55 2.87-7.57 6.82-11.6 2.47-2.52 5.9-7.56 7.85-10.59 3.86-8.57 9.27-15.12 13.64-23.19 4.89-7.56 9.27-15.12 13.64-23.19 3.88-7.56 8.75-16.13 12.62-23.69l26.24-47.9c-.46 2.02-1.41 5.04-2.36 7.56-1.43 4.04-2.89 6.56-1.86 7.56.49-.5.48-1 .98-1.51 1-.5.48-1.01 1.02.51z" fill="#820024"/><path d="m1837.14 12240.37.52.51 14.95 14.62c2.57 2.52 5.14 4.54 7.72 7.06 10.3 10.08 20.59 19.16 29.41 30.25 2.09 3.53 3.66 6.05 6.25 9.07l-3.11-3.53 2.61 4.04s0 0 .52.5.51.5.51.5c-.01-.5-.01-.5-.53-1.51 2.61 4.54 7.8 11.09 10.91 15.13l10.93 15.63c1.54 1 6.29 10.58 6.81 11.59 2.5-1.01 0 0 .99-1.01-.58-3.53-3.7-8.06-5.29-11.59-6.82-12.1-3.72-8.57-12.56-21.18-7.81-11.09-27.16-42.85-32.43-53.44-8.41-15.63-30.45-31.76-33.05-35.29-4.71-8.07 22.03-32.27 22.81-42.85-6 2.52-14.91 10.58-20.38 14.62-10.42 8.57-8.88 9.58-26.56 9.07l.01.51c.06 2.52 11.07 22.18 13.21 27.72 2.11 4.54 3.16 6.05 5.75 9.58zm-4.15-5.54-.53-1.01c.02 1.01.02 1.01.53 1.01z" fill="#820024"/><path d="m2117.55 12206.59c3.39-6.55 9.93-7.56 15.89-12.1 3-1.51 12.39-11.09 13.34-13.61-.43 3.53-9.83 12.61-12.31 14.62-4.96 4.04-11.44 7.57-16.92 11.09zm-11.84 13.11h3.03c.43-3.53 1.37-7.06 2.82-10.08.51.5 1-.5.06 3.02.03 1.52-.87 6.56-.33 8.07.52 1.01 3.04.51 4.55.51l20.88-15.13c5.97-4.03 4.48-3.02 7.86-10.08l10.56-25.72c3.31-10.58 7.6-22.18 12.44-32.26 1.46-2.52 2.93-4.54 3.39-6.56-13.1 1.01-17.47 9.08-23.36 17.15-3.46 3.52-6.93 6.55-9.36 10.58-1.97 2.52-4.78 12.61-2.7 15.63-1.03-1.01.5 0-1.52-.5-1.92 5.04-3.73 14.62-6.69 18.15-1.98 1.51-12.93 9.07-15.94 9.58.45-2.52 2.39-6.05 3.36-8.07 3.92-5.55 5.44-5.04 7.75-15.12.94-3.53.36-7.06 1.29-10.59 0 0 0 0-.5 0 .01.5.01.5.01.5l-5.83 10.59c-3.39 7.06-8.74 16.64-10.59 24.2-.92 4.54-2.3 10.59-2.2 15.63z" fill="#dfe2e1"/><path d="m1876.32 12183.91c-1.03-1.01 1.55 1.51 0 0zm37.65 37.81c-1.07-3.03-5.23-8.57-6.81-11.6-3.66-6.05-4.15-5.54-10.77-8.06-6.63-3.53-15.89-11.6-19.55-17.65 5.65 4.54 8.77 9.08 15.92 13.11 2.04 1.01 5.09 2.02 6.13 3.53 5.13 3.53 10.82 10.08 13.95 15.12 1.59 3.53 1.1 4.04 6.13 3.53-.67-8.06-4.96-19.66-7.63-26.72-1.58-3.02-9.01-20.16-12.58-22.18-1.37 7.06-1.81 10.08 2.91 18.15 1.55 2.02 5.64 4.54 8.86 13.61-2.52 0-14.8-8.07-16.85-9.58-5.17-5.54-6.39-15.63-8.94-16.64h-.5c-.51 0-.51 0-.51 0 .92-4.53 2.99-2.01 1.36-7.56-.6-4.54.38-5.54-2.2-8.57-13.93-14.11-15.66-24.2-33.92-28.74l6.33 13.11c7.96 18.15 16.41 35.8 23.86 53.95 2.65 6.05 2.62 4.54 9.79 9.58 2.05 1.51 4.09 2.52 5.64 4.03 4.61 3.53 12.84 10.59 19.38 9.58z" fill="#dfe2e1"/><path d="m1957.61 12018.54c16.2 2.52 23.82 4.54 38.08 10.59 17.84 8.57 6.67 5.54 32.71-4.54 8.51-3.02 24.6-6.05 25.6-6.55-.11-5.04-16.31-7.56-20.87-8.07-13.16-2.02-41.93-2.02-55.01 0-5.52 1.51-19.61 3.53-20.51 8.57z" fill="#4c303d"/><path d="m1979.3 12160.72 6.06.5c.42-4.03.93-4.03-2.63-5.04 2.01-.51 2-1.01 4.03-.51 11.14 1.52 15.55 19.16 24.12 18.66 5.04 0 9.92-8.07 11.86-11.6 1.97-2.52 3.46-3.53 6.45-5.54 3.48-2.52 5.01-1.52 8.57-.51h-2.02c.05 2.52-.93 4.04 1.11 5.04l-.03-1.51c2.04 1.01 3.52-.5 4.03-.5.49-.51-.01-.51.99-1.01-3.9-17.14-18.48-14.62-24.2 1.51 1.41-5.04-.17-8.07 1.74-13.11 1.41-5.04 4.42-6.05 5.86-9.58-1.06-2.52-3.13-4.53-5.68-6.05-4.6-2.52-14.2-3.02-19.69 0-2.99 1.52-4.98 3.03-6.44 5.55 3.18 7.06 7.13 3.03 8.48 19.16.62 5.54 1.63 5.54 1.67 7.06-.54-1.52-3.19-7.57-4.23-9.08-1.03-1.01-6.18-5.54-7.71-6.55-4.08-2.02-5.06-.51-7.04 1.51-1 .5-1.5.5-1.98 1.51-3.48 2.52-4.45 4.54-3.32 10.09z" fill="#dfe2e1"/><path d="m1944.06 12188.95c1.56 2.02 7.7 6.05 9.76 8.07 2.57 2.01 6.7 6.55 10.76 7.56l2.46-3.03c2.53.51 5.15 5.04 6.22 7.57 1.07 3.02 1.69 8.57 3.25 10.58 1.42-4.53 1.83-9.07 6.35-10.08 1.53 1.01 2.55 1.51 3.1 3.53 1.05 2.02.57 3.02 2.12 4.54 3.49-2.02 5.88-8.07 10.14 2.52 3.51-1.01 3.47-3.03 8.02-2.52 3.04.5 5.09 2.01 6.64 3.53 5.5-2.53 6.87-9.08 16.65-.51-.09-4.03 2.33-9.07 4.31-10.59 2.51-1 3.56 1.01 4.59 2.02.5 0 2.04 1.01 2.04 1.01l1.58 3.02c.91-4.53 2.85-8.06 7.39-8.57 1.03 1.01 1.56 2.52 2.59 3.53.95-3.02 2.83-9.58 5.32-11.09 2.03.5 1.54 1.01 3.58 2.02l1.99-1.01h.51l2.47-2.52c2.96-3.03 10.38-10.09 13.86-12.61-3.03 0-26.5 11.6-31 13.62-6.5 3.02-27.02 11.09-34.59 11.09-15.65 0-39.05-9.08-53.31-15.13-4.58-1.51-12.25-6.05-16.8-6.55z" fill="#f60000"/><path d="m2216.29 12198.02-11.6 24.2c-4.37 8.07-9.78 14.62-15.2 21.18l-11.33 13.11c-27.65 28.73-14.8 16.13-37.36 46.88l-5.39 7.57c-.9 5.04-6.31 12.1-8.24 16.13-2.91 5.55-5.33 10.59-8.23 16.64-3.87 7.56-8.72 17.14-13.11 24.2-7.36 10.08-16.12 25.21-23.94 37.31-3.93 5.04-17.15 24.19-19.04 30.24.03 1.52 1-.5 1.49-1 2.43-4.54 6.36-9.58 8.32-12.1.96-2.52.95-3.03 2.92-5.04.98-1.52 12.27-16.64 13.23-19.16 1.89-6.05 4.88-7.57 6.34-10.09l7.81-12.6c.99-1.01 1.49-1.01 1.98-2.02 2.94-4.03 5.33-10.08 9.28-14.62.95-2.52 2.43-4.03 3.89-6.55 3.93-5.55 7.3-13.11 11.21-19.16 5.37-8.57 13.28-16.13 15.62-24.7l-4.04-.51c.48-1.01 1.93-4.03 2.92-5.04.47-1.51 1.94-3.53 2.93-4.54l11.3-14.62c1.46-2.52 3.4-6.05 4.87-8.06 4.92-6.05 15.36-13.62 18.75-20.17.97-2.02 4.44-5.04 6.43-6.56 5.41-6.55 6.39-8.06 11.29-14.62 1.96-3.02 3.43-5.04 5.4-7.56 4.87-8.07 17.43-34.79 19.74-44.87 1.43-4.03 2.9-6.05 3.85-8.57l-4.57-1.51c-3.02.5-.85 7.56-2.71 15.12-1.42 4.54-3.37 7.56-4.81 11.09z" fill="#f60000"/><path d="m2106.15 12073.5c-.5.5.01.5-.51 0l-1.02-.51c.52.51.53 1.01 1.04 1.51-3.49 2.02-1.45 3.03-1.44 3.53l4.21 8.07c.05 2.02-.44 3.02.6 4.54l1.5-1.01c3.96-3.53 9.99-4.54 12.97-7.06.37-6.55-1.26-11.6-2.89-17.14-2.69-8.07-2.2-8.57-6.85-13.61-3.1-3.53-7.21-7.06-10.3-10.09-2.56-1.51-10.25-7.06-12.79-8.06 1.05 2.01 1.56 2.52 3.12 4.53l5.69 6.56c3.6 3.02 2.58 2.52 4.14 4.54 2.57 2.52 5.64 4.53 4.75 10.08-.42 4.03-1.87 7.06-3.31 10.59l2.46-3.03c.05 2.02-.93 3.53-2.42 4.54 1.04 1.51 0 0 2.04 1.01-2.51 1.01 0 0-.99 1.01z" fill="#4c303d"/><path d="m1839.8 12127.44c27.26.51 34.04 10.59 46.01 27.73l8.85 12.6c1.04 1.52.52 1.01 2.05 1.52-1.65-6.05-2.77-11.6-4.92-17.65-2.72-9.07-2.73-9.58-2.44-19.66-18.83-7.56-22.87-7.56-43.01-5.55-4.04 0-4.04 0-6.05.51z" fill="#dfe2e1"/><path d="m2130.11 12132.48c.15 7.06.28 13.11-1.11 19.16-1.39 5.55-3.3 11.09-3.16 17.65.5-.51 0 0 .49-1.01l3.38-7.06c.98-1.51 1.98-2.02 2.96-3.03 13.75-18.14 12.48-30.24 48.82-30.24-.51-.51 0 0-1.02-.51l-5.56-.5c-2.03-.51-4.55-.51-6.58-1.01-13.16-1.51-27.78-1.01-38.22 6.55z" fill="#dfe2e1"/><path d="m1985.36 12161.22c-.48 1.01-.98 1.01-1.98 1.51 1.58 3.03 3.12 4.54 7.18 5.55 4.05.5 5.61 2.52 8.17 4.54 4.09 2.52 4.07 1.51 6.2 6.55 4.25 10.08 8.68 5.04 13.11-.5l9.92-8.07c1.49-1.01 3-1.51 5.01-2.02 1.49-1.01 4.49-2.52 4.95-4.54.94-3.02-.05-2.01-1.07-2.52-2.04-1-1.06-2.52-1.11-5.04h2.02c-3.56-1.01-5.09-2.01-8.57.51-2.99 2.01-4.48 3.02-6.45 5.54-1.94 3.53-6.82 11.6-11.86 11.6-8.57.5-12.98-17.14-24.12-18.66-2.03-.5-2.02 0-4.03.51 3.56 1.01 3.05 1.01 2.63 5.04z" fill="#270318"/><path d="m1908.18 12091.65-.09-4.54c.43-3.53-.05-2.02 1.89-6.05l3.4-6.05c.97-2.02-.05-2.52-.57-3.03l.06 2.52c.96-2.01.49-.5-.04-1.51-1.54-1.51-.98 1.01-3.65-5.54-1.08-3.53-2.13-5.55-2.71-9.08-1.11-4.54.9-5.04 2.35-8.07 6.38-8.57 3.45-4.03 2.91-5.54 2.01-.51.52.5 2.51-.51l-1.52-.5c1.49-1.01.98-1.51 2.96-3.03-1.03-1 0 0-2.49 1.52-16.43 10.58-14.27 17.14-18.47 33.27-.11-5.04.82-9.07-.3-14.11-1.39 6.05-1.19 15.12-1.56 21.67l7.66 4.04c2.54 1.01 4.58 2.01 7.15 4.03.01.51.51.51.51.51z" fill="#4c303d"/><path d="m2063.56 12326.08c-1.41 5.04-11.02 27.73-13.96 32.27-4.86 8.57-18.88 14.11-33.01 14.11-9.59 0-20.26-3.52-26.95-9.57-2.57-2.02-4.1-3.03-6.17-5.55-5.71-7.06-9.51-19.66-13.74-28.74-.01-.5-.53-1.51-.54-2.01-1.56-2.02-.53-1.01-1.55-1.52-.43 3.53 4.35 14.62 5.95 18.66 5.82 12.6 12.66 25.71 26.4 31.26 2.03.5 3.05 1 4.57 1.51 4.58 1.51 18.2 1.01 23.74.5.5 0 2.51-.5 3.01-.5l6.51-2.52c12.51-5.04 16.79-17.65 20.58-29.24z" fill="#270318"/><path d="m1982.22 12322.55c-3.5 1.51-2.48 2.02-.88 6.05l5.35 14.12c.52 1.01 1.56 2.02 1.59 3.53 2.7 8.57 2.16 6.55 11.87 12.6 8.68 4.54 25.29 2.52 34.33.51 12.06-2.52 11.43-8.57 13.31-15.13 2.33-9.07 5.75-14.62 5.58-22.69-1.5 1.01-5.34 10.09-6.31 12.1-1.91 5.05-2.85 8.57-5.28 12.61-5.84 10.59-10.84 12.6-22.94 13.11-8.07.5-10.1 0-14.22-4.04-4.63-4.03-5.63-3.53-8.78-9.58-1.56-2.01-2.59-3.02-3.65-5.54-1.06-2.02-1.6-4.04-2.67-6.56l-5.22-8.57c-.02-.5-.53-1.01-1.05-1.51-1.04-1.51-.01-.5-1.03-1.01z" fill="#f60000"/><path d="m2041.84 12158.7c-1 .5-.5.5-.99 1.01-.51 0-1.99 1.51-4.03.5l.03 1.51c1.02.51 2.01-.5 1.07 2.52-.46 2.02-3.46 3.53-4.95 4.54-2.01.51-3.52 1.01-5.01 2.02l-9.92 8.07c-4.43 5.54-8.86 10.58-13.11.5-2.13-5.04-2.11-4.03-6.2-6.55-2.56-2.02-4.12-4.04-8.17-4.54-4.06-1.01-5.6-2.52-7.18-5.55 1-.5 1.5-.5 1.98-1.51l-6.06-.5c1.64 6.05 8.29 10.08 11.41 14.62-1.02-.51-.5 0-1.52-.51l4.13 4.54c1.05 2.02 2.09 3.53 4.14 5.04 12.38 12.61 12.74 5.55 20.69-.5 3.46-3.03 4.96-4.04 7.4-8.07l.98-1.01s.5-.5.5-.5c-1.51.5-1 .5-1.5 1.01l-.51-.51s-.01-.5.5 0l1.48-2.01c5.45-4.54 15.57-3.53 14.84-14.12z" fill="#a6908a"/><path d="m2014.08 12230.29c.61 5.04-.16 16.13 5.91 16.64 13.14 1.01 12.06-26.22 3.94-28.24-5.57-1-10.97 6.05-9.85 11.6z" fill="#dfe2e1"/><g fill="#f60000"><path d="m2057.42 12131.98c-1.14-6.05 9.91-8.57 10.06-1.51-.44 3.02-1.39 5.54-4.42 5.54-2.52 0-5.59-1.51-5.64-4.03zm17.12-2.02c-2.6-3.53-3.24-10.08 1.83-9.07 3.55 1.01 4.2 8.06-1.83 9.07zm-25.71 1.51c2.6 3.53 14.82 8.58 20.84 7.06 19.1-4.03 11.11-23.69 5.03-24.7-4.05-.51-6.99 3.53-8.97 5.54-2.48 2.02-4.94 5.05-7.42 7.06-2.98 2.02-7.01 2.52-9.48 5.04z"/><path d="m1945.38 12131.98c-4.08-2.02-4.28-11.09-.24-11.09 2.02 0 3.6 3.02 3.15 5.54-.44 3.03-1.01 0-2.91 5.55zm17.58-4.03c1.56 2.52 2.09 3.52.12 6.05-1.48 1.51-4.48 2.52-7.04 1-3.07-2.01-4.77-10.58 4.36-8.57-1.03-1.01-.51-.5-1.55-1.51-3.59-3.02-8.27-9.58-10.83-11.09-9.69-4.54-14.69 21.17 0 23.69 8.11 1.52 17.67.51 24.62-5.04-1.58-3.02-6.14-4.03-9.68-4.53z"/><path d="m1896.52 12303.39s-.51-.5-.51-.5c-.52-.5-.52-.5-.52-.5l-2.61-4.04-5.71-7.56c-3.1-3.53-10.34-11.6-13.94-14.62-6.17-5.55-34.5-32.27-35.57-35.29l-.52-.51c-1.53-1-3.1-3.53-4.15-5.54-.51 0-.51 0-.53-1.01-5.26-10.08-11.04-21.18-16.31-31.26-4.71-8.07-10.41-15.12-11.61-24.2-.07-3.02.42-4.03-2.11-4.03-2.03-.51-4.54 0-1.49 1.01.14 6.55.64 6.55 3.28 11.59 1.58 3.53 3.17 7.06 5.25 9.58 3.15 6.05 7.31 11.6 10.98 18.15 3.17 6.56 11.58 22.69 16.23 27.73l36.11 36.8c9.81 10.09 11.88 12.61 20.68 23.2 2.1 3.52 3.67 6.55 6.75 8.57-.55-2.02-.02-.51-.56-2.52z"/></g><path d="m1999.05 12235.33c.62 5.55 2.79 12.61 9.82 11.09 5.04-.5 4.83-10.58 4.72-15.63.16-16.13-16.97-14.62-14.54 4.54z" fill="#dfe2e1"/><path d="m1907.58 12110.8 1.42-4.53c-.07-3.03-1.09-3.53-1.59-3.53 0 0 0 0-.01-.51l1.5-.5c-.55-2.02-.07-3.53-.12-5.55 0 0 .98-1.51-2 .51-1.6-4.04-2.62-4.54-6.19-6.05-3.57-2.02-5.64-4.04-7.68-5.04.08 3.52 1.19 8.57.73 10.58-.42 4.04-.64 17.14 1.94 20.17 1.54 1.01 4.63 4.03 6.67 5.04-.1-5.04-.69-9.07-1.8-13.61l-1.11-4.54s2.66 6.05 3.18 7.06c1.56 2.02 2.62 4.54 4.18 6.55-.58-3.53.41-4.53-.66-7.05-3.16-6.56-5.12-3.53-7.77-9.58-1.59-3.53-2.6-3.53-3.65-5.55l11.82 10.08c2.07 2.52.56 2.52 1.14 6.05zm-.86 7.06c1-.5 1.49-1.01.97-2.01-.51 0-.52-.51-.99 1 0 0 .01.51.02 1.01z" fill="#4c303d"/><path d="m2013.09 12445.57h2.53c1.02.5 2.04 1.01 3.05 1.01 5.59 2.01 14.18 2.52 20.24 2.52.96-2.52.89-5.55 1.34-8.07.39-5.55 2.38-7.06 1.35-8.07-.5.51-.5.51-.5.51-8.93 7.06-18.04 6.05-31.22 3.53.55 2.01 2.17 7.06 3.21 8.57z" fill="#75686b"/><g fill="#dfe2e1"><path d="m2034.52 12241.89c6.04-.51 7.41-7.57 6.75-14.62-.06-3.03-.64-6.56-1.21-9.58-1.07-3.03-2.13-5.05-5.66-5.05-4.4 6.56-4.05 23.2.12 29.25z"/><path d="m1972.39 12239.87.5-.5c.49-.51 0 0 .48-1.01 4.82-10.59-1.18-31.77-5.27-34.29-3 1.01-2.46 3.03-1.82 9.08.57 3.02.64 6.55 1.21 9.58.57 3.02.64 6.55 1.71 9.07.59 4.04 1.63 5.55 3.19 8.07z"/><path d="m1981.9 12212.14c-5.87 8.57-5.11 20.67 1.1 28.23 4.04 0 4.53-1 4.44-5.04-.06-3.02-.13-6.05-.7-9.07-.1-5.04-.28-13.11-4.84-14.12z"/><path d="m2055.15 12238.86c2.4-5.54 3.84-9.07 4.7-16.13.43-3.53.37-6.56.29-10.09-.1-4.53.35-7.56-1.22-10.08-2.53 0-2.98 2.52-4.41 6.56-.43 3.52-.86 7.05-1.3 10.08-.87 6.55-1.32 9.07.32 15.12.02.51.55 2.02.56 2.52z"/><path d="m1995.68 12242.89c4.85-9.07 2.51-24.2-2.09-26.72-6.51 2.02-7.04 24.71 2.09 26.72z"/><path d="m2046.07 12239.37c5.02-1.52 4.64-19.16 4.04-23.7-.62-5.55-.15-7.06-2.64-5.55-2.49 1.52-4.83 10.09-4.76 13.62.06 2.52.63 6.05.7 9.07.05 2.52.62 5.55 2.66 6.56z"/><path d="m2026.95 12337.17c-4.03.51-5.49 3.03-5.9 7.57-.46 2.01-.42 4.03-.36 6.55.02 1.01.05 2.52.07 3.53l1.05 2.02 7.56-.51c.45-2.52-1.34-15.63-2.42-19.16z"/><path d="m2010.81 12337.68c-.93 4.03-.29 10.08-.2 14.62-.43 3.53-1.42 4.54 1.62 5.04 2.03.5 5.06.5 6.56 0 .46-2.52-.68-8.57-1.26-12.1-.56-2.52-2.7-8.07-6.72-7.56z"/></g><path d="m2109.78 12102.23c2.03.51.5-.5 1.53.51-.99 1.01-1.97 2.52-1.92 4.53l1.09 4.04c.54 1.51-.5 0 1.03 1.01-.56-2.52-1.04-1.52-.58-3.53.45-2.52-.01-.51-.01-.51l.01.51c-.06-3.03.94-3.53 1.92-5.04-.98 1.51-1.51.5-1.51.5l.99-1.01c.98-1.51.96-2.52 2.94-4.03 1.48-1.51.99-1.01 2.99-2.02-.45 2.52.02 1.01-.96 2.52-.48 1.01-1 .51-1 .51-.5 0-1.98 1.51-1.98 1.51s-.01-.51 1.49-1.01c.06 3.03-1.49 1.01-.43 3.53.98-1.51 3.46-3.53 4.42-5.55.99-1 .97-2.01 1.96-3.02 2.94-4.03 2.55 1.51 2.29-11.09-2.52.5-5.48 3.53-6.96 5.04-1.98 2.02-4.98 3.02-6.47 4.54 1.5-1.01 2.98-2.52 5-2.52-1.44 3.52-5.48 3.52-5.43 6.05l.55 2.01 1.94-3.53c.98-1.51.97-2.01 2.45-3.53-.4 4.54-1.36 7.06-4.35 9.08zm-.62-5.54c-.48 1.01-.02-1.01.05 2.01-.43 3.53-.57-3.02.02 1.01l.02 1.01.47-1.51c-.02-1.01-.03-1.51-.56-2.52z" fill="#4c303d"/><path d="m2238.56 12177.35-.51-.5s-.52-.51-.52-.51 0 0-.01-.5c-6.23-8.07-28.2-20.67-37.3-21.68 2.05 1.51 6.66 4.54 9.21 6.05l27.09 16.13s0 0 .52.51l1.02.5z" fill="#f60000"/><path d="m2044.06 12335.16c2.86-8.07 7.81-12.61 7.2-17.65-10.22-6.05-9.99 5.04-9.34 11.6l1.61 4.53c.55 2.02.02 1.01.53 1.52z" fill="#dfe2e1"/><path d="m1901.18 12142.06c4.88-7.56 5.2-16.64-5.52-22.18 1.08 3.53.19 9.07 1.28 12.6 1.08 3.53 4.19 7.57 4.24 9.58z" fill="#4c303d"/><path d="m1983.67 12319.53c1.1 4.03 5.8 11.59 7.91 15.63 1.94-3.53 3.19-16.14-.89-18.15-3.06-1.52-5.55.5-7.02 2.52z" fill="#dfe2e1"/><path d="m2116.17 12117.86s2-1.01.51 0-.99 1.01-.51 0zm1.37-7.06c.03 1.52.03 1.52-.96 2.52.45-2.52.46-2.01.96-2.52zm-2.91 5.55 1.95-3.03-.88 6.05c9.01-3.52 7.72-16.63 7.08-23.19-1.34 8.07-9.44 7.06-8.15 20.17z" fill="#4c303d"/><path d="m1793.92 12177.35c2-1.01 7.48-4.03 8.45-6.05 5.42-6.05.98-1.51 7.42-7.06 4.46-4.03 12.44-8.57 16.9-12.1-8.04 1.52-20.95 11.6-26.39 16.64-.98 1.51-1.97 2.52-3.46 3.53-2.46 3.03-2.48 2.02-2.92 5.04z" fill="#f60000"/><path d="m2046.16 12386.58c-19.86-8.57-33.97-7.56-54 0 16.08-3.53 25.62-5.54 41.34-2.02 2.54.51 10.66 2.53 12.66 2.02z" fill="#270318"/><g fill="#dfe2e1"><path d="m1962.96 12127.95-2.56-1.52c-9.13-2.01-7.43 6.56-4.36 8.57 2.56 1.52 5.56.51 7.04-1 1.97-2.53 1.44-3.53-.12-6.05z"/><path d="m2057.42 12131.98c.05 2.52 3.12 4.03 5.64 4.03 3.03 0 3.98-2.52 4.42-5.54-.15-7.06-11.2-4.54-10.06 1.51z"/><path d="m1995.91 12325.58c-.5 0-.49.5-.49.5l-.46 2.02c-.96 2.52-1.89 6.05-1.32 9.07.06 3.03 3.2 8.07 5.75 9.58 1.38-6.55-1.84-15.63-3.5-22.18z"/><path d="m1904.54 12229.28c1.07 3.03 1.27 12.1 2.36 16.14 0 0 .53 1 .53 1 .52 1.01.52 1.01.53 1.52.93-4.04 3.7-16.14 3.64-19.16h-4.55c-1 .5.51 0-1 .5-.5 0-1.51 0-1.51 0z"/><path d="m1999.04 12306.42c-.55-2.02-2.09-3.53-3.14-5.55-2.13-5.04-3.21-8.57-4.33-13.61-.54-1.51-1.06-2.52-1.59-3.53-.02-1.01-.02-1.01-.54-1.51-.01-.5.5-.5-.02-1.01-1.03-1.01 0 0-1.02-.5-3.93 5.04 2.36 16.13 5.99 20.67 1.06 2.52 2.12 4.53 4.65 5.04z"/><path d="m2000.47 12349.78c1.05 2.01 4.66 5.54 7.69 6.05-.04-2.02-1.29-13.62-2.86-16.14-3.01 1.01-1.99 1.52-2.92 5.05-.98 1.51-1.45 3.02-1.91 5.04z"/><path d="m2114.49 12228.78c.07 3.53 1.15 6.55 2.22 9.58.58 3.53 1.16 7.06 2.23 10.08l2.1-20.17-1.53-.5c-1 .5 0 0-1 .5-.5 0-1.01 0-1.51 0-1.5.51-1.01 0-2.51.51z"/></g><path d="m1909.27 12166.77 13 18.15c4.17 6.05 7.35 13.1 11.51 19.15-2.7-8.57-17.93-36.3-24.51-37.3z" fill="#270318"/><path d="m1918.85 12070.97c3.51-1 7.43-6.55 17.04-5.54 3.54.5 5.57 1.01 9.14 2.52 1.52.5 3.03 0 4.05.5 1.01 0 3.04.51 4.06 1.01-6.7-6.55-20.36-8.06-27.85-4.03-2.49 1.51-5.49 3.02-6.44 5.54z" fill="#6f4c51"/><path d="m1904.54 12229.28h1.51c1.51-.5 0 0 1-.5l-2.53-.51c.51.51 9.59 0 9.59 0 .47-1.51.47-1.51.43-3.53-2.55-1-3.57-1.51-6.08-1-4.03.5 1.02.5-1 .5 0 0-5.59-2.02-5.97 4.03z" fill="#6f4c51"/><path d="m2032.54 12339.19c-.99 1.01-1.02-.5-1.43 4.03.02 1.01.05 2.02.08 3.53.05 2.52.61 5.04.66 7.56 3.51-1 4-2.01 5.46-4.53-.03-1.52-4.76-10.09-4.77-10.59z" fill="#dfe2e1"/><path d="m2036.61 12340.7.03 1.51c.55 2.02 1.08 3.03 1.61 4.54 2.99-2.01 5.88-8.57 3.22-15.12l-1.05-1.52c.06 2.53-2.34 8.58-3.81 10.59z" fill="#dfe2e1"/><path d="m2117.55 12206.59c5.48-3.52 11.96-7.05 16.92-11.09 2.48-2.01 11.88-11.09 12.31-14.62-.95 2.52-10.34 12.1-13.34 13.61-5.96 4.54-12.5 5.55-15.89 12.1z" fill="#270318"/><g fill="#dfe2e1"><path d="m1945.38 12131.98c1.9-5.55 2.47-2.52 2.91-5.55.45-2.52-1.13-5.54-3.15-5.54-4.04 0-3.84 9.07.24 11.09z"/><path d="m2074.54 12129.96c6.03-1.01 5.38-8.06 1.83-9.07-5.07-1.01-4.43 5.54-1.83 9.07z"/><path d="m1982.08 12316c1.52 0 3.02-.51 4.02-1.01 1.49-1.01.99-1.01.44-3.03-.57-3.02-1.13-5.54-2.18-7.56-.49.51 0 0-.99 1.01l-1.42 4.03c-.94 3.53-.94 3.53.13 6.56z"/></g><path d="m2095.95 12068.45c-5.65-4.53-8.68-4.53-16.76-4.53-6.56 0-9.57.5-16.06 4.03 4.02-1.01 6.51-2.52 10.53-3.03l-1.49 1.01c-.99 1.01-2.99 1.52-3.47 3.03 2.48-2.02 9.01-3.53 13.56-3.53 7.05-.51 8.6 1.01 13.69 3.02z" fill="#8d6f6c"/><path d="m1979.97 12311.46c1.5-.5.51.5 1.46-2.52l.47-1.51c2.37-7.57-1.25-11.6-.82-15.13-.5.51-.51 0-.99 1.01 0 0 .01.5-.48 1.01.01.5.02 1.01.04 2.02z" fill="#dfe2e1"/><path d="m2116.69 12142.06c2.42-4.54 3.88-7.06 4.26-13.11-1.97 2.52-3.46 3.53-4.93 5.55-2.47 2.52-1.41 5.04.67 7.56z" fill="#4c303d"/><path d="m2114.49 12228.78c1.5-.51 1.01 0 2.51-.51h1.51c1-.5 0 0 1-.5l4.52-1.01c-.52-1.01-.54-2.02-2.57-2.52-2.55-1.01-6.06 0-8.06 1.01.03 1.51-.47 1.51.57 3.02z" fill="#6f4c51"/><path d="m2105.71 12219.7c.52.51 1.54 1.01 3.05 1.01 1.01 0 .51 0 1.5-1.01.57 3.03 1.51 0 2.08 3.03 0 0-2.02 0-2.52 0-4.04 0-1.03-1.01-1.99 1.51 1.53 1.01 2.04 1.01 4.06 1.01.48-1.01 1.47-2.02 1.46-2.52l2.49-1.51c-1.51 0-4.03.5-4.55-.51-.54-1.51.36-6.55.33-8.07.94-3.52.45-2.52-.06-3.02-1.45 3.02-2.39 6.55-2.82 10.08z" fill="#c6b8b8"/><path d="m2049.45 12303.39c-.98 1.52-2.86 8.07-2.82 10.09l5.06.5c-.04-2.02-.07-3.53-.63-6.05l-1.09-3.53c-.02-1.01-.52-1.01-.52-1.01z" fill="#dfe2e1"/><path d="m2038.86 12303.9 1.48-1.51c.48-1.01.98-1.52.97-2.02 2.93-4.54 5.3-11.6 4.69-16.64-1.96 2.52-2.79 11.09-6.18 17.65-.48 1.51-.49 1.01-.96 2.52z" fill="#dfe2e1"/><path d="m2123.24 12141.56-.68-8.07c-1.48 1.51-1.91 5.04-3.34 9.08-.98 1.51-.93 3.53 1.05 2.01 0 0 2.97-3.02 2.97-3.02z" fill="#4c303d"/><path d="m2144.94 12308.44c.99-1.01 1.4-5.55 4.9-7.06-4 1.51-2.48 2.01-5.5 2.52.95-3.03.97-2.02 2.41-5.55-.99 1.01-2.46 3.03-2.93 4.54-.99 1.01-2.44 4.03-2.92 5.04z" fill="#702e3a"/><path d="m2090.55 12147.1c-.01-.5-.52-.5-.52-.5l-1.03-1.01c6.02-2.02 1.51-.5 6.54-1.01-1.03-1.01-1.02-.5-2.05-1.51-2.05-1.51-.55-2.02-.55-2.02.52.51 0 0 1.03 1.01 0 0 1.02.51 1.02.51.52.5 1.03 1 1.55 1.51 1.03 1.01 2.06 2.02 3.09 3.02-.54-2.01-1.08-3.53-2.62-4.53-3.11-4.04-3.08-2.52-1.59-3.53-.02-1.01-.02-1.01-1.02-.51-.98 1.01.01.51-.5 0h-1.01s0 0 .01.51l1.02.5c.52.51.52.51 1.54 1.01l1.55 2.02c.53 1 0 0 .54 1.51l-1.03-1.01c-1.03-1.01-3.59-2.52-5.62-3.02.55 2.01 1.57 2.52 2.61 4.03-3.53 0-5.04 0-7.02 2.02z" fill="#c6b8b8"/><path d="m2051.41 12300.87c1.07 2.52.65 6.56.7 9.08-.01-.51.5 0 .48-1.01 0 0 .5-.5.5-.5.44-3.03-.79-13.11-.86-16.64-.47 1.51-.01-.51-.47 1.51l-.44 3.03c.04 2.01.05 2.52-.42 4.03 0 0 .01.5.51.5z" fill="#dfe2e1"/><path d="m2915 1394.1h824.92c103.12 0 187.48 93.1 187.48 206.84v4767.96l-1012.4-1189.71z" fill="url(#b)" stroke="#666" stroke-miterlimit="22.9256" stroke-width="26.45"/><path d="m2915 7847.16 1012.4-1363.09v4929.21c0 113.38-84.38 206.15-187.5 206.15h-824.9z" fill="url(#c)" stroke="#666" stroke-miterlimit="22.9256" stroke-width="26.45"/><g fill="#dddad6" fill-rule="nonzero"><path d="m3466.11 1730.92h-89.81l-54.15 184.86h76.6l5.29-26.41h34.34l5.28 26.41h76.6s-53.88-183.8-54.15-184.86zm-54.15 116.2 9.24-47.54 9.25 47.54z"/><path d="m3466.11 7670.63h-89.81l-54.15 184.86h76.6l5.29-26.41h34.34l5.28 26.41h76.6s-53.88-183.8-54.15-184.86zm-54.15 116.2 9.24-47.54 9.25 47.54z"/><path d="m3463.46 5226.89s34.34-6.6 34.34-38.29c0-27.73-23.77-51.5-83.2-51.5-40.94 0-77.93 2.64-77.93 2.64v184.86s36.99 2.64 79.25 2.64c66.03 0 89.81-23.77 89.81-52.82 0-39.61-42.27-46.21-42.27-46.21zm-58.11-42.25h9.25c9.24 0 14.52 5.28 14.52 11.88s-5.28 11.88-14.52 11.88h-9.25zm10.57 95.07c-5.28 0-10.57 0-10.57 0v-26.41h10.57c10.56 0 15.84 5.28 15.84 13.2s-5.28 13.21-15.84 13.21z"/><path d="m3463.46 11166.6s34.34-6.6 34.34-38.29c0-27.73-23.77-51.5-83.2-51.5-40.94 0-77.93 2.64-77.93 2.64v184.86s36.99 2.64 79.25 2.64c66.03 0 89.81-23.77 89.81-52.82 0-39.61-42.27-46.21-42.27-46.21zm-58.11-42.25h9.25c9.24 0 14.52 5.28 14.52 11.88s-5.28 11.88-14.52 11.88h-9.25zm10.57 95.07c-5.28 0-10.57 0-10.57 0v-26.41h10.57c10.56 0 15.84 5.28 15.84 13.2s-5.28 13.21-15.84 13.21z"/></g><path d="m322.6 1394.1h824.92v3793.77l-1012.4 1181.03v-4769.48c0-112.93 84.36-205.32 187.48-205.32z" fill="url(#e)" stroke="#666" stroke-miterlimit="22.9256" stroke-width="26.42"/><g fill="#dddad6" fill-rule="nonzero"><path d="m626.31 3387.87-72.88 30v94.29l64.31-21.43v197.14h111.46v-300z"/><path d="m2062.38 2030.82 34.71-112.8v112.8h75.23v-202.47h-107.05l-33.26 109.91-33.28-109.91h-107.05v202.47h75.23v-112.8l34.72 112.8z"/><path d="m1997.29 5919.26 8.53-37.88 43.7-7.58-3.61 16.93c13.14-5.03 24.69-7.58 34.51-7.58 20.08 0 34.35 4.8 42.64 14.33 8.36 9.53 12.5 22.97 12.5 40.37 0 9.47-2.72 20.31-8.23 32.5-5.51 12.26-12.68 23.86-21.5 34.81-8.88 11.01-19.59 20.31-32.27 27.89-12.67 7.57-25.4 11.36-38.26 11.36-9.82 0-17.87-1.3-24.09-3.85-5.8 26.11-10.07 44.82-12.86 56.13-.23 1.12-.35 2.84-.35 5.21 0 5.62 1.54 8.46 4.68 8.46h6.46c6.81 0 10.18 1.42 10.18 4.38v8.53l-.65 1.06c-21.32 0-36.48 0-45.48 0-3.67 0-9.23 0-16.58 0-7.34 0-13.8 0-19.3 0h-8.17l-.71.36v-8.23c0-2.78 3.67-4.2 10.95-4.2h6.75c4.85 0 8.52-5.33 10.95-15.99l34.17-150.31c-6.63 6.51-12.02 12.73-16.34 18.65l-12.8-10.95c7.41-10.48 19.13-21.91 35.18-34.4zm90.66 47.72c2.37-9.24 3.56-16.99 3.56-23.39 0-6.33-.6-12.43-1.84-18.29-1.18-5.8-3.55-11.13-7.11-15.86-3.5-4.74-8-7.11-13.44-7.11-11.31 0-20.54 2.37-27.78 7.11l-24.8 107.92c6.63 8.11 13.08 12.13 19.47 12.13 8.78 0 16.89-3.37 24.35-10.06s13.32-14.86 17.64-24.39c4.26-9.53 7.59-18.89 9.95-28.06z"/></g><path d="m135.12 6484.07 1012.4 1353.48v3781.88h-824.9c-103.09 0-187.5-92.1-187.5-204.7z" fill="url(#f)" stroke="#666" stroke-miterlimit="22.9256" stroke-width="26.42"/><g fill="#dddad6" fill-rule="nonzero"><path d="m2062.38 11192.64 34.71-112.8v112.8h75.23v-202.47h-107.05l-33.26 109.91-33.28-109.91h-107.05v202.47h75.23v-112.8l34.72 112.8z"/><path d="m1997.29 6955.08 8.53-37.88 43.7-7.58-3.61 16.93c13.14-5.03 24.69-7.58 34.51-7.58 20.08 0 34.35 4.8 42.64 14.33 8.36 9.53 12.5 22.97 12.5 40.37 0 9.47-2.72 20.31-8.23 32.5-5.51 12.26-12.68 23.86-21.5 34.81-8.88 11.01-19.59 20.31-32.27 27.89-12.67 7.57-25.4 11.36-38.26 11.36-9.82 0-17.87-1.3-24.09-3.85-5.8 26.11-10.07 44.82-12.86 56.13-.23 1.12-.35 2.84-.35 5.21 0 5.62 1.54 8.46 4.68 8.46h6.46c6.81 0 10.18 1.42 10.18 4.38v8.53l-.65 1.06c-21.32 0-36.48 0-45.48 0-3.67 0-9.23 0-16.58 0-7.34 0-13.8 0-19.3 0h-8.17l-.71.36v-8.23c0-2.78 3.67-4.2 10.95-4.2h6.75c4.85 0 8.52-5.33 10.95-15.99l34.17-150.31c-6.63 6.51-12.02 12.73-16.34 18.65l-12.8-10.95c7.41-10.48 19.13-21.91 35.18-34.4zm90.66 47.72c2.37-9.24 3.56-16.99 3.56-23.39 0-6.33-.6-12.43-1.84-18.29-1.18-5.8-3.55-11.13-7.11-15.86-3.5-4.74-8-7.11-13.44-7.11-11.31 0-20.54 2.37-27.78 7.11l-24.8 107.92c6.63 8.11 13.08 12.13 19.47 12.13 8.78 0 16.89-3.37 24.35-10.06s13.32-14.86 17.64-24.39c4.26-9.53 7.59-18.89 9.95-28.06z"/><path d="m759.88 9420.86c0-48.25-46.16-94.4-119.61-94.4-79.74 0-117.51 46.15-117.51 46.15l39.87 62.94s25.18-23.08 60.85-23.08c14.69 0 23.09 8.39 23.09 20.98 0 37.76-117.51 109.09-117.51 109.09v83.91h226.62v-92.31h-83.93s88.13-41.95 88.13-113.28z"/></g><g fill="#001a2d"><path d="m715.34 5312.5c22.87-9.84 43-23.44 60.39-40.85 17.41-17.39 31.01-37.62 40.85-60.68 9.82-23.06 14.74-47.64 14.74-73.73s-4.92-50.67-14.74-73.73c-9.84-23.06-23.44-43.29-40.85-60.68-17.39-17.41-37.62-31.01-60.68-40.85-23.06-9.82-47.64-14.74-73.73-14.74s-50.57 4.92-73.44 14.74c-22.88 9.84-43.12 23.54-60.7 41.12s-31.28 37.82-41.12 60.7c-9.82 22.87-14.74 47.35-14.74 73.44s4.92 50.67 14.74 73.73c9.84 23.06 23.54 43.29 41.12 60.68 17.58 17.41 37.82 31.01 60.7 40.85 22.87 9.82 47.35 14.74 73.44 14.74 26.46 0 51.14-4.92 74.02-14.74zm-161.93-222.34h174.69l-87.34 139.53zm225.16-13.04c4.16 9.45 7.28 19.1 9.36 28.93 2.08 9.82 3.12 20.22 3.12 31.19 0 20.42-3.69 39.41-11.06 57.01-7.37 17.58-17.67 33.17-30.91 46.79-13.24 13.6-28.55 24.48-45.94 32.61-17.39 8.12-36.3 12.57-56.71 13.32zm-209.85-71.18c22.31-12.28 46.51-18.43 72.6-18.43s50.1 6.05 72.03 18.15 39.88 28.93 53.88 50.47h-251.82c13.23-21.17 31.01-37.89 53.31-50.19zm10.21 267.71c-17.39-8.13-32.61-19.1-45.66-32.9-13.04-13.8-23.25-29.49-30.62-47.08-7.37-17.58-11.06-36.39-11.06-56.43 0-10.97 1.04-21.37 3.12-31.19 2.08-9.83 5.01-19.1 8.78-27.8l131.03 208.72c-19.66-.75-38.2-5.2-55.59-13.32z"/><path d="m715.34 11252.21c22.87-9.84 43-23.44 60.39-40.85 17.41-17.39 31.01-37.62 40.85-60.68 9.82-23.06 14.74-47.64 14.74-73.73s-4.92-50.67-14.74-73.73c-9.84-23.06-23.44-43.29-40.85-60.68-17.39-17.41-37.62-31.01-60.68-40.85-23.06-9.82-47.64-14.74-73.73-14.74s-50.57 4.92-73.44 14.74c-22.88 9.84-43.12 23.54-60.7 41.12s-31.28 37.82-41.12 60.7c-9.82 22.87-14.74 47.35-14.74 73.44s4.92 50.67 14.74 73.73c9.84 23.06 23.54 43.29 41.12 60.68 17.58 17.41 37.82 31.01 60.7 40.85 22.87 9.82 47.35 14.74 73.44 14.74 26.46 0 51.14-4.92 74.02-14.74zm-161.93-222.34h174.69l-87.34 139.53zm225.16-13.04c4.16 9.45 7.28 19.1 9.36 28.93 2.08 9.82 3.12 20.22 3.12 31.19 0 20.42-3.69 39.41-11.06 57.01-7.37 17.58-17.67 33.17-30.91 46.79-13.24 13.6-28.55 24.48-45.94 32.61-17.39 8.12-36.3 12.57-56.71 13.32zm-209.85-71.18c22.31-12.28 46.51-18.43 72.6-18.43s50.1 6.05 72.03 18.15 39.88 28.93 53.88 50.47h-251.82c13.23-21.17 31.01-37.89 53.31-50.19zm10.21 267.71c-17.39-8.13-32.61-19.1-45.66-32.9-13.04-13.8-23.25-29.49-30.62-47.08-7.37-17.58-11.06-36.39-11.06-56.43 0-10.97 1.04-21.37 3.12-31.19 2.08-9.83 5.01-19.1 8.78-27.8l131.03 208.72c-19.66-.75-38.2-5.2-55.59-13.32z"/><g fill-rule="nonzero"><path d="m641.31 2143.8-329.39-412.88h294v96.19h-95.28l130.67 163.34 130.67-163.34h-95.28v-96.19h294.01z"/><path d="m641.31 8083.51-329.39-412.88h294v96.19h-95.28l130.67 163.34 130.67-163.34h-95.28v-96.19h294.01z"/></g></g><rect fill="#656565" height="2700" rx="93.9" ry="108.53" width="400" x="1831.99" y="2187.87"/><rect fill="#656565" height="2700" rx="93.9" ry="108.53" width="400" x="1831.99" y="8126.45"/><g fill="#dddad6" fill-rule="nonzero"><path d="m3214.33 3895.54-34.2 59.83h51.29l13.67-35.9 13.69 35.9h51.29l-34.2-59.83 32.49-59.82h-51.29l-11.98 32.48-11.96-32.48h-51.29z"/><path d="m3318.62 3835.72v119.65h44.45v-34.19h35.9v-34.18h-35.9v-13.68h44.45v-37.6z"/><path d="m3495.58 3835.72h-58.14l-35.05 119.65h49.58l3.43-17.09h22.22l3.42 17.09h49.58s-34.87-118.97-35.04-119.65zm-35.05 75.21 5.98-30.77 5.98 30.77z"/><path d="m3587.05 3919.47v-47.86h6.83c12.82 0 20.52 7.7 20.52 23.93 0 16.24-7.7 23.93-20.52 23.93zm75.23-23.93c0-36.75-22.92-61.53-68.4-61.53-27.35 0-51.28 1.71-51.28 1.71v119.65s23.93 1.71 51.28 1.71c45.48 0 68.4-24.79 68.4-61.54z"/><path d="m3214.33 9834.11-34.2 59.83h51.29l13.67-35.9 13.69 35.9h51.29l-34.2-59.83 32.49-59.82h-51.29l-11.98 32.48-11.96-32.48h-51.29z"/><path d="m3318.62 9774.29v119.65h44.45v-34.19h35.9v-34.18h-35.9v-13.68h44.45v-37.6z"/><path d="m3495.58 9774.29h-58.14l-35.05 119.65h49.58l3.43-17.09h22.22l3.42 17.09h49.58s-34.87-118.97-35.04-119.65zm-35.05 75.21 5.98-30.77 5.98 30.77z"/><path d="m3587.05 9858.04v-47.86h6.83c12.82 0 20.52 7.7 20.52 23.93 0 16.24-7.7 23.93-20.52 23.93zm75.23-23.93c0-36.75-22.92-61.53-68.4-61.53-27.35 0-51.28 1.71-51.28 1.71v119.65s23.93 1.71 51.28 1.71c45.48 0 68.4-24.79 68.4-61.54z"/></g><g fill="none" stroke="#dddad6" stroke-miterlimit="22.9256"><path d="m3181.4 3774.73c-78.15-68.86-122.93-168-122.93-272.16 0-200.33 162.4-362.73 362.73-362.73s362.73 162.4 362.73 362.73c0 104.58-45.14 204.06-123.83 272.94" stroke-linecap="round" stroke-width="42.33"/><path d="m3181.4 9713.3c-78.15-68.86-122.93-168-122.93-272.16 0-200.33 162.4-362.73 362.73-362.73s362.73 162.4 362.73 362.73c0 104.58-45.14 204.06-123.83 272.94" stroke-linecap="round" stroke-width="42.33"/><path d="m641.32 3965.53-55.8-96.65-55.8-96.63h111.6 111.6l-55.8 96.63z" stroke-width="16.93"/></g><path d="m678.32 3825.29c0-15.06-14.42-29.46-37.34-29.46-24.89 0-36.68 14.4-36.68 14.4l12.44 19.65s7.86-7.2 19-7.2c4.59 0 7.2 2.61 7.2 6.54 0 11.79-36.68 34.06-36.68 34.06v26.19h70.75v-28.81h-26.21s27.52-13.1 27.52-35.37z" fill="#dddad6" fill-rule="nonzero"/></svg>