<?xml version="1.0" encoding="UTF-8"?>
<!DOCTYPE svg PUBLIC "-//W3C//DTD SVG 1.1//EN" "http://www.w3.org/Graphics/SVG/1.1/DTD/svg11.dtd">
<!-- Creator: CorelDRAW -->
<svg xmlns="http://www.w3.org/2000/svg" xml:space="preserve" width="3.8mm" height="3.8mm" version="1.1" shape-rendering="geometricPrecision" text-rendering="geometricPrecision" image-rendering="optimizeQuality" fill-rule="evenodd" clip-rule="evenodd"
viewBox="0 0 107.71 107.71"
 xmlns:xlink="http://www.w3.org/1999/xlink"
 xmlns:xodm="http://www.corel.com/coreldraw/odm/2003">
 <g id="Lights">
  <metadata id="CorelCorpID_0Corel-Layer"/>
  <path id="Gate_x0020_Lit" fill="#EFFA6E" fill-rule="nonzero" d="M53.85 107.71c-7.43,0 -14.42,-1.38 -20.94,-4.15 -6.53,-2.77 -12.26,-6.62 -17.21,-11.56 -4.94,-4.94 -8.79,-10.68 -11.56,-17.21 -2.77,-6.53 -4.15,-13.51 -4.15,-20.94 0,-7.52 1.38,-14.53 4.15,-21.01 2.77,-6.49 6.62,-12.2 11.56,-17.14 4.94,-4.94 10.68,-8.8 17.21,-11.56 6.53,-2.77 13.51,-4.15 20.94,-4.15 7.53,0 14.53,1.38 21.01,4.15 6.48,2.76 12.19,6.62 17.13,11.56 4.94,4.94 8.8,10.65 11.56,17.14 2.77,6.48 4.15,13.49 4.15,21.01 0,7.43 -1.38,14.42 -4.15,20.94 -2.76,6.53 -6.62,12.26 -11.56,17.21 -4.94,4.94 -10.65,8.79 -17.13,11.56 -6.48,2.77 -13.49,4.15 -21.01,4.15zm0 -9.25c6.16,0 11.94,-1.16 17.34,-3.47 5.39,-2.31 10.13,-5.51 14.21,-9.59 4.08,-4.08 7.28,-8.82 9.59,-14.21 2.31,-5.39 3.47,-11.18 3.47,-17.34 0,-6.16 -1.16,-11.94 -3.47,-17.34 -2.31,-5.39 -5.51,-10.13 -9.59,-14.21 -4.08,-4.08 -8.82,-7.28 -14.21,-9.59 -5.39,-2.31 -11.17,-3.47 -17.34,-3.47 -6.16,0 -11.95,1.16 -17.34,3.47 -5.39,2.31 -10.13,5.51 -14.21,9.59 -4.08,4.08 -7.28,8.82 -9.59,14.21 -2.31,5.39 -3.47,11.17 -3.47,17.34 0,6.16 1.16,11.95 3.47,17.34 2.31,5.39 5.51,10.13 9.59,14.21 4.08,4.08 8.82,7.28 14.21,9.59 5.39,2.31 11.18,3.47 17.34,3.47zm-38.63 -22.3l38.63 -66.91 38.62 66.91 -77.25 0zm16.05 -9.25l45.15 0 -22.57 -39.17 -22.58 39.17z"/>
 </g>
</svg>
