<svg clip-rule="evenodd" fill-rule="evenodd" height="3.8mm" image-rendering="optimizeQuality" shape-rendering="geometricPrecision" text-rendering="geometricPrecision" viewBox="0 0 107.71 107.71" width="3.8mm" xmlns="http://www.w3.org/2000/svg"><path d="m53.85 107.71c-7.43 0-14.42-1.38-20.94-4.15-6.53-2.77-12.26-6.62-17.21-11.56-4.94-4.94-8.79-10.68-11.56-17.21-2.77-6.53-4.15-13.51-4.15-20.94 0-7.52 1.38-14.53 4.15-21.01 2.77-6.49 6.62-12.2 11.56-17.14s10.68-8.8 17.21-11.56c6.53-2.77 13.51-4.15 20.94-4.15 7.53 0 14.53 1.38 21.01 4.15 6.48 2.76 12.19 6.62 17.13 11.56s8.8 10.65 11.56 17.14c2.77 6.48 4.15 13.49 4.15 21.01 0 7.43-1.38 14.42-4.15 20.94-2.76 6.53-6.62 12.26-11.56 17.21-4.94 4.94-10.65 8.79-17.13 11.56s-13.49 4.15-21.01 4.15zm0-9.25c6.16 0 11.94-1.16 17.34-3.47 5.39-2.31 10.13-5.51 14.21-9.59s7.28-8.82 9.59-14.21 3.47-11.18 3.47-17.34-1.16-11.94-3.47-17.34c-2.31-5.39-5.51-10.13-9.59-14.21s-8.82-7.28-14.21-9.59-11.17-3.47-17.34-3.47c-6.16 0-11.95 1.16-17.34 3.47s-10.13 5.51-14.21 9.59-7.28 8.82-9.59 14.21-3.47 11.17-3.47 17.34c0 6.16 1.16 11.95 3.47 17.34s5.51 10.13 9.59 14.21 8.82 7.28 14.21 9.59 11.18 3.47 17.34 3.47zm-38.63-22.3 38.63-66.91 38.62 66.91zm16.05-9.25h45.15l-22.57-39.17z" fill="#effa6e" fill-rule="nonzero"/></svg>