<svg clip-rule="evenodd" fill-rule="evenodd" height="3.8mm" image-rendering="optimizeQuality" shape-rendering="geometricPrecision" text-rendering="geometricPrecision" viewBox="0 0 64.31 64.31" width="3.8mm" xmlns="http://www.w3.org/2000/svg"><path d="m32.15 64.31c-4.44 0-8.61-.82-12.5-2.48-3.9-1.65-7.32-3.95-10.27-6.9s-5.25-6.37-6.9-10.27-2.48-8.07-2.48-12.5c0-4.49.82-8.67 2.48-12.54 1.65-3.87 3.95-7.28 6.9-10.23s6.37-5.25 10.27-6.9 8.07-2.48 12.5-2.48c4.49 0 8.67.83 12.54 2.48s7.28 3.95 10.23 6.9 5.25 6.36 6.9 10.23 2.48 8.05 2.48 12.54c0 4.44-.83 8.61-2.48 12.5-1.65 3.9-3.95 7.32-6.9 10.27s-6.36 5.25-10.23 6.9-8.05 2.48-12.54 2.48zm0-5.52c3.68 0 7.13-.69 10.35-2.07s6.05-3.29 8.49-5.72c2.44-2.44 4.34-5.26 5.73-8.49 1.38-3.22 2.07-6.67 2.07-10.35s-.69-7.13-2.07-10.35-3.29-6.05-5.73-8.49-5.26-4.34-8.49-5.72c-3.22-1.38-6.67-2.07-10.35-2.07s-7.13.69-10.35 2.07-6.05 3.29-8.49 5.72c-2.44 2.44-4.34 5.26-5.72 8.49-1.38 3.22-2.07 6.67-2.07 10.35s.69 7.13 2.07 10.35 3.29 6.05 5.72 8.49c2.44 2.44 5.26 4.34 8.49 5.72 3.22 1.38 6.67 2.07 10.35 2.07zm-23.06-13.32 23.06-39.95 23.06 39.95zm9.58-5.52h26.96l-13.48-23.38z" fill="#e6e6e6" fill-rule="nonzero"/></svg>