<svg clip-rule="evenodd" fill-rule="evenodd" height="128.5mm" image-rendering="optimizeQuality" shape-rendering="geometricPrecision" text-rendering="geometricPrecision" viewBox="0 0 5080 12850" width="50.8mm" xmlns="http://www.w3.org/2000/svg"><g fill-rule="nonzero"><g fill="#2f2f2f"><path d="m2228.08 92.93v2.57c-17.89 6.27-34.76 14.6-50.8 24.98-16.04 10.28-36.4 25.49-61.08 45.54-24.57 20.04-43.49 35.16-56.55 45.23-12.95 10.08-25.92 20.46-38.66 30.94-12.75 10.49-25.2 20.87-37.43 31.15l3.9 8.53c23.56 19.84 48.84 43.59 75.89 71.14 27.15 27.66 54.29 55.31 81.54 83.17 27.15 27.86 51.41 51.19 72.7 70l19.64 7.2c-4.32 4.32-11.11 6.37-20.46 6.37-5.96 0-12.13-.72-18.52-2.26-6.37-1.64-12.74-3.7-18.91-6.17-21.29-18.81-49.87-46.98-85.76-84.6-35.88-37.52-62.11-64.56-78.55-80.8-16.46-16.35-36.3-33-59.55-50.06l-9.35 10.28c0 22.2-.51 55.51-1.54 99.92s-1.54 76.17-1.54 95.29c0 6.58 5.75 9.77 17.37 9.77s18.62.51 20.88 1.33c0 1.65-.72 3.4-2.16 5.14-1.34 1.65-2.88 2.78-4.63 3.4-10.48-1.65-21.7-2.47-33.52-2.47-13.88 0-29.31.82-46.37 2.47l-4.63-7.2c1.44-3.39 6.58-6.06 15.52-7.91 8.95-1.85 13.47-7.71 13.47-17.69 0-32.58-.31-71.65-.93-117.29-.61-45.75-1.23-91.49-1.85-137.44-.61-45.96-.92-85.84-.92-119.87 0-4.01-2.37-7.4-7.2-10.28-4.01-1.64-7.91-3.49-11.92-5.45l76.19-3.49 6.48 3.9c-.62.21-5.24.93-13.98 2.06-8.75 1.13-13.58 4.01-14.4 8.53l-4.32 167.57c.62 1.44 1.54 3.08 2.98 4.93s3.29 2.78 5.55 2.78c1.44 0 2.67-.62 3.91-1.75 21.9-14.19 42.57-30.02 61.9-47.39 19.43-17.48 40.62-38.24 63.76-62.2 23.03-24.05 44.32-46.05 63.64-66.2v-13.67z"/><path d="m2295.53 324.54c2.47-2.27 5.65-9.26 9.56-20.97 3.8-11.72 9.15-17.58 15.93-17.58 3.09 0 6.8.82 11.01 2.57 0 6.58-1.64 13.57-4.83 21.17-3.3 7.61-7.92 13.68-13.89 18.2-1.13-.31-3.8-.62-8.01-.82-4.32-.31-7.51-1.13-9.77-2.57zm21.18 26.21c.31 26.01.72 52.02 1.33 78.13.52 26.11 1.24 44 2.16 53.76.82 9.67 2.98 15.32 6.59 16.86 3.5 1.54 7.81 2.37 12.95 2.37 5.66 0 10.18-.41 13.57-1.24v3.91c-7.91 4.73-17.16 8.22-27.86 10.69-10.59 2.47-21.08 3.7-31.26 3.8-1.64-7.09-2.87-14.29-3.59-21.48-.72-7.2-1.03-15.83-1.03-25.7 0-5.14.1-12.95.41-23.65.31-10.58.41-18.4.41-23.54v-5.55c0-13.88-.72-24.36-2.16-31.35-1.44-7.09-3.92-10.69-7.62-10.69-1.74 0-4.31.41-7.91 1.13-3.5.61-5.55 1.03-6.17 1.03-3.7 0-6.37-1.34-8.02-3.81 8.74-3.18 17.58-6.27 26.32-9.35 9.06-4.01 17.48-9.05 25.09-15.32z"/><path d="m2382.73 302.23c1.64-.93 5.55-3.7 11.71-8.53 6.17-4.84 10.59-7.3 13.38-7.3 1.64 0 3.6.92 5.76 2.57v70c.82.31 2.26.62 4.21.93 2.06.21 3.91.41 5.55.41 3.39 0 10.18-.82 20.25-2.36 10.09-1.55 16.46-2.37 19.34-2.37 3.08 0 5.34.21 6.78.41v10.69c-4.83 1.14-14.49 1.96-29.1 2.57-14.49.52-24.26 1.14-28.99 1.65-.61 9.66-1.03 20.76-1.33 33.2-.31 12.55-.42 25.4-.42 38.76 0 14.8.62 26.01 1.75 33.82s4.32 14.08 9.67 18.81c5.44 4.63 12.23 6.99 20.45 6.99 2.78 0 5.77-.41 8.85-1.13 3.19-.72 8.54-2.67 16.14-5.96 7.71-3.29 13.37-5.24 16.96-5.86-3.08 9.87-8.73 16.24-16.96 19.22-8.32 2.99-16.34 5.66-24.37 8.02-7.92 2.37-13.98 3.6-18.3 3.6-9.05 0-17.17-2.16-24.27-6.58-7.09-4.42-11.41-10.9-13.06-19.53-1.54-8.74-2.57-18.5-3.18-29.61-.52-11.1-.82-23.44-.82-37.01 0-9.04 0-18.09 0-27.24 0-9.04 0-17.99 0-26.73-1.14-1.74-4.73-3.08-10.9-4.11-6.28-.92-8.34-3.7-6.39-8.22.32-.31 3.3-.72 8.96-1.34 5.65-.51 9.04-2.67 10.18-6.37-1.24-4.22-1.85-9.36-1.85-15.32 0-2.26.3-5.96.92-11 .62-5.14.93-8.94.93-11.51 0-4.22-.62-8.84-1.85-13.57z"/><path d="m2545.29 349.52h14.5c9.06 0 16.35.92 21.7 2.77s9.87 5.76 13.57 11.72c-1.13 6.79-3.08 10.28-5.86 10.28-1.44 0-5.76-3.49-12.95-10.28-7.2-6.78-12.25-10.18-15.12-10.18-8.95 0-16.66 1.55-22.83 4.73-6.27 3.09-10.58 7.61-12.96 13.47-2.36 5.76-3.6 10.79-3.6 15.11 0 7.4 2.47 14.6 7.42 21.59 4.93 6.99 16.03 12.75 33.3 17.48 17.28 4.72 27.25 11 30.13 19.01 2.78 7.92 4.22 14.4 4.22 19.23 0 5.96-1.34 11.72-4.01 17.27-2.78 5.55-6.89 11.51-12.34 17.99-5.55 6.37-11.31 11.41-17.28 15.11-5.96 3.7-12.75 5.55-20.35 5.55-5.45 0-11-1.13-16.87-3.49-5.76-2.27-10.08-5.97-12.95-11.21-2.78-7.2-4.84-12.34-5.97-15.52 2.88 0 8.43 2.57 16.86 7.81 8.34 5.24 13.68 8.22 16.15 8.94 2.37.72 6.38 1.13 12.13 1.13 4.53 0 8.84-.92 13.16-2.77 4.23-1.85 7.82-4.94 10.6-9.36 2.88-4.42 4.32-9.25 4.32-14.39 0-4.21-1.65-8.94-4.94-14.08s-14.4-10.69-33.42-16.66c-19.03-5.96-29.51-12.74-31.67-20.25-2.16-7.6-3.6-13.77-4.52-18.6-.83-4.84-1.24-8.74-1.24-11.52 0-8.02 2.37-16.14 7.2-24.36 4.83-8.33 9.77-14.8 14.7-19.43 4.94-4.73 11.32-7.09 18.92-7.09z"/><path d="m2736.76 372.85c0-8.84 4.83-14.9 14.6-18.4 9.77-3.39 20.47-5.14 32.19-5.14-4.84 24.78-7.3 49.55-7.3 74.33 0 12.54.61 24.05 1.95 34.64 1.23 10.48 2.67 18.81 4.22 24.77 1.54 5.97 3.49 8.95 5.75 8.95 4.01-.82 6.89-1.24 8.53-1.24 1.75 0 2.78.62 2.99 1.75-6.17 6.79-14.6 11.82-25.29 15.11-10.6 3.29-19.44 5.97-26.54 7.92 1.34-5.96 2.68-12.75 4.12-20.46 1.33-7.61 2.05-14.39 2.05-20.35 0-6.58-.51-12.54-1.54-17.89-22.72 26.63-38.25 44-46.58 52.02-8.32 8.12-19.75 12.13-34.24 12.13-5.45 0-12.44-1.75-21.28-5.35-8.75-3.49-15.22-9.87-19.34-19.12-4.11-9.15-6.16-20.56-6.16-34.23 0-6.48.51-16.45 1.64-29.71 1.13-13.36 1.65-23.13 1.65-29.4 0-7.61-.62-14.19-1.86-19.53 0-4.01-2.77-5.97-8.32-5.97-1.13 0-2.06 0-2.78 0-.61 0-1.33.21-1.85.42 5.04-5.04 11.82-10.28 20.25-15.53 8.43-5.24 15.95-8.53 22.73-9.97.52 4.01.82 7.92.82 11.93v11.92c0 6.17-.3 16.55-.92 31.15s-.93 22.51-.93 23.64c0 11 .52 20.46 1.55 28.17.92 7.81 2.87 16.55 5.75 26.21 2.78 9.56 9.46 14.4 20.05 14.4 7.41 0 21.19-7.82 41.23-23.44 20.06-15.73 30.13-42.15 30.13-79.47 0-2.46 0-5.03-.1-7.4-.1-2.47-.62-7.19-1.44-14.29z"/><path d="m2819.02 387.86c5.34-5.96 14.39-13.36 27.04-22.31 12.75-8.94 20.26-14.29 22.52-16.03 1.13 2.05 1.64 4.73 1.64 7.81 0 2.57.11 5.14.21 7.61.1 2.57 1.23 4.52 3.19 5.96 8.84-5.04 19.23-9.56 31.36-13.57 12.03-4.01 23.95-5.96 35.58-5.96 8.53 0 16.24 1.33 23.03 4.01 6.88 2.67 12.86 6.99 17.89 12.95 5.14 5.96 8.64 12.44 10.49 19.33 1.85 6.99 2.77 14.8 2.77 23.64 0 4.83-.61 13.88-1.85 27.34-1.13 13.47-1.74 22.31-1.74 26.63 0 5.04.1 9.77.41 13.98.31 4.22.92 8.33 1.95 12.34s2.88 7.09 5.55 9.35 7.09 3.39 13.06 3.39c2.06 0 4.43-.2 7.31-.61.61 3.9-.62 6.37-3.4 7.19-4.32.31-9.88 1.44-16.87 3.4-6.99 1.95-15.11 2.98-24.56 2.98-3.1 0-5.57-.21-7.21-.52-1.13-6.17-1.85-10.69-1.95-13.57-.11-2.77-.21-5.03-.21-6.78 0-6.48.93-18.61 2.78-36.08 1.85-17.58 2.77-29.51 2.77-35.78 0-13.26-1.95-24.57-5.76-33.82-3.8-9.15-10.07-16.45-18.7-21.69-8.64-5.24-17.7-7.81-27.05-7.81-12.75 0-23.13 4.01-31.26 11.92-8.12 8.02-13.67 18.2-16.76 30.53-3.19 12.34-4.73 26.52-4.73 42.46 0 10.48.11 17.68.41 21.59.31 3.8 1.34 15.83 3.29 36.08 0 3.39 3.4 5.86 10.08 7.4s10.28 3.39 10.9 5.35c-6.28.61-12.34 1.13-18.2 1.74-5.86.52-11.41.83-16.86.83-7.41 0-12.76-.21-16.05-.62s-7.6-1.34-13.05-2.78c6.06-6.27 10.28-14.08 12.54-23.33 2.36-9.25 3.49-20.56 3.49-33.93 0-9.14-.51-21.58-1.44-37.21-.92-15.62-1.33-25.39-1.33-29.09 0-4.01-1.13-5.96-3.39-5.96-1.13 0-3.4.72-6.58 2.16-3.29 1.43-5.45 2.05-6.58 2.05-1.75 0-3.29-.82-4.73-2.57z"/><path d="m3093.77 356.71c7.4-4.83 15.31-7.19 23.85-7.19 9.04 0 17.89 2.16 26.53 6.37 8.63 4.32 18.91 10.49 30.85 18.71-9.06 10.59-26.74 26.93-53.07 49.24-26.21 22.31-42.05 36.29-47.5 41.94 5.96 9.05 13.26 16.55 21.8 22.31 8.43 5.86 16.04 9.15 22.72 10.08 6.68.82 11.72 1.23 15.23 1.23 7.6 0 14.08-1.03 19.32-3.19 5.25-2.05 17.48-9.04 36.51-20.87-5.97 7.61-11.11 13.68-15.32 18.1-4.33 4.42-8.85 7.3-13.68 8.94-4.83 1.54-13.37 4.73-25.7 9.56-12.35 4.83-21.6 7.2-27.87 7.2-4.01 0-6.89-.21-8.74-.62s-7.31-2.78-16.35-6.89c-9.15-4.11-18.51-12.64-28.27-25.49-9.88-12.95-15.13-23.65-16.05-32.18-.82-8.53-1.24-14.49-1.24-17.89 0-16.55 4.94-30.84 14.71-42.86 9.77-12.13 23.85-24.26 42.27-36.5zm26 15.01c-5.65-3.7-12.13-5.55-19.22-5.55-12.55 0-22.83 5.14-30.85 15.52-7.91 10.39-11.92 22.21-11.92 35.57 0 13.06 4.01 25.8 12.02 38.35 12.24-7.71 26.33-19.12 42.26-34.34 15.94-15.11 26.64-24.88 32.09-29.09-2.57-4.01-5.55-7.3-8.95-10.08-3.5-2.67-8.54-6.16-15.43-10.38z"/></g><g fill="#770ba0"><path d="m2228.08 86.42v2.57c-17.89 6.27-34.76 14.6-50.8 24.98-16.03 10.28-36.4 25.49-61.07 45.54-24.58 20.04-43.5 35.16-56.56 45.23-12.95 10.08-25.92 20.46-38.66 30.94-12.75 10.49-25.19 20.87-37.43 31.15l3.9 8.53c23.56 19.84 48.85 43.59 75.89 71.14 27.15 27.66 54.3 55.31 81.54 83.17 27.15 27.86 51.42 51.19 72.7 70l19.65 7.2c-4.33 4.32-11.12 6.37-20.47 6.37-5.96 0-12.13-.72-18.51-2.26-6.38-1.64-12.75-3.7-18.92-6.17-21.28-18.81-49.87-46.98-85.76-84.6-35.88-37.52-62.11-64.56-78.55-80.8-16.45-16.35-36.3-33-59.54-50.06l-9.36 10.28c0 22.2-.51 55.51-1.54 99.92s-1.54 76.17-1.54 95.29c0 6.58 5.75 9.77 17.38 9.77 11.61 0 18.61.51 20.87 1.33 0 1.65-.72 3.4-2.16 5.14-1.34 1.65-2.88 2.78-4.63 3.4-10.48-1.65-21.7-2.47-33.52-2.47-13.88 0-29.31.82-46.37 2.47l-4.63-7.2c1.44-3.39 6.58-6.06 15.52-7.91 8.96-1.85 13.48-7.71 13.48-17.69 0-32.58-.31-71.65-.93-117.29-.61-45.75-1.23-91.49-1.85-137.44-.61-45.96-.92-85.84-.92-119.87 0-4.01-2.37-7.4-7.21-10.28-4.01-1.64-7.91-3.49-11.92-5.45l76.19-3.49 6.48 3.9c-.62.21-5.24.93-13.98 2.06s-13.58 4.01-14.4 8.53l-4.32 167.57c.62 1.44 1.54 3.08 2.98 4.93s3.29 2.78 5.56 2.78c1.44 0 2.67-.62 3.91-1.75 21.89-14.19 42.57-30.02 61.89-47.39 19.44-17.48 40.62-38.24 63.76-62.2 23.03-24.05 44.32-46.05 63.64-66.2v-13.67h80.21z"/><path d="m2295.53 318.03c2.47-2.27 5.65-9.26 9.56-20.97 3.8-11.72 9.15-17.58 15.94-17.58 3.09 0 6.79.82 11 2.57 0 6.58-1.64 13.57-4.83 21.17-3.29 7.61-7.91 13.68-13.89 18.2-1.13-.31-3.8-.62-8.01-.82-4.32-.31-7.51-1.13-9.77-2.57zm21.18 26.21c.32 26.01.73 52.02 1.34 78.13.52 26.11 1.24 44 2.16 53.76.82 9.67 2.98 15.32 6.58 16.86 3.5 1.54 7.81 2.37 12.95 2.37 5.66 0 10.18-.41 13.57-1.24v3.91c-7.91 4.73-17.16 8.22-27.86 10.69-10.59 2.47-21.08 3.7-31.26 3.8-1.64-7.09-2.87-14.29-3.59-21.48-.72-7.2-1.03-15.83-1.03-25.7 0-5.14.1-12.95.41-23.65.31-10.58.41-18.4.41-23.54v-5.55c0-13.88-.72-24.36-2.16-31.35-1.44-7.09-3.91-10.69-7.61-10.69-1.74 0-4.32.41-7.92 1.13-3.5.61-5.55 1.03-6.17 1.03-3.7 0-6.37-1.34-8.02-3.81 8.74-3.18 17.58-6.27 26.33-9.35 9.05-4.01 17.47-9.05 25.08-15.32z"/><path d="m2382.73 295.72c1.64-.93 5.55-3.7 11.71-8.53 6.18-4.84 10.6-7.3 13.38-7.3 1.64 0 3.6.92 5.76 2.57v70c.82.31 2.26.62 4.21.93 2.06.21 3.91.41 5.55.41 3.39 0 10.18-.82 20.26-2.36 10.08-1.55 16.45-2.37 19.33-2.37 3.08 0 5.34.21 6.78.41v10.69c-4.83 1.14-14.49 1.96-29.09 2.57-14.5.52-24.27 1.14-29 1.65-.61 9.66-1.03 20.76-1.33 33.2-.31 12.55-.42 25.4-.42 38.76 0 14.8.62 26.01 1.75 33.82s4.32 14.08 9.67 18.81c5.44 4.63 12.23 6.99 20.46 6.99 2.78 0 5.76-.41 8.84-1.13 3.19-.72 8.54-2.67 16.14-5.96 7.71-3.29 13.38-5.24 16.97-5.86-3.08 9.87-8.74 16.24-16.97 19.22-8.32 2.99-16.34 5.66-24.36 8.02-7.93 2.37-13.99 3.6-18.31 3.6-9.05 0-17.17-2.16-24.26-6.58-7.1-4.42-11.42-10.9-13.07-19.53-1.54-8.74-2.57-18.5-3.18-29.61-.52-11.1-.82-23.44-.82-37.01 0-9.04 0-18.09 0-27.24 0-9.04 0-17.99 0-26.73-1.14-1.74-4.73-3.08-10.9-4.11-6.27-.92-8.33-3.7-6.38-8.22.31-.31 3.29-.72 8.95-1.34 5.65-.51 9.04-2.67 10.18-6.37-1.24-4.22-1.85-9.36-1.85-15.32 0-2.26.3-5.96.92-11 .62-5.14.93-8.94.93-11.51 0-4.22-.62-8.84-1.85-13.57z"/><path d="m2545.29 343.01h14.51c9.05 0 16.34.92 21.69 2.77s9.87 5.76 13.57 11.72c-1.13 6.79-3.08 10.28-5.86 10.28-1.44 0-5.76-3.49-12.95-10.28-7.2-6.78-12.24-10.18-15.11-10.18-8.96 0-16.67 1.55-22.84 4.73-6.27 3.09-10.58 7.61-12.95 13.47-2.36 5.76-3.6 10.79-3.6 15.11 0 7.4 2.47 14.6 7.41 21.59 4.93 6.99 16.03 12.75 33.31 17.48 17.27 4.72 27.24 11 30.12 19.01 2.78 7.92 4.22 14.4 4.22 19.23 0 5.96-1.34 11.72-4.01 17.27-2.78 5.55-6.89 11.51-12.34 17.99-5.55 6.37-11.31 11.41-17.27 15.11-5.97 3.7-12.76 5.55-20.36 5.55-5.45 0-11-1.13-16.86-3.49-5.76-2.27-10.09-5.97-12.96-11.21-2.78-7.2-4.84-12.34-5.97-15.52 2.88 0 8.43 2.57 16.87 7.81 8.33 5.24 13.67 8.22 16.14 8.94 2.37.72 6.38 1.13 12.13 1.13 4.53 0 8.85-.92 13.17-2.77 4.22-1.85 7.81-4.94 10.59-9.36 2.88-4.42 4.32-9.25 4.32-14.39 0-4.21-1.65-8.94-4.94-14.08s-14.39-10.69-33.42-16.66c-19.02-5.96-29.51-12.74-31.67-20.25-2.16-7.6-3.6-13.77-4.52-18.6-.83-4.84-1.24-8.74-1.24-11.52 0-8.02 2.37-16.14 7.2-24.36 4.83-8.33 9.78-14.8 14.71-19.43 4.93-4.73 11.31-7.09 18.91-7.09z"/><path d="m2736.76 366.34c0-8.84 4.83-14.9 14.6-18.4 9.77-3.39 20.47-5.14 32.19-5.14-4.84 24.78-7.3 49.55-7.3 74.33 0 12.54.61 24.05 1.95 34.64 1.23 10.48 2.67 18.81 4.22 24.77 1.54 5.97 3.49 8.95 5.75 8.95 4.01-.82 6.89-1.24 8.53-1.24 1.75 0 2.78.62 2.99 1.75-6.17 6.79-14.6 11.82-25.29 15.11-10.59 3.29-19.44 5.97-26.54 7.92 1.34-5.96 2.68-12.75 4.12-20.46 1.33-7.61 2.05-14.39 2.05-20.35 0-6.58-.51-12.54-1.54-17.89-22.72 26.63-38.25 44-46.58 52.02-8.32 8.12-19.74 12.13-34.24 12.13-5.45 0-12.44-1.75-21.28-5.35-8.74-3.49-15.22-9.87-19.34-19.12-4.11-9.15-6.16-20.56-6.16-34.23 0-6.48.51-16.45 1.64-29.71 1.13-13.36 1.65-23.13 1.65-29.4 0-7.61-.62-14.19-1.86-19.53 0-4.01-2.77-5.97-8.32-5.97-1.13 0-2.06 0-2.78 0-.61 0-1.33.21-1.85.42 5.04-5.04 11.82-10.28 20.25-15.53 8.44-5.24 15.95-8.53 22.73-9.97.52 4.01.82 7.92.82 11.93v11.92c0 6.17-.3 16.55-.92 31.15s-.93 22.51-.93 23.64c0 11 .52 20.46 1.55 28.17.92 7.81 2.87 16.55 5.75 26.21 2.78 9.56 9.46 14.4 20.06 14.4 7.4 0 21.18-7.82 41.23-23.44 20.05-15.73 30.12-42.15 30.12-79.47 0-2.46 0-5.03-.1-7.4-.1-2.47-.62-7.19-1.44-14.29z"/><path d="m2819.02 381.35c5.34-5.96 14.39-13.36 27.05-22.31 12.74-8.94 20.25-14.29 22.51-16.03 1.13 2.05 1.64 4.73 1.64 7.81 0 2.57.11 5.14.21 7.61.1 2.57 1.23 4.52 3.19 5.96 8.84-5.04 19.23-9.56 31.36-13.57 12.03-4.01 23.96-5.96 35.58-5.96 8.53 0 16.24 1.33 23.04 4.01 6.88 2.67 12.85 6.99 17.88 12.95 5.14 5.96 8.64 12.44 10.49 19.33 1.85 6.99 2.77 14.8 2.77 23.64 0 4.83-.61 13.88-1.85 27.34-1.13 13.47-1.74 22.31-1.74 26.63 0 5.04.1 9.77.41 13.98.31 4.22.92 8.33 1.95 12.34s2.88 7.09 5.55 9.35 7.1 3.39 13.07 3.39c2.05 0 4.42-.2 7.3-.61.61 3.9-.62 6.37-3.4 7.19-4.31.31-9.87 1.44-16.87 3.4-6.99 1.95-15.11 2.98-24.56 2.98-3.09 0-5.56-.21-7.2-.52-1.13-6.17-1.85-10.69-1.95-13.57-.11-2.77-.21-5.03-.21-6.78 0-6.48.93-18.61 2.78-36.08 1.85-17.58 2.77-29.51 2.77-35.78 0-13.26-1.95-24.57-5.76-33.82-3.81-9.15-10.08-16.45-18.71-21.69-8.64-5.24-17.69-7.81-27.05-7.81-12.75 0-23.13 4.01-31.25 11.92-8.13 8.02-13.68 18.2-16.77 30.53-3.19 12.34-4.73 26.52-4.73 42.46 0 10.48.11 17.68.41 21.59.31 3.8 1.34 15.83 3.29 36.08 0 3.39 3.4 5.86 10.08 7.4 6.69 1.54 10.29 3.39 10.9 5.35-6.27.61-12.34 1.13-18.2 1.74-5.86.52-11.41.83-16.86.83-7.4 0-12.75-.21-16.05-.62-3.29-.41-7.6-1.34-13.05-2.78 6.06-6.27 10.28-14.08 12.54-23.33 2.36-9.25 3.5-20.56 3.5-33.93 0-9.14-.51-21.58-1.45-37.21-.92-15.62-1.33-25.39-1.33-29.09 0-4.01-1.13-5.96-3.39-5.96-1.13 0-3.4.72-6.58 2.16-3.29 1.43-5.45 2.05-6.58 2.05-1.75 0-3.29-.82-4.73-2.57z"/><path d="m3093.77 350.2c7.4-4.83 15.31-7.19 23.85-7.19 9.05 0 17.89 2.16 26.53 6.37 8.63 4.32 18.91 10.49 30.85 18.71-9.05 10.59-26.74 26.93-53.07 49.24-26.21 22.31-42.05 36.29-47.5 41.94 5.96 9.05 13.27 16.55 21.8 22.31 8.43 5.86 16.04 9.15 22.72 10.08 6.69.82 11.73 1.23 15.23 1.23 7.6 0 14.08-1.03 19.32-3.19 5.25-2.05 17.49-9.04 36.51-20.87-5.97 7.61-11.11 13.68-15.32 18.1-4.32 4.42-8.84 7.3-13.68 8.94-4.83 1.54-13.37 4.73-25.7 9.56-12.35 4.83-21.6 7.2-27.87 7.2-4.01 0-6.89-.21-8.74-.62s-7.3-2.78-16.35-6.89c-9.15-4.11-18.51-12.64-28.27-25.49-9.88-12.95-15.13-23.65-16.05-32.18-.82-8.53-1.24-14.49-1.24-17.89 0-16.55 4.94-30.84 14.72-42.86 9.76-12.13 23.84-24.26 42.26-36.5zm26 15.01c-5.65-3.7-12.13-5.55-19.22-5.55-12.54 0-22.83 5.14-30.85 15.52-7.91 10.39-11.92 22.21-11.92 35.57 0 13.06 4.01 25.8 12.02 38.35 12.24-7.71 26.33-19.12 42.26-34.34 15.95-15.11 26.64-24.88 32.09-29.09-2.57-4.01-5.55-7.3-8.95-10.08-3.49-2.67-8.53-6.16-15.43-10.38z"/></g></g></svg>