<svg clip-rule="evenodd" fill-rule="evenodd" height="4.129mm" image-rendering="optimizeQuality" shape-rendering="geometricPrecision" text-rendering="geometricPrecision" viewBox="0 0 127.78 155.52" width="3.3925mm" xmlns="http://www.w3.org/2000/svg"><path d="m3.9 155.21 123.11-77.45c.52-.31.78-.83.78-1.56 0-.52-.37-.88-1.09-1.09l-55.17-13.86 53.92-58.75c.31-.31.47-.68.47-1.09 0-.52-.18-.89-.55-1.1-.36-.21-.7-.31-1.01-.31-.32 0-.57.05-.78.15l-122.95 75.11c-.42.11-.62.52-.62 1.25s.31 1.19.93 1.4l55.01 16.21-54.07 58.9c-.21.11-.31.42-.31.94 0 1.04.52 1.56 1.56 1.56.31 0 .57-.11.78-.31z" fill="#e6e6e6"/></svg>