<svg clip-rule="evenodd" fill-rule="evenodd" height="4.129mm" image-rendering="optimizeQuality" shape-rendering="geometricPrecision" text-rendering="geometricPrecision" viewBox="0 0 74.74 90.96" width="3.3925mm" xmlns="http://www.w3.org/2000/svg"><path d="m2.28 90.78 72-45.3c.3-.18.45-.49.45-.91 0-.3-.21-.52-.64-.64l-32.27-8.11 31.54-34.36c.18-.18.27-.4.27-.64 0-.31-.11-.52-.32-.64s-.41-.18-.59-.18c-.19 0-.33.03-.46.09l-71.91 43.93c-.24.06-.37.3-.37.73s.18.7.55.82l32.17 9.48-31.63 34.45c-.12.06-.18.24-.18.55 0 .61.3.91.91.91.18 0 .33-.06.46-.18z" fill="#effa6e"/></svg>