<svg clip-rule="evenodd" fill-rule="evenodd" height="128.5mm" image-rendering="optimizeQuality" shape-rendering="geometricPrecision" text-rendering="geometricPrecision" viewBox="0 0 2540 12850" width="25.4mm" xmlns="http://www.w3.org/2000/svg" xmlns:xlink="http://www.w3.org/1999/xlink"><linearGradient id="a" gradientUnits="userSpaceOnUse" x1="1270" x2="1269.99" y1="12334.2" y2="1639.41"><stop offset="0"/><stop offset=".768627" stop-color="#262626"/><stop offset="1" stop-color="#4c4c4c"/></linearGradient><path d="m1723.13 1639.41h-759.56c-80.7 0-146.71 65.99-146.71 146.71v10548.08h759.56c80.7 0 146.71-65.99 146.71-146.71v-10548.08z" fill="url(#a)" stroke="#666" stroke-miterlimit="22.9256" stroke-width="26.42"/><g fill="#dddad6"><path d="m1359.67 980.9c1-4 1-7 1-12-6 1-14 8-17 12-3.01 3-2 1-2 6l-2.01 19.01c13.01 5 19.01-15 20.01-25.01zm-101.04 21.01c3 0 13 2 15 3 4.01-8 6.01-17.01 10.01-25.01-4-3-10.01-7-16.01-8-1 7-9 21.01-9 30.01zm33.01-5c4-10.01 5.01-10.01-5-16.01l-7 20.01c-1 2-2 4 2 4 9 0 7 1 10-8zm100.05 10c1-2 2-5 2-8l-7-2c-2.01 3-2.01 5-3.01 8 3.01 1 4.01 2 8.01 2zm-79.04 15.01c-1 3-2 5-3 8 4-1 6-2 11.01-2v-6h-6.01zm-10-32.02c-2 3.01-9.01 25.02-9.01 29.02 10.01 0 6.01-2 10.01 0-1 2 0 2-4 3-9.01 3-9.01-2-8.01 11 15.01 0 14.01-6 18.01-16l9-24.01c-8 0-11 0-16-3.01zm64.03-16c0 13-2 25.01-2 39.02 0 14-1.01 25.01-1.01 40.01 3.01-1-2-1 6.01-1 0-13 3-29.01 6-40.02 1-7 3-12 4-19 2-5.01 5-12.01 5-18.01-5 0-14 1-18-1zm-96.05 34.01c-6 0-8-4-14-4l-6.01 19.01c-2 6-5 12-5 19.01 4 0 5 1 10.01 1 1-4 2-5 4-9.01l8-17c2-3 3-5.01 3-9.01zm12.01 1c-1 0-2 0-3 0-4 0-12.01 19.01-15.01 25.01-1 4.01-3 5.01-3 9.01 17.01 0 15.01 5 18.01-7l8-25.02c-1-1-4-1-5-2zm108.05 8.01c0-4 1-5.01 1-8.01-5 0-4-1-8.01-1-3 7.01-7 40.02-7 51.03h8c0-8.01 2.01-16.01 2.01-25.02h-7.01c7.01-11 6 8.01 11.01-17zm-34.02 38.01 1-30.01c-1 1 0 0-1 2l-2 5c-1 3-1 5.01-2 7.01-1 5-3 12-3 16zm6 11.01c0 4 2.01 4 6.01 4v-5c0-5 3-10.01-2-10.01h-4.01zm-42.01-34.02c-1 0-11.01 2-12.01 2-3 1-2 1-3 4.01l-9 23.01c5-1 8-3 13-4.01 4-2 9-2 12.01-4 0-4-2-4-5.01-6-2-2-4-3-6-5 4 0 7 1 10.01 2zm56.02 30.02v8c0 3 6 12.01 8 13.01v-21.01zm-177.08 7c2-5 6-15.01 6-22.01-3 0-4-1-7-1s-6 17.01-6 21.01c2 1 5 1 7 2zm52.03-3c8 0 13 1 19 1 1-6 5.01-14.01 5.01-19.01-3.01 1-11.01 0-17.01 0zm50.02-30.01c-13.01 0-12.01 4-16.01 21-1 3.01-1 8.01-2 10.01 6-1 11-7 13.01-12.01zm55.02 32.01c-5 0-4-1-9-1 0 4-1 3-1 7h10zm-189.08 8c6-3 11 2 16 3v-10c-6 0-3-2-13-2-1 2-2 6-3 9zm194.08 1c0 4.01 4.01 6.01 7.01 7.01v-9.01c-3-1-3-1-6.01-2-1 3-1 2-1 4zm-171.07-6c0 7-1 11.01-1 19.01l5-11.01c1-3 2-3 3-6-4-1-3-2-7-2zm62.03-24.01c-3.01 0-4.01-1-7.01-1-4 0-8 17.01-8 22.01l-4 25.01 11-23.01c2-7 8.01-17.01 8.01-23.01zm-70.04 48.02c0-4 0-9-1-12-2-4.01-15-8.01-18 4 6-3 13-4 14 4l-5 1c6 0 5 2 10 3zm163.08-8c0 7 4 10 9 16.01 1 1 2 2 2 3 3 3 2 2 6 1-3-6.01-6-12.01-7-20.01zm-28.02-27.01c-7 0-40.01 14-42.01 21.01-1 6-2.01 28.01-2.01 35.01 8.01-4 15.01-9 23.02-14.01 9-7 18-8 25.01-11v-8l-21.01 12c-6.01 3-16.01 11.01-20.01 12.01 0-5.01 1-4 9-8.01 3-3 6-5 10.01-7l21.01-13.01v-7c-7.01 4-14.01 7-21.01 11.01-5.01 3-14.01 10-20.01 11 0-4 2-4 4-6l30.01-17.01c5-3 8.01-2 8.01-11zm13.01 26.01c0 10 4 12 9 17.01 2.01 3 3.01 5 6.01 7 3 4 3 5 7 4-1-13.01-18.01-8-11-39.02 3-17 2-21.01 8-46.02 3-8 8-19.01 8-28.01-1 2 0 0-2 2-1 2 0 1-1 3-1 1-2 2-4 3-4 3-7 1-12.01 1 0 8.01-4 38.02-6 48.03-1 5-2 1-2 5zm22.01 32.01c1 1 8 9.01 9 10.01 2-3 2-4.01 0-7.01-4-6-7-4-9-3zm-196.09 6c0-3 0-4 1-6-4 0-3 1-7 1-2 0-6 0-7 0-3 1-4 3-4 11.01 5-2 11-5 17-6.01zm-16 12.01c0 4 2 10 3 13.01 4-1 6-4.01 9-5.01s7-2 10.01-3c0-4-2.01-6-3.01-9zm-39.02 23.01c4-3 6-6 9-10 5-5.01 15.01-12.01 21.01-16.01 4-2 6-3 6-12.01-9 2-15 5.01-21.01 10.01-18 12-16 10-16 23.01 0 3 0 3 1 5zm87.04-26.01c15 0 38.01 13 41.02 13-2.01-6-4.01-4-9.01-6l-9-6c-12.01-6-35.02-9-48.02-3 0 4 2 5 2 9 11-6 12-7 23.01-7zm11 301.13c4 1 7.01 2 12.01 2 18.01 0 46.02-9 59.02-19 15.01-11.01 11.01-13.01 29.02-17.01 2 4 3 8 8 9 0-7-1-16.01 0-23.01 1-8 2-11 0-20.01-1-4-1-5-2-9-3-7-7-18.01-8-25.01h-2.01c0 7-5 18.01-7 23.01-6 9-30.01 46.02-41.02 46.02-16 0-20.01-11.01-25.01-24.01-3-6.01-7-30.02-7-39.02 0-13.01 0-27.01-3-40.02-2-12-6-22.01-9.01-33.01-3 3-16 25.01-19 29.01-12.01 19.01-26.02 38.02-44.02 51.02-7.01 4-24.02 12.01-35.02 12.01v-2c9-2 19.01-7.01 28.01-10.01 4-2 20.01-12 21.01-17-8 5-17.01 12-27.01 15-4 0-6 0-10 1-9.01 2-15.01 10.01-20.01 11.01 1-12.01 24.01-15.01 33.01-17.01 8-3 26.01-14.01 31.01-20.01l11.01-13c3-5.01 7-9.01 10-15.01 4.01-5 18.01-27.01 18.01-32.02 0-11-10-20-11-30.01 8 4 12 16.01 14 25.01 4.01-1 7.01-9 10.01-12 11-17.01 11-10.01 0 6-7 11-9.01 11-4 22.01 4 9 6 19.01 9 28.01 0 3 0 3 1 4v10.01c0 7 3 11 3 18.01 0 10-1 13 1 23.01 0 7 1 13 2 19 6.01 22.01 20.01 32.02 32.02 18.01 2-3 5-6 7-9 5-8 14.01-21.01 18.01-29.01 6-11.01 10-22.01 10-36.02v1h-1v2l-6 15.01c-7 15-39.02 80.03-54.02 39.02-14.01-37.02-5.01-40.02-7.01-58.03-1-2-1-6-2-8-4-17.01 6-24.02 14.01-48.03 1-4 2-10 6-11 0 6-5 21.01-7 26.01s-10.01 20.01-10.01 23.01c0 9.01 3 15.01 3 23.01 0 20.01-3 14.01 3.01 35.02 1 6 7 27.01 12 27.01 3 0 4-1 6-2 11.01-6 16.01-21.01 23.01-31.02 26.02-38.01 13.01-54.02 13.01-73.03 7 9.01 11.01 32.02 11.01 43.02 0 7 0 11.01 4 14.01-1-5-1-12.01-2-18.01-1-5-2-11.01-3.01-16.01-2-7-10-24.01-10-29.01 10 3 17.01 33.01 19.01 41.02 0 3 2 15 3 15 2 1 5-1 7-2 17.01-7 10.01-2 25.01-15 30.02-25.01 28.02-37.02 16.01-65.03-5-11.01-11-21.01-17.01-32.02l-13-26.01c9 3 42.02 73.03 42.02 84.04 0 14.01-6.01 25.01-15.01 34.01-3 3.01-4 4.01-7 7.01-9.01 11-23.01 19.01-37.02 22.01 0 8 0 16 4 17 16.01 7.01 45.02-19 61.03-25.01 10-3 23.01-4 31.01-9 33.02-25.01 6.01-38.02 2-55.02 4.01 3 8.01 9 11.01 14 8 16.01 9 24.01-5 38.02-6.01 6-10.01 10-19.01 12-16.01 3.01-30.02 9.01-42.02 19.01 14.01-3 17.01-10 46.02-15 11.01-2.01 34.02-14.01 34.02-27.02 0-17-8.01-36.01-14.01-48.02-4-7-7-13-12.01-19.01l-40.01-51.02c-7.01-9-21.01-28.01-31.02-30.01 1-16.01-6-19.01-8-26.01 5 4 9 11 10 17 1 6.01 3 7.01 7.01 11.01 2 2 3 2 5 4 6 5 13 12.01 18.01 18.01l17 19.01c8.01 10 16.01 21.01 22.01 32.01 13.01 20.01 25.01 36.02 29.02 61.03 2 9 1 8 4 7l2-2c-1-5-3-9-5-14.01-1-6-3-9-5.01-13-3-9.01-8-17.01-12-25.01-2-5.01-5-8.01-7-12.01s-4.01-7-7.01-11c-4-8.01-8-15.01-14-22.01l-23.01-32.02c-12.01-13-30.02-42.02-49.03-42.02-10 0-14 0-24.01 4.01-27.01 14-19 38.01-12 62.02 3 6.01 2 9.01 9 11.01 8.01 1 9.01 0 14.01-3-2 8-11.01 8-17.01 5 1 9 12.01 26.01 16.01 35.01 6 10.01 12 20.01 17.01 32.02 4 9 4 16.01 4 29.01l-2-4c-1 5-5.01 10-8.01 12.01 1-5.01 4.01-7.01 4.01-13.01 0-19.01-4.01-25.01-14.01-41.02-6-10-10.01-19.01-15.01-29.01-5-11.01-9-21.01-13-32.02-18.01-54.02 0-51.02 1-63.02-4-1-10.01-5.01-11.01-10.01-2-5-1-13-1-19.01-6-3-19.01-3-23.01-8 4-2 15.01 0 20.01 2 4 3 0 2 4 3v-11c-4 0-15 0-18.01-4 1-5.01 3.01-3.01 8.01-2.01 4 1.01 6 1.01 11 1.01v-9.01c-7 0-12-2-18.01-2-1 6-9 25.01-13 31.01 10 2 15.01 11.01 20.01 18.01 4 6 12 16.01 10 25.01h-2c-2-10-15.01-27.01-23.01-33.01-4-4-6-4-14.01-4 1.01 4 7.01 9 10.01 12 8 7.01 15.01 14.01 21.01 23.01 11 17.01-1 28.01 9 55.03 4 10 7.01 21.01 10.01 30.01 3 10 8 19.01 12 28.01 3 6.01 10.01 23.01 11.01 29.02-5-3.01-8.01-14.01-11.01-20.01-10-21.01-20.01-41.02-29.01-63.03l-9-22.01c-4.01-7-8.01-11.01-14.01-16.01-11.01-10-18.01-12-31.01-16.01h-1s-3.01-1-3.01-1c-6-1-23.01 2-18 5.01l5-3.01c8-3 10 1.01 18.01 3.01 5 1 6 1 11 3 6 4 10.01 9 15.01 14 10 10.01 20.01 18.01 25.01 32.02 6 16.01 8 29.01 12 45.02 4.01 17.01 11.01 32.01 11.01 51.02 0 9-12.01 43.02-16.01 52.02-4 5.01-4 10.01-12 10.01-1-6-4.01-8.01-4.01-16.01 0-43.02 22.01-50.02 12.01-102.04-4-16.01-8-33.02-17.01-48.03-11-16-25.01-19-44.02-17-7 1-14 4-19.01 7l-29.01 22.01c-5 5-8 8-13 13.01-13.01 13-28.02 23.01-43.02 34.01-10.01 8-20.01 13.01-27.02 24.01-2 3-9 12.01-9 16.01 0 17.01 22.01 50.02 28.01 72.03 3 10.01 3 9 12.01 13.01l34.01 15c3 1 6.01 2 9.01 3 4 2.01 6 1 8 4.01-6 3-24.01-6.01-30.01-8.01-7.01-2-22.01-10-28.01-11 3 11 11 14 19 20.01 4.01 3 8.01 5 12.01 8 2 0 2 1 4 1 2 1 1 1 3 2 9.01 5 21.01-3 30.02-7 6-4 11-10.01 16-15.01 5-4 25.01-29.01 26.01-36.01 6.01 0 4.01 5 8.01 19 4 12.01 8 26.02 15 37.02 4.01 5 5.01 5 10.01 9 1 1.01 0 2.01 3 2.01 10 0 24.01-9.01 30.01-14.01 7.01-5 20.01-11.01 24.01-14.01 1-2 3.01-3 1-4-2 3-6 6-10 7 0-5 4-5 6-9h1c2-3 2-4 6.01-5 2 10 3 11-7.01 18.01-2 1-3 2-6 3-7 4-11 10-28.01 18.01-9.01 5-32.02 8-43.02 13-4 1-4 1-8 1-1.01 0-3.01 0-4.01 1zm114.05-126.05s1-4.01 1-1c1 2-1 4-1 1zm-75.03-170.08c-3 0-16.01-7 5 14.01 17.01 16 10.01 15 16.01 21.01 0-14.01 0-25.01-14.01-37.02-37.01-32.01-21.01-29.01-17.01-36.02-4-8-5-5-8-9 7 1 8 4 8-6-5 0-6 1-10 1v4c-7-3-13.01-2-17.01 4 4 1 4 1 9.01 1 5 0 6-1 8 2-1 4-1 3-7 3-15.01 2-8.01 0-17.01 0-1 4.01-1 4.01 2 7.01 11.01 8 33.02 18.01 42.02 31.01zm128.06-9c0 6 3 8 5 12 3 4 4 5 6 10.01l1 5v1c1 4 0 2 3 5 2 1 3 2 4 4 1.01 0 4.01 4.01 4.01 4.01l1-1.01c-3-4-5.01-4-5.01-12 0-4 1.01-3 0-6-2-2-2-2-4-4.01-3-5-11-17-15-18zm-230.11 9c-3 2-14 7-16 9-2 6.01 1 16.01-2 22.01 5-1 6-6 10-9 3-2 9-6 12.01-7 0-6.01-3.01-10.01-4.01-15.01zm251.12-26.01c5 7 9 12 14 19.01l22.01 26.01c4 7 12.01 19.01 16.01 24.01 5 5 4 5 5 3l-2-3c-1-1-1-1-1-3-13.01-26.01-15.01-28.01-32.01-48.02-4.01-4-5.01-7.01-12.01-12.01-7-6-5-6-10-6zm-109.05 8c4 2 5 4 9 3 12.01-3 33.02-25.01 61.03 10.01l29.01 36.01c2 3.01 3 5.01 5 8.01 10.01 12 8.01 14 17.01 12 0-4-5-8-8-13-5-6-5-1-11.01-10.01-7-13-3-7-12-19.01-10.01-12-11.01-17-24.01-27.01-12.01-9-11.01-18.01-28.02-18.01-9 0-35.01 13.01-38.01 18.01zm-183.08 73.04c24.01-24.02 21-14.01 21-40.02-4 1-6 4-9 7-4 4-5 4-5 11.01-5-1-4-2.01-7 2-11.01 10-9.01 4-9.01 11-1 4-1 4-5 5 3 5.01 3 8.01 3 15.01 3-2 9-8 11.01-11zm19-9.01c1 4 3.01 7 5.01 11.01 6 9 6 3 5 8 4-3 3-3 6-6 2-4 3-3 6-6.01 4.01-6 2-6 11.01-12 6-5 7-9 11-13.01 3-3 6.01-7 10.01-8 1 0 3-1 4-1-1-4-2-6-3-9-3 1-5 2-9.01 3l-14 9c-12.01 5-27.01 20.01-32.02 24.01zm-24.01 62.03-3 2 1 1c1-1 2-2 4-3l23.01-19.01c10.01-7 16.01-14.01 25.02-23.01l14-11c6-4.01 4-5.01 13.01-11.01 9-5 20.01-15.01 33.01-15.01 10.01 0 16.01 0 26.01 2-3-5-13-13-21.01-13-15 0-19 10-23.01 10h-1-1c-1 0-3 2-4 3-4 4.01-3 5.01-10 5.01 0-4 0-2 2-4 4-6.01 1-6.01-4-1.01-5.01 3.01-8.01 6.01-12.01 10.01-12 12-17.01 16.01-28.01 29.01l-32.02 34.02c-1 2-1 2-2 4zm-91.04 5c6.01-1 9.01 0 14.01 3 13 8.01 20.01 21.01 20.01 37.02h1c0-6 1-7 1-13.01v-28.01c0-5-10.01-10-15.01-10 5-7.01 7.01 0 13.01-7.01 5-5 2 0 10-9l9.01-11.01c7-8 5-8 6-11 2-3 3-2 6-4 8.01-6.01 32.02-33.02 32.02-36.02 0-5-2-7-2-11-7.01 5-23.02 33.01-26.02 37.01-2 2-4 4-6 6.01-2 3-3 4-5 7-9.01 10-11.01 13-16.01 21.01l-13 10c-12.01 2-23.01 10.01-29.02 19.01zm315.14 107.05c0 16.01 1 5 0 25.01v26.01c4-2 7.01-3 12.01-5l42.02-23.01c8-5 21.01-17.01 31.01-17.01 4 0-4 6 17.01-3 6-2 7-3 12-6 5.01-4 30.02-36.02 32.02-40.02 11-15.01 10-51.02 2-62.03 0 4 2 9.01 3 16.01 0 18.01-8 29.01-14.01 41.02-4 8-7 15-13 24.01-6 7-11.01 13-19.01 17.01-8 4-18.01 7-27.01 10-21.01 7-58.03 31.01-74.04 35.02 0-4.01 2.01-4.01 3.01-11.01l6-22.01 5-8c-8 0-11 3-18.01 3zm-274.12-89.04c0-18.01 15.01-32.02 26.01-46.02 14.01-15.01 14.01-10.01 14.01-28.01-5 1-5 0-8 4-8.01 7-8.01 6-16.01 17.01l-15.01 18c-3 2-4 2-7 4.01 1 6 6 7 6 13zm75.03-74.03c-1-4.01-1-5.01-4-7.01-3 1-6 5.01-11 9.01-1 1-1 2-2 3l-3 2c-2.01 2-3.01 2-5.01 4-12 13.01-13 15.01-23.01 25.01-1 3-2 4-4 6-10 9.01-19.01 24.02-20.01 37.02 7.01-5 11.01-5 18.01-3 2-3 5-6 7-9 15.01-14.01 4.01-2 15.01-17.01l22.01-24.01c19.01-14.01 14.01-18.01 10-26.01zm330.15 100.04c0 4-5 4-7 7-2 2-1 4.01-5 9.01-17.01 21.01-32.02 21.01-54.03 27.01-8 2-13 4-20.01 7-6 3-12 5.01-19.01 8.01-8 3-6 1-8 6-3 7-8 23.01-9 31.01 9-6 49.02-26.01 58.02-29.01l21.01-8c20.01-6.01 39.02-27.02 42.02-45.02 1-8.01 3-17.01 3-25.01 0-13.01-25.01-54.03-35.01-73.04l-7.01-11c-4-7.01-9-6-7-1 0 1 3 4 3 6 2 2 3 3 4 5l31.02 59.03c3 7 9 20.01 9 27.01zm-59.02-156.07c-5.01-7-8.01-14-15.01-14 1 3 18.01 24.01 21.01 28.01 3 3 4 6 7 9 12.01 11.01 31.01 43.02 38.02 59.03 7 18.01 12 29.01 17.01 47.02 1 5 1 8 1 13 0 6.01-2 9.01-2 14.01 8-9 6-24.01 3-35.01-2-11.01-7.01-24.02-10.01-35.02-2-8 2-4 0-11.01-3-12-17.01-19-25.01-28.01-1-2-2-3-3-4zm-133.06 205.09c0 6.01 2 7.01 3 11.01 7-2 12-21.01 14-26.01 5.01-21.01 8.01-34.02 4.01-54.03-1.01-7-1.01-10-4.01-12 0 8-1 13-2 20.01-8 30.01-15 29.01-15 61.02zm195.08 31.02c8.01 1 22.01 11 22.01 24.01 10.01-6.01 16.01-16.01 22.01-26.01 17.01-23.01 30.02-25.02 6.01-61.03-2.01 2-7.01 8-9.01 10-4 6.01-24.01 24.01-29.01 28.02-7 6-11.01 11-22.01 16-14.01 8.01-24.01 8.01-27.01 11.01l28.01-7.01c3-1 8-5 11-7 12.01-9 24.01-16.01 33.02-28.01 3-3 9-11.01 13-12.01 0 4.01-8 14.01-11 18.01-1 2-1 1-1 2h-1l-5 4c-7.01 7.01-8.01 7.01-6.01 8.01 2-3 12.01-11.01 18.01-16.01l6-8c2.01-3 0-2 3.01-3 1 3 1-1 1 3 0 15-49.03 40.01-52.03 44.02zm-452.2-103.05c2 7 17.01 13.01 25.01 33.02 5 12-1 33.01-7 44.01 3-1 1 1.01 3-4l5-13c2-3 3-5 4-8.01 7.01-12 0-19 3.01-26.01 2-3 2 1 2-4l-6.01-20.01c-7-12-33.01-33.01-33.01-2 5 0 7-5 10-7 6.01 2 14.01 9 15.01 18.01-5-2.01-7-13.01-18.01-13.01-1 0-2 1-3 2zm63.03 3c-5 0-10 4-12.01 7-2 2.01-7 9.01-8 11.01-4 10 21.01 38.02 27.01 47.02 6.01 7 6.01 6 13.01 15.01 4 7 2 7 4 5l-8-16.01c-6.01-14-20.01-37.01-20.01-50.02 0-15.01 2-10 4-19.01zm479.21 107.05c0 7-2 8-10 11l-5 2.01c5 0 9 1 12-1.01 10.01-7 6-11 0-20-4-4.01-5-6.01-11-7.01-1 10.01-7.01 12.01-9.01 19.01 3-2 9.01-9 10.01-12 16 0-1 8-4 13-5.01 9.01 14-4 17-5zm-99.04-22.01c20.01-14.01 31.01-25.01 47.02-43.02 3-4 5-6 8-10-3-6.01-13-18.01-18-24.01 0 16-1.01 19-7.01 29.01-3 7-10 15.01-15 21.01-10.01 12-20.01 29.01-37.02 34.01-6 1-9 2-13.01 5.01-5 2-8 3-13 5-10.01 3-17.01 7-25.01 11-3.01 2-9.01 4-11.01 7.01-9 8-9 11-20.01 16-5 1-8 4-13 4 2-3 7-5 11-7 7-3 4-3 8.01-6 3-1 4 0 2-2-1 1-2 2-3.01 3-2 0-2 1-4 1-7 4-14 6-18.01 11h3.01l3 2.01c18.01 5 31.01-19.01 52.02-29.02 4-2 9-4 13.01-5 14-5 39.01-15.01 50.02-23.01zm-539.24 118.05c0 11.01 2 19.01 11 25.01 1-4 3-5 5.01-8-2.01-2-1-2-3.01-4l-2-2c-4-4-7-5.01-7-9.01 5 0 2 0 5 3l12.01 9.01c5-4 7-10.01 12-15.01 6.01-4 9.01-7 13.01-13 3-6.01 7-10.01 11-15.01 9.01-15.01 9.01-19.01 3.01-25.01-3.01-4-9.01-13.01-9.01-19.01 4 1 2 1 4 5 3 4 9.01 13.01 12.01 15.01 0-11.01 9-26.01 12-35.02 9.01-23.01 15.01-49.02 23.01-71.03 2.01-7 6.01-10 1-16.01-5-6-11-4-14-9 3-1-1-1 3-1 7 0 10 2 16.01 10 2 4.01 3 10.01 10 12.01 0-7-1-8-4-13.01-2-4-4-7-6-10-4-5-12.01-12.01-18.01-14.01-3 14.01-7 48.02-9.01 63.03-4 24.01-6 32.02-20 51.02-9.01 10.01-8.01 10.01-17.01 19.01-6 6.01-11.01 12.01-16.01 19.01-7 8-11 9-18.01 18.01-9 10-10 16.01-10 30.01zm593.26-47.02c9.01 1 20.01 14.01 22.01 21.01l12.01 31.01 11-10c2-3 8.01-7 12.01-9 21.01-16.01 14-8.01 29.01-8.01 0-21.01 7-18.01-13-32.01-4.01-2-4.01-3-7.01-6l-6-4.01c-1-2 0-3-2-1 2 1 6 7.01 8 9.01 2 1 3 2 4 4 8.01 6 2 9-10 21.01-3 3-15.01 11-18.01 12 0-6 1-6 5-8 7.01-6 13.01-16.01 19.01-20.01-6-9-5-8-14-18.01-10.01-10-11.01-14-22.01-10v1c-2 0-2 0-4.01 0-5 3 0 1-4 4-1 1-2 0-4 2-6 3-9 7.01-12 12.01-2.01 8-4.01 3-6.01 9zm-158.07-8c4 1 10.01 6 14.01 9 13 8.01 26.01-4 49.02-11 6-1 65.03-15.01 65.03-24.01 0-3.01-5-9.01-7-11.01-12.01-9-38.02-4-51.03 0-43.02 11.01-34.01 14.01-59.02 31.02-2 1-4 2-6.01 3-4 2-3 0-5 3zm-188.08-8.01c3 0 9 3.01 12 4.01 23.01 8 34.02 10 56.03 5l-4-8.01c-1-3 1-1 1-1 8 3.01 1 9.01 20.01 6.01-3-4-7.01-8.01-10.01-12.01-4-8-16-42.02-16-50.02-4.01 1-2.01 1-4.01 4l-9 12.01c-2 3-4 6-7 8-1 2-2 2-3.01 4-14 17.01-34.01 25.01-36.01 28.01zm179.08 71.04c-2 0-3-2.01-4-3.01 3-2 13-2 19.01-3l15-6c9.01-2 17.01-3 25.01-7l36.02-16.01c10-3 25.01-5 27.01-15.01 1 2-1 4.01 2 5.01 3 0 4-1 5-3.01-4 1-1 1-5 2.01 6-10.01 13.01-17.01 14.01-32.02-6 0-9.01 2-13.01 4-5 1-8 2-13 3-8.01 3.01-17.01 5.01-26.01 7.01-9.01 3-16.01 5-25.02 8-43.02 18.01-31.01-1-48.02-1 0 5 1 2-2 4-5-3-8-15-16.01 5-1 2.01-2 5.01-3 7.01s0 2-1 4-1 1-2 2c0-6 3-10 5-15.01l5.01-14c-3.01-2-4.01-3-8.01-4 0 5 2 3 2 8l-5 3v1c-1 0-1 0-1 0-4-3 0-2-4-3-1 3-3 4-4 7-18.01 22.01-34.02 45.02-57.03 62.03l-17.01 11.01c-3 1-2 0-3 2 0 1-2 7-2 8 11.01-6 14.01-7 27.01-14.01 4.01-3 8.01-5 12.01-8s7-6 11-9c-2 9-22.01 20-29.01 25.01-10 5-28.01 15-39.02 15-28.01 0-34.01-23.01-40.01-32.01-4.01-7-6.01-5-6.01-17.01 3 2 7.01 4 9.01 8.01l3 6 1 6c1 3 3 8 5 11.01 15.01 17 39.02 18 44.02 6 1-4 3-9.01 3-13.01 5 2-4-3 1 1 0 0 1 1 1 1 2 1-1 0 2 0 0 0 3.01-1 3.01-2 24.01-15 40.01-31.01 57.02-53.02l16.01-21.01c2-3 4-4 2-8-2-4.01-7-10.01-11.01-13.01-7 2-12 8-17 12.01-14.01 13-44.02 22.01-65.03 22.01-8.01 0-14.01 0-18.01-7.01-21.01 0-41.02-8-59.03-16-6-2.01-11-7.01-16-8.01 2 8.01 7 13.01 13 17.01 10.01 6 6 10 13.01 17.01-11.01 0-7.01-1-12.01-6.01-2-3-7-7-10-8l8 17.01c3 12 8.01 30.01 6 42.02-4 19.01-9 18 9.01 30.01 18.01 11.01 22.01 12.01 42.02 19.01 4 1 7 1 10 2-2-8-20.01-12.01-27.01-17.01l-14.01-8c-2-1-8-4-2-4 3-1 18.01 9 21.01 11 20.01 10.01 33.02 10.01 55.03 10.01-4.01 5-28.02 2-34.02 1 2 3 3 7 7 8 3.01 0 10.01 1 13.01 1 13.01 0 15.01 3 24.01 5-2 5-1-1-2 3-1 4.01 1 9.01-1 11.01s-24.01 2-29.01 2h-13.01c0 5 1 6 7 8 15.01 3 15.01 9.01 23.01 11.01v14c-3 2.01-5 2.01-6 7.01l-7 29.01c-1 0-1 0-1 0s0 0-1 0v1c-3 1-3 0-4 4-2.01 5-3.01 14.01-5.01 18.01 3 0 4.01 1 5.01 3 10 15.01-14.01 8.01-20.01 8.01-17.01-1-15.01-3.01-30.02-5.01-3-1-14-5-17 0 2 3 2 2 8 2l25.01 4.01c11.01 2 22.01 5 33.02 5 0 9-4.01 2-4.01 8 0 13.01 7.01 11.01-15 26.01 2 3 3 4.01 6 7.01l6 6c-9 0-9-6-15-8-3.01-2.01-13.01 3-16.01 4-8.01 2-13.01 0-21.01 1-5 0-11.01 3-18.01 4 1-5 10.01-6 14.01-8-3-4.01-9.01-5.01-10.01-9.01 5-2 6.01 1 9.01 4 7 9.01 34.01 1 40.01-2-4-7-3-4-9-7l-10-6c-32.02-14.01-28.02-4-27.02 5-15-10.01-5-21.01-3-28.01 1-2 1-5.01 2-7.01 1-3 1-4 2-7 19.01 0 31.02 7 50.03 7 8 0 10 2 17 2-1-7-10-5-15-6-6.01-1-11.01-2-17.01-3-12.01-2-21.01-7-34.02-7v-2c4.01 0 4.01-1 5.01-4.01 10-15 7-31.01 14-46.02 4-8 5.01-19 8.01-26.01 4-7 20.01-5 26.01-2l-1-6-20.01-12.01c-3-2-5-3-8-4l-7.01-6c-4-2-5-1-7-5-4-5-4-12.01-11.01-14.01 0 4 1 6 2.01 11.01 1 6 4 8 8 11 10 9 10 10.01 3 23.01-10 18.01-3 10.01-3 23.01 0 8-7 12.01-11.01 17.01-13 15.01-7 15.01-7 34.01 0 11.01-7 16.01-10 25.02-2 6 0 20 0 29.01 0 16.01 0 35.01-3.01 50.02l-3 21.01c-1 4 0 1 0 6l2-6c5.01 0 7.01-3 12.01-5 9-5 20.01-4 31.01-3 4.01 1 12.01 1 13.01 6-8-2-16.01-3-27.01-3-9.01 0-25.01 5-28.02 14-3 7.01-2 43.02-1 55.03 0 3 1 9 3.01 12 0-7-1-10-1-17 0-9.01 1-43.02 4-48.03 7-16 37.01-16 50.02-9 3 1 3 1 5 3 6 9.01 4 26.01 3 36.02l1 5c2-7 5.01-18.01 5.01-26.01 0-6 0-9.01 2-13.01 3-7 7-13 0-20.01-6.01-5-27.02-4-35.02-4-14.01 0-21.01 4-32.01 7.01l4-9.01c2-9 15.01-13 23.01-16.01 10-3 11-6 21.01-4l4 2c3 1 6 3 8 5.01 6.01 4 11.01 11 13.01 12 0-5 4-13 5-19.01 2-6 4-11 7-17.01 4.01-13 11.01-22.01 11.01-36.01 3 0 2 0 4-1 0-11.01 4-27.01 7-38.02 2.01-5 4.01-11 6.01-16.01 1-4 1-4 2-9 1-2 2-5 3-8 6-20.01 8-54.03 35.01-54.03 7.01 0 11.01 2 15.01 5 14.01 10.01 16.01 22.01 21.01 39.02 3 15.01 9 37.02 7 53.03-1 4-2 14 0 18 1 1 6.01-2 8.01-3 6-5 13-5 20.01-7 16-3 28.01-8 45.02-5 4 0 7 1 7-3 0-28.02-24.01-62.03-17.01-91.04-4 0-3 1-8 1l-24.01 4c3 0 5 1 7 3-16.01 0-32.01-1-32.01 18.01 5-6.01 8-7.01 17-10.01 6.01-1 17.01-4 23.01-4 4.01 4 6.01 8 8.01 14.01 2 5 4 11 5 17 2 8.01 9 29.02 9 35.02-3 1-4 2-7 3-7 3-19.01 3-26.01 4-15.01 1-21.01 4-33.02 7.01 1.01-2 4.01-4.01 7.01-5.01 4-2 6-1 8-4-6-1-5-2-6-9-4-19.01-17.01-38.02-10.01-58.03 3.01-7 7.01-9 13.01-13 2-1 1 0 2-1-7 0-13 4-19.01 6-7 3-5-3 7.01-7 4-1 5-2.01 10-3.01l9-3c7.01-1 14.01-3 21.01-3v2c-4 0-10 3-14 4-5 1-10.01 1-14.01 4.01 9.01 0 19.01-6.01 29.01-6.01 22.01 0 23.01-3 22.01 8.01 0 11 4.01 22.01 6.01 32.01l2 5c0-12-4-22.01-5-34.01-2.01-10.01-2.01-25.01-2.01-37.02 0-8 9.01-15 15.01-18.01 8-3 18.01-5 26.01-7 24.01-8 21.01-10 38.02-20.01 1 0 3-1 3-1 11.01-3-14.01 14.01-14.01 14.01 7.01-1 15.01-5 25.02 15 8 15.01 6 17.01-7.01 26.02-7 5-24.01 13-32.01 13v18.01c0 12.01-2 10 2 21.01 5 11 11 22.01 15.01 33.01 1 4.01 4 16.01 8 16.01s21.01-5 31.01-6c5.01 0 5.01 1 10.01 1l1-36.02c0-4 0-7 0-11 0-5 1-5 1-10.01-3 5.01-3 12.01-4 17.01-4 11.01-9.01 17.01-21.01 20.01-4 1-12.01 3-17.01 3 1-6 6-4 11-5 4.01-1 8.01-2 11.01-4 7-3 11-11.01 12.01-19.01-3.01 2-4.01 3-7.01 6-4 4-18.01 14.01-23.01 15.01s-13-2-17.01-6c-14-17.01-6-22.01-4-26.02 4-8-9-8 9.01-19l26.01-14.01c5-2 9-5 14-6-1 7-8 6-11 11 3-1 14.01-3 14.01 2 1 4-2.01 3-1 9.01 0 3 0 3 1 5 4 0 3 1 7 1 0-10.01 4-7 4-20.01-7 3-12-1-10-8l8 2c-4-2-7-6.01-7-8.01-2-7-6.01-15-9.01-22.01-2-3-3-7-5-10-6-12.01-18.01-30.01-18.01-44.02l-16 7c-1.01 1-1.01 1-2.01 2-3 2 0-1-2 1 5.01 0 9.01-2 12.01-1-1 5.01-6 3.01-11.01 6.01-3 1-3 2-5 3-1 2-5 3-3 5 1-1 0 0 2-1 2-2 2-3 6-3-1 5-7 7-11 9-10.01 3-20.01 6-30.01 8.01-4.01 1-11.01 2-12.01 7 4 2 40.02-5 50.02-14.01 3-2 1-1 4-2 6.01-2 9.01-7 16.01-8-1 3 0 1-3 4-24.01 17.01-11 12.01-47.02 21.01-35.02 8-18.01 1-22.01-3-1-1-5 0-8-1l10-5c-1-9.01-3-7.01 9-10.01 4.01-1 6.01-1 11.01-2 25.01-6 28.01-17.01 43.02-23.01 14-5 7-5 15-12.01 5.01-4 9.01-8 13.01-13 2-3 4-4 6-7 3-3.01 3-4.01 6.01-7.01 10-9 11-14 15-18.01l4-2c-3 0-5-1-7-2-2 4-2 3-4 6.01l-4 5c-3 2-10.01 5-14.01 5 1-4 4-4 7-7 7.01-6.01 9.01-17.01-1-10.01-2 2-2 4-3 2-1-1-1-2 0-4 2-3 5.01-3 9.01-5 3-3 4-4 6-7 11-18.01 11-7.01 10-22.01-7 3-2-1-11 12l-12.01 13.01c-6 7-16 23.01-24.01 25.01 2 3 3 5 5.01 8 2 3 4 4 4 8.01-2 1-4 3-6.01 1-4-2 4.01-8.01-4-12.01-2-1 0-1-3-1-1 2-1 7-2 10-4 14.01-8 13.01-14.01 22.01l4.01-1c-2 6.01-7.01 9.01-12.01 11.01-15.01 7-34.01 11-48.02 18.01-10.01 4-21.01 12-32.02 13-5 0-5 0-10 1-3 1-5 2-9 2zm271.12 12c-2-4-8-15.01-12.01-15.01-8 0-27.01 17.01-30.01 19.01l1-4c2-8 19.01-17.01 26.01-19.01 0-8 0-17-8-17-5 0-5 13-19.01 21-4 3.01-1 1-4 4.01-2 3-2 2-4 4-3 2-3 1-3 7 9 0 4 5 4 7-1 5.01 4-1-1 8.01 5 3 4 8 12 9 1-5 4-5 8.01-8 7-6 19-16.01 30.01-16.01zm-43.02 4 1 1-4 4.01-1-1.01zm-25.01-9c0 3 2 3 3 6l6 10.01c2 2 2 3 3 5 3.01-1 3.01-1 5.01-2-4.01-7.01-1-5-1-12.01-4.01-3-8.01-5-9.01-8 7.01-1 3-4 10.01-5 0-5.01 0-7.01 5-7.01v-4l-6 4c-8.01 7.01-16.01 8.01-16.01 13.01zm-109.05 13c4 6.01 9 7.01 13.01 14.01 1 3 2 6 3 10.01 2 11 2 10 10 7 9.01-2 4-1 11.01-5 7-3 17-8.01 22.01-15.01-4.01-7-7.01-14.01-13.01-18.01l-28.01 14.01c3-10.01 21.01-10.01 22.01-19.01-12.01 0-24.01 8-40.02 12zm-417.19-38.01c0 17.01 1.01 37.01-8 51.02l-5 9 1 1.01c2-1.01-1 0 2-1.01l15.01-10c10-4 5-1 10-18.01 6-18.01 6-35.01 10.01-45.02 3-4 5-6 7-11l3-11.01c1-3 0 1 1-3-5-4-4-3-8-8 3-4 2-1 5-6.01 34.01-65.02 34.01-33.01 9-85.03 3 1 7.01 8 8.01 11 3 4 5 7 8 11.01 11.01 19.01 10 16 0 31.01l-26.01 38.02c3 2 2 3 6 6 5-21.01 11.01-23.01 17.01-32.01 4-6.01 4-10.01 10-14.01 5.01-4 11.01-5 16.01-8-1-3.01-9-12.01-12-19.01-12.01-21.01-18.01-26.01-33.02-45.02-4-4-7-8.01-7-6.01v6.01 8c-1 4-3 8-4 11.01-3.01 8-5.01 15-9.01 22.01l22.01 1c4 0 3-1 4 3h-26.01l-13 31.01c-3.01 9.01-13.01 26.01-13.01 30.01 10 2.01 12.01 2.01 13.01 6.01-12.01 0-13.01-6.01-16.01-3-6 7 7 7 9 16-15-10-11 1-16 9.01 8 1 19 2 26.01 10 3 4 9 25.01 6 38.02-3-3-2-2-2-7l-4-21.01c-1-6.01-2-8.01-7.01-10.01-1-1-12-4-13-4-7 0-23.01 16.01-24.01 21.01 5 0 15 4 19.01 6 4 1 6 2 9 4s4 3 7 5.01c2-7.01 1-15.01 1-23.01 1 2 2 2 2 5zm146.07 63.03c2 6 13.01 10 18.01 13 6 2 3-1 8 2l17.01 8.01c17.01 7 30.01 2 43.02 2v-8.01c-4 0-5-1-7.01 0-6 0-15 0-20 1v1h-1s0 0-1 0l-20.01-4c-7.01-3-6.01-4-10.01-5-3-2-7-3-11-4l-18.01-11.01zm-241.11-13.01c0-5-1-8-4-11-1-3.01-4-7.01-6-9.01 0 11.01-12.01 49.02-12.01 69.03 1-1 0 0 2-2l3-6c10.01-26.01 16.01-28.01 22.01-39.02 10.01-21.01 0-12 20.01-29.01 10.01-9.01 15.01-13.01 23.01-25.01 16.01-24.01 14.01-20.01 24.01-49.02l23.01-51.03c2.01-6 4.01-12 6.01-18.01 14-31.01 4-28.01 2-34.01h-3l-21.01 69.03c-6.01 17.01-8.01 17.01-14.01 40.02-1 4-2 10-4 14-13.01 25.02-19.01 31.02-39.02 51.03-4 3-14 16-19.01 17 0 7.01 5.01 12.01-3 13.01zm668.3 61.03c3-4 7-9.01 11-11.01 10.01-8 11.01-9 21.01-7 0-10.01 0-10.01-7-6-20.01 9-13 7-24.01 13-6 3-7 0-14.01 2v-6c7.01-2 9.01 0 15.01-4 29.01-19.01 28.01-9.01 28.01-28.01-4 2-8 4-12 7-6 3-10.01 4-10.01 9-11-7 14.01-13 21.01-21.01 7.01-7 5-19-1-19-10 0-6 2-13 8v1s-1 1-2 1c-3.01 3-2.01 1-2.01 9-6 0-7-1-9-4 0 6.01 0 13.01-1 19.01 0 4 0 6-1 9-1 4.01 0 5.01-3 7.01 0-10.01 1-26.01 0-32.02-11.01-3-11.01 0-11.01 6.01 0 4 2 7 2 11-6-4-4-11-8-17.01-1-3-8-11-14.01-11 0 12 19.01 16.01 19.01 57.02zm-79.04-19.01c-1 6-3 7-9 8 2-3 3-2 4-6-7 0-18.01 7-28.01 9-4 0-8 1-10 2 5 10.01 9 9.01 24.01 6.01 3-1 7-1 12-2 2-1 4-1 5-2 4.01-2.01 2-1 4.01-3.01 3-3 5-4 7-7zm-511.22-32.02c8-10 13-22.01 13-36.01 0-5-30.01-20.01-40.02-15.01-6 2-19 18.01-22 22.01-11.01 10.01-23.02 29.01-29.02 43.02-3 7-6 13.01-9 20.01-2 6-7 16.01-7 22.01 11-7 20-19.01 36.01-27.01l43.02-19.01c6-2 12.01-5 15.01-10.01zm154.07 16.01c3 7 1 20.01-1 26.01-3.01 7.01-2.01 17.01-2.01 26.01 6.01-4 3.01-8 3.01-15 0-11.01 20-32.02 0-37.02zm316.14 48.02c0 17.01 27.01 3 35.01-10-9 0-11 1-19.01 2-16 4-16-1-16 8zm137.06 14.01c2-4 16-10.01 18.01-10.01 0-27.01-9.01-33.01-17.01-15-2 2-5 11-4 15zm-390.18-20.01c-20.01-4-17-1-35.01-13.01-1 4.01-1 8.01-2 13.01-3 9-11.01 19.01-11.01 33.02 1-1.01 0 0 2-2.01l7.01-18c7-19.01 4-19.01 38.01-11.01 9.01 1 13.01 4 13.01 16.01h1c0-12.01 6-11.01 7-21.01-9-6-36.01-11.01-48.02-11.01v3.01c4 2-1 0 4 3l15.01 3c4 0 18.01 3 20.01 4-1 5-1 3-11.01 1zm133.06 44.02c4 0 3 1 6.01 1 12 0 36.01-6 40.01-6 0-4-2-5-3-7.01-4-7-12-38.01-17.01-47.02-7 0-17 2-23.01 4.01-26.01 6-10 26.01-3 55.02zm-183.08 13.01c12.01 1 14.01 4 19.01 5 3 1 7 1 10 2 14.01 3 16.01 2 18.01-9.01 2-4 2-8 4-12 3.01-13.01 10.01-32.01-3-35.02-23.01-6-27.01-6-31.01 6.01l-14.01 35.01c-2 5-3 4-3 8.01zm409.18-65.03c0 8-2 24.01 1 30.01 1 5 9.01 15.01 12.01 19.01 8 12 15.01 16.01 23.01 32.01l2 2c1 2 0 1 1 2l7-31.01c2-10 4.01-22.01 4.01-33.01-4.01 1-5.01 3-8.01 4s-7 1-7 5c0 7 7 16.01 7 33.01-3-2-1-1-3-5 0-3 0-3-1-6-3-8-3-11-5-11 0 0 0 1-2 0-5-2.01-9.01-25.02-7.01-35.02-5 4-7 10-8 15.01-1 2 0 1-1 2-3-12.01-6-12.01-7-16.01 7 2 3 1 7 4 4-7 11.01-18.01 18.01-21.01l8-4c-15 0-22.01 16.01-27.01 19.01-5-1-7-4-14.01-5zm-242.1 97.04c1 2 1 3 2 5 7 16.01 20.01 8.01 34.01 6 6-2 23.01-2 28.01-7 3.01-3 5.01-10 5.01-15h-9.01v5c-22.01 0-37.01 5-49.02 6 0 5 1 2-2 4v-6c4-2 4-2 10-4 16.01-3 19.01-3 36.02-3-3-4.01-6-1-16.01-2-6-1.01-7-1.01-14 1-19.01 6-6.01 0-25.01 10zm146.06 13.01c0 5 5 4 8 3 24.02-5.01 9.01-6.01 16.01-10.01 2-1 4 2 6 4 0-6 2.01-29.01-4-29.01-16 0-26.01 14.01-26.01 32.02zm-112.05 32.01c5 0 8 1 13.01 1 6 1 9-1 13 2h2v1c3 2 2 1 4.01 3 2 3 2 5.01 7 6.01 0-5.01 2-12.01 2-16.01-5 0-8-3-11.01-6-18-10.01-42.01 7-54.02 7 2-4 0-2 4-4 7.01-4 8.01-5 15.01-7.01 7-2 16.01-6 24.01-6 6 0 20.01 13.01 22.01 15.01l-1-3c0-1 0-1 0-1l-8-6.01c-4.01-5-6.01-5-11.01-8 0-1 0-3 0-3v-1-1c1-4 1-4 5-4 1 5 1 4-1 8 19.01 10 10.01 8 17.01 13.01 0-8.01 4-24.02 6-33.02 1-1 1-3 1-4 3-9 4 0 4-11.01 0-5 2.01-8 5.01-14-5.01 0-5.01-4-11.01-5 0 5-1 4-1 9s1 6 1 10c0 5.01-2 6.01-4 7.01l-2-7.01c0 5.01-3 13.01-5 18.01-4 6-8.01 4-16.01 7.01-7 1-13.01 2-20.01 3-5 1-13 4-19.01 4-14 0-9-3-16-8.01 4 17.01 7 15.01 7 37.02 9 0 18.01-3 28.01-3zm102.05-68.03c-4.01 0-2-1-4.01 2-2 3 0 9 0 14.01-1 6-1 13-2 20.01-1 9-1 10 3.01 17 12 22.01 22 36.02 39.01 53.03h1c3 3 4 6 8.01 7l3-32.01c2-23.01 3-33.02 1-55.03 0-5-1-15.01-5-18.01 0 5.01 1 4.01 1 9.01l-1 42.02h-3.01c0-14.01-7-7.01-8-20.01-5 0-12 3-17.01 4 0 4 4.01 8 7.01 11l13 22.01c1 2 9.01 13.01 4 10.01l-20-25.01c-4.01-5.01-6.01-10.01-10.01-14.01-3-3-9-9-10-13.01 5 1.01 1 1.01 3 0 0-10-5-8 1-27.01 1-6-1-2 3-5 6-7 4-4 10-5 7.01-2 10.01-6 17.01-6s14.01 8 16.01 9c0-7 2-21.01-5-21.01-13.01 0-44.02 8-45.02 21.01zm-311.14 84.04c-2 1-16.01 7-16.01 7l1 1h1l5-2c19.01-5 28.02-3 47.02 1-2-2-6-5-9-7-9-6.01-8-7.01-29.01 0zm-16.01 53.02c16.01 11.01 20.01 6 40.02 6 3-6 2-10 1-17-2-8.01-12.01-10.01-21.01-10.01-13.01 0-15.01 11.01-20.01 21.01zm190.09 22.01c0 12.01 7 20.01 12 29.01 2 3 3 5.01 5 8.01 3 5 20.01 26.01 24.01 29.01 5.01-9 12.01-35.02 15.01-45.02 9-29.01 13.01-34.02 11.01-60.03 0-4 0-5-1.01-9-1-3 0-1-1-2-5 22.01-7 11-11 18.01l-10.01 48.02c-1 7-3 20.01-5 23.01 0-6 1-13.01 3-18.01l6.01-36.02c1-5 3-12 3-17-5 0-10.01 2-16.01 2 2-7.01 19.01-7.01 22.01-14.01 5-11 2-21.01-13.01-18.01-9 1-15-2-20 3l-8.01 15.01c-10 25.01 10.01 51.02 10.01 68.03h-2c0-5-3.01-9-6.01-12-12-21.01-11-42.02-11-66.03 0-8.01 11-16.01 19.01-16.01l29.01 1c3 1 3 2 6 1-2-7-5-2-16-4-3.01-1-7.01-2-11.01-2-14.01-1-19.01 3-23.01-3 6 0 8-1 15.01-1 16 0 17 3 23.01 3 8 0 8-2 15 2 2 2 2 2 4.01 5l3 6c0-4 5-15-9.01-19.01-8-3-45.02-2-55.02-2-3 12.01-2 18.01-3 31.02-1 10-4 18.01-4 29.01zm-196.09 9c0 20.01 0 33.02 10 48.03 5 8 20.01 28.01 26.01 32.01 0-13.01 5.01-37.02 9.01-51.02 1-8.01 4-16.01 6-24.01 1-7.01 0-22.01 0-30.02-5 6.01-12 19.01-14.01 26.02-7 23.01-6 30.01-5 50.02 1 14 1 12-1 14 0-7-2-11-2-19 0-31.02 2-40.02 16.01-66.03-5 0-6-1-11.01-1-3 1-5 2-9 2-8 0-14.01-6.01-21.01-8.01-3 14.01-4 8.01-4 27.01zm43.02-894.39h11c0 35.01-8 106.04-14 142.06-1 3-2.01 5-2.01 9 3.01-4 9.01-31.01 11.01-35.01 1-4 1-3 3-4-1 2-4 21.01-4 25.01 9 0 9 2 15.01 3l10-46.02c1-4 2-11.01 3-16.01-4-3-7-8-17.01-10 1-5.01 2.01-1 2.01-7.01 1-18 4-45.02 4-61.02h3c0 13-1 21.01-2 33.01-1 11.01-3 21.01-3 33.02 8 0 8 6 14 8l12.01-65.03c1-4 2-5 2-9h5c0 4-2 10-2 16-4 24.01-10 47.02-14.01 72.04l-5 29.01c9.01 0 7 3 10.01-7l10-47.03c1-2 2-4 3-7l6-22.01c1-5 6.01-25.01 11.01-27.01 2 4-2 12-3 17.01-2 5-4 11-5 16-2.01 8.01-8.01 27.02-8.01 34.02 3 1 3 1 7.01 1 1-3 7-20.01 15-21.01-1 2-2 3-3 6-4 5.01-6 10.01-9 16.01 4 0 6-1 9 1-3 4-8 0-12 5l-14.01 36.02-15.01 50.02c1-13 17.01-10 19.01-11 4 0 5-1 9-1 0-17.01 14.01-54.03 19.01-72.04 2-6 7.01-17 7.01-23.01-6.01 0-8.01 0-9.01-5 3 0 8.01 1 11.01 2 2-4 5-10 5-16-7-4.01-11.01-5.01-12.01-9.01 8.01 0 9.01 4 15.01 5 1-5 9-17 12.01-21.01 2-2 3-4 6-5-2 11.01-11.01 19.01-13.01 30.02 3 1 5.01 2 8.01 3 3 2 5 2 7 4 3 1 5 3 7 4 3 2 3 3 6.01 5l22.01-53.02c0 17.01-14.01 49.02-15.01 56.02 5 2 14 5.01 18.01-2 6-11 13-46.02 21.01-51.02 0 17.01-9.01 37.02-12.01 52.02-2 19.01-3 40.02-3 61.03h1c0-7 1-15.01 3-21.01 3-18.01 2-44.02 10.01-50.02 9-8 18-8 19-17.01 1-3 1-7 2-10 2.01-12.01 0-15.01 2.01-14.01 2 0 1 0 2 1 0 0 1 2 1 2 2 4 1 6 0 10.01l-1 23.01h19.01c4-6.01 6-14.01 9-22.01 1-5.01 2-8.01 3-12.01 2-3 4-7 4-11h8.01l-18.01 51.02c-2 4-5 13-5 18.01 3 0 5 1 7 2l4-18.01c1-6 3-13.01 5-18.01l11.01-35.01h11c-2 9-5 16-9 24.01-10.01 26.01-16.01 67.03-21.01 95.04l-3 48.02c1 8 5 10.01 10 14.01 16.01 14 38.02 43.02 46.02 64.03 2 4 4 7 5.01 11 8 22.01 9 32.01 13 54.02 2 8.01 6 16.01 11.01 23.01l26.01 41.02c10 16.01 13 29.02 20.01 46.02 2 3 3 9.01 5 12.01 4 7 12 10 16.01 17.01 5 12-2.01 17 7 27.01 28.01 28.01 36.01 22.01 36.01 47.02 0 8-1 9 2.01 15.01 5 8 7 13 13 21.01 8 9 19.01 19 15.01 33.01-1 3-1 3-2 6-6.01 19.01 0 22.01-2 36.02-1 8 2 8 3 14.01 4 11 2 34.01 0 46.02-3 25.01-7.01 50.02-22.01 70.03-2 2-4 2-7.01 2 0-4 1.01-3 3.01-6.01 10-19 7-18-6.01-35.01-2-4-3-4-6-7-7-8.01-15.01-20.01-21.01-29.02-4-8-2-25.01-2-35.01 0-6-1-6-1-12.01 0-11-1-14-4-22.01-10.01-22.01-9.01-12-14.01-23.01-1-4-2-6-3-10-2-9.01-8-10.01-13.01-24.01-4-12.01-17-42.02-27.01-48.02-10-7.01-18.01 8-13 18 6 10.01 18.01 22.01 29.01 46.02 5 10.01-2 17.01 2 23.01 3 4.01 7 6.01 7 12.01 0 5-12 59.03-7 92.04 1 8 2 15.01 0 23.01-2 17.01 4 31.01 2 48.02l-5 70.03c1 7.01 6 13.01 6 20.01-8 2-5-7-23.01-25.01-5-4-8-8-12-13-2-2.01-3-4.01-6.01-6.01-9-10-18-26.01-25.01-38.01-3-6.01-8-10.01-7-18.01 4-23.01 3-47.02 6-69.03 1-14.01-8-26.01-12-38.02-4-9-5.01-7-5.01-20.01 0-18.01 3.01-27.01-8-42.02-4-4-7-10-10-15-29.02 0-18.01 57.02-15.01 74.03 1 11 3 19.01 5 28.01 2 9.01 5 16.01 10.01 23.01 11 19.01 3 23.01-4 52.02-3.01 9.01-4.01 17.01-5.01 28.02l-10 56.02c-1 13.01 3 18.01-1 30.02l-7.01 26.01c-6 17-11 33.01-16 50.02-5 22.01 1 32.01-2 50.02 0 4 0 5-4.01 5-1-4-1-9-2-13-5-35.02-22.01-46.02-36.01-73.03-9.01-18.01-15.01-26.02-12.01-48.03 1-6 0-17 2-29.01 1-10 2-19.01 2-29.01 1-12.01 5.01-10.01 2.01-27.01-1.01-7.01-2.01-15.01-5.01-22.01-1-3 0 0-1-3-6-9.01-3-46.03-5-57.03-2-19.01-2-21.01-7-39.02-1-4-2-9-3-13-3.01-7.01-7.01-14.01-13.01-18.01-6-5-14.01-10.01-22.01-2-2 2-5 7-6 9-4 8.01-24.01 68.03-28.01 81.04-4.01 17.01-6.01 34.01-13.01 49.02-4 11-9 22.01-12.01 34.02-3 8-5 16-7 24.01-1 7-7 20-6 24.01 0 5 2 3 0 13-7 29.02-16.01 57.03-21.01 87.04l-2 21.01c0 7 2 6 5 19.01 2 8 9 14 10 22.01-7-1-10-9.01-13-14.01-20.01-27.01-18.01-19.01-34.02-38.01-8-8.01-16-15.01-20.01-26.02-9-24.01-8-52.02-8-82.03 0-3 0-6.01 0-9.01-2-16 3-25.01 3-41.01 0-7.01 1-10.01 1-17.01 0-11.01-2-46.02 0-52.03 5.01-10 9.01-12 9.01-27.01 0-20.01-4-15 5-30.01 9-14.01 3-25.01 6-46.02 5-31.02-9-41.02-5-64.03 3-23.01 2-21.01-5-46.02-2-10.01-7.01-17.01-10.01-26.01-1-6-2-10.01-3-15.01-1-7-4-6-8-10-12.01-10.01-12.01-8.01-27.01-6.01-10.01 2-12.01 11.01-17.01 19.01-5 7.01-8 15.01-11.01 25.01-4 10.01-8 15.01-11 25.01-9.01 21.01 1 23.01-10.01 43.02-2 5.01-3 9.01-5 13.01-5 6-38.01 26.01-44.02 28.01-10 2-17.01 8.01-25.01 12.01-16.01 6-28.01 11-41.02 22.01-18 13-35.01 22.01-35.01 48.02-5-1-4-4-4-11.01 0-14 3-28.01 5-42.01 2-18.01 5-36.02 10-53.03 2-9 5-16.01 6.01-25.01 1-9 0-18.01 0-29.01 0-19.01 12-22.01 26.01-37.02 2-2 2-2 3-4 2-2 3-2 4-4 13.01-14.01 23.01-29.02 34.01-44.02 12.01-15.01 14.01-28.01 16.01-47.02l2-30.02c0-15 7.01-40.01 12.01-51.02 5-15.01 21.01-21.01 35.01-27.01 10.01-6 10.01-5 17.01-14.01 4-7 8.01-13 12.01-20.01 2-3 3-6 6-9l12-19.01c20.01-26.01 30.02-41.02 65.03-52.02 7.01-2 6.01-7.01 9.01-15.01 4-17.01 7-35.01 10-53.02 6-30.02 11.01-83.04 11.01-115.05z"/><path d="m1224.61 1450.11 5.01-2c-3.01 0-4.01 0-5.01 2zm-50.02 30.01c-3 0-7-1-9-2-8.01-7 2-17.01 2-17.01-4-1-16.01-6-18.01-12 7-11.01 16.01 3 40.02 3 5 0 7 0 8-4-5 0-14.01-2-16.01-5 19.01 0 15.01 8 38.02 2 4-2 7-2 13.01-3 8-2 8-4.01 17-6.01l5.01-1v1c-2 6.01-18.01 9.01-23.01 11.01-2 1-1 0-2 1 4 0 8-1 12-1 4-1 5-3 9-4-3 10-32.01 8-38.01 16 8 0 26.01-5 33.01-8l27.01-15.01c4.01-2 6.01-2 9.01-5 4-2 5-5 9-5-3 11-42.02 29.01-54.02 33.01-4 2-9.01 3.01-14.01 4.01-15 4-9-1-20.01 7-2 1-4 2-6 3 2 4 4 2 4 7-10 2-7-12-19.01-3-2 2-4 3-7 3z"/><path d="m1319.66 1508.14c-4.01 0-2.01 1-6.01 1 1 5 1 1 0 3l-27.01 1v7h16.01c14 0 54.02-10 55.02-21.01-8 0-3-2-9 2-4 2-5 2-10.01 3-5 2-6 4.01-8 5.01-3 0-7-1-11-1zm-33.02-2.01c15.01 0 42.02-2 55.03-9 2-1 6-4 9-4 1-1 22.01-2 24.01-2 2 7 1 5-5 5 3 2 1 0 2 3-2 1-4 2-6 3l-1 2c-1.01 0-1.01 0-1.01 0-10 10.01-26.01 15.01-40.01 19.01-18.01 4-27.01 1-34.02 2-7 2-8 3-7-5 0-3 0-5 1-8 1-4 1-3 3-6.01z"/><path d="m1325.66 1535.15c1 1 4-2 1-1 0 0-3-1-1 1zm-28.01 3 12-1c-15.01 0-16.01-2-25.01-2 1-5 2-2 9-2 4.01 0 7.01-1 12.01-1 8 0 15.01-2 22.01-4.01 9-3 35.01-14 39.02-14 4 0 0 0 3 1-1 4 0 2-3 4l-39.02 15.01c5 0 15.01-3 19.01-5 7-2.01 12-3.01 19.01-5.01v3c-14.01 3.01-34.02 13.01-52.03 14.01-4 0-6 1-10 1-5 1-5 2-6-4z"/><path d="m1361.67 1533.15v4l-30.01 10c-5 2-10 4-15.01 5.01-4 1-13 3-17 3 3-5.01 7-6.01 14-7.01l32.02-10c4-1 12-5 16-5z"/><path d="m1213.61 1209v-3c14-3 21.01 10.01 21.01 13.01 0 2 0 0-1 2-5.01-3-7.01-12.01-20.01-12.01z"/><path d="m1221.61 1062.94c1 4 5 6 6 8 1 1 1-1 1 3-9-3-1-9-18-5 0-6 1-6 11-6z"/></g><g fill-rule="nonzero"><g fill="#dddad6"><path d="m1259.88 1716.69-49.19 20.25v63.63l43.4-14.46v133.05h75.22v-202.47z"/><path d="m1351.73 3094.68c0-33.26-31.83-65.08-82.45-65.08-54.97 0-81.01 31.82-81.01 31.82l27.49 43.39s17.35-15.91 41.95-15.91c10.12 0 15.91 5.78 15.91 14.46 0 26.03-81.01 75.2-81.01 75.2v57.85h156.23v-63.63h-57.86s60.75-28.93 60.75-78.1z"/><path d="m1343.05 4403.25v-60.74h-141.77v60.74h66.55l-34.72 23.14v37.6h24.59c10.13 0 15.91 5.79 15.91 13.02s-5.78 13.01-15.91 13.01c-24.59 0-41.94-15.9-41.94-15.9l-27.49 43.38s26.04 31.82 81 31.82c50.63 0 82.46-31.82 82.46-63.63 0-47.73-49.18-56.41-49.18-56.41z"/><path d="m1340.89 5771.12v-115.7h-86.79l-72.33 115.7v54.95h83.9v31.82h75.22v-31.82h17.35v-54.95zm-92.58 0 17.36-37.6v37.6z"/><path d="m1282.29 7040.63c-11.57 0-20.25 2.89-20.25 2.89l2.89-14.46h75.23v-60.74h-130.2l-14.46 95.45 34.71 23.14s11.57-5.78 23.15-5.78c13.02 0 20.25 7.23 20.25 17.35s-7.23 17.35-20.25 17.35c-20.25 0-37.61-15.9-37.61-15.9l-27.49 43.38s26.05 31.82 81.01 31.82c50.63 0 82.46-31.82 82.46-67.97 0-37.6-28.94-66.53-69.44-66.53z"/><path d="m1255.54 8366.57c0-14.46 14.46-28.92 37.61-28.92 17.36 0 31.83 8.67 31.83 8.67l20.24-46.28s-26.04-18.8-66.54-18.8c-52.07 0-95.47 43.39-95.47 105.58 0 67.97 37.61 105.57 92.58 105.57 49.19 0 81-31.82 81-73.76 0-40.49-26.03-66.52-66.53-66.52-23.15 0-34.72 14.46-34.72 14.46zm34.72 52.06c0 13.02-7.23 20.25-14.47 20.25-7.23 0-14.47-7.23-14.47-20.25 0-13.01 7.24-20.24 14.47-20.24 7.24 0 14.47 7.23 14.47 20.24z"/><path d="m1346.67 9594.15h-153.34v63.63h73.78l-68 138.84h78.12l69.44-141.73z"/><path d="m1270 10951.9c7.23 0 13.02 5.78 13.02 15.9 0 10.13-5.79 15.91-13.02 15.91s-13.02-5.78-13.02-15.91c0-10.12 5.79-15.9 13.02-15.9zm0 80.98c8.68 0 15.92 7.23 15.92 17.36 0 10.12-7.24 17.35-15.92 17.35s-15.91-7.23-15.91-17.35c0-10.13 7.23-17.36 15.91-17.36zm0-125.82c-50.63 0-79.56 28.93-79.56 57.85 0 31.82 28.93 41.94 28.93 41.94v1.45s-40.5 10.12-40.5 50.61c0 30.37 28.93 59.3 91.13 59.3s91.13-28.93 91.13-59.3c0-40.49-40.51-50.61-40.51-50.61v-1.45s28.94-10.12 28.94-41.94c0-28.92-28.94-57.85-79.56-57.85z"/></g><g fill="#4c4c4c" stroke="#090909" stroke-miterlimit="22.9256" stroke-width="16.93"><path d="m1778.83 2127.73 497.2 263.89-497.2 263.9zm0 263.89"/><path d="m1778.83 3440.63 497.2 263.89-497.2 263.9zm0 263.89"/><path d="m1778.83 6066.45 497.2 263.89-497.2 263.9zm0 263.89"/><path d="m1778.83 4753.54 497.2 263.89-497.2 263.9zm0 263.89"/><path d="m1778.83 7379.35 497.2 263.9-497.2 263.9zm0 263.9"/><path d="m1778.83 8692.26 497.2 263.9-497.2 263.9zm0 263.9"/><path d="m1778.83 10005.17 497.2 263.9-497.2 263.9zm0 263.9"/><path d="m1778.83 11318.08 497.2 263.9-497.2 263.9zm0 263.9"/><path d="m761.52 2127.73-497.19 263.89 497.19 263.9zm0 263.89"/><path d="m761.53 11318.08-497.2 263.9 497.2 263.9zm0 263.9"/><path d="m761.53 10005.17-497.2 263.9 497.2 263.9zm0 263.9"/><path d="m761.53 8692.26-497.2 263.9 497.2 263.9zm0 263.9"/><path d="m761.53 7379.35-497.2 263.9 497.2 263.9zm0 263.9"/><path d="m761.53 6066.45-497.2 263.89 497.2 263.9zm0 263.89"/><path d="m761.53 4753.54-497.2 263.89 497.2 263.9zm0 263.89"/><path d="m761.53 3440.63-497.2 263.89 497.2 263.9zm0 263.89"/></g></g></svg>