<svg clip-rule="evenodd" fill-rule="evenodd" height="128.5mm" image-rendering="optimizeQuality" shape-rendering="geometricPrecision" text-rendering="geometricPrecision" viewBox="0 0 2540 12850" width="25.4mm" xmlns="http://www.w3.org/2000/svg"><g fill-rule="nonzero"><g fill="#2f2f2f"><path d="m1137.08 551.8v4.1c-6.29.55-11.03 1.64-14.13 3.37-3.19 1.73-5.74 4.01-7.75 7.02 0 31.18 2.65 68.01 7.93 110.31 5.29 42.3 10.58 85.34 15.96 129.19 5.38 43.76 8.11 81.32 8.11 112.5 2.46 1.27 5.39 2.64 8.58 4.01 3.28 1.37 5.84 2.46 7.84 3.19-4.47 1.09-9.39 1.91-14.69 2.37-5.19.45-10.48.64-15.77.64-3.74 0-9.3-.09-16.68-.19-7.4-.09-12.68-.18-15.97-.18-1-1.73 1.19-3.83 6.48-6.01 5.29-2.28 8.58-4.29 9.85-6.11 1.28-1.74 2.1-3.83 2.46-6.2.37-2.37.55-6.2.55-11.49 0-30.9-1.55-61.08-4.74-90.35-3.1-29.26-7.58-59.71-13.41-91.25-5.74-31.64-11.4-62.27-16.96-91.9l-8.29 9.03c-10.59 23.43-23.9 53.69-39.85 90.98-16.06 37.2-30.92 71.84-44.78 104.11-13.86 32.18-28.36 65.19-43.4 99.19h-2.66c-12.58-33.73-27.8-73.66-45.5-119.79-17.78-46.13-32.09-83.97-42.86-113.41-10.85-29.45-21.51-60.72-32.1-93.72l-4.19-5.29c-5.56 7.57-9.94 15.86-13.22 24.98-3.28 9.03-8.57 29.17-16.05 60.26-7.39 31.18-13.77 57.62-19.06 79.41s-11.12 48.04-17.59 78.67c-6.39 30.64-11.14 56.62-14.15 78.04.55 2.46 2.74 4.01 6.67 4.47 3.83.55 5.2 2.64 3.92 6.38h-56.36l15.14-20.78c8.48-29.27 20.88-68.74 37.12-118.43 16.23-49.69 28.9-89.16 37.92-118.52 9.04-29.44 17.33-59.98 24.9-91.71-1-4.19-3.19-7.29-6.56-9.3-3.47-2.1-10.03-3.1-19.89-3.1 6.58-4.92 13.32-8.75 20.25-11.58 6.93-2.82 14.22-4.19 22.06-4.19h4.12c2 .55 3.55.73 4.56.73 2 2.83 4.01 5.93 6.01 9.3 2.01 3.37 6.75 14.13 14.13 32.18 7.48 17.96 17.15 45.13 29.1 81.5 11.94 36.29 23.71 71.93 35.29 107.03 11.57 35.01 23.34 66.74 35.47 95.27l9.03-12.12c15.31-33.92 31.46-69.56 48.32-107.12 16.79-37.47 31.92-72.57 45.23-105.21 13.32-32.55 24.99-65 35.11-97.37 3.47-1.55 7.57-2.64 12.04-3.28 4.55-.64 10.13-.91 16.6-.91 2.55 0 5.1.18 7.75.64 2.64.45 5.38.64 8.11.64z"/><path d="m1270.76 778.89c3.75-1.27 7.94-1.91 12.41-1.91 4.83 0 9.48 1.09 14.13 3.19s12.4 8.11 23.26 18.05c10.76 9.85 17.87 29.81 21.33 59.9 3.37 29.99 6.2 49.32 8.48 57.8l12.77 6.47c-2.73 1.73-6.83 2.92-12.22 3.74-5.38.73-10.85 1.09-16.41 1.09-3.29 0-6.57 0-9.85 0s-6.38-.18-9.39-.36c4.56 0 7.75-1.55 9.57-4.56 1.92-3.01 2.83-6.84 2.83-11.58 0-3.28-.18-6.75-.64-10.39-.45-3.65-.82-7.11-1-10.31-1-2.46-2.65-3.64-4.92-3.64-2.56 0-5.2 1.09-7.94 3.37-10.31 10.94-22.25 20.24-35.93 28.08-13.59 7.84-26.44 11.76-38.48 11.76-7.11 0-14.14-1.73-21.16-5.29-7.11-3.46-12.58-7.75-16.5-12.85-3.92-5.02-5.83-11.4-5.83-19.24 0-7.47 2.09-14.22 6.38-20.15 4.28-5.92 10.57-11.12 18.69-15.58 8.2-4.56 17.6-8.3 28.36-11.13 10.67-2.91 21.51-4.37 32.56-4.37 5.83 0 11.12.36 15.86 1.09 4.83.64 9.84 1.92 15.14 3.83 2.28-2.28 3.38-5.01 3.38-8.3 0-2-.73-4.55-2.28-7.56-1.46-3.01-4.39-9.39-8.67-19.24-4.29-9.75-15.5-14.68-33.56-14.68-8.3 0-15.41 1.74-21.34 5.29-5.92 3.56-13.67 9.3-23.25 17.14 4.1-9.3 9.76-17.41 17.05-24.16 7.3-6.84 16.32-12.03 27.17-15.5zm31.55 71.39c-7.56-3.29-15.86-4.93-24.88-4.93-11.59 0-22.44 2.46-32.65 7.48-10.12 5.01-16.97 10.48-20.34 16.32-3.37 5.92-5.11 10.48-5.11 13.76 0 4.01 1.01 7.66 3.01 11.03 2.01 3.38 5.84 7.94 11.5 13.5 5.65 5.65 12.67 8.48 20.97 8.48 2.46 0 7.56-.92 15.22-2.65 7.67-1.73 17.79-7.47 30.19-17.23 12.5-9.75 18.7-19.33 18.7-28.53 0-1.74-.46-3.92-1.28-6.39-.91-2.55-2.55-4.55-4.92-6.01-2.38-1.46-5.85-3.1-10.41-4.83z"/><path d="m1380.74 812.08c4.74-5.29 12.78-11.85 23.99-19.79 11.3-7.93 17.96-12.67 19.96-14.22 1.01 1.83 1.46 4.2 1.46 6.93 0 2.28.09 4.56.19 6.75.09 2.28 1.09 4.01 2.82 5.28 7.85-4.46 17.06-8.47 27.82-12.03 10.66-3.55 21.25-5.29 31.55-5.29 7.57 0 14.41 1.19 20.42 3.56 6.12 2.37 11.41 6.2 15.88 11.49 4.55 5.28 7.65 11.03 9.29 17.13 1.65 6.2 2.47 13.13 2.47 20.97 0 4.29-.55 12.31-1.65 24.25-1 11.95-1.54 19.79-1.54 23.62 0 4.46.09 8.66.36 12.39.27 3.74.82 7.39 1.73 10.94.91 3.56 2.55 6.29 4.92 8.3 2.38 2.01 6.3 3.01 11.58 3.01 1.83 0 3.93-.18 6.49-.55.54 3.47-.55 5.65-3.01 6.38-3.84.28-8.76 1.28-14.96 3.01s-13.41 2.65-21.79 2.65c-2.74 0-4.93-.19-6.39-.46-1.01-5.47-1.65-9.48-1.74-12.03-.09-2.47-.18-4.47-.18-6.02 0-5.74.82-16.5 2.46-32 1.65-15.59 2.47-26.17 2.47-31.73 0-11.76-1.74-21.79-5.11-29.99-3.37-8.11-8.94-14.59-16.59-19.24-7.66-4.65-15.68-6.93-23.99-6.93-11.31 0-20.51 3.56-27.72 10.58-7.2 7.11-12.13 16.14-14.87 27.08-2.82 10.94-4.19 23.52-4.19 37.65 0 9.3.09 15.68.37 19.14.27 3.38 1.18 14.04 2.91 32 0 3.01 3.01 5.2 8.95 6.57 5.92 1.36 9.11 3.01 9.66 4.74-5.56.54-10.94 1-16.15 1.55-5.19.45-10.11.73-14.95.73-6.56 0-11.3-.19-14.22-.55s-6.75-1.19-11.59-2.46c5.39-5.56 9.13-12.49 11.14-20.7 2.09-8.2 3.1-18.23 3.1-30.08 0-8.12-.46-19.15-1.28-33-.82-13.86-1.19-22.52-1.19-25.8 0-3.56-1-5.29-3-5.29-1.01 0-3.01.64-5.85 1.91-2.92 1.28-4.83 1.83-5.83 1.83-1.55 0-2.92-.73-4.2-2.28z"/><path d="m1685.51 798.77c0-7.84 4.28-13.22 12.94-16.32 8.66-3.01 18.15-4.56 28.55-4.56-4.29 21.97-6.48 43.94-6.48 65.91 0 11.13.55 21.34 1.74 30.73 1.09 9.3 2.37 16.68 3.73 21.97 1.37 5.29 3.1 7.93 5.11 7.93 3.55-.73 6.11-1.1 7.57-1.1 1.55 0 2.46.55 2.64 1.55-5.47 6.02-12.95 10.49-22.43 13.41-9.4 2.91-17.24 5.28-23.53 7.02 1.19-5.29 2.37-11.31 3.65-18.15 1.18-6.74 1.82-12.76 1.82-18.05 0-5.83-.45-11.12-1.37-15.86-20.14 23.61-33.92 39.02-41.3 46.13-7.39 7.2-17.51 10.76-30.37 10.76-4.84 0-11.03-1.55-18.87-4.74-7.75-3.1-13.5-8.75-17.15-16.96-3.65-8.11-5.47-18.23-5.47-30.36 0-5.74.45-14.58 1.45-26.35 1.01-11.85 1.46-20.51 1.46-26.07 0-6.75-.54-12.58-1.64-17.32 0-3.56-2.46-5.29-7.38-5.29-1.01 0-1.83 0-2.46 0-.55 0-1.19.18-1.64.37 4.46-4.47 10.48-9.12 17.95-13.77 7.49-4.65 14.15-7.57 20.16-8.84.46 3.55.73 7.02.73 10.57v10.58c0 5.47-.27 14.68-.82 27.62-.55 12.95-.82 19.97-.82 20.97 0 9.75.46 18.14 1.37 24.98.82 6.93 2.55 14.68 5.1 23.25 2.47 8.48 8.39 12.76 17.79 12.76 6.57 0 18.78-6.93 36.56-20.79 17.79-13.94 26.72-37.37 26.72-70.47 0-2.19 0-4.47-.09-6.56-.09-2.19-.55-6.38-1.28-12.67z"/><path d="m1799.04 778.07h12.86c8.02 0 14.49.82 19.23 2.46s8.76 5.11 12.05 10.4c-1.01 6.01-2.74 9.11-5.2 9.11-1.29 0-5.12-3.1-11.5-9.11-6.38-6.02-10.85-9.03-13.4-9.03-7.93 0-14.77 1.37-20.25 4.19-5.56 2.74-9.39 6.75-11.49 11.95-2.09 5.1-3.19 9.57-3.19 13.4 0 6.56 2.19 12.94 6.57 19.14 4.37 6.2 14.23 11.31 29.55 15.5 15.31 4.2 24.17 9.76 26.72 16.87 2.46 7.02 3.74 12.76 3.74 17.05 0 5.28-1.19 10.39-3.56 15.31-2.46 4.93-6.12 10.21-10.95 15.96-4.92 5.65-10.03 10.12-15.32 13.4-5.28 3.28-11.3 4.92-18.05 4.92-4.84 0-9.76-1-14.96-3.1-5.1-2-8.93-5.29-11.49-9.94-2.46-6.38-4.28-10.94-5.28-13.76 2.55 0 7.47 2.28 14.95 6.93 7.38 4.65 12.12 7.29 14.31 7.93 2.1.64 5.66 1 10.77 1 4.01 0 7.84-.82 11.67-2.46 3.74-1.64 6.93-4.38 9.39-8.3 2.55-3.92 3.83-8.2 3.83-12.76 0-3.74-1.46-7.93-4.38-12.49s-12.76-9.48-29.64-14.77c-16.86-5.29-26.16-11.3-28.08-17.96-1.91-6.75-3.19-12.22-4.01-16.5-.73-4.28-1.09-7.75-1.09-10.21 0-7.11 2.09-14.31 6.38-21.61 4.28-7.38 8.66-13.13 13.04-17.23 4.37-4.19 10.02-6.29 16.78-6.29z"/></g><g fill="#770ba0"><path d="m1137.08 546.03v4.1c-6.29.55-11.03 1.64-14.13 3.37-3.19 1.73-5.74 4.01-7.75 7.02 0 31.18 2.65 68.01 7.93 110.31 5.29 42.3 10.58 85.34 15.96 129.19 5.39 43.76 8.12 81.32 8.12 112.5 2.46 1.27 5.38 2.64 8.57 4.01 3.28 1.37 5.84 2.46 7.84 3.19-4.47 1.09-9.39 1.91-14.68 2.37-5.19.45-10.49.64-15.78.64-3.74 0-9.3-.09-16.68-.19-7.39-.09-12.67-.18-15.97-.18-1-1.73 1.19-3.83 6.49-6.01 5.28-2.28 8.57-4.29 9.84-6.11 1.28-1.74 2.1-3.83 2.46-6.2.37-2.37.55-6.2.55-11.49 0-30.9-1.55-61.08-4.74-90.35-3.1-29.26-7.57-59.71-13.41-91.25-5.74-31.64-11.4-62.27-16.96-91.9l-8.29 9.03c-10.58 23.43-23.9 53.69-39.85 90.98-16.06 37.2-30.92 71.84-44.78 104.11-13.86 32.18-28.36 65.19-43.4 99.19h-2.65c-12.59-33.73-27.81-73.66-45.5-119.79-17.79-46.13-32.1-83.97-42.87-113.41-10.85-29.45-21.51-60.72-32.09-93.72l-4.19-5.29c-5.57 7.57-9.95 15.86-13.23 24.98-3.28 9.03-8.57 29.17-16.05 60.26-7.38 31.18-13.77 57.62-19.06 79.41s-11.12 48.04-17.59 78.67c-6.39 30.64-11.13 56.62-14.14 78.04.55 2.46 2.74 4.01 6.66 4.47 3.83.55 5.2 2.64 3.92 6.38h-56.36l15.14-20.78c8.48-29.27 20.88-68.74 37.12-118.43 16.23-49.69 28.9-89.16 37.93-118.52 9.03-29.44 17.32-59.98 24.89-91.71-1-4.19-3.19-7.29-6.56-9.3-3.47-2.1-10.03-3.1-19.88-3.1 6.57-4.92 13.31-8.75 20.24-11.58 6.93-2.82 14.22-4.19 22.07-4.19h4.11c2 .55 3.55.73 4.56.73 2 2.83 4.01 5.93 6.01 9.3 2.01 3.37 6.75 14.13 14.13 32.18 7.49 17.96 17.15 45.13 29.1 81.5 11.94 36.29 23.71 71.93 35.29 107.03 11.57 35.01 23.35 66.74 35.47 95.27l9.03-12.12c15.31-33.92 31.46-69.56 48.32-107.12 16.79-37.47 31.92-72.57 45.23-105.21 13.32-32.55 24.99-65 35.11-97.37 3.47-1.55 7.57-2.64 12.05-3.28 4.55-.64 10.12-.91 16.59-.91 2.55 0 5.1.18 7.75.64 2.64.45 5.38.64 8.11.64z"/><path d="m1270.77 773.12c3.74-1.27 7.93-1.91 12.4-1.91 4.83 0 9.48 1.09 14.13 3.19s12.41 8.11 23.26 18.05c10.76 9.85 17.87 29.81 21.33 59.9 3.38 29.99 6.21 49.32 8.49 57.8l12.76 6.47c-2.73 1.73-6.83 2.92-12.21 3.74-5.38.73-10.86 1.09-16.42 1.09-3.29 0-6.57 0-9.85 0s-6.38-.18-9.39-.36c4.56 0 7.75-1.55 9.57-4.56 1.92-3.01 2.83-6.84 2.83-11.58 0-3.28-.18-6.75-.64-10.39-.45-3.65-.82-7.11-1-10.31-1-2.46-2.65-3.64-4.92-3.64-2.56 0-5.2 1.09-7.94 3.37-10.31 10.94-22.25 20.24-35.93 28.08-13.58 7.84-26.44 11.76-38.48 11.76-7.11 0-14.13-1.73-21.16-5.29-7.11-3.46-12.58-7.75-16.5-12.85-3.92-5.02-5.83-11.4-5.83-19.24 0-7.47 2.09-14.22 6.38-20.15 4.28-5.92 10.57-11.12 18.69-15.58 8.21-4.56 17.6-8.3 28.36-11.13 10.67-2.91 21.52-4.37 32.56-4.37 5.83 0 11.12.36 15.86 1.09 4.83.64 9.85 1.92 15.14 3.83 2.28-2.28 3.38-5.01 3.38-8.3 0-2-.73-4.55-2.28-7.56-1.46-3.01-4.38-9.39-8.66-19.24-4.3-9.75-15.51-14.68-33.56-14.68-8.31 0-15.42 1.74-21.35 5.29-5.92 3.56-13.67 9.3-23.24 17.14 4.1-9.3 9.75-17.41 17.04-24.16 7.3-6.84 16.32-12.03 27.18-15.5zm31.54 71.39c-7.56-3.29-15.86-4.93-24.88-4.93-11.58 0-22.44 2.46-32.65 7.48-10.12 5.01-16.96 10.48-20.33 16.32-3.38 5.92-5.12 10.48-5.12 13.76 0 4.01 1.01 7.66 3.01 11.03 2.02 3.38 5.85 7.94 11.5 13.5 5.65 5.65 12.67 8.48 20.97 8.48 2.46 0 7.56-.92 15.23-2.65 7.66-1.73 17.78-7.47 30.18-17.23 12.5-9.75 18.7-19.33 18.7-28.53 0-1.74-.46-3.92-1.28-6.39-.91-2.55-2.55-4.55-4.92-6.01s-5.84-3.1-10.41-4.83z"/><path d="m1380.74 806.31c4.75-5.29 12.78-11.85 23.99-19.79 11.3-7.93 17.96-12.67 19.96-14.22 1.02 1.83 1.47 4.2 1.47 6.93 0 2.28.09 4.56.19 6.75.09 2.28 1.09 4.01 2.82 5.28 7.84-4.46 17.05-8.47 27.81-12.03 10.67-3.55 21.25-5.29 31.55-5.29 7.57 0 14.41 1.19 20.43 3.56 6.11 2.37 11.4 6.2 15.87 11.49 4.55 5.28 7.65 11.03 9.29 17.13 1.65 6.2 2.47 13.13 2.47 20.97 0 4.29-.55 12.31-1.65 24.25-1 11.95-1.54 19.79-1.54 23.62 0 4.46.09 8.66.36 12.39.27 3.74.82 7.39 1.73 10.94.91 3.56 2.55 6.29 4.92 8.3 2.38 2.01 6.31 3.01 11.59 3.01 1.83 0 3.92-.18 6.48-.55.54 3.47-.55 5.65-3.01 6.38-3.83.28-8.75 1.28-14.96 3.01-6.2 1.73-13.41 2.65-21.79 2.65-2.74 0-4.93-.19-6.38-.46-1.01-5.47-1.65-9.48-1.74-12.03-.09-2.47-.18-4.47-.18-6.02 0-5.74.82-16.5 2.46-32 1.64-15.59 2.46-26.17 2.46-31.73 0-11.76-1.73-21.79-5.1-29.99-3.37-8.11-8.95-14.59-16.6-19.24-7.66-4.65-15.68-6.93-23.98-6.93-11.32 0-20.52 3.56-27.73 10.58-7.2 7.11-12.12 16.14-14.86 27.08-2.83 10.94-4.2 23.52-4.2 37.65 0 9.3.09 15.68.37 19.14.27 3.38 1.18 14.04 2.92 32 0 3.01 3.01 5.2 8.94 6.57 5.92 1.36 9.11 3.01 9.66 4.74-5.56.54-10.94 1-16.14 1.55-5.2.45-10.12.73-14.96.73-6.56 0-11.3-.19-14.22-.55s-6.75-1.19-11.58-2.46c5.38-5.56 9.12-12.49 11.13-20.7 2.09-8.2 3.1-18.23 3.1-30.08 0-8.12-.46-19.15-1.28-33-.82-13.86-1.19-22.52-1.19-25.8 0-3.56-1-5.29-3-5.29-1.01 0-3.01.64-5.84 1.91-2.92 1.28-4.83 1.83-5.83 1.83-1.56 0-2.93-.73-4.21-2.28z"/><path d="m1685.51 793c0-7.84 4.28-13.22 12.94-16.32 8.66-3.01 18.15-4.56 28.55-4.56-4.29 21.97-6.48 43.94-6.48 65.91 0 11.13.55 21.34 1.74 30.73 1.09 9.3 2.37 16.68 3.73 21.97 1.37 5.29 3.1 7.93 5.11 7.93 3.55-.73 6.11-1.1 7.57-1.1 1.55 0 2.46.55 2.64 1.55-5.47 6.02-12.95 10.49-22.43 13.41-9.39 2.91-17.24 5.28-23.53 7.02 1.19-5.29 2.37-11.31 3.65-18.15 1.18-6.74 1.82-12.76 1.82-18.05 0-5.83-.45-11.12-1.37-15.86-20.14 23.61-33.92 39.02-41.3 46.13-7.39 7.2-17.51 10.76-30.36 10.76-4.85 0-11.04-1.55-18.88-4.74-7.75-3.1-13.5-8.75-17.14-16.96-3.65-8.11-5.48-18.23-5.48-30.36 0-5.74.45-14.58 1.46-26.35 1.01-11.85 1.46-20.51 1.46-26.07 0-6.75-.54-12.58-1.64-17.32 0-3.56-2.47-5.29-7.39-5.29-1.01 0-1.83 0-2.46 0-.55 0-1.19.18-1.64.37 4.46-4.47 10.48-9.12 17.96-13.77s14.14-7.57 20.15-8.84c.46 3.55.73 7.02.73 10.57v10.58c0 5.47-.27 14.68-.82 27.62-.55 12.95-.82 19.97-.82 20.97 0 9.75.46 18.14 1.37 24.98.82 6.93 2.55 14.68 5.1 23.25 2.47 8.48 8.4 12.76 17.79 12.76 6.57 0 18.78-6.93 36.57-20.79 17.78-13.94 26.71-37.37 26.71-70.47 0-2.19 0-4.47-.09-6.56-.09-2.19-.55-6.38-1.28-12.67z"/><path d="m1799.04 772.3h12.86c8.02 0 14.49.82 19.24 2.46 4.74 1.64 8.75 5.11 12.04 10.4-1.01 6.01-2.74 9.11-5.2 9.11-1.28 0-5.11-3.1-11.5-9.11-6.38-6.02-10.85-9.03-13.4-9.03-7.93 0-14.77 1.37-20.24 4.19-5.57 2.74-9.4 6.75-11.5 11.95-2.09 5.1-3.19 9.57-3.19 13.4 0 6.56 2.19 12.94 6.57 19.14s14.23 11.31 29.55 15.5c15.32 4.2 24.17 9.76 26.72 16.87 2.46 7.02 3.74 12.76 3.74 17.05 0 5.28-1.19 10.39-3.56 15.31-2.46 4.93-6.11 10.21-10.94 15.96-4.93 5.65-10.04 10.12-15.33 13.4-5.28 3.28-11.3 4.92-18.05 4.92-4.83 0-9.76-1-14.96-3.1-5.1-2-8.93-5.29-11.49-9.94-2.46-6.38-4.28-10.94-5.28-13.76 2.55 0 7.47 2.28 14.95 6.93 7.38 4.65 12.13 7.29 14.32 7.93 2.1.64 5.65 1 10.76 1 4.01 0 7.84-.82 11.67-2.46 3.74-1.64 6.93-4.38 9.39-8.3 2.55-3.92 3.84-8.2 3.84-12.76 0-3.74-1.47-7.93-4.39-12.49s-12.76-9.48-29.63-14.77-26.17-11.3-28.09-17.96c-1.91-6.75-3.19-12.22-4.01-16.5-.73-4.28-1.09-7.75-1.09-10.21 0-7.11 2.09-14.31 6.38-21.61 4.28-7.38 8.66-13.13 13.04-17.23 4.37-4.19 10.03-6.29 16.78-6.29z"/></g></g></svg>