<svg clip-rule="evenodd" fill-rule="evenodd" height="128.5mm" image-rendering="optimizeQuality" shape-rendering="geometricPrecision" text-rendering="geometricPrecision" viewBox="0 0 13716 12850" width="137.16mm" xmlns="http://www.w3.org/2000/svg"><g fill-rule="nonzero"><g fill="#2f2f2f"><path d="m1302.21 547.1v9.53c-14.63 1.28-25.64 3.82-32.85 7.84-7.41 4.03-13.36 9.33-18.02 16.32 0 72.46 6.15 158.06 18.45 256.37 12.28 98.3 24.57 198.31 37.08 300.22 12.5 101.7 18.86 188.99 18.86 261.45 5.72 2.97 12.5 6.15 19.93 9.32 7.62 3.18 13.56 5.72 18.22 7.42-10.38 2.54-21.83 4.45-34.12 5.51-12.08 1.06-24.37 1.48-36.67 1.48-8.69 0-21.61-.21-38.78-.42-17.16-.21-29.45-.43-37.09-.43-2.33-4.02 2.77-8.89 15.05-13.98 12.29-5.3 19.92-9.96 22.89-14.2 2.96-4.02 4.88-8.89 5.73-14.4.84-5.51 1.27-14.41 1.27-26.7 0-71.82-3.61-141.95-11.03-209.97-7.2-68.01-17.58-138.77-31.14-212.08-13.36-73.52-26.5-144.71-39.42-213.57l-19.29 20.98c-24.59 54.45-55.52 124.79-92.61 211.45-37.3 86.44-71.85 166.95-104.06 241.96-32.22 74.79-65.9 151.48-100.87 230.51h-6.15c-29.25-78.39-64.64-171.19-105.75-278.4-41.33-107.21-74.6-195.13-99.61-263.57-25.22-68.43-50.02-141.11-74.59-217.8l-9.76-12.29c-12.92 17.58-23.09 36.86-30.72 58.05-7.64 20.98-19.93 67.8-37.3 140.05-17.17 72.46-32 133.9-44.29 184.54-12.3 50.64-25.86 111.66-40.9 182.85-14.84 71.19-25.86 131.57-32.85 181.36 1.27 5.72 6.35 9.32 15.46 10.38 8.9 1.27 12.08 6.15 9.11 14.83h-130.96l35.18-48.3c19.71-68.01 48.53-159.76 86.25-275.23s67.18-207.21 88.16-275.43c20.98-68.44 40.26-139.41 57.86-213.15-2.33-9.74-7.42-16.95-15.26-21.61-8.06-4.87-23.31-7.2-46.2-7.2 15.26-11.44 30.94-20.34 47.04-26.91 16.12-6.57 33.06-9.75 51.3-9.75h9.53c4.66 1.28 8.26 1.7 10.59 1.7 4.67 6.57 9.33 13.77 14 21.61 4.66 7.84 15.68 32.84 32.84 74.79 17.38 41.74 39.84 104.88 67.61 189.42 27.76 84.32 55.09 167.16 82.01 248.74 26.92 81.36 54.25 155.09 82.44 221.4l20.98-28.18c35.6-78.81 73.11-161.66 112.32-248.95 38.99-87.08 74.17-168.65 105.12-244.5 30.94-75.64 58.06-151.06 81.59-226.28 8.05-3.6 17.58-6.14 27.98-7.63 10.59-1.48 23.51-2.12 38.57-2.12 5.93 0 11.86.43 18.01 1.49 6.14 1.06 12.5 1.48 18.86 1.48z"/><path d="m1549.74 1087.8c15.26-9.96 31.57-14.83 49.17-14.83 18.64 0 36.87 4.45 54.67 13.14 17.81 8.9 38.99 21.61 63.58 38.56-18.65 21.82-55.11 55.51-109.36 101.48-54.03 45.98-86.67 74.8-97.9 86.45 12.29 18.64 27.33 34.11 44.93 45.98 17.37 12.07 33.06 18.85 46.83 20.76 13.77 1.69 24.16 2.54 31.37 2.54 15.68 0 29.02-2.12 39.84-6.57 10.81-4.23 36.03-18.64 75.23-43.01-12.29 15.68-22.89 28.18-31.57 37.29-8.9 9.11-18.24 15.05-28.19 18.44-9.96 3.17-27.56 9.74-52.98 19.7-25.44 9.96-44.51 14.83-57.44 14.83-8.26 0-14.19-.42-18.01-1.27-3.81-.85-15.04-5.72-33.7-14.2-18.85-8.47-38.14-26.06-58.27-52.54-20.35-26.7-31.16-48.73-33.06-66.32-1.7-17.58-2.55-29.87-2.55-36.86 0-34.11 10.17-63.56 30.31-88.35 20.13-25 49.17-50.01 87.1-75.22zm53.62 30.93c-11.66-7.62-25.02-11.44-39.63-11.44-25.86 0-47.05 10.6-63.59 32-16.31 21.4-24.57 45.76-24.57 73.3 0 26.91 8.26 53.18 24.78 79.03 25.23-15.89 54.26-39.4 87.11-70.76 32.85-31.15 54.89-51.28 66.12-59.96-5.3-8.27-11.44-15.05-18.43-20.77-7.21-5.5-17.6-12.71-31.79-21.4z"/><path d="m2044.58 544.13c16.95 2.55 33.91 4.03 50.86 4.03h36.88 29.04c9.32 0 19.49.21 30.52 1.06-11.03 2.33-20.35 4.45-27.98 6.57s-12.29 7.41-13.98 16.31c0 69.07-.64 134.33-1.71 195.56-1.06 61.23-2.33 135.18-3.39 221.83 0 73.95 1.27 138.14 4.03 192.6 2.55 54.45 7.63 113.56 15.26 177.54 3.39 8.27 7.2 14.62 11.44 19.29 4.03 4.66 9.75 8.26 17.39 10.59 5.93 1.69 13.77-1.27 23.73-8.9 9.74-7.84 18.02-9.96 24.37-6.36-9.32 12.93-18.44 23.73-27.55 32.63-9.11 8.69-19.28 13.14-30.31 13.14-6.36 0-13.77-2.76-21.82-8.05-7.21-13.77-14.21-23.52-21.62-29.24-7.21-5.72-15.05-8.48-23.1-8.48-9.97 0-26.07 7-48.32 20.98s-39.84 20.98-52.56 20.98c-9.96 0-19.92 0-29.88 0s-19.5 0-29.03 0c-21.62 0-39.42-1.28-53.84-4.03-14.4-2.54-31.35-10.17-51.28-23.09-19.92-12.93-36.45-30.94-49.59-54.24-13.13-23.31-19.71-48.74-19.71-76.07 0-18.22 3.82-41.1 11.45-69.28 7.63-27.97 24.36-52.33 50.43-73.31 26.07-21.18 53.83-34.74 83.71-41.31 29.89-6.36 52.56-9.54 68.46-9.54 20.34 0 40.27 2.76 59.55 8.27 19.29 5.72 38.35 13.34 57.01 23.3 0-25.85-3.18-82.42-9.54-170.13-6.36-87.72-9.54-152.34-9.54-193.87v-20.34c0-39.83-.85-71.19-2.54-94.07-1.91-22.67-5.3-39.62-10.17-50.42-5.09-10.81-11.02-16.32-18.02-16.32-5.3 0-10.59 1.06-15.89 2.97-5.3 1.9-8.9 2.96-10.59 2.96zm-139.24 564.22c-22.45 12.93-38.98 27.76-50.22 44.28-11.23 16.74-16.74 37.08-16.74 61.02 0 29.88 2.97 54.67 8.9 74.58 5.72 19.92 17.8 39.41 36.03 58.9 18.22 19.28 37.51 32.84 58.06 40.68 20.56 7.84 45.14 11.87 73.97 11.87 19.29 0 36.66-4.45 51.92-13.56s25.43-22.88 30.3-41.32c5.09-18.43 9.54-37.29 13.36-56.99 3.81-19.49 5.72-36.44 5.72-50.43 0-18.64-2.96-36.23-8.48-52.12-5.51-16.1-18.65-36.44-39.2-60.59-20.56-24.37-51.29-36.44-92.41-36.44-23.94 0-47.89 6.78-71.21 20.12z"/><path d="m2537.95 1121.07c0-18.23 9.95-30.73 30.09-37.93 20.13-6.99 42.18-10.59 66.34-10.59-9.97 51.06-15.05 102.12-15.05 153.18 0 25.85 1.27 49.58 4.02 71.4 2.54 21.61 5.51 38.78 8.69 51.06 3.19 12.29 7.21 18.44 11.87 18.44 8.27-1.7 14.2-2.55 17.59-2.55 3.6 0 5.72 1.28 6.14 3.61-12.71 13.98-30.08 24.36-52.13 31.14-21.82 6.78-40.05 12.29-54.67 16.32 2.75-12.29 5.51-26.28 8.47-42.17 2.76-15.68 4.24-29.66 4.24-41.95 0-13.56-1.06-25.85-3.18-36.86-46.83 54.87-78.83 90.68-96 107.2-17.17 16.74-40.69 25-70.57 25-11.23 0-25.65-3.6-43.87-11.01-18.02-7.21-31.36-20.34-39.84-39.41-8.47-18.86-12.72-42.38-12.72-70.55 0-13.35 1.06-33.9 3.4-61.24 2.33-27.54 3.39-47.67 3.39-60.59 0-15.68-1.27-29.24-3.83-40.26 0-8.26-5.72-12.29-17.16-12.29-2.33 0-4.23 0-5.72 0-1.27 0-2.75.43-3.81.85 10.38-10.38 24.36-21.19 41.75-31.99 17.37-10.81 32.85-17.59 46.83-20.55 1.06 8.26 1.7 16.31 1.7 24.57v24.58c0 12.71-.64 34.11-1.91 64.2-1.27 30.08-1.91 46.4-1.91 48.73 0 22.67 1.06 42.16 3.18 58.05 1.91 16.11 5.93 34.11 11.87 54.03 5.72 19.7 19.5 29.66 41.32 29.66 15.27 0 43.66-16.1 84.98-48.3 41.33-32.42 62.1-86.87 62.1-163.78 0-5.09 0-10.38-.21-15.26-.21-5.08-1.27-14.83-2.97-29.45z"/><path d="m2801.8 1072.97h29.88c18.65 0 33.7 1.91 44.72 5.72s20.34 11.87 27.97 24.15c-2.33 13.99-6.36 21.19-12.08 21.19-2.96 0-11.86-7.2-26.7-21.19-14.83-13.98-25.22-20.97-31.16-20.97-18.43 0-34.32 3.18-47.04 9.75-12.93 6.35-21.83 15.67-26.7 27.75-4.87 11.87-7.43 22.25-7.43 31.15 0 15.25 5.1 30.08 15.27 44.49s33.06 26.27 68.67 36.02c35.59 9.74 56.15 22.67 62.09 39.19 5.72 16.32 8.68 29.67 8.68 39.62 0 12.29-2.75 24.16-8.26 35.6-5.72 11.44-14.2 23.73-25.44 37.08-11.44 13.13-23.3 23.52-35.59 31.14-12.3 7.63-26.28 11.44-41.96 11.44-11.24 0-22.68-2.33-34.76-7.2-11.87-4.66-20.77-12.29-26.7-23.09-5.73-14.84-9.96-25.43-12.29-32 5.93 0 17.37 5.3 34.75 16.11 17.17 10.8 28.18 16.95 33.27 18.43 4.88 1.48 13.14 2.33 25.01 2.33 9.32 0 18.22-1.91 27.13-5.72 8.69-3.82 16.1-10.17 21.82-19.28 5.93-9.11 8.9-19.07 8.9-29.66 0-8.69-3.39-18.44-10.17-29.03s-29.67-22.04-68.88-34.32c-39.19-12.29-60.82-26.28-65.27-41.74-4.44-15.68-7.41-28.39-9.32-38.35-1.69-9.96-2.54-18.01-2.54-23.73 0-16.53 4.87-33.27 14.83-50.22 9.96-17.16 20.13-30.51 30.31-40.04 10.17-9.75 23.3-14.62 38.99-14.62z"/><path d="m3117.57 1074.88c8.7-2.97 18.44-4.45 28.82-4.45 11.23 0 22.05 2.54 32.85 7.41 10.81 4.88 28.83 18.86 54.04 41.95 25.01 22.89 41.54 69.29 49.6 139.21 7.84 69.7 14.41 114.62 19.71 134.32l29.67 15.05c-6.36 4.02-15.9 6.78-28.4 8.68-12.5 1.7-25.23 2.55-38.15 2.55-7.63 0-15.26 0-22.88 0-7.64 0-14.84-.43-21.84-.85 10.6 0 18.01-3.6 22.26-10.6 4.45-6.99 6.57-15.89 6.57-26.9 0-7.63-.43-15.68-1.48-24.16-1.06-8.47-1.91-16.52-2.34-23.94-2.33-5.72-6.15-8.47-11.45-8.47-5.93 0-12.07 2.54-18.43 7.84-23.95 25.42-51.71 47.03-83.5 65.25-31.58 18.22-61.46 27.33-89.43 27.33-16.53 0-32.85-4.02-49.17-12.28-16.53-8.06-29.24-18.01-38.36-29.88-9.11-11.65-13.56-26.48-13.56-44.7 0-17.38 4.87-33.06 14.83-46.83 9.97-13.77 24.59-25.85 43.45-36.23 19.07-10.59 40.91-19.28 65.91-25.85 24.8-6.78 50.01-10.17 75.66-10.17 13.56 0 25.85.85 36.87 2.55 11.23 1.48 22.89 4.44 35.18 8.89 5.3-5.29 7.84-11.65 7.84-19.28 0-4.66-1.69-10.59-5.3-17.58-3.39-6.99-10.17-21.82-20.13-44.71-9.96-22.67-36.02-34.11-77.99-34.11-19.28 0-35.81 4.03-49.59 12.29-13.77 8.26-31.79 21.61-54.04 39.83 9.54-21.61 22.67-40.47 39.63-56.14 16.95-15.89 37.94-27.97 63.15-36.02zm73.33 165.89c-17.59-7.62-36.88-11.44-57.85-11.44-26.92 0-52.13 5.72-75.87 17.38-23.53 11.65-39.42 24.36-47.26 37.92-7.84 13.77-11.87 24.37-11.87 31.99 0 9.33 2.33 17.8 6.99 25.64 4.67 7.84 13.56 18.43 26.7 31.36 13.15 13.13 29.46 19.7 48.75 19.7 5.72 0 17.59-2.12 35.38-6.14 17.81-4.03 41.33-17.38 70.15-40.05 29.04-22.67 43.45-44.91 43.45-66.31 0-4.03-1.06-9.11-2.97-14.83-2.12-5.94-5.93-10.6-11.44-13.99s-13.56-7.2-24.16-11.23z"/></g><g fill="#dddad6"><path d="m1302.21 533.69v9.53c-14.62 1.28-25.64 3.82-32.85 7.84-7.41 4.03-13.35 9.33-18.01 16.32 0 72.46 6.15 158.06 18.44 256.37 12.28 98.3 24.58 198.31 37.08 300.22 12.5 101.7 18.87 188.99 18.87 261.45 5.72 2.97 12.5 6.15 19.92 9.32 7.62 3.18 13.56 5.72 18.23 7.42-10.39 2.54-21.84 4.45-34.12 5.51-12.09 1.06-24.38 1.48-36.67 1.48-8.69 0-21.62-.21-38.78-.42-17.17-.21-29.46-.43-37.09-.43-2.33-4.02 2.76-8.89 15.04-13.98 12.3-5.3 19.93-9.96 22.9-14.2 2.96-4.02 4.87-8.89 5.72-14.4.84-5.51 1.27-14.41 1.27-26.7 0-71.82-3.6-141.95-11.02-209.97-7.2-68.01-17.59-138.77-31.15-212.08-13.35-73.52-26.5-144.71-39.42-213.57l-19.29 20.98c-24.58 54.45-55.52 124.79-92.61 211.45-37.3 86.44-71.85 166.95-104.05 241.96-32.22 74.79-65.91 151.48-100.88 230.51h-6.15c-29.25-78.39-64.64-171.19-105.75-278.4-41.33-107.21-74.59-195.13-99.6-263.57-25.23-68.43-50.02-141.11-74.6-217.8l-9.75-12.29c-12.93 17.58-23.1 36.86-30.73 58.05-7.63 20.98-19.92 67.8-37.3 140.05-17.16 72.46-32 133.9-44.29 184.54s-25.86 111.66-40.9 182.85c-14.83 71.19-25.86 131.57-32.85 181.36 1.27 5.72 6.35 9.32 15.47 10.38 8.9 1.27 12.08 6.15 9.11 14.83h-130.96l35.17-48.3c19.71-68.01 48.54-159.76 86.26-275.23s67.17-207.21 88.16-275.43c20.97-68.44 40.26-139.41 57.85-213.15-2.33-9.74-7.42-16.95-15.25-21.61-8.06-4.87-23.32-7.2-46.2-7.2 15.25-11.44 30.93-20.34 47.04-26.91s33.06-9.75 51.29-9.75h9.53c4.66 1.28 8.27 1.7 10.6 1.7 4.67 6.57 9.33 13.77 13.99 21.61s15.68 32.84 32.85 74.79c17.37 41.74 39.84 104.88 67.6 189.42 27.76 84.32 55.1 167.16 82.01 248.74 26.92 81.36 54.26 155.09 82.45 221.4l20.97-28.18c35.61-78.81 73.12-161.66 112.33-248.95 38.99-87.08 74.17-168.65 105.11-244.5 30.94-75.64 58.07-151.06 81.59-226.28 8.06-3.6 17.59-6.14 27.98-7.63 10.59-1.48 23.52-2.12 38.57-2.12 5.93 0 11.86.43 18.02 1.49 6.14 1.06 12.5 1.48 18.85 1.48z"/><path d="m1549.74 1074.39c15.26-9.96 31.58-14.83 49.17-14.83 18.65 0 36.87 4.45 54.68 13.14 17.8 8.9 38.99 21.61 63.57 38.56-18.64 21.82-55.1 55.51-109.35 101.48-54.04 45.98-86.68 74.8-97.91 86.45 12.29 18.64 27.34 34.11 44.93 45.98 17.38 12.07 33.06 18.85 46.83 20.76 13.78 1.69 24.16 2.54 31.37 2.54 15.69 0 29.03-2.12 39.84-6.57 10.81-4.23 36.03-18.64 75.23-43.01-12.28 15.68-22.89 28.18-31.57 37.29-8.9 9.11-18.23 15.05-28.18 18.44-9.97 3.17-27.56 9.74-52.99 19.7s-44.51 14.83-57.43 14.83c-8.26 0-14.2-.42-18.02-1.27-3.81-.85-15.04-5.72-33.69-14.2-18.86-8.47-38.14-26.06-58.28-52.54-20.34-26.7-31.16-48.73-33.06-66.32-1.7-17.58-2.55-29.87-2.55-36.86 0-34.11 10.17-63.56 30.31-88.35 20.13-25 49.17-50.01 87.1-75.22zm53.62 30.93c-11.66-7.62-25.01-11.44-39.63-11.44-25.85 0-47.05 10.6-63.58 32-16.32 21.4-24.58 45.76-24.58 73.3 0 26.91 8.26 53.18 24.79 79.03 25.23-15.89 54.25-39.4 87.1-70.76 32.86-31.15 54.89-51.28 66.13-59.96-5.3-8.27-11.45-15.05-18.44-20.77-7.21-5.5-17.59-12.71-31.79-21.4z"/><path d="m2044.58 530.72c16.96 2.55 33.91 4.03 50.87 4.03h36.88 29.03c9.32 0 19.5.21 30.52 1.06-11.02 2.33-20.35 4.45-27.98 6.57s-12.29 7.41-13.98 16.31c0 69.07-.64 134.33-1.7 195.56s-2.33 135.18-3.39 221.83c0 73.95 1.27 138.14 4.03 192.6 2.54 54.45 7.62 113.56 15.25 177.54 3.39 8.27 7.2 14.62 11.45 19.29 4.03 4.66 9.75 8.26 17.38 10.59 5.93 1.69 13.77-1.27 23.74-8.9 9.74-7.84 18.01-9.96 24.36-6.36-9.32 12.93-18.43 23.73-27.54 32.63-9.12 8.69-19.29 13.14-30.31 13.14-6.36 0-13.78-2.76-21.83-8.05-7.21-13.77-14.2-23.52-21.61-29.24-7.21-5.72-15.06-8.48-23.11-8.48-9.96 0-26.07 7-48.32 20.98s-39.84 20.98-52.55 20.98c-9.97 0-19.93 0-29.88 0-9.96 0-19.51 0-29.04 0-21.61 0-39.42-1.28-53.83-4.03-14.41-2.54-31.36-10.17-51.28-23.09-19.93-12.93-36.45-30.94-49.6-54.24-13.13-23.31-19.7-48.74-19.7-76.07 0-18.22 3.81-41.1 11.44-69.28 7.63-27.97 24.37-52.33 50.43-73.31 26.07-21.18 53.84-34.74 83.71-41.31 29.89-6.36 52.57-9.54 68.46-9.54 20.35 0 40.27 2.76 59.56 8.27 19.28 5.72 38.35 13.34 57 23.3 0-25.85-3.18-82.42-9.53-170.13-6.36-87.72-9.54-152.34-9.54-193.87v-20.34c0-39.83-.85-71.19-2.54-94.07-1.92-22.67-5.31-39.62-10.18-50.42-5.09-10.81-11.02-16.32-18.01-16.32-5.3 0-10.59 1.06-15.9 2.97-5.3 1.9-8.9 2.96-10.59 2.96zm-139.23 564.22c-22.46 12.93-38.99 27.76-50.22 44.28-11.24 16.74-16.75 37.08-16.75 61.02 0 29.88 2.97 54.67 8.9 74.58 5.73 19.92 17.81 39.41 36.03 58.9 18.23 19.28 37.51 32.84 58.07 40.68 20.55 7.84 45.14 11.87 73.97 11.87 19.28 0 36.66-4.45 51.92-13.56 15.25-9.11 25.43-22.88 30.3-41.32 5.09-18.43 9.54-37.29 13.35-56.99 3.81-19.49 5.72-36.44 5.72-50.43 0-18.64-2.96-36.23-8.47-52.12-5.51-16.1-18.66-36.44-39.21-60.59-20.56-24.37-51.28-36.44-92.4-36.44-23.95 0-47.9 6.78-71.21 20.12z"/><path d="m2537.96 1107.66c0-18.23 9.95-30.73 30.08-37.93 20.14-6.99 42.18-10.59 66.34-10.59-9.96 51.06-15.04 102.12-15.04 153.18 0 25.85 1.27 49.58 4.02 71.4 2.54 21.61 5.51 38.78 8.69 51.06 3.18 12.29 7.2 18.44 11.86 18.44 8.27-1.7 14.21-2.55 17.6-2.55 3.6 0 5.72 1.28 6.14 3.61-12.72 13.98-30.09 24.36-52.14 31.14-21.82 6.78-40.05 12.29-54.67 16.32 2.75-12.29 5.51-26.28 8.47-42.17 2.76-15.68 4.24-29.66 4.24-41.95 0-13.56-1.06-25.85-3.18-36.86-46.83 54.87-78.83 90.68-96 107.2-17.16 16.74-40.69 25-70.57 25-11.23 0-25.64-3.6-43.87-11.01-18.01-7.21-31.36-20.34-39.84-39.41-8.47-18.86-12.71-42.38-12.71-70.55 0-13.35 1.06-33.9 3.39-61.24 2.33-27.54 3.39-47.67 3.39-60.59 0-15.68-1.27-29.24-3.82-40.26 0-8.26-5.72-12.29-17.16-12.29-2.34 0-4.24 0-5.73 0-1.27 0-2.75.43-3.81.85 10.39-10.38 24.37-21.19 41.75-31.99 17.38-10.81 32.85-17.59 46.83-20.55 1.06 8.26 1.71 16.31 1.71 24.57v24.58c0 12.71-.65 34.11-1.92 64.2-1.27 30.08-1.91 46.4-1.91 48.73 0 22.67 1.06 42.16 3.18 58.05 1.92 16.11 5.94 34.11 11.88 54.03 5.72 19.7 19.49 29.66 41.32 29.66 15.26 0 43.66-16.1 84.98-48.3 41.33-32.42 62.09-86.87 62.09-163.78 0-5.09 0-10.38-.21-15.26-.21-5.08-1.27-14.83-2.97-29.45z"/><path d="m2801.8 1059.56h29.89c18.64 0 33.7 1.91 44.71 5.72 11.02 3.81 20.34 11.87 27.98 24.15-2.33 13.99-6.37 21.19-12.09 21.19-2.96 0-11.86-7.2-26.69-21.19-14.84-13.98-25.23-20.97-31.16-20.97-18.44 0-34.33 3.18-47.04 9.75-12.94 6.35-21.84 15.67-26.71 27.75-4.87 11.87-7.42 22.25-7.42 31.15 0 15.25 5.09 30.08 15.26 44.49 10.18 14.41 33.06 26.27 68.67 36.02 35.6 9.74 56.15 22.67 62.1 39.19 5.72 16.32 8.68 29.67 8.68 39.62 0 12.29-2.75 24.16-8.26 35.6-5.73 11.44-14.21 23.73-25.44 37.08-11.44 13.13-23.31 23.52-35.6 31.14-12.29 7.63-26.28 11.44-41.96 11.44-11.23 0-22.68-2.33-34.76-7.2-11.86-4.66-20.76-12.29-26.7-23.09-5.73-14.84-9.96-25.43-12.29-32 5.93 0 17.38 5.3 34.75 16.11 17.17 10.8 28.19 16.95 33.28 18.43 4.87 1.48 13.13 2.33 25 2.33 9.33 0 18.23-1.91 27.13-5.72 8.69-3.82 16.11-10.17 21.83-19.28 5.93-9.11 8.9-19.07 8.9-29.66 0-8.69-3.39-18.44-10.17-29.03-6.79-10.59-29.67-22.04-68.88-34.32-39.2-12.29-60.83-26.28-65.28-41.74-4.44-15.68-7.41-28.39-9.32-38.35-1.69-9.96-2.54-18.01-2.54-23.73 0-16.53 4.87-33.27 14.83-50.22 9.97-17.16 20.14-30.51 30.31-40.04 10.17-9.75 23.31-14.62 38.99-14.62z"/><path d="m3117.58 1061.47c8.69-2.97 18.43-4.45 28.82-4.45 11.23 0 22.04 2.54 32.84 7.41 10.82 4.88 28.83 18.86 54.05 41.95 25 22.89 41.54 69.29 49.59 139.21 7.84 69.7 14.41 114.62 19.71 134.32l29.67 15.05c-6.36 4.02-15.89 6.78-28.39 8.68-12.51 1.7-25.23 2.55-38.15 2.55-7.64 0-15.27 0-22.89 0-7.63 0-14.83-.43-21.84-.85 10.61 0 18.02-3.6 22.26-10.6 4.45-6.99 6.57-15.89 6.57-26.9 0-7.63-.43-15.68-1.48-24.16-1.06-8.47-1.91-16.52-2.34-23.94-2.33-5.72-6.14-8.47-11.44-8.47-5.93 0-12.08 2.54-18.44 7.84-23.94 25.42-51.71 47.03-83.5 65.25-31.58 18.22-61.45 27.33-89.43 27.33-16.52 0-32.85-4.02-49.16-12.28-16.54-8.06-29.25-18.01-38.36-29.88-9.11-11.65-13.56-26.48-13.56-44.7 0-17.38 4.87-33.06 14.83-46.83s24.59-25.85 43.44-36.23c19.07-10.59 40.91-19.28 65.92-25.85 24.79-6.78 50.01-10.17 75.66-10.17 13.56 0 25.84.85 36.86 2.55 11.24 1.48 22.89 4.44 35.18 8.89 5.3-5.29 7.84-11.65 7.84-19.28 0-4.66-1.69-10.59-5.3-17.58-3.39-6.99-10.17-21.82-20.12-44.71-9.96-22.67-36.03-34.11-77.99-34.11-19.29 0-35.82 4.03-49.59 12.29-13.78 8.26-31.79 21.61-54.05 39.83 9.55-21.61 22.68-40.47 39.63-56.14 16.96-15.89 37.94-27.97 63.16-36.02zm73.33 165.89c-17.6-7.62-36.88-11.44-57.86-11.44-26.91 0-52.13 5.72-75.87 17.38-23.52 11.65-39.42 24.36-47.26 37.92-7.84 13.77-11.87 24.37-11.87 31.99 0 9.33 2.33 17.8 6.99 25.64 4.67 7.84 13.56 18.43 26.71 31.36 13.14 13.13 29.46 19.7 48.74 19.7 5.72 0 17.59-2.12 35.39-6.14 17.8-4.03 41.33-17.38 70.15-40.05 29.03-22.67 43.45-44.91 43.45-66.31 0-4.03-1.06-9.11-2.97-14.83-2.12-5.94-5.94-10.6-11.45-13.99s-13.56-7.2-24.15-11.23z"/></g></g></svg>