<?xml version="1.0" encoding="UTF-8"?>
<!DOCTYPE svg PUBLIC "-//W3C//DTD SVG 1.1//EN" "http://www.w3.org/Graphics/SVG/1.1/DTD/svg11.dtd">
<!-- Creator: CorelDRAW -->
<svg xmlns="http://www.w3.org/2000/svg" xml:space="preserve" width="44.2937mm" height="16.8093mm" version="1.1" shape-rendering="geometricPrecision" text-rendering="geometricPrecision" image-rendering="optimizeQuality" fill-rule="evenodd" clip-rule="evenodd"
viewBox="0 0 4429.38 1680.93"
 xmlns:xlink="http://www.w3.org/1999/xlink"
 xmlns:xodm="http://www.corel.com/coreldraw/odm/2003">
 <defs>
   <linearGradient id="id0" gradientUnits="userSpaceOnUse" x1="2157.89" y1="411.81" x2="2370.73" y2="1417">
    <stop offset="0" stop-opacity="1" stop-color="#EE2020"/>
    <stop offset="0.4" stop-opacity="1" stop-color="#F66A20"/>
    <stop offset="1" stop-opacity="1" stop-color="#FFB41F"/>
   </linearGradient>
   <linearGradient id="id1" gradientUnits="userSpaceOnUse" x1="2157.89" y1="411.81" x2="2370.73" y2="1417">
    <stop offset="0" stop-opacity="1" stop-color="#EE2020"/>
    <stop offset="0.4" stop-opacity="1" stop-color="#F66A20"/>
    <stop offset="1" stop-opacity="1" stop-color="#FFB41F"/>
   </linearGradient>
   <linearGradient id="id2" gradientUnits="userSpaceOnUse" x1="2157.89" y1="411.81" x2="2370.73" y2="1417">
    <stop offset="0" stop-opacity="1" stop-color="#EE2020"/>
    <stop offset="0.4" stop-opacity="1" stop-color="#F66A20"/>
    <stop offset="1" stop-opacity="1" stop-color="#FFB41F"/>
   </linearGradient>
   <linearGradient id="id3" gradientUnits="userSpaceOnUse" x1="2157.89" y1="411.81" x2="2370.73" y2="1417">
    <stop offset="0" stop-opacity="1" stop-color="#EE2020"/>
    <stop offset="0.4" stop-opacity="1" stop-color="#F66A20"/>
    <stop offset="1" stop-opacity="1" stop-color="#FFB41F"/>
   </linearGradient>
   <linearGradient id="id4" gradientUnits="userSpaceOnUse" x1="2157.89" y1="411.81" x2="2370.73" y2="1417">
    <stop offset="0" stop-opacity="1" stop-color="#EE2020"/>
    <stop offset="0.4" stop-opacity="1" stop-color="#F66A20"/>
    <stop offset="1" stop-opacity="1" stop-color="#FFB41F"/>
   </linearGradient>
   <linearGradient id="id5" gradientUnits="userSpaceOnUse" x1="2157.89" y1="411.81" x2="2370.73" y2="1417">
    <stop offset="0" stop-opacity="1" stop-color="#EE2020"/>
    <stop offset="0.4" stop-opacity="1" stop-color="#F66A20"/>
    <stop offset="1" stop-opacity="1" stop-color="#FFB41F"/>
   </linearGradient>
   <linearGradient id="id6" gradientUnits="userSpaceOnUse" x1="2157.89" y1="411.81" x2="2370.73" y2="1417">
    <stop offset="0" stop-opacity="1" stop-color="#EE2020"/>
    <stop offset="0.4" stop-opacity="1" stop-color="#F66A20"/>
    <stop offset="1" stop-opacity="1" stop-color="#FFB41F"/>
   </linearGradient>
   <linearGradient id="id7" gradientUnits="userSpaceOnUse" x1="2157.89" y1="411.81" x2="2370.73" y2="1417">
    <stop offset="0" stop-opacity="1" stop-color="#EE2020"/>
    <stop offset="0.4" stop-opacity="1" stop-color="#F66A20"/>
    <stop offset="1" stop-opacity="1" stop-color="#FFB41F"/>
   </linearGradient>
 </defs>
 <g id="Lights">
  <metadata id="CorelCorpID_0Corel-Layer"/>
  <path id="Monsters_x0020_Lit" fill="url(#id0)" fill-rule="nonzero" d="M77.69 1180.66c-1.84,-5.96 -3.35,-11.72 -4.53,-17.25 -1.17,-5.54 -2.62,-11.02 -4.35,-16.44 -5.76,-19.03 -10.08,-38.06 -12.97,-57.12 -2.87,-19.06 -7.47,-38.04 -13.79,-56.95 -3.1,-9.18 -6.86,-18.07 -11.29,-26.67 -4.43,-8.61 -8.75,-17.39 -12.96,-26.33 -4.21,-8.94 -7.86,-18 -10.96,-27.18 -3.1,-9.17 -5.15,-18.86 -6.16,-29.06 -0.68,-11.43 2.71,-20.67 10.18,-27.75 7.47,-7.08 16.67,-12.78 27.61,-17.12 10.94,-4.35 22.31,-8.06 34.1,-11.13 11.79,-3.08 21.38,-6.26 28.78,-9.57 10.06,-4.44 21.01,-7.34 32.87,-8.69 11.86,-1.36 23.69,-0.82 35.49,1.6 11.8,2.42 22.81,6.59 33.03,12.52 10.23,5.94 18.94,13.63 26.15,23.1 6.43,8.48 14.47,17.76 24.14,27.86 9.66,10.1 19.97,19.2 30.95,27.29 10.96,8.08 22.5,14.75 34.6,20 12.11,5.24 23.82,7.25 35.13,6.01 10.19,-1 18.29,-5.17 24.25,-12.5 5.97,-7.35 10.76,-16.17 14.36,-26.47 3.59,-10.31 6.81,-21.11 9.62,-32.41 2.82,-11.3 5.89,-21.35 9.23,-30.16 3.35,-8.8 7.77,-20.01 13.28,-33.61 5.5,-13.6 11.67,-23.44 18.48,-29.5 4.51,-3.28 9.3,-5.3 14.34,-6.08 5.04,-0.78 10.2,-1 15.48,-0.68 5.27,0.34 10.44,0.83 15.5,1.5 5.05,0.66 9.74,0.24 14.06,-1.24 9.73,-3.22 18.69,-8.74 26.87,-16.54 8.18,-7.8 18.64,-13.05 31.38,-15.75 5.53,-1.17 11.69,-2.19 18.45,-3.05 6.76,-0.85 13.53,-0.98 20.3,-0.39 6.78,0.59 13.18,2.12 19.21,4.61 6.02,2.49 11.06,6.48 15.13,11.99 9.13,13.1 15.4,27.68 18.8,43.73 3.4,16.05 5.73,32.49 6.97,49.28 1.25,16.8 2.35,33.64 3.32,50.49 0.97,16.86 3.86,32.59 8.69,47.19 3.34,10.28 7.19,19.58 11.56,27.92 4.36,8.33 7.17,18.15 8.41,29.46 2.01,20.39 4.44,41.42 7.29,63.08 2.85,21.67 6.89,42.08 12.1,61.22 3.02,11.51 6.81,22.57 11.36,33.17 4.57,10.6 8.99,21.23 13.27,31.9 4.29,10.66 8.19,21.55 11.7,32.66 3.51,11.12 5.72,22.93 6.64,35.47 1.39,14.74 0.81,29.76 -1.74,45.05 -2.54,15.29 -8.08,28.75 -16.61,40.39 -6.22,8.84 -13.02,17.08 -20.37,24.71 -7.35,7.62 -13.13,16.52 -17.35,26.66 -4.97,12.04 -7.96,24.54 -8.99,37.47 -1.02,12.95 -2.23,25.64 -3.65,38.09 -0.65,10.55 -2.14,20.56 -4.48,30.02 -2.34,9.46 -2.67,19.5 -0.99,30.14 1.79,11.19 4.32,21.79 7.6,31.79 3.28,10.01 6.08,20.56 8.43,31.62 1.76,8.31 4.09,17.22 6.97,26.73 2.88,9.51 3.42,18.21 1.63,26.12 -1.6,6.12 -5.32,9.07 -11.15,8.87 -5.82,-0.22 -10.71,-2.79 -14.66,-7.74 -3.94,-4.95 -6.47,-10.79 -7.6,-17.49 -1.13,-6.7 -2.07,-13.16 -2.8,-19.36 -1.12,-10.75 -3.6,-21.07 -7.43,-30.96 -3.83,-9.89 -7.85,-19.3 -12.05,-28.26 -4.1,-8.38 -7.55,-17.2 -10.38,-26.43 -2.82,-9.24 -6.72,-17.38 -11.69,-24.42 -2.6,-4.08 -5.36,-7.54 -8.27,-10.39 -2.93,-2.86 -5.96,-6.26 -9.11,-10.23 -2.6,-4.07 -5.78,-8.17 -9.54,-12.29 -3.77,-4.12 -6.79,-8.83 -9.07,-14.14 -2.05,-4.18 -3.85,-8.57 -5.4,-13.16 -1.55,-4.59 -3.07,-9.04 -4.57,-13.36 -2.39,-5.85 -4.06,-10.99 -5,-15.43 -0.94,-4.42 -3.32,-8.83 -7.14,-13.23 -9.46,-11.88 -16.48,-23.84 -21.06,-35.89 -4.57,-12.04 -8.38,-24.54 -11.41,-37.49 -3.04,-12.95 -5.82,-26.1 -8.35,-39.45 -2.54,-13.34 -6.72,-26.92 -12.54,-40.72 -4.68,-11.17 -8.39,-22.52 -11.12,-34.09 -2.75,-11.57 -4.79,-23.28 -6.15,-35.15 -0.85,-6.76 -2.01,-15.62 -3.47,-26.59 -1.45,-10.97 -5.47,-18.36 -12.06,-22.17 -5.81,-2.83 -10.28,-2.75 -13.41,0.23 -3.13,2.98 -5.41,7.22 -6.85,12.73 -1.43,5.52 -2.33,11.49 -2.71,17.93 -0.37,6.44 -1.04,11.49 -2,15.17 -3.24,17.46 -5.95,33.37 -8.11,47.71 -2.17,14.34 -8.45,28.4 -18.84,42.16 -3.29,3.59 -5.14,7.16 -5.54,10.72 -0.4,3.56 -1.25,7.78 -2.53,12.68 -2.43,10.35 -7.25,18.31 -14.46,23.89 -7.21,5.57 -15.99,7.14 -26.34,4.71 -12.13,-2.64 -21.81,-9.41 -29.04,-20.32 -7.22,-10.91 -13.74,-21.82 -19.52,-32.74 -2.83,-5.18 -5.56,-10.53 -8.17,-16.06 -2.62,-5.52 -6.39,-10.35 -11.32,-14.52 -1.35,-0.87 -3.5,-2.15 -6.46,-3.84 -2.96,-1.68 -6.17,-3.18 -9.63,-4.47 -3.45,-1.29 -6.74,-1.75 -9.84,-1.38 -3.1,0.37 -4.85,2.32 -5.25,5.88 -2.21,11.46 -1.59,22.6 1.87,33.44 3.46,10.84 6.91,21.68 10.36,32.51 2.66,9.85 4.5,19.88 5.5,30.07 1.01,10.21 2.01,20.4 3.01,30.61 0.88,9.64 2.85,18.92 5.89,27.82 3.05,8.89 6.06,17.66 9.04,26.28 2.99,8.62 4.94,17.18 5.87,25.66 0.93,8.47 -1.06,16.13 -5.99,22.96 -2.3,2.79 -4.59,5.59 -6.89,8.39 -2.3,2.8 -4.26,5.83 -5.89,9.06 -2.18,3.36 -3.06,6.72 -2.64,10.1 0.43,3.38 0.1,6.63 -0.97,9.75 -1.95,4.46 -3.77,7.45 -5.48,8.97 -1.7,1.52 -5.06,1.36 -10.08,-0.47 -2.56,-1.19 -5.02,-3.27 -7.39,-6.24 -2.37,-2.97 -4.98,-5.74 -7.84,-8.32 -2.86,-2.58 -5.71,-4.43 -8.56,-5.56 -2.85,-1.14 -6.03,-0.46 -9.55,2.02 -4.39,3.82 -6.27,10.01 -5.62,18.55 0.65,8.53 2.42,17.56 5.31,27.07 2.88,9.52 6.15,18.8 9.8,27.86 3.66,9.06 5.89,15.53 6.71,19.4 1.06,4.98 1.37,9.83 0.92,14.56 -0.44,4.72 -0.76,9.41 -0.93,14.07 -0.16,4.67 0.42,9.46 1.75,14.38 1.33,4.93 1.36,9.84 0.09,14.74 -1.6,6.12 -4.3,10.45 -8.1,12.99 -3.81,2.54 -8.39,2.07 -13.76,-1.43 -5.92,-3.37 -9.51,-8.69 -10.75,-15.94 -1.25,-7.25 -2.52,-13.93 -3.81,-20.02 -2.34,-11.07 -4.1,-22.12 -5.28,-33.16 -1.18,-11.02 -6.05,-21.7 -14.6,-32.04 -9.58,-12.43 -18.87,-24.2 -27.88,-35.31 -9.01,-11.1 -18.73,-22.21 -29.18,-33.3 -5.29,-5.82 -9.58,-11.71 -12.86,-17.67 -3.29,-5.95 -6.86,-12.57 -10.71,-19.86 -7.05,-14.13 -13.01,-28.62 -17.9,-43.49 -4.89,-14.88 -9.52,-29.94 -13.92,-45.21 -2.19,-7.63 -3.36,-15.2 -3.5,-22.69 -0.14,-7.48 0,-15.04 0.41,-22.65 0.41,-7.6 0.72,-15.04 0.92,-22.31 0.19,-7.27 -0.54,-14.78 -2.18,-22.54 -2.52,-17.39 -5.22,-34.89 -8.08,-52.51 -2.87,-17.61 -6.73,-35.16 -11.59,-52.65z"/>
  <path id="_1" fill="url(#id1)" fill-rule="nonzero" d="M732.62 1121.82c-8.33,-20.22 -12.07,-41.26 -11.21,-63.13 0.87,-21.88 2.29,-43.15 4.27,-63.81 1.39,-15.34 2.29,-30.86 2.73,-46.57 0.43,-15.71 1.28,-31.51 2.54,-47.39 1.35,-18.22 4.53,-35.95 9.56,-53.22 5.02,-17.25 13.56,-32.94 25.61,-47.06 17.76,-19.96 37.93,-35.37 60.51,-46.22 22.58,-10.85 46.21,-19.47 70.9,-25.86 22.02,-5.24 44.71,-9.46 68.04,-12.67 23.33,-3.21 45.93,0.4 67.81,10.8 12.28,6.08 23.55,13.53 33.81,22.34 10.25,8.82 21.03,16.67 32.32,23.53 13.18,7.62 25.17,16.36 35.94,26.23 10.76,9.87 21.59,20.02 32.47,30.43 20.44,19.97 37.45,39.51 51.04,58.61 13.59,19.1 24.7,42.2 33.34,69.3 7.26,23.33 12.96,46.13 17.09,68.39 4.14,22.27 6.18,45.55 6.12,69.86 0.09,8.65 -0.21,18.11 -0.93,28.39 -0.71,10.28 -1.58,19.85 -2.59,28.75 -1.56,9 -4.43,17.99 -8.6,26.98 -4.18,8.98 -7.71,17.54 -10.62,25.67 -4.53,11.38 -10.88,22.41 -19.02,33.1 -8.15,10.69 -17.29,19.42 -27.43,26.2 -5.5,4.06 -11.39,7.03 -17.64,8.94 -6.24,1.9 -12.5,3.8 -18.75,5.7 -6.25,1.9 -12.46,3.94 -18.66,6.12 -6.19,2.18 -11.76,5.24 -16.71,9.18 -4.96,3.95 -10.81,9.09 -17.56,15.44 -6.76,6.34 -11.34,12.08 -13.72,17.21 -3.57,7.7 -4.37,17.56 -2.41,29.58 1.97,12.01 4.45,22.34 7.43,30.97 2.28,5.3 4.39,10.49 6.33,15.57 1.95,5.09 2.96,10.51 3.02,16.28 0.38,4.55 0.22,9.21 -0.51,13.99 -0.72,4.78 -0.89,9.45 -0.5,14 0.73,6.2 2.12,13.43 4.15,21.68 2.03,8.23 3.66,16.57 4.87,24.99 1.2,8.42 1.63,16.57 1.27,24.46 -0.35,7.88 -2.94,14.07 -7.78,18.56 -7.25,6.75 -13.2,8.01 -17.86,3.78 -4.65,-4.21 -8.64,-10.74 -11.96,-19.58 -3.32,-8.85 -5.97,-17.98 -7.97,-27.39 -1.99,-9.41 -3.68,-15.99 -5.05,-19.75 -3.8,-12.49 -7.53,-24.58 -11.16,-36.25 -3.62,-11.67 -7.9,-23.63 -12.8,-35.89 -4.56,-10.61 -8.22,-21.69 -10.96,-33.26 -2.73,-11.57 -6.94,-22.54 -12.61,-32.91 -1.81,-3.08 -4.37,-6.3 -7.68,-9.64 -3.31,-3.35 -7.03,-5.9 -11.16,-7.62 -4.13,-1.73 -8.19,-2.46 -12.18,-2.19 -3.99,0.26 -7.58,2.47 -10.75,6.61 -2.3,2.79 -3.34,6.78 -3.11,11.94 0.22,5.16 0.67,10.7 1.35,16.63 0.68,5.93 1.6,11.66 2.78,17.2 1.17,5.54 1.82,10.02 1.98,13.46 0.38,23.64 1.06,46.64 2.03,68.99 0.97,22.35 1.92,45.28 2.86,68.8 0.02,2.89 -0.04,5.94 -0.23,9.17 -0.19,3.21 -0.84,6.25 -1.98,9.08 -1.14,2.85 -2.86,4.95 -5.18,6.31 -2.31,1.36 -5.59,1.61 -9.81,0.77 -6.79,-2.03 -11.62,-7.07 -14.49,-15.15 -2.87,-8.07 -5.51,-15.03 -7.9,-20.88 -4.21,-8.95 -8.3,-18.05 -12.3,-27.34 -3.99,-9.27 -7.65,-19.06 -10.98,-29.34 -2.32,-8.19 -4.22,-16.46 -5.7,-24.82 -1.49,-8.36 -3.66,-16.58 -6.52,-24.65 -5.53,-17.91 -12.76,-33.6 -21.68,-47.03 -8.92,-13.45 -18.67,-25.99 -29.24,-37.63 -10.56,-11.65 -21.69,-23.17 -33.36,-34.58 -11.68,-11.41 -23.03,-24.05 -34.07,-37.91 -7.76,-9.34 -13.9,-19.19 -18.4,-29.51 -4.5,-10.33 -9.31,-20.73 -14.42,-31.22 -5.23,-11.03 -11.35,-21.45 -18.34,-31.26 -6.99,-9.79 -12.89,-20.55 -17.68,-32.26zm220.28 -90.89c-2.09,12.01 -0.42,22.64 5.02,31.91 5.44,9.26 12.28,15.62 20.53,19.08 8.25,3.45 16.58,3.14 24.96,-0.95 8.4,-4.09 14.39,-14.04 17.99,-29.84 4.15,-15.92 3.56,-28.95 -1.77,-39.1 -5.33,-10.15 -12.32,-16.48 -20.95,-18.99 -8.64,-2.52 -17.44,-1.08 -26.43,4.29 -8.99,5.38 -15.39,15.41 -19.22,30.1 0.23,1.11 0.24,1.83 0.02,2.17 -0.22,0.33 -0.27,0.78 -0.15,1.33z"/>
  <path id="_2" fill="url(#id2)" fill-rule="nonzero" d="M1268.62 972.75c-2.29,-16.28 -4,-32.55 -5.12,-48.8 -1.13,-16.24 -4.78,-32.1 -10.95,-47.57 -4.24,-11.83 -7.29,-23.48 -9.14,-34.94 -1.84,-11.47 -4.34,-23.23 -7.47,-35.29 -3.02,-11.51 -5.22,-22.61 -6.63,-33.31 -1.4,-10.69 -3.32,-21.86 -5.78,-33.48 -2.12,-9.97 -5.68,-20.63 -10.69,-32.01 -5.02,-11.38 -6.91,-22.39 -5.71,-33.07 1.13,-8.33 5.24,-15.56 12.33,-21.69 7.09,-6.13 15.28,-11.19 24.56,-15.18 9.28,-3.99 19.04,-7.06 29.28,-9.23 10.25,-2.17 18.87,-3.14 25.86,-2.88 8.11,0.02 15.86,0.4 23.25,1.15 7.39,0.75 14.78,3.52 22.15,8.33 4.83,3.6 9.37,7.99 13.64,13.16 4.28,5.17 8.82,9.56 13.64,13.16 9.99,8.88 20.51,16.92 31.58,24.12 11.07,7.2 21,16.52 29.79,27.97 3.27,4.51 5.63,9.5 7.08,14.98 1.45,5.48 4.09,10.42 7.92,14.81 3.81,4.39 8.03,8.57 12.63,12.51 4.59,3.95 9.01,7.77 13.28,11.5 4.14,3.17 9.24,8.16 15.32,14.98 6.07,6.81 12.38,12.7 18.94,17.68 6.54,4.98 12.69,8.02 18.41,9.12 5.73,1.09 10.33,-2.47 13.79,-10.73 1.51,-3.79 1.87,-8.21 1.1,-13.25 -0.78,-5.03 -1.89,-10.3 -3.34,-15.78 -1.46,-5.47 -3.04,-10.92 -4.77,-16.34 -1.72,-5.42 -3.01,-10.07 -3.83,-13.94 -1.08,-7.87 -3.45,-19.08 -7.12,-33.63 -3.66,-14.56 -6.55,-29.56 -8.67,-45.02 -2.12,-15.46 -2.55,-29.83 -1.32,-43.1 1.24,-13.28 6.21,-22.58 14.92,-27.89 7.61,-5.08 16.03,-9.03 25.27,-11.86 9.24,-2.82 18.04,-6.28 26.44,-10.37 8.39,-4.09 16.74,-7.73 25.02,-10.94 8.29,-3.2 17.26,-5.24 26.91,-6.13 27.17,-2.86 48.21,7.72 63.14,31.75 4.41,7.17 7.21,14.24 8.4,21.21 1.18,6.99 3.1,13.96 5.73,20.92 1.73,5.42 3.38,9.84 4.97,13.26 1.6,3.42 3.03,6.74 4.28,9.94 1.26,3.21 2.43,6.72 3.54,10.53 1.09,3.82 2.17,8.22 3.22,13.2 1.92,11.74 3.66,23.38 5.23,34.91 1.57,11.52 4.2,23.25 7.89,35.2 4.16,14.15 7.76,28.44 10.81,42.83 3.04,14.39 6.1,28.79 9.14,43.18 2.82,13.29 6.73,24.9 11.73,34.83 4.99,9.93 8.28,21.39 9.87,34.35 1.75,16.4 5.4,32.98 10.98,49.73 5.57,16.75 10.6,33.04 15.12,48.86 8.52,26.54 11.14,52.59 7.88,78.16 -1.22,10.67 -1.2,21.65 0.04,32.96 1.24,11.31 0.7,22.41 -1.63,33.31 -2.08,12.01 -5.23,23.81 -9.42,35.4 -4.2,11.59 -7.83,23.79 -10.91,36.58 -2.64,12.14 -3.28,24.13 -1.93,35.98 1.36,11.87 0.17,23.98 -3.58,36.35 -2.67,9.23 -4.41,17.41 -5.22,24.52 -0.8,7.12 -0.22,15.38 1.78,24.79 1.52,7.2 4.13,14.02 7.81,20.47 3.68,6.45 6.9,13.44 9.64,20.95 3.43,7.96 4.29,16.15 2.62,24.61 -1.69,8.46 -5.5,14.32 -11.46,17.61 -5.96,3.29 -12.2,1.86 -18.7,-4.28 -3.48,-2.74 -5.96,-6.26 -7.45,-10.58 -1.49,-4.3 -2.62,-8.98 -3.41,-14.02 -0.77,-5.04 -1.52,-9.94 -2.24,-14.71 -0.73,-4.76 -1.49,-9.09 -2.31,-12.96 -3.23,-9.72 -6.96,-18.48 -11.21,-26.26 -4.25,-7.78 -7.76,-16.87 -10.55,-27.27 -3.72,-14.83 -8.29,-28.9 -13.71,-42.21 -5.43,-13.32 -13.42,-25.79 -23.99,-37.44 -6.07,-6.81 -12.2,-11.15 -18.38,-13.02 -6.18,-1.88 -13.13,-4.6 -20.83,-8.17 -9.59,-4.34 -18.68,-10.37 -27.25,-18.09 -8.58,-7.73 -16.84,-15.96 -24.76,-24.7 -7.93,-8.74 -15.61,-17.66 -23.04,-26.79 -7.44,-9.12 -14.85,-17.53 -22.27,-25.22 -3.04,-3.41 -6,-7.84 -8.89,-13.3 -2.89,-5.46 -5.92,-10.89 -9.09,-16.3 -3.17,-5.4 -6.67,-10.3 -10.5,-14.69 -3.82,-4.4 -8.46,-7.18 -13.91,-8.33 -6.01,-1.05 -9.49,0.27 -10.44,3.94 -0.96,3.67 -0.72,8.25 0.73,13.73 1.46,5.47 3.34,11 5.69,16.58 2.34,5.58 3.96,9.14 4.86,10.69 5.23,11.03 9.94,22.32 14.12,33.88 4.19,11.55 6.18,23.71 6,36.48 0.05,13.87 -3.15,26.11 -9.58,36.73 -6.43,10.61 -12.34,22.28 -17.76,35 -3.01,7.58 -4.07,14.88 -3.17,21.92 0.92,7.04 2.16,14.29 3.75,21.77 1.58,7.47 3.03,14.97 4.34,22.51 1.31,7.53 1.06,15.25 -0.74,23.14 -1.39,4.35 -3.84,8.48 -7.36,12.4 -3.5,3.93 -8.31,5.1 -14.44,3.5 -3.68,-0.96 -7.14,-5 -10.38,-12.12 -3.25,-7.12 -5.89,-12.78 -7.94,-16.98 -2.71,-4.63 -5.68,-9.78 -8.91,-15.46 -3.24,-5.68 -6.76,-10.72 -10.58,-15.11 -3.83,-4.39 -8.31,-7.79 -13.43,-10.17 -5.14,-2.39 -11.03,-2.87 -17.67,-1.46 -3.33,0.7 -5.52,2.61 -6.6,5.73 -1.08,3.12 -2.07,6.65 -2.96,10.6 -0.9,3.95 -1.83,7.77 -2.79,11.44 -0.95,3.68 -3.04,6.14 -6.25,7.39 -3.64,1.93 -6.91,1.47 -9.83,-1.38 -2.92,-2.86 -5.26,-6.41 -7.03,-10.67 -1.77,-4.24 -3.43,-8.66 -4.98,-13.25 -1.55,-4.59 -2.84,-7.93 -3.86,-10.03 -4.76,-8.82 -10.4,-16.31 -16.9,-22.46 -6.52,-6.13 -13.64,-12.43 -21.37,-18.9 -11.99,-10.18 -19.17,-21.54 -21.54,-34.05 -2.35,-12.51 -4.23,-26.14 -5.62,-40.89 -1.18,-16.52 -2.72,-32.68 -4.63,-48.47 -1.89,-15.79 -5.99,-31.71 -12.27,-47.73 -5.62,-15.58 -11.48,-30.97 -17.6,-46.16 -6.11,-15.2 -10.31,-30.94 -12.61,-47.23z"/>
  <path id="_3" fill="url(#id3)" fill-rule="nonzero" d="M1785.86 665.41c-1.4,-6.64 -3.02,-14.25 -4.83,-22.83 -1.82,-8.58 -3.42,-17.5 -4.8,-26.76 -1.38,-9.24 -2.26,-18.17 -2.64,-26.76 -0.38,-8.6 0.46,-16.3 2.5,-23.09 6.32,-19.28 16.6,-35.62 30.82,-49.05 14.23,-13.42 30.43,-24.37 48.59,-32.85 18.16,-8.46 37.3,-15.12 57.39,-19.96 20.09,-4.82 39.34,-8.9 57.73,-12.22 8.42,-1.2 17.44,-1.66 27.04,-1.38 9.61,0.27 19.08,1.3 28.43,3.09 9.34,1.78 18.33,3.92 26.96,6.43 8.63,2.52 16.69,5 24.15,7.47 8.69,2.79 17.02,5.22 24.98,7.3 7.96,2.07 15.23,5.01 21.83,8.83 5.13,2.37 9.61,5.05 13.41,8 3.81,2.96 8,5.68 12.58,8.18 5.02,1.83 10,2.8 14.94,2.91 4.94,0.11 9.64,1.14 14.1,3.09 4.36,1.4 8.71,4.23 13.09,8.51 4.38,4.28 7.87,8.45 10.47,12.53 6.97,8.36 9.98,18.43 9,30.19 -0.6,5.35 -1.83,10.52 -3.66,15.53 -1.82,5.02 -3.94,10.09 -6.31,15.23 -2.39,5.12 -4.64,10.23 -6.74,15.31 -2.12,5.06 -3.13,10.49 -3.07,16.26 -0.22,9.88 0.63,19.38 2.57,28.52 1.93,9.14 2.52,18.71 1.74,28.7 -0.4,3.55 -1.8,7.18 -4.21,10.87 -2.4,3.69 -6.26,5.23 -11.6,4.62 -4.23,-0.84 -7.33,-3.22 -9.32,-7.13 -1.99,-3.92 -4.17,-7.37 -6.53,-10.33 -3.5,-5.63 -6.1,-8.98 -7.77,-10.07 -1.68,-1.1 -5.74,-1.82 -12.18,-2.19 -4.79,-0.73 -8.46,-1.68 -11.03,-2.87 -2.56,-1.2 -5.03,-3.28 -7.39,-6.25 -6.98,-8.35 -15.04,-16.34 -24.18,-23.95 -9.12,-7.6 -18.86,-13.93 -29.18,-18.98 -10.33,-5.05 -21.13,-8.25 -32.41,-9.62 -11.28,-1.37 -22.57,0 -33.84,4.13 -10.72,4.01 -17.19,9.71 -19.38,17.11 -2.19,7.41 1.59,15 11.34,22.77 7.96,7.56 18.12,12.5 30.47,14.8 12.35,2.3 23.64,4.4 33.88,6.28 13.67,1.73 25.39,5.18 35.16,10.34 9.77,5.16 20.25,10.9 31.42,17.2 12.52,7.19 24.92,14.55 37.22,22.06 12.3,7.52 23.61,16.55 33.94,27.09 4.81,3.6 9.16,7.75 13.05,12.42 3.88,4.67 7.73,9.2 11.56,13.6 5.52,6.93 10.85,14.33 15.98,22.22 5.15,7.87 10.75,15.21 16.83,22.03 7.99,10.45 16.31,19.68 24.95,27.68 8.64,8.01 14.43,18.94 17.36,32.77 2.35,11.07 2.72,21.7 1.11,31.87 -1.61,10.17 -2.74,20.53 -3.4,31.09 -0.42,11.66 -1.66,22.91 -3.69,33.75 -2.05,10.85 -4.29,21.44 -6.72,31.79 -2.68,9.24 -4.84,18.81 -6.51,28.71 -1.66,9.9 -4.72,19.37 -9.16,28.4 -4.34,9.6 -8.14,19.66 -11.4,30.18 -3.27,10.53 -7.07,20.59 -11.4,30.18 -4.31,12.48 -6.54,23.08 -6.72,31.79 -0.18,8.71 -0.31,19.73 -0.38,33.05 0.04,2.89 0.28,7.47 0.74,13.73 0.46,6.27 -0.52,10.52 -2.94,12.76 -2.97,2.37 -5.65,3.38 -8.03,3.01 -2.4,-0.36 -4.52,-1.5 -6.37,-3.42 -1.86,-1.92 -3.63,-4.15 -5.32,-6.69 -1.7,-2.53 -3,-4.56 -3.91,-6.11 -2.71,-4.63 -4.71,-9.27 -5.98,-13.92 -1.27,-4.65 -3.77,-8.88 -7.47,-12.73 -4.26,-3.73 -8.42,-5.6 -12.47,-5.6 -4.05,-0.01 -7.98,1.25 -11.78,3.79 -3.8,2.54 -7.01,5.82 -9.63,9.85 -2.62,4.02 -4.62,8.21 -6.02,12.55 -2.78,8.7 -3.79,17.58 -3.03,26.68 0.77,9.09 0.92,18.02 0.47,26.79 -0.89,9.45 -2.55,17.31 -4.98,23.61 -2.42,6.3 -4.76,13.74 -6.99,22.31 -2.23,8.58 -2.17,17.09 0.21,25.55 2.36,8.46 4.71,16.79 7.02,24.98 5.18,16.26 7.98,33.59 8.42,52.01 -0.29,4.11 -1.1,8.47 -2.43,13.1 -1.34,4.62 -5.11,7.29 -11.32,8.04 -5.78,0.06 -9.51,-1.89 -11.23,-5.87 -1.71,-3.98 -3.58,-8.07 -5.63,-12.26 -3.77,-9.61 -5.78,-19.75 -6,-30.4 -0.23,-10.65 -1.24,-21.57 -3.04,-32.76 -1.67,-10.64 -4.34,-21.2 -8.02,-31.71 -3.66,-10.5 -7.12,-20.61 -10.33,-30.35 -0.47,-2.21 -1.43,-6.05 -2.88,-11.53 -1.45,-5.48 -3.21,-11.76 -5.3,-18.84 -2.07,-7.08 -4.32,-14.27 -6.73,-21.57 -2.42,-7.29 -5.15,-14.08 -8.22,-20.37 -7.48,-13.47 -14.98,-18.82 -22.5,-16.07 -2.53,1.7 -4.15,3.62 -4.84,5.8 -0.71,2.17 -1.51,4.51 -2.42,7.02 -0.92,2.5 -2.2,4.66 -3.85,6.46 -1.64,1.79 -4.52,2.54 -8.63,2.25 -6.88,0.3 -12.07,-2.36 -15.57,-7.97 -3.51,-5.63 -7.02,-11.25 -10.52,-16.87 -4.73,-5.94 -9.24,-12.21 -13.54,-18.83 -4.29,-6.61 -9.3,-12.49 -15.01,-17.64 -7.18,-6.57 -14.83,-12.62 -22.94,-18.14 -8.11,-5.51 -16.25,-11.16 -24.42,-16.95 -10.42,-8.21 -19.72,-15.93 -27.9,-23.16 -8.19,-7.23 -16.56,-16.02 -25.11,-26.35 -7.77,-9.35 -16.24,-17.24 -25.42,-23.68 -9.17,-6.45 -17.43,-14.68 -24.76,-24.7 -5.28,-5.82 -10.37,-12.11 -15.27,-18.89 -4.91,-6.77 -8.25,-14.31 -10.01,-22.61 -1.41,-6.65 -0.64,-13.31 2.28,-20 2.91,-6.7 6.93,-13.04 12.02,-19.03 5.1,-6 10.62,-11.37 16.56,-16.09 5.94,-4.74 11.44,-8.79 16.51,-12.18 9.7,-6.1 19.46,-11.2 29.3,-15.31 9.83,-4.1 19.99,-8.72 30.48,-13.83 3.76,-1.37 7.59,-3.78 11.49,-7.21 3.91,-3.42 8.11,-6.78 12.63,-10.04 4.52,-3.27 9.01,-5.96 13.48,-8.06 4.47,-2.1 9.1,-2.8 13.88,-2.07 6.68,1.48 12.27,6.65 16.74,15.54 4.49,8.88 8.77,16.07 12.83,21.58 2.35,2.97 4.51,6.27 6.43,9.91 1.93,3.64 4.08,6.95 6.44,9.93 7.33,10 16.69,17.28 28.06,21.82 11.37,4.53 23.08,3.79 35.1,-2.23 10.49,-5.12 17.83,-12.16 22,-21.15 4.18,-8.98 5.78,-18.43 4.84,-28.35 -0.94,-9.93 -3.72,-19.6 -8.32,-29.04 -4.6,-9.44 -10.5,-17.45 -17.68,-24.02 -2.79,-2.3 -6.32,-4.59 -10.56,-6.87 -4.25,-2.28 -7.77,-4.58 -10.57,-6.88 -4.03,-2.62 -6.94,-4.75 -8.73,-6.39 -1.8,-1.65 -3.61,-2.7 -5.45,-3.18 -1.83,-0.48 -3.92,-0.77 -6.26,-0.86 -2.32,-0.08 -5.49,0.01 -9.48,0.28 -10.44,-0.11 -21.12,-0.01 -32.05,0.28 -10.93,0.29 -21.95,0.17 -33.07,-0.37 -4.65,-0.18 -7.8,-0.67 -9.42,-1.48 -1.61,-0.81 -2.96,-1.68 -4.02,-2.61 -1.07,-0.94 -2.3,-1.98 -3.71,-3.12 -1.4,-1.16 -4.05,-2.76 -7.96,-4.83 -3.79,-1.51 -6.77,-2.61 -8.94,-3.31 -2.18,-0.7 -4.09,-0.87 -5.76,-0.52 -1.65,0.35 -3.42,0.87 -5.3,1.55 -1.89,0.7 -4.54,1.11 -7.99,1.27 -7.98,0.53 -17.52,1.24 -28.61,2.15 -11.09,0.9 -20.99,-0.04 -29.67,-2.83 -5.14,-2.38 -8.61,-5.11 -10.42,-8.2 -1.81,-3.1 -3.27,-6.54 -4.36,-10.36 -1.1,-3.82 -2.12,-7.94 -3.05,-12.37 -0.94,-4.42 -3.05,-8.89 -6.32,-13.42 -9.02,-12.54 -16.7,-23.5 -23.02,-32.86 -6.33,-9.36 -11.19,-22.07 -14.59,-38.13z"/>
  <path id="_4" fill="url(#id4)" fill-rule="nonzero" d="M2267.02 568.74c-1.6,-4.86 -4.26,-9.22 -7.97,-13.06 -3.71,-3.84 -6.86,-7.8 -9.46,-11.88 -2.6,-4.08 -4.79,-8.96 -6.58,-14.65 -1.78,-5.7 -3.7,-10.65 -5.74,-14.85 -4.68,-11.15 -8.45,-22.79 -11.3,-34.91 -2.85,-12.12 -5.64,-24.55 -8.34,-37.28 -3.64,-17.17 -2.21,-28.88 4.27,-35.17 6.48,-6.29 18.04,-9.75 34.69,-10.38 6.32,-0.19 12.49,0.24 18.49,1.28 6.01,1.04 12.04,2.23 18.11,3.55 6.07,1.31 12.02,2.08 17.85,2.29 5.83,0.21 11.94,-0.94 18.35,-3.46 5.31,-2.27 9.41,-5.45 12.31,-9.54 2.9,-4.08 7.27,-7.33 13.12,-9.72 7.4,-3.3 15.57,-5.03 24.5,-5.19 8.94,-0.15 17.4,-0.5 25.39,-1.04 14.08,-1.82 27.44,-2.92 40.1,-3.28 12.65,-0.36 25.43,-4.23 38.33,-11.59 9.81,-5.54 20.38,-8.93 31.69,-10.17 11.3,-1.24 22.63,-1.76 33.96,-1.56 11.32,0.21 22.81,0.52 34.47,0.95 11.66,0.42 23.03,-0.54 34.11,-2.89 12.73,-2.69 24.15,-6.85 34.24,-12.45 10.1,-5.62 21.63,-9.21 34.6,-10.8 12.42,-1.47 23.8,-3.73 34.14,-6.79 10.35,-3.06 21.32,-7.27 32.91,-12.61 11.05,-5.24 21.83,-8.96 32.36,-11.19 10.51,-2.22 21.3,-0.46 32.35,5.29 12.29,6.08 21.08,12.76 26.38,20.02 5.3,7.27 9.07,17.6 11.34,31 1.9,11.74 4.35,23.95 7.32,36.63 2.98,12.67 4.86,24.99 5.66,36.98 1.5,23.4 2.53,46.02 3.11,67.89 0.57,21.85 4.44,44.17 11.58,66.95 3.33,10.28 7.23,21.17 11.69,32.67 4.46,11.49 6.14,22.85 5.05,34.07 -0.61,5.33 -2.91,10.88 -6.89,16.64 -3.99,5.76 -8.6,10.64 -13.82,14.64 -5.23,4 -10.12,6.19 -14.67,6.58 -4.54,0.38 -7.41,-2.19 -8.58,-7.73l-0.18 -0.83c-1.64,-7.75 -4.32,-14.26 -8.05,-19.56 -3.71,-5.28 -6.89,-11.41 -9.52,-18.36 -2.64,-6.97 -5.9,-12.79 -9.78,-17.46 -3.88,-4.67 -7.2,-10.77 -9.95,-18.28 -4.58,-13.5 -10.23,-23.72 -16.91,-30.7 -6.69,-6.96 -13.51,-11.16 -20.45,-12.58 -6.96,-1.42 -13.98,-0.37 -21.03,3.15 -7.07,3.52 -13.62,8.81 -19.65,15.88 -4.6,5.59 -8.66,11.66 -12.19,18.19 -3.54,6.53 -6.14,14.02 -7.83,22.49 -4.84,23.58 -4.94,46.3 -0.31,68.17 4.63,21.86 9.02,43.93 13.16,66.19 2.93,13.84 5.11,27.55 6.54,41.13 1.43,13.59 3.42,27.05 5.95,40.39 2.54,13.35 5.63,26.57 9.27,39.68 3.65,13.11 8.82,25.9 15.51,38.37 6.58,11.91 12.85,25.19 18.85,39.82 5.99,14.64 7.07,29.3 3.25,44 -2.68,9.24 -7.49,17.21 -14.47,23.89 -6.97,6.68 -11.91,14.09 -14.82,22.22 -1.72,5.58 -2.4,11.21 -2.05,16.92 0.34,5.72 1.4,11.42 3.18,17.12 1.79,5.69 3.57,11.38 5.36,17.09 1.78,5.69 2.98,11.37 3.61,17.02 0.61,5.65 0.85,12.25 0.72,19.8 -0.13,7.55 -2.01,13.73 -5.61,18.54 -3.29,3.59 -6.66,5.46 -10.1,5.61 -3.44,0.15 -6.7,-0.9 -9.78,-3.14 -3.08,-2.24 -6.03,-5.23 -8.84,-8.97 -2.82,-3.74 -4.86,-7.21 -6.11,-10.42 -2.28,-5.3 -3.68,-10.49 -4.18,-15.6 -0.5,-5.1 -0.7,-10.12 -0.58,-15.06 0.11,-4.94 0.19,-10.01 0.24,-15.24 0.05,-5.21 -0.51,-10.59 -1.68,-16.12 -0.94,-4.43 -2.51,-7.72 -4.7,-9.85 -2.18,-2.15 -4.52,-4.98 -7,-8.51 -3.82,-4.39 -6.66,-9.57 -8.5,-15.54 -1.85,-5.98 -5.4,-10.43 -10.64,-13.37 -6.71,-4.36 -10.59,-3.54 -11.64,2.47 -1.03,6 -0.98,13.8 0.19,23.38 1.17,9.59 2.77,19.23 4.82,28.91 2.05,9.69 2.82,16.04 2.29,19.04 -1.32,10.11 -2.89,21.15 -4.69,33.1 -1.82,11.95 -1.05,23.07 2.29,33.35 3.8,12.5 8.2,23.72 13.2,33.65 5,9.93 8.19,22.28 9.58,37.02 0.41,7.43 0.43,13.64 0.04,18.64 -0.39,5 -1.82,11.23 -4.29,18.7 -2.35,8.02 -2.94,14.79 -1.76,20.32 1.17,5.54 3.19,12.35 6.06,20.41 1.48,4.32 3.06,10.35 4.7,18.1 1.64,7.75 2.17,15.02 1.58,21.78 -0.59,6.78 -2.87,11.75 -6.83,14.9 -3.96,3.15 -10.3,1.9 -19.03,-3.78 -4.69,-3.05 -8.24,-7.5 -10.64,-13.36 -2.39,-5.86 -4.33,-12.24 -5.8,-19.17 -1.46,-6.92 -2.79,-13.86 -3.97,-20.85 -1.19,-6.97 -3.15,-12.77 -5.87,-17.41 -3.62,-6.17 -6.43,-11.94 -8.43,-17.3 -2,-5.36 -3.27,-12.03 -3.81,-20.01 -0.54,-8 -0.93,-16.01 -1.19,-24.05 -0.26,-8.04 -0.65,-16.05 -1.19,-24.05 -0.18,-6.32 -0.57,-13.61 -1.15,-21.87 -0.6,-8.27 -3.26,-15.37 -7.99,-21.31 -6.43,-8.47 -13.21,-16.57 -20.34,-24.32 -7.14,-7.74 -15.41,-14.67 -24.8,-20.78 -7.93,-4.69 -16.22,-8.28 -24.85,-10.79 -8.63,-2.51 -16.53,-7.05 -23.71,-13.64 -6.52,-6.13 -11.79,-13.26 -15.82,-21.38 -4.03,-8.11 -7.29,-16.67 -9.78,-25.69 -2.49,-9.02 -4.29,-18.17 -5.39,-27.49 -1.11,-9.31 -2.26,-18.17 -3.47,-26.6 -1.7,-13.52 -2.97,-26.99 -3.79,-40.41 -0.81,-13.42 -2.75,-27.32 -5.8,-41.72 -2.93,-13.84 -6.8,-27.34 -11.61,-40.48 -4.81,-13.16 -7.58,-26.89 -8.29,-41.2 -0.6,-13.76 -0.98,-27.85 -1.14,-42.27 -0.16,-14.43 -3.59,-27.87 -10.29,-40.35 -3.07,-6.29 -6.09,-13.02 -9.05,-20.2 -2.96,-7.18 -5.09,-13.82 -6.39,-19.91 -1.05,-4.98 -1.36,-10.56 -0.94,-16.72 0.43,-6.16 0.53,-12.55 0.29,-19.14 -0.24,-6.61 -1.23,-12.61 -2.95,-18.03 -1.73,-5.42 -5.21,-9.6 -10.47,-12.54 -7.15,-3.7 -12.84,-4.66 -17.1,-2.89 -4.26,1.77 -7.58,5.23 -9.96,10.35 -2.38,5.14 -3.79,10.79 -4.22,16.95 -0.43,6.17 -0.12,11.74 0.94,16.72 0.61,5.66 2.07,11.13 4.35,16.44 2.28,5.3 3.45,10.83 3.52,16.6 -0.17,4.66 -0.84,9.72 -1.99,15.17 -1.17,5.46 -2.38,10.63 -3.66,15.52 -1.16,5.46 -2.8,10.73 -4.9,15.79 -2.11,5.08 -4.08,10.13 -5.91,15.13 -2.58,6.92 -3.44,12.45 -2.56,16.6 0.88,4.15 1.53,9.94 1.95,17.38 -0.14,7.55 -2.01,13.72 -5.62,18.55 -3.61,4.81 -8.16,7.94 -13.64,9.38 -5.48,1.45 -10.92,1.02 -16.33,-1.31 -5.41,-2.32 -9.93,-6.58 -13.55,-12.75 -2.72,-4.63 -4.8,-9.68 -6.24,-15.16 -1.45,-5.48 -3.32,-10.87 -5.6,-16.17 -2.39,-5.85 -5.2,-10.9 -8.42,-15.13 -3.21,-4.24 -5.51,-9.68 -6.92,-16.32 -2.7,-12.74 -7.26,-23.35 -13.68,-31.82 -1.58,-1.98 -3.44,-3.89 -5.57,-5.76 -2.12,-1.86 -4.04,-4.06 -5.73,-6.6 -1.69,-2.53 -2.57,-5.24 -2.59,-8.12 -0.03,-2.88 -0.84,-5.32 -2.42,-7.3 -2.6,-4.08 -6.41,-7.03 -11.42,-8.86 -5.01,-1.83 -9.38,-4.67 -13.08,-8.51 -7.42,-7.69 -10.48,-18.03 -9.18,-31.03 -0.06,-5.77 0.79,-10.58 2.58,-14.43 1.79,-3.85 2.72,-8.38 2.77,-13.6 0.16,-4.66 -0.01,-10.27 -0.53,-16.81 -0.51,-6.54 -1.52,-11.97 -3.02,-16.28z"/>
  <path id="_5" fill="url(#id5)" fill-rule="nonzero" d="M2935.78 657.07c-1.13,-10.75 -2.14,-21.67 -3.04,-32.76 -0.9,-11.08 -2.8,-22.11 -5.7,-33.07 -2.44,-8.73 -5.11,-17.27 -8.04,-25.62 -2.92,-8.35 -5.26,-16.68 -7.02,-24.98 -1.29,-6.09 -2.73,-12.14 -4.29,-18.18 -1.56,-6.03 -2.5,-12.48 -2.8,-19.36 -2.21,-18.63 -3.31,-37.48 -3.3,-56.56 0.3,-12.22 -1.28,-24.47 -4.75,-36.75 -3.46,-12.28 -6.22,-24.56 -8.24,-36.86 -2.26,-13.4 -0.89,-24.68 4.11,-33.85 5.01,-9.15 12.85,-17.17 23.55,-24.07 8.59,-5.86 16.87,-11.81 24.85,-17.84 7.98,-6.03 16.9,-10.38 26.75,-13.04 9.84,-2.66 19.71,-4.61 29.57,-5.83 9.87,-1.22 19.67,-3.44 29.4,-6.65 9.18,-3.11 18.41,-6.65 27.69,-10.64 9.28,-3.99 18.91,-7.04 28.87,-9.15 11.08,-2.34 21.9,-4.49 32.49,-6.45 10.57,-1.95 21.59,-1.82 33.05,0.39 9.01,1.55 17.09,2.15 24.26,1.8 7.15,-0.36 14.05,-1.25 20.69,-2.65 6.65,-1.41 13.52,-3.15 20.59,-5.22 7.09,-2.09 15.05,-4.06 23.92,-5.94 17.16,-3.63 32.77,-3.03 46.81,1.81 14.04,4.83 26.06,12.41 36.06,22.72 10,10.32 17.55,22.75 22.65,37.29 5.1,14.54 7.63,29.91 7.6,46.11 -0.14,7.56 -1.61,14.95 -4.42,22.2 -2.8,7.24 -3.66,14.8 -2.57,22.67 0.54,7.98 1.49,15.88 2.85,23.69 1.36,7.81 -0.63,15.45 -5.98,22.96 -5.36,7.49 -11.89,11.48 -19.6,11.96 -7.71,0.47 -14.88,-2.64 -21.51,-9.33 -5.83,-5.71 -11.49,-10.59 -16.98,-14.63 -5.49,-4.04 -12.36,-7.79 -20.61,-11.26 -7.69,-3.57 -15.27,-5.15 -22.7,-4.74 -7.43,0.42 -14.8,1.84 -22.1,4.25 -7.3,2.42 -14.62,5.41 -21.96,8.99 -7.34,3.58 -14.49,6.68 -21.46,9.31 -3.21,1.27 -6.66,2 -10.38,2.2 -3.72,0.22 -7.58,0.45 -11.57,0.72 -3.99,0.27 -7.65,0.75 -10.97,1.46 -3.32,0.7 -6.19,2.18 -8.61,4.42 -2.86,2.92 -4.48,6.16 -4.88,9.71 -0.41,3.56 0.04,7.07 1.36,10.56 1.31,3.48 3.3,6.68 5.94,9.58 2.64,2.92 5.3,5.25 7.98,6.99 8.61,5.12 17.3,7.91 26.08,8.36 8.77,0.46 17.62,-0.11 26.54,-1.71 8.92,-1.6 17.92,-3.51 26.99,-5.72 9.08,-2.21 18.23,-3.42 27.44,-3.64 11.98,-0.8 21.37,2.57 28.17,10.09 6.81,7.53 12.07,16.68 15.8,27.46 3.73,10.78 6.3,22.23 7.72,34.37 1.41,12.13 3.05,22.63 4.93,31.5 1.87,8.85 4.21,18.48 6.99,28.88 2.78,10.4 1.77,19.3 -3.03,26.67 -4.37,6.71 -8.93,10.43 -13.7,11.15 -4.76,0.71 -9.41,-0.03 -13.93,-2.26 -4.52,-2.23 -9.21,-5.28 -14.09,-9.16 -4.87,-3.89 -9.54,-6.81 -14,-8.75 -3.79,-1.51 -8.49,-2.54 -14.11,-3.09 -5.61,-0.55 -11.39,-0.48 -17.32,0.19 -5.92,0.69 -11.38,2.27 -16.34,4.77 -4.97,2.5 -8.77,5.76 -11.38,9.78 -2.51,4.58 -3.5,9.42 -3,14.52 0.5,5.11 1.83,10.03 4,14.77 2.16,4.75 5.2,8.87 9.13,12.39 3.92,3.5 7.79,6.02 11.57,7.52 10.59,3.55 21.96,4.61 34.09,3.19 12.14,-1.4 23.33,-1.18 33.56,0.71 13.8,2.29 29.47,1.86 47.04,-1.29 17.55,-3.13 33.26,-6.17 47.1,-9.1 25.47,-5.39 40.85,4.36 46.12,29.28 2.47,11.62 5.5,24.58 9.1,38.85 3.6,14.28 6.38,28.73 8.32,43.36 1.94,14.63 2.38,28.99 1.32,43.1 -1.06,14.12 -5.36,26.59 -12.9,37.44 -3.49,5.36 -7.68,10.16 -12.57,14.38 -4.9,4.22 -9.88,8.02 -14.95,11.4 -4.07,2.6 -8.43,4.54 -13.08,5.81 -4.65,1.27 -8.47,3.09 -11.43,5.46 -10.02,7.33 -20.69,15.66 -32.03,25 -11.33,9.34 -20.42,19.65 -27.29,30.94 -5.01,9.16 -6.98,17.53 -5.96,25.13 1.03,7.59 0.49,15.94 -1.63,25.07 -2.67,9.24 -7.05,17.25 -13.14,24.03 -6.08,6.79 -11.52,13.87 -16.32,21.25 -3.49,5.36 -5.69,10.03 -6.58,13.97 -0.91,3.95 -1.08,7.9 -0.55,11.83 0.55,3.93 1.51,7.79 2.89,11.54 1.37,3.76 3.2,8.29 5.48,13.59 1.61,4.86 3.23,11.18 4.87,18.92 1.64,7.75 2.09,15.32 1.35,22.71 -0.75,7.39 -2.99,13.21 -6.72,17.48 -3.72,4.25 -9.93,4.99 -18.62,2.2 -4.9,-1.27 -8.68,-4.09 -11.34,-8.44 -2.66,-4.35 -4.65,-8.99 -5.99,-13.92 -1.32,-4.93 -2.13,-10.1 -2.42,-15.54 -0.28,-5.43 -0.55,-10.14 -0.82,-14.13 -0.64,-16.65 -2.88,-33.38 -6.73,-50.21 -3.86,-16.83 -8.65,-33.31 -14.38,-49.44 -2.75,-7.53 -5.83,-15.26 -9.26,-23.21 -3.42,-7.95 -6.01,-16.08 -7.77,-24.38 -1.17,-5.54 -1.52,-11.97 -1.05,-19.3 0.47,-7.34 -1.2,-13.2 -5.02,-17.59 -3.15,-3.97 -7.35,-6.7 -12.59,-8.18 -5.23,-1.5 -10.59,-2.25 -16.09,-2.24 -5.5,0.01 -11.19,0.49 -17.06,1.45 -5.87,0.94 -10.74,1.83 -14.62,2.65 -2.22,0.47 -3.63,2.65 -4.25,6.55 -0.62,3.89 -1,8.3 -1.1,13.24 -0.11,4.94 -0.01,9.55 0.31,13.81 0.34,4.28 0.68,7.24 1.03,8.91 1.64,7.74 3.52,14.57 5.64,20.49 2.12,5.91 3.17,12.93 3.16,21.02 -0.14,7.55 -0.81,15.35 -1.99,23.41 -1.18,8.06 -1.23,16.03 -0.15,23.89 0.94,4.44 1.96,9.28 3.08,14.54 1.11,5.25 1.87,10.16 2.25,14.7 0.39,4.55 -0.18,8.72 -1.69,12.52 -1.51,3.78 -4.7,6.48 -9.57,8.09 -7.52,2.75 -13.52,1.71 -18.01,-3.12 -4.51,-4.84 -8.02,-11.18 -10.55,-19.03 -2.53,-7.85 -4.23,-15.88 -5.1,-24.08 -0.87,-8.21 -1.49,-14.58 -1.88,-19.12 -1.59,-12.98 -3.73,-25.11 -6.4,-36.4 -2.69,-11.28 -6.98,-22.66 -12.88,-34.14 -3.97,-7.84 -8.81,-13.61 -14.52,-17.32 -5.7,-3.71 -12.9,-6.96 -21.59,-9.75 -8.69,-2.78 -17.02,-5.22 -24.98,-7.28 -7.95,-2.08 -15.1,-7.08 -21.39,-14.99 -11.05,-13.87 -18.32,-29.1 -21.84,-45.7 -3.52,-16.61 -5.93,-33.46 -7.23,-50.53 -1.43,-17.64 -3.79,-35.64 -7.11,-54.03 -3.31,-18.39 -8.11,-35.59 -14.4,-51.62 -4.57,-10.59 -7.57,-20.66 -9,-30.19 -1.44,-9.53 -2.84,-20.22 -4.19,-32.09z"/>
  <path id="_6" fill="url(#id6)" fill-rule="nonzero" d="M3428.48 565.76c-5.33,-19.69 -10.22,-39.34 -14.65,-58.93 -4.44,-19.6 -10.93,-38.61 -19.47,-57.05 -11.95,-26.38 -20.29,-54.12 -25,-83.2 -4.72,-29.09 -9.56,-58.13 -14.56,-87.16 -1.4,-6.64 -3.21,-14.5 -5.43,-23.58 -2.21,-9.08 -4.04,-18.38 -5.47,-27.91 -1.45,-9.53 -1.77,-18.57 -0.97,-27.12 0.78,-8.55 3.7,-15.97 8.73,-22.24 5.59,-6.38 14.06,-10.78 25.42,-13.19 11.35,-2.4 23.63,-3.85 36.83,-4.33 13.21,-0.48 26.1,-1.04 38.7,-1.68 12.59,-0.65 23.42,-2.8 32.49,-6.44 10.16,-3.89 20.15,-6.59 29.96,-8.08 9.8,-1.51 20.18,-3.71 31.14,-6.6 9.86,-2.67 19.58,-6.61 29.18,-11.82 9.6,-5.21 19.15,-9.98 28.64,-14.3 12.16,-5.47 25.21,-9.39 39.17,-11.77 13.97,-2.38 27.32,-3.48 40.09,-3.29 13.33,0.07 25.53,4.43 36.62,13.08 11.09,8.64 21.78,16.78 32.08,24.44 17.8,13 35.73,28.01 53.8,45.01 18.07,17 33.2,35.2 45.41,54.59 10.75,17.97 18.29,39.22 22.62,63.76 4.33,24.53 6.17,47.57 5.53,69.1 -0.23,9.88 -1.34,19.66 -3.33,29.35 -2,9.67 -4.34,19.13 -7.01,28.37 -1.8,7.91 -4.11,14.76 -6.93,20.56 -3.14,7.03 -6.88,14.62 -11.23,22.77 -4.35,8.14 -6.53,16.27 -6.55,24.37 0.02,11 3.01,20.34 8.97,28.04 5.97,7.7 13.24,14.7 21.81,20.98 8.56,6.28 17.59,12.04 27.09,17.25 9.49,5.23 18.26,10.46 26.32,15.69 6.83,4.92 13.67,9.25 20.54,13.01 6.87,3.75 13.44,8.14 19.71,13.17 5.49,4.05 9.81,8.77 12.99,14.18 3.16,5.4 7.22,10.17 12.15,14.34 3.71,3.84 7.96,6.84 12.76,9.02 4.79,2.16 9.11,5.44 12.93,9.84 7.54,8.24 13.3,17.71 17.31,28.43 4,10.73 4.3,21.65 0.87,32.79 -1.48,6.68 -4.41,12.65 -8.79,17.91 -4.38,5.26 -7.65,11.03 -9.79,17.27 -2.27,5.68 -3.7,11.91 -4.29,18.69 -0.59,6.77 -0.86,13.05 -0.79,18.82 0.13,11.53 2.16,23.12 6.06,34.72 3.9,11.61 4.81,23.42 2.73,35.43 -1.28,4.9 -2.78,9.41 -4.51,13.54 -1.73,4.13 -2.5,9.35 -2.32,15.67 -0.17,4.67 0.66,9.98 2.51,15.96 1.85,5.96 3.29,11.44 4.35,16.43 0.94,4.43 1.36,9.84 1.27,16.21 -0.1,6.39 -0.94,12.64 -2.54,18.77 -1.6,6.12 -4.04,11.7 -7.31,16.72 -3.26,5.04 -7.62,8.41 -13.03,10.14 -5.86,2.4 -10.36,1.61 -13.52,-2.34 -3.15,-3.96 -5.1,-9.05 -5.83,-15.25 -0.42,-7.44 -0.92,-14.56 -1.49,-21.38 -0.58,-6.82 -1.75,-14.38 -3.51,-22.68 -2.93,-13.85 -7.74,-26.99 -14.43,-39.46 -6.69,-12.47 -12.77,-24.77 -18.24,-36.92 -2.28,-5.31 -5.15,-9.32 -8.63,-12.06 -3.47,-2.74 -6.78,-6.08 -9.94,-10.04 -3.26,-4.52 -7.28,-10.47 -12.02,-17.84 -4.74,-7.39 -9.95,-13.52 -15.61,-18.39 -5.66,-4.87 -11.38,-7.28 -17.15,-7.21 -5.77,0.07 -11.32,5.29 -16.64,15.66 -2.39,5.14 -3.25,9.95 -2.59,14.43 0.67,4.49 -1.82,8.49 -7.44,11.99 -6.17,3.62 -11.82,2.94 -16.92,-2.05 -5.11,-4.99 -8.97,-9.53 -11.57,-13.6 -4.76,-8.83 -9.48,-16.79 -14.17,-23.91 -4.68,-7.1 -9.91,-14.67 -15.66,-22.71 -5.63,-7.48 -11.22,-15.41 -16.75,-23.78 -5.54,-8.38 -11.96,-16.13 -19.25,-23.26 -5.17,-5.26 -10.85,-9.56 -17.05,-12.88 -6.2,-3.3 -12.16,-7.54 -17.88,-12.69 -4.81,-3.61 -9.5,-7.96 -14.05,-13.08 -4.56,-5.11 -9.99,-7.57 -16.32,-7.39 -6.88,0.3 -11.32,2.54 -13.33,6.72 -2,4.19 -2.7,9.11 -2.07,14.76 0.61,5.66 2.12,11.41 4.51,17.26 2.41,5.86 4.23,10.39 5.49,13.59 4.56,10.61 8.85,22 12.88,34.16 4.01,12.16 3.21,24.04 -2.43,35.65 -1.95,4.46 -4.52,8.04 -7.7,10.74 -3.19,2.7 -6.75,5.05 -10.67,7.03 -3.91,1.99 -7.64,4.23 -11.17,6.7 -3.52,2.49 -6.65,5.46 -9.38,8.93 -3.5,5.37 -4.7,11.99 -3.61,19.86 1.09,7.86 2.28,14.84 3.57,20.93 1.64,7.75 2.4,14.1 2.29,19.04 -0.11,4.94 -1.73,10.92 -4.88,17.95 -2.7,6.36 -5.07,12.21 -7.12,17.56 -2.05,5.35 -2.65,11.4 -1.79,18.16 0.29,6.88 1.67,13.39 4.13,19.52 2.46,6.13 3.9,12.91 4.32,20.35 0.17,6.32 -0.03,12.87 -0.62,19.65 -0.59,6.77 -1.07,13.38 -1.44,19.82 -0.37,6.45 -0.38,13.25 -0.02,20.4 0.36,7.16 -0.32,13.52 -2.04,19.08 -2.26,5.69 -6.62,9.65 -13.09,11.88 -6.47,2.24 -12.39,1.61 -17.76,-1.87 -5.37,-3.49 -9.48,-8.55 -12.32,-15.18 -2.86,-6.63 -5.42,-12.59 -7.7,-17.89 -1.73,-5.42 -4.74,-11.44 -9.04,-18.05 -2.59,-4.07 -5.41,-7.82 -8.45,-11.22 -3.03,-3.41 -5.13,-7.88 -6.31,-13.42 -1.17,-5.53 -1.48,-11.1 -0.94,-16.71 0.55,-5.62 0.51,-11.24 -0.1,-16.9 -2.21,-18.63 -9.06,-34.52 -20.53,-47.71 -11.47,-13.19 -23.85,-25.9 -37.14,-38.13 -13.3,-12.22 -25.82,-24.9 -37.57,-38.03 -11.75,-13.13 -19.12,-29.5 -22.12,-49.11 -1.94,-14.63 -3.67,-29.59 -5.17,-44.89 -1.51,-15.3 -2.68,-30.38 -3.51,-45.24 -1.34,-19.97 -4.4,-39.86 -9.17,-59.67 -4.78,-19.81 -9.49,-39.35 -14.15,-58.61zm186.03 -203.37c0.59,2.77 0.97,6.6 1.14,11.48 0.16,4.88 1.03,8.3 2.61,10.29 3.82,4.39 8.41,4.86 13.75,1.42 5.35,-3.44 9.29,-6.01 11.83,-7.7 12.86,-10.25 17.9,-21.29 15.1,-33.14 -2.79,-11.84 -10.45,-21.36 -22.97,-28.54 -4.57,-2.5 -9.8,-3.27 -15.67,-2.33 -5.88,0.96 -10.01,4 -12.39,9.14 -3.26,6.47 -3.29,13.13 -0.1,19.97 3.17,6.85 5.41,13.32 6.7,19.41z"/>
  <path id="_7" fill="url(#id7)" fill-rule="nonzero" d="M3912.26 215.19c-1.41,-6.65 -3.02,-14.26 -4.84,-22.84 -1.82,-8.58 -3.42,-17.5 -4.8,-26.75 -1.37,-9.25 -2.25,-18.18 -2.63,-26.77 -0.38,-8.6 0.45,-16.3 2.49,-23.09 6.32,-19.28 16.6,-35.62 30.82,-49.05 14.23,-13.42 30.43,-24.37 48.59,-32.84 18.17,-8.47 37.3,-15.13 57.4,-19.97 20.09,-4.82 39.34,-8.9 57.72,-12.22 8.43,-1.2 17.44,-1.66 27.05,-1.38 9.61,0.28 19.08,1.31 28.42,3.09 9.35,1.78 18.34,3.93 26.97,6.43 8.63,2.52 16.68,5.01 24.14,7.47 8.69,2.79 17.02,5.22 24.98,7.3 7.97,2.07 15.24,5.01 21.83,8.83 5.14,2.38 9.61,5.05 13.41,8 3.81,2.96 8.01,5.68 12.59,8.18 5.02,1.83 10,2.8 14.94,2.91 4.94,0.11 9.63,1.14 14.1,3.09 4.35,1.4 8.7,4.23 13.09,8.51 4.37,4.28 7.86,8.46 10.46,12.54 6.98,8.35 9.98,18.42 9.01,30.19 -0.61,5.34 -1.84,10.51 -3.67,15.52 -1.82,5.02 -3.93,10.1 -6.31,15.23 -2.39,5.13 -4.63,10.23 -6.74,15.31 -2.11,5.07 -3.13,10.5 -3.06,16.27 -0.22,9.88 0.62,19.38 2.56,28.51 1.94,9.14 2.52,18.71 1.75,28.71 -0.41,3.55 -1.81,7.17 -4.22,10.86 -2.39,3.69 -6.26,5.23 -11.59,4.63 -4.24,-0.84 -7.34,-3.22 -9.32,-7.14 -2,-3.92 -4.17,-7.36 -6.54,-10.33 -3.5,-5.63 -6.09,-8.98 -7.77,-10.07 -1.68,-1.09 -5.74,-1.82 -12.18,-2.19 -4.78,-0.73 -8.46,-1.68 -11.02,-2.87 -2.57,-1.2 -5.03,-3.28 -7.4,-6.24 -6.97,-8.36 -15.03,-16.34 -24.17,-23.96 -9.13,-7.6 -18.86,-13.93 -29.18,-18.97 -10.34,-5.05 -21.14,-8.26 -32.42,-9.63 -11.28,-1.37 -22.56,0.01 -33.84,4.13 -10.72,4.01 -17.18,9.71 -19.38,17.12 -2.19,7.4 1.6,14.99 11.34,22.76 7.96,7.57 18.13,12.5 30.47,14.8 12.35,2.3 23.64,4.4 33.88,6.28 13.67,1.74 25.39,5.18 35.16,10.34 9.78,5.16 20.26,10.9 31.43,17.2 12.51,7.19 24.92,14.55 37.21,22.06 12.3,7.52 23.61,16.55 33.94,27.09 4.81,3.6 9.17,7.75 13.05,12.42 3.88,4.68 7.74,9.21 11.56,13.6 5.52,6.94 10.85,14.33 15.99,22.22 5.14,7.88 10.74,15.21 16.82,22.03 7.99,10.46 16.32,19.68 24.95,27.69 8.64,8 14.43,18.93 17.36,32.76 2.35,11.07 2.72,21.7 1.11,31.87 -1.61,10.18 -2.74,20.53 -3.39,31.09 -0.43,11.66 -1.66,22.91 -3.7,33.75 -2.05,10.85 -4.28,21.44 -6.72,31.79 -2.68,9.24 -4.84,18.81 -6.51,28.71 -1.66,9.9 -4.72,19.37 -9.16,28.41 -4.34,9.59 -8.14,19.65 -11.4,30.17 -3.27,10.53 -7.07,20.59 -11.4,30.19 -4.31,12.47 -6.54,23.07 -6.72,31.78 -0.18,8.72 -0.31,19.73 -0.38,33.06 0.04,2.88 0.28,7.46 0.74,13.72 0.46,6.27 -0.52,10.53 -2.94,12.77 -2.96,2.36 -5.64,3.37 -8.03,3 -2.4,-0.36 -4.52,-1.5 -6.37,-3.42 -1.86,-1.92 -3.63,-4.15 -5.32,-6.68 -1.69,-2.54 -2.99,-4.57 -3.9,-6.12 -2.72,-4.62 -4.72,-9.27 -5.99,-13.92 -1.27,-4.65 -3.76,-8.88 -7.47,-12.73 -4.26,-3.73 -8.41,-5.6 -12.46,-5.6 -4.06,-0.01 -7.99,1.25 -11.79,3.8 -3.79,2.54 -7.01,5.81 -9.63,9.84 -2.61,4.02 -4.62,8.21 -6.02,12.55 -2.78,8.7 -3.79,17.58 -3.03,26.68 0.77,9.09 0.92,18.02 0.47,26.79 -0.89,9.45 -2.55,17.32 -4.97,23.62 -2.43,6.3 -4.76,13.73 -7,22.3 -2.23,8.58 -2.16,17.09 0.21,25.55 2.37,8.46 4.71,16.79 7.02,24.98 5.18,16.26 7.99,33.59 8.42,52.01 -0.28,4.11 -1.1,8.47 -2.43,13.1 -1.34,4.62 -5.11,7.3 -11.32,8.04 -5.77,0.06 -9.51,-1.89 -11.22,-5.87 -1.71,-3.97 -3.59,-8.06 -5.64,-12.26 -3.77,-9.61 -5.77,-19.74 -6,-30.4 -0.23,-10.65 -1.24,-21.57 -3.04,-32.76 -1.67,-10.63 -4.34,-21.2 -8.02,-31.71 -3.66,-10.5 -7.11,-20.61 -10.33,-30.34 -0.47,-2.22 -1.43,-6.06 -2.87,-11.54 -1.46,-5.48 -3.22,-11.76 -5.3,-18.84 -2.07,-7.08 -4.32,-14.27 -6.74,-21.56 -2.41,-7.3 -5.15,-14.09 -8.22,-20.38 -7.47,-13.47 -14.98,-18.82 -22.49,-16.07 -2.54,1.7 -4.15,3.63 -4.85,5.8 -0.7,2.17 -1.51,4.51 -2.42,7.02 -0.92,2.51 -2.2,4.66 -3.84,6.46 -1.65,1.79 -4.53,2.54 -8.63,2.25 -6.88,0.31 -12.08,-2.36 -15.58,-7.97 -3.5,-5.63 -7.01,-11.24 -10.52,-16.87 -4.73,-5.94 -9.24,-12.21 -13.53,-18.82 -4.3,-6.62 -9.31,-12.5 -15.02,-17.65 -7.18,-6.57 -14.83,-12.62 -22.94,-18.14 -8.11,-5.51 -16.25,-11.16 -24.42,-16.95 -10.42,-8.21 -19.72,-15.93 -27.9,-23.16 -8.19,-7.23 -16.56,-16.02 -25.11,-26.35 -7.77,-9.35 -16.24,-17.24 -25.41,-23.68 -9.18,-6.45 -17.44,-14.68 -24.76,-24.7 -5.29,-5.82 -10.38,-12.11 -15.28,-18.88 -4.91,-6.77 -8.25,-14.32 -10.01,-22.62 -1.4,-6.64 -0.64,-13.31 2.28,-20 2.92,-6.7 6.93,-13.04 12.02,-19.03 5.1,-6 10.62,-11.37 16.56,-16.09 5.94,-4.73 11.44,-8.79 16.51,-12.17 9.7,-6.11 19.47,-11.21 29.3,-15.32 9.84,-4.1 19.99,-8.72 30.48,-13.83 3.76,-1.37 7.6,-3.77 11.49,-7.21 3.91,-3.42 8.12,-6.77 12.63,-10.04 4.52,-3.27 9.01,-5.96 13.48,-8.06 4.48,-2.1 9.11,-2.79 13.88,-2.07 6.68,1.48 12.27,6.66 16.75,15.54 4.49,8.88 8.76,16.08 12.82,21.58 2.36,2.97 4.51,6.28 6.44,9.92 1.92,3.64 4.07,6.94 6.43,9.92 7.34,10.01 16.69,17.29 28.06,21.82 11.38,4.53 23.08,3.79 35.11,-2.23 10.49,-5.12 17.82,-12.16 21.99,-21.15 4.18,-8.98 5.79,-18.42 4.84,-28.34 -0.94,-9.93 -3.71,-19.61 -8.32,-29.05 -4.59,-9.43 -10.49,-17.45 -17.67,-24.02 -2.8,-2.3 -6.32,-4.59 -10.57,-6.87 -4.24,-2.28 -7.77,-4.58 -10.57,-6.88 -4.03,-2.61 -6.93,-4.75 -8.73,-6.39 -1.79,-1.65 -3.61,-2.7 -5.45,-3.18 -1.83,-0.48 -3.91,-0.77 -6.25,-0.85 -2.33,-0.08 -5.49,0 -9.48,0.28 -10.45,-0.11 -21.13,-0.02 -32.06,0.27 -10.93,0.29 -21.95,0.17 -33.06,-0.37 -4.66,-0.18 -7.8,-0.67 -9.43,-1.48 -1.61,-0.81 -2.96,-1.68 -4.02,-2.61 -1.06,-0.94 -2.3,-1.98 -3.7,-3.12 -1.4,-1.16 -4.05,-2.76 -7.97,-4.83 -3.78,-1.51 -6.77,-2.61 -8.94,-3.31 -2.17,-0.7 -4.09,-0.87 -5.75,-0.52 -1.66,0.35 -3.43,0.87 -5.31,1.56 -1.89,0.69 -4.54,1.1 -7.98,1.26 -7.99,0.53 -17.53,1.25 -28.61,2.15 -11.1,0.9 -20.99,-0.04 -29.68,-2.82 -5.14,-2.39 -8.61,-5.12 -10.42,-8.21 -1.81,-3.09 -3.27,-6.54 -4.36,-10.35 -1.1,-3.83 -2.11,-7.95 -3.05,-12.38 -0.94,-4.42 -3.05,-8.89 -6.32,-13.41 -9.02,-12.55 -16.69,-23.5 -23.01,-32.87 -6.33,-9.36 -11.19,-22.07 -14.59,-38.12z"/>
 </g>
</svg>
