<svg clip-rule="evenodd" fill-rule="evenodd" height="5.8503mm" image-rendering="optimizeQuality" shape-rendering="geometricPrecision" text-rendering="geometricPrecision" viewBox="0 0 210.15 79.75" width="15.4155mm" xmlns="http://www.w3.org/2000/svg" xmlns:xlink="http://www.w3.org/1999/xlink"><linearGradient id="a" gradientUnits="userSpaceOnUse" x1="102.38" x2="112.48" y1="19.54" y2="67.23"><stop offset="0" stop-color="#ee2020"/><stop offset=".4" stop-color="#f66a20"/><stop offset="1" stop-color="#ffb41f"/></linearGradient><g fill="url(#a)" fill-rule="nonzero"><path d="m3.69 56.02c-.09-.28-.16-.55-.22-.82-.06-.26-.12-.52-.21-.78-.27-.9-.48-1.81-.62-2.71-.13-.91-.35-1.81-.65-2.7-.15-.44-.32-.86-.54-1.27-.21-.41-.41-.82-.61-1.25-.2-.42-.37-.85-.52-1.29-.15-.43-.25-.89-.29-1.38-.03-.54.13-.98.48-1.32s.79-.61 1.31-.81c.52-.21 1.06-.38 1.62-.53s1.01-.3 1.36-.45c.48-.21 1-.35 1.56-.41.56-.07 1.12-.04 1.68.07s1.08.31 1.57.59.9.65 1.24 1.09c.31.4.69.84 1.15 1.32s.95.91 1.47 1.3c.52.38 1.07.7 1.64.95.58.25 1.13.34 1.67.29.48-.05.87-.25 1.15-.59.28-.35.51-.77.68-1.26s.32-1 .46-1.54c.13-.54.28-1.01.44-1.43s.37-.95.63-1.59.55-1.11.88-1.4c.21-.16.44-.25.68-.29s.48-.05.73-.03c.25.01.49.04.73.07s.46.01.67-.06c.46-.15.89-.41 1.27-.78.39-.37.88-.62 1.49-.75.26-.06.55-.1.87-.14s.64-.05.96-.02.63.1.91.22c.29.12.52.31.72.57.43.62.73 1.31.89 2.07s.27 1.54.33 2.34.11 1.6.16 2.4.18 1.55.41 2.24c.16.49.34.93.55 1.33s.34.86.4 1.4c.1.97.21 1.97.35 2.99.13 1.03.33 2 .57 2.91.14.55.32 1.07.54 1.57s.43 1.01.63 1.51c.2.51.39 1.02.55 1.55.17.53.27 1.09.32 1.68.06.7.04 1.41-.08 2.14s-.38 1.36-.79 1.92c-.3.42-.62.81-.97 1.17s-.62.78-.82 1.27c-.24.57-.38 1.16-.43 1.78-.05.61-.11 1.22-.17 1.81-.03.5-.1.97-.21 1.42s-.13.93-.05 1.43c.08.53.21 1.03.36 1.51.16.48.29.98.4 1.5.08.39.19.82.33 1.27s.16.86.08 1.24c-.07.29-.25.43-.53.42s-.51-.13-.7-.37c-.19-.23-.31-.51-.36-.83s-.1-.62-.13-.92c-.05-.51-.17-1-.35-1.47s-.37-.92-.57-1.34c-.19-.4-.36-.82-.49-1.25-.13-.44-.32-.82-.55-1.16-.12-.19-.25-.36-.39-.49s-.28-.3-.43-.49c-.12-.19-.28-.39-.45-.58-.18-.2-.32-.42-.43-.67-.1-.2-.18-.41-.26-.62-.07-.22-.15-.43-.22-.63-.11-.28-.19-.52-.24-.73-.04-.21-.16-.42-.34-.63-.45-.56-.78-1.13-1-1.7s-.4-1.16-.54-1.78c-.14-.61-.28-1.24-.4-1.87s-.32-1.28-.59-1.93c-.22-.53-.4-1.07-.53-1.62s-.23-1.1-.29-1.67c-.04-.32-.1-.74-.17-1.26s-.26-.87-.57-1.05c-.28-.13-.49-.13-.64.01s-.26.34-.33.6-.11.55-.13.85c-.02.31-.05.55-.09.72-.15.83-.28 1.58-.39 2.26-.1.68-.4 1.35-.89 2-.16.17-.25.34-.26.51-.02.17-.06.37-.12.6-.12.49-.34.87-.69 1.14-.34.26-.76.34-1.25.22-.57-.12-1.03-.45-1.38-.96-.34-.52-.65-1.03-.93-1.55-.13-.25-.26-.5-.39-.76s-.3-.49-.54-.69c-.06-.04-.16-.1-.31-.18-.14-.08-.29-.15-.46-.21-.16-.06-.32-.08-.47-.07-.15.02-.23.11-.25.28-.1.54-.07 1.07.09 1.59s.33 1.03.49 1.54c.13.47.21.94.26 1.43.05.48.1.97.14 1.45.04.46.14.9.28 1.32.15.42.29.84.43 1.25s.24.81.28 1.22c.04.4-.05.76-.28 1.09-.11.13-.22.27-.33.4s-.2.28-.28.43c-.1.16-.15.32-.13.48s.01.31-.05.46c-.09.21-.18.35-.26.43-.08.07-.24.07-.48-.02-.12-.06-.24-.16-.35-.3s-.24-.27-.37-.4c-.13-.12-.27-.21-.4-.26s-.29-.02-.45.1c-.21.18-.3.47-.27.88.03.4.11.83.25 1.28.13.45.29.89.46 1.32s.28.74.32.92c.05.24.07.47.04.69-.02.22-.04.45-.04.67-.01.22.02.45.08.68s.07.47.01.7c-.08.29-.2.5-.38.62s-.4.1-.65-.07c-.28-.16-.45-.41-.51-.76-.06-.34-.12-.66-.18-.95-.11-.52-.19-1.05-.25-1.57s-.29-1.03-.69-1.52c-.45-.59-.89-1.15-1.32-1.68s-.89-1.05-1.39-1.58c-.25-.28-.45-.56-.61-.84s-.33-.6-.51-.94c-.33-.67-.62-1.36-.85-2.06-.23-.71-.45-1.42-.66-2.14-.1-.36-.16-.72-.17-1.08s0-.71.02-1.07.03-.72.04-1.06-.03-.7-.1-1.07c-.12-.82-.25-1.66-.38-2.49-.14-.83-.32-1.67-.55-2.5z"/><path d="m34.76 53.22c-.4-.96-.57-1.96-.53-2.99.04-1.04.11-2.05.2-3.03.07-.73.11-1.46.13-2.21s.06-1.49.12-2.25c.06-.87.21-1.71.45-2.53s.64-1.56 1.21-2.23c.84-.95 1.8-1.68 2.87-2.19s2.19-.92 3.36-1.23c1.05-.25 2.12-.45 3.23-.6s2.18.02 3.22.51c.58.29 1.12.64 1.6 1.06.49.42 1 .79 1.53 1.12.63.36 1.19.78 1.71 1.24.51.47 1.02.95 1.54 1.45.97.95 1.78 1.87 2.42 2.78s1.17 2 1.58 3.29c.34 1.11.61 2.19.81 3.24.2 1.06.29 2.16.29 3.31.01.41-.01.86-.04 1.35-.04.49-.07.94-.12 1.36-.07.43-.21.85-.41 1.28s-.37.83-.5 1.22c-.22.54-.52 1.06-.9 1.57-.39.51-.82.92-1.3 1.24-.26.19-.54.33-.84.42s-.59.18-.89.27-.59.19-.88.29-.56.25-.79.43c-.23.19-.51.43-.83.73s-.54.57-.65.82c-.17.37-.21.83-.12 1.4s.21 1.06.35 1.47c.11.25.21.5.3.74s.14.5.14.77c.02.21.01.44-.02.66-.04.23-.04.45-.02.66.03.29.1.64.2 1.03s.17.79.23 1.19.08.79.06 1.16-.14.67-.37.88c-.34.32-.63.38-.85.18s-.41-.51-.57-.93-.28-.85-.38-1.3-.18-.76-.24-.94c-.18-.59-.36-1.17-.53-1.72s-.37-1.12-.61-1.7c-.22-.5-.39-1.03-.52-1.58s-.33-1.07-.6-1.56c-.09-.15-.21-.3-.37-.46s-.33-.28-.53-.36-.39-.12-.58-.1c-.19.01-.36.12-.51.31-.11.13-.16.32-.15.57s.03.51.06.79.07.55.13.82c.06.26.09.48.09.64.02 1.12.05 2.21.1 3.27s.09 2.15.14 3.26c0 .14 0 .28-.01.44-.01.15-.04.3-.09.43s-.14.23-.25.3-.26.08-.47.04c-.32-.1-.55-.34-.69-.72-.13-.38-.26-.71-.37-.99-.2-.43-.39-.86-.58-1.3s-.36-.9-.52-1.39c-.11-.39-.2-.78-.27-1.18s-.17-.79-.31-1.17c-.26-.85-.61-1.59-1.03-2.23s-.88-1.23-1.39-1.78c-.5-.55-1.03-1.1-1.58-1.64s-1.09-1.14-1.62-1.8c-.37-.44-.66-.91-.87-1.4s-.44-.98-.68-1.48c-.25-.52-.54-1.02-.87-1.48s-.61-.97-.84-1.53zm10.45-4.31c-.1.57-.02 1.07.24 1.51s.58.74.97.91c.39.16.79.15 1.18-.05.4-.19.68-.67.85-1.42.2-.76.17-1.37-.08-1.86-.25-.48-.58-.78-.99-.9s-.83-.05-1.25.2c-.43.25-.73.73-.91 1.43.01.05.01.09 0 .1s-.01.04-.01.06z"/><path d="m60.19 46.15c-.11-.77-.19-1.55-.24-2.32s-.23-1.52-.52-2.26c-.2-.56-.35-1.11-.43-1.66-.09-.54-.21-1.1-.35-1.68-.14-.54-.25-1.07-.31-1.58-.07-.51-.16-1.04-.28-1.59-.1-.47-.27-.98-.51-1.52s-.33-1.06-.27-1.57c.05-.4.25-.74.58-1.03.34-.29.73-.53 1.17-.72s.9-.34 1.39-.44.9-.15 1.23-.14c.38 0 .75.02 1.1.05.35.04.7.17 1.05.4.23.17.44.38.65.62.2.25.42.45.65.63.47.42.97.8 1.5 1.14.52.34 1 .78 1.41 1.33.16.22.27.45.34.71s.19.49.37.7.38.41.6.59c.22.19.43.37.63.55.2.15.44.39.73.71s.59.6.9.84.6.38.88.43c.27.05.49-.12.65-.51.07-.18.09-.39.05-.63s-.09-.49-.16-.75-.14-.52-.23-.78c-.08-.26-.14-.48-.18-.66-.05-.37-.16-.9-.34-1.59-.17-.69-.31-1.4-.41-2.14-.1-.73-.12-1.42-.06-2.04.06-.63.29-1.07.71-1.32.36-.24.76-.43 1.2-.56s.86-.3 1.25-.49c.4-.19.79-.37 1.19-.52.39-.15.82-.25 1.28-.29 1.29-.14 2.29.37 3 1.51.21.34.34.67.4 1.01.06.33.15.66.27.99.08.26.16.47.24.63s.14.32.2.47.11.32.17.5c.05.18.1.39.15.63.09.56.17 1.11.25 1.66.07.55.2 1.1.37 1.67.2.67.37 1.35.51 2.03s.29 1.37.43 2.05c.13.63.32 1.18.56 1.65s.39 1.01.47 1.63c.08.78.26 1.56.52 2.36.26.79.5 1.57.72 2.32.4 1.26.53 2.49.37 3.71-.06.51-.06 1.03 0 1.56.06.54.03 1.06-.08 1.58-.1.57-.25 1.13-.45 1.68s-.37 1.13-.52 1.74c-.13.58-.16 1.14-.09 1.71.07.56.01 1.14-.17 1.72-.13.44-.21.83-.25 1.16-.04.34-.01.73.08 1.18.07.34.2.67.37.97.17.31.33.64.46.99.16.38.2.77.12 1.17s-.26.68-.54.84-.58.09-.89-.2c-.16-.13-.28-.3-.35-.5s-.12-.43-.16-.67-.07-.47-.11-.7c-.03-.23-.07-.43-.11-.61-.15-.46-.33-.88-.53-1.25s-.37-.8-.5-1.29c-.18-.7-.39-1.37-.65-2s-.64-1.22-1.14-1.77c-.29-.32-.58-.53-.87-.62s-.62-.22-.99-.39c-.46-.21-.89-.49-1.29-.86-.41-.37-.8-.76-1.18-1.17-.37-.41-.74-.84-1.09-1.27s-.71-.83-1.06-1.2c-.14-.16-.28-.37-.42-.63s-.28-.52-.43-.77c-.15-.26-.32-.49-.5-.7s-.4-.34-.66-.4c-.28-.05-.45.01-.49.19-.04.17-.03.39.03.65.07.26.16.52.27.79s.19.43.23.51c.25.52.47 1.06.67 1.61s.29 1.12.28 1.73c0 .66-.15 1.24-.46 1.74-.3.5-.58 1.06-.84 1.66-.14.36-.19.71-.15 1.04s.1.68.18 1.03c.07.36.14.71.2 1.07s.05.72-.03 1.1c-.07.21-.18.4-.35.59-.16.19-.39.24-.69.16-.17-.04-.34-.24-.49-.57-.15-.34-.28-.61-.37-.81-.13-.22-.27-.46-.42-.73s-.32-.51-.5-.72-.39-.37-.64-.48c-.24-.11-.52-.14-.84-.07-.16.03-.26.12-.31.27s-.1.32-.14.5c-.04.19-.09.37-.13.54-.05.18-.14.29-.3.35-.17.09-.33.07-.47-.07s-.25-.3-.33-.51c-.08-.2-.16-.41-.24-.63-.07-.22-.13-.37-.18-.48-.23-.42-.49-.77-.8-1.07-.31-.29-.65-.59-1.01-.9-.57-.48-.91-1.02-1.02-1.62-.11-.59-.2-1.24-.27-1.94-.06-.78-.13-1.55-.22-2.3s-.28-1.51-.58-2.27c-.27-.74-.55-1.47-.84-2.19s-.49-1.47-.6-2.24z"/><path d="m84.73 31.57c-.07-.31-.14-.68-.23-1.08-.09-.41-.16-.83-.23-1.27s-.11-.86-.12-1.27c-.02-.41.02-.77.12-1.09.3-.91.79-1.69 1.46-2.33s1.44-1.16 2.31-1.56c.86-.4 1.77-.72 2.72-.95s1.87-.42 2.74-.58c.4-.06.83-.08 1.28-.07.46.01.91.06 1.35.15.44.08.87.19 1.28.31s.79.24 1.15.35c.41.13.81.25 1.18.35.38.1.72.24 1.04.42.24.11.46.24.64.38s.38.27.6.39c.24.09.47.13.71.14.24 0 .46.05.67.15.21.07.41.2.62.4s.37.4.5.59c.33.4.47.87.43 1.43-.03.25-.09.5-.17.74-.09.24-.19.48-.3.72s-.22.49-.32.73-.15.5-.15.77c-.01.47.03.92.12 1.35s.12.89.08 1.36c-.02.17-.09.34-.2.52-.11.17-.3.25-.55.22-.2-.04-.35-.15-.44-.34-.1-.19-.2-.35-.31-.49-.17-.27-.29-.43-.37-.48s-.27-.09-.58-.1c-.23-.03-.4-.08-.52-.14s-.24-.15-.35-.29c-.33-.4-.71-.78-1.15-1.14-.43-.36-.9-.66-1.39-.9s-1-.39-1.54-.46c-.53-.06-1.07 0-1.6.2-.51.19-.82.46-.92.81s.07.71.54 1.08c.38.36.86.59 1.45.7.58.11 1.12.21 1.61.3.65.08 1.21.24 1.67.49.46.24.96.52 1.49.82.6.34 1.18.69 1.77 1.05.58.36 1.12.79 1.61 1.29.23.17.43.37.62.59.18.22.37.44.55.65.26.33.51.68.76 1.05s.51.72.8 1.05c.38.49.77.93 1.18 1.31s.68.9.82 1.55c.11.53.13 1.03.05 1.51s-.13.98-.16 1.48c-.02.55-.08 1.09-.18 1.6s-.2 1.02-.32 1.51c-.13.44-.23.89-.31 1.36s-.22.92-.43 1.35c-.21.46-.39.93-.54 1.43-.16.5-.34.97-.54 1.43-.2.59-.31 1.09-.32 1.51-.01.41-.01.94-.02 1.57 0 .14.01.35.03.65s-.02.5-.14.61c-.14.11-.27.16-.38.14s-.22-.07-.3-.16c-.09-.09-.17-.2-.25-.32s-.14-.22-.19-.29c-.13-.22-.22-.44-.28-.66s-.18-.42-.36-.6c-.2-.18-.4-.26-.59-.27-.19 0-.38.06-.56.18s-.33.28-.46.46c-.12.19-.22.39-.29.6-.13.41-.18.83-.14 1.27.04.43.04.85.02 1.27-.04.45-.12.82-.24 1.12-.11.3-.22.65-.33 1.06s-.1.81.01 1.21.22.8.33 1.18c.25.77.38 1.59.4 2.47-.01.19-.05.4-.11.62s-.24.35-.54.38c-.27 0-.45-.09-.53-.28s-.17-.38-.27-.58c-.18-.46-.27-.94-.28-1.44s-.06-1.02-.14-1.55c-.08-.5-.21-1.01-.38-1.5-.17-.5-.34-.98-.49-1.44-.02-.11-.07-.29-.14-.55s-.15-.56-.25-.89c-.1-.34-.21-.68-.32-1.02-.11-.35-.24-.67-.39-.97-.36-.64-.71-.89-1.07-.76-.12.08-.2.17-.23.27s-.07.21-.11.33-.1.22-.18.31-.22.12-.41.11c-.33.01-.57-.11-.74-.38s-.33-.53-.5-.8c-.22-.28-.44-.58-.64-.89s-.44-.59-.71-.84c-.34-.31-.7-.6-1.09-.86s-.77-.53-1.16-.8c-.49-.39-.94-.76-1.32-1.1-.39-.34-.79-.76-1.19-1.25-.37-.44-.77-.82-1.21-1.12-.44-.31-.83-.7-1.18-1.17-.25-.28-.49-.58-.73-.9-.23-.32-.39-.68-.47-1.07-.07-.32-.03-.63.11-.95s.33-.62.57-.9.5-.54.79-.76c.28-.22.54-.42.78-.58.46-.29.93-.53 1.39-.73.47-.19.95-.41 1.45-.66.18-.07.36-.18.55-.34.18-.16.38-.32.6-.48.21-.16.43-.28.64-.38s.43-.13.66-.1c.32.07.58.31.79.74.21.42.41.76.61 1.02.11.14.21.3.3.47s.19.33.31.47c.35.48.79.82 1.33 1.04.54.21 1.09.18 1.66-.11.5-.24.85-.58 1.04-1 .2-.43.27-.88.23-1.35s-.18-.93-.4-1.38-.5-.83-.84-1.14c-.13-.11-.3-.22-.5-.33s-.37-.22-.5-.33c-.19-.12-.33-.23-.41-.3-.09-.08-.17-.13-.26-.15s-.19-.04-.3-.04-.26 0-.45.01c-.49 0-1 0-1.52.01s-1.04.01-1.57-.02c-.22-.01-.37-.03-.45-.07s-.14-.08-.19-.13c-.05-.04-.11-.09-.17-.15-.07-.05-.19-.13-.38-.23-.18-.07-.32-.12-.43-.16-.1-.03-.19-.04-.27-.02s-.16.04-.25.07-.22.05-.38.06c-.38.02-.83.06-1.36.1s-1 0-1.41-.13c-.24-.11-.41-.24-.49-.39-.09-.15-.16-.31-.21-.49s-.1-.38-.15-.59c-.04-.21-.14-.42-.3-.64-.43-.6-.79-1.12-1.09-1.56s-.53-1.05-.69-1.81z"/><path d="m107.56 26.98c-.08-.23-.2-.44-.38-.62s-.33-.37-.45-.56-.23-.43-.31-.7-.17-.5-.27-.7c-.22-.53-.4-1.08-.54-1.66-.13-.58-.27-1.16-.4-1.77-.17-.81-.1-1.37.2-1.67.31-.3.85-.46 1.65-.49.3-.01.59.01.88.06.28.05.57.1.86.17.29.06.57.1.85.11s.57-.04.87-.16c.25-.11.44-.26.58-.45s.35-.35.62-.46c.35-.16.74-.24 1.16-.25s.82-.02 1.2-.05c.67-.09 1.3-.14 1.9-.16s1.21-.2 1.82-.55c.47-.26.97-.42 1.51-.48s1.07-.08 1.61-.07 1.08.03 1.64.04c.55.02 1.09-.02 1.62-.14.6-.13 1.15-.32 1.62-.59.48-.27 1.03-.44 1.64-.51.59-.07 1.13-.18 1.62-.32s1.01-.34 1.56-.6c.52-.25 1.03-.43 1.53-.53.5-.11 1.01-.02 1.54.25.58.29 1 .61 1.25.95s.43.83.54 1.47c.09.56.21 1.14.35 1.74s.23 1.19.27 1.75c.07 1.11.12 2.18.15 3.22s.21 2.1.55 3.18c.16.49.34 1 .55 1.55s.29 1.08.24 1.62c-.03.25-.14.52-.33.79s-.41.5-.66.69-.48.29-.7.31-.35-.1-.41-.37l-.01-.04c-.08-.37-.21-.68-.38-.93-.18-.25-.33-.54-.45-.87-.13-.33-.28-.61-.46-.83s-.34-.51-.47-.87c-.22-.64-.49-1.12-.8-1.46-.32-.33-.64-.53-.97-.6s-.66-.02-1 .15-.65.42-.93.75c-.22.26-.41.55-.58.86s-.29.67-.37 1.07c-.23 1.12-.23 2.2-.01 3.23.22 1.04.43 2.09.62 3.14.14.66.24 1.31.31 1.95s.16 1.28.28 1.92c.12.63.27 1.26.44 1.88s.42 1.23.73 1.82c.31.57.61 1.2.89 1.89s.34 1.39.16 2.09c-.13.44-.36.82-.69 1.13-.33.32-.57.67-.7 1.05-.08.26-.11.53-.1.8.02.27.07.54.15.81.09.27.17.54.25.81.09.27.14.54.17.81s.04.58.03.94-.09.65-.27.88c-.16.17-.32.26-.48.27s-.32-.04-.46-.15c-.14-.1-.28-.25-.42-.43-.13-.18-.23-.34-.29-.49-.11-.25-.17-.5-.2-.74-.02-.24-.03-.48-.03-.71.01-.24.01-.48.01-.72 0-.25-.02-.5-.08-.77-.04-.21-.12-.36-.22-.47-.1-.1-.22-.24-.33-.4-.18-.21-.31-.45-.4-.74-.09-.28-.25-.49-.5-.63-.32-.21-.5-.17-.55.12-.05.28-.05.65.01 1.11s.13.91.23 1.37.13.76.11.9c-.06.48-.14 1-.22 1.57-.09.57-.05 1.09.11 1.58.18.59.39 1.12.63 1.6.24.47.39 1.06.45 1.76.02.35.02.65 0 .88-.02.24-.08.53-.2.88-.11.38-.14.7-.08.97.06.26.15.58.29.97.07.21.15.49.22.86.08.37.1.71.07 1.03s-.13.56-.32.71-.49.09-.9-.18c-.22-.15-.39-.36-.51-.63-.11-.28-.2-.58-.27-.91s-.13-.66-.19-.99-.15-.61-.28-.83c-.17-.29-.31-.57-.4-.82-.1-.25-.16-.57-.18-.95s-.04-.76-.06-1.14c-.01-.38-.03-.76-.06-1.14-.01-.3-.03-.65-.06-1.04s-.15-.73-.38-1.01c-.3-.4-.63-.79-.97-1.15-.34-.37-.73-.7-1.18-.99-.38-.22-.77-.39-1.18-.51s-.78-.34-1.12-.65c-.31-.29-.56-.63-.75-1.01-.19-.39-.35-.79-.46-1.22-.12-.43-.2-.86-.26-1.3-.05-.44-.11-.86-.16-1.26-.08-.64-.14-1.28-.18-1.92s-.13-1.3-.28-1.98c-.14-.66-.32-1.3-.55-1.92s-.36-1.27-.39-1.95c-.03-.65-.05-1.32-.05-2.01-.01-.68-.17-1.32-.49-1.91-.15-.3-.29-.62-.43-.96s-.24-.66-.3-.94c-.05-.24-.06-.5-.04-.79s.02-.59.01-.91c-.01-.31-.06-.6-.14-.86s-.25-.45-.5-.59c-.34-.17-.61-.22-.81-.14s-.36.25-.47.49-.18.51-.2.8-.01.56.04.79c.03.27.1.53.21.78s.16.51.17.79c-.01.22-.04.46-.1.72-.05.26-.11.5-.17.74-.06.26-.13.51-.23.75s-.19.48-.28.72c-.12.33-.16.59-.12.79s.07.47.09.82c-.01.36-.1.65-.27.88s-.39.38-.64.44c-.26.07-.52.05-.78-.06s-.47-.31-.64-.61c-.13-.22-.23-.46-.3-.72s-.16-.52-.27-.77c-.11-.28-.25-.52-.4-.72s-.26-.46-.33-.77c-.13-.6-.34-1.11-.65-1.51-.07-.09-.16-.19-.26-.27-.1-.09-.19-.19-.27-.31s-.12-.25-.12-.39-.04-.25-.12-.35c-.12-.19-.3-.33-.54-.42s-.44-.22-.62-.4c-.35-.37-.5-.86-.43-1.47 0-.27.04-.5.12-.68s.13-.4.13-.65c.01-.22 0-.49-.03-.8-.02-.31-.07-.57-.14-.77z"/><path d="m139.29 31.18c-.05-.51-.1-1.03-.14-1.55-.04-.53-.13-1.05-.27-1.57-.11-.41-.24-.82-.38-1.22s-.25-.79-.33-1.18c-.06-.29-.13-.58-.2-.86s-.12-.59-.13-.92c-.1-.88-.16-1.78-.16-2.68.01-.58-.06-1.16-.22-1.74s-.3-1.17-.39-1.75c-.11-.64-.04-1.17.19-1.6.24-.43.61-.82 1.12-1.14.41-.28.8-.56 1.18-.85.38-.28.8-.49 1.27-.62s.94-.22 1.4-.28c.47-.06.93-.16 1.39-.32.44-.15.87-.31 1.31-.5s.9-.33 1.37-.43c.53-.11 1.04-.21 1.54-.31.5-.09 1.02-.09 1.57.02.43.08.81.1 1.15.09.34-.02.67-.06.98-.13s.64-.15.98-.25.72-.19 1.14-.28c.81-.17 1.55-.14 2.22.09s1.24.59 1.71 1.08.83 1.08 1.07 1.77.36 1.42.36 2.19c-.01.36-.07.71-.21 1.05-.13.34-.17.7-.12 1.08.03.38.07.75.13 1.12.07.37-.03.73-.28 1.09s-.57.55-.93.57c-.37.02-.71-.13-1.02-.44-.28-.27-.55-.5-.81-.69s-.59-.37-.98-.53c-.37-.17-.73-.24-1.08-.22s-.7.09-1.05.2c-.34.11-.69.26-1.04.43s-.69.32-1.02.44c-.15.06-.32.09-.49.1-.18.01-.36.02-.55.03s-.36.04-.52.07-.29.1-.41.21c-.13.14-.21.29-.23.46s0 .34.06.5.16.32.28.45c.13.14.25.25.38.33.41.24.82.37 1.24.4.42.02.84 0 1.26-.08.42-.07.85-.17 1.28-.27s.86-.16 1.3-.17c.57-.04 1.01.12 1.34.48.32.36.57.79.75 1.3s.3 1.06.37 1.63c.07.58.15 1.07.23 1.49.09.42.2.88.33 1.37s.08.92-.14 1.27c-.21.32-.42.49-.65.53-.23.03-.45 0-.66-.11-.21-.1-.44-.25-.67-.43s-.45-.32-.67-.41c-.18-.07-.4-.12-.67-.15s-.54-.02-.82.01-.54.11-.78.23-.42.27-.54.46c-.12.22-.17.45-.14.69.02.24.09.47.19.7s.25.42.43.59c.19.17.37.28.55.36.5.17 1.04.22 1.62.15s1.11-.06 1.59.03c.65.11 1.4.09 2.23-.06s1.58-.29 2.23-.43c1.21-.26 1.94.21 2.19 1.39.12.55.26 1.17.43 1.84.17.68.3 1.36.4 2.06.09.69.11 1.37.06 2.04s-.25 1.26-.61 1.78c-.17.25-.37.48-.6.68s-.47.38-.71.54c-.19.12-.4.22-.62.28s-.4.15-.54.26c-.47.35-.98.74-1.52 1.19-.54.44-.97.93-1.3 1.47-.24.43-.33.83-.28 1.19s.02.76-.08 1.19c-.13.44-.34.82-.62 1.14-.29.32-.55.66-.78 1.01-.16.25-.27.48-.31.66-.04.19-.05.37-.02.56s.07.37.14.55.15.39.26.64c.08.23.15.53.23.9s.1.73.06 1.08-.14.63-.32.83-.47.24-.88.1c-.23-.06-.41-.19-.54-.4s-.22-.43-.28-.66-.1-.48-.11-.74-.03-.48-.04-.67c-.03-.79-.14-1.58-.32-2.38s-.41-1.58-.68-2.35c-.13-.36-.28-.72-.44-1.1s-.28-.76-.37-1.16c-.06-.26-.07-.57-.05-.91.02-.35-.06-.63-.24-.83-.15-.19-.35-.32-.6-.39s-.5-.1-.76-.1-.53.02-.81.07-.51.09-.69.13c-.1.02-.17.13-.2.31s-.05.39-.05.63c-.01.23 0 .45.01.65s.03.34.05.42c.08.37.17.69.27.97s.15.61.15 1c-.01.36-.04.73-.09 1.11-.06.38-.06.76-.01 1.13.04.21.09.44.15.69.05.25.09.48.11.7s-.01.41-.08.59-.22.31-.45.38c-.36.13-.64.08-.85-.15s-.38-.53-.5-.9-.2-.75-.24-1.14-.07-.69-.09-.91c-.07-.61-.18-1.19-.3-1.73-.13-.54-.33-1.08-.61-1.62-.19-.37-.42-.65-.69-.82-.27-.18-.61-.33-1.03-.46-.41-.13-.81-.25-1.18-.35-.38-.1-.72-.34-1.02-.71-.52-.66-.87-1.38-1.04-2.17s-.28-1.59-.34-2.4c-.07-.84-.18-1.69-.34-2.56s-.39-1.69-.68-2.45c-.22-.5-.36-.98-.43-1.43s-.13-.96-.2-1.52z"/><path d="m162.66 26.84c-.25-.94-.49-1.87-.7-2.8s-.52-1.83-.92-2.71c-.57-1.25-.96-2.57-1.19-3.95-.22-1.38-.45-2.76-.69-4.13-.07-.32-.15-.69-.26-1.12s-.19-.87-.26-1.32-.08-.88-.04-1.29c.04-.4.17-.76.41-1.06.26-.3.67-.51 1.21-.63.54-.11 1.12-.18 1.75-.21.63-.02 1.24-.05 1.84-.08s1.11-.13 1.54-.31c.48-.18.96-.31 1.42-.38s.96-.18 1.48-.31c.47-.13.93-.31 1.38-.56.46-.25.91-.47 1.36-.68.58-.26 1.2-.45 1.86-.56s1.3-.16 1.9-.16c.63 0 1.21.21 1.74.62s1.03.8 1.52 1.16c.84.62 1.69 1.33 2.55 2.13.86.81 1.58 1.67 2.16 2.59.51.85.87 1.86 1.07 3.02s.29 2.26.26 3.28c-.01.47-.06.93-.16 1.39-.09.46-.2.91-.33 1.35-.08.37-.19.7-.33.97-.15.33-.33.69-.53 1.08-.21.39-.31.77-.31 1.16 0 .52.14.96.43 1.33.28.37.63.7 1.03 1 .41.3.83.57 1.29.82.45.25.87.49 1.25.74.32.23.65.44.97.62.33.18.64.39.93.62.26.19.47.42.62.67.15.26.34.48.58.68.18.18.38.32.61.43.23.1.43.26.61.47.36.39.63.84.82 1.35s.2 1.03.04 1.56c-.07.32-.21.6-.42.85s-.36.52-.46.82c-.11.27-.18.57-.2.89-.03.32-.04.62-.04.89.01.55.1 1.1.29 1.65s.23 1.11.13 1.68c-.06.23-.13.45-.21.64s-.12.44-.11.74c-.01.22.03.47.12.76.09.28.16.54.21.78.04.21.06.47.06.77s-.04.6-.12.89c-.07.29-.19.55-.35.79s-.36.4-.62.48c-.28.11-.49.08-.64-.11s-.24-.43-.28-.72c-.02-.35-.04-.69-.07-1.01s-.08-.68-.17-1.08c-.14-.66-.37-1.28-.68-1.87-.32-.59-.61-1.18-.86-1.75-.11-.25-.25-.44-.41-.57s-.32-.29-.47-.48c-.16-.21-.34-.5-.57-.85-.22-.35-.47-.64-.74-.87s-.54-.35-.81-.34c-.27 0-.54.25-.79.74-.11.24-.15.47-.12.68s-.09.4-.35.57c-.29.17-.56.14-.8-.1s-.42-.45-.55-.65c-.23-.42-.45-.8-.67-1.13-.22-.34-.47-.7-.74-1.08-.27-.35-.53-.73-.79-1.13s-.57-.76-.91-1.1c-.25-.25-.52-.45-.81-.61s-.58-.36-.85-.6c-.23-.17-.45-.38-.67-.62s-.48-.36-.78-.35c-.33.01-.54.12-.63.32s-.13.43-.1.7.1.54.22.82c.11.28.2.49.26.64.22.5.42 1.04.61 1.62s.15 1.14-.12 1.69c-.09.21-.21.38-.36.51s-.32.24-.51.33-.36.2-.53.32-.31.26-.45.42c-.16.25-.22.57-.17.94s.11.7.17.99c.08.37.11.67.11.9s-.08.52-.23.85c-.13.3-.24.58-.34.83s-.13.54-.08.86c.01.33.08.64.2.93s.18.61.2.97c.01.3 0 .61-.03.93s-.05.64-.07.94c-.02.31-.02.63 0 .97s-.01.64-.1.91c-.11.27-.31.46-.62.56-.31.11-.59.08-.84-.09-.25-.16-.45-.4-.58-.72-.14-.31-.26-.6-.37-.85-.08-.26-.22-.54-.43-.86-.12-.19-.26-.37-.4-.53s-.24-.37-.3-.64c-.06-.26-.07-.53-.04-.79.03-.27.02-.53-.01-.8-.1-.88-.43-1.64-.97-2.26-.55-.63-1.13-1.23-1.76-1.81s-1.22-1.18-1.78-1.8-.91-1.4-1.05-2.33c-.09-.69-.17-1.4-.25-2.13-.07-.73-.13-1.44-.17-2.15-.06-.95-.21-1.89-.43-2.83-.23-.94-.45-1.87-.67-2.78zm8.83-9.65c.03.13.04.31.05.55.01.23.05.39.12.49.18.21.4.23.65.07s.44-.28.56-.37c.61-.49.85-1.01.72-1.57s-.5-1.01-1.09-1.35c-.22-.12-.46-.15-.74-.11s-.47.19-.59.43c-.16.31-.16.62-.01.95.15.32.26.63.32.92z"/><path d="m185.61 10.21c-.07-.31-.14-.68-.23-1.08-.09-.41-.16-.83-.23-1.27s-.11-.86-.12-1.27c-.02-.41.02-.77.12-1.09.3-.91.79-1.69 1.46-2.33.68-.64 1.44-1.16 2.31-1.56.86-.4 1.77-.72 2.72-.95s1.87-.42 2.74-.58c.4-.06.83-.08 1.28-.07.46.01.91.06 1.35.15.44.08.87.19 1.28.31s.79.24 1.15.35c.41.13.81.25 1.18.34.38.1.72.24 1.04.42.24.11.46.24.64.38s.38.27.6.39c.24.09.47.13.71.14.23 0 .46.05.67.15.21.07.41.2.62.4s.37.4.5.59c.33.4.47.87.43 1.43-.03.25-.09.5-.17.74-.09.24-.19.48-.3.72s-.22.49-.32.73-.15.5-.15.77c-.01.47.03.92.12 1.35s.12.89.08 1.36c-.02.17-.09.34-.2.52-.11.17-.3.25-.55.22-.2-.04-.35-.15-.44-.34-.1-.19-.2-.35-.31-.49-.17-.27-.29-.43-.37-.48s-.27-.09-.58-.1c-.23-.03-.4-.08-.52-.14s-.24-.15-.35-.3c-.33-.4-.71-.77-1.15-1.14-.43-.36-.9-.66-1.39-.9s-1-.39-1.54-.46-1.07 0-1.61.2c-.51.19-.82.46-.92.81s.07.71.54 1.08c.38.36.86.59 1.45.7.58.11 1.12.21 1.61.3.65.08 1.21.25 1.67.49s.96.52 1.49.82c.59.34 1.18.69 1.77 1.05.58.36 1.12.79 1.61 1.28.23.17.43.37.62.59.18.22.37.44.55.65.26.33.52.68.76 1.05.25.37.51.72.8 1.05.38.5.77.93 1.18 1.31s.68.9.82 1.56c.11.53.13 1.03.05 1.51s-.13.97-.16 1.48c-.02.55-.08 1.09-.18 1.6s-.2 1.02-.32 1.51c-.13.44-.23.89-.31 1.36s-.22.92-.43 1.35c-.21.46-.38.93-.54 1.43s-.34.97-.54 1.43c-.2.59-.31 1.09-.32 1.51-.01.41-.01.94-.02 1.57 0 .14.01.35.03.65s-.02.5-.14.61c-.14.11-.27.16-.38.14s-.22-.07-.3-.16c-.09-.09-.17-.2-.25-.32s-.14-.22-.19-.29c-.13-.22-.22-.44-.28-.66s-.18-.42-.35-.6c-.2-.18-.4-.27-.59-.27s-.38.06-.56.18-.33.28-.46.47c-.12.19-.22.39-.29.6-.13.41-.18.83-.14 1.27.04.43.04.85.02 1.27-.04.45-.12.82-.24 1.12s-.23.65-.33 1.06c-.11.41-.1.81.01 1.21s.22.8.33 1.18c.25.77.38 1.59.4 2.47-.01.19-.05.4-.12.62-.06.22-.24.35-.54.38-.27 0-.45-.09-.53-.28s-.17-.38-.27-.58c-.18-.46-.27-.94-.28-1.44-.01-.51-.06-1.02-.14-1.55-.08-.5-.21-1.01-.38-1.5-.17-.5-.34-.98-.49-1.44-.02-.1-.07-.29-.13-.55-.07-.26-.15-.56-.25-.89-.1-.34-.2-.68-.32-1.02-.11-.35-.24-.67-.39-.97-.36-.64-.71-.89-1.07-.76-.12.08-.2.17-.23.28-.03.1-.07.21-.11.33s-.1.22-.18.31c-.08.08-.22.12-.41.11-.33.01-.57-.11-.74-.38s-.33-.53-.5-.8c-.22-.28-.44-.58-.64-.89s-.44-.59-.71-.84c-.34-.31-.7-.6-1.09-.86s-.77-.53-1.16-.8c-.49-.39-.94-.76-1.32-1.1-.39-.34-.79-.76-1.19-1.25-.37-.44-.77-.82-1.21-1.12-.43-.31-.83-.7-1.18-1.17-.25-.28-.49-.58-.73-.9-.23-.32-.39-.68-.47-1.07-.07-.31-.03-.63.11-.95s.33-.62.57-.9.5-.54.79-.76c.28-.22.54-.42.78-.58.46-.29.92-.53 1.39-.73.47-.19.95-.41 1.45-.66.18-.07.36-.18.55-.34.18-.16.38-.32.6-.48.21-.16.43-.28.64-.38s.43-.13.66-.1c.32.07.58.32.79.74s.42.76.61 1.02c.11.14.21.3.31.47.09.17.19.33.31.47.35.47.79.82 1.33 1.04.54.21 1.09.18 1.67-.11.5-.24.84-.58 1.04-1 .2-.43.27-.87.23-1.35-.04-.47-.18-.93-.4-1.38s-.5-.83-.84-1.14c-.13-.11-.3-.22-.5-.33s-.37-.22-.5-.33c-.19-.12-.33-.22-.41-.3-.09-.08-.17-.13-.26-.15s-.19-.04-.3-.04-.26 0-.45.01c-.49 0-1 0-1.52.01s-1.04.01-1.57-.02c-.22-.01-.37-.03-.45-.07s-.14-.08-.19-.12-.11-.09-.17-.15c-.07-.05-.19-.13-.38-.23-.18-.07-.32-.12-.43-.16-.1-.03-.19-.04-.27-.02s-.16.04-.25.07-.22.05-.38.06c-.38.02-.83.06-1.36.1s-1 0-1.41-.14c-.24-.11-.41-.24-.49-.39-.09-.15-.16-.31-.21-.49s-.1-.38-.15-.59c-.04-.21-.14-.42-.3-.64-.43-.6-.79-1.12-1.09-1.56s-.53-1.05-.69-1.81z"/></g></svg>