<svg clip-rule="evenodd" fill-rule="evenodd" height="5.8503mm" image-rendering="optimizeQuality" shape-rendering="geometricPrecision" text-rendering="geometricPrecision" viewBox="0 0 2738.08 1039.12" width="15.4155mm" xmlns="http://www.w3.org/2000/svg" xmlns:xlink="http://www.w3.org/1999/xlink"><linearGradient id="a" gradientUnits="userSpaceOnUse" x1="1333.92" x2="1465.49" y1="254.57" y2="875.96"><stop offset="0" stop-color="#ee1e1c"/><stop offset=".309804" stop-color="#f66725"/><stop offset="1" stop-color="#ffb12f"/></linearGradient><g fill="url(#a)" fill-rule="nonzero"><path d="m48.03 729.85c-1.15-3.69-2.08-7.23-2.81-10.66s-1.62-6.8-2.68-10.16c-3.55-11.76-6.23-23.53-8.03-35.31-1.76-11.79-4.62-23.53-8.53-35.2-1.9-5.68-4.23-11.19-6.98-16.5-2.72-5.33-5.4-10.73-7.99-16.27-2.61-5.52-4.87-11.12-6.79-16.8-1.92-5.67-3.2-11.65-3.8-17.97-.43-7.03 1.67-12.77 6.29-17.14s10.3-7.9 17.07-10.59c6.77-2.68 13.78-4.97 21.08-6.87 7.28-1.92 13.21-3.87 17.78-5.91 6.23-2.75 12.98-4.55 20.32-5.36 7.35-.85 14.64-.53 21.94.98 7.3 1.49 14.1 4.09 20.43 7.74 6.32 3.66 11.71 8.42 16.16 14.26 3.98 5.24 8.95 10.98 14.92 17.23 5.99 6.25 12.34 11.88 19.13 16.87 6.79 5.01 13.91 9.13 21.39 12.36 7.5 3.25 14.74 4.48 21.72 3.73 6.31-.64 11.3-3.21 14.99-7.74s6.66-9.98 8.88-16.36 4.21-13.05 5.95-20.04c1.72-6.98 3.62-13.18 5.7-18.63 2.06-5.45 4.8-12.36 8.21-20.78 3.41-8.4 7.21-14.49 11.42-18.24 2.79-2.02 5.74-3.29 8.86-3.77 3.13-.48 6.31-.6 9.57-.41 3.27.2 6.45.5 9.57.91 3.14.41 6.02.16 8.7-.76 6-1.97 11.55-5.38 16.61-10.21s11.53-8.06 19.41-9.73c3.39-.73 7.21-1.35 11.39-1.88 4.19-.53 8.37-.62 12.56-.25 4.19.36 8.15 1.31 11.86 2.86 3.73 1.53 6.84 4 9.34 7.41 5.67 8.1 9.52 17.1 11.63 27.03 2.1 9.93 3.55 20.09 4.32 30.46.76 10.39 1.46 20.8 2.04 31.21.6 10.43 2.4 20.14 5.38 29.16 2.06 6.36 4.44 12.11 7.14 17.26s4.44 11.23 5.2 18.21c1.24 12.61 2.74 25.61 4.51 39 1.76 13.41 4.25 26 7.46 37.85 1.88 7.1 4.21 13.94 7.03 20.5 2.82 6.55 5.56 13.13 8.21 19.72s5.06 13.32 7.23 20.2c2.17 6.87 3.53 14.17 4.12 21.94.83 9.11.48 18.38-1.08 27.83-1.58 9.45-5.01 17.78-10.27 24.97-3.85 5.45-8.05 10.55-12.61 15.28-4.53 4.71-8.12 10.2-10.73 16.48-3.07 7.44-4.92 15.15-5.54 23.16-.64 8.01-1.39 15.84-2.26 23.53-.41 6.54-1.33 12.7-2.77 18.56-1.44 5.84-1.65 12.06-.62 18.63 1.1 6.93 2.68 13.48 4.71 19.64 2.02 6.2 3.77 12.72 5.22 19.57 1.08 5.12 2.52 10.62 4.3 16.52 1.78 5.86 2.11 11.26.99 16.15-.98 3.78-3.27 5.61-6.87 5.47-3.61-.12-6.64-1.72-9.06-4.8-2.45-3.06-4.01-6.64-4.71-10.8-.69-4.14-1.28-8.13-1.74-11.95-.67-6.64-2.22-13.04-4.58-19.15s-4.85-11.94-7.46-17.48c-2.52-5.17-4.67-10.62-6.41-16.34-1.74-5.7-4.16-10.73-7.21-15.1-1.62-2.5-3.32-4.65-5.13-6.41-1.79-1.76-3.66-3.87-5.61-6.32-1.62-2.52-3.59-5.06-5.91-7.6-2.33-2.56-4.19-5.45-5.59-8.74-1.28-2.58-2.38-5.31-3.34-8.13-.98-2.84-1.9-5.59-2.82-8.26-1.47-3.61-2.5-6.79-3.09-9.54-.59-2.72-2.04-5.47-4.42-8.17-5.84-7.35-10.18-14.74-13.02-22.2-2.82-7.44-5.17-15.17-7.05-23.18s-3.59-16.11-5.17-24.37c-1.56-8.26-4.14-16.64-7.74-25.19-2.9-6.89-5.19-13.91-6.87-21.07-1.71-7.14-2.97-14.39-3.78-21.72-.55-4.17-1.26-9.66-2.17-16.43-.89-6.79-3.37-11.37-7.46-13.71-3.59-1.74-6.36-1.71-8.28.14-1.94 1.83-3.34 4.46-4.25 7.87-.87 3.41-1.44 7.1-1.67 11.08-.21 3.98-.64 7.1-1.23 9.36-2.01 10.82-3.69 20.64-5.03 29.5-1.33 8.88-5.22 17.55-11.63 26.07-2.04 2.2-3.2 4.42-3.43 6.63-.25 2.18-.78 4.81-1.56 7.82-1.51 6.41-4.48 11.35-8.93 14.8-4.48 3.43-9.89 4.42-16.31 2.9-7.48-1.62-13.46-5.83-17.92-12.56-4.49-6.75-8.51-13.48-12.08-20.25-1.76-3.2-3.43-6.5-5.04-9.91-1.63-3.41-3.96-6.41-7.02-8.97-.82-.55-2.15-1.35-3.98-2.4-1.85-1.01-3.82-1.95-5.95-2.75-2.15-.8-4.17-1.07-6.07-.85-1.94.23-3.02 1.44-3.27 3.64-1.37 7.07-.98 13.96 1.15 20.66 2.13 6.71 4.28 13.41 6.41 20.11 1.65 6.09 2.79 12.29 3.39 18.6.62 6.31 1.26 12.61 1.86 18.92.55 5.97 1.78 11.69 3.64 17.19 1.9 5.51 3.75 10.92 5.58 16.25 1.86 5.33 3.07 10.6 3.64 15.86.59 5.24-.66 9.96-3.69 14.17-1.44 1.74-2.84 3.48-4.28 5.22-1.4 1.71-2.63 3.59-3.62 5.58-1.35 2.08-1.9 4.16-1.63 6.25.27 2.1.07 4.1-.6 6.02-1.21 2.75-2.33 4.62-3.37 5.54-1.05.94-3.14.85-6.23-.28-1.6-.75-3.13-2.02-4.58-3.85-1.46-1.83-3.07-3.55-4.85-5.15-1.76-1.58-3.52-2.74-5.28-3.43-1.76-.71-3.73-.28-5.91 1.24-2.72 2.36-3.87 6.18-3.46 11.47.39 5.26 1.49 10.83 3.29 16.73 1.76 5.86 3.8 11.62 6.06 17.21 2.26 5.61 3.62 9.59 4.14 11.99.66 3.09.85 6.09.57 9.01-.28 2.93-.46 5.81-.57 8.7-.11 2.88.25 5.84 1.07 8.88.83 3.06.85 6.09.07 9.11-.99 3.78-2.66 6.47-5.01 8.03-2.34 1.56-5.19 1.28-8.49-.87-3.68-2.1-5.9-5.38-6.66-9.86-.78-4.49-1.56-8.61-2.36-12.38-1.46-6.84-2.54-13.68-3.27-20.5s-3.73-13.43-9.02-19.8c-5.91-7.67-11.65-14.96-17.23-21.83-5.56-6.86-11.58-13.73-18.05-20.57-3.27-3.62-5.9-7.25-7.94-10.94-2.02-3.68-4.25-7.76-6.63-12.27-4.35-8.74-8.03-17.69-11.07-26.89-3.02-9.2-5.9-18.49-8.6-27.94-1.37-4.71-2.08-9.4-2.17-14.01-.07-4.64 0-9.31.27-14 .25-4.71.44-9.32.55-13.82.12-4.49-.34-9.13-1.35-13.93-1.55-10.75-3.23-21.58-4.99-32.47-1.78-10.87-4.16-21.74-7.16-32.54z"/><path d="m452.87 693.48c-5.15-12.49-7.46-25.51-6.93-39 .53-13.53 1.4-26.7 2.65-39.47.85-9.47 1.4-19.06 1.67-28.77.27-9.72.8-19.47 1.6-29.29.82-11.28 2.79-22.24 5.9-32.91 3.09-10.67 8.38-20.36 15.83-29.09 10.98-12.34 23.45-21.86 37.41-28.58 13.96-6.7 28.56-12.02 43.82-15.97 13.62-3.25 27.66-5.86 42.06-7.83 14.42-1.99 28.4.25 41.92 6.68 7.6 3.75 14.58 8.35 20.91 13.8 6.36 5.47 13 10.3 19.98 14.55 8.15 4.71 15.56 10.12 22.22 16.2 6.64 6.11 13.34 12.4 20.07 18.83 12.63 12.34 23.16 24.42 31.56 36.23 8.38 11.81 15.26 26.07 20.6 42.84 4.48 14.42 7.99 28.51 10.55 42.27 2.58 13.77 3.82 28.15 3.78 43.18.07 5.35-.12 11.21-.55 17.55-.46 6.36-.98 12.27-1.62 17.78-.96 5.56-2.75 11.12-5.31 16.68-2.58 5.54-4.76 10.83-6.57 15.88-2.81 7.02-6.73 13.84-11.76 20.46-5.04 6.61-10.69 11.99-16.96 16.18-3.39 2.5-7.03 4.35-10.89 5.52-3.87 1.19-7.73 2.34-11.6 3.53-3.85 1.17-7.71 2.42-11.53 3.78-3.84 1.33-7.3 3.23-10.34 5.67-3.06 2.43-6.7 5.61-10.85 9.54-4.17 3.93-7 7.48-8.47 10.64-2.22 4.78-2.72 10.85-1.51 18.29 1.23 7.42 2.75 13.82 4.6 19.15 1.4 3.27 2.72 6.48 3.91 9.63 1.21 3.14 1.83 6.5 1.86 10.07.25 2.79.14 5.68-.3 8.65-.46 2.95-.55 5.83-.32 8.63.44 3.84 1.3 8.31 2.56 13.39 1.28 5.12 2.27 10.27 3.04 15.47.73 5.2.99 10.25.78 15.1-.23 4.88-1.83 8.7-4.81 11.49-4.49 4.17-8.17 4.96-11.05 2.34-2.88-2.63-5.35-6.66-7.39-12.11-2.04-5.47-3.69-11.12-4.92-16.93-1.24-5.81-2.29-9.89-3.14-12.2-2.34-7.73-4.64-15.22-6.89-22.42-2.24-7.21-4.87-14.62-7.9-22.2-2.82-6.55-5.08-13.39-6.79-20.55-1.69-7.14-4.28-13.93-7.78-20.34-1.12-1.9-2.7-3.89-4.76-5.97-2.06-2.06-4.35-3.64-6.89-4.71-2.56-1.08-5.06-1.53-7.53-1.35-2.49.16-4.69 1.53-6.64 4.07-1.44 1.74-2.08 4.21-1.92 7.39.12 3.2.39 6.63.83 10.28.41 3.66.98 7.21 1.71 10.64.73 3.41 1.14 6.2 1.23 8.31.23 14.62.64 28.83 1.24 42.65s1.19 27.99 1.78 42.52c.04 1.79-.04 3.68-.12 5.68-.12 1.99-.53 3.85-1.23 5.61-.71 1.76-1.78 3.06-3.21 3.89-1.44.85-3.45 1.01-6.07.5-4.19-1.26-7.18-4.39-8.95-9.36-1.76-5.01-3.39-9.31-4.88-12.91-2.59-5.54-5.12-11.17-7.58-16.91-2.47-5.74-4.74-11.78-6.8-18.13-1.44-5.06-2.61-10.18-3.52-15.35-.92-5.19-2.27-10.25-4.03-15.24-3.43-11.07-7.89-20.76-13.41-29.08-5.52-8.29-11.53-16.06-18.08-23.25-6.52-7.21-13.39-14.33-20.6-21.39-7.23-7.05-14.23-14.87-21.07-23.43-4.8-5.77-8.6-11.86-11.39-18.26-2.77-6.38-5.74-12.81-8.92-19.29-3.21-6.82-7-13.27-11.31-19.32-4.33-6.06-7.98-12.7-10.94-19.95zm136.16-56.18c-1.3 7.42-.25 14 3.11 19.73 3.36 5.7 7.58 9.64 12.7 11.79 5.1 2.13 10.25 1.94 15.44-.6 5.19-2.5 8.9-8.67 11.1-18.44 2.58-9.84 2.2-17.89-1.08-24.17-3.3-6.27-7.62-10.18-12.95-11.74-5.33-1.55-10.78-.66-16.34 2.66s-9.52 9.52-11.9 18.6c.16.69.18 1.14.04 1.35-.14.2-.18.48-.11.82z"/><path d="m784.22 601.34c-1.4-10.07-2.47-20.14-3.16-30.18-.71-10.04-2.97-19.84-6.77-29.41-2.63-7.32-4.51-14.49-5.65-21.6-1.14-7.09-2.68-14.35-4.62-21.83-1.88-7.09-3.23-13.96-4.09-20.57-.89-6.63-2.08-13.52-3.59-20.71-1.31-6.15-3.5-12.74-6.61-19.79-3.11-7.02-4.28-13.84-3.53-20.43.71-5.17 3.25-9.63 7.62-13.43 4.39-3.78 9.45-6.91 15.19-9.36 5.74-2.47 11.78-4.39 18.1-5.72 6.34-1.35 11.67-1.94 15.99-1.78 5.01.02 9.8.25 14.37.71 4.56.46 9.15 2.17 13.69 5.15 2.98 2.22 5.79 4.94 8.44 8.12 2.65 3.21 5.45 5.91 8.44 8.15 6.16 5.49 12.66 10.46 19.52 14.9 6.84 4.44 12.98 10.21 18.4 17.28 2.02 2.81 3.48 5.9 4.39 9.27.89 3.39 2.52 6.45 4.88 9.15 2.36 2.72 4.97 5.31 7.82 7.74 2.84 2.43 5.58 4.81 8.21 7.1 2.56 1.95 5.72 5.04 9.47 9.27 3.77 4.21 7.66 7.85 11.71 10.92s7.85 4.96 11.4 5.63c3.53.67 6.38-1.53 8.51-6.63.94-2.36 1.15-5.08.67-8.21-.48-3.11-1.17-6.36-2.06-9.75-.91-3.37-1.86-6.75-2.95-10.11-1.07-3.34-1.85-6.22-2.36-8.61-.67-4.87-2.13-11.78-4.4-20.78-2.26-8.99-4.05-18.28-5.35-27.83-1.31-9.56-1.58-18.44-.82-26.64.76-8.21 3.84-13.94 9.22-17.25 4.69-3.13 9.89-5.58 15.61-7.32 5.72-1.76 11.17-3.89 16.34-6.41 5.19-2.52 10.36-4.78 15.49-6.77 5.12-1.97 10.66-3.23 16.63-3.78 16.78-1.78 29.8 4.78 39.02 19.63 2.72 4.42 4.46 8.79 5.2 13.13.73 4.3 1.92 8.61 3.53 12.91 1.07 3.36 2.08 6.07 3.07 8.19.99 2.11 1.86 4.17 2.65 6.16.78 1.97 1.49 4.16 2.18 6.5.67 2.36 1.35 5.08 1.99 8.15 1.19 7.26 2.27 14.46 3.23 21.58.98 7.12 2.59 14.39 4.88 21.76 2.56 8.76 4.8 17.58 6.68 26.48s3.77 17.8 5.65 26.7c1.74 8.21 4.16 15.38 7.26 21.53 3.07 6.15 5.12 13.21 6.09 21.23 1.07 10.14 3.34 20.39 6.79 30.76 3.45 10.34 6.55 20.41 9.34 30.2 5.26 16.39 6.87 32.5 4.87 48.31-.75 6.61-.75 13.39.04 20.37.75 7 .43 13.85-1.01 20.59-1.28 7.42-3.21 14.72-5.83 21.9-2.59 7.16-4.85 14.69-6.73 22.61-1.63 7.5-2.02 14.9-1.21 22.24.85 7.32.11 14.81-2.2 22.47-1.65 5.72-2.74 10.76-3.21 15.17-.52 4.39-.16 9.5 1.08 15.31.94 4.44 2.56 8.67 4.83 12.66 2.27 3.98 4.25 8.29 5.97 12.95 2.11 4.9 2.65 9.98 1.6 15.2-1.03 5.22-3.39 8.85-7.09 10.89-3.68 2.02-7.51 1.15-11.55-2.65-2.15-1.69-3.68-3.87-4.62-6.54-.91-2.66-1.62-5.56-2.08-8.67-.5-3.11-.96-6.16-1.4-9.09-.44-2.95-.92-5.61-1.42-8.01-1.99-6.02-4.3-11.42-6.93-16.23-2.65-4.8-4.81-10.43-6.54-16.86-2.29-9.17-5.12-17.87-8.47-26.11-3.36-8.22-8.29-15.91-14.83-23.13-3.75-4.21-7.53-6.91-11.35-8.06-3.82-1.14-8.12-2.82-12.88-5.04-5.93-2.68-11.56-6.41-16.86-11.19-5.31-4.78-10.41-9.86-15.31-15.26-4.88-5.4-9.63-10.92-14.23-16.55-4.62-5.65-9.2-10.83-13.78-15.59-1.86-2.1-3.69-4.85-5.49-8.22-1.78-3.37-3.66-6.73-5.61-10.07s-4.12-6.38-6.48-9.09c-2.38-2.7-5.24-4.42-8.61-5.15-3.71-.64-5.86.18-6.45 2.45-.59 2.26-.44 5.1.44 8.49.91 3.37 2.08 6.8 3.52 10.23 1.44 3.46 2.45 5.67 3.02 6.61 3.23 6.84 6.15 13.8 8.72 20.96 2.59 7.14 3.82 14.64 3.71 22.54.02 8.58-1.95 16.15-5.93 22.7-3.96 6.57-7.62 13.78-10.98 21.65-1.86 4.67-2.52 9.2-1.95 13.55s1.35 8.83 2.33 13.45c.98 4.64 1.86 9.27 2.66 13.91.8 4.67.66 9.43-.44 14.32-.87 2.68-2.38 5.24-4.56 7.67-2.15 2.43-5.13 3.14-8.93 2.15-2.26-.59-4.39-3.07-6.41-7.48-2.01-4.4-3.62-7.9-4.88-10.5-1.69-2.88-3.52-6.04-5.52-9.56-1.99-3.52-4.17-6.64-6.54-9.34-2.36-2.72-5.13-4.81-8.29-6.29-3.18-1.47-6.82-1.78-10.92-.91-2.06.44-3.43 1.62-4.09 3.53-.66 1.94-1.28 4.12-1.83 6.55-.57 2.45-1.14 4.8-1.72 7.07-.6 2.29-1.86 3.82-3.87 4.58-2.24 1.19-4.28.91-6.07-.85-1.79-1.78-3.25-3.96-4.35-6.61-1.1-2.61-2.11-5.36-3.07-8.19-.96-2.82-1.74-4.88-2.38-6.2-2.95-5.45-6.43-10.09-10.46-13.89-4.01-3.78-8.42-7.67-13.2-11.67-7.41-6.29-11.86-13.32-13.32-21.05-1.46-7.74-2.61-16.18-3.46-25.29-.75-10.21-1.71-20.2-2.86-29.95-1.17-9.77-3.71-19.61-7.58-29.52-3.48-9.63-7.1-19.13-10.89-28.54-3.78-9.38-6.38-19.11-7.8-29.16z"/><path d="m1103.97 411.35c-.87-4.1-1.86-8.81-2.98-14.12-1.14-5.29-2.13-10.82-2.98-16.54s-1.4-11.24-1.62-16.55c-.23-5.31.28-10.07 1.53-14.26 3.91-11.92 10.27-22.01 19.06-30.32 8.79-8.29 18.81-15.06 30.04-20.3s23.05-9.34 35.47-12.34c12.43-2.98 24.32-5.49 35.68-7.55 5.22-.75 10.8-1.03 16.73-.85 5.93.16 11.79.8 17.57 1.9 5.77 1.1 11.33 2.43 16.68 3.98 5.33 1.55 10.3 3.09 14.92 4.62 5.36 1.74 10.52 3.21 15.44 4.51 4.92 1.28 9.43 3.09 13.5 5.45 3.16 1.49 5.93 3.13 8.29 4.96 2.34 1.83 4.94 3.52 7.78 5.06 3.11 1.12 6.18 1.72 9.22 1.79 3.07.05 5.97.69 8.72 1.9 2.7.85 5.38 2.61 8.1 5.28 2.72 2.63 4.87 5.22 6.47 7.74 4.32 5.17 6.16 11.39 5.58 18.67-.37 3.29-1.14 6.48-2.26 9.59-1.14 3.11-2.45 6.23-3.91 9.41-1.49 3.16-2.88 6.32-4.17 9.45-1.3 3.14-1.94 6.48-1.9 10.05-.14 6.13.39 11.99 1.6 17.64 1.19 5.65 1.55 11.56 1.07 17.74-.25 2.2-1.12 4.44-2.59 6.71-1.49 2.27-3.87 3.23-7.19 2.86-2.59-.52-4.51-1.97-5.74-4.4-1.24-2.43-2.58-4.56-4.05-6.39-2.17-3.48-3.77-5.56-4.8-6.22-1.03-.67-3.55-1.12-7.53-1.35-2.97-.44-5.24-1.03-6.82-1.79-1.58-.73-3.11-2.01-4.56-3.84-4.33-5.17-9.29-10.11-14.94-14.81-5.65-4.71-11.67-8.63-18.05-11.74-6.39-3.11-13.07-5.1-20.05-5.95-6.96-.83-13.94 0-20.91 2.58-6.63 2.47-10.62 5.99-11.97 10.57-1.35 4.56.96 9.27 7 14.07 4.92 4.67 11.21 7.73 18.85 9.15 7.62 1.44 14.62 2.72 20.94 3.89 8.45 1.07 15.7 3.18 21.72 6.39 6.06 3.18 12.54 6.73 19.41 10.62 7.76 4.46 15.42 9.01 23.02 13.64 7.62 4.65 14.6 10.23 20.98 16.75 2.98 2.24 5.67 4.78 8.08 7.67 2.38 2.88 4.78 5.68 7.14 8.42 3.41 4.26 6.7 8.85 9.88 13.71 3.2 4.87 6.64 9.41 10.41 13.64 4.94 6.45 10.09 12.15 15.42 17.1 5.35 4.94 8.92 11.71 10.73 20.25 1.46 6.86 1.67 13.41.69 19.7-.99 6.31-1.69 12.72-2.1 19.22-.27 7.21-1.03 14.17-2.29 20.89-1.26 6.68-2.65 13.23-4.16 19.64-1.65 5.7-2.98 11.62-4.01 17.73-1.03 6.13-2.91 11.97-5.67 17.57-2.68 5.95-5.03 12.15-7.03 18.67-2.04 6.5-4.37 12.7-7.05 18.65-2.66 7.71-4.05 14.24-4.16 19.64-.12 5.38-.2 12.2-.23 20.43.02 1.79.18 4.62.44 8.49.3 3.87-.32 6.52-1.81 7.9-1.83 1.46-3.5 2.08-4.96 1.85-1.49-.23-2.81-.94-3.94-2.11-1.15-1.19-2.26-2.58-3.29-4.12-1.07-1.58-1.86-2.84-2.42-3.8-1.69-2.86-2.93-5.72-3.69-8.6-.8-2.86-2.33-5.51-4.64-7.87-2.63-2.31-5.19-3.45-7.71-3.46-2.5 0-4.94.76-7.26 2.36-2.36 1.56-4.35 3.59-5.97 6.06-1.62 2.5-2.86 5.1-3.73 7.78-1.71 5.36-2.34 10.87-1.86 16.48.48 5.63.59 11.14.3 16.57-.57 5.84-1.58 10.71-3.09 14.6-1.49 3.89-2.93 8.49-4.32 13.78s-1.35 10.57.12 15.79 2.91 10.39 4.35 15.44c3.2 10.05 4.94 20.78 5.19 32.17-.16 2.54-.67 5.22-1.49 8.08-.83 2.86-3.14 4.51-7 4.97-3.57.05-5.88-1.17-6.94-3.62-1.05-2.45-2.22-4.99-3.46-7.57-2.34-5.95-3.57-12.22-3.71-18.81-.14-6.57-.78-13.32-1.88-20.25-1.05-6.57-2.68-13.11-4.96-19.59-2.27-6.48-4.4-12.75-6.39-18.76-.3-1.39-.87-3.77-1.78-7.14-.89-3.39-1.99-7.26-3.27-11.63-1.28-4.39-2.68-8.83-4.17-13.34s-3.18-8.72-5.06-12.59c-4.64-8.35-9.29-11.63-13.91-9.93-1.58 1.03-2.58 2.22-3 3.57-.44 1.35-.94 2.79-1.49 4.35-.57 1.53-1.37 2.86-2.38 3.98s-2.81 1.58-5.35 1.39c-4.25.2-7.46-1.46-9.63-4.92s-4.33-6.94-6.5-10.43c-2.93-3.68-5.7-7.55-8.37-11.63-2.65-4.09-5.75-7.73-9.29-10.91-4.44-4.07-9.15-7.82-14.16-11.21-5.03-3.41-10.05-6.91-15.12-10.48-6.43-5.08-12.18-9.86-17.25-14.33-5.06-4.46-10.23-9.89-15.52-16.27-4.8-5.77-10.02-10.66-15.7-14.65-5.68-4-10.78-9.06-15.31-15.26-3.27-3.59-6.41-7.5-9.45-11.67-3.02-4.19-5.08-8.86-6.16-13.98-.89-4.12-.41-8.24 1.39-12.38 1.81-4.14 4.28-8.06 7.44-11.76 3.14-3.71 6.55-7.03 10.23-9.95 3.68-2.93 7.07-5.42 10.2-7.53 6-3.77 12.06-6.91 18.12-9.45 6.07-2.54 12.36-5.4 18.85-8.54 2.33-.87 4.71-2.34 7.12-4.48 2.4-2.13 4.99-4.17 7.8-6.2 2.79-2.02 5.56-3.69 8.33-4.99 2.75-1.31 5.63-1.72 8.58-1.28 4.14.92 7.57 4.1 10.36 9.61 2.77 5.49 5.4 9.95 7.92 13.34 1.46 1.83 2.79 3.89 3.96 6.13 1.21 2.24 2.54 4.3 4 6.13 4.53 6.2 10.3 10.69 17.35 13.5 7.02 2.79 14.26 2.33 21.69-1.39 6.5-3.14 11.01-7.51 13.61-13.05 2.58-5.56 3.57-11.4 2.98-17.55-.57-6.13-2.29-12.11-5.15-17.96-2.82-5.83-6.48-10.76-10.92-14.83-1.72-1.42-3.91-2.84-6.52-4.25-2.63-1.42-4.81-2.84-6.54-4.25-2.49-1.62-4.28-2.95-5.4-3.96s-2.24-1.67-3.37-1.97c-1.14-.28-2.42-.48-3.87-.53-1.42-.04-3.39.02-5.86.18-6.43-.05-13.05 0-19.8.18-6.77.18-13.57.09-20.43-.23-2.9-.11-4.83-.41-5.83-.91-1.01-.52-1.83-1.05-2.5-1.63-.66-.57-1.42-1.21-2.27-1.94-.87-.71-2.5-1.71-4.92-2.97-2.36-.94-4.19-1.62-5.54-2.04-1.35-.44-2.52-.53-3.55-.32s-2.11.52-3.29.94c-1.15.44-2.81.69-4.94.8-4.92.32-10.82.76-17.67 1.33-6.86.53-12.98-.04-18.35-1.76-3.18-1.47-5.33-3.16-6.43-5.08-1.14-1.9-2.02-4.03-2.7-6.39-.69-2.36-1.31-4.92-1.9-7.64-.59-2.75-1.86-5.51-3.89-8.29-5.59-7.76-10.34-14.53-14.24-20.34-3.91-5.77-6.91-13.64-9.01-23.55z"/><path d="m1401.39 351.58c-.99-3-2.63-5.68-4.92-8.06-2.31-2.36-4.26-4.83-5.86-7.34-1.6-2.52-2.95-5.54-4.07-9.08-1.1-3.52-2.27-6.57-3.55-9.15-2.88-6.91-5.22-14.12-6.98-21.6-1.76-7.5-3.48-15.17-5.15-23.05-2.24-10.6-1.37-17.85 2.65-21.74 3.98-3.89 11.14-6.02 21.44-6.43 3.91-.11 7.71.18 11.42.82s7.44 1.37 11.19 2.18c3.75.8 7.44 1.28 11.05 1.42 3.61.12 7.39-.59 11.35-2.15 3.27-1.4 5.79-3.37 7.58-5.9 1.81-2.52 4.51-4.53 8.12-6 4.58-2.02 9.64-3.11 15.17-3.2 5.51-.11 10.75-.32 15.67-.66 8.72-1.12 16.98-1.79 24.8-2.02s15.72-2.61 23.69-7.16c6.07-3.45 12.61-5.52 19.61-6.31 6.98-.75 13.98-1.07 20.98-.96 7 .14 14.1.34 21.31.59 7.21.28 14.23-.32 21.08-1.78 7.87-1.67 14.94-4.23 21.17-7.69 6.23-3.48 13.36-5.7 21.39-6.68 7.67-.91 14.71-2.31 21.1-4.21 6.41-1.88 13.18-4.48 20.36-7.8 6.82-3.21 13.48-5.54 19.98-6.91 6.5-1.39 13.18-.28 20.02 3.27 7.58 3.77 13.02 7.89 16.29 12.38 3.29 4.49 5.61 10.87 7.03 19.17 1.17 7.25 2.68 14.81 4.53 22.65 1.83 7.83 2.98 15.45 3.5 22.86.91 14.46 1.55 28.45 1.9 41.95.36 13.52 2.74 27.32 7.16 41.4 2.08 6.36 4.48 13.09 7.23 20.18 2.77 7.12 3.8 14.12 3.13 21.08-.37 3.29-1.79 6.71-4.26 10.28-2.47 3.55-5.31 6.57-8.54 9.04-3.21 2.47-6.25 3.82-9.06 4.07-2.82.25-4.58-1.35-5.31-4.76l-.11-.53c-1.03-4.8-2.68-8.81-4.99-12.1-2.29-3.27-4.25-7.05-5.88-11.35s-3.64-7.9-6.04-10.8c-2.4-2.88-4.46-6.64-6.15-11.3-2.84-8.33-6.32-14.65-10.46-18.97-4.14-4.3-8.35-6.89-12.65-7.78-4.3-.87-8.63-.21-13 1.95-4.37 2.18-8.42 5.45-12.13 9.82-2.86 3.45-5.36 7.19-7.55 11.23-2.18 4.05-3.78 8.69-4.85 13.91-2.97 14.56-3.04 28.63-.18 42.13 2.86 13.53 5.58 27.18 8.13 40.94 1.81 8.54 3.16 17.03 4.05 25.42.89 8.38 2.1 16.71 3.68 24.97 1.56 8.24 3.48 16.43 5.74 24.53 2.24 8.1 5.44 16 9.57 23.71 4.07 7.37 7.96 15.58 11.65 24.64 3.71 9.02 4.39 18.1 2.02 27.18-1.67 5.72-4.65 10.64-8.95 14.78-4.32 4.12-7.37 8.7-9.17 13.73-1.05 3.45-1.47 6.93-1.28 10.46.23 3.53.89 7.05 1.97 10.59 1.12 3.52 2.22 7.03 3.3 10.55 1.12 3.53 1.86 7.03 2.24 10.53.39 3.5.53 7.57.44 12.24s-1.23 8.49-3.46 11.46c-2.02 2.24-4.12 3.37-6.25 3.46-2.11.11-4.12-.55-6.04-1.94-1.88-1.37-3.71-3.23-5.45-5.54s-3-4.46-3.78-6.43c-1.42-3.29-2.26-6.5-2.59-9.64-.3-3.16-.41-6.27-.36-9.31.07-3.07.12-6.2.16-9.43.02-3.23-.32-6.55-1.05-9.98-.59-2.72-1.53-4.74-2.9-6.07s-2.81-3.07-4.33-5.26c-2.36-2.72-4.1-5.91-5.26-9.63-1.14-3.68-3.32-6.43-6.57-8.24-4.16-2.7-6.55-2.18-7.18 1.53-.66 3.71-.62 8.53.09 14.44.73 5.93 1.72 11.9 3 17.89 1.26 5.99 1.72 9.91 1.4 11.76-.82 6.25-1.78 13.07-2.9 20.46-1.14 7.39-.66 14.26 1.4 20.62 2.36 7.73 5.08 14.65 8.17 20.8 3.09 6.13 5.06 13.78 5.91 22.9.27 4.58.27 8.42.02 11.53-.23 3.07-1.1 6.93-2.63 11.53-1.46 4.96-1.83 9.17-1.1 12.59.73 3.41 1.97 7.62 3.75 12.59.92 2.68 1.9 6.41 2.91 11.19 1.01 4.8 1.33 9.29.96 13.48-.36 4.19-1.76 7.26-4.21 9.22-2.45 1.94-6.38 1.15-11.76-2.34-2.91-1.9-5.1-4.64-6.59-8.26-1.47-3.64-2.66-7.57-3.57-11.85-.92-4.3-1.74-8.58-2.47-12.9s-1.94-7.9-3.62-10.76c-2.24-3.82-3.98-7.39-5.2-10.69-1.24-3.32-2.02-7.44-2.36-12.38-.32-4.94-.57-9.88-.75-14.87-.16-4.97-.39-9.93-.73-14.85-.11-3.93-.36-8.42-.73-13.53-.36-5.1-2.01-9.48-4.92-13.18-3.96-5.22-8.17-10.23-12.58-15.03-4.42-4.8-9.52-9.08-15.33-12.86-4.9-2.88-10.02-5.1-15.36-6.66-5.33-1.55-10.21-4.37-14.65-8.42-4.01-3.8-7.28-8.21-9.77-13.21-2.5-5.03-4.51-10.32-6.06-15.9s-2.66-11.24-3.34-17c-.67-5.74-1.39-11.23-2.13-16.43-1.07-8.37-1.85-16.7-2.34-24.97-.52-8.29-1.71-16.91-3.59-25.81-1.81-8.54-4.21-16.87-7.18-25.03-2.98-8.13-4.69-16.61-5.13-25.45-.36-8.51-.6-17.23-.69-26.15-.12-8.9-2.22-17.23-6.36-24.92-1.9-3.91-3.78-8.06-5.61-12.5s-3.14-8.54-3.94-12.31c-.66-3.07-.83-6.52-.59-10.34.27-3.8.32-7.74.2-11.83-.16-4.09-.76-7.8-1.85-11.15-1.05-3.34-3.21-5.91-6.47-7.74-4.4-2.27-7.92-2.88-10.57-1.78-2.61 1.08-4.67 3.23-6.15 6.39-1.49 3.18-2.34 6.66-2.61 10.48s-.07 7.26.57 10.34c.39 3.5 1.28 6.89 2.7 10.16 1.4 3.29 2.13 6.7 2.18 10.25-.12 2.9-.53 6.02-1.24 9.4-.71 3.37-1.47 6.55-2.26 9.59-.73 3.37-1.72 6.63-3.04 9.77-1.3 3.13-2.5 6.23-3.66 9.36-1.6 4.25-2.11 7.69-1.58 10.25.55 2.56.96 6.15 1.21 10.75-.09 4.65-1.24 8.47-3.48 11.46-2.22 2.98-5.04 4.9-8.4 5.79-3.39.91-6.77.64-10.11-.8s-6.13-4.07-8.38-7.89c-1.67-2.86-2.97-5.97-3.87-9.36-.89-3.39-2.04-6.71-3.46-10-1.47-3.62-3.2-6.75-5.19-9.36-1.99-2.63-3.41-5.97-4.28-10.09-1.67-7.87-4.49-14.42-8.45-19.66-.98-1.23-2.13-2.42-3.45-3.57-1.31-1.15-2.49-2.5-3.55-4.07-1.03-1.56-1.58-3.25-1.58-5.03-.04-1.79-.52-3.29-1.51-4.51-1.6-2.5-3.94-4.35-7.05-5.47-3.09-1.14-5.79-2.88-8.1-5.26-4.58-4.76-6.47-11.15-5.67-19.2-.04-3.57.5-6.52 1.62-8.9 1.08-2.38 1.65-5.19 1.71-8.42.09-2.88-.02-6.34-.34-10.37-.32-4.07-.96-7.41-1.86-10.09z"/><path d="m1814.8 406.2c-.71-6.64-1.31-13.39-1.88-20.25-.55-6.86-1.72-13.68-3.52-20.44-1.49-5.4-3.16-10.69-4.97-15.86-1.81-5.15-3.25-10.28-4.33-15.44-.8-3.75-1.69-7.5-2.65-11.24-.98-3.71-1.55-7.71-1.74-11.95-1.37-11.51-2.04-23.18-2.04-34.97.2-7.55-.8-15.12-2.93-22.7-2.15-7.6-3.85-15.19-5.1-22.81-1.39-8.28-.55-15.26 2.54-20.91 3.09-5.67 7.94-10.64 14.55-14.88 5.33-3.62 10.44-7.32 15.38-11.05 4.92-3.71 10.44-6.39 16.52-8.05 6.09-1.63 12.18-2.84 18.29-3.61 6.09-.75 12.15-2.11 18.17-4.12 5.68-1.9 11.37-4.1 17.12-6.57 5.74-2.45 11.67-4.35 17.83-5.67 6.86-1.44 13.55-2.77 20.09-3.98 6.54-1.19 13.34-1.12 20.43.23 5.58.99 10.57 1.35 15.01 1.14 4.4-.23 8.67-.76 12.79-1.63 4.1-.87 8.35-1.95 12.72-3.25 4.39-1.26 9.32-2.49 14.8-3.66 10.6-2.24 20.25-1.86 28.93 1.12 8.69 2.98 16.11 7.67 22.29 14.05s10.83 14.07 14 23.04c3.16 9.01 4.72 18.51 4.69 28.51-.07 4.67-.98 9.24-2.72 13.73-1.74 4.48-2.26 9.15-1.6 14.01.36 4.94.92 9.82 1.76 14.64.85 4.83-.39 9.56-3.68 14.19-3.3 4.65-7.37 7.1-12.11 7.41-4.78.28-9.22-1.63-13.3-5.77-3.61-3.52-7.1-6.54-10.5-9.04-3.39-2.5-7.64-4.83-12.74-6.96-4.78-2.2-9.45-3.18-14.05-2.93-4.58.27-9.15 1.14-13.66 2.63-4.49 1.49-9.02 3.34-13.57 5.56s-8.97 4.14-13.27 5.75c-1.99.78-4.12 1.23-6.41 1.35-2.31.14-4.69.28-7.16.44-2.47.18-4.72.48-6.79.91-2.04.44-3.82 1.35-5.33 2.74-1.76 1.81-2.75 3.82-3 6-.25 2.2.04 4.37.83 6.54.82 2.15 2.04 4.12 3.68 5.91 1.63 1.81 3.27 3.25 4.94 4.33 5.33 3.14 10.69 4.88 16.11 5.15 5.42.28 10.91-.05 16.41-1.07 5.51-.98 11.08-2.17 16.7-3.53 5.61-1.35 11.26-2.11 16.94-2.24 7.42-.5 13.21 1.6 17.42 6.23 4.21 4.65 7.46 10.32 9.77 16.98 2.29 6.66 3.89 13.75 4.76 21.24.87 7.51 1.9 14 3.06 19.47 1.15 5.47 2.61 11.42 4.32 17.85 1.72 6.45 1.1 11.94-1.86 16.5-2.7 4.16-5.52 6.43-8.47 6.87s-5.83-.02-8.61-1.39c-2.79-1.37-5.68-3.27-8.7-5.67s-5.9-4.21-8.67-5.4c-2.33-.94-5.24-1.58-8.72-1.92-3.46-.34-7.03-.3-10.67.12-3.68.43-7.05 1.4-10.12 2.95-3.07 1.53-5.42 3.55-7.03 6.04-1.55 2.84-2.17 5.83-1.85 8.99.3 3.14 1.12 6.18 2.47 9.11 1.33 2.95 3.21 5.49 5.63 7.67 2.43 2.17 4.83 3.71 7.18 4.65 6.54 2.18 13.57 2.84 21.07 1.97 7.51-.87 14.42-.75 20.75.43 8.53 1.4 18.21 1.15 29.08-.8 10.85-1.94 20.55-3.8 29.11-5.61 15.75-3.34 25.26 2.68 28.53 18.08 1.51 7.19 3.39 15.2 5.61 24.03s3.94 17.76 5.15 26.8c1.19 9.04 1.47 17.9.8 26.64-.66 8.72-3.3 16.45-7.96 23.14-2.17 3.3-4.76 6.27-7.78 8.9-3.04 2.59-6.11 4.96-9.25 7.03-2.5 1.6-5.2 2.81-8.08 3.61-2.88.78-5.22 1.9-7.07 3.36-6.18 4.53-12.79 9.68-19.79 15.45-7 5.79-12.63 12.15-16.87 19.13-3.09 5.67-4.32 10.85-3.68 15.54.62 4.67.28 9.86-1.01 15.51-1.65 5.7-4.37 10.66-8.12 14.85-3.77 4.19-7.12 8.56-10.11 13.13-2.15 3.3-3.52 6.2-4.07 8.63-.55 2.45-.66 4.88-.32 7.32.34 2.43.92 4.81 1.78 7.14.85 2.33 1.99 5.12 3.39 8.4.99 3 2.01 6.91 3.02 11.69 1.01 4.8 1.28 9.48.82 14.03-.46 4.56-1.83 8.19-4.16 10.82-2.29 2.63-6.13 3.07-11.51 1.37-3.02-.8-5.36-2.52-7.02-5.24-1.63-2.68-2.86-5.54-3.69-8.6-.82-3.04-1.31-6.23-1.49-9.59s-.34-6.29-.52-8.76c-.37-10.28-1.78-20.62-4.16-31.01-2.38-10.41-5.35-20.6-8.9-30.59-1.69-4.64-3.59-9.43-5.7-14.33-2.13-4.92-3.71-9.95-4.81-15.08-.73-3.43-.94-7.39-.66-11.92.3-4.53-.75-8.17-3.09-10.87-1.95-2.47-4.55-4.14-7.78-5.08-3.25-.91-6.55-1.37-9.95-1.37-3.41 0-6.91.28-10.55.89-3.64.6-6.64 1.14-9.04 1.65-1.37.28-2.26 1.63-2.63 4.05-.37 2.4-.6 5.12-.67 8.19-.07 3.04-.02 5.9.2 8.53.2 2.63.41 4.48.62 5.51 1.01 4.78 2.18 9.02 3.48 12.66 1.33 3.66 1.97 7.99 1.97 13-.09 4.67-.5 9.48-1.23 14.48-.75 4.99-.78 9.89-.11 14.76.59 2.75 1.21 5.74 1.9 8.99s1.17 6.27 1.4 9.09c.23 2.81-.11 5.38-1.05 7.73-.94 2.34-2.91 4.01-5.91 4.99-4.65 1.72-8.37 1.07-11.14-1.92-2.79-2.98-4.96-6.91-6.52-11.76s-2.61-9.82-3.14-14.88c-.55-5.08-.94-9.02-1.17-11.83-.98-8.01-2.29-15.51-3.96-22.49-1.65-6.98-4.32-14.01-7.96-21.12-2.45-4.83-5.45-8.42-8.97-10.69-3.53-2.29-7.98-4.32-13.36-6.02-5.36-1.74-10.52-3.23-15.44-4.51-4.92-1.3-9.34-4.37-13.23-9.27-6.82-8.56-11.31-17.97-13.5-28.26-2.17-10.27-3.66-20.67-4.48-31.23-.87-10.91-2.34-22.02-4.39-33.39-2.04-11.37-5.03-22.01-8.9-31.9-2.82-6.57-4.67-12.81-5.58-18.67-.87-5.9-1.74-12.5-2.58-19.84z"/><path d="m2119.38 349.75c-3.3-12.18-6.32-24.32-9.06-36.43-2.75-12.11-6.77-23.85-12.04-35.28-7.39-16.31-12.56-33.45-15.47-51.42-2.9-17.97-5.9-35.93-8.99-53.87-.87-4.12-1.99-8.97-3.34-14.58-1.39-5.61-2.5-11.37-3.41-17.25-.89-5.9-1.08-11.49-.59-16.78.5-5.28 2.27-9.88 5.4-13.75 3.45-3.94 8.69-6.66 15.7-8.15 7.03-1.49 14.62-2.36 22.77-2.68 8.17-.28 16.15-.64 23.93-1.03 7.8-.39 14.48-1.72 20.09-3.98 6.29-2.4 12.45-4.07 18.53-4.99 6.04-.94 12.47-2.31 19.25-4.09 6.07-1.65 12.1-4.09 18.03-7.3 5.93-3.23 11.85-6.18 17.71-8.85 7.51-3.37 15.58-5.81 24.21-7.28 8.63-1.46 16.89-2.13 24.8-2.02 8.22.05 15.77 2.74 22.63 8.08 6.86 5.33 13.46 10.37 19.84 15.12 10.99 8.03 22.08 17.32 33.23 27.82 11.19 10.52 20.53 21.76 28.08 33.75 6.64 11.1 11.3 24.24 14 39.41 2.66 15.15 3.8 29.4 3.39 42.73-.12 6.09-.82 12.13-2.06 18.13-1.23 5.97-2.66 11.81-4.33 17.53-1.1 4.88-2.52 9.11-4.28 12.7-1.92 4.35-4.25 9.04-6.93 14.09-2.7 5.04-4.05 10.07-4.05 15.06 0 6.8 1.86 12.56 5.54 17.34 3.69 4.76 8.19 9.08 13.48 12.97s10.87 7.44 16.75 10.67c5.86 3.21 11.28 6.45 16.27 9.7 4.23 3.02 8.44 5.7 12.7 8.05 4.25 2.31 8.29 5.03 12.17 8.12 3.41 2.52 6.07 5.44 8.05 8.76 1.95 3.36 4.46 6.31 7.5 8.9 2.31 2.36 4.94 4.21 7.9 5.54 2.95 1.37 5.61 3.37 7.99 6.11 4.65 5.1 8.22 10.94 10.69 17.57 2.49 6.64 2.66 13.39.53 20.27-.91 4.14-2.72 7.82-5.42 11.08-2.72 3.25-4.74 6.8-6.06 10.66-1.4 3.52-2.29 7.37-2.66 11.56-.36 4.19-.52 8.06-.48 11.63.09 7.14 1.33 14.28 3.73 21.47 2.43 7.16 2.98 14.48 1.71 21.9-.8 3.02-1.72 5.81-2.79 8.37-1.07 2.54-1.55 5.77-1.44 9.68-.11 2.9.43 6.18 1.55 9.86 1.15 3.69 2.04 7.09 2.7 10.16.59 2.75.83 6.09.78 10.02-.05 3.96-.59 7.83-1.58 11.62-.98 3.78-2.47 7.23-4.51 10.34-2.02 3.13-4.71 5.19-8.05 6.27-3.64 1.47-6.41.99-8.37-1.46-1.95-2.45-3.14-5.59-3.61-9.43-.25-4.6-.57-8.99-.91-13.2-.37-4.23-1.08-8.9-2.18-14.03-1.81-8.56-4.78-16.7-8.92-24.39-4.14-7.71-7.9-15.33-11.26-22.82-1.42-3.29-3.2-5.75-5.35-7.46-2.15-1.69-4.19-3.77-6.15-6.2-2.02-2.79-4.49-6.48-7.44-11.03-2.93-4.56-6.15-8.37-9.63-11.37-3.52-3.02-7.03-4.51-10.6-4.46-3.57.02-7.02 3.25-10.3 9.68-1.47 3.18-2.01 6.16-1.6 8.92.41 2.79-1.12 5.26-4.58 7.42-3.84 2.22-7.32 1.79-10.48-1.28-3.16-3.09-5.52-5.88-7.14-8.42-2.95-5.45-5.86-10.37-8.76-14.78-2.91-4.37-6.13-9.06-9.7-14.03-3.46-4.62-6.93-9.54-10.34-14.71-3.43-5.17-7.39-9.96-11.9-14.37-3.2-3.25-6.71-5.91-10.53-7.96-3.84-2.04-7.53-4.67-11.07-7.85-2.97-2.22-5.86-4.94-8.67-8.08-2.82-3.16-6.2-4.69-10.11-4.58-4.25.2-7 1.58-8.24 4.16-1.23 2.59-1.65 5.65-1.28 9.15.37 3.48 1.31 7.05 2.81 10.66 1.47 3.62 2.59 6.41 3.37 8.4 2.82 6.55 5.47 13.59 7.96 21.12 2.49 7.51 1.99 14.87-1.51 22.02-1.19 2.75-2.77 4.99-4.74 6.66s-4.17 3.11-6.61 4.33c-2.42 1.23-4.71 2.61-6.89 4.14-2.18 1.55-4.1 3.39-5.81 5.52-2.15 3.32-2.9 7.41-2.22 12.27.66 4.87 1.4 9.18 2.2 12.95 1.01 4.78 1.49 8.7 1.4 11.76-.05 3.06-1.07 6.77-3 11.08-1.67 3.94-3.14 7.55-4.4 10.87-1.28 3.3-1.63 7.05-1.1 11.23.18 4.26 1.03 8.28 2.56 12.08 1.51 3.78 2.4 7.96 2.66 12.58.11 3.91-.02 7.96-.39 12.13-.36 4.21-.66 8.28-.89 12.27-.23 3.98-.23 8.17-.02 12.59.23 4.42-.2 8.37-1.24 11.79-1.4 3.53-4.1 5.97-8.1 7.35-4.01 1.39-7.67.99-10.98-1.17-3.32-2.15-5.86-5.28-7.62-9.36-1.78-4.1-3.36-7.8-4.76-11.07-1.07-3.36-2.93-7.07-5.58-11.15-1.62-2.52-3.36-4.85-5.22-6.93-1.88-2.11-3.18-4.88-3.91-8.31s-.92-6.87-.59-10.34c.34-3.46.32-6.94-.07-10.44-1.37-11.51-5.59-21.35-12.68-29.48-7.1-8.15-14.74-16.02-22.97-23.57-8.21-7.55-15.95-15.4-23.21-23.52s-11.81-18.22-13.68-30.35c-1.21-9.02-2.26-18.29-3.2-27.74-.92-9.47-1.65-18.79-2.18-27.97-.82-12.33-2.7-24.62-5.65-36.87-2.95-12.26-5.88-24.32-8.74-36.23zm114.99-125.72c.37 1.71.59 4.07.69 7.1.11 3 .66 5.12 1.62 6.36 2.38 2.7 5.2 3 8.51.87 3.3-2.13 5.74-3.71 7.3-4.78 7.96-6.32 11.08-13.14 9.34-20.48-1.74-7.3-6.47-13.18-14.19-17.64-2.84-1.53-6.06-2.01-9.7-1.42s-6.18 2.47-7.66 5.63c-2.02 4-2.04 8.13-.07 12.36s3.36 8.22 4.16 11.99z"/><path d="m2418.42 133.02c-.87-4.09-1.86-8.81-2.98-14.1s-2.13-10.82-2.98-16.54c-.85-5.74-1.4-11.24-1.62-16.55-.23-5.33.28-10.07 1.55-14.26 3.89-11.92 10.25-22.02 19.04-30.32 8.81-8.29 18.81-15.06 30.05-20.32 11.23-5.22 23.04-9.34 35.47-12.33 12.42-2.98 24.32-5.51 35.67-7.57 5.22-.73 10.8-1.03 16.73-.85 5.95.18 11.79.82 17.57 1.92 5.77 1.1 11.33 2.43 16.68 3.98 5.33 1.55 10.3 3.09 14.92 4.62 5.36 1.72 10.52 3.21 15.44 4.49s9.43 3.11 13.5 5.45c3.18 1.49 5.93 3.14 8.31 4.97 2.34 1.83 4.94 3.5 7.76 5.04 3.11 1.12 6.18 1.72 9.24 1.81 3.06.05 5.95.69 8.7 1.9 2.7.85 5.4 2.61 8.1 5.28 2.72 2.63 4.87 5.2 6.47 7.74 4.32 5.17 6.18 11.39 5.58 18.65-.37 3.3-1.14 6.5-2.26 9.59-1.14 3.13-2.43 6.25-3.91 9.43-1.49 3.16-2.88 6.32-4.17 9.45-1.3 3.14-1.94 6.48-1.9 10.05-.14 6.11.39 11.99 1.6 17.64 1.19 5.65 1.56 11.56 1.07 17.73-.25 2.22-1.12 4.46-2.59 6.73-1.49 2.27-3.87 3.23-7.18 2.86-2.61-.52-4.53-1.99-5.75-4.4-1.24-2.43-2.58-4.56-4.03-6.39-2.18-3.48-3.78-5.56-4.81-6.23-1.03-.66-3.53-1.12-7.53-1.33-2.97-.44-5.24-1.05-6.8-1.79-1.6-.73-3.13-2.01-4.58-3.85-4.32-5.15-9.29-10.09-14.94-14.8s-11.67-8.63-18.05-11.74c-6.38-3.13-13.07-5.1-20.04-5.95-6.98-.85-13.96 0-20.92 2.56-6.63 2.47-10.62 5.99-11.97 10.59-1.35 4.56.98 9.27 7 14.05 4.94 4.69 11.21 7.74 18.85 9.17 7.62 1.44 14.62 2.72 20.94 3.87 8.45 1.08 15.7 3.2 21.74 6.41 6.04 3.18 12.52 6.73 19.41 10.62 7.74 4.44 15.42 8.99 23 13.64 7.62 4.64 14.62 10.23 20.98 16.73 2.98 2.24 5.67 4.8 8.08 7.69 2.4 2.88 4.78 5.68 7.14 8.42 3.41 4.26 6.71 8.85 9.88 13.71 3.2 4.87 6.64 9.41 10.41 13.62 4.94 6.47 10.09 12.17 15.44 17.1 5.33 4.96 8.9 11.72 10.71 20.27 1.46 6.86 1.69 13.41.69 19.7-.99 6.29-1.69 12.7-2.1 19.22-.27 7.21-1.03 14.16-2.29 20.87-1.24 6.7-2.65 13.25-4.16 19.66-1.63 5.7-2.98 11.62-4.01 17.73-1.03 6.13-2.91 11.97-5.67 17.57-2.68 5.93-5.01 12.15-7.03 18.67-2.04 6.48-4.37 12.7-7.05 18.65-2.65 7.71-4.05 14.24-4.16 19.64-.11 5.38-.2 12.18-.23 20.43.02 1.79.18 4.6.44 8.49.3 3.87-.32 6.52-1.81 7.9-1.83 1.46-3.5 2.08-4.96 1.85-1.49-.23-2.81-.94-3.94-2.11-1.15-1.19-2.24-2.58-3.29-4.14-1.07-1.56-1.85-2.82-2.42-3.78-1.69-2.86-2.91-5.72-3.69-8.6s-2.33-5.51-4.62-7.87c-2.65-2.31-5.2-3.46-7.71-3.46-2.52 0-4.96.76-7.28 2.34-2.36 1.58-4.33 3.59-5.95 6.07-1.62 2.5-2.88 5.1-3.73 7.78-1.72 5.36-2.36 10.87-1.86 16.48.48 5.61.57 11.14.28 16.57-.55 5.84-1.58 10.69-3.07 14.6-1.51 3.89-2.95 8.47-4.33 13.78-1.39 5.29-1.33 10.55.12 15.79 1.47 5.22 2.91 10.37 4.35 15.44 3.2 10.05 4.94 20.78 5.2 32.17-.18 2.54-.67 5.22-1.51 8.08-.83 2.86-3.14 4.51-7 4.97-3.57.04-5.88-1.17-6.93-3.62-1.05-2.47-2.22-4.99-3.48-7.58-2.33-5.95-3.57-12.2-3.71-18.79s-.76-13.34-1.88-20.25c-1.03-6.57-2.68-13.11-4.96-19.59-2.27-6.5-4.39-12.77-6.39-18.77-.28-1.37-.87-3.75-1.76-7.14-.91-3.37-2.01-7.25-3.29-11.63-1.28-4.37-2.66-8.81-4.17-13.32-1.47-4.53-3.16-8.72-5.06-12.61-4.64-8.33-9.27-11.63-13.91-9.93-1.58 1.05-2.58 2.24-3 3.59-.44 1.35-.94 2.79-1.49 4.35-.57 1.53-1.35 2.86-2.38 3.98-1.01 1.1-2.81 1.58-5.35 1.39-4.25.2-7.44-1.46-9.63-4.94-2.17-3.46-4.33-6.94-6.5-10.41-2.93-3.68-5.7-7.55-8.37-11.63-2.65-4.09-5.74-7.74-9.29-10.91-4.44-4.07-9.15-7.82-14.16-11.23-5.03-3.39-10.05-6.89-15.12-10.46-6.43-5.08-12.18-9.86-17.23-14.33-5.08-4.46-10.25-9.89-15.54-16.29-4.8-5.77-10.02-10.66-15.7-14.64-5.67-4-10.78-9.08-15.31-15.26-3.27-3.61-6.41-7.51-9.45-11.69-3.02-4.17-5.08-8.85-6.16-13.98-.87-4.1-.41-8.22 1.39-12.36 1.81-4.14 4.28-8.06 7.44-11.76 3.14-3.71 6.55-7.03 10.23-9.95 3.68-2.93 7.07-5.44 10.21-7.53 5.99-3.77 12.04-6.93 18.12-9.47 6.07-2.52 12.34-5.38 18.83-8.54 2.33-.85 4.71-2.33 7.12-4.46 2.4-2.13 4.99-4.19 7.8-6.22 2.79-2.02 5.56-3.68 8.33-4.97 2.75-1.31 5.63-1.74 8.58-1.3 4.14.92 7.57 4.12 10.36 9.61 2.77 5.51 5.42 9.96 7.92 13.34 1.46 1.85 2.79 3.91 3.98 6.15s2.52 4.28 3.98 6.13c4.53 6.18 10.3 10.67 17.35 13.5 7.02 2.79 14.26 2.33 21.7-1.39 6.48-3.16 10.99-7.53 13.59-13.07 2.58-5.54 3.57-11.39 2.98-17.53-.57-6.15-2.29-12.11-5.15-17.96-2.82-5.83-6.47-10.76-10.91-14.85-1.74-1.4-3.91-2.82-6.54-4.25-2.63-1.4-4.81-2.82-6.52-4.25-2.49-1.62-4.3-2.93-5.4-3.96-1.14-1.01-2.26-1.65-3.39-1.97-1.12-.28-2.42-.46-3.85-.52-1.44-.05-3.39.02-5.88.18-6.43-.05-13.05 0-19.8.18s-13.57.09-20.43-.23c-2.9-.12-4.83-.41-5.83-.92-1.01-.5-1.83-1.03-2.5-1.62-.64-.57-1.42-1.21-2.27-1.94-.87-.71-2.5-1.71-4.92-2.97-2.36-.94-4.19-1.62-5.54-2.04-1.33-.44-2.52-.53-3.55-.32-1.01.21-2.11.52-3.29.94-1.15.43-2.81.69-4.94.8-4.92.32-10.82.76-17.67 1.33-6.86.53-12.97-.04-18.35-1.78-3.18-1.46-5.33-3.14-6.43-5.06-1.14-1.9-2.02-4.03-2.7-6.39-.69-2.36-1.31-4.92-1.9-7.64-.57-2.75-1.86-5.51-3.89-8.29-5.59-7.76-10.32-14.53-14.24-20.34-3.91-5.77-6.91-13.64-9.01-23.57z"/></g></svg>