<svg clip-rule="evenodd" fill-rule="evenodd" height="128.5mm" image-rendering="optimizeQuality" shape-rendering="geometricPrecision" text-rendering="geometricPrecision" viewBox="0 0 3556 12850" width="35.56mm" xmlns="http://www.w3.org/2000/svg"><g fill-rule="nonzero"><g fill="#333"><path d="m1082.74 454.04c12-.97 23.53-1.45 34.57-1.45 44.27 0 83.2 8.49 117.05 25.34 33.84 16.98 63.31 44.99 88.42 84.4 25.11 39.29 37.6 81.13 37.6 125.27 0 33.47-10.55 69.85-31.66 109.26-21.1 39.29-48.64 74.21-82.6 104.65s-67.32 47.54-99.94 51.17c-32.63 3.76-54.23 5.58-65.02 5.58-41.12 0-76.18-8.61-104.93-25.83-28.73-17.22-53.73-40.38-74.83-69.36-21.11-28.98-34.81-53.6-41.36-74.09-6.56-20.38-9.83-41.48-9.83-63.18 0-15.4 1.46-30.44 4.49-44.99s10.31-37.96 21.83-70.09c11.65-32.14 35.91-65.12 73.15-99.08 37.11-34.07 81.51-53.23 133.06-57.6zm117.77 52.51c-33.11-17.1-69.86-25.59-110.01-25.59-26.44 0-52.04 4.13-77.03 12.25-24.86 8.25-47.54 20.86-68.04 37.84-20.38 17.09-36.02 39.41-46.95 66.93-10.79 27.65-16.25 57.12-16.25 88.53 0 26.68 4.86 56.63 14.56 89.73 9.71 33.11 29.47 62.82 59.19 89.26 29.84 26.31 59.92 42.44 90.12 48.38 30.33 5.82 53.98 8.73 71.08 8.73 76.91 0 129.42-21.1 157.33-63.18 28.01-42.08 44.51-72.15 49.72-90.22 5.22-18.07 7.77-36.14 7.77-54.08 0-21.47-3.16-42.57-9.34-63.43-6.19-20.97-15.28-41.35-27.3-61.48-12.37-18.67-25.95-34.56-40.63-47.65-14.8-12.98-32.87-24.98-54.22-36.02z"/><path d="m1439.22 786.67c6.43-7.03 14.56-13.22 24.62-18.79 10.08-5.46 19.41-8.25 28.15-8.25 7.03 0 12.97 1.82 18.07 5.58 4.98 3.64 8.37 8 10.31 12.85 1.82 4.85 2.67 7.89 2.67 9.1v3.27c0 5.7-1.94 11.04-5.94 16.13-4.13 4.97-8.98 8.49-14.69 10.55-1.33-.97-5.45-7.15-12.24-18.43-6.92-11.16-13.83-16.01-20.98-14.31-16.38 4.36-27.54 15.16-33.36 32.62-5.94 17.34-8.85 38.68-8.85 64.15 0 10.31.12 20.13.48 29.34.37 9.1.61 18.07.97 26.8.97 4.01 5.82 6.55 14.43 7.76 8.61 1.1 13.22 1.95 13.95 2.19v9.58l-77.87-.49c0-4 3.76-7.76 11.28-11.03 7.52-3.4 11.28-8.01 11.28-14.07v-123.33c0-7.03-3.64-10.55-11.03-10.55-2.31 0-4.98.25-7.9.61-3.03.24-4.73.49-5.09.49l-1.45-10.07c9.1-4 18.68-8.97 28.87-14.67 10.18-5.7 19.64-11.4 28.38-17.22 1.34 2.79 1.94 6.3 1.94 10.67 0 3.64.12 7.28.25 10.79.24 3.52 1.45 6.43 3.75 8.73z"/><path d="m1642.27 757.81c4.97-1.7 10.55-2.54 16.49-2.54 6.43 0 12.62 1.45 18.81 4.24 6.18 2.79 16.49 10.79 30.93 24.01 14.31 13.1 23.77 39.65 28.38 79.67 4.48 39.9 8.24 65.61 11.28 76.88l16.98 8.61c-3.64 2.31-9.09 3.88-16.25 4.97-7.16.97-14.44 1.46-21.83 1.46-4.37 0-8.74 0-13.1 0-4.37 0-8.5-.24-12.5-.49 6.06 0 10.32-2.06 12.74-6.06 2.55-4 3.76-9.09 3.76-15.4 0-4.36-.24-8.97-.85-13.82-.6-4.85-1.09-9.46-1.33-13.71-1.34-3.27-3.52-4.85-6.55-4.85-3.41 0-6.92 1.46-10.56 4.49-13.7 14.55-29.59 26.92-47.79 37.35-18.07 10.43-35.18 15.64-51.18 15.64-9.46 0-18.81-2.3-28.15-7.03-9.45-4.61-16.73-10.31-21.95-17.1-5.22-6.67-7.77-15.16-7.77-25.59 0-9.94 2.79-18.91 8.5-26.8 5.7-7.88 14.07-14.79 24.86-20.73 10.92-6.07 23.42-11.04 37.73-14.8 14.18-3.88 28.62-5.82 43.3-5.82 7.76 0 14.8.49 21.11 1.46 6.42.85 13.09 2.54 20.13 5.09 3.03-3.03 4.48-6.67 4.48-11.03 0-2.67-.97-6.07-3.03-10.07-1.94-4-5.82-12.49-11.52-25.59-5.7-12.97-20.62-19.52-44.63-19.52-11.04 0-20.51 2.3-28.39 7.03s-18.19 12.37-30.93 22.8c5.46-12.37 12.98-23.16 22.68-32.13 9.71-9.1 21.72-16.01 36.15-20.62zm41.97 94.95c-10.07-4.36-21.11-6.55-33.12-6.55-15.4 0-29.84 3.28-43.42 9.95-13.46 6.67-22.56 13.94-27.05 21.7-4.49 7.89-6.79 13.95-6.79 18.32 0 5.33 1.33 10.18 4 14.67 2.67 4.48 7.76 10.55 15.29 17.95 7.52 7.51 16.85 11.27 27.89 11.27 3.27 0 10.07-1.21 20.26-3.51 10.19-2.31 23.65-9.95 40.15-22.92 16.61-12.98 24.86-25.71 24.86-37.96 0-2.3-.61-5.21-1.7-8.49-1.21-3.39-3.39-6.06-6.55-8-3.15-1.94-7.76-4.12-13.82-6.43z"/><path d="m1875.65 756.72c9.34 0 17.46 4.61 24.25 13.7 6.91 9.22 13.47 18.07 19.78 26.8-5.34 1.7-12.87-.36-22.69-6.3-9.94-5.82-16.97-8.73-21.34-8.73-12.99 0-24.38 1.09-34.09 3.27-9.7 2.18-19.29 7.88-28.99 16.98-9.7 9.09-14.55 20.98-14.55 35.77 0 7.16 2.79 17.83 8.49 32.14 5.7 14.3 17.58 27.4 35.66 39.16 17.95 11.77 33.24 18.8 45.85 21.23 12.49 2.3 20.01 3.51 22.69 3.51 8.12 0 15.03-2.91 20.85-8.85s10.8-11.04 14.8-15.16c-2.06 13.34-8.25 24.38-18.8 33.23s-22.69 13.34-36.39 13.34c-47.79 0-77.63-13.58-89.63-40.87-12.01-27.16-18.08-45.35-18.08-54.45 0-8 1.21-16.12 3.76-24.13 2.55-8.12 8.37-19.64 17.59-34.8 9.1-15.16 19.77-26.56 32.02-34.2 12.13-7.76 25.11-11.64 38.82-11.64z"/><path d="m2111.56 784.25c0-10.43 5.71-17.59 17.23-21.71 11.52-4 24.14-6.06 37.97-6.06-5.7 29.22-8.61 58.45-8.61 87.67 0 14.8.73 28.38 2.3 40.87 1.46 12.37 3.15 22.19 4.97 29.22 1.82 7.04 4.13 10.55 6.79 10.55 4.73-.97 8.13-1.45 10.07-1.45 2.06 0 3.27.73 3.52 2.06-7.28 8-17.22 13.95-29.84 17.83-12.5 3.88-22.92 7.03-31.29 9.33 1.57-7.03 3.15-15.03 4.85-24.13 1.58-8.97 2.42-16.98 2.42-24.01 0-7.76-.6-14.79-1.81-21.1-26.81 31.41-45.13 51.9-54.95 61.36-9.83 9.58-23.29 14.31-40.39 14.31-6.44 0-14.68-2.06-25.11-6.31-10.31-4.12-17.95-11.64-22.81-22.55-4.85-10.79-7.27-24.25-7.27-40.38 0-7.64.6-19.4 1.94-35.05 1.33-15.76 1.94-27.28 1.94-34.68 0-8.97-.73-16.73-2.19-23.04 0-4.73-3.27-7.03-9.82-7.03-1.33 0-2.42 0-3.27 0-.73 0-1.58.24-2.19.48 5.95-5.94 13.95-12.12 23.89-18.31 9.96-6.18 18.81-10.06 26.81-11.76.61 4.73.97 9.34.97 14.07v14.06c0 7.28-.36 19.53-1.09 36.75-.73 17.21-1.09 26.55-1.09 27.89 0 12.97.61 24.13 1.82 33.22 1.09 9.22 3.39 19.53 6.79 30.93 3.27 11.27 11.17 16.97 23.66 16.97 8.73 0 24.99-9.21 48.63-27.65 23.66-18.55 35.54-49.71 35.54-93.73 0-2.91 0-5.95-.12-8.74-.12-2.91-.72-8.48-1.69-16.85z"/><path d="m2203.51 459.01c8.37-1.33 20.37-2.42 36.15-3.51 15.76-.97 36.26-1.46 61.73-1.46-.73 3.03-5.46 5.22-14.55 6.55-8.98 1.34-13.47 5.34-13.47 12.01 0 46.56.12 93.25.24 139.81.12 46.57.37 98.96.74 157.29.36 58.32.48 99.92.48 124.66 0 12.12 1.46 21.82 4.25 29.22 2.79 7.28 9.21 12.37 19.28 15.04 4.97.6 10.18-.73 15.76-4.13 5.47-3.51 10.8-6.91 15.78-10.42.6.97.97 2.66.97 5.09 0 5.09-3.04 9.58-9.22 13.34s-11.77 7.03-16.5 9.94c-4.85 2.91-11.28 4.37-19.28 4.37-4 0-7.88-.37-11.52-.97-3.65-.73-8.87-2.06-15.53-4l-8.01-10.07-14.55-370.1-4.01-97.98c-1.34-5.7-5.1-9.22-11.16-10.55-5.94-1.34-11.88-2.79-17.58-4.13z"/><path d="m2494.01 784.25c0-10.43 5.7-17.59 17.22-21.71 11.53-4 24.14-6.06 37.97-6.06-5.7 29.22-8.61 58.45-8.61 87.67 0 14.8.73 28.38 2.3 40.87 1.46 12.37 3.15 22.19 4.97 29.22 1.82 7.04 4.13 10.55 6.79 10.55 4.74-.97 8.14-1.45 10.08-1.45 2.06 0 3.27.73 3.52 2.06-7.28 8-17.23 13.95-29.85 17.83-12.49 3.88-22.92 7.03-31.29 9.33 1.57-7.03 3.15-15.03 4.85-24.13 1.58-8.97 2.42-16.98 2.42-24.01 0-7.76-.6-14.79-1.81-21.1-26.8 31.41-45.13 51.9-54.95 61.36-9.82 9.58-23.29 14.31-40.39 14.31-6.43 0-14.67-2.06-25.11-6.31-10.31-4.12-17.95-11.64-22.8-22.55-4.85-10.79-7.27-24.25-7.27-40.38 0-7.64.6-19.4 1.94-35.05 1.33-15.76 1.94-27.28 1.94-34.68 0-8.97-.73-16.73-2.19-23.04 0-4.73-3.27-7.03-9.83-7.03-1.33 0-2.42 0-3.27 0-.73 0-1.58.24-2.19.48 5.95-5.94 13.96-12.12 23.9-18.31 9.95-6.18 18.8-10.06 26.81-11.76.61 4.73.97 9.34.97 14.07v14.06c0 7.28-.36 19.53-1.09 36.75-.73 17.21-1.09 26.55-1.09 27.89 0 12.97.61 24.13 1.82 33.22 1.09 9.22 3.39 19.53 6.79 30.93 3.27 11.27 11.16 16.97 23.65 16.97 8.74 0 24.99-9.21 48.64-27.65 23.65-18.55 35.53-49.71 35.53-93.73 0-2.91 0-5.95-.12-8.74-.12-2.91-.72-8.48-1.69-16.85z"/><path d="m2645.02 756.72h17.1c10.67 0 19.29 1.09 25.6 3.27 6.31 2.19 11.64 6.8 16.01 13.83-1.34 8-3.64 12.13-6.92 12.13-1.69 0-6.79-4.13-15.27-12.13-8.5-8-14.45-12.01-17.84-12.01-10.55 0-19.65 1.82-26.93 5.58-7.4 3.64-12.49 8.98-15.28 15.89-2.79 6.79-4.25 12.73-4.25 17.82 0 8.73 2.92 17.22 8.74 25.47 5.82 8.24 18.92 15.04 39.3 20.61 20.38 5.58 32.14 12.98 35.54 22.44 3.27 9.34 4.97 16.98 4.97 22.67 0 7.04-1.58 13.83-4.73 20.38-3.28 6.55-8.13 13.58-14.55 21.22-6.55 7.52-13.35 13.46-20.39 17.82-7.03 4.37-15.03 6.55-24.01 6.55-6.43 0-12.98-1.33-19.89-4.12-6.79-2.67-11.89-7.03-15.28-13.22-3.28-8.49-5.7-14.55-7.04-18.31 3.4 0 9.95 3.03 19.89 9.22 9.82 6.18 16.13 9.7 19.05 10.55 2.79.85 7.52 1.33 14.31 1.33 5.33 0 10.43-1.09 15.52-3.27 4.97-2.19 9.22-5.82 12.5-11.04 3.4-5.21 5.09-10.91 5.09-16.98 0-4.97-1.94-10.55-5.82-16.61-3.89-6.06-16.98-12.61-39.42-19.64-22.44-7.04-34.81-15.04-37.36-23.89-2.54-8.98-4.24-16.25-5.33-21.95-.97-5.7-1.47-10.31-1.47-13.58 0-9.46 2.8-19.04 8.5-28.74 5.7-9.83 11.52-17.47 17.34-22.92 5.82-5.58 13.34-8.37 22.32-8.37z"/></g><g fill="#dddad6"><path d="m1082.74 446.37c12.01-.97 23.53-1.45 34.57-1.45 44.27 0 83.2 8.49 117.05 25.34 33.84 16.98 63.32 44.99 88.42 84.4 25.11 39.29 37.6 81.13 37.6 125.27 0 33.47-10.55 69.85-31.66 109.26-21.1 39.29-48.64 74.21-82.6 104.65s-67.31 47.54-99.94 51.17c-32.63 3.76-54.22 5.58-65.02 5.58-41.12 0-76.18-8.61-104.92-25.83s-53.74-40.38-74.84-69.36c-21.11-28.98-34.81-53.6-41.36-74.09-6.55-20.38-9.82-41.48-9.82-63.18 0-15.4 1.46-30.44 4.49-44.99s10.3-37.96 21.82-70.09c11.65-32.14 35.91-65.12 73.15-99.08 37.11-34.07 81.51-53.23 133.06-57.6zm117.77 52.51c-33.11-17.1-69.86-25.59-110.01-25.59-26.44 0-52.04 4.13-77.02 12.25-24.87 8.25-47.55 20.86-68.05 37.84-20.38 17.09-36.02 39.41-46.94 66.93-10.8 27.65-16.26 57.12-16.26 88.53 0 26.68 4.86 56.63 14.57 89.73 9.7 33.11 29.46 62.82 59.18 89.26 29.84 26.31 59.93 42.44 90.12 48.38 30.33 5.82 53.99 8.73 71.08 8.73 76.91 0 129.42-21.1 157.33-63.18 28.02-42.08 44.51-72.15 49.72-90.22 5.22-18.07 7.77-36.14 7.77-54.08 0-21.47-3.16-42.57-9.34-63.43-6.19-20.97-15.28-41.35-27.29-61.48-12.38-18.67-25.96-34.56-40.63-47.65-14.81-12.98-32.87-24.98-54.23-36.02z"/><path d="m1439.22 779c6.43-7.03 14.56-13.22 24.63-18.79 10.07-5.46 19.4-8.25 28.14-8.25 7.04 0 12.98 1.82 18.07 5.58 4.98 3.64 8.37 8 10.31 12.85 1.82 4.85 2.67 7.89 2.67 9.1v3.27c0 5.7-1.94 11.04-5.94 16.13-4.13 4.97-8.98 8.49-14.68 10.55-1.33-.97-5.45-7.15-12.25-18.43-6.92-11.16-13.83-16.01-20.98-14.31-16.38 4.36-27.54 15.16-33.36 32.62-5.94 17.34-8.85 38.68-8.85 64.15 0 10.31.12 20.13.48 29.34.37 9.1.61 18.07.97 26.8.97 4.01 5.82 6.55 14.43 7.76 8.61 1.1 13.23 1.95 13.96 2.19v9.58l-77.87-.49c0-4 3.76-7.76 11.27-11.03 7.52-3.4 11.28-8.01 11.28-14.07v-123.33c0-7.03-3.64-10.55-11.03-10.55-2.31 0-4.98.25-7.89.61-3.03.24-4.73.49-5.09.49l-1.45-10.07c9.09-4 18.67-8.97 28.86-14.67s19.65-11.4 28.38-17.22c1.34 2.79 1.94 6.3 1.94 10.67 0 3.64.12 7.28.25 10.79.24 3.52 1.45 6.43 3.75 8.73z"/><path d="m1642.27 750.14c4.97-1.7 10.55-2.54 16.5-2.54 6.43 0 12.61 1.45 18.8 4.24 6.18 2.79 16.49 10.79 30.93 24.01 14.31 13.1 23.77 39.65 28.38 79.67 4.49 39.9 8.25 65.61 11.29 76.88l16.97 8.61c-3.64 2.31-9.09 3.88-16.25 4.97-7.15.97-14.44 1.46-21.83 1.46-4.37 0-8.74 0-13.1 0-4.37 0-8.49-.24-12.49-.49 6.06 0 10.31-2.06 12.73-6.06 2.55-4 3.76-9.09 3.76-15.4 0-4.36-.24-8.97-.85-13.82-.6-4.85-1.09-9.46-1.33-13.71-1.34-3.27-3.52-4.85-6.55-4.85-3.4 0-6.91 1.46-10.55 4.49-13.71 14.55-29.6 26.92-47.8 37.35-18.07 10.43-35.18 15.64-51.18 15.64-9.46 0-18.8-2.3-28.15-7.03-9.45-4.61-16.73-10.31-21.95-17.1-5.21-6.67-7.76-15.16-7.76-25.59 0-9.94 2.79-18.91 8.49-26.8 5.7-7.88 14.07-14.79 24.86-20.73 10.93-6.07 23.42-11.04 37.73-14.8 14.19-3.88 28.62-5.82 43.3-5.82 7.77 0 14.8.49 21.11 1.46 6.42.85 13.09 2.54 20.13 5.09 3.04-3.03 4.49-6.67 4.49-11.03 0-2.67-.97-6.07-3.03-10.07-1.95-4-5.83-12.49-11.53-25.59-5.7-12.97-20.61-19.52-44.63-19.52-11.04 0-20.5 2.3-28.39 7.03-7.88 4.73-18.19 12.37-30.92 22.8 5.45-12.37 12.97-23.16 22.67-32.13 9.71-9.1 21.72-16.01 36.15-20.62zm41.97 94.95c-10.07-4.36-21.1-6.55-33.12-6.55-15.4 0-29.83 3.28-43.42 9.95-13.46 6.67-22.55 13.94-27.04 21.7-4.5 7.89-6.8 13.95-6.8 18.32 0 5.33 1.33 10.18 4.01 14.67 2.67 4.48 7.76 10.55 15.28 17.95 7.52 7.51 16.85 11.27 27.9 11.27 3.27 0 10.06-1.21 20.25-3.51 10.19-2.31 23.66-9.95 40.15-22.92 16.62-12.98 24.87-25.71 24.87-37.96 0-2.3-.61-5.21-1.7-8.49-1.21-3.39-3.39-6.06-6.55-8s-7.77-4.12-13.83-6.43z"/><path d="m1875.65 749.05c9.34 0 17.46 4.61 24.25 13.7 6.92 9.22 13.47 18.07 19.78 26.8-5.34 1.7-12.86-.36-22.69-6.3-9.94-5.82-16.97-8.73-21.34-8.73-12.98 0-24.38 1.09-34.09 3.27-9.7 2.18-19.28 7.88-28.99 16.98-9.7 9.09-14.55 20.98-14.55 35.77 0 7.16 2.79 17.83 8.49 32.14 5.7 14.3 17.59 27.4 35.66 39.16 17.96 11.77 33.24 18.8 45.85 21.23 12.5 2.3 20.02 3.51 22.69 3.51 8.12 0 15.03-2.91 20.85-8.85s10.81-11.04 14.81-15.16c-2.06 13.34-8.26 24.38-18.81 33.23s-22.68 13.34-36.39 13.34c-47.79 0-77.63-13.58-89.63-40.87-12.01-27.16-18.07-45.35-18.07-54.45 0-8 1.21-16.12 3.76-24.13 2.54-8.12 8.36-19.64 17.58-34.8 9.1-15.16 19.78-26.56 32.02-34.2 12.13-7.76 25.12-11.64 38.82-11.64z"/><path d="m2111.57 776.58c0-10.43 5.7-17.59 17.22-21.71 11.52-4 24.14-6.06 37.97-6.06-5.7 29.22-8.61 58.45-8.61 87.67 0 14.8.73 28.38 2.3 40.87 1.46 12.37 3.15 22.19 4.97 29.22 1.82 7.04 4.13 10.55 6.79 10.55 4.73-.97 8.13-1.45 10.07-1.45 2.07 0 3.28.73 3.53 2.06-7.29 8-17.23 13.95-29.85 17.83-12.49 3.88-22.92 7.03-31.29 9.33 1.57-7.03 3.15-15.03 4.85-24.13 1.58-8.97 2.42-16.98 2.42-24.01 0-7.76-.6-14.79-1.81-21.1-26.8 31.41-45.13 51.9-54.95 61.36-9.82 9.58-23.29 14.31-40.39 14.31-6.43 0-14.68-2.06-25.11-6.31-10.31-4.12-17.95-11.64-22.8-22.55-4.85-10.79-7.28-24.25-7.28-40.38 0-7.64.6-19.4 1.95-35.05 1.33-15.76 1.94-27.28 1.94-34.68 0-8.97-.73-16.73-2.19-23.04 0-4.73-3.28-7.03-9.83-7.03-1.33 0-2.42 0-3.27 0-.73 0-1.58.24-2.19.48 5.95-5.94 13.95-12.12 23.9-18.31 9.95-6.18 18.8-10.06 26.8-11.76.61 4.73.97 9.34.97 14.07v14.06c0 7.28-.36 19.53-1.09 36.75-.73 17.21-1.09 26.55-1.09 27.89 0 12.97.61 24.13 1.82 33.22 1.09 9.22 3.39 19.53 6.8 30.93 3.27 11.27 11.16 16.97 23.65 16.97 8.73 0 24.99-9.21 48.63-27.65 23.66-18.55 35.54-49.71 35.54-93.73 0-2.91 0-5.95-.12-8.74-.12-2.91-.72-8.48-1.69-16.85z"/><path d="m2203.51 451.34c8.37-1.33 20.38-2.42 36.15-3.51 15.76-.97 36.26-1.46 61.73-1.46-.73 3.03-5.46 5.22-14.55 6.55-8.98 1.34-13.46 5.34-13.46 12.01 0 46.56.12 93.25.24 139.81.12 46.57.36 98.96.73 157.29.36 58.32.48 99.92.48 124.66 0 12.12 1.46 21.82 4.25 29.22 2.79 7.28 9.21 12.37 19.28 15.04 4.97.6 10.19-.73 15.77-4.13 5.46-3.51 10.79-6.91 15.77-10.42.6.97.97 2.66.97 5.09 0 5.09-3.04 9.58-9.22 13.34s-11.76 7.03-16.49 9.94c-4.86 2.91-11.29 4.37-19.29 4.37-4 0-7.88-.37-11.52-.97-3.64-.73-8.86-2.06-15.53-4l-8.01-10.07-14.55-370.1-4-97.98c-1.34-5.7-5.1-9.22-11.17-10.55-5.94-1.34-11.88-2.79-17.58-4.13z"/><path d="m2494.01 776.58c0-10.43 5.7-17.59 17.23-21.71 11.52-4 24.13-6.06 37.97-6.06-5.71 29.22-8.62 58.45-8.62 87.67 0 14.8.73 28.38 2.3 40.87 1.46 12.37 3.15 22.19 4.98 29.22 1.82 7.04 4.13 10.55 6.79 10.55 4.73-.97 8.13-1.45 10.07-1.45 2.06 0 3.27.73 3.52 2.06-7.28 8-17.22 13.95-29.85 17.83-12.49 3.88-22.91 7.03-31.28 9.33 1.57-7.03 3.15-15.03 4.85-24.13 1.58-8.97 2.42-16.98 2.42-24.01 0-7.76-.6-14.79-1.81-21.1-26.81 31.41-45.13 51.9-54.96 61.36-9.82 9.58-23.28 14.31-40.39 14.31-6.43 0-14.67-2.06-25.1-6.31-10.32-4.12-17.96-11.64-22.81-22.55-4.85-10.79-7.27-24.25-7.27-40.38 0-7.64.6-19.4 1.94-35.05 1.33-15.76 1.94-27.28 1.94-34.68 0-8.97-.73-16.73-2.19-23.04 0-4.73-3.27-7.03-9.82-7.03-1.33 0-2.42 0-3.27 0-.73 0-1.58.24-2.19.48 5.95-5.94 13.95-12.12 23.89-18.31 9.95-6.18 18.81-10.06 26.81-11.76.61 4.73.97 9.34.97 14.07v14.06c0 7.28-.36 19.53-1.09 36.75-.73 17.21-1.09 26.55-1.09 27.89 0 12.97.61 24.13 1.82 33.22 1.09 9.22 3.39 19.53 6.79 30.93 3.27 11.27 11.16 16.97 23.66 16.97 8.73 0 24.98-9.21 48.63-27.65 23.65-18.55 35.54-49.71 35.54-93.73 0-2.91 0-5.95-.12-8.74-.12-2.91-.72-8.48-1.69-16.85z"/><path d="m2645.02 749.05h17.1c10.68 0 19.29 1.09 25.6 3.27 6.31 2.19 11.64 6.8 16.01 13.83-1.34 8-3.64 12.13-6.92 12.13-1.69 0-6.79-4.13-15.27-12.13-8.49-8-14.45-12.01-17.84-12.01-10.55 0-19.65 1.82-26.92 5.58-7.4 3.64-12.5 8.98-15.29 15.89-2.79 6.79-4.25 12.73-4.25 17.82 0 8.73 2.92 17.22 8.74 25.47 5.83 8.24 18.92 15.04 39.3 20.61 20.38 5.58 32.14 12.98 35.54 22.44 3.27 9.34 4.97 16.98 4.97 22.67 0 7.04-1.58 13.83-4.73 20.38-3.28 6.55-8.13 13.58-14.55 21.22-6.55 7.52-13.34 13.46-20.39 17.82-7.03 4.37-15.03 6.55-24.01 6.55-6.42 0-12.97-1.33-19.89-4.12-6.79-2.67-11.89-7.03-15.28-13.22-3.28-8.49-5.7-14.55-7.04-18.31 3.4 0 9.95 3.03 19.89 9.22 9.83 6.18 16.14 9.7 19.05 10.55 2.79.85 7.52 1.33 14.31 1.33 5.33 0 10.43-1.09 15.53-3.27 4.97-2.19 9.22-5.82 12.49-11.04 3.4-5.21 5.09-10.91 5.09-16.98 0-4.97-1.94-10.55-5.82-16.61s-16.98-12.61-39.42-19.64c-22.44-7.04-34.81-15.04-37.36-23.89-2.54-8.98-4.24-16.25-5.33-21.95-.97-5.7-1.46-10.31-1.46-13.58 0-9.46 2.79-19.04 8.49-28.74 5.7-9.83 11.52-17.47 17.34-22.92 5.83-5.58 13.35-8.37 22.32-8.37z"/></g></g></svg>