<svg clip-rule="evenodd" fill-rule="evenodd" height="128.5mm" image-rendering="optimizeQuality" shape-rendering="geometricPrecision" text-rendering="geometricPrecision" viewBox="0 0 4064 12850" width="40.64mm" xmlns="http://www.w3.org/2000/svg"><g fill-rule="nonzero"><g fill="#2f2f2f"><path d="m407.79 570.38c13.78-1.11 27-1.67 39.67-1.67 50.8 0 95.48 9.75 134.32 29.09 38.83 19.48 72.66 51.63 101.47 96.85 28.81 45.09 43.15 93.1 43.15 143.75 0 38.41-12.11 80.16-36.33 125.39-24.22 45.08-55.82 85.16-94.79 120.09-38.98 34.93-77.26 54.55-114.69 58.72-37.44 4.32-62.22 6.4-74.61 6.4-47.18 0-87.41-9.88-120.4-29.64s-61.67-46.34-85.88-79.59c-24.23-33.26-39.95-61.51-47.47-85.03-7.52-23.38-11.28-47.59-11.28-72.5 0-17.67 1.67-34.93 5.15-51.63s11.84-43.56 25.06-80.43c13.36-36.88 41.2-74.73 83.93-113.7 42.6-39.1 93.54-61.09 152.7-66.1zm135.15 60.26c-38-19.62-80.17-29.36-126.24-29.36-30.35 0-59.72 4.73-88.39 14.05-28.54 9.47-54.57 23.94-78.09 43.42-23.39 19.62-41.34 45.23-53.87 76.82-12.39 31.72-18.65 65.54-18.65 101.58 0 30.62 5.57 64.99 16.7 102.98 11.14 37.99 33.83 72.08 67.93 102.42 34.24 30.2 68.76 48.7 103.42 55.52 34.8 6.68 61.94 10.02 81.57 10.02 88.25 0 148.51-24.21 180.53-72.5 32.15-48.29 51.08-82.8 57.07-103.53 5.99-20.74 8.91-41.47 8.91-62.07 0-24.63-3.62-48.84-10.71-72.78-7.11-24.07-17.55-47.45-31.33-70.55-14.2-21.43-29.79-39.66-46.62-54.69-16.99-14.89-37.73-28.67-62.23-41.33z"/><path d="m910.97 949.31c0-11.96 6.54-20.18 19.77-24.91 13.22-4.59 27.7-6.95 43.57-6.95-6.54 33.53-9.89 67.07-9.89 100.61 0 16.97.85 32.56 2.66 46.89 1.66 14.2 3.61 25.47 5.7 33.54s4.73 12.11 7.79 12.11c5.43-1.12 9.33-1.67 11.55-1.67 2.37 0 3.76.83 4.04 2.36-8.35 9.19-19.76 16.01-34.24 20.46-14.34 4.45-26.3 8.07-35.91 10.71 1.81-8.07 3.62-17.25 5.57-27.69 1.81-10.3 2.78-19.48 2.78-27.55 0-8.91-.69-16.98-2.08-24.22-30.77 36.05-51.79 59.56-63.06 70.42-11.28 10.99-26.73 16.42-46.35 16.42-7.38 0-16.84-2.37-28.82-7.24-11.83-4.73-20.59-13.36-26.16-25.88-5.58-12.38-8.36-27.83-8.36-46.34 0-8.77.7-22.26 2.23-40.22 1.54-18.09 2.23-31.31 2.23-39.8 0-10.29-.83-19.2-2.51-26.44 0-5.42-3.76-8.07-11.27-8.07-1.53 0-2.79 0-3.76 0-.84 0-1.81.28-2.51.56 6.82-6.82 16.01-13.92 27.43-21.01 11.41-7.1 21.57-11.55 30.75-13.5.7 5.43 1.13 10.71 1.13 16.14v16.14c0 8.35-.43 22.41-1.27 42.17-.83 19.76-1.25 30.47-1.25 32 0 14.89.7 27.7 2.09 38.13 1.26 10.58 3.9 22.41 7.8 35.49 3.76 12.94 12.8 19.48 27.14 19.48 10.03 0 28.67-10.57 55.82-31.73 27.14-21.29 40.78-57.05 40.78-107.57 0-3.34 0-6.81-.14-10.02-.14-3.34-.83-9.74-1.94-19.34z"/><path d="m1025.11 572.33c1.95.42 5.01.84 9.33 1.26 4.17.41 8.07.55 11.56.55 5.7 0 14.33-.69 25.88-1.95 11.55-1.39 20.19-2.08 25.89-2.08 5.71 0 10.58.27 14.48.69 3.75.28 7.65 1.53 11.41 3.48-8.21 2.64-15.17 5.01-20.88 6.96-5.7 1.95-8.63 5.7-8.63 11.13v50.66 41.74 34.24 30.05 26.72 22.55 19.2 17.53 15.87 13.08 11.27 10.16 8.49 8.07 6.68 21.01 21.01 6.41c4.18-.84 19.07-8.63 44.68-23.38s44.55-22.13 56.79-22.13c2.37 0 6.68.28 12.81 1.11 24.63 4.6 44.82 14.75 60.55 30.62 15.72 15.72 25.06 31.59 27.98 47.59 2.92 15.87 4.31 27 4.31 33.12 0 23.8-8.07 45.23-24.22 64.29-16.14 19.07-35.08 34.37-56.65 45.92-21.72 11.55-42.03 17.26-60.83 17.26-32.56 0-59.15-12.52-79.48-37.43l-12.66-16.15c0-48.01-1.4-102.83-4.04-164.48-2.78-61.65-5.43-123.02-7.93-184.11-2.51-61.09-3.76-113.97-3.76-158.5-1.11-4.59-5.56-7.37-13.23-8.07-7.65-.84-13.08-1.95-16.14-3.48zm126.67 370.3c-12.67 2.37-23.38 7.1-32.02 14.2-8.63 7.09-14.33 15.58-17.26 25.6-2.92 10.02-5.01 19.48-6.4 28.25-1.25 8.91-1.95 17.54-1.95 26.02 0 14.62 2.51 27.97 7.52 40.36 5.01 12.25 14.75 24.21 29.37 36.04 14.47 11.69 32.15 17.54 52.89 17.54 5.71 0 13.36-.84 22.68-2.37 9.48-1.53 17.83-5.84 25.06-13.22 7.38-7.24 16.71-19.06 28.26-35.21 3.06-11.41 4.59-22.82 4.59-33.95 0-21.99-4.17-40.64-12.66-55.94-8.5-15.45-19.91-27.42-34.24-36.05-14.34-8.62-30.21-12.94-47.46-12.94-5.72 0-11.98.56-18.38 1.67z"/><path d="m1321.72 576.09c9.62-1.53 23.39-2.78 41.48-4.04 18.1-1.11 41.62-1.67 70.86-1.67-.84 3.48-6.27 5.99-16.7 7.52-10.31 1.53-15.46 6.12-15.46 13.78 0 53.43.14 107.01.28 160.45.14 53.43.42 113.55.83 180.48.42 66.94.56 114.67.56 143.06 0 13.91 1.67 25.05 4.87 33.54 3.21 8.35 10.59 14.19 22.14 17.25 5.7.7 11.69-.83 18.09-4.73 6.27-4.04 12.39-7.93 18.1-11.97.69 1.12 1.11 3.06 1.11 5.85 0 5.84-3.48 10.99-10.58 15.3-7.09 4.32-13.5 8.08-18.93 11.42-5.57 3.34-12.94 5-22.13 5-4.59 0-9.05-.41-13.23-1.11-4.17-.83-10.16-2.36-17.81-4.59l-9.18-11.55-16.71-424.71-4.59-112.44c-1.54-6.54-5.85-10.58-12.81-12.11-6.82-1.53-13.64-3.2-20.19-4.73z"/><path d="m1531.21 883.91c3.34-3.06 7.66-12.53 12.95-28.39 5.14-15.86 12.38-23.8 21.56-23.8 4.18 0 9.2 1.12 14.9 3.48 0 8.91-2.22 18.37-6.54 28.67-4.46 10.3-10.72 18.51-18.79 24.63-1.53-.42-5.15-.83-10.86-1.11-5.84-.42-10.16-1.53-13.22-3.48zm28.67 35.48c.42 35.21.97 70.42 1.81 105.76.69 35.35 1.67 59.56 2.92 72.78 1.11 13.08 4.04 20.74 8.92 22.83 4.73 2.08 10.57 3.2 17.53 3.2 7.66 0 13.78-.56 18.37-1.67v5.28c-10.71 6.41-23.24 11.14-37.71 14.48-14.34 3.34-28.54 5.01-42.33 5.15-2.22-9.61-3.89-19.35-4.87-29.09-.97-9.74-1.39-21.43-1.39-34.79 0-6.96.14-17.53.56-32 .42-14.34.56-24.91.56-31.87v-7.52c0-18.78-.98-32.98-2.93-42.44-1.95-9.6-5.28-14.47-10.29-14.47-2.37 0-5.85.55-10.72 1.53-4.73.83-7.51 1.39-8.35 1.39-5.02 0-8.64-1.81-10.86-5.15 11.83-4.31 23.8-8.49 35.63-12.66 12.25-5.43 23.67-12.25 33.97-20.74z"/><path d="m1702.98 927.46c10.02-6.54 20.73-9.74 32.29-9.74 12.25 0 24.22 2.93 35.91 8.63 11.7 5.85 25.61 14.2 41.75 25.33-12.24 14.33-36.18 36.46-71.81 66.66-35.5 30.19-56.94 49.12-64.31 56.77 8.07 12.25 17.96 22.41 29.51 30.2 11.41 7.93 21.71 12.38 30.76 13.64 9.05 1.11 15.87 1.67 20.6 1.67 10.3 0 19.07-1.4 26.17-4.32 7.1-2.78 23.66-12.24 49.41-28.25-8.07 10.3-15.03 18.51-20.74 24.5-5.85 5.98-11.97 9.88-18.51 12.1-6.54 2.09-18.09 6.4-34.8 12.94-16.7 6.54-29.24 9.74-37.72 9.74-5.43 0-9.33-.27-11.83-.83-2.51-.56-9.88-3.76-22.14-9.32-12.38-5.57-25.05-17.12-38.28-34.51-13.36-17.54-20.45-32.01-21.71-43.56-1.11-11.55-1.67-19.62-1.67-24.21 0-22.41 6.68-41.75 19.9-58.03 13.23-16.42 32.3-32.85 57.22-49.41zm35.22 20.32c-7.67-5.01-16.44-7.51-26.04-7.51-16.97 0-30.9 6.96-41.75 21.01-10.72 14.06-16.15 30.06-16.15 48.15 0 17.67 5.43 34.93 16.28 51.91 16.56-10.44 35.64-25.89 57.21-46.48 21.58-20.46 36.05-33.68 43.43-39.39-3.48-5.42-7.52-9.88-12.11-13.63-4.73-3.62-11.55-8.35-20.87-14.06z"/><path d="m1876.68 853.71c2.23-1.25 7.52-5.01 15.87-11.55 8.36-6.54 14.34-9.88 18.1-9.88 2.22 0 4.87 1.25 7.79 3.48v94.77c1.11.41 3.06.83 5.71 1.25 2.78.28 5.28.56 7.51.56 4.6 0 13.79-1.12 27.42-3.21 13.64-2.08 22.28-3.2 26.18-3.2 4.17 0 7.23.28 9.18.56v14.47c-6.54 1.53-19.63 2.65-39.39 3.48-19.62.7-32.85 1.53-39.25 2.23-.84 13.08-1.4 28.11-1.81 44.95-.42 16.97-.56 34.37-.56 52.46 0 20.04.84 35.21 2.37 45.78 1.53 10.58 5.84 19.07 13.08 25.47 7.38 6.26 16.57 9.46 27.7 9.46 3.76 0 7.79-.56 11.97-1.53 4.31-.97 11.56-3.62 21.86-8.07 10.43-4.45 18.09-7.1 22.96-7.93-4.18 13.36-11.83 21.98-22.96 26.02-11.28 4.04-22.14 7.65-33 10.85-10.71 3.2-18.92 4.87-24.78 4.87-12.24 0-23.23-2.92-32.84-8.9-9.61-5.99-15.45-14.75-17.68-26.44-2.09-11.83-3.48-25.05-4.31-40.08-.7-15.03-1.12-31.73-1.12-50.1 0-12.24 0-24.49 0-36.87 0-12.25 0-24.36 0-36.18-1.53-2.37-6.4-4.18-14.75-5.57-8.5-1.25-11.28-5.01-8.64-11.13.43-.42 4.47-.98 12.12-1.81 7.65-.7 12.25-3.62 13.78-8.63-1.67-5.71-2.51-12.66-2.51-20.73 0-3.07.42-8.08 1.26-14.89.83-6.96 1.25-12.11 1.25-15.59 0-5.71-.84-11.97-2.51-18.37z"/><path d="m2054.01 853.71c2.24-1.25 7.53-5.01 15.88-11.55s14.33-9.88 18.09-9.88c2.22 0 4.87 1.25 7.79 3.48v94.77c1.12.41 3.07.83 5.72 1.25 2.78.28 5.28.56 7.51.56 4.59 0 13.78-1.12 27.41-3.21 13.65-2.08 22.28-3.2 26.18-3.2 4.17 0 7.23.28 9.18.56v14.47c-6.54 1.53-19.62 2.65-39.39 3.48-19.62.7-32.84 1.53-39.25 2.23-.84 13.08-1.4 28.11-1.81 44.95-.42 16.97-.56 34.37-.56 52.46 0 20.04.84 35.21 2.37 45.78 1.53 10.58 5.85 19.07 13.09 25.47 7.37 6.26 16.56 9.46 27.69 9.46 3.77 0 7.8-.56 11.98-1.53 4.31-.97 11.55-3.62 21.85-8.07 10.44-4.45 18.1-7.1 22.97-7.93-4.18 13.36-11.83 21.98-22.97 26.02-11.28 4.04-22.13 7.65-33 10.85-10.71 3.2-18.92 4.87-24.77 4.87-12.24 0-23.24-2.92-32.85-8.9-9.6-5.99-15.44-14.75-17.67-26.44-2.09-11.83-3.48-25.05-4.32-40.08-.7-15.03-1.12-31.73-1.12-50.1 0-12.24 0-24.49 0-36.87 0-12.25 0-24.36 0-36.18-1.53-2.37-6.4-4.18-14.75-5.57-8.49-1.25-11.27-5.01-8.63-11.13.42-.42 4.46-.98 12.11-1.81 7.65-.7 12.25-3.62 13.79-8.63-1.68-5.71-2.52-12.66-2.52-20.73 0-3.07.42-8.08 1.26-14.89.84-6.96 1.26-12.11 1.26-15.59 0-5.71-.85-11.97-2.52-18.37z"/><path d="m2285.08 927.46c10.02-6.54 20.74-9.74 32.29-9.74 12.25 0 24.23 2.93 35.92 8.63 11.69 5.85 25.6 14.2 41.75 25.33-12.24 14.33-36.19 36.46-71.82 66.66-35.5 30.19-56.93 49.12-64.3 56.77 8.07 12.25 17.95 22.41 29.5 30.2 11.42 7.93 21.72 12.38 30.76 13.64 9.05 1.11 15.87 1.67 20.61 1.67 10.3 0 19.06-1.4 26.16-4.32 7.1-2.78 23.67-12.24 49.41-28.25-8.07 10.3-15.03 18.51-20.73 24.5-5.85 5.98-11.97 9.88-18.52 12.1-6.54 2.09-18.09 6.4-34.79 12.94-16.71 6.54-29.24 9.74-37.72 9.74-5.44 0-9.34-.27-11.84-.83-2.51-.56-9.88-3.76-22.13-9.32-12.39-5.57-25.06-17.12-38.28-34.51-13.36-17.54-20.46-32.01-21.72-43.56-1.11-11.55-1.67-19.62-1.67-24.21 0-22.41 6.68-41.75 19.91-58.03 13.22-16.42 32.3-32.85 57.21-49.41zm35.22 20.32c-7.66-5.01-16.43-7.51-26.04-7.51-16.97 0-30.89 6.96-41.75 21.01-10.72 14.06-16.15 30.06-16.15 48.15 0 17.67 5.43 34.93 16.28 51.91 16.57-10.44 35.64-25.89 57.22-46.48 21.57-20.46 36.05-33.68 43.43-39.39-3.48-5.42-7.52-9.88-12.11-13.63-4.74-3.62-11.56-8.35-20.88-14.06z"/></g><g fill="#770ba0"><path d="m407.79 561.57c13.78-1.11 27.01-1.67 39.67-1.67 50.8 0 95.48 9.75 134.32 29.09 38.83 19.48 72.66 51.63 101.47 96.85 28.82 45.09 43.15 93.1 43.15 143.75 0 38.41-12.1 80.16-36.33 125.39-24.22 45.08-55.81 85.16-94.78 120.09-38.98 34.93-77.26 54.55-114.7 58.72-37.44 4.32-62.22 6.4-74.61 6.4-47.18 0-87.41-9.88-120.4-29.64s-61.67-46.34-85.88-79.59c-24.23-33.26-39.95-61.51-47.46-85.03-7.52-23.38-11.29-47.59-11.29-72.5 0-17.67 1.67-34.93 5.16-51.63 3.48-16.7 11.83-43.56 25.05-80.43 13.36-36.88 41.2-74.73 83.93-113.7 42.6-39.1 93.55-61.09 152.7-66.1zm135.15 60.26c-38-19.62-80.17-29.36-126.24-29.36-30.35 0-59.71 4.73-88.39 14.05-28.54 9.47-54.56 23.94-78.09 43.42-23.38 19.62-41.34 45.23-53.86 76.82-12.4 31.72-18.66 65.54-18.66 101.58 0 30.62 5.57 64.99 16.71 102.98 11.13 37.99 33.83 72.08 67.92 102.42 34.24 30.2 68.76 48.7 103.42 55.52 34.8 6.68 61.95 10.02 81.57 10.02 88.25 0 148.52-24.21 180.53-72.5 32.15-48.29 51.09-82.8 57.07-103.53 5.99-20.74 8.91-41.47 8.91-62.07 0-24.63-3.62-48.84-10.71-72.78-7.1-24.07-17.55-47.45-31.33-70.55-14.19-21.43-29.79-39.66-46.62-54.69-16.99-14.89-37.73-28.67-62.23-41.33z"/><path d="m910.97 940.5c0-11.96 6.55-20.18 19.77-24.91 13.22-4.59 27.71-6.95 43.57-6.95-6.54 33.53-9.88 67.07-9.88 100.61 0 16.97.84 32.56 2.65 46.89 1.66 14.2 3.61 25.47 5.7 33.54s4.73 12.11 7.79 12.11c5.43-1.12 9.33-1.67 11.55-1.67 2.38 0 3.77.83 4.05 2.36-8.36 9.19-19.77 16.01-34.24 20.46-14.35 4.45-26.31 8.07-35.92 10.71 1.81-8.07 3.62-17.25 5.57-27.69 1.81-10.3 2.78-19.48 2.78-27.55 0-8.91-.69-16.98-2.08-24.22-30.77 36.05-51.78 59.56-63.06 70.42-11.28 10.99-26.72 16.42-46.35 16.42-7.38 0-16.84-2.37-28.81-7.24-11.84-4.73-20.6-13.36-26.17-25.88-5.57-12.38-8.35-27.83-8.35-46.34 0-8.77.7-22.26 2.23-40.22 1.53-18.09 2.22-31.31 2.22-39.8 0-10.29-.83-19.2-2.5-26.44 0-5.42-3.76-8.07-11.28-8.07-1.53 0-2.79 0-3.76 0-.84 0-1.81.28-2.51.56 6.82-6.82 16.02-13.92 27.43-21.01 11.41-7.1 21.58-11.55 30.76-13.5.7 5.43 1.12 10.71 1.12 16.14v16.14c0 8.35-.42 22.41-1.26 42.17-.83 19.76-1.25 30.47-1.25 32 0 14.89.7 27.7 2.09 38.13 1.25 10.58 3.89 22.41 7.79 35.49 3.76 12.94 12.8 19.48 27.15 19.48 10.02 0 28.66-10.57 55.81-31.73 27.15-21.29 40.78-57.05 40.78-107.57 0-3.34 0-6.81-.14-10.02-.14-3.34-.83-9.74-1.94-19.34z"/><path d="m1025.11 563.52c1.95.42 5.01.84 9.34 1.26 4.17.41 8.07.55 11.55.55 5.7 0 14.33-.69 25.88-1.95 11.56-1.39 20.19-2.08 25.89-2.08 5.71 0 10.58.27 14.48.69 3.76.28 7.66 1.53 11.42 3.48-8.21 2.64-15.18 5.01-20.89 6.96-5.7 1.95-8.63 5.7-8.63 11.13v50.66 41.74 34.24 30.05 26.72 22.55 19.2 17.53 15.87 13.08 11.27 10.16 8.49 8.07 6.68 21.01 21.01 6.41c4.18-.84 19.07-8.63 44.68-23.38 25.62-14.75 44.55-22.13 56.8-22.13 2.37 0 6.68.28 12.8 1.11 24.63 4.6 44.82 14.75 60.55 30.62 15.73 15.72 25.06 31.59 27.98 47.59 2.92 15.87 4.31 27 4.31 33.12 0 23.8-8.07 45.23-24.21 64.29-16.15 19.07-35.08 34.37-56.66 45.92-21.71 11.55-42.03 17.26-60.82 17.26-32.57 0-59.16-12.52-79.48-37.43l-12.67-16.15c0-48.01-1.4-102.83-4.04-164.48-2.78-61.65-5.43-123.02-7.93-184.11-2.51-61.09-3.76-113.97-3.76-158.5-1.11-4.59-5.56-7.37-13.22-8.07-7.66-.84-13.09-1.95-16.15-3.48zm126.67 370.3c-12.67 2.37-23.38 7.1-32.01 14.2-8.64 7.09-14.34 15.58-17.27 25.6-2.92 10.02-5.01 19.48-6.4 28.25-1.25 8.91-1.95 17.54-1.95 26.02 0 14.62 2.51 27.97 7.52 40.36 5.01 12.25 14.76 24.21 29.37 36.04 14.47 11.69 32.16 17.54 52.89 17.54 5.71 0 13.37-.84 22.69-2.37 9.47-1.53 17.82-5.84 25.05-13.22 7.39-7.24 16.71-19.06 28.26-35.21 3.06-11.41 4.59-22.82 4.59-33.95 0-21.99-4.17-40.64-12.66-55.94-8.49-15.45-19.91-27.42-34.24-36.05-14.33-8.62-30.21-12.94-47.46-12.94-5.71 0-11.97.56-18.38 1.67z"/><path d="m1321.73 567.28c9.61-1.53 23.38-2.78 41.48-4.04 18.09-1.11 41.62-1.67 70.85-1.67-.84 3.48-6.27 5.99-16.7 7.52-10.3 1.53-15.45 6.12-15.45 13.78 0 53.43.14 107.01.28 160.45.14 53.43.42 113.55.83 180.48.42 66.94.56 114.67.56 143.06 0 13.91 1.67 25.05 4.87 33.54 3.2 8.35 10.58 14.19 22.13 17.25 5.7.7 11.7-.83 18.1-4.73 6.26-4.04 12.38-7.93 18.09-11.97.69 1.12 1.11 3.06 1.11 5.85 0 5.84-3.48 10.99-10.58 15.3-7.09 4.32-13.49 8.08-18.92 11.42-5.58 3.34-12.95 5-22.14 5-4.59 0-9.04-.41-13.22-1.11-4.17-.83-10.17-2.36-17.82-4.59l-9.18-11.55-16.7-424.71-4.6-112.44c-1.54-6.54-5.85-10.58-12.81-12.11-6.82-1.53-13.64-3.2-20.18-4.73z"/><path d="m1531.21 875.1c3.34-3.06 7.66-12.53 12.95-28.39 5.14-15.86 12.38-23.8 21.57-23.8 4.18 0 9.19 1.12 14.89 3.48 0 8.91-2.22 18.37-6.54 28.67-4.45 10.3-10.71 18.51-18.79 24.63-1.53-.42-5.15-.83-10.86-1.11-5.84-.42-10.16-1.53-13.22-3.48zm28.68 35.48c.42 35.21.97 70.42 1.81 105.76.69 35.35 1.67 59.56 2.92 72.78 1.11 13.08 4.04 20.74 8.91 22.83 4.73 2.08 10.57 3.2 17.53 3.2 7.66 0 13.79-.56 18.38-1.67v5.28c-10.72 6.41-23.25 11.14-37.72 14.48-14.34 3.34-28.54 5.01-42.32 5.15-2.22-9.61-3.89-19.35-4.87-29.09-.97-9.74-1.39-21.43-1.39-34.79 0-6.96.14-17.53.56-32 .42-14.34.56-24.91.56-31.87v-7.52c0-18.78-.98-32.98-2.93-42.44-1.95-9.6-5.29-14.47-10.3-14.47-2.37 0-5.85.55-10.72 1.53-4.73.83-7.51 1.39-8.35 1.39-5.01 0-8.63-1.81-10.85-5.15 11.82-4.31 23.79-8.49 35.62-12.66 12.26-5.43 23.67-12.25 33.97-20.74z"/><path d="m1702.98 918.65c10.02-6.54 20.74-9.74 32.29-9.74 12.25 0 24.22 2.93 35.92 8.63 11.69 5.85 25.6 14.2 41.75 25.33-12.25 14.33-36.19 36.46-71.82 66.66-35.5 30.19-56.93 49.12-64.31 56.77 8.08 12.25 17.96 22.41 29.51 30.2 11.41 7.93 21.72 12.38 30.76 13.64 9.05 1.11 15.87 1.67 20.6 1.67 10.31 0 19.07-1.4 26.17-4.32 7.1-2.78 23.67-12.24 49.41-28.25-8.07 10.3-15.03 18.51-20.73 24.5-5.85 5.98-11.98 9.88-18.52 12.1-6.54 2.09-18.09 6.4-34.8 12.94-16.7 6.54-29.23 9.74-37.71 9.74-5.44 0-9.34-.27-11.84-.83-2.51-.56-9.88-3.76-22.13-9.32-12.39-5.57-25.06-17.12-38.28-34.51-13.37-17.54-20.46-32.01-21.72-43.56-1.11-11.55-1.67-19.62-1.67-24.21 0-22.41 6.68-41.75 19.91-58.03 13.22-16.42 32.29-32.85 57.21-49.41zm35.22 20.32c-7.66-5.01-16.43-7.51-26.04-7.51-16.97 0-30.89 6.96-41.75 21.01-10.72 14.06-16.15 30.06-16.15 48.15 0 17.67 5.43 34.93 16.28 51.91 16.57-10.44 35.64-25.89 57.22-46.48 21.57-20.46 36.05-33.68 43.43-39.39-3.48-5.42-7.52-9.88-12.12-13.63-4.73-3.62-11.55-8.35-20.87-14.06z"/><path d="m1876.68 844.9c2.23-1.25 7.53-5.01 15.88-11.55s14.33-9.88 18.09-9.88c2.22 0 4.87 1.25 7.79 3.48v94.77c1.11.41 3.06.83 5.72 1.25 2.78.28 5.28.56 7.51.56 4.59 0 13.78-1.12 27.41-3.21 13.65-2.08 22.28-3.2 26.18-3.2 4.17 0 7.23.28 9.18.56v14.47c-6.54 1.53-19.62 2.65-39.39 3.48-19.62.7-32.85 1.53-39.25 2.23-.84 13.08-1.4 28.11-1.81 44.95-.42 16.97-.56 34.37-.56 52.46 0 20.04.84 35.21 2.37 45.78 1.53 10.58 5.84 19.07 13.09 25.47 7.37 6.26 16.56 9.46 27.69 9.46 3.76 0 7.8-.56 11.98-1.53 4.31-.97 11.55-3.62 21.85-8.07 10.43-4.45 18.1-7.1 22.97-7.93-4.18 13.36-11.84 21.98-22.97 26.02-11.28 4.04-22.13 7.65-33 10.85-10.71 3.2-18.92 4.87-24.77 4.87-12.25 0-23.24-2.92-32.85-8.9-9.6-5.99-15.44-14.75-17.68-26.44-2.09-11.83-3.48-25.05-4.31-40.08-.7-15.03-1.12-31.73-1.12-50.1 0-12.24 0-24.49 0-36.87 0-12.25 0-24.36 0-36.18-1.53-2.37-6.4-4.18-14.75-5.57-8.49-1.25-11.27-5.01-8.63-11.13.42-.42 4.46-.98 12.11-1.81 7.65-.7 12.25-3.62 13.78-8.63-1.67-5.71-2.51-12.66-2.51-20.73 0-3.07.42-8.08 1.26-14.89.83-6.96 1.25-12.11 1.25-15.59 0-5.71-.84-11.97-2.51-18.37z"/><path d="m2054.02 844.9c2.23-1.25 7.52-5.01 15.87-11.55s14.33-9.88 18.1-9.88c2.22 0 4.87 1.25 7.79 3.48v94.77c1.11.41 3.06.83 5.71 1.25 2.78.28 5.28.56 7.51.56 4.59 0 13.78-1.12 27.42-3.21 13.64-2.08 22.27-3.2 26.17-3.2 4.18 0 7.24.28 9.19.56v14.47c-6.55 1.53-19.63 2.65-39.39 3.48-19.63.7-32.85 1.53-39.25 2.23-.84 13.08-1.4 28.11-1.81 44.95-.42 16.97-.56 34.37-.56 52.46 0 20.04.84 35.21 2.37 45.78 1.53 10.58 5.84 19.07 13.08 25.47 7.37 6.26 16.56 9.46 27.7 9.46 3.76 0 7.79-.56 11.97-1.53 4.31-.97 11.55-3.62 21.86-8.07 10.43-4.45 18.09-7.1 22.96-7.93-4.18 13.36-11.83 21.98-22.96 26.02-11.29 4.04-22.14 7.65-33 10.85-10.72 3.2-18.93 4.87-24.78 4.87-12.24 0-23.23-2.92-32.85-8.9-9.6-5.99-15.44-14.75-17.67-26.44-2.09-11.83-3.48-25.05-4.31-40.08-.7-15.03-1.12-31.73-1.12-50.1 0-12.24 0-24.49 0-36.87 0-12.25 0-24.36 0-36.18-1.53-2.37-6.4-4.18-14.76-5.57-8.49-1.25-11.27-5.01-8.63-11.13.42-.42 4.46-.98 12.11-1.81 7.66-.7 12.26-3.62 13.79-8.63-1.67-5.71-2.51-12.66-2.51-20.73 0-3.07.42-8.08 1.26-14.89.83-6.96 1.25-12.11 1.25-15.59 0-5.71-.84-11.97-2.51-18.37z"/><path d="m2285.08 918.65c10.03-6.54 20.74-9.74 32.29-9.74 12.26 0 24.23 2.93 35.92 8.63 11.69 5.85 25.61 14.2 41.75 25.33-12.24 14.33-36.19 36.46-71.82 66.66-35.49 30.19-56.93 49.12-64.3 56.77 8.07 12.25 17.95 22.41 29.51 30.2 11.41 7.93 21.71 12.38 30.75 13.64 9.06 1.11 15.88 1.67 20.61 1.67 10.3 0 19.06-1.4 26.16-4.32 7.11-2.78 23.67-12.24 49.42-28.25-8.08 10.3-15.04 18.51-20.74 24.5-5.85 5.98-11.97 9.88-18.51 12.1-6.54 2.09-18.1 6.4-34.8 12.94-16.71 6.54-29.24 9.74-37.72 9.74-5.43 0-9.33-.27-11.83-.83-2.51-.56-9.89-3.76-22.14-9.32-12.38-5.57-25.06-17.12-38.28-34.51-13.36-17.54-20.45-32.01-21.71-43.56-1.11-11.55-1.67-19.62-1.67-24.21 0-22.41 6.68-41.75 19.9-58.03 13.22-16.42 32.3-32.85 57.21-49.41zm35.22 20.32c-7.66-5.01-16.43-7.51-26.03-7.51-16.98 0-30.9 6.96-41.75 21.01-10.73 14.06-16.16 30.06-16.16 48.15 0 17.67 5.43 34.93 16.29 51.91 16.56-10.44 35.64-25.89 57.21-46.48 21.58-20.46 36.05-33.68 43.43-39.39-3.48-5.42-7.52-9.88-12.11-13.63-4.73-3.62-11.55-8.35-20.88-14.06z"/></g></g></svg>