<svg clip-rule="evenodd" fill-rule="evenodd" height="10mm" image-rendering="optimizeQuality" shape-rendering="geometricPrecision" text-rendering="geometricPrecision" viewBox="0 0 462.54 462.54" width="10mm" xmlns="http://www.w3.org/2000/svg" xmlns:xlink="http://www.w3.org/1999/xlink"><linearGradient id="a" gradientUnits="userSpaceOnUse" x1="16.19" x2="446.35" y1="231.27" y2="231.27"><stop offset="0" stop-color="#e6e6e6"/><stop offset=".329412" stop-color="#7f7f7f"/><stop offset="1" stop-color="#181818"/></linearGradient><path d="m231.27 0c127.73 0 231.27 103.54 231.27 231.27s-103.54 231.27-231.27 231.27-231.27-103.54-231.27-231.27 103.54-231.27 231.27-231.27zm0 16.19c118.79 0 215.08 96.3 215.08 215.08 0 118.79-96.3 215.08-215.08 215.08-118.79 0-215.08-96.3-215.08-215.08 0-118.79 96.3-215.08 215.08-215.08z"/><path d="m231.27 16.19c118.79 0 215.08 96.3 215.08 215.08 0 118.79-96.3 215.08-215.08 215.08-118.79 0-215.08-96.3-215.08-215.08 0-118.79 96.3-215.08 215.08-215.08zm0 30.07c102.18 0 185.02 82.84 185.02 185.02s-82.84 185.02-185.02 185.02-185.02-82.84-185.02-185.02 82.84-185.02 185.02-185.02z" fill="url(#a)"/></svg>