<svg clip-rule="evenodd" fill-rule="evenodd" height="10mm" image-rendering="optimizeQuality" shape-rendering="geometricPrecision" text-rendering="geometricPrecision" viewBox="0 0 486.55 486.55" width="10mm" xmlns="http://www.w3.org/2000/svg"><path d="m243.27 0c134.36 0 243.27 108.92 243.27 243.27 0 134.36-108.92 243.27-243.27 243.27-134.36 0-243.27-108.92-243.27-243.27 0-134.36 108.92-243.27 243.27-243.27zm0 17.03c124.95 0 226.24 101.29 226.24 226.24s-101.29 226.24-226.24 226.24-226.24-101.29-226.24-226.24 101.29-226.24 226.24-226.24z"/><path d="m243.27 17.03c124.95 0 226.24 101.29 226.24 226.24s-101.29 226.24-226.24 226.24-226.24-101.29-226.24-226.24 101.29-226.24 226.24-226.24zm0 31.63c107.48 0 194.62 87.14 194.62 194.62s-87.14 194.62-194.62 194.62-194.62-87.14-194.62-194.62 87.14-194.62 194.62-194.62z" fill="#f9c"/></svg>