<svg clip-rule="evenodd" fill-rule="evenodd" height="3.8mm" image-rendering="optimizeQuality" shape-rendering="geometricPrecision" text-rendering="geometricPrecision" viewBox="0 0 45.23 47.48" width="3.6195mm" xmlns="http://www.w3.org/2000/svg"><path d="m19.57 22.73v-22.73h5.87v22.73zm3.05 24.76c-3.27 0-6.28-.55-9.02-1.66-2.75-1.11-5.13-2.66-7.16-4.65s-3.61-4.33-4.74-7.02-1.69-5.63-1.69-8.83c0-3.61.75-7.09 2.26-10.43 1.5-3.35 3.72-6.05 6.66-8.12l3.05 3.95c-1.62 1.09-2.94 2.44-3.98 4.06-1.03 1.62-1.8 3.35-2.31 5.19s-.76 3.63-.76 5.36c0 2.41.43 4.66 1.3 6.77.86 2.11 2.1 3.95 3.69 5.53 1.6 1.58 3.47 2.81 5.61 3.69s4.49 1.33 7.05 1.33c2.59 0 4.97-.44 7.13-1.33 2.16-.88 4.03-2.11 5.61-3.69s2.81-3.42 3.69-5.53 1.33-4.36 1.33-6.77c0-1.73-.25-3.52-.76-5.36s-1.28-3.57-2.31-5.19-2.36-2.97-3.98-4.06l3.05-3.95c2.93 2.07 5.15 4.77 6.66 8.12 1.5 3.35 2.26 6.82 2.26 10.43 0 3.2-.56 6.14-1.69 8.83s-2.71 5.03-4.74 7.02-4.43 3.54-7.19 4.65-5.76 1.66-8.99 1.66z" fill="#e6e6e6" fill-rule="nonzero"/></svg>