<svg clip-rule="evenodd" fill-rule="evenodd" height="3.8mm" image-rendering="optimizeQuality" shape-rendering="geometricPrecision" text-rendering="geometricPrecision" viewBox="0 0 27.6 28.97" width="3.6195mm" xmlns="http://www.w3.org/2000/svg"><path d="m11.94 13.87v-13.87h3.58v13.87zm1.86 15.11c-2 0-3.83-.34-5.51-1.01-1.68-.68-3.13-1.62-4.37-2.84s-2.2-2.64-2.89-4.28-1.03-3.44-1.03-5.39c0-2.2.46-4.32 1.38-6.37.92-2.04 2.27-3.69 4.06-4.95l1.86 2.41c-.99.66-1.8 1.49-2.43 2.48s-1.1 2.04-1.41 3.17c-.31 1.12-.47 2.21-.47 3.27 0 1.47.26 2.84.79 4.13.53 1.28 1.28 2.41 2.25 3.37.98.96 2.12 1.71 3.42 2.25 1.31.54 2.74.81 4.3.81 1.58 0 3.03-.27 4.35-.81s2.46-1.29 3.42-2.25 1.71-2.09 2.25-3.37.81-2.66.81-4.13c0-1.06-.15-2.14-.47-3.27-.31-1.12-.78-2.18-1.41-3.17s-1.44-1.81-2.43-2.48l1.86-2.41c1.79 1.26 3.14 2.91 4.06 4.95s1.38 4.16 1.38 6.37c0 1.95-.34 3.74-1.03 5.39-.69 1.64-1.65 3.07-2.89 4.28-1.24 1.22-2.7 2.16-4.39 2.84s-3.52 1.01-5.49 1.01z" fill="#00a7ff" fill-rule="nonzero"/></svg>