<svg clip-rule="evenodd" fill-rule="evenodd" height="3.8mm" image-rendering="optimizeQuality" shape-rendering="geometricPrecision" text-rendering="geometricPrecision" viewBox="0 0 2.22 7.25" width="1.1628mm" xmlns="http://www.w3.org/2000/svg"><path d="m.72 7.25c-.24 0-.42-.06-.54-.18-.12-.12-.18-.27-.18-.46 0-.21.06-.4.18-.57.12-.18.27-.32.46-.43s.39-.17.6-.17c.09 0 .18.01.28.03s.19.05.28.09v-5.56h.42v5.59c0 .33-.07.62-.21.86-.14.25-.32.44-.55.58-.22.14-.47.21-.74.21z" fill="#00a7ff" fill-rule="nonzero"/></svg>