<svg clip-rule="evenodd" fill-rule="evenodd" height="10mm" image-rendering="optimizeQuality" shape-rendering="geometricPrecision" text-rendering="geometricPrecision" viewBox="0 0 18747.66 18747.66" width="10mm" xmlns="http://www.w3.org/2000/svg" xmlns:xlink="http://www.w3.org/1999/xlink"><linearGradient id="a" gradientUnits="userSpaceOnUse" x1="656.17" x2="18091.49" y1="9373.83" y2="9373.83"><stop offset="0" stop-color="#ee2020"/><stop offset=".298039" stop-color="#f3f318"/><stop offset=".596078" stop-color="#0ef80e"/><stop offset=".894118" stop-color="#04fdfd"/><stop offset="1" stop-color="#00a7ff"/></linearGradient><path d="m9373.83 0c5176.98 0 9373.83 4196.85 9373.83 9373.83s-4196.85 9373.83-9373.83 9373.83-9373.83-4196.85-9373.83-9373.83 4196.85-9373.83 9373.83-9373.83zm0 656.17c4814.59 0 8717.66 3903.07 8717.66 8717.66s-3903.07 8717.66-8717.66 8717.66-8717.66-3903.07-8717.66-8717.66 3903.07-8717.66 8717.66-8717.66z"/><path d="m9373.83 656.17c4814.59 0 8717.66 3903.07 8717.66 8717.66s-3903.07 8717.66-8717.66 8717.66-8717.66-3903.07-8717.66-8717.66 3903.07-8717.66 8717.66-8717.66zm0 1218.6c4141.54 0 7499.06 3357.52 7499.06 7499.06s-3357.52 7499.06-7499.06 7499.06-7499.06-3357.52-7499.06-7499.06 3357.52-7499.06 7499.06-7499.06z" fill="url(#a)"/></svg>