<svg clip-rule="evenodd" fill-rule="evenodd" height="10mm" image-rendering="optimizeQuality" shape-rendering="geometricPrecision" text-rendering="geometricPrecision" viewBox="0 0 18747.66 18747.66" width="10mm" xmlns="http://www.w3.org/2000/svg"><path d="m9373.83 0c5176.98 0 9373.83 4196.85 9373.83 9373.83s-4196.85 9373.83-9373.83 9373.83-9373.83-4196.85-9373.83-9373.83 4196.85-9373.83 9373.83-9373.83zm0 656.17c4814.59 0 8717.66 3903.07 8717.66 8717.66s-3903.07 8717.66-8717.66 8717.66-8717.66-3903.07-8717.66-8717.66 3903.07-8717.66 8717.66-8717.66z"/><path d="m9373.83 656.17c4814.59 0 8717.66 3903.07 8717.66 8717.66s-3903.07 8717.66-8717.66 8717.66-8717.66-3903.07-8717.66-8717.66 3903.07-8717.66 8717.66-8717.66zm0 1218.6c4141.54 0 7499.06 3357.52 7499.06 7499.06s-3357.52 7499.06-7499.06 7499.06-7499.06-3357.52-7499.06-7499.06 3357.52-7499.06 7499.06-7499.06z" fill="#f00"/></svg>