<?xml version="1.0" encoding="UTF-8"?>
<!DOCTYPE svg PUBLIC "-//W3C//DTD SVG 1.1//EN" "http://www.w3.org/Graphics/SVG/1.1/DTD/svg11.dtd">
<!-- Creator: CorelDRAW -->
<svg xmlns="http://www.w3.org/2000/svg" xml:space="preserve" width="3.8001mm" height="2.8877mm" version="1.1" shape-rendering="geometricPrecision" text-rendering="geometricPrecision" image-rendering="optimizeQuality" fill-rule="evenodd" clip-rule="evenodd"
viewBox="0 0 68.06 51.72"
 xmlns:xlink="http://www.w3.org/1999/xlink"
 xmlns:xodm="http://www.corel.com/coreldraw/odm/2003">
 <g id="Lights">
  <metadata id="CorelCorpID_0Corel-Layer"/>
  <path id="Reset_x0020_Lit" fill="#EFFA6E" fill-rule="nonzero" d="M56.24 19.54l0 -7.6 -15.27 0 0 5.47 -12.44 -8.67 12.44 -8.73 0 5.47 21.74 0 0 14.08 -6.47 0zm-47.51 11.5l-8.74 -12.44 5.47 0 0 -13.13 21.55 0 0 6.47 -15.02 0 0 6.66 5.41 0 -8.67 12.44zm32.3 15.21l0 -6.47 15.02 0 0 -6.66 -5.41 0 8.74 -12.44 8.67 12.44 -5.47 0 0 13.13 -21.56 0zm-13.95 5.47l0 -5.47 -21.74 0 0 -14.08 6.47 0 0 7.6 15.27 0 0 -5.47 12.44 8.74 -12.44 8.67z"/>
 </g>
</svg>
