<svg clip-rule="evenodd" fill-rule="evenodd" height="2.7532mm" image-rendering="optimizeQuality" shape-rendering="geometricPrecision" text-rendering="geometricPrecision" viewBox="0 0 28.96 25.77" width="3.094mm" xmlns="http://www.w3.org/2000/svg"><path d="m3.32 12.42c-.26-.9-1.19-1.42-2.09-1.16s-1.42 1.19-1.16 2.09c2.37 8.28 5.04 12.42 8.02 12.42s5.66-4.14 8.02-12.42c1.9-6.64 3.49-9.96 4.77-9.96s2.87 3.32 4.77 9.96c.26.9 1.19 1.42 2.09 1.16s1.42-1.19 1.16-2.09c-2.37-8.28-5.04-12.42-8.02-12.42s-5.66 4.14-8.02 12.42c-1.9 6.64-3.49 9.96-4.77 9.96s-2.87-3.32-4.77-9.96z" fill="#b3b3b3" fill-rule="nonzero"/></svg>