<svg clip-rule="evenodd" fill-rule="evenodd" height="2.4425mm" image-rendering="optimizeQuality" shape-rendering="geometricPrecision" text-rendering="geometricPrecision" viewBox="0 0 35.11 22.57" width="3.8mm" xmlns="http://www.w3.org/2000/svg"><g fill="#00a7ff"><path d="m15.34 17.29v-12.01h-3.32v12.01z"/><path d="m10.31 17.29v-12.01h-2.47v12.01z"/><path d="m5.68 17.29v-12.01h-1.74v12.01z"/><path d="m1.22 17.29v-12.01h-1.22v12.01z"/><path d="m24.48 22.57c.97-1.95 2.4-3.89 4.28-5.83 1.88-1.93 4-3.65 6.35-5.14v-.65c-1.62-1-3.13-2.12-4.53-3.37-1.39-1.24-2.61-2.52-3.65-3.84-1.04-1.31-1.87-2.56-2.5-3.76h-.73v5.28h-7.31v12.02h7.35v5.28h.73z"/></g></svg>