<?xml version="1.0" encoding="UTF-8"?>
<!DOCTYPE svg PUBLIC "-//W3C//DTD SVG 1.1//EN" "http://www.w3.org/Graphics/SVG/1.1/DTD/svg11.dtd">
<!-- Creator: CorelDRAW -->
<svg xmlns="http://www.w3.org/2000/svg" xml:space="preserve" width="3.8mm" height="2.4425mm" version="1.1" shape-rendering="geometricPrecision" text-rendering="geometricPrecision" image-rendering="optimizeQuality" fill-rule="evenodd" clip-rule="evenodd"
viewBox="0 0 35.11 22.57"
 xmlns:xlink="http://www.w3.org/1999/xlink"
 xmlns:xodm="http://www.corel.com/coreldraw/odm/2003">
 <g id="Layer_x0020_1">
  <metadata id="CorelCorpID_0Corel-Layer"/>
  <g id="layer1" inkscape:label="Layer 1" inkscape:groupmode="layer">
   <polygon id="path0" fill="#E6E6E6" points="15.34,17.29 15.34,5.28 12.02,5.28 12.02,17.29 "/>
   <polygon id="path1" fill="#E6E6E6" points="10.31,17.29 10.31,5.28 7.84,5.28 7.84,17.29 "/>
   <polygon id="path2" fill="#E6E6E6" points="5.68,17.29 5.68,5.28 3.94,5.28 3.94,17.29 "/>
   <polygon id="path3" fill="#E6E6E6" points="1.22,17.29 1.22,5.28 -0,5.28 -0,17.29 "/>
   <path id="path4" fill="#E6E6E6" d="M24.48 22.57c0.97,-1.95 2.4,-3.89 4.28,-5.83 1.88,-1.93 4,-3.65 6.35,-5.14l0 -0.65c-1.62,-1 -3.13,-2.12 -4.53,-3.37 -1.39,-1.24 -2.61,-2.52 -3.65,-3.84 -1.04,-1.31 -1.87,-2.56 -2.5,-3.76l-0.73 0 0 5.28 -7.31 0 0 12.02 7.35 0 0 5.28 0.73 0z"/>
  </g>
 </g>
</svg>
