<svg clip-rule="evenodd" fill-rule="evenodd" height="128.5mm" image-rendering="optimizeQuality" shape-rendering="geometricPrecision" text-rendering="geometricPrecision" viewBox="0 0 6604 12850" width="66.04mm" xmlns="http://www.w3.org/2000/svg" xmlns:xlink="http://www.w3.org/1999/xlink"><linearGradient id="a"><stop offset="0" stop-color="#313231"/><stop offset="1" stop-color="#ccc"/></linearGradient><linearGradient id="b" gradientUnits="userSpaceOnUse" x1="4069.17" x2="4069.17" xlink:href="#a" y1="6005.34" y2="5055.34"/><linearGradient id="c"><stop offset="0" stop-color="#4c4c4c"/><stop offset="1" stop-color="#ccc"/></linearGradient><linearGradient id="d" gradientUnits="userSpaceOnUse" x1="4069.16" x2="4069.16" xlink:href="#c" y1="5105.08" y2="5955.62"/><linearGradient id="e" gradientUnits="userSpaceOnUse" x1="4069.17" x2="4069.17" xlink:href="#a" y1="7468.43" y2="6518.43"/><linearGradient id="f" gradientUnits="userSpaceOnUse" x1="4069.16" x2="4069.16" xlink:href="#c" y1="6568.16" y2="7418.7"/><linearGradient id="g" gradientUnits="userSpaceOnUse" x1="4069.17" x2="4069.17" xlink:href="#a" y1="8931.52" y2="7981.52"/><linearGradient id="h" gradientUnits="userSpaceOnUse" x1="4069.16" x2="4069.16" xlink:href="#c" y1="8031.25" y2="8881.79"/><linearGradient id="i" gradientUnits="userSpaceOnUse" x1="4069.17" x2="4069.17" xlink:href="#a" y1="10394.61" y2="9444.61"/><linearGradient id="j" gradientUnits="userSpaceOnUse" x1="4069.16" x2="4069.16" xlink:href="#c" y1="9494.34" y2="10344.88"/><linearGradient id="k" gradientUnits="userSpaceOnUse" x1="1404.06" x2="1404.06" y1="1192.2" y2="12250.95"><stop offset="0" stop-color="#005f30"/><stop offset=".34902" stop-color="#003e26"/><stop offset="1" stop-color="#001c1c"/></linearGradient><linearGradient id="l"><stop offset="0" stop-color="#313231"/><stop offset="1" stop-color="#b2b2b2"/></linearGradient><linearGradient id="m" gradientUnits="userSpaceOnUse" x1="1264.16" x2="1264.16" xlink:href="#l" y1="2791.61" y2="1991.62"/><linearGradient id="n" gradientUnits="userSpaceOnUse" x1="1264.16" x2="1264.16" xlink:href="#l" y1="4104.52" y2="3304.53"/><linearGradient id="o" gradientUnits="userSpaceOnUse" x1="1264.16" x2="1264.16" xlink:href="#l" y1="11981.98" y2="11181.99"/><linearGradient id="p" gradientUnits="userSpaceOnUse" x1="1264.16" x2="1264.16" xlink:href="#l" y1="10669.07" y2="9869.08"/><linearGradient id="q" gradientUnits="userSpaceOnUse" x1="1264.16" x2="1264.16" xlink:href="#l" y1="9356.16" y2="8556.17"/><linearGradient id="r" gradientUnits="userSpaceOnUse" x1="1264.16" x2="1264.16" xlink:href="#l" y1="8043.25" y2="7243.26"/><linearGradient id="s" gradientUnits="userSpaceOnUse" x1="1264.16" x2="1264.16" xlink:href="#l" y1="6730.34" y2="5930.35"/><linearGradient id="t" gradientUnits="userSpaceOnUse" x1="1264.16" x2="1264.16" xlink:href="#l" y1="5417.43" y2="4617.44"/><linearGradient id="u" gradientUnits="userSpaceOnUse" x1="2256.27" x2="2256.27" xlink:href="#a" y1="2866.62" y2="1916.61"/><linearGradient id="v" gradientUnits="userSpaceOnUse" x1="2256.27" x2="2256.27" xlink:href="#c" y1="1972.04" y2="2811.2"/><linearGradient id="w" gradientUnits="userSpaceOnUse" x1="2239.9" x2="2239.9" xlink:href="#a" y1="4179.53" y2="3229.52"/><linearGradient id="x" gradientUnits="userSpaceOnUse" x1="2239.9" x2="2239.9" xlink:href="#c" y1="3284.95" y2="4124.11"/><linearGradient id="y" gradientUnits="userSpaceOnUse" x1="2239.9" x2="2239.9" xlink:href="#a" y1="5492.44" y2="4542.43"/><linearGradient id="z" gradientUnits="userSpaceOnUse" x1="2239.9" x2="2239.9" xlink:href="#c" y1="4597.86" y2="5437.02"/><linearGradient id="A" gradientUnits="userSpaceOnUse" x1="2239.9" x2="2239.9" xlink:href="#a" y1="6805.35" y2="5855.34"/><linearGradient id="B" gradientUnits="userSpaceOnUse" x1="2239.9" x2="2239.9" xlink:href="#c" y1="5910.77" y2="6749.93"/><linearGradient id="C" gradientUnits="userSpaceOnUse" x1="2239.9" x2="2239.9" xlink:href="#a" y1="8118.26" y2="7168.25"/><linearGradient id="D" gradientUnits="userSpaceOnUse" x1="2239.9" x2="2239.9" xlink:href="#c" y1="7223.68" y2="8062.84"/><linearGradient id="E" gradientUnits="userSpaceOnUse" x1="2239.9" x2="2239.9" xlink:href="#a" y1="9431.17" y2="8481.16"/><linearGradient id="F" gradientUnits="userSpaceOnUse" x1="2239.9" x2="2239.9" xlink:href="#c" y1="8536.59" y2="9375.75"/><linearGradient id="G" gradientUnits="userSpaceOnUse" x1="2239.9" x2="2239.9" xlink:href="#a" y1="10744.08" y2="9794.07"/><linearGradient id="H" gradientUnits="userSpaceOnUse" x1="2239.9" x2="2239.9" xlink:href="#c" y1="9849.5" y2="10688.66"/><linearGradient id="I" gradientUnits="userSpaceOnUse" x1="2239.9" x2="2239.9" xlink:href="#a" y1="12056.99" y2="11106.98"/><linearGradient id="J" gradientUnits="userSpaceOnUse" x1="2239.9" x2="2239.9" xlink:href="#c" y1="11162.41" y2="12001.57"/><linearGradient id="K" gradientUnits="userSpaceOnUse" x1="4709.1" x2="4709.1" y1="4032.69" y2="1192.15"><stop offset="0"/><stop offset=".768627" stop-color="#262626"/><stop offset="1" stop-color="#4c4c4c"/></linearGradient><linearGradient id="L" gradientUnits="userSpaceOnUse" x1="5580.32" x2="5580.32" y1="10557.65" y2="12257.66"><stop offset="0" stop-color="#610000"/><stop offset=".34902" stop-color="#3d0000"/><stop offset="1" stop-color="#180000"/></linearGradient><linearGradient id="M"><stop offset="0" stop-color="#610000"/><stop offset="1" stop-color="#b80000"/></linearGradient><linearGradient id="N" gradientUnits="userSpaceOnUse" x1="1451.15" x2="1451.16" xlink:href="#M" y1="2191.69" y2="2591.54"/><linearGradient id="O" gradientUnits="userSpaceOnUse" x1="1451.15" x2="1451.16" xlink:href="#M" y1="11382.06" y2="11781.91"/><linearGradient id="P" gradientUnits="userSpaceOnUse" x1="1451.15" x2="1451.16" xlink:href="#M" y1="10069.15" y2="10469"/><linearGradient id="Q" gradientUnits="userSpaceOnUse" x1="1451.15" x2="1451.16" xlink:href="#M" y1="8756.24" y2="9156.09"/><linearGradient id="R" gradientUnits="userSpaceOnUse" x1="1451.15" x2="1451.16" xlink:href="#M" y1="7443.33" y2="7843.18"/><linearGradient id="S" gradientUnits="userSpaceOnUse" x1="1451.15" x2="1451.16" xlink:href="#M" y1="6130.42" y2="6530.27"/><linearGradient id="T" gradientUnits="userSpaceOnUse" x1="1451.15" x2="1451.16" xlink:href="#M" y1="4817.51" y2="5217.36"/><linearGradient id="U" gradientUnits="userSpaceOnUse" x1="1451.15" x2="1451.16" xlink:href="#M" y1="3504.6" y2="3904.45"/><linearGradient id="V" gradientUnits="userSpaceOnUse" x1="5009.66" x2="5009.65" xlink:href="#M" y1="9719.68" y2="10119.53"/><linearGradient id="W" gradientUnits="userSpaceOnUse" x1="5009.66" x2="5009.65" xlink:href="#M" y1="8256.59" y2="8656.44"/><linearGradient id="X" gradientUnits="userSpaceOnUse" x1="5009.66" x2="5009.65" xlink:href="#M" y1="6793.5" y2="7193.35"/><linearGradient id="Y" gradientUnits="userSpaceOnUse" x1="5009.66" x2="5009.65" xlink:href="#M" y1="5330.41" y2="5730.26"/><linearGradient id="Z" gradientUnits="userSpaceOnUse" x1="3532.94" x2="3532.94" xlink:href="#a" y1="4759.68" y2="4259.68"/><linearGradient id="aa" gradientUnits="userSpaceOnUse" x1="3532.94" x2="3532.94" xlink:href="#c" y1="4288.85" y2="4730.51"/><linearGradient id="ab" gradientUnits="userSpaceOnUse" x1="4819.63" x2="4819.63" xlink:href="#a" y1="4759.68" y2="4259.68"/><linearGradient id="ac" gradientUnits="userSpaceOnUse" x1="4819.63" x2="4819.63" xlink:href="#c" y1="4288.85" y2="4730.51"/><linearGradient id="ad" gradientUnits="userSpaceOnUse" x1="6106.32" x2="6106.32" xlink:href="#a" y1="4759.68" y2="4259.68"/><linearGradient id="ae" gradientUnits="userSpaceOnUse" x1="6106.32" x2="6106.32" xlink:href="#c" y1="4288.85" y2="4730.51"/><path d="m3594.15 5055.34h950v950h-950z" fill="url(#b)"/><path d="m3643.88 5105.07h850.54v850.54h-850.54z" fill="url(#d)"/><path d="m3677.63 5138.82h783.04v783.04h-783.04z"/><path d="m3594.15 6518.42h950v950h-950z" fill="url(#e)"/><path d="m3643.88 6568.16h850.54v850.54h-850.54z" fill="url(#f)"/><path d="m3677.63 6601.91h783.04v783.04h-783.04z"/><path d="m3594.15 7981.51h950v950h-950z" fill="url(#g)"/><path d="m3643.88 8031.25h850.54v850.54h-850.54z" fill="url(#h)"/><path d="m3677.63 8065h783.04v783.04h-783.04z"/><path d="m3594.15 9444.6h950v950h-950z" fill="url(#i)"/><path d="m3643.88 9494.34h850.54v850.54h-850.54z" fill="url(#j)"/><path d="m3677.63 9528.09h783.04v783.04h-783.04z"/><path d="m0 1192.2h2288.13c285.99 0 519.98 234.01 519.98 519.98v10018.81c0 285.97-233.99 519.98-519.98 519.98h-2288.13v-11058.77z" fill="url(#k)" stroke="#666" stroke-miterlimit="22.9256" stroke-width="26.42"/><path d="m2184.42 1991.62h-2184.42v800h2184.42c189.15 0 343.9-154.75 343.9-343.91v-112.19c0-189.16-154.75-343.9-343.9-343.9z" fill="url(#m)"/><path d="m2184.42 3304.53h-2184.42v800h2184.42c189.15 0 343.9-154.75 343.9-343.91v-112.19c0-189.16-154.75-343.9-343.9-343.9z" fill="url(#n)"/><path d="m2184.42 11181.99h-2184.42v800h2184.42c189.15 0 343.9-154.75 343.9-343.91v-112.19c0-189.16-154.75-343.9-343.9-343.9z" fill="url(#o)"/><path d="m2184.42 9869.08h-2184.42v800h2184.42c189.15 0 343.9-154.75 343.9-343.91v-112.19c0-189.16-154.75-343.9-343.9-343.9z" fill="url(#p)"/><path d="m2184.42 8556.17h-2184.42v800h2184.42c189.15 0 343.9-154.75 343.9-343.91v-112.19c0-189.16-154.75-343.9-343.9-343.9z" fill="url(#q)"/><path d="m2184.42 7243.26h-2184.42v800h2184.42c189.15 0 343.9-154.75 343.9-343.91v-112.19c0-189.16-154.75-343.9-343.9-343.9z" fill="url(#r)"/><path d="m2184.42 5930.35h-2184.42v800h2184.42c189.15 0 343.9-154.75 343.9-343.91v-112.19c0-189.16-154.75-343.9-343.9-343.9z" fill="url(#s)"/><path d="m2184.42 4617.44h-2184.42v800h2184.42c189.15 0 343.9-154.75 343.9-343.91v-112.19c0-189.16-154.75-343.9-343.9-343.9z" fill="url(#t)"/><circle cx="2256.27" cy="2391.62" fill="url(#u)" r="475"/><circle cx="2256.27" cy="2391.62" fill="url(#v)" r="419.58"/><circle cx="2256.27" cy="2391.62" r="380"/><circle cx="2239.9" cy="3704.53" fill="url(#w)" r="475"/><circle cx="2239.9" cy="3704.53" fill="url(#x)" r="419.58"/><circle cx="2239.9" cy="3704.53" r="380"/><circle cx="2239.9" cy="5017.44" fill="url(#y)" r="475"/><circle cx="2239.9" cy="5017.44" fill="url(#z)" r="419.58"/><circle cx="2239.9" cy="5017.44" r="380"/><circle cx="2239.9" cy="6330.35" fill="url(#A)" r="475"/><circle cx="2239.9" cy="6330.35" fill="url(#B)" r="419.58"/><circle cx="2239.9" cy="6330.35" r="380"/><circle cx="2239.9" cy="7643.26" fill="url(#C)" r="475"/><circle cx="2239.9" cy="7643.26" fill="url(#D)" r="419.58"/><circle cx="2239.9" cy="7643.26" r="380"/><circle cx="2239.9" cy="8956.17" fill="url(#E)" r="475"/><circle cx="2239.9" cy="8956.17" fill="url(#F)" r="419.58"/><circle cx="2239.9" cy="8956.17" r="380"/><circle cx="2239.9" cy="10269.08" fill="url(#G)" r="475"/><circle cx="2239.9" cy="10269.08" fill="url(#H)" r="419.58"/><circle cx="2239.9" cy="10269.08" r="380"/><circle cx="2239.9" cy="11581.99" fill="url(#I)" r="475"/><circle cx="2239.9" cy="11581.99" fill="url(#J)" r="419.58"/><circle cx="2239.9" cy="11581.99" r="380"/><path d="m2987.91 1192.15h2982.55c252.92 0 459.84 206.92 459.84 459.84v2380.7h-2982.55c-252.92 0-459.84-206.92-459.84-459.84z" fill="url(#K)" stroke="#666" stroke-miterlimit="22.9256" stroke-width="26.42"/><path d="m4730.33 10557.65h1385.18c173.15 0 314.81 141.65 314.81 314.81v1385.21h-1385.19c-173.15 0-314.8-141.66-314.8-314.81z" fill="url(#L)" stroke="#666" stroke-miterlimit="22.9256" stroke-width="26.45"/><g fill-rule="nonzero"><path d="m3879.7 11053.59c30.37-26.88 63.82-40.39 100.75-40.39h10.56c3.35 0 7.36.4 12.17 1.07 1.88 4.14 3.35 8.83 4.69 14.44 1.33 5.49 2 10.44 2 14.85s-.8 8.16-2.27 11.1c-15.12-11.1-32.5-16.58-52.04-16.58-20.73 0-39.33 5.08-55.79 15.24-16.32 10.17-27.83 19.4-34.25 27.69-6.55 8.29-11.23 17.52-14.44 27.69-3.09 10.03-5.23 18.86-6.43 26.21-1.07 7.36-1.61 13.91-1.61 19.4 0 31.43 16.46 61.39 49.24 90.28 30.63 23.94 61.27 47.88 91.91 71.96 33.32 29.82 49.9 61.92 49.9 96.3v14.31c-1.07 4.81-3.08 15.38-6.02 31.83-3.07 16.45-14.04 36.52-33.31 60.06-19.13 23.67-43.88 38.38-74.12 44.27-2.27.8-6.02 1.47-11.64 2-5.48.54-10.83.81-16.05.81-17.26 0-33.31-3.08-48.17-9.37-14.71-6.15-29.96-14.98-45.88-26.34 6.28-10.17 11.11-17.26 14.58-21.14 3.62-3.88 7.36-5.75 11.37-5.75 1.47 0 4.02.67 7.76 2.14 23.55 24.21 53.38 36.38 89.5 36.38h8.29c4.43-.8 15.66-2.27 33.99-4.68 18.2-2.41 30.37-13.78 36.39-34.11 6.15-20.33 9.63-33.57 10.84-39.85 1.07-6.29 1.61-12.31 1.61-18.33 0-28.75-13.12-55.5-39.2-80.25-26.5-20.6-54.06-42.8-82.55-66.47-28.5-23.54-46.03-47.08-52.45-70.36-6.42-23.14-9.63-44-9.63-62.46 0-22.2 4.01-42.4 11.9-60.72 7.9-18.19 20.75-35.31 38.4-51.23z" fill="#2f2f2f"/><path d="m4082.93 11141.09v3.4c-5.21.46-9.14 1.36-11.71 2.8-2.64 1.43-4.75 3.32-6.41 5.81 0 25.83 2.19 56.34 6.57 91.38s8.76 70.69 13.21 107.01c4.47 36.25 6.73 67.37 6.73 93.19 2.04 1.06 4.46 2.19 7.1 3.33 2.72 1.13 4.83 2.04 6.5 2.64-3.7.91-7.78 1.59-12.16 1.96-4.31.38-8.7.53-13.08.53-3.09 0-7.7-.07-13.82-.15-6.11-.07-10.49-.15-13.21-.15-.83-1.43.98-3.17 5.36-4.98 4.38-1.89 7.1-3.55 8.15-5.06 1.06-1.44 1.74-3.17 2.04-5.14.31-1.96.46-5.13.46-9.51 0-25.61-1.29-50.6-3.93-74.84-2.57-24.25-6.27-49.47-11.1-75.6-4.76-26.21-9.45-51.58-14.06-76.12l-6.87 7.47c-8.76 19.41-19.79 44.48-33.01 75.37-13.29 30.81-25.6 59.51-37.09 86.25-11.48 26.65-23.49 53.99-35.95 82.16h-2.2c-10.42-27.94-23.03-61.02-37.69-99.23-14.73-38.22-26.59-69.56-35.5-93.95-9-24.39-17.83-50.3-26.59-77.63l-3.48-4.38c-4.6 6.26-8.23 13.14-10.95 20.69-2.72 7.48-7.11 24.17-13.3 49.92-6.12 25.83-11.4 47.73-15.78 65.78-4.38 18.04-9.22 39.79-14.58 65.17-5.29 25.37-9.22 46.9-11.71 64.64.45 2.04 2.26 3.33 5.51 3.7 3.18.46 4.31 2.19 3.26 5.29h-46.69l12.54-17.22c7.03-24.24 17.3-56.94 30.74-98.1 13.45-41.16 23.95-73.86 31.42-98.17 7.48-24.4 14.36-49.7 20.63-75.98-.83-3.47-2.64-6.04-5.44-7.7-2.87-1.74-8.31-2.57-16.47-2.57 5.44-4.08 11.03-7.25 16.78-9.59 5.74-2.34 11.78-3.47 18.27-3.47h3.4c1.66.45 2.95.6 3.78.6 1.66 2.34 3.32 4.91 4.98 7.7 1.66 2.8 5.59 11.71 11.72 26.66 6.19 14.88 14.19 37.39 24.09 67.52 9.89 30.05 19.64 59.58 29.23 88.66 9.59 29 19.34 55.28 29.39 78.92l7.48-10.05c12.68-28.09 26.06-57.62 40.03-88.73 13.9-31.04 26.44-60.12 37.47-87.15 11.03-26.96 20.69-53.85 29.09-80.66 2.87-1.28 6.26-2.19 9.96-2.72 3.78-.53 8.39-.75 13.75-.75 2.11 0 4.23.15 6.42.53 2.19.37 4.45.52 6.72.52z" fill="#2f2f2f"/><g fill="#dddad6"><path d="m4068.58 11133.92v3.4c-5.21.46-9.14 1.36-11.71 2.8-2.64 1.43-4.75 3.32-6.41 5.81 0 25.83 2.19 56.34 6.57 91.38s8.76 70.69 13.21 107.01c4.47 36.25 6.73 67.37 6.73 93.19 2.04 1.06 4.46 2.19 7.1 3.33 2.72 1.13 4.83 2.04 6.5 2.64-3.7.91-7.78 1.59-12.16 1.96-4.31.38-8.7.53-13.08.53-3.09 0-7.7-.07-13.82-.15-6.11-.07-10.49-.15-13.21-.15-.83-1.43.98-3.17 5.36-4.98 4.38-1.89 7.1-3.55 8.15-5.06 1.06-1.44 1.74-3.17 2.04-5.14.31-1.96.46-5.13.46-9.51 0-25.61-1.29-50.6-3.93-74.84-2.57-24.25-6.27-49.47-11.1-75.6-4.76-26.21-9.45-51.58-14.06-76.12l-6.87 7.47c-8.76 19.41-19.79 44.48-33.01 75.37-13.29 30.81-25.6 59.51-37.09 86.25-11.48 26.65-23.49 53.99-35.95 82.16h-2.19c-10.43-27.94-23.04-61.02-37.7-99.23-14.73-38.22-26.59-69.56-35.5-93.95-9-24.39-17.83-50.3-26.59-77.63l-3.48-4.38c-4.6 6.26-8.23 13.14-10.95 20.69-2.72 7.48-7.1 24.17-13.3 49.92-6.12 25.83-11.4 47.73-15.78 65.78-4.38 18.04-9.22 39.79-14.58 65.17-5.29 25.37-9.22 46.9-11.71 64.64.45 2.04 2.26 3.33 5.51 3.7 3.18.46 4.31 2.19 3.26 5.29h-46.69l12.54-17.22c7.03-24.24 17.3-56.94 30.74-98.1 13.45-41.16 23.95-73.86 31.42-98.17 7.48-24.4 14.36-49.7 20.63-75.98-.83-3.47-2.64-6.04-5.44-7.7-2.87-1.74-8.31-2.57-16.47-2.57 5.44-4.08 11.03-7.25 16.78-9.59 5.74-2.34 11.78-3.47 18.27-3.47h3.4c1.66.45 2.95.6 3.78.6 1.66 2.34 3.32 4.91 4.98 7.7 1.66 2.8 5.6 11.71 11.72 26.66 6.19 14.88 14.19 37.39 24.09 67.52 9.89 30.05 19.64 59.58 29.23 88.66 9.59 29 19.34 55.28 29.39 78.92l7.48-10.05c12.68-28.09 26.06-57.62 40.03-88.73 13.9-31.04 26.44-60.12 37.47-87.15 11.03-26.96 20.69-53.85 29.09-80.66 2.87-1.28 6.26-2.19 9.96-2.72 3.78-.53 8.39-.75 13.75-.75 2.11 0 4.23.15 6.42.53 2.19.37 4.45.52 6.72.52z"/><path d="m3865.35 11046.42c30.37-26.88 63.82-40.39 100.75-40.39h10.56c3.35 0 7.36.4 12.17 1.07 1.88 4.14 3.35 8.83 4.69 14.44 1.33 5.49 2 10.44 2 14.85s-.8 8.16-2.27 11.1c-15.12-11.1-32.5-16.58-52.04-16.58-20.73 0-39.33 5.08-55.79 15.24-16.32 10.17-27.83 19.4-34.25 27.69-6.55 8.29-11.23 17.52-14.44 27.69-3.09 10.03-5.23 18.86-6.43 26.21-1.07 7.36-1.61 13.91-1.61 19.4 0 31.43 16.46 61.39 49.24 90.28 30.63 23.94 61.27 47.88 91.91 71.96 33.32 29.82 49.9 61.92 49.9 96.3v14.31c-1.07 4.81-3.08 15.38-6.02 31.83-3.07 16.45-14.04 36.52-33.31 60.06-19.13 23.67-43.88 38.38-74.12 44.27-2.27.8-6.02 1.47-11.64 2-5.48.54-10.83.81-16.05.81-17.26 0-33.31-3.08-48.17-9.37-14.71-6.15-29.96-14.98-45.88-26.34 6.28-10.17 11.11-17.26 14.58-21.14 3.62-3.88 7.36-5.75 11.37-5.75 1.47 0 4.02.67 7.76 2.14 23.55 24.21 53.38 36.38 89.5 36.38h8.3c4.42-.8 15.65-2.27 33.98-4.68 18.2-2.41 30.37-13.78 36.39-34.11 6.15-20.33 9.64-33.57 10.84-39.85 1.07-6.29 1.61-12.31 1.61-18.33 0-28.75-13.12-55.5-39.2-80.25-26.5-20.6-54.06-42.8-82.55-66.47-28.5-23.54-46.03-47.08-52.45-70.36-6.42-23.14-9.63-44-9.63-62.46 0-22.2 4.01-42.4 11.9-60.72 7.91-18.19 20.75-35.31 38.4-51.23z"/></g></g><path d="m3775.99 12141.87c.06 2.92-1.78 7.79-2.7 10.71-.89 3.89-1.3 7.3-2.2 11.2-.8 7.78-2.58 16.06-2.89 24.33h.97c3.26-7.3 7.98-14.6 11.73-21.41 9.83-18.99 25.86-44.3 38.67-60.85 10.43-13.63 19.48-23.36 32.41-34.07 8.12-7.79 29.23-23.36 39.88-26.77 6.46 5.84 8.89 5.84 9.99 11.68 1.11 6.33 1.25 13.14 1.87 19.47.62 5.84.81 15.09.93 20.44.13 6.33-.69 13.63-.06 20.45.91-2.92 1.76-8.76 2.18-12.17 5.76-27.26 12.57-50.62 25.2-75.45 6.08-12.17 23.95-42.34 32.48-54.03 1.88-2.92 3.77-5.84 6.16-8.27 1.89-2.44 4.76-5.36 6.65-7.79-5.07-9.25-8.09-14.12-15.09-22.39-5.48-5.84-12.48-14.12-17.94-18.98 3.22-8.76 12.28-18.01 22.47-19.96 8.25-1.95 17.14 3.89 23.08 8.27 1.49 1.46 3.49 3.9 5.94 4.39l-.01-.49c-.5-.49 0 0-.5-.49l-5.56-9.73c-4.56-8.28-14.58-20.93-21.52-26.77-10.44-9.74-23.25-16.07-37.43-18.5-1.96-.49-3.92-.97-6.36-1.46 1.02 2.43 14.34 10.22 17.91 17.52 4.08 8.76.96 22.39-5.29 26.29-5.29 3.4-16.69-5.84-23.6-9.74l-21.24-13.63c-.55-2.92 7.81-22.39 9.18-26.77 8.41-17.04 7.09-10.22 23.6-13.14-7.41-4.87-19.16-7.3-29.41-8.28-21.49-1.94-28.14 5.85-31.08 5.36-1.05-3.9.04-21.42-.1-27.75-1.06-27.25-7.75-43.8-27.1-60.35-17.37-14.61-34.62-23.85-58.11-28.72-3.92-.98-7.84-1.95-12.23-2.44l-11.72-.97c-.98-.49-.49 0-.98-.49h-18.03c-3.39.98-1.46 0-6.8.98-1.95 0-4.38.48-6.33.48-13.11 1.95-21.84 3.9-34.41 8.77-12.55 5.35-26.01 14.11-34.61 22.39-10.03 9.24-18.14 17.52-22.17 34.56-3.54 16.55-.69 36.02-.31 54.03-4.42-1.47-8.86-3.9-14.25-5.36-13.7-2.92-37 1.46-47.59 7.3 4.42 1.95 13.15 0 17.58 1.95 2.96 1.95 5.52 7.79 7.57 12.17 2.04 4.38 10.76 25.31 10.83 28.23-5.74 5.35-11.98 9.73-18.21 14.6-7.19 5.84-15.31 13.14-20.84 5.36-4.52-6.33-8.61-15.58-5.91-25.8 1.85-4.87 11.88-14.6 15.72-17.04-6.83-.48-17.92 4.87-22.26 7.3-6.24 4.38-11.02 8.76-15.29 14.12-5.71 6.33-13.74 18.5-16.97 26.77l-3.71 9.25c-.46.97.01.49-.46.97l.02.98c3.36-2.44 4.75-5.85 11.96-10.23 4.81-2.92 10.62-4.86 17.49-2.43 8.85 3.41 18.42 18.5 20.01 24.34-.46 1.46-.94 1.46-1.9 2.43-5.71 6.33-21.75 31.15-21.62 37.48-.92 2.43-.48.49.03 1.46 2.31-6.33 17.92-28.23 22.17-34.56l10.55 15.09 54.41 60.85c5.99 6.81 12.45 12.65 18.93 19.47 1.48.97 1.98 1.46 3.47 2.92l9.46 9.73h.49s0 0 .01.49l-.55-2.92c-.53-1.95-2.54-4.87-3.55-6.82l-10.56-15.09c-3-3.89-8.01-10.22-10.54-14.6.51.97.51.97.52 1.46l3.03 4.87c.53 1.95.01.49.54 2.43-2.97-1.94-4.49-4.87-6.51-8.27-8.5-10.22-10.51-12.66-19.97-22.39l-34.86-35.54c-4.49-4.86-12.62-20.44-15.68-26.77-3.54-6.32-7.55-11.68-10.6-17.52-2-2.43-3.53-5.84-5.07-9.25-2.54-4.87-3.03-4.87-3.16-11.19-2.94-.98-.52-1.46 1.44-.98 2.44 0 1.97.98 2.03 3.9 1.16 8.76 6.67 15.57 11.22 23.36 5.08 9.74 10.67 20.44 15.74 30.18l.51.97c1.02 1.95 2.53 4.38 4.01 5.36l.5.48c1.04 2.92 28.38 28.72 34.35 34.08 3.47 2.92 10.46 10.7 13.45 14.11l5.52 7.3 2.99 3.41c-2.5-2.92-4.01-5.35-6.03-8.76-8.51-10.71-18.44-19.47-28.39-29.21-2.49-2.43-4.97-4.38-7.46-6.81l-14.43-14.12-.5-.48c-2.5-3.41-3.51-4.87-5.55-9.25-2.06-5.36-12.7-24.34-12.75-26.77l-.01-.49c17.06.49 15.58-.49 25.64-8.76 5.28-3.89 13.88-11.68 19.68-14.12-.76 10.23-26.58 33.59-22.03 41.38 2.51 3.4 23.79 18.98 31.91 34.07 5.09 10.22 23.77 40.89 31.3 51.6 8.55 12.16 5.55 8.76 12.13 20.44 1.54 3.41 4.55 7.79 5.11 11.19 1.98 1.46 1.56 4.38 3.07 6.82 1.51 2.43 3.01 3.89 4.51 5.84 1.51 2.43 3.01 3.89 4.02 5.84l13.04 17.52c3.01 3.9 5 5.84 7 8.28l9.01 11.19c8.01 10.23 12.5 15.09 20.05 26.29 1.51 2.43 7.05 10.71 7.58 13.14l-1.99-1.95c-3.48-3.4-2.99-3.4-5.5-6.81-1.5-1.95-1.99-1.95-3.51-4.87-1.01-1.46-.51-.97-1.52-2.43l-5.99-6.82c-5.54-8.27-12.52-16.06-18.52-23.36-3.5-3.89-10-11.68-13.97-15.09-2.97-2.43-3-3.89-10.93-10.22-1.97-.98-2.97-1.95-4.94-2.92-3.48-3.41-10.88-7.79-14.83-10.22-6.91-3.9-13.82-8.28-21.69-11.69-11.32-5.35-14.29-7.3-17.9 6.33-2.69 10.71-.55 19.96-.31 31.15-.52-1.46-3.05-5.84-3.56-6.81-1.49-1.46-.46.97-.5-.97-1.1-5.85-23.36-44.3-26.39-49.65-8.09-13.63-16.1-23.85-25.14-36.51-2.5-2.92-11.5-13.63-14.44-14.6.5.97 0 0 .52 1.46 1.01 1.95 4.98 5.35 6.97 7.3 6.99 7.79 13.02 16.55 19.05 25.31 15.09 21.9 32.28 51.6 41.1 76.91 3.1 8.27 7.85 25.31 9.52 35.04.55 2.92 1.19 10.23 2.21 12.17-.09-3.89-.65-7.3-.73-11.19-.82-15.58.16-38.46 1.79-53.55.75-10.7 3.23-8.27 6.99-15.08 7.32.48 37.46 20.44 42.92 24.82 13.36 9.73 23.83 20.93 34.33 33.59 10.48 11.68 19.54 25.31 28.14 39.91 4.53 6.81 20.74 36.02 23.35 44.29h.97c-.15-7.3-1.86-18.98-2.99-26.28-1.06-3.9-1.64-8.28-2.69-12.17-1.05-3.41-2.62-8.28-3.65-11.2-1.01-1.46-2.57-6.32-3.1-8.27 12.72 2.43 21.51 3.41 30.14-3.41 0 0 0 0 .47-.48 1 .97-.92 2.43-1.29 7.78-.44 2.44-.38 5.36-1.3 7.79zm-233.71-175.23.01.49c1.94-.49.49 0-.01-.49zm.47-.97h.49s-.5-.49-.51-.98zm404.49-66.2c1.39-3.41 3.28-6.33 4.65-10.71 1.79-7.3-.3-14.11 2.61-14.6l4.42 1.46c-.92 2.43-2.34 4.38-3.72 8.27-2.23 9.74-14.35 35.54-19.06 43.32-1.9 2.44-3.32 4.39-5.21 7.31-4.74 6.32-5.68 7.78-10.91 14.11-1.91 1.46-5.26 4.38-6.2 6.33-3.27 6.33-13.35 13.63-18.1 19.47-1.42 1.95-3.3 5.35-4.71 7.79l-10.91 14.11c-1.38 3.41-1.41 2.44-2.32 5.36 2.92-.49 1.44-.98 5.31-2.44-3.38 1.46-3.77 5.84-4.73 6.82-2.26 8.27-9.9 15.57-15.08 23.85-3.78 5.84-7.04 13.14-10.82 18.5-1.41 2.43-2.84 3.89-3.76 6.32-.95 1.46-.93 2.44-1.39 3.41 1.92-.97 2.39-1.95 3.82-3.41.97-.48.96-.97 1.92-1.46l8.56-9.73c8.58-9.25 11.82-17.52 17.97-25.8 4.73-6.81 7.59-9.73 12.31-17.04l6.15-8.76c-2.44 0-3.4.49-5.83.98.93-2.44-.01-.49 1.41-2.44l8.56-10.22c3.32-4.38 10.01-10.22 14.28-16.06l10.46-12.17c1.43-1.46 1.9-2.43 3.33-3.89l17.1-20.94 22.4 22.4c1.51 2.43 5.51 7.3 6.04 9.24-6.67 7.3-12.35 15.09-18.01 23.85l-14.13 22.88c-10.85 17.04-18.27 34.56-26.18 52.57-3.24 7.79-.83 6.82-3.75 6.82l-.56-3.41c-.08-3.9-.15-7.3-1.21-11.2-1.08-4.86-4.2-14.11-7.19-17.52-2.51-3.41-11.15 2.92-15.96 5.84-15.9 8.76-20.7 12.17-33.61 23.36l-15.73 16.55c-4.78 4.38-9.04 10.71-13.32 15.58l-7.12 8.76c-.96.49-1.44.98-1.91 1.95-1.43 1.46-2.37 2.92-3.31 4.87-.46.97-.94 1.46-1.9 1.94-3.3 5.36-8.51 12.66-10.83 18.01-.94 1.46-5.17 8.76-7.11 9.25-1.02-1.95-.1-4.38 1.34-5.84.95-.97.96-.49 1.9-1.95.94-1.94-.02-.97 1.9-2.43 1.83-5.84 14.59-24.34 18.39-29.21 7.54-11.68 16.01-26.28 23.11-36.02 4.24-6.81 8.92-16.06 12.66-23.36 2.8-5.84 5.13-10.71 7.94-16.06 1.87-3.9 7.08-10.71 7.96-15.58-.52-1.46-.03-.97-.99-.48-.48.48-.47.97-.94 1.46-1-.98.41-3.41 1.79-7.31.92-2.43 1.84-5.35 2.28-7.3l-25.33 46.24c-3.74 7.31-8.44 15.58-12.18 22.88-4.22 7.79-8.45 15.09-13.17 22.39-4.22 7.79-9.45 14.12-13.17 22.39-1.89 2.92-5.2 7.79-7.58 10.22-3.82 3.9-4.26 5.85-6.59 11.2-5.65 9.25-9.81 19.96-14.47 29.69-1.86 4.38-7.47 15.58-8.38 18.5 1.31-7.3 12.96-32.13 13.82-37.48 1.36-4.87 5.57-13.14 8.41-17.04 3.8-4.87 5.77-3.89 11.89-14.11 7.54-11.69 11.81-17.53 19.79-31.64 6.58-11.2 12.7-21.42 18.8-32.61 12.2-21.91 21.92-46.25 35.11-67.66 5.2-7.79 23.96-41.86 29.19-48.19 2.38-2.44 10.97-11.2 11.88-14.12.44-2.43-10.05-14.6-13.03-17.03-7.42-5.36-10.87-7.3-18.28-12.17.9-3.41 2.32-5.36 2.75-7.79 9.84 4.38 31.63 20.93 38.01 22.88 3.44 1.46 3.94 1.94 7.81.48 3.87-.97 5.83-.48 9.25 0zm-298.55 29.69h4.38c.06 2.92-2.61 14.6-3.5 18.5-.01-.49-.01-.49-.52-1.46 0 0-.51-.98-.51-.98-1.06-3.89-1.24-12.65-2.28-15.57l-2.94-.97c.36-5.85 5.76-3.9 5.76-3.9 1.95 0-2.92 0 .97-.49 2.42-.48 3.41 0 5.86.98.05 1.94.05 1.94-.41 3.41 0 0-8.76.48-9.26 0zm205.12-.97 1.47.49-2.02 19.47c-1.04-2.93-1.6-6.33-2.16-9.74-1.03-2.92-2.07-5.84-2.14-9.25l-.5-.48c-1.01-1.47-.52-1.47-.55-2.93 1.93-.97 5.32-1.94 7.78-.97 1.96.49 1.98 1.46 2.48 2.43zm114.94-48.68c-.49 0-.49 0-.49 0l-.98-.48c-.5-.49-.5-.49-.5-.49l-26.16-15.58c-2.46-1.46-6.91-4.38-8.89-5.84 8.79.98 30 13.15 36.01 20.93.01.49.01.49.01.49s.5.49.5.49zm-429.29 0c.43-2.92.45-1.94 2.82-4.86 1.44-.98 2.4-1.95 3.34-3.41 5.26-4.87 17.72-14.6 25.48-16.06-4.31 3.4-12.01 7.78-16.32 11.68-6.22 5.35-1.92.97-7.16 6.81-.93 1.95-6.23 4.87-8.16 5.84zm317.94-34.56s-2.86 2.92-2.86 2.92c-1.92 1.46-1.96-.48-1.01-1.94 1.38-3.9 1.79-7.3 3.22-8.76zm-6.32.49c-2-2.43-3.03-4.87-.64-7.3 1.42-1.95 2.86-2.92 4.76-5.35-.37 5.84-1.78 8.27-4.12 12.65zm-.82 76.42-2.4 1.46c.01.49-.94 1.46-1.41 2.43-1.95 0-2.44 0-3.92-.97.92-2.43-1.98-1.46 1.92-1.46h2.43c-.55-2.92-1.46 0-2.01-2.92-.95.97-.46.97-1.44.97-1.46 0-2.44-.48-2.94-.97l-.99-.49c-.1-4.86 1.24-10.7 2.12-15.09 1.79-7.3 6.96-16.55 10.22-23.36l5.63-10.22s0 0-.01-.49h.49c-.9 3.41-.34 6.82-1.24 10.22-2.23 9.74-3.71 9.25-7.49 14.61-.93 1.94-2.81 5.35-3.25 7.78 2.92-.48 13.48-7.78 15.4-9.24 2.85-3.41 4.6-12.66 6.45-17.53 1.96.49.48-.48 1.47.49-2.01-2.92.71-12.66 2.61-15.09 2.35-3.89 5.7-6.81 9.04-10.22 5.68-7.79 9.9-15.58 22.55-16.55-.45 1.95-1.87 3.89-3.28 6.33-4.66 9.73-8.81 20.93-12.01 31.15l-10.19 24.82c-3.27 6.82-1.83 5.84-7.59 9.74zm-194.9.49c-6.31.97-14.25-5.84-18.71-9.25-1.49-1.46-3.46-2.43-5.44-3.89-6.93-4.87-6.89-3.41-9.45-9.25-7.2-17.53-15.36-34.56-23.04-52.09l-6.11-12.65c17.63 4.38 19.3 14.11 32.75 27.74 2.49 2.92 1.54 3.9 2.12 8.28 1.58 5.35-.42 2.92-1.31 7.3h.49.49c2.46.97 3.64 10.71 8.62 16.06 1.98 1.46 13.84 9.25 16.28 9.25-3.11-8.76-7.06-11.19-8.56-13.14-4.55-7.79-4.13-10.71-2.81-17.52 3.45 1.94 10.62 18.49 12.15 21.41 2.58 6.82 6.71 18.01 7.37 25.8-4.87.49-4.39 0-5.92-3.41-3.03-4.86-8.52-11.19-13.47-14.6-1-1.46-3.95-2.43-5.92-3.41-6.9-3.89-9.92-8.27-15.37-12.65 3.53 5.84 12.47 13.63 18.88 17.03 6.38 2.44 6.86 1.95 10.39 7.79 1.53 2.92 5.54 8.28 6.57 11.2zm-36.34-36.51c1.49 1.46-1-.97 0 0zm245.02-49.65c10.08-7.3 24.2-7.79 36.9-6.33 1.96.49 4.39.49 6.35.98l5.37.49c.99.48.49 0 .99.48-35.08 0-33.86 11.68-47.13 29.21-.96.97-1.92 1.46-2.87 2.92l-3.26 6.81c-.47.98.01.49-.47.98-.13-6.33 1.7-11.69 3.05-17.04 1.34-5.84 1.21-11.68 1.07-18.5zm-279.81-5.35c1.94-.49 1.94-.49 5.84-.49 19.45-1.95 23.35-1.95 41.53 5.36-.28 9.73-.27 10.22 2.35 18.98 2.08 5.84 3.16 11.19 4.75 17.04-1.47-.49-.98 0-1.98-1.46l-8.54-12.17c-11.56-16.55-18.1-26.29-44.43-26.77zm58.78 14.6c-.04-1.95-3.04-5.84-4.09-9.25-1.05-3.4-.19-8.76-1.23-12.17 10.34 5.36 10.04 14.12 5.32 21.42zm206.08-24.82c-1.24-12.66 6.58-11.69 7.87-19.47.62 6.32 1.87 18.98-6.83 22.39l.85-5.84zm2.81-5.36c-.47.49-.49 0-.92 2.44.95-.98.95-.98.92-2.44zm-.83 6.82c1.44-.98-.49 0-.49 0-.46.97.49 0 .49 0zm-4.98-5.36c-.43 2.92.09 4.38.63 6.82 1.57 5.35-3.1 14.6-.09 18.98 2.54 4.87 10.52 13.63 10.65 19.47.14 6.81-13.64 23.36-18.64 40.4-5.41 20.44-10.61 51.11-14.52 73.5l-2.51 19.47c-.47.97-.43 2.43-.91 2.92l-.91 2.92c-.22-10.22 1.94-23.36 3.67-33.58.44-2.44 1.3-7.79 1.25-9.74 0 0-6.19 29.69-6.98 38.45-.76 9.74-.24 11.69-3.97 19.47-2.34 4.38-5.13 10.71-7.96 15.09-.57-3.89 1.02-20.93 1.91-24.82 1.29-7.79 2.11-15.09 3.41-22.88 2.17-12.65 6.5-37.97 9.67-49.65l3.56-16.06c1.31-6.81.37-5.35 3.18-10.71.94-1.46 1.4-2.92 1.85-4.87.95-.97 1.9-1.94 2.85-3.4 3.28-5.84 6.09-11.2 9.88-16.55 4.22-7.79 9.47-13.15 5.96-17.53-.91 2.92-.88 4.38-2.77 7.31-1.42 1.94-2.35 3.89-3.76 6.32-5.63 10.22-9.44 14.61-13.56 26.77-8.31 21.91-8.27 23.86-13.14 46.73-2.21 10.71-4.4 22.39-6.11 33.59-3.88 23.85-5.26 51.11-8.73 71.06-3.04 17.53-9.17 50.14-18.19 61.33-1.43 1.46-8.6 8.28-11.01 9.25-4.84 1.46-14.12.49-19.02-.48-5.86-.98-9.81-3.41-14.74-5.85-4.94-3.4-6.92-4.86-9.01-11.19-7.24-19.96-14.98-40.4-20.31-61.82-3.72-14.6-4.39-23.36-6.59-35.04-2.19-11.2-4.38-22.88-7.54-33.59-2.65-10.22-6.31-21.9-8.96-32.13l-7.53-33.58c-1.79 7.79 10.29 48.67 12.94 58.9 1.63 7.78 9.58 37.96 8.77 45.75-.35 6.81.69 9.74.82 16.06l-.99-.97c-.01-.49-.51-.97-.52-1.46-.51-.97-1.01-1.46-1.51-2.43-1.01-1.46-1.53-2.92-2.54-4.87-3.04-5.36-9.09-15.09-9.69-20.45-.1-4.38-1.16-8.76-1.74-13.14-1.17-8.76-3.3-17.52-4.45-25.8-1.06-3.89-1.64-8.27-2.7-12.65-.54-2.43-2.64-9.25-2.19-11.2-.42 3.41 1.18 9.74 2.25 14.12 1.69 10.71 5.11 34.07 5.3 43.32-1.98-1.46-1.99-1.95-2.54-4.87l-2.36-19.47c-3.39-21.9-4.48-27.26-9.8-48.67-3.73-15.09-7.93-29.21-15.52-42.35-15.16-25.8-15.47-17.04-4.19-36.99 5.61-11.2 1.8-6.82 1.93-23.85-.01-.49-.02-.98-.02-.98.45-1.46.46-.97.95-.97-.04-1.95-.04-1.95.42-2.92-.03-1.46.49 0-.52-1.95-.56-3.4.9-3.4-1.1-5.84l-11.42-9.73c1.02 1.94 1.99 1.94 3.53 5.35 2.56 5.84 4.45 2.92 7.5 9.25 1.03 2.43.08 3.41.64 6.81-1.51-1.94-2.53-4.38-4.04-6.32-.5-.98-3.06-6.82-3.06-6.82l1.06 4.38c1.07 4.38 1.64 8.28 1.74 13.14-1.97-.97-4.95-3.89-6.43-4.86-2.5-2.92-2.28-15.58-1.88-19.47.45-1.95-.63-6.82-.7-10.23 1.97.98 3.96 2.93 7.41 4.87 3.44 1.46 4.43 1.95 5.97 5.84 2.88-1.94 1.94-.48 1.94-.48-.02-.98-.57-3.9-.58-4.38 0 0-.49 0-.5-.49-2.48-1.95-4.45-2.92-6.9-3.89l-7.39-3.9c.35-6.33.16-15.09 1.5-20.93 1.08 4.87.19 8.76.29 13.63 4.05-15.58 1.97-21.9 17.83-32.13 2.41-1.46 1.41-2.43 2.41-1.46-1.92 1.46-1.42 1.95-2.86 2.92l1.47.49c-1.93.97-.49 0-2.43.49.52 1.46 3.35-2.92-2.81 5.35-1.4 2.92-3.33 3.41-2.27 7.79.56 3.41 1.58 5.35 2.63 8.76 2.57 6.33 2.03 3.9 3.52 5.36.51.97.96-.49.03 1.46l-.05-2.44c.4-3.89-4.68-13.63-4.25-16.55.93-1.94 7.6-9.25 9.02-11.19 7.64-7.3 12.43-11.2 24.01-16.55 6.28-2.92 8.19-4.38 16.49-3.9 10.72 0 22.52 4.87 32.34 8.77 2.96 1.46 11.34 5.84 14.73 4.86 2.91-.48 15.9-8.27 28.98-11.68 15.04-3.41 20.92-1.95 33.7 3.41 10.82 4.87 16.78 10.22 23.76 17.52 5.97 5.84 8.45 7.79 7.09 12.66-.9 3.4-4.61 12.65-3.55 16.55l2.86-2.92.99.48h.49c.95-.97-1.47 0 .95-.97-1.97-.97-.96.49-1.97-.97 1.44-.98 2.38-2.44 2.34-4.38l-2.37 2.92c1.39-3.41 2.79-6.33 3.19-10.23.86-5.35-2.1-7.3-4.59-9.73-1.5-1.95-.52-1.46-3.99-4.38l-5.49-6.33c-1.51-1.95-2-2.43-3.02-4.38 2.46.97 9.88 6.33 12.35 7.79 2.98 2.92 6.95 6.33 9.95 9.73 4.49 4.87 4.01 5.36 6.61 13.14 1.58 5.36 3.14 10.23 2.79 16.55-2.87 2.44-8.7 3.41-12.53 6.82l-1.44.97c-.46.98-.38 4.87.13 5.84.5.98.52 1.46.54 2.44l-.46 1.46.04 1.94s0 0 .48-.48l.96-.49c2.88-1.95 3.81-4.38 4.2-8.76-1.43 1.46-1.42 1.95-2.36 3.41l-1.88 3.4-.53-1.94c-.05-2.44 3.85-2.44 5.24-5.84-1.95 0-3.38 1.46-4.82 2.43 1.43-1.46 4.33-2.43 6.24-4.38 1.43-1.46 4.29-4.38 6.72-4.87.26 12.17.63 6.82-2.21 10.71-.96.97-.94 1.95-1.89 2.92-.93 1.95-3.33 3.89-4.27 5.35-1.03-2.43.48-.48.41-3.4-1.45.48-1.44.97-1.44.97s1.43-1.46 1.92-1.46c0 0 .5.49.97-.49.94-1.46.48 0 .92-2.43-1.93.97-1.45.49-2.88 1.95-1.92 1.46-1.9 2.43-2.85 3.89l-.95.97s.51.98 1.45-.48c-.94 1.46-1.91 1.94-1.84 4.87l-.01-.49s.44-1.95.01.49c-.45 1.94.02.97.56 3.4zm-148.59-90.53c.87-4.87 14.47-6.82 19.8-8.28 12.63-1.94 40.4-1.94 53.11 0 4.4.49 20.04 2.92 20.15 7.79-.97.49-16.5 3.41-24.72 6.33-25.13 9.73-14.35 12.65-31.58 4.38-13.77-5.84-21.12-7.79-36.76-10.22z" fill="#270318"/><path d="m3782.99 12081.51c-1.93.49-9.77-1.46-12.22-1.94-15.18-3.41-24.39-1.46-39.91 1.94 19.33-7.3 32.96-8.27 52.13 0zm16.8-58.41-4.98 18.01c-3.66 11.2-7.79 23.37-19.87 28.24l-6.28 2.43c-.49 0-2.43.49-2.92.49-5.35.48-18.49.97-22.91-.49-1.47-.49-2.46-.97-4.41-1.46-13.27-5.35-19.88-18.01-25.5-30.18-1.54-3.89-6.15-14.6-5.74-18.01.99.49-.01-.49 1.5 1.46.01.49.51 1.46.52 1.95 4.09 8.76 7.76 20.93 13.26 27.74 2 2.44 3.48 3.41 5.96 5.36 6.46 5.84 16.77 9.25 26.02 9.25 13.65 0 27.18-5.36 31.87-13.63 2.84-4.38 12.12-26.29 13.48-31.16zm46.3-206.38c-1.49-.97-.48.49-1-.97l-1.06-3.89c-.04-1.95.91-3.41 1.86-4.39-1-.97.49 0-1.47-.48-.48.48-.48.48-.48.48l-.04-1.94-.02-.98c-.57-3.89-.44 2.44-.02-.97-.06-2.92-.51-.97-.04-1.95-.51-.97-.59-4.86-.13-5.84-1-1.46-.54-2.43-.58-4.38l-4.06-7.79c-.01-.48-1.98-1.46 1.39-3.4-.5-.49-.51-.98-1.01-1.46l-2.86 2.92c-1.06-3.9 2.65-13.15 3.55-16.55 1.36-4.87-1.12-6.82-7.09-12.66-6.98-7.3-12.94-12.65-23.76-17.52-12.78-5.36-18.66-6.82-33.7-3.41-13.08 3.41-26.07 11.2-28.98 11.68-3.39.98-11.77-3.4-14.73-4.86-9.82-3.9-21.62-8.77-32.34-8.77-8.3-.48-10.21.98-16.49 3.9-11.58 5.35-16.37 9.25-24.01 16.55-1.42 1.94-8.09 9.25-9.02 11.19-.43 2.92 4.65 12.66 4.25 16.55.5.49 1.48.98.55 2.92l-3.29 5.84c-1.87 3.9-1.41 2.44-1.82 5.85l.09 4.38c.01.48.56 3.4.58 4.38.04 1.94-.42 3.4.11 5.35l-1.45.49c.01.48.01.48.01.48.49 0 1.47.49 1.54 3.41l-1.37 4.38c1.01 1.95.49.49.52 1.95-.46.97-.46.97-.42 2.92.51.97.03 1.46-.93 1.95-.13 17.03 3.68 12.65-1.93 23.85-11.28 19.95-10.97 11.19 4.19 36.99 7.59 13.14 11.79 27.26 15.52 42.35 5.32 21.41 6.41 26.77 9.8 48.67l2.36 19.47c.55 2.92.56 3.41 2.54 4.87-.19-9.25-3.61-32.61-5.3-43.32-1.07-4.38-2.67-10.71-2.25-14.12-.45 1.95 1.65 8.77 2.19 11.2 1.06 4.38 1.64 8.76 2.7 12.65 1.15 8.28 3.28 17.04 4.45 25.8.58 4.38 1.64 8.76 1.74 13.14.6 5.36 6.65 15.09 9.69 20.45 1.01 1.95 1.53 3.41 2.54 4.87.5.97 1 1.46 1.51 2.43.01.49.51.97.52 1.46l.99.97c-.13-6.32-1.17-9.25-.82-16.06.81-7.79-7.14-37.97-8.77-45.75-2.65-10.23-14.73-51.11-12.94-58.9l7.53 33.58c2.65 10.23 6.31 21.91 8.96 32.13 3.16 10.71 5.35 22.39 7.54 33.59 2.2 11.68 2.87 20.44 6.59 35.04 5.33 21.42 13.07 41.86 20.31 61.82 2.09 6.33 4.07 7.79 9.01 11.19 4.93 2.44 8.88 4.87 14.74 5.85 4.9.97 14.18 1.94 19.02.48 2.41-.97 9.58-7.79 11.01-9.25 9.02-11.19 15.15-43.8 18.19-61.33 3.47-19.95 4.85-47.21 8.73-71.06 1.71-11.2 3.9-22.88 6.11-33.59 4.87-22.87 4.83-24.82 13.14-46.73 4.12-12.16 7.93-16.55 13.56-26.77 1.41-2.43 2.34-4.38 3.76-6.32 1.89-2.93 1.86-4.39 2.77-7.31 3.51 4.38-1.74 9.74-5.96 17.53-3.79 5.35-6.6 10.71-9.88 16.55-.95 1.46-1.9 2.43-2.85 3.4-.45 1.95-.91 3.41-1.85 4.87-2.81 5.36-1.87 3.9-3.18 10.71l-3.56 16.06c-3.17 11.68-7.5 37-9.67 49.65-1.3 7.79-2.12 15.09-3.41 22.88-.89 3.89-2.48 20.93-1.91 24.82 2.83-4.38 5.62-10.71 7.96-15.09 3.73-7.78 3.21-9.73 3.97-19.47.79-8.76 6.98-38.45 6.98-38.45.05 1.95-.81 7.3-1.25 9.74-1.73 10.22-3.89 23.36-3.67 33.58l.91-2.92c.48-.49.44-1.95.91-2.92l2.51-19.47c3.91-22.39 9.11-53.06 14.52-73.5 5-17.04 18.78-33.59 18.64-40.4-.13-5.84-8.11-14.6-10.65-19.47-3.01-4.38 1.66-13.63.09-18.98-.54-2.44-1.06-3.9-.63-6.82zm-5.18-37.48h-.49c.5.49.01.49.49 0zm-190.08 90.05c6.35.98 21.05 27.75 23.66 36.02-4.02-5.84-7.09-12.65-11.11-18.5zm179.72-26.77c-1.44.97-1.47-.49 1.54 3.41 1.48.97 2 2.43 2.53 4.38-1-.98-1.99-1.95-2.99-2.92-.5-.49-.99-.98-1.49-1.46 0 0-.99-.49-.99-.49-.99-.97-.49-.49-.99-.97 0 0-1.45.48.53 1.94.99.98.98.49 1.98 1.46-4.87.49-.51-.97-6.32.98l1 .97s.48 0 .5.49h4.38c-2.43.49-6.3 1.46-8.24 1.95-2.92.48-4.35 1.94-6.26 3.4l-3.86 1.95c-.95.97 1.95 0 0 0-3.4.49-6.36-.97-8.82-2.43l.03 1.46c-2.47-1.46-5.41-2.44-7.38-3.41-2.46-.97-4.44-2.43-6.91-3.9-1.47-.48-2.46-.97-3.45-1.94l-3.45-1.95c-2.96-1.46-3.49-3.41-7.38-3.41l23.2 14.12c.98.49 1.98 1.46 2.97 2.43l-11.83-6.32c-5.4-1.95-13.78-6.82-15.26-7.31-1.47-.48-1.96-.48-2.95-1.46-2.46-.97-4.44-2.43-6.83-.48-3.34 3.4-4.71 7.79-6.09 11.68h.49s4.77-4.87 8.15-6.33c5.32-1.95 11.29 3.9 13.81 7.79 1.01 1.95 1.05 3.89 2.07 5.84 6.11 12.66 39.84 17.52 45.13 14.12 1.9-1.95 6.22-5.36 9.12-6.33l-13.7 20.44c-11.24 21.42-17.31 56.95-21.18 81.29-2.61 14.6-4.25 29.2-7.35 43.81-1.74 9.73-4.99 17.52-7.73 26.28-1.81 6.33-5.07 13.63-10.89 14.6-10.19 2.44-11.63 3.41-23.32 3.41-4.39 0-10.74-.97-14.19-2.92l-5.44-3.41c-2.94-.97-3.44-1.46-4.47-4.38-1.03-2.43-2.03-3.4-3.04-5.35-1.03-2.44-1.55-3.9-2.57-6.33-2.01-2.92-6.65-14.6-7.7-18.5l-4.85-21.9c-7.7-41.37-11.41-55.49-28.82-94.92-2.57-6.32-8.64-17.03-13.14-22.39-1.02-1.94-6.51-8.27-7.05-10.71 5.43 3.41 13.37 10.23 20.68 10.23 9.76.48 27.69-4.38 32.37-13.15 1.87-3.89.32-7.78 3.65-11.68.46-1.46 7.18-6.33 9.13-6.33 3.9 0 6.92 4.87 9.87 5.85-.1-4.39-2.12-7.79-6.07-10.23-4.93-2.92-16.43 6.33-21.25 8.77-3.37 1.94-7.21 4.86-10.6 5.84l17.77-12.17c-3.85 1.94-6.72 4.87-10.59 5.84-4.36 1.46-7.76 1.95-11.6 4.38-8.21 3.89-9.83-3.89-17.15-4.38-3.42-.49-3.91-.49-6.36-.97 1.94-.49 4.85-.98 6.3-1.95-5.89-1.95-4.4-.49-8.79-.49 1.44-1.46 2.88-2.43 3.82-3.89l-5.81 1.94c-1.93.49-3.81 3.9-5.24 5.36.44-1.95 1.39-3.41 2.82-4.87.47-.49 1.43-1.46 1.43-1.46h.49l-.02-.97c1.45-.49 2.89-1.46 3.34-2.92-3.4.48-4.34 1.94-7.24 2.92.93-1.95-1.44.97.92-2.44l1.9-2.43c.95-.97.49 0 .95-.97-3.41 0-4.83 1.94-8.22 2.92 3.34-3.41 6.74-3.9 9.08-8.28-.96.49-2.42.49-4.37.49-1.46 0-3.41 0-4.4-.49l4.38-.48c-1-.98-2.97-1.95-4.44-2.44l3.75-6.81c2.81-5.36-2.04-4.38-.12-5.84-1.55-4.38-.33-15.58.03-21.42.45-1.95.38-5.36 1.32-6.82 2.49 2.44 6.42 3.9 8.91 6.33 9.92 8.28 24.9 25.31 31.81 29.69 5.44 3.9 17.7 7.31 24.48 5.36 3.88-.98 1.43-1.46 6.33 0 2.45.49 4.39 0 7.31 0-2.38 2.43-5.79 2.43-8.67 4.87l4.35-1.95c1.45-.49 2.4-1.46 4.84-1.46 3.9 0 9.26 0 12.68.49 1.47.48 3.43.97 4.43 1.94 2.95 1.46 5.48 5.84 14.25 5.84-2.47-1.46-5.91-2.92-8.86-4.38-1.98-1.46-6.41-3.4-7.91-5.35 2.9-.98-.51-.98 2.42-.49 5.36 0 3.89-.49 9.28.98 5.87.97 7.81.48 13.14-.98 11.62-3.41 10.17-2.92 17.77-12.17 4.75-5.84 23.31-26.77 31.06-28.72 3.03 4.87 3.38 21.42 3.97 26.29.52 1.46.51.97-.42 2.92l-2.38 2.92c1.49 1.46 3.55 6.33 5.52 7.3l-1.48-.49c-1.46 0 .46-1.46-.97 0l.5.49c.98.49 0 0 .98.49.99.48 1.47.48 1.96.48-1.41 2.44.97-.48-2.86 2.93-.97.48-.97.48-.97.48h3.9c-3.4.49-5.33 1.46-8.27.49l.51.97c2.52 3.9 5.44 3.9 8.45 7.79-3.44-.97-4.95-3.41-9.34-3.89 1.01 1.94 3.01 4.38 4.99 5.84-.5-.49-3.45-1.95-3.94-1.95zm-1.47-.49c.5.49-.47.98.49 0zm1.98-67.65c-4.92-1.95-6.41-3.41-13.22-2.93-4.39 0-10.69 1.47-13.09 3.41.46-1.46 2.4-1.94 3.35-2.92l1.44-.97c-3.88.48-6.29 1.95-10.17 2.92 6.27-3.41 9.18-3.9 15.51-3.9 7.8 0 10.72 0 16.18 4.39zm-170.98 2.43c.92-2.43 3.81-3.89 6.22-5.36 7.22-3.89 20.41-2.43 26.88 3.9-.99-.49-2.95-.97-3.92-.97-.98-.49-2.44 0-3.91-.49-3.44-1.46-5.4-1.95-8.82-2.44-9.28-.97-13.06 4.39-16.45 5.36z" fill="#dfe2e1"/><path d="m3748.86 12034.3c3.89-.49 5.95 4.87 6.49 7.3.56 3.41 1.66 9.25 1.22 11.68-1.45.49-4.37.49-6.33 0-2.94-.48-1.98-1.46-1.57-4.86-.09-4.39-.7-10.23.19-14.12zm15.58-.49c1.05 3.41 2.78 16.07 2.34 18.5l-7.3.49-1.01-1.95c-.02-.97-.05-2.43-.07-3.41-.06-2.43-.1-4.38.35-6.33.39-4.38 1.8-6.81 5.69-7.3zm-25.57 12.17c.45-1.95.91-3.41 1.85-4.87.9-3.4-.08-3.89 2.82-4.86 1.51 2.43 2.73 13.63 2.77 15.57-2.94-.48-6.42-3.89-7.44-5.84zm30.97-10.22c.01.49 4.57 8.76 4.6 10.22-1.41 2.44-1.87 3.41-5.26 4.38-.05-2.43-.59-4.86-.64-7.3-.04-1.46-.06-2.43-.08-3.41.4-4.38.43-2.92 1.38-3.89zm3.93 1.46c1.42-1.95 3.73-7.79 3.68-10.22l1.01 1.46c2.57 6.33-.22 12.65-3.1 14.6-.52-1.46-1.03-2.43-1.56-4.38-1.5-1.95-.55-2.92-2.04-4.38-1.99-1.95-3.9 0-4.86.49-2.57-6.33-6.84-.98-10.22.48-.16-7.3-.07-26.28-2.14-31.64.15 6.82-.88 27.26.21 32.62-1.49-.98-2.01-2.92-4.47-3.9-4.42-1.46-4.39 0-4.32 2.92l-1.48-.48c-.98-.49-2.93-.49-3.4.48 0 0 0 0 .01.49l-.47.49c-.58-4.38-3.65-11.2-4.26-17.04-1.48-.49-.49 0-2.44 0-1.14-7.79-4.03-6.33-5.06-8.76-1.5-1.95-3.07-6.82-4.6-10.22-3.07-6.82-5.17-14.12-2.43-22.88 2.74-8.27 6.57-11.68 16.89-7.79 12.27 4.38 12.41 11.2 15.86 12.66 3.75-6.82 9.02-11.2 18.21-14.12 6.31-1.46 8.76-.48 11.29 3.9 4.08 8.27 3.83 19.47.59 27.74-1.85 4.38-2.27 7.79-4.62 11.68-3.32 4.38-2.8 5.84-3.64 12.17-.43 2.92-2.66 12.66-2.64 13.63zm-39.31-15.58c1.6 6.33 4.7 15.09 3.38 21.42-2.47-1.46-5.5-6.33-5.56-9.25-.55-2.92.35-6.32 1.28-8.76l.44-1.95s-.01-.48.48-.48zm-13.2-1.94c.99.48-.01-.49 1 .97.49.49.99.97 1 1.46l5.05 8.28c1.03 2.43 1.56 4.38 2.57 6.32 1.03 2.44 2.02 3.41 3.53 5.36 3.04 5.84 4.01 5.35 8.48 9.25 3.98 3.89 5.94 4.38 13.72 3.89 11.69-.49 16.52-2.43 22.15-12.66 2.35-3.89 3.25-7.3 5.1-12.16.93-1.95 4.65-10.71 6.09-11.69.16 7.79-3.14 13.15-5.39 21.91-1.81 6.33-1.2 12.17-12.84 14.6-8.73 1.95-24.77 3.89-33.15-.49-9.38-5.84-8.85-3.89-11.46-12.17-.03-1.46-1.03-2.43-1.54-3.4l-5.16-13.63c-1.54-3.9-2.53-4.38.85-5.84zm59.71 12.17c-.5-.49.01.48-.52-1.46l-1.56-4.38c-.62-6.33-.84-17.04 9.03-11.2.59 4.87-4.19 9.25-6.95 17.04zm-58.31-15.09c1.42-1.95 3.82-3.9 6.77-2.44 3.94 1.95 2.74 14.12.86 17.53-2.03-3.9-6.57-11.2-7.63-15.09zm-1.53-3.41c-1.04-2.92-1.04-2.92-.14-6.33l1.38-3.89c.96-.98.48-.49.96-.98 1.01 1.95 1.55 4.39 2.1 7.31.53 1.94 1.02 1.94-.42 2.92-.97.48-2.42.97-3.88.97zm65.03-12.17s.49 0 .51.97l1.05 3.41c.54 2.44.57 3.9.61 5.84l-4.88-.48c-.04-1.95 1.77-8.28 2.71-9.74zm-67.07 7.79-.31-14.6c-.02-.98-.03-1.46-.05-1.95.48-.49.47-.97.47-.97.47-.98.48-.49.96-.98-.42 3.41 3.07 7.3.79 14.6l-.45 1.47c-.92 2.92.04 1.94-1.41 2.43zm68.47-10.71c.46-1.46.45-1.95.41-3.89l.42-2.92c.45-1.95 0 0 .46-1.46.07 3.4 1.25 13.14.83 16.06 0 0-.48.49-.48.49.02.97-.48.48-.47.97-.05-2.44.36-6.33-.67-8.76-.49 0-.5-.49-.5-.49zm-50.05-62.79c-2.35-18.5 14.19-19.96 14.03-4.38.11 4.87.31 14.6-4.55 15.09-6.79 1.46-8.88-5.36-9.48-10.71zm34.24 6.33c-4.02-5.84-4.36-21.91-.11-28.23 3.41 0 4.42 1.94 5.46 4.86.55 2.92 1.11 6.33 1.17 9.25.63 6.82-.68 13.63-6.52 14.12zm-37.5.97c-8.81-1.95-8.3-23.85-2.01-25.8 4.44 2.44 6.7 17.04 2.01 25.8zm17.77-12.17c-1.09-5.35 4.13-12.17 9.51-11.19 7.84 1.94 8.88 28.23-3.81 27.25-5.86-.48-5.11-11.19-5.7-16.06zm-31.07-17.52c4.41.97 4.57 8.76 4.68 13.63.54 2.92.61 5.84.67 8.76.08 3.89-.39 4.87-4.28 4.87-6.01-7.3-6.74-18.99-1.07-27.26zm61.95 26.28c-1.97-.97-2.51-3.89-2.57-6.32-.06-2.92-.62-6.33-.67-8.77-.07-3.4 2.19-11.68 4.6-13.14 2.4-1.46 1.94 0 2.54 5.36.59 4.38.95 21.41-3.9 22.87zm7.75-2.43c-.01-.49-.53-1.95-.54-2.43-1.59-5.84-1.15-8.28-.31-14.61.43-2.92.84-6.32 1.26-9.73 1.38-3.9 1.81-6.33 4.25-6.33 1.51 2.43 1.09 5.36 1.18 9.74.07 3.4.13 6.32-.28 9.73-.83 6.82-2.22 10.22-4.54 15.58zm-78.88 2.92c-1.51-2.43-2.52-3.89-3.09-7.79-1.02-2.43-1.09-5.84-1.64-8.76s-.62-6.33-1.17-9.25c-.62-5.84-1.14-7.79 1.76-8.76 3.95 2.43 9.74 22.88 5.09 33.1-.47.97.01.49-.47.97zm-27.35-49.16c4.39.49 11.8 4.87 16.21 6.33 13.77 5.84 36.37 14.6 51.48 14.6 7.3 0 27.12-7.79 33.39-10.71 4.34-1.95 27.01-13.14 29.93-13.14-3.36 2.43-10.52 9.25-13.38 12.17l-2.39 2.43h-.49l-1.92.97c-1.97-.97-1.5-1.46-3.46-1.94-2.4 1.46-4.22 7.79-5.13 10.71-.99-.98-1.51-2.44-2.51-3.41-4.37.49-6.25 3.89-7.13 8.27l-1.52-2.92s-1.49-.97-1.97-.97c-1-.97-2.02-2.92-4.43-1.95-1.92 1.46-4.25 6.33-4.17 10.22-9.43-8.27-10.76-1.94-16.07.49-1.49-1.46-3.47-2.92-6.41-3.41-4.39-.48-4.35 1.46-7.74 2.44-4.12-10.22-6.43-4.38-9.8-2.44-1.49-1.46-1.02-2.43-2.04-4.38-.53-1.94-1.51-2.43-3-3.4-4.36.97-4.76 5.35-6.12 9.73-1.51-1.95-2.11-7.3-3.14-10.22-1.03-2.44-3.56-6.82-6.01-7.3l-2.37 2.92c-3.92-.98-7.91-5.36-10.39-7.3-1.99-1.95-7.92-5.84-9.42-7.79zm141.43-40.4-3.92-.98c1.9-1.94 3.37-1.94 6.78-1.94-1.01-1.46-1.99-1.95-2.52-3.9 1.96.49 4.42 1.95 5.42 2.92l1 .98c-.52-1.46-.02-.49-.52-1.46l-1.51-1.95c-.98-.49-.98-.49-1.48-.97l-.98-.49c-.01-.49-.01-.49-.01-.49h.97.49c.96-.48.96-.48.98.49.49 0 3.44 1.46 3.94 1.95-1.98-1.46-3.98-3.9-4.99-5.84 4.39.48 5.9 2.92 9.34 3.89-3.01-3.89-5.93-3.89-8.45-7.79l-.51-.97c2.94.97 4.87 0 8.27-.49h-3.9s0 0 .97-.48c3.83-3.41 1.45-.49 2.86-2.93-.49 0-.97 0-1.96-.48-.98-.49 0 0-.98-.49l-.5-.49c1.43-1.46-.49 0 .97 0l1.48.49c-1.97-.97-4.03-5.84-5.52-7.3l2.38-2.92c.93-1.95.94-1.46.42-2.92-.59-4.87-.94-21.42-3.97-26.29-7.75 1.95-26.31 22.88-31.06 28.72-7.6 9.25-6.15 8.76-17.77 12.17-5.33 1.46-7.27 1.95-13.14.98-5.39-1.47-3.92-.98-9.28-.98-2.93-.49.48-.49-2.42.49 1.5 1.95 5.93 3.89 7.91 5.35 2.95 1.46 6.39 2.92 8.86 4.38-8.77 0-11.3-4.38-14.25-5.84-1-.97-2.96-1.46-4.43-1.94-3.42-.49-8.78-.49-12.68-.49-2.44 0-3.39.97-4.84 1.46l-4.35 1.95c2.88-2.44 6.29-2.44 8.67-4.87-2.92 0-4.86.49-7.31 0-4.9-1.46-2.45-.98-6.33 0-6.78 1.95-19.04-1.46-24.48-5.36-6.91-4.38-21.89-21.41-31.81-29.69-2.49-2.43-6.42-3.89-8.91-6.33-.94 1.46-.87 4.87-1.32 6.82-.36 5.84-1.58 17.04-.03 21.42-1.92 1.46 2.93.48.12 5.84l-3.75 6.81c1.47.49 3.44 1.46 4.44 2.44l-4.38.48c.99.49 2.94.49 4.4.49 1.95 0 3.41 0 4.37-.49-2.34 4.38-5.74 4.87-9.08 8.28 3.39-.98 4.81-2.92 8.22-2.92-.46.97 0 0-.95.97l-1.9 2.43c-2.36 3.41.01.49-.92 2.44 2.9-.98 3.84-2.44 7.24-2.92-.45 1.46-1.89 2.43-3.34 2.92l.02.97c-.49 0 0 0-.49 0 0 0-.96.97-1.43 1.46-1.43 1.46-2.38 2.92-2.82 4.87 1.43-1.46 3.31-4.87 5.24-5.36l5.81-1.94c-.94 1.46-2.38 2.43-3.82 3.89 4.39 0 2.9-1.46 8.79.49-1.45.97-4.36 1.46-6.3 1.95 2.45.48 2.94.48 6.36.97 7.32.49 8.94 8.27 17.15 4.38 3.84-2.43 7.24-2.92 11.6-4.38 3.87-.97 6.74-3.9 10.59-5.84l-17.77 12.17c3.39-.98 7.23-3.9 10.6-5.84 4.82-2.44 16.32-11.69 21.25-8.77 3.95 2.44 5.97 5.84 6.07 10.23-2.95-.98-5.97-5.85-9.87-5.85-1.95 0-8.67 4.87-9.13 6.33-3.33 3.9-1.78 7.79-3.65 11.68-4.68 8.77-22.61 13.63-32.37 13.15-7.31 0-15.25-6.82-20.68-10.23.54 2.44 6.03 8.77 7.05 10.71 4.5 5.36 10.57 16.07 13.14 22.39 17.41 39.43 21.12 53.55 28.82 94.92l4.85 21.9c1.05 3.9 5.69 15.58 7.7 18.5 1.02 2.43 1.54 3.89 2.57 6.33 1.01 1.95 2.01 2.92 3.04 5.35 1.03 2.92 1.53 3.41 4.47 4.38l5.44 3.41c3.45 1.95 9.8 2.92 14.19 2.92 11.69 0 13.13-.97 23.32-3.41 5.82-.97 9.08-8.27 10.89-14.6 2.74-8.76 5.99-16.55 7.73-26.28 3.1-14.61 4.74-29.21 7.35-43.81 3.87-24.34 9.94-59.87 21.18-81.29l13.7-20.44c-2.9.97-7.22 4.38-9.12 6.33-5.29 3.4-39.02-1.46-45.13-14.12-1.02-1.95-1.06-3.89-2.07-5.84-2.52-3.89-8.49-9.74-13.81-7.79-3.38 1.46-8.15 6.33-8.15 6.33h-.49c1.38-3.89 2.75-8.28 6.09-11.68 2.39-1.95 4.37-.49 6.83.48.99.98 1.48.98 2.95 1.46 1.48.49 9.86 5.36 15.26 7.31l11.83 6.32c-.99-.97-1.99-1.94-2.97-2.43l-23.2-14.12c3.89 0 4.42 1.95 7.38 3.41l3.45 1.95c.99.97 1.98 1.46 3.45 1.94 2.47 1.47 4.45 2.93 6.91 3.9 1.97.97 4.91 1.95 7.38 3.41l-.03-1.46c2.46 1.46 5.42 2.92 8.82 2.43 1.95 0-.95.97 0 0l3.86-1.95c1.91-1.46 3.34-2.92 6.26-3.4 1.94-.49 5.81-1.46 8.24-1.95h-4.38zm-47.03 11.19c.7 10.23-9.07 9.25-14.33 13.63l-1.42 1.95c-.5-.49-.49 0-.49 0l.5.49c.47-.49-.01-.49 1.44-.98 1.41-2.43 9.17-3.89 12.98-8.27 1.91-1.95 1.41-2.44 2.84-3.9 2.48 1.95 3.99 4.38 6.97 6.82 3.95 2.43 9.36 4.87 13.77 6.33.99.48 1.96.48 2.46.97l1.47.49c2.94.48 6.36.97 9.31 2.43.99.49.49 0 .99.49-1.93.97-4.32 2.92-6.25 3.89-2.41 1.46-4.35 1.95-6.75 3.41-1.93.97-2.39 2.43-5.76 4.38l-13.99 6.33-21.76 8.27c-12.58 3.9-37.1-3.41-49.88-8.76l-13.3-6.81c-.05-1.95-.52-1.46.92-2.44-4.41-.97-10.79-3.41-14.73-5.35.45-1.46-.51-.98 1.91-1.46l7.76-1.95c3.39-.97 6.31-.97 9.68-2.92 2.89-1.95 5.29-3.41 7.69-5.35 5.27-3.9 3.37-1.95 6.69-5.85l10.44 9.74c.99.49.49 0 1.48.49-3.02-4.38-9.44-8.28-11.02-14.12-1.09-5.35-.16-7.3 3.2-9.73.47-.98.95-.98 1.92-1.46 1.91-1.95 2.85-3.41 6.79-1.46 1.48.97 6.45 5.35 7.44 6.32 1.01 1.46 3.57 7.3 4.09 8.76-.03-1.46-1.01-1.46-1.61-6.81-1.3-15.58-5.12-11.68-8.19-18.5 1.41-2.43 3.33-3.89 6.22-5.35 5.3-2.92 14.57-2.43 19.01 0 2.46 1.46 4.45 3.41 5.48 5.84-1.39 3.41-4.29 4.38-5.65 9.25-1.85 4.87-.32 7.79-1.68 12.65 5.52-15.57 19.6-18.01 23.36-1.46zm-78.63-31.15 2.47 1.46c3.42.49 7.83 1.46 9.35 4.38-6.71 5.36-15.94 6.33-23.77 4.87-14.18-2.43-9.35-27.26 0-22.88 2.47 1.46 6.99 7.79 10.46 10.71 1 .97.5.49 1.49 1.46zm85.38 4.87c2.38-2.43 6.27-2.92 9.15-4.87 2.4-1.95 4.77-4.87 7.17-6.81 1.91-1.95 4.75-5.84 8.66-5.36 5.86.98 13.58 19.96-4.86 23.85-5.81 1.46-17.61-3.4-20.12-6.81z" fill="#270318"/><path d="m3848.7 12054.74c-3.81 4.38-6.12 10.23-8.96 14.12-.47.97-.96.97-1.91 1.95l-7.54 12.16c-1.41 2.44-4.3 3.9-6.13 9.74-.92 2.43-11.82 17.04-12.76 18.5-1.91 1.94-1.9 2.43-2.82 4.86-1.9 2.44-5.69 7.31-8.04 11.69-.47.48-1.41 2.43-1.44.97-1.92 1.46-.96.49-1.9 2.43-.94 1.46-.95.98-1.9 1.95-1.44 1.46-2.36 3.89-1.34 5.84 1.94-.49 6.17-7.79 7.11-9.25 2.32-5.35 7.53-12.65 10.83-18.01.96-.48 1.44-.97 1.9-1.94.94-1.95 1.88-3.41 3.31-4.87.47-.97.95-1.46 1.91-1.95l7.12-8.76c4.28-4.87 8.54-11.2 13.32-15.58l15.73-16.55c12.91-11.19 17.71-14.6 33.61-23.36 4.81-2.92 13.45-9.25 15.96-5.84 2.99 3.41 6.11 12.66 7.19 17.52 1.06 3.9 1.13 7.3 1.21 11.2l.56 3.41c2.92 0 .51.97 3.75-6.82 7.91-18.01 15.33-35.53 26.18-52.57l14.13-22.88c5.66-8.76 11.34-16.55 18.01-23.85-.53-1.94-4.53-6.81-6.04-9.24l-22.4-22.4-17.1 20.94c-1.43 1.46-1.9 2.43-3.33 3.89l-10.46 12.17c-4.27 5.84-10.96 11.68-14.28 16.06l-8.56 10.22c-1.42 1.95-.48 0-1.41 2.44 2.43-.49 3.39-.98 5.83-.98l-6.15 8.76c-4.72 7.31-7.58 10.23-12.31 17.04-6.15 8.28-9.39 16.55-17.97 25.8l-8.56 9.73c-.96.49-.95.98-1.92 1.46-1.43 1.46-1.9 2.44-3.82 3.41.46-.97.44-1.95 1.39-3.41z" fill="#4c303d"/><path d="m3543.68 11963.72c-.96.49-.5-.49-.95.97.01.49.51.98.51.98h-.49c-.48.48-.5-.49-.47.97.5.49 1.95 0 .01.49h.49c.03 1.46.02.97 1.01 1.46-.52-1.46-.02-.49-.52-1.46 2.94.97 11.94 11.68 14.44 14.6 9.04 12.66 17.05 22.88 25.14 36.51 3.03 5.35 25.29 43.8 26.39 49.65.04 1.94-.99-.49.5.97.51.97 3.04 5.35 3.56 6.81-.24-11.19-2.38-20.44.31-31.15 3.61-13.63 6.58-11.68 17.9-6.33 7.87 3.41 14.78 7.79 21.69 11.69 3.95 2.43 11.35 6.81 14.83 10.22 1.97.97 2.97 1.94 4.94 2.92 7.93 6.33 7.96 7.79 10.93 10.22 3.97 3.41 10.47 11.2 13.97 15.09 6 7.3 12.98 15.09 18.52 23.36l5.99 6.82c1.01 1.46.51.97 1.52 2.43 1.52 2.92 2.01 2.92 3.51 4.87 2.51 3.41 2.02 3.41 5.5 6.81l1.99 1.95c-.53-2.43-6.07-10.71-7.58-13.14-7.55-11.2-12.04-16.06-20.05-26.29l-9.01-11.19c-2-2.44-3.99-4.38-7-8.28l-13.04-17.52c-1.01-1.95-2.51-3.41-4.02-5.84-1.5-1.95-3-3.41-4.51-5.84-1.51-2.44-1.09-5.36-3.07-6.82-.95.98 1.46 0-.95.98-.51-.98-5.09-10.22-6.57-11.2 1.01 1.95 3.02 4.87 3.55 6.82l.55 2.92c-.01-.49-.01-.49-.01-.49-.49 0-.49 0-.49 0l-9.46-9.73c-1.49-1.46-1.99-1.95-3.47-2.92-6.48-6.82-12.94-12.66-18.93-19.47l-54.41-60.85-10.55-15.09c-4.25 6.33-19.86 28.23-22.17 34.56-.51-.97-.95.97-.03-1.46z" fill="#4c303d"/><path d="m3775.94 12001.69c.46-1.46.47-.98.92-2.44 3.28-6.32 4.08-14.6 5.98-17.03.59 4.87-1.7 11.68-4.53 16.06.01.49-.47.97-.94 1.95zm-47.73-21.91c.5.49.01.49.02.98.5.48.5.48.52 1.46.51.97 1.02 1.94 1.53 3.4 1.08 4.87 2.13 8.28 4.18 13.15 1.02 1.94 2.51 3.4 3.04 5.35-2.45-.49-3.46-2.43-4.49-4.87-3.5-4.38-9.58-15.09-5.78-19.95.98.48-.01-.49.98.48zm45.59 58.9-.03-1.46c-.02-.97 2.21-10.71 2.64-13.63.84-6.33.32-7.79 3.64-12.17 2.35-3.89 2.77-7.3 4.62-11.68 3.24-8.27 3.49-19.47-.59-27.74-2.53-4.38-4.98-5.36-11.29-3.9-9.19 2.92-14.46 7.3-18.21 14.12-3.45-1.46-3.59-8.28-15.86-12.66-10.32-3.89-14.15-.48-16.89 7.79-2.74 8.76-.64 16.06 2.43 22.88 1.53 3.4 3.1 8.27 4.6 10.22 1.03 2.43 3.92.97 5.06 8.76 1.95 0 .96-.49 2.44 0 .61 5.84 3.68 12.66 4.26 17.04l.47-.49c-.01-.49-.01-.49-.01-.49.47-.97 2.42-.97 3.4-.48l1.48.48c-.07-2.92-.1-4.38 4.32-2.92 2.46.98 2.98 2.92 4.47 3.9-1.09-5.36-.06-25.8-.21-32.62 2.07 5.36 1.98 24.34 2.14 31.64 3.38-1.46 7.65-6.81 10.22-.48.96-.49 2.87-2.44 4.86-.49 1.49 1.46.54 2.43 2.04 4.38z" fill="#f60000"/><path d="m3764.52 11876.59s-.48.49-.48.49l-.95.97c-2.36 3.9-3.8 4.87-7.15 7.79-7.67 5.84-8.01 12.66-19.96.49-1.98-1.46-2.99-2.92-4.01-4.87l-3.99-4.38-10.44-9.74c-3.32 3.9-1.42 1.95-6.69 5.85-2.4 1.94-4.8 3.4-7.69 5.35-3.37 1.95-6.29 1.95-9.68 2.92l-7.76 1.95c-2.42.48-1.46 0-1.91 1.46 3.94 1.94 10.32 4.38 14.73 5.35-1.44.98-.97.49-.92 2.44l13.3 6.81c12.78 5.35 37.3 12.66 49.88 8.76l21.76-8.27 13.99-6.33c3.37-1.95 3.83-3.41 5.76-4.38 2.4-1.46 4.34-1.95 6.75-3.41 1.93-.97 4.32-2.92 6.25-3.89-.5-.49 0 0-.99-.49-2.95-1.46-6.37-1.95-9.31-2.43l-1.47-.49c-.5-.49-1.47-.49-2.46-.97-4.41-1.46-9.82-3.9-13.77-6.33-2.98-2.44-4.49-4.87-6.97-6.82-1.43 1.46-.93 1.95-2.84 3.9-3.81 4.38-11.57 5.84-12.98 8.27z" fill="#dfe2e1"/><path d="m3869.16 12008.5 5.2-7.3c21.79-29.69 9.37-17.52 36.07-45.27l10.94-12.65c5.23-6.33 10.45-12.66 14.67-20.45l11.2-23.36-1.41 2.43c-3.42-.48-5.38-.97-9.25 0-3.87 1.46-4.37.98-7.81-.48-6.38-1.95-28.17-18.5-38.01-22.88-.43 2.43-1.85 4.38-2.75 7.79 7.41 4.87 10.86 6.81 18.28 12.17 2.98 2.43 13.47 14.6 13.03 17.03-.91 2.92-9.5 11.68-11.88 14.12-5.23 6.33-23.99 40.4-29.19 48.19-13.19 21.41-22.91 45.75-35.11 67.66-6.1 11.19-12.22 21.41-18.8 32.61-7.98 14.11-12.25 19.95-19.79 31.64-6.12 10.22-8.09 9.24-11.89 14.11-2.84 3.9-7.05 12.17-8.41 17.04-.86 5.35-12.51 30.18-13.82 37.48.91-2.92 6.52-14.12 8.38-18.5 4.66-9.73 8.82-20.44 14.47-29.69 2.33-5.35 2.77-7.3 6.59-11.2 2.38-2.43 5.69-7.3 7.58-10.22 3.72-8.27 8.95-14.6 13.17-22.39 4.72-7.3 8.95-14.6 13.17-22.39 3.74-7.3 8.44-15.57 12.18-22.88l25.33-46.24c-.44 1.95-1.36 4.87-2.28 7.3-1.38 3.9-2.79 6.33-1.79 7.31.47-.49.46-.98.94-1.46.96-.49.47-.98.99.48z" fill="#820024"/><path d="m3581.19 11940.36.5.48 14.43 14.12c2.49 2.43 4.97 4.38 7.46 6.81 9.95 9.74 19.88 18.5 28.39 29.21 2.02 3.41 3.53 5.84 6.03 8.76l-2.99-3.41 2.52 3.9s0 0 .49.48.5.49.5.49c-.01-.49-.01-.49-.52-1.46 2.53 4.38 7.54 10.71 10.54 14.6l10.56 15.09c1.48.98 6.06 10.22 6.57 11.2 2.41-.98 0 0 .95-.98-.56-3.4-3.57-7.78-5.11-11.19-6.58-11.68-3.58-8.28-12.13-20.44-7.53-10.71-26.21-41.38-31.3-51.6-8.12-15.09-29.4-30.67-31.91-34.07-4.55-7.79 21.27-31.15 22.03-41.38-5.8 2.44-14.4 10.23-19.68 14.12-10.06 8.27-8.58 9.25-25.64 8.76l.01.49c.05 2.43 10.69 21.41 12.75 26.77 2.04 4.38 3.05 5.84 5.55 9.25zm-4.01-5.36-.51-.97c.02.97.02.97.51.97z" fill="#820024"/><path d="m3851.91 11907.74c3.28-6.32 9.59-7.3 15.35-11.68 2.89-1.46 11.95-10.71 12.88-13.14-.42 3.41-9.49 12.17-11.89 14.12-4.79 3.89-11.05 7.3-16.34 10.7zm-11.42 12.66h2.92c.42-3.41 1.32-6.81 2.72-9.73.5.48.96-.49.06 2.92.03 1.46-.84 6.32-.32 7.78.51.98 2.93.49 4.39.49l20.16-14.6c5.76-3.9 4.32-2.92 7.59-9.74l10.19-24.82c3.2-10.22 7.35-21.42 12.01-31.15 1.41-2.44 2.83-4.38 3.28-6.33-12.65.97-16.87 8.76-22.55 16.55-3.34 3.41-6.69 6.33-9.04 10.22-1.9 2.43-4.62 12.17-2.61 15.09-.99-.97.49 0-1.47-.49-1.85 4.87-3.6 14.12-6.45 17.53-1.92 1.46-12.48 8.76-15.4 9.24.44-2.43 2.32-5.84 3.25-7.78 3.78-5.36 5.26-4.87 7.49-14.61.9-3.4.34-6.81 1.24-10.22 0 0 0 0-.49 0 .01.49.01.49.01.49l-5.63 10.22c-3.26 6.81-8.43 16.06-10.22 23.36-.88 4.39-2.22 10.23-2.12 15.09z" fill="#dfe2e1"/><path d="m3619.02 11885.84c-1-.97 1.49 1.46 0 0zm36.34 36.51c-1.03-2.92-5.04-8.28-6.57-11.2-3.53-5.84-4.01-5.35-10.39-7.79-6.41-3.4-15.35-11.19-18.88-17.03 5.45 4.38 8.47 8.76 15.37 12.65 1.97.98 4.92 1.95 5.92 3.41 4.95 3.41 10.44 9.74 13.47 14.6 1.53 3.41 1.05 3.9 5.92 3.41-.66-7.79-4.79-18.98-7.37-25.8-1.53-2.92-8.7-19.47-12.15-21.41-1.32 6.81-1.74 9.73 2.81 17.52 1.5 1.95 5.45 4.38 8.56 13.14-2.44 0-14.3-7.79-16.28-9.25-4.98-5.35-6.16-15.09-8.62-16.06h-.49c-.49 0-.49 0-.49 0 .89-4.38 2.89-1.95 1.31-7.3-.58-4.38.37-5.36-2.12-8.28-13.45-13.63-15.12-23.36-32.75-27.74l6.11 12.65c7.68 17.53 15.84 34.56 23.04 52.09 2.56 5.84 2.52 4.38 9.45 9.25 1.98 1.46 3.95 2.43 5.44 3.89 4.46 3.41 12.4 10.22 18.71 9.25z" fill="#dfe2e1"/><path d="m3697.5 11726.19c15.64 2.43 22.99 4.38 36.76 10.22 17.23 8.27 6.45 5.35 31.58-4.38 8.22-2.92 23.75-5.84 24.72-6.33-.11-4.87-15.75-7.3-20.15-7.79-12.71-1.94-40.48-1.94-53.11 0-5.33 1.46-18.93 3.41-19.8 8.28z" fill="#4c303d"/><path d="m3718.44 11863.45 5.85.49c.41-3.9.9-3.9-2.54-4.87 1.94-.49 1.93-.97 3.89-.49 10.75 1.46 15.01 18.5 23.29 18.01 4.87 0 9.58-7.79 11.45-11.19 1.9-2.44 3.34-3.41 6.22-5.36 3.36-2.43 4.85-1.46 8.28-.48h-1.95c.05 2.43-.89 3.89 1.08 4.86l-.03-1.46c1.96.98 3.4-.48 3.88-.48.48-.49-.01-.49.96-.98-3.76-16.55-17.84-14.11-23.36 1.46 1.36-4.86-.17-7.78 1.68-12.65 1.36-4.87 4.26-5.84 5.65-9.25-1.03-2.43-3.02-4.38-5.48-5.84-4.44-2.43-13.71-2.92-19.01 0-2.89 1.46-4.81 2.92-6.22 5.35 3.07 6.82 6.89 2.92 8.19 18.5.6 5.35 1.58 5.35 1.61 6.81-.52-1.46-3.08-7.3-4.09-8.76-.99-.97-5.96-5.35-7.44-6.32-3.94-1.95-4.88-.49-6.79 1.46-.97.48-1.45.48-1.92 1.46-3.36 2.43-4.29 4.38-3.2 9.73z" fill="#dfe2e1"/><path d="m3684.42 11890.71c1.5 1.95 7.43 5.84 9.42 7.79 2.48 1.94 6.47 6.32 10.39 7.3l2.37-2.92c2.45.48 4.98 4.86 6.01 7.3 1.03 2.92 1.63 8.27 3.14 10.22 1.36-4.38 1.76-8.76 6.12-9.73 1.49.97 2.47 1.46 3 3.4 1.02 1.95.55 2.92 2.04 4.38 3.37-1.94 5.68-7.78 9.8 2.44 3.39-.98 3.35-2.92 7.74-2.44 2.94.49 4.92 1.95 6.41 3.41 5.31-2.43 6.64-8.76 16.07-.49-.08-3.89 2.25-8.76 4.17-10.22 2.41-.97 3.43.98 4.43 1.95.48 0 1.97.97 1.97.97l1.52 2.92c.88-4.38 2.76-7.78 7.13-8.27 1 .97 1.52 2.43 2.51 3.41.91-2.92 2.73-9.25 5.13-10.71 1.96.48 1.49.97 3.46 1.94l1.92-.97h.49l2.39-2.43c2.86-2.92 10.02-9.74 13.38-12.17-2.92 0-25.59 11.19-29.93 13.14-6.27 2.92-26.09 10.71-33.39 10.71-15.11 0-37.71-8.76-51.48-14.6-4.41-1.46-11.82-5.84-16.21-6.33z" fill="#f60000"/><path d="m3947.24 11899.47-11.2 23.36c-4.22 7.79-9.44 14.12-14.67 20.45l-10.94 12.65c-26.7 27.75-14.28 15.58-36.07 45.27l-5.2 7.3c-.88 4.87-6.09 11.68-7.96 15.58-2.81 5.35-5.14 10.22-7.94 16.06-3.74 7.3-8.42 16.55-12.66 23.36-7.1 9.74-15.57 24.34-23.11 36.02-3.8 4.87-16.56 23.37-18.39 29.21.03 1.46.97-.49 1.44-.97 2.35-4.38 6.14-9.25 8.04-11.69.92-2.43.91-2.92 2.82-4.86.94-1.46 11.84-16.07 12.76-18.5 1.83-5.84 4.72-7.3 6.13-9.74l7.54-12.16c.95-.98 1.44-.98 1.91-1.95 2.84-3.89 5.15-9.74 8.96-14.12.92-2.43 2.35-3.89 3.76-6.32 3.78-5.36 7.04-12.66 10.82-18.5 5.18-8.28 12.82-15.58 15.08-23.85l-3.91-.49c.47-.97 1.87-3.89 2.82-4.87.46-1.46 1.88-3.4 2.83-4.38l10.91-14.11c1.41-2.44 3.29-5.84 4.71-7.79 4.75-5.84 14.83-13.14 18.1-19.47.94-1.95 4.29-4.87 6.2-6.33 5.23-6.33 6.17-7.79 10.91-14.11 1.89-2.92 3.31-4.87 5.21-7.31 4.71-7.78 16.83-33.58 19.06-43.32 1.38-3.89 2.8-5.84 3.72-8.27l-4.42-1.46c-2.91.49-.82 7.3-2.61 14.6-1.37 4.38-3.26 7.3-4.65 10.71z" fill="#f60000"/><path d="m3840.91 11779.24c-.48.49.01.49-.49 0l-.99-.48c.5.48.51.97 1.01 1.46-3.37 1.94-1.4 2.92-1.39 3.4l4.06 7.79c.04 1.95-.42 2.92.58 4.38l1.44-.97c3.83-3.41 9.66-4.38 12.53-6.82.35-6.32-1.21-11.19-2.79-16.55-2.6-7.78-2.12-8.27-6.61-13.14-3-3.4-6.97-6.81-9.95-9.73-2.47-1.46-9.89-6.82-12.35-7.79 1.02 1.95 1.51 2.43 3.02 4.38l5.49 6.33c3.47 2.92 2.49 2.43 3.99 4.38 2.49 2.43 5.45 4.38 4.59 9.73-.4 3.9-1.8 6.82-3.19 10.23l2.37-2.92c.04 1.94-.9 3.4-2.34 4.38 1.01 1.46 0 0 1.97.97-2.42.97 0 0-.95.97z" fill="#4c303d"/><path d="m3583.75 11831.33c26.33.48 32.87 10.22 44.43 26.77l8.54 12.17c1 1.46.51.97 1.98 1.46-1.59-5.85-2.67-11.2-4.75-17.04-2.62-8.76-2.63-9.25-2.35-18.98-18.18-7.31-22.08-7.31-41.53-5.36-3.9 0-3.9 0-5.84.49z" fill="#dfe2e1"/><path d="m3864.04 11836.19c.14 6.82.27 12.66-1.07 18.5-1.35 5.35-3.18 10.71-3.05 17.04.48-.49 0 0 .47-.98l3.26-6.81c.95-1.46 1.91-1.95 2.87-2.92 13.27-17.53 12.05-29.21 47.13-29.21-.5-.48 0 0-.99-.48l-5.37-.49c-1.96-.49-4.39-.49-6.35-.98-12.7-1.46-26.82-.97-36.9 6.33z" fill="#dfe2e1"/><path d="m3724.29 11863.94c-.46.97-.95.97-1.91 1.46 1.52 2.92 3.01 4.38 6.93 5.35 3.91.49 5.41 2.44 7.89 4.38 3.95 2.44 3.93 1.46 5.98 6.33 4.11 9.74 8.39 4.87 12.66-.49l9.58-7.78c1.44-.98 2.89-1.46 4.83-1.95 1.44-.97 4.34-2.44 4.78-4.38.91-2.92-.04-1.95-1.02-2.44-1.97-.97-1.03-2.43-1.08-4.86h1.95c-3.43-.98-4.92-1.95-8.28.48-2.88 1.95-4.32 2.92-6.22 5.36-1.87 3.4-6.58 11.19-11.45 11.19-8.28.49-12.54-16.55-23.29-18.01-1.96-.48-1.95 0-3.89.49 3.44.97 2.95.97 2.54 4.87z" fill="#270318"/><path d="m3649.78 11796.77-.09-4.38c.41-3.41-.05-1.95 1.82-5.85l3.29-5.84c.93-1.94-.05-2.43-.55-2.92l.05 2.44c.93-1.95.48-.49-.03-1.46-1.49-1.46-.95.97-3.52-5.36-1.05-3.41-2.07-5.35-2.63-8.76-1.06-4.38.87-4.87 2.27-7.79 6.16-8.27 3.33-3.89 2.81-5.35 1.94-.49.5.48 2.43-.49l-1.47-.49c1.44-.97.94-1.46 2.86-2.92-1-.97 0 0-2.41 1.46-15.86 10.23-13.78 16.55-17.83 32.13-.1-4.87.79-8.76-.29-13.63-1.34 5.84-1.15 14.6-1.5 20.93l7.39 3.9c2.45.97 4.42 1.94 6.9 3.89.01.49.5.49.5.49z" fill="#4c303d"/><path d="m3799.79 12023.1c-1.36 4.87-10.64 26.78-13.48 31.16-4.69 8.27-18.22 13.63-31.87 13.63-9.25 0-19.56-3.41-26.02-9.25-2.48-1.95-3.96-2.92-5.96-5.36-5.5-6.81-9.17-18.98-13.26-27.74-.01-.49-.51-1.46-.52-1.95-1.51-1.95-.51-.97-1.5-1.46-.41 3.41 4.2 14.12 5.74 18.01 5.62 12.17 12.23 24.83 25.5 30.18 1.95.49 2.94.97 4.41 1.46 4.42 1.46 17.56.97 22.91.49.49 0 2.43-.49 2.92-.49l6.28-2.43c12.08-4.87 16.21-17.04 19.87-28.24z" fill="#270318"/><path d="m3721.26 12019.7c-3.38 1.46-2.39 1.94-.85 5.84l5.16 13.63c.51.97 1.51 1.94 1.54 3.4 2.61 8.28 2.08 6.33 11.46 12.17 8.38 4.38 24.42 2.44 33.15.49 11.64-2.43 11.03-8.27 12.84-14.6 2.25-8.76 5.55-14.12 5.39-21.91-1.44.98-5.16 9.74-6.09 11.69-1.85 4.86-2.75 8.27-5.1 12.16-5.63 10.23-10.46 12.17-22.15 12.66-7.78.49-9.74 0-13.72-3.89-4.47-3.9-5.44-3.41-8.48-9.25-1.51-1.95-2.5-2.92-3.53-5.36-1.01-1.94-1.54-3.89-2.57-6.32l-5.05-8.28c-.01-.49-.51-.97-1-1.46-1.01-1.46-.01-.49-1-.97z" fill="#f60000"/><path d="m3778.82 11861.5c-.97.49-.48.49-.96.98-.48 0-1.92 1.46-3.88.48l.03 1.46c.98.49 1.93-.48 1.02 2.44-.44 1.94-3.34 3.41-4.78 4.38-1.94.49-3.39.97-4.83 1.95l-9.58 7.78c-4.27 5.36-8.55 10.23-12.66.49-2.05-4.87-2.03-3.89-5.98-6.33-2.48-1.94-3.98-3.89-7.89-4.38-3.92-.97-5.41-2.43-6.93-5.35.96-.49 1.45-.49 1.91-1.46l-5.85-.49c1.58 5.84 8 9.74 11.02 14.12-.99-.49-.49 0-1.48-.49l3.99 4.38c1.02 1.95 2.03 3.41 4.01 4.87 11.95 12.17 12.29 5.35 19.96-.49 3.35-2.92 4.79-3.89 7.15-7.79l.95-.97s.48-.49.48-.49c-1.45.49-.97.49-1.44.98l-.5-.49s-.01-.49.49 0l1.42-1.95c5.26-4.38 15.03-3.4 14.33-13.63z" fill="#a6908a"/><path d="m3752.02 11930.62c.59 4.87-.16 15.58 5.7 16.06 12.69.98 11.65-25.31 3.81-27.25-5.38-.98-10.6 5.84-9.51 11.19z" fill="#dfe2e1"/><g fill="#f60000"><path d="m3793.86 11835.71c-1.1-5.85 9.57-8.28 9.72-1.46-.43 2.92-1.35 5.35-4.27 5.35-2.44 0-5.4-1.46-5.45-3.89zm16.53-1.95c-2.51-3.41-3.13-9.74 1.76-8.76 3.43.97 4.07 7.79-1.76 8.76zm-24.82 1.46c2.51 3.41 14.31 8.27 20.12 6.81 18.44-3.89 10.72-22.87 4.86-23.85-3.91-.48-6.75 3.41-8.66 5.36-2.4 1.94-4.77 4.86-7.17 6.81-2.88 1.95-6.77 2.44-9.15 4.87z"/><path d="m3685.69 11835.71c-3.94-1.95-4.13-10.71-.23-10.71 1.95 0 3.47 2.92 3.04 5.35-.43 2.92-.98 0-2.81 5.36zm16.97-3.9c1.51 2.44 2.02 3.41.12 5.84-1.43 1.46-4.33 2.44-6.8.98-2.96-1.95-4.6-10.23 4.21-8.28-.99-.97-.49-.49-1.49-1.46-3.47-2.92-7.99-9.25-10.46-10.71-9.35-4.38-14.18 20.45 0 22.88 7.83 1.46 17.06.49 23.77-4.87-1.52-2.92-5.93-3.89-9.35-4.38z"/><path d="m3638.52 12001.2s-.5-.49-.5-.49c-.49-.48-.49-.48-.49-.48l-2.52-3.9-5.52-7.3c-2.99-3.41-9.98-11.19-13.45-14.11-5.97-5.36-33.31-31.16-34.35-34.08l-.5-.48c-1.48-.98-2.99-3.41-4.01-5.36-.49 0-.49 0-.51-.97-5.07-9.74-10.66-20.44-15.74-30.18-4.55-7.79-10.06-14.6-11.22-23.36-.06-2.92.41-3.9-2.03-3.9-1.96-.48-4.38 0-1.44.98.13 6.32.62 6.32 3.16 11.19 1.54 3.41 3.07 6.82 5.07 9.25 3.05 5.84 7.06 11.2 10.6 17.52 3.06 6.33 11.19 21.91 15.68 26.77l34.86 35.54c9.46 9.73 11.47 12.17 19.97 22.39 2.02 3.4 3.54 6.33 6.51 8.27-.53-1.94-.01-.48-.54-2.43z"/></g><path d="m3737.51 11935.49c.6 5.35 2.69 12.17 9.48 10.71 4.86-.49 4.66-10.22 4.55-15.09.16-15.58-16.38-14.12-14.03 4.38z" fill="#dfe2e1"/><path d="m3649.2 11815.26 1.37-4.38c-.07-2.92-1.05-3.41-1.54-3.41 0 0 0 0-.01-.48l1.45-.49c-.53-1.95-.07-3.41-.11-5.35 0 0 .94-1.46-1.94.48-1.54-3.89-2.53-4.38-5.97-5.84-3.45-1.94-5.44-3.89-7.41-4.87.07 3.41 1.15 8.28.7 10.23-.4 3.89-.62 16.55 1.88 19.47 1.48.97 4.46 3.89 6.43 4.86-.1-4.86-.67-8.76-1.74-13.14l-1.06-4.38s2.56 5.84 3.06 6.82c1.51 1.94 2.53 4.38 4.04 6.32-.56-3.4.39-4.38-.64-6.81-3.05-6.33-4.94-3.41-7.5-9.25-1.54-3.41-2.51-3.41-3.53-5.35l11.42 9.73c2 2.44.54 2.44 1.1 5.84zm-.83 6.82c.96-.49 1.44-.98.93-1.95-.49 0-.5-.49-.95.97 0 0 .01.49.02.98z" fill="#4c303d"/><path d="m3751.07 12138.46h2.43c.99.49 1.97.98 2.95.98 5.4 1.94 13.69 2.43 19.54 2.43.92-2.43.86-5.35 1.3-7.79.37-5.35 2.29-6.81 1.29-7.78-.47.48-.47.48-.47.48-8.63 6.82-17.42 5.84-30.14 3.41.53 1.95 2.09 6.81 3.1 8.27z" fill="#75686b"/><g fill="#dfe2e1"><path d="m3771.75 11941.82c5.84-.49 7.15-7.3 6.52-14.12-.06-2.92-.62-6.33-1.17-9.25-1.04-2.92-2.05-4.86-5.46-4.86-4.25 6.32-3.91 22.39.11 28.23z"/><path d="m3711.77 11939.87.48-.49c.48-.48 0 0 .47-.97 4.65-10.22-1.14-30.67-5.09-33.1-2.9.97-2.38 2.92-1.76 8.76.55 2.92.62 6.33 1.17 9.25s.62 6.33 1.64 8.76c.57 3.9 1.58 5.36 3.09 7.79z"/><path d="m3720.95 11913.1c-5.67 8.27-4.94 19.96 1.07 27.26 3.89 0 4.36-.98 4.28-4.87-.06-2.92-.13-5.84-.67-8.76-.11-4.87-.27-12.66-4.68-13.63z"/><path d="m3791.67 11938.9c2.32-5.36 3.71-8.76 4.54-15.58.41-3.41.35-6.33.28-9.73-.09-4.38.33-7.31-1.18-9.74-2.44 0-2.87 2.43-4.25 6.33-.42 3.41-.83 6.81-1.26 9.73-.84 6.33-1.28 8.77.31 14.61.01.48.53 1.94.54 2.43z"/><path d="m3734.25 11942.79c4.69-8.76 2.43-23.36-2.01-25.8-6.29 1.95-6.8 23.85 2.01 25.8z"/><path d="m3782.9 11939.38c4.85-1.46 4.49-18.49 3.9-22.87-.6-5.36-.14-6.82-2.54-5.36-2.41 1.46-4.67 9.74-4.6 13.14.05 2.44.61 5.85.67 8.77.06 2.43.6 5.35 2.57 6.32z"/><path d="m3764.44 12033.81c-3.89.49-5.3 2.92-5.69 7.3-.45 1.95-.41 3.9-.35 6.33.02.98.05 2.44.07 3.41l1.01 1.95 7.3-.49c.44-2.43-1.29-15.09-2.34-18.5z"/><path d="m3748.86 12034.3c-.89 3.89-.28 9.73-.19 14.12-.41 3.4-1.37 4.38 1.57 4.86 1.96.49 4.88.49 6.33 0 .44-2.43-.66-8.27-1.22-11.68-.54-2.43-2.6-7.79-6.49-7.3z"/></g><path d="m3844.42 11806.99c1.96.48.47-.49 1.47.48-.95.98-1.9 2.44-1.86 4.39l1.06 3.89c.52 1.46-.49 0 1 .97-.54-2.43-1.01-1.46-.56-3.4.43-2.44-.01-.49-.01-.49l.01.49c-.07-2.93.9-3.41 1.84-4.87-.94 1.46-1.45.48-1.45.48l.95-.97c.95-1.46.93-2.43 2.85-3.89 1.43-1.46.95-.98 2.88-1.95-.44 2.43.02.97-.92 2.43-.47.98-.97.49-.97.49-.49 0-1.92 1.46-1.92 1.46s-.01-.49 1.44-.97c.07 2.92-1.44.97-.41 3.4.94-1.46 3.34-3.4 4.27-5.35.95-.97.93-1.95 1.89-2.92 2.84-3.89 2.47 1.46 2.21-10.71-2.43.49-5.29 3.41-6.72 4.87-1.91 1.95-4.81 2.92-6.24 4.38 1.44-.97 2.87-2.43 4.82-2.43-1.39 3.4-5.29 3.4-5.24 5.84l.53 1.94 1.88-3.4c.94-1.46.93-1.95 2.36-3.41-.39 4.38-1.32 6.81-4.2 8.76zm-.6-5.36c-.47.98-.02-.97.04 1.95-.42 3.41-.55-2.92.02.97l.02.98.46-1.46c-.02-.98-.04-1.46-.54-2.44z" fill="#4c303d"/><path d="m3968.75 11879.51-.5-.48s-.5-.49-.5-.49 0 0-.01-.49c-6.01-7.78-27.22-19.95-36.01-20.93 1.98 1.46 6.43 4.38 8.89 5.84l26.16 15.58s0 0 .5.49l.98.48z" fill="#f60000"/><path d="m3780.97 12031.87c2.76-7.79 7.54-12.17 6.95-17.04-9.87-5.84-9.65 4.87-9.03 11.2l1.56 4.38c.53 1.94.02.97.52 1.46z" fill="#dfe2e1"/><path d="m3643.01 11845.44c4.72-7.3 5.02-16.06-5.32-21.42 1.04 3.41.18 8.77 1.23 12.17 1.05 3.41 4.05 7.3 4.09 9.25z" fill="#4c303d"/><path d="m3722.66 12016.78c1.06 3.89 5.6 11.19 7.63 15.09 1.88-3.41 3.08-15.58-.86-17.53-2.95-1.46-5.35.49-6.77 2.44z" fill="#dfe2e1"/><path d="m3850.58 11822.08s1.93-.98.49 0-.95.97-.49 0zm1.32-6.82c.03 1.46.03 1.46-.92 2.44.43-2.44.45-1.95.92-2.44zm-2.81 5.36 1.89-2.92-.85 5.84c8.7-3.41 7.45-16.07 6.83-22.39-1.29 7.78-9.11 6.81-7.87 19.47z" fill="#4c303d"/><path d="m3539.46 11879.51c1.93-.97 7.23-3.89 8.16-5.84 5.24-5.84.94-1.46 7.16-6.81 4.31-3.9 12.01-8.28 16.32-11.68-7.76 1.46-20.22 11.19-25.48 16.06-.94 1.46-1.9 2.43-3.34 3.41-2.37 2.92-2.39 1.94-2.82 4.86z" fill="#f60000"/><path d="m3782.99 12081.51c-19.17-8.27-32.8-7.3-52.13 0 15.52-3.4 24.73-5.35 39.91-1.94 2.45.48 10.29 2.43 12.22 1.94z" fill="#270318"/><g fill="#dfe2e1"><path d="m3702.66 11831.81-2.47-1.46c-8.81-1.95-7.17 6.33-4.21 8.28 2.47 1.46 5.37.48 6.8-.98 1.9-2.43 1.39-3.4-.12-5.84z"/><path d="m3793.86 11835.71c.05 2.43 3.01 3.89 5.45 3.89 2.92 0 3.84-2.43 4.27-5.35-.15-6.82-10.82-4.39-9.72 1.46z"/><path d="m3734.48 12022.62c-.49 0-.48.48-.48.48l-.44 1.95c-.93 2.44-1.83 5.84-1.28 8.76.06 2.92 3.09 7.79 5.56 9.25 1.32-6.33-1.78-15.09-3.38-21.42z"/><path d="m3646.26 11929.65c1.04 2.92 1.22 11.68 2.28 15.57 0 0 .51.98.51.98.51.97.51.97.52 1.46.89-3.9 3.56-15.58 3.5-18.5h-4.38c-.97.49.48 0-.97.49-.48 0-1.46 0-1.46 0z"/><path d="m3737.5 12004.12c-.53-1.95-2.02-3.41-3.04-5.35-2.05-4.87-3.1-8.28-4.18-13.15-.51-1.46-1.02-2.43-1.53-3.4-.02-.98-.02-.98-.52-1.46-.01-.49.48-.49-.02-.98-.99-.97 0 0-.98-.48-3.8 4.86 2.28 15.57 5.78 19.95 1.03 2.44 2.04 4.38 4.49 4.87z"/><path d="m3738.87 12045.98c1.02 1.95 4.5 5.36 7.44 5.84-.04-1.94-1.26-13.14-2.77-15.57-2.9.97-1.92 1.46-2.82 4.86-.94 1.46-1.4 2.92-1.85 4.87z"/><path d="m3848.96 11929.16c.07 3.41 1.11 6.33 2.14 9.25.56 3.41 1.12 6.81 2.16 9.74l2.02-19.47-1.47-.49c-.97.49 0 0-.97.49-.48 0-.97 0-1.46 0-1.45.48-.97 0-2.42.48z"/></g><path d="m3650.83 11869.29 12.55 17.52c4.02 5.85 7.09 12.66 11.11 18.5-2.61-8.27-17.31-35.04-23.66-36.02z" fill="#270318"/><path d="m3660.08 11776.81c3.39-.97 7.17-6.33 16.45-5.36 3.42.49 5.38.98 8.82 2.44 1.47.49 2.93 0 3.91.49.97 0 2.93.48 3.92.97-6.47-6.33-19.66-7.79-26.88-3.9-2.41 1.47-5.3 2.93-6.22 5.36z" fill="#6f4c51"/><path d="m3646.26 11929.65h1.46c1.45-.49 0 0 .97-.49l-2.45-.48c.5.48 9.26 0 9.26 0 .46-1.47.46-1.47.41-3.41-2.45-.98-3.44-1.46-5.86-.98-3.89.49.98.49-.97.49 0 0-5.4-1.95-5.76 3.9z" fill="#6f4c51"/><path d="m3769.84 12035.76c-.95.97-.98-.49-1.38 3.89.02.98.04 1.95.08 3.41.05 2.44.59 4.87.64 7.3 3.39-.97 3.85-1.94 5.26-4.38-.03-1.46-4.59-9.73-4.6-10.22z" fill="#dfe2e1"/><path d="m3773.77 12037.22.03 1.46c.53 1.95 1.04 2.92 1.56 4.38 2.88-1.95 5.67-8.27 3.1-14.6l-1.01-1.46c.05 2.43-2.26 8.27-3.68 10.22z" fill="#dfe2e1"/><path d="m3851.91 11907.74c5.29-3.4 11.55-6.81 16.34-10.7 2.4-1.95 11.47-10.71 11.89-14.12-.93 2.43-9.99 11.68-12.88 13.14-5.76 4.38-12.07 5.36-15.35 11.68z" fill="#270318"/><g fill="#dfe2e1"><path d="m3685.69 11835.71c1.83-5.36 2.38-2.44 2.81-5.36.43-2.43-1.09-5.35-3.04-5.35-3.9 0-3.71 8.76.23 10.71z"/><path d="m3810.39 11833.76c5.83-.97 5.19-7.79 1.76-8.76-4.89-.98-4.27 5.35-1.76 8.76z"/><path d="m3721.13 12013.37c1.46 0 2.91-.49 3.88-.97 1.44-.98.95-.98.42-2.92-.55-2.92-1.09-5.36-2.1-7.31-.48.49 0 0-.96.98l-1.38 3.89c-.9 3.41-.9 3.41.14 6.33z"/></g><path d="m3831.06 11774.38c-5.46-4.39-8.38-4.39-16.18-4.39-6.33 0-9.24.49-15.51 3.9 3.88-.97 6.29-2.44 10.17-2.92l-1.44.97c-.95.98-2.89 1.46-3.35 2.92 2.4-1.94 8.7-3.41 13.09-3.41 6.81-.48 8.3.98 13.22 2.93z" fill="#8d6f6c"/><path d="m3719.09 12008.99c1.45-.49.49.49 1.41-2.43l.45-1.47c2.28-7.3-1.21-11.19-.79-14.6-.48.49-.49 0-.96.98 0 0 .01.48-.47.97.02.49.03.97.05 1.95z" fill="#dfe2e1"/><path d="m3851.08 11845.44c2.34-4.38 3.75-6.81 4.12-12.65-1.9 2.43-3.34 3.4-4.76 5.35-2.39 2.43-1.36 4.87.64 7.3z" fill="#4c303d"/><path d="m3848.96 11929.16c1.45-.48.97 0 2.42-.48h1.46c.97-.49 0 0 .97-.49l4.36-.98c-.5-.97-.52-1.94-2.48-2.43-2.46-.97-5.85 0-7.78.97.03 1.46-.46 1.46.55 2.93z" fill="#6f4c51"/><path d="m3840.49 11920.4c.5.49 1.48.97 2.94.97.98 0 .49 0 1.44-.97.55 2.92 1.46 0 2.01 2.92 0 0-1.95 0-2.43 0-3.9 0-1-.97-1.92 1.46 1.48.97 1.97.97 3.92.97.47-.97 1.42-1.94 1.41-2.43l2.4-1.46c-1.46 0-3.88.49-4.39-.49-.52-1.46.35-6.32.32-7.78.9-3.41.44-2.44-.06-2.92-1.4 2.92-2.3 6.32-2.72 9.73z" fill="#c6b8b8"/><path d="m3786.16 12001.2c-.94 1.46-2.75 7.79-2.71 9.74l4.88.48c-.04-1.94-.07-3.4-.61-5.84l-1.05-3.41c-.02-.97-.51-.97-.51-.97z" fill="#dfe2e1"/><path d="m3775.94 12001.69 1.43-1.46c.47-.98.95-1.46.94-1.95 2.83-4.38 5.12-11.19 4.53-16.06-1.9 2.43-2.7 10.71-5.98 17.03-.45 1.46-.46.98-.92 2.44z" fill="#dfe2e1"/><path d="m3857.4 11844.95-.65-7.78c-1.43 1.46-1.84 4.86-3.22 8.76-.95 1.46-.91 3.4 1.01 1.94 0 0 2.86-2.92 2.86-2.92z" fill="#4c303d"/><path d="m3878.36 12006.07c.96-.98 1.35-5.36 4.73-6.82-3.87 1.46-2.39 1.95-5.31 2.44.91-2.92.94-1.95 2.32-5.36-.95.98-2.37 2.92-2.83 4.38-.95.98-2.35 3.9-2.82 4.87z" fill="#702e3a"/><path d="m3825.85 11850.31c-.02-.49-.5-.49-.5-.49l-1-.97c5.81-1.95 1.45-.49 6.32-.98-1-.97-.99-.48-1.98-1.46-1.98-1.46-.53-1.94-.53-1.94.5.48 0 0 .99.97 0 0 .99.49.99.49.5.48.99.97 1.49 1.46 1 .97 1.99 1.94 2.99 2.92-.53-1.95-1.05-3.41-2.53-4.38-3.01-3.9-2.98-2.44-1.54-3.41-.02-.97-.02-.97-.98-.49-.96.98.01.49-.49 0h-.97s0 0 .01.49l.98.49c.5.48.5.48 1.48.97l1.51 1.95c.5.97 0 0 .52 1.46l-1-.98c-1-.97-3.46-2.43-5.42-2.92.53 1.95 1.51 2.44 2.52 3.9-3.41 0-4.88 0-6.78 1.94z" fill="#c6b8b8"/><path d="m3788.06 11998.77c1.03 2.43.62 6.32.67 8.76-.01-.49.49 0 .47-.97 0 0 .48-.49.48-.49.42-2.92-.76-12.66-.83-16.06-.46 1.46-.01-.49-.46 1.46l-.42 2.92c.04 1.94.05 2.43-.41 3.89 0 0 .01.49.5.49z" fill="#dfe2e1"/><rect fill="none" height="1474.27" rx="95.91" ry="273.01" stroke="#666" stroke-miterlimit="22.9256" stroke-width="26.45" width="824.82" x="3361.12" y="10783.4"/><path d="m3584.53 11035.47c11.7 64.74 34.44 118.04 63.86 176.18 21.07 41.64 48.21 89.68 48.21 137.46 0 88.23-35.67 180.96-138.15 180.96-102.47 0-138.14-92.73-138.14-180.96 0-47.78 27.14-95.81 48.21-137.46 29.41-58.14 52.15-111.44 63.85-176.18l26.08-144.33z" fill="#fefe1e"/><path d="m3558.45 11040.18c27.91 154.47 111.65 231.7 111.65 308.93s-27.91 154.46-111.65 154.46c-83.73 0-111.64-77.23-111.64-154.46s83.73-154.46 111.64-308.93z" fill="#300"/><g fill-rule="nonzero"><g stroke="#656565" stroke-miterlimit="22.9256" stroke-width="16.93"><path d="m1262.82 2191.69 376.67 199.93-376.67 199.92zm0 199.93" fill="url(#N)"/><path d="m1262.82 11382.06 376.67 199.93-376.67 199.92zm0 199.93" fill="url(#O)"/><path d="m1262.82 10069.15 376.67 199.93-376.67 199.92zm0 199.93" fill="url(#P)"/><path d="m1262.82 8756.24 376.67 199.93-376.67 199.92zm0 199.93" fill="url(#Q)"/><path d="m1262.82 7443.33 376.67 199.93-376.67 199.92zm0 199.93" fill="url(#R)"/><path d="m1262.82 6130.42 376.67 199.93-376.67 199.92zm0 199.93" fill="url(#S)"/><path d="m1262.82 4817.51 376.67 199.93-376.67 199.92zm0 199.93" fill="url(#T)"/><path d="m1262.82 3504.6 376.67 199.93-376.67 199.92zm0 199.93" fill="url(#U)"/><path d="m5197.99 9719.68-376.67 199.93 376.67 199.92zm0 199.93" fill="url(#V)"/><path d="m5197.99 8256.59-376.67 199.93 376.67 199.92zm0 199.93" fill="url(#W)"/><path d="m5197.99 6793.5-376.67 199.93 376.67 199.92zm0 199.93" fill="url(#X)"/><path d="m5197.99 5330.41-376.67 199.93 376.67 199.92zm0 199.93" fill="url(#Y)"/></g><g fill="#001a2d"><path d="m4181.96 3825.01c-1.36 0-5.26-2.38-11.7-7.12-6.45-4.75-9.68-10.52-9.68-17.3l6.12-20.35 11.19-28.49c0-6.11-5.43-12.21-16.28-18.32-10.86-6.1-24.09-11.87-39.69-17.3-15.62-5.42-31.22-10-46.83-13.73-15.6-3.73-28.15-5.94-37.66-6.62-19.67-2.03-34.93-9.49-45.79-22.38-10.86-13.57-29.17-42.06-54.96-85.47-48.85 65.8-80.4 105.48-94.65 119.05-13.58 12.89-35.96 24.59-67.17 35.1-31.22 10.51-68.2 15.77-110.94 15.77-15.6 0-30.37-8.14-44.27-24.42-13.91-16.28-20.86-34.25-20.86-53.93 0-29.84 8.14-44.77 24.42-44.77 14.93 0 27.82 9.5 38.67 28.49h28.5c12.89 0 26.98-3.39 42.24-10.17s30.19-15.26 44.78-25.44c14.58-10.17 26.97-20.69 37.15-31.54 10.17-10.86 16.28-20.35 18.31-28.49 4.07-16.28 6.12-45.11 6.12-86.49 0-33.92-4.76-64.44-14.26-91.58l-18.31 3.06c-15.61 2.71-30.88 5.25-45.8 7.63-14.93 2.37-29.18 3.56-42.75 3.56-31.21 0-70.22-23.4-117.04-70.21l-24.43-20.35c-31.21-18.99-46.81-39.34-46.81-61.05 0-6.11 2.71-12.55 8.14-19.33 5.42-6.79 12.04-12.55 19.85-17.3 7.8-4.75 14.41-7.12 19.84-7.12 12.89 0 28.5 10.85 46.81 32.56 17.65 21.7 33.76 38.66 48.35 50.87s32.4 18.32 53.43 18.32c28.5 0 54.11-4.41 76.85-13.23 22.72-8.82 38.5-16.62 47.32-23.4l-2.03-8.14c-2.04-4.07-12.22-6.11-30.54-6.11-10.17 0-16.45-1.69-18.82-5.09-2.39-3.39-3.57-10.85-3.57-22.38v-9.16c0-3.39-8.82-7.8-26.46-13.23-17.65-4.07-26.46-11.87-26.46-23.4 0-12.21 5.08-26.11 15.27-41.72 10.17-15.6 24.08-30.35 41.73-44.26 17.63-13.9 37.64-25.44 60.04-34.59 22.39-9.16 46.14-13.74 71.24-13.74 28.5 0 50.38 7.46 65.64 22.39 15.28 14.92 22.91 32.89 22.91 53.92 0 43.42-23.41 83.44-70.23 120.07l2.03 10.17c69.22 0 122.98 17.13 161.32 51.39s57.51 81.57 57.51 141.94c0 23.07-1.02 40.87-3.05 53.42-2.04 12.55-6.97 21.03-14.77 25.44s-20.86 6.61-39.18 6.61c-8.82 0-16.11-5.42-21.88-16.28-5.76-10.85-10.51-24.59-14.25-41.21-3.73-16.62-6.96-33.07-9.67-49.35-8.14-49.51-38.34-75.29-90.58-77.33l-1.02 71.23c12.89 10.17 26.13 23.57 39.7 40.19 13.56 16.62 25.62 33.75 36.13 51.38 10.51 17.64 17.47 34.26 20.86 49.86 4.07 14.93 7.63 25.78 10.69 32.56 3.05 6.79 8.48 11.37 16.28 13.74s20.52 5.26 38.17 8.65c27.82 4.75 52.24 14.92 73.28 30.52 21.03 15.61 37.32 34.94 48.85 58 10.85 21.71 16.28 45.11 16.28 70.21-6.78 6.78-16.28 13.74-28.49 20.86-12.22 7.12-24.26 13.06-36.13 17.81-11.88 4.74-21.55 7.12-29.01 7.12zm-61.06-319.5 12.21-2.04c4.07-2.03 6.1-15.6 6.1-40.7 0-58.33-15.94-102.43-47.83-132.27-31.89-29.85-84.47-44.77-157.75-44.77-4.07 0-9.16-14.59-15.28-43.76 0-4.07 8.15-13.56 24.43-28.49 15.61-14.24 27.15-27.98 34.61-41.2 7.46-13.23 11.19-28.33 11.19-45.28 0-13.57-5.25-24.42-15.77-32.56-10.51-8.14-25.28-12.21-44.27-12.21-29.86 0-56.32 6.27-79.39 18.82s-41.05 26.45-53.94 41.72c-12.89 15.26-19.34 27.64-19.34 37.14 0 .67 2.04 1.69 6.11 3.05 2.71.68 6.1 1.69 10.17 3.05s8.83 2.71 14.26 4.07c11.53 2.04 17.3 12.89 17.3 32.56 0 6.79 7.8 10.86 23.41 12.21 10.85.68 18.48 3.9 22.89 9.67 4.41 5.76 7.29 12.21 8.66 19.33 1.36 7.12 2.04 13.06 2.04 17.81 0 6.1-16.29 16.96-48.86 32.56-33.24 16.28-69.88 24.42-109.92 24.42-36.64 0-74.63-23.74-113.99-71.23-16.96-20.35-28.16-30.52-33.58-30.52-2.72 0-5.94 1.69-9.67 5.08-3.73 3.4-5.6 6.79-5.6 10.18 0 10.17 12.55 22.72 37.66 37.65l17.3 16.28c23.75 22.38 44.1 39.34 61.06 50.87 16.97 11.53 31.89 17.3 44.79 17.3 40.71 0 82.44-7.46 125.18-22.38 10.86 32.56 17.3 60.37 19.34 83.43l83.45-15.26-1.02-94.63 28.5-2.03c36.65 0 64.81 8.81 84.48 26.45s31.89 42.74 36.64 75.3c1.36 17.63 4.41 35.61 9.16 53.92 5.42 17.64 10.51 26.46 15.27 26.46zm-253.43-315.43c-12.21 0-22.39-3.39-30.54-10.17-8.14-6.79-12.21-15.61-12.21-26.46 0-10.17 4.07-18.65 12.21-25.44 8.15-6.78 18.33-10.17 30.54-10.17 12.22 0 22.56 3.39 31.04 10.17 8.48 6.79 12.72 15.27 12.72 25.44 0 10.85-4.24 19.67-12.72 26.46-8.48 6.78-18.82 10.17-31.04 10.17zm0-25.44c9.5 0 14.25-3.73 14.25-11.19s-4.75-11.19-14.25-11.19-14.25 3.73-14.25 11.19 4.75 11.19 14.25 11.19zm-2.04 387.68c13.58-5.43 26.3-8.82 38.17-10.18s29.35-2.37 52.41-3.05c15.61-.68 29.86-.34 42.75 1.01 12.9 1.36 24.43 3.06 34.6 5.09-4.75-15.6-14.41-32.9-29-51.89s-30.36-34.94-47.33-47.82l-88.54 14.24v33.58zm328.74 241.14c4.07 0 12.05-3.56 23.92-10.68s21.2-13.74 27.99-19.84c-5.43-19.67-11.03-35.27-16.8-46.81-5.76-11.53-12.55-21.02-20.35-28.49-7.81-7.46-17.81-14.58-30.02-21.36-18.33-10.86-39.7-18.32-64.13-22.39-16.28-2.71-29-5.76-38.16-9.16-9.16-3.39-16.28-9.32-21.37-17.8s-10.01-21.54-14.75-39.18c-17.65-6.78-45.13-10.17-82.45-10.17 33.92 57.66 53.95 88.18 60.05 91.57 5.43 3.4 25.11 8.82 59.03 16.28 22.39 4.75 43.6 10.69 63.61 17.81s36.47 15.26 49.36 24.42c12.9 9.16 19.34 19.16 19.34 30.02 0 2.71-.85 6.27-2.54 10.68-1.7 4.41-4.24 9.67-7.64 15.77l-7.13 17.3zm-529.24-66.13c32.57 0 64.13-4.75 94.66-14.25s53.26-21.71 68.19-36.63c15.61-15.6 44.1-51.21 85.49-106.84-12.21 2.72-23.07 5.6-32.56 8.65-9.51 3.05-17.65 6.28-24.43 9.67-10.18 17.63-25.11 34.59-44.78 50.87-19.69 16.28-40.04 29.51-61.07 39.69-21.03 10.17-39.7 15.26-55.98 15.26h-40.71l-10.17-15.26-16.29-15.27c-2.72 0-4.07 2.72-4.07 8.14 0 12.89 4.58 25.44 13.74 37.65s18.49 18.32 27.98 18.32z"/><path d="m5250.93 11038.78 329.39-412.87 329.4 412.87h-294.01v-96.18h95.28l-130.67-163.34-130.67 163.34h95.28v96.18z"/><path d="m1304.05 1779-329.39-412.88h294v96.19h-95.28l130.67 163.34 130.67-163.34h-95.28v-96.19h294.01z"/></g></g><circle cx="3532.94" cy="4509.68" fill="url(#Z)" r="250"/><circle cx="3532.94" cy="4509.68" fill="url(#aa)" r="220.83"/><circle cx="3532.94" cy="4509.68" r="200"/><circle cx="4819.63" cy="4509.68" fill="url(#ab)" r="250"/><circle cx="4819.63" cy="4509.68" fill="url(#ac)" r="220.83"/><circle cx="4819.63" cy="4509.68" r="200"/><circle cx="6106.32" cy="4509.68" fill="url(#ad)" r="250"/><circle cx="6106.32" cy="4509.68" fill="url(#ae)" r="220.83"/><circle cx="6106.32" cy="4509.68" r="200"/><path d="m5260.89 2241.1c-116.92-103.02-183.92-251.33-183.92-407.17 0-299.71 242.97-542.67 542.68-542.67s542.67 242.96 542.67 542.67c0 156.46-67.53 305.3-185.26 408.35" fill="none" stroke="#dddad6" stroke-linecap="round" stroke-miterlimit="22.9256" stroke-width="42.33"/><g fill="#dddad6"><circle cx="5977.06" cy="2242.28" r="37.94"/><circle cx="5260.89" cy="2241.11" r="37.94"/></g></svg>