<svg clip-rule="evenodd" fill-rule="evenodd" height="3.8mm" image-rendering="optimizeQuality" shape-rendering="geometricPrecision" text-rendering="geometricPrecision" viewBox="0 0 45.68 45.68" width="3.8mm" xmlns="http://www.w3.org/2000/svg"><path d="m31.74 43.9c2.75-1.18 5.17-2.82 7.26-4.91s3.73-4.52 4.91-7.29 1.77-5.73 1.77-8.86c0-3.14-.59-6.09-1.77-8.86s-2.82-5.2-4.91-7.29-4.52-3.73-7.29-4.91-5.73-1.77-8.86-1.77c-3.14 0-6.08.59-8.83 1.77s-5.18 2.83-7.3 4.94c-2.11 2.11-3.76 4.55-4.94 7.3-1.18 2.75-1.77 5.69-1.77 8.83s.59 6.09 1.77 8.86 2.83 5.2 4.94 7.29 4.55 3.73 7.3 4.91 5.69 1.77 8.83 1.77c3.18 0 6.15-.59 8.9-1.77zm-19.46-26.73h21l-10.5 16.77zm27.06-1.57c.5 1.14.88 2.3 1.13 3.48s.38 2.43.38 3.75c0 2.45-.44 4.74-1.33 6.85s-2.12 3.99-3.72 5.62c-1.59 1.63-3.43 2.94-5.52 3.92s-4.36 1.51-6.82 1.6zm-25.22-8.56c2.68-1.48 5.59-2.22 8.73-2.22s6.02.73 8.66 2.18 4.79 3.48 6.48 6.07h-30.27c1.59-2.54 3.73-4.55 6.41-6.03zm1.23 32.18c-2.09-.98-3.92-2.3-5.49-3.95-1.57-1.66-2.79-3.54-3.68-5.66-.89-2.11-1.33-4.37-1.33-6.78 0-1.32.13-2.57.38-3.75s.6-2.3 1.06-3.34l15.75 25.09c-2.36-.09-4.59-.63-6.68-1.6z" fill="#ccc"/></svg>