<svg clip-rule="evenodd" fill-rule="evenodd" height="3.8mm" image-rendering="optimizeQuality" shape-rendering="geometricPrecision" text-rendering="geometricPrecision" viewBox="0 0 31.49 28.02" width="4.2704mm" xmlns="http://www.w3.org/2000/svg"><path d="m3.61 14.52c-.28.98-1.3 1.54-2.27 1.27-.98-.28-1.54-1.3-1.27-2.27 2.57-9.01 5.48-13.51 8.72-13.51s6.15 4.5 8.72 13.51c2.06 7.22 3.79 10.83 5.18 10.83s3.12-3.61 5.18-10.83c.28-.98 1.3-1.54 2.27-1.27.98.28 1.54 1.3 1.27 2.27-2.57 9.01-5.48 13.51-8.72 13.51s-6.15-4.5-8.72-13.51c-2.06-7.22-3.79-10.83-5.18-10.83s-3.12 3.61-5.18 10.83z" fill="#b3b3b3" fill-rule="nonzero"/></svg>