<svg clip-rule="evenodd" fill-rule="evenodd" height="128.5mm" image-rendering="optimizeQuality" shape-rendering="geometricPrecision" text-rendering="geometricPrecision" viewBox="0 0 6096 12850" width="60.96mm" xmlns="http://www.w3.org/2000/svg"><g fill-rule="nonzero"><g fill="#2f2f2f"><path d="m2294.13 508.41 113.38.56c-1.12 2.38-5.46 4.47-12.75 6.43-7.42 1.96-13.01 4.48-16.93 7.56-15.81 17.35-32.06 44.22-48.71 80.46-16.66 36.25-34.43 75.85-53.47 118.67l4.06 12.87c13.86 21.27 30.37 48.84 49.55 82.7 19.17 33.87 38.49 68.43 58.22 103.42 19.75 35.12 35.7 62.69 48.15 82.84h6.31c19.73-42.96 39.33-89.28 58.92-138.82 19.46-49.54 37.51-97.53 54.17-143.99 16.52-46.46 31.07-87.32 43.39-122.73 12.46-35.54 19.04-54.99 20.02-58.77.98-3.64 1.4-6.43 1.4-8.39 0-5.74-3.22-9.66-9.8-11.62s-9.66-4.76-9.23-8.67l95.59-4.06c-19.74 14.69-35.83 32.32-48.43 52.75-12.46 20.57-26.45 50.52-41.99 89.98-15.4 39.46-27.71 69.69-37.09 90.82-9.25 21.13-22.68 54.15-40.17 99.21-17.64 45.06-34.44 88.3-50.4 129.72-16.09 41.42-32.32 79.49-48.98 114.33l-11.62-11.61c-27.02-55.7-47.17-96.7-60.47-123.01-13.44-26.31-27.15-52.05-41.43-77.1-14.28-25.19-33.31-55.42-56.83-90.54l-11.61 12.73c-8.82 22.81-21.7 54.3-38.77 94.32-16.94 40.02-31.36 75.57-43.39 106.77-11.91 31.07-21.56 60.59-28.84 88.44l-11.61-13.85c-40.17-80.05-73.21-144.98-99.25-194.93-26.03-49.82-54.72-103.14-85.94-160.09-31.21-56.81-56.96-101.87-76.98-135.32-20.01-33.44-35.28-52.33-45.77-56.53-10.36-4.34-16.65-8.12-19.03-11.61 3.08-.42 6.44-.56 9.79-.56h8.12c10.5 0 28.28 1.26 53.33 3.77 25.05 2.52 43.11 3.78 53.89 3.78 2.38 4.62.14 9.52-6.72 14.7-6.72 5.17-9.38 9.65-7.84 13.01.7 5.46 1.96 11.33 3.5 17.49s9.94 23.51 25.19 52.2c15.26 28.54 35.14 66.05 59.92 112.36 24.62 46.46 48.98 92.64 72.91 138.54 23.94 46.04 47.88 93.2 71.81 141.47 11.47-23.22 21.84-47.01 30.93-71.36 9.1-24.35 20.57-56.96 34.44-97.68 13.85-40.86 25.33-72.62 34.15-95.43-16.66-37.92-34.99-73.75-55.29-107.75-20.29-34.01-38.21-60.87-53.89-80.6-15.67-19.6-27.85-31.35-36.53-35.27s-16.79-7.56-24.64-11.05c16.66 0 30.38.28 41.15.56 10.79.42 21.14.84 30.8 1.26 20.02 0 38.21-1.4 54.31-3.92l-13.86 20.29c-3.5 4.2-5.18 8.25-5.18 12.03 0 3.5 1.26 7.56 3.78 12.18 2.52 4.61 8.12 14.69 16.8 30.36 8.54 15.68 17.91 32.75 27.71 51.5 9.79 18.61 20.72 35.26 32.61 49.96 10.78-18.9 20.16-39.61 28.28-61.86 8.12-22.39 14.69-42.26 19.73-59.33 4.9-17.21 7.42-27.01 7.42-29.24 0-4.34-3.64-7.98-11.06-11.34-7.27-3.22-10.35-7.56-9.23-13.01z"/><path d="m2710.68 862.58c10.08-6.57 20.86-9.79 32.47-9.79 12.32 0 24.36 2.94 36.12 8.67 11.75 5.88 25.76 14.28 41.99 25.47-12.32 14.41-36.39 36.66-72.23 67.03-35.69 30.37-57.24 49.4-64.66 57.09 8.12 12.32 18.05 22.53 29.67 30.37 11.48 7.98 21.84 12.45 30.93 13.71 9.1 1.12 15.96 1.68 20.72 1.68 10.36 0 19.18-1.4 26.31-4.34 7.14-2.79 23.8-12.31 49.69-28.4-8.12 10.35-15.11 18.61-20.85 24.63-5.88 6.01-12.04 9.93-18.62 12.17-6.58 2.1-18.19 6.44-34.99 13.01-16.8 6.58-29.39 9.8-37.93 9.8-5.46 0-9.38-.28-11.9-.84s-9.94-3.78-22.25-9.38c-12.46-5.59-25.2-17.21-38.5-34.7-13.43-17.63-20.58-32.18-21.84-43.8-1.11-11.61-1.67-19.73-1.67-24.35 0-22.53 6.71-41.98 20.02-58.35 13.29-16.51 32.47-33.03 57.52-49.68zm35.41 20.43c-7.69-5.03-16.51-7.55-26.17-7.55-17.08 0-31.07 6.99-42 21.13-10.77 14.13-16.23 30.22-16.23 48.41 0 17.78 5.46 35.13 16.37 52.2 16.67-10.5 35.84-26.03 57.54-46.74 21.69-20.57 36.25-33.86 43.67-39.6-3.5-5.46-7.56-9.94-12.18-13.71-4.75-3.64-11.62-8.4-21-14.14z"/><path d="m2933.93 887.35c7.42-8.12 16.79-15.25 28.41-21.69 11.62-6.3 22.4-9.51 32.47-9.51 8.12 0 14.99 2.09 20.86 6.43 5.74 4.2 9.66 9.24 11.9 14.84 2.1 5.59 3.08 9.09 3.08 10.49v3.78c0 6.58-2.24 12.73-6.86 18.61-4.76 5.74-10.35 9.8-16.93 12.17-1.54-1.12-6.31-8.25-14.15-21.27-7.97-12.87-15.95-18.47-24.2-16.51-18.91 5.04-31.78 17.49-38.5 37.64-6.86 20.02-10.22 44.64-10.22 74.03 0 11.89.14 23.23.56 33.86.42 10.5.7 20.85 1.12 30.93 1.12 4.62 6.72 7.56 16.66 8.96 9.94 1.26 15.25 2.23 16.09 2.51v11.06l-89.86-.56c0-4.62 4.34-8.96 13.02-12.73 8.68-3.92 13.02-9.24 13.02-16.24v-142.31c0-8.12-4.2-12.17-12.74-12.17-2.66 0-5.74.27-9.1.69-3.5.28-5.45.56-5.87.56l-1.68-11.61c10.49-4.62 21.55-10.36 33.31-16.93 11.76-6.58 22.67-13.16 32.76-19.87 1.53 3.22 2.23 7.27 2.23 12.31 0 4.2.14 8.4.28 12.46.28 4.05 1.68 7.41 4.34 10.07z"/><path d="m3126.53 862.58c10.08-6.57 20.85-9.79 32.46-9.79 12.33 0 24.36 2.94 36.12 8.67 11.76 5.88 25.76 14.28 41.99 25.47-12.32 14.41-36.39 36.66-72.23 67.03-35.68 30.37-57.24 49.4-64.66 57.09 8.12 12.32 18.05 22.53 29.68 30.37 11.47 7.98 21.83 12.45 30.92 13.71 9.11 1.12 15.97 1.68 20.72 1.68 10.36 0 19.18-1.4 26.32-4.34 7.14-2.79 23.79-12.31 49.69-28.4-8.12 10.35-15.12 18.61-20.86 24.63-5.88 6.01-12.04 9.93-18.61 12.17-6.58 2.1-18.2 6.44-35 13.01-16.79 6.58-29.39 9.8-37.93 9.8-5.46 0-9.37-.28-11.89-.84s-9.95-3.78-22.26-9.38c-12.46-5.59-25.19-17.21-38.5-34.7-13.43-17.63-20.57-32.18-21.83-43.8-1.11-11.61-1.67-19.73-1.67-24.35 0-22.53 6.71-41.98 20.01-58.35 13.29-16.51 32.47-33.03 57.53-49.68zm35.4 20.43c-7.69-5.03-16.51-7.55-26.16-7.55-17.09 0-31.08 6.99-42 21.13-10.78 14.13-16.24 30.22-16.24 48.41 0 17.78 5.46 35.13 16.38 52.2 16.66-10.5 35.84-26.03 57.53-46.74 21.7-20.57 36.25-33.86 43.67-39.6-3.5-5.46-7.56-9.94-12.18-13.71-4.75-3.64-11.61-8.4-21-14.14z"/><path d="m3380.99 855.31 1.68 2.23c-8.82 2.8-15.13 6.86-19.18 12.6-4.06 5.6-6.02 12.03-6.02 19.31 0 8.12 2.1 17.77 6.3 28.97 4.33 11.33 9.94 26.16 16.8 44.64 6.99 18.61 16.09 42.54 27.29 71.92l6.86-8.39c15.39-17.64 38.77-49.82 69.7-96.28 31.08-46.6 48.02-71.51 50.68-75l4.05 2.23c25.89 56.54 51.65 112.93 77.55 169.05 16.51-19.04 30.5-41.84 41.99-68.57 11.33-26.73 18.33-53.88 21.13-81.3 1.82-3.08.7-6.58-3.5-10.36-4.34-3.92-9.1-7.56-14.55-11.05h45.21 23.23c7.28 0 14.28.7 20.86 2.23l-19.19 14-130.3 212.14h-8.12c-7.28-24.49-20.43-58.07-39.33-100.89-19.03-42.96-29.96-68.01-33.04-75.43-23.23 23.93-44.09 50.8-62.56 80.74-18.62 29.81-33.87 60.6-45.77 92.22h-9.24c-9.66-16.93-21.69-43.8-36.26-80.46-14.41-36.52-26.72-65.07-36.8-85.5-9.94-20.43-23.1-39.6-39.33-57.38 5.74-1.11 13.71-2.23 23.79-2.93 9.93-.84 19.04-1.26 27.16-1.26h17.35c5.04 0 12.18.84 21.56 2.52z"/><path d="m3863.04 853.21c9.65-1.96 18.05-2.94 24.91-2.94 14 0 26.31 2.8 37.37 8.39 11.06 5.6 20.72 14.98 28.98 27.85 8.25 13.02 14.83 24.21 19.45 33.45 4.62 9.23 6.86 18.75 6.86 28.4 0 7.84-5.31 22.25-15.96 43.52-10.49 21.41-26.03 41.98-46.33 61.85-20.15 20.01-45.07 29.95-74.32 29.95-2.8 0-4.48 0-5.32 0-19.17 0-36.25-5.74-51.23-17.07-14.83-11.48-27.15-25.75-37.09-42.82-9.8-17.21-14.69-32.75-14.69-46.74 0-11.48 4.75-25.89 14.13-43.1 9.52-17.21 23.8-33.45 42.97-48.98 19.03-15.39 42.55-26.03 70.27-31.76zm23.23 32.74c-5.88-3.36-11.76-5.88-17.64-7.56-6.01-1.53-12.17-2.23-18.34-2.23-12.73 0-24.91 3.21-36.38 9.79-11.62 6.72-21.84 15.11-30.8 25.61-8.81 10.49-13.3 21.97-13.3 34.42 0 6.86.84 13.16 2.38 18.61 1.55 5.32 5.33 15.82 11.48 31.35 6.3 15.53 16.8 28.69 31.64 39.6 14.83 10.78 32.74 16.23 53.6 16.23 14.98 0 28-3.49 39.06-10.49 11.05-7 20.57-16.65 28.69-29.11 8.12-12.31 12.18-25.19 12.18-38.34 0-11.61-3.08-23.51-8.96-35.82-6.03-12.18-13.02-21.97-21.14-29.25-8.11-7.42-19.03-14.97-32.47-22.81z"/><path d="m3978.1 509.25c9.65-1.54 23.51-2.8 41.71-4.06 18.19-1.12 41.85-1.68 71.23-1.68-.84 3.5-6.29 6.02-16.79 7.56-10.35 1.53-15.53 6.15-15.53 13.85 0 53.73.14 107.61.28 161.34.14 53.74.42 114.19.84 181.5s.56 115.31.56 143.85c0 14 1.68 25.19 4.9 33.73 3.21 8.39 10.63 14.27 22.25 17.35 5.73.7 11.76-.84 18.2-4.76 6.29-4.06 12.45-7.97 18.19-12.03.7 1.12 1.12 3.08 1.12 5.87 0 5.88-3.5 11.06-10.64 15.4-7.13 4.34-13.57 8.11-19.04 11.47-5.6 3.36-13.01 5.04-22.25 5.04-4.62 0-9.09-.42-13.29-1.12-4.2-.84-10.23-2.38-17.92-4.62l-9.24-11.61-16.79-427.08-4.63-113.07c-1.54-6.58-5.88-10.64-12.87-12.18-6.86-1.54-13.72-3.21-20.29-4.75z"/><path d="m4295.81 506.87 2.39 6.01v4.9c-3.09 0-8.82 0-17.36 0-8.53 0-14.97 0-19.59 0-13.58 0-24.08 1.54-31.77 4.62-7.7 3.08-12.61 14.13-14.71 33.16-2.24 19.04-3.92 42.41-5.32 70.11-1.26 27.71-1.95 56.26-1.95 85.92 0 18.89.42 48.7 1.25 89.7.84 41 1.26 61.57 1.26 61.99 2.24 1.54 5.46 2.66 9.67 3.5 4.2.7 7.98 1.12 11.47 1.12h9.66 10.36c6.86 0 12.74 1.4 17.64 4.06-3.5 3.5-13.45 5.18-30.1 5.18s-27.02 3.49-31.21 10.49l5.87 176.04c3.93 4.34 11.07 6.86 21.42 7.56 10.5.84 17.07 1.53 19.73 2.37v10.08c-13.85 0-33.16 0-57.94 0s-43.53 0-56.26 0c0-1.54.7-3.5 1.96-6.16 1.25-2.66 2.79-3.92 4.33-3.92 4.34.84 8.68-.28 13.02-3.21 4.34-2.94 8.39-5.74 12.31-8.54 2.38-26.03 3.92-52.2 4.48-78.5.57-26.31.85-57.94.85-94.88 0-5.88-4.91-8.82-14.7-8.82-7.42 0-12.46 0-15.26 0-4.61 0-6.99-1.12-6.99-3.35 0-1.82 1.4-4.62 4.05-8.4 4.34 1.12 9.1 1.68 14.42 1.68 6.71 0 11.89-1.26 15.39-3.78 3.65-2.52 4.63-6.86 3.09-13.01 0-18.05-1.55-46.46-4.49-84.94-2.94-38.63-4.34-67.31-4.34-86.2 0-29.67 2.24-56.26 7-79.49 4.63-23.37 11.76-42.82 21.7-58.49 9.8-15.53 20.72-26.17 32.75-31.76 11.9-5.6 24.77-8.4 38.78-8.4 9.23 0 18.33 1.12 27.14 3.36z"/></g><g fill="#770ba0"><path d="m2294.13 499.56 113.38.56c-1.12 2.38-5.46 4.47-12.74 6.43-7.42 1.96-13.02 4.48-16.94 7.56-15.81 17.35-32.06 44.22-48.71 80.46-16.65 36.25-34.43 75.85-53.46 118.67l4.05 12.87c13.86 21.27 30.38 48.84 49.55 82.7 19.18 33.87 38.49 68.43 58.23 103.42 19.74 35.12 35.69 62.69 48.15 82.84h6.3c19.73-42.96 39.33-89.28 58.92-138.82 19.46-49.54 37.51-97.53 54.18-143.99 16.51-46.46 31.06-87.32 43.39-122.73 12.45-35.54 19.03-54.99 20.01-58.77.98-3.64 1.4-6.43 1.4-8.39 0-5.74-3.22-9.66-9.8-11.62s-9.65-4.76-9.23-8.67l95.59-4.06c-19.73 14.69-35.83 32.32-48.43 52.75-12.45 20.57-26.45 50.52-41.99 89.98-15.39 39.46-27.71 69.69-37.09 90.82-9.24 21.13-22.68 54.15-40.17 99.21-17.63 45.06-34.44 88.3-50.39 129.72-16.1 41.42-32.33 79.49-48.98 114.33l-11.63-11.61c-27.01-55.7-47.17-96.7-60.46-123.01-13.45-26.31-27.16-52.05-41.43-77.1-14.29-25.19-33.32-55.42-56.84-90.54l-11.61 12.73c-8.82 22.81-21.69 54.3-38.77 94.32-16.93 40.02-31.36 75.57-43.39 106.77-11.9 31.07-21.56 60.59-28.84 88.44l-11.61-13.85c-40.17-80.05-73.21-144.98-99.24-194.93-26.04-49.82-54.73-103.14-85.95-160.09-31.2-56.81-56.96-101.87-76.97-135.32-20.02-33.44-35.28-52.33-45.78-56.53-10.36-4.34-16.65-8.12-19.03-11.61 3.08-.42 6.44-.56 9.79-.56h8.12c10.51 0 28.28 1.26 53.34 3.77 25.04 2.52 43.11 3.78 53.88 3.78 2.38 4.62.14 9.52-6.72 14.7-6.71 5.17-9.37 9.65-7.83 13.01.7 5.46 1.96 11.33 3.5 17.49 1.53 6.16 9.93 23.51 25.18 52.2 15.27 28.54 35.14 66.05 59.92 112.36 24.62 46.46 48.98 92.64 72.92 138.54 23.93 46.04 47.87 93.2 71.8 141.47 11.48-23.22 21.84-47.01 30.93-71.36 9.1-24.35 20.58-56.96 34.44-97.68 13.85-40.86 25.34-72.62 34.15-95.43-16.66-37.92-34.99-73.75-55.28-107.75-20.3-34.01-38.21-60.87-53.9-80.6-15.67-19.6-27.84-31.35-36.53-35.27-8.68-3.92-16.79-7.56-24.63-11.05 16.65 0 30.37.28 41.15.56 10.78.42 21.13.84 30.79 1.26 20.02 0 38.21-1.4 54.31-3.92l-13.86 20.29c-3.5 4.2-5.18 8.25-5.18 12.03 0 3.5 1.26 7.56 3.78 12.18 2.52 4.61 8.13 14.69 16.8 30.36 8.54 15.68 17.91 32.75 27.72 51.5 9.79 18.61 20.71 35.26 32.6 49.96 10.79-18.9 20.16-39.61 28.28-61.86 8.12-22.39 14.69-42.26 19.74-59.33 4.9-17.21 7.42-27.01 7.42-29.24 0-4.34-3.64-7.98-11.07-11.34-7.27-3.22-10.35-7.56-9.23-13.01z"/><path d="m2710.69 853.73c10.08-6.57 20.85-9.79 32.46-9.79 12.33 0 24.36 2.94 36.12 8.67 11.76 5.88 25.76 14.28 41.99 25.47-12.32 14.41-36.39 36.66-72.23 67.03-35.68 30.37-57.24 49.4-64.66 57.09 8.12 12.32 18.05 22.53 29.68 30.37 11.47 7.98 21.83 12.45 30.92 13.71 9.11 1.12 15.97 1.68 20.72 1.68 10.36 0 19.18-1.4 26.32-4.34 7.14-2.79 23.79-12.31 49.69-28.4-8.12 10.35-15.12 18.61-20.86 24.63-5.88 6.01-12.04 9.93-18.61 12.17-6.58 2.1-18.2 6.44-35 13.01-16.8 6.58-29.39 9.8-37.93 9.8-5.46 0-9.37-.28-11.89-.84s-9.95-3.78-22.26-9.38c-12.46-5.59-25.19-17.21-38.5-34.7-13.43-17.63-20.57-32.18-21.83-43.8-1.11-11.61-1.67-19.73-1.67-24.35 0-22.53 6.71-41.98 20.01-58.35 13.29-16.51 32.47-33.03 57.53-49.68zm35.4 20.43c-7.69-5.03-16.51-7.55-26.16-7.55-17.09 0-31.08 6.99-42 21.13-10.78 14.13-16.24 30.22-16.24 48.41 0 17.78 5.46 35.13 16.38 52.2 16.66-10.5 35.84-26.03 57.53-46.74 21.7-20.57 36.25-33.86 43.67-39.6-3.5-5.46-7.56-9.94-12.18-13.71-4.75-3.64-11.61-8.4-21-14.14z"/><path d="m2933.93 878.5c7.42-8.12 16.79-15.25 28.42-21.69 11.61-6.3 22.39-9.51 32.47-9.51 8.12 0 14.98 2.09 20.85 6.43 5.74 4.2 9.66 9.24 11.9 14.84 2.1 5.59 3.08 9.09 3.08 10.49v3.78c0 6.58-2.24 12.73-6.86 18.61-4.76 5.74-10.35 9.8-16.93 12.17-1.54-1.12-6.3-8.25-14.15-21.27-7.97-12.87-15.95-18.47-24.2-16.51-18.91 5.04-31.78 17.49-38.5 37.64-6.85 20.02-10.21 44.64-10.21 74.03 0 11.89.14 23.23.56 33.86.42 10.5.7 20.85 1.12 30.93 1.12 4.62 6.71 7.56 16.65 8.96 9.94 1.26 15.26 2.23 16.1 2.51v11.06l-89.87-.56c0-4.62 4.34-8.96 13.03-12.73 8.67-3.92 13.01-9.24 13.01-16.24v-142.31c0-8.12-4.2-12.17-12.73-12.17-2.66 0-5.74.27-9.11.69-3.5.28-5.45.56-5.87.56l-1.68-11.61c10.49-4.62 21.56-10.36 33.31-16.93 11.76-6.58 22.68-13.16 32.76-19.87 1.53 3.22 2.23 7.27 2.23 12.31 0 4.2.14 8.4.28 12.46.28 4.05 1.68 7.41 4.34 10.07z"/><path d="m3126.53 853.73c10.08-6.57 20.85-9.79 32.47-9.79 12.32 0 24.35 2.94 36.12 8.67 11.75 5.88 25.75 14.28 41.99 25.47-12.33 14.41-36.39 36.66-72.23 67.03-35.69 30.37-57.25 49.4-64.67 57.09 8.12 12.32 18.06 22.53 29.68 30.37 11.47 7.98 21.83 12.45 30.93 13.71 9.1 1.12 15.96 1.68 20.71 1.68 10.36 0 19.19-1.4 26.32-4.34 7.14-2.79 23.79-12.31 49.69-28.4-8.12 10.35-15.11 18.61-20.85 24.63-5.89 6.01-12.05 9.93-18.62 12.17-6.58 2.1-18.19 6.44-35 13.01-16.79 6.58-29.39 9.8-37.93 9.8-5.46 0-9.37-.28-11.89-.84s-9.94-3.78-22.26-9.38c-12.46-5.59-25.19-17.21-38.5-34.7-13.43-17.63-20.57-32.18-21.83-43.8-1.11-11.61-1.67-19.73-1.67-24.35 0-22.53 6.71-41.98 20.01-58.35 13.3-16.51 32.47-33.03 57.53-49.68zm35.41 20.43c-7.7-5.03-16.52-7.55-26.17-7.55-17.08 0-31.08 6.99-42 21.13-10.77 14.13-16.23 30.22-16.23 48.41 0 17.78 5.46 35.13 16.37 52.2 16.66-10.5 35.84-26.03 57.53-46.74 21.7-20.57 36.25-33.86 43.68-39.6-3.51-5.46-7.57-9.94-12.19-13.71-4.75-3.64-11.61-8.4-20.99-14.14z"/><path d="m3380.99 846.46 1.68 2.23c-8.82 2.8-15.12 6.86-19.17 12.6-4.06 5.6-6.02 12.03-6.02 19.31 0 8.12 2.1 17.77 6.3 28.97 4.33 11.33 9.93 26.16 16.79 44.64 6.99 18.61 16.09 42.54 27.3 71.92l6.85-8.39c15.39-17.64 38.77-49.82 69.71-96.28 31.07-46.6 48.01-71.51 50.67-75l4.05 2.23c25.9 56.54 51.65 112.93 77.55 169.05 16.51-19.04 30.51-41.84 41.99-68.57 11.33-26.73 18.33-53.88 21.13-81.3 1.83-3.08.71-6.58-3.5-10.36-4.34-3.92-9.1-7.56-14.55-11.05h45.21 23.24c7.27 0 14.27.7 20.85 2.23l-19.18 14-130.3 212.14h-8.13c-7.28-24.49-20.43-58.07-39.33-100.89-19.03-42.96-29.95-68.01-33.03-75.43-23.24 23.93-44.1 50.8-62.57 80.74-18.61 29.81-33.87 60.6-45.77 92.22h-9.23c-9.67-16.93-21.7-43.8-36.26-80.46-14.42-36.52-26.73-65.07-36.81-85.5-9.93-20.43-23.1-39.6-39.33-57.38 5.74-1.11 13.71-2.23 23.79-2.93 9.94-.84 19.04-1.26 27.16-1.26h17.36c5.04 0 12.17.84 21.55 2.52z"/><path d="m3863.04 844.36c9.65-1.96 18.05-2.94 24.92-2.94 13.99 0 26.3 2.8 37.37 8.39 11.05 5.6 20.71 14.98 28.97 27.85 8.25 13.02 14.84 24.21 19.46 33.45 4.61 9.23 6.85 18.75 6.85 28.4 0 7.84-5.31 22.25-15.95 43.52-10.5 21.41-26.04 41.98-46.34 61.85-20.15 20.01-45.07 29.95-74.31 29.95-2.81 0-4.49 0-5.33 0-19.17 0-36.24-5.74-51.23-17.07-14.83-11.48-27.15-25.75-37.09-42.82-9.8-17.21-14.69-32.75-14.69-46.74 0-11.48 4.75-25.89 14.13-43.1 9.52-17.21 23.8-33.45 42.97-48.98 19.04-15.39 42.55-26.03 70.27-31.76zm23.24 32.74c-5.89-3.36-11.77-5.88-17.65-7.56-6.01-1.53-12.17-2.23-18.33-2.23-12.74 0-24.92 3.21-36.39 9.79-11.61 6.72-21.84 15.11-30.8 25.61-8.81 10.49-13.29 21.97-13.29 34.42 0 6.86.84 13.16 2.38 18.61 1.54 5.32 5.32 15.82 11.47 31.35 6.3 15.53 16.8 28.69 31.64 39.6 14.83 10.78 32.75 16.23 53.6 16.23 14.99 0 28-3.49 39.06-10.49 11.05-7 20.58-16.65 28.69-29.11 8.12-12.31 12.18-25.19 12.18-38.34 0-11.61-3.08-23.51-8.96-35.82-6.02-12.18-13.01-21.97-21.14-29.25-8.11-7.42-19.03-14.97-32.46-22.81z"/><path d="m3978.1 500.4c9.65-1.54 23.51-2.8 41.71-4.06 18.19-1.12 41.85-1.68 71.24-1.68-.84 3.5-6.29 6.02-16.8 7.56-10.35 1.53-15.53 6.15-15.53 13.85 0 53.73.14 107.61.28 161.34.14 53.74.42 114.19.84 181.5s.56 115.31.56 143.85c0 14 1.68 25.19 4.9 33.73 3.21 8.39 10.63 14.27 22.26 17.35 5.73.7 11.75-.84 18.19-4.76 6.29-4.06 12.45-7.97 18.19-12.03.7 1.12 1.13 3.08 1.13 5.87 0 5.88-3.51 11.06-10.65 15.4-7.13 4.34-13.57 8.11-19.03 11.47-5.6 3.36-13.02 5.04-22.26 5.04-4.62 0-9.09-.42-13.29-1.12-4.2-.84-10.22-2.38-17.92-4.62l-9.24-11.61-16.79-427.08-4.62-113.07c-1.54-6.58-5.88-10.64-12.88-12.18-6.86-1.54-13.72-3.21-20.29-4.75z"/><path d="m4295.82 498.02 2.38 6.01v4.9c-3.08 0-8.81 0-17.36 0-8.53 0-14.97 0-19.59 0-13.57 0-24.08 1.54-31.77 4.62-7.7 3.08-12.6 14.13-14.7 33.16-2.24 19.04-3.92 42.41-5.32 70.11-1.26 27.71-1.95 56.26-1.95 85.92 0 18.89.42 48.7 1.25 89.7.84 41 1.26 61.57 1.26 61.99 2.24 1.54 5.46 2.66 9.66 3.5 4.2.7 7.98 1.12 11.47 1.12h9.66 10.37c6.85 0 12.73 1.4 17.63 4.06-3.5 3.5-13.44 5.18-30.1 5.18-16.65 0-27.01 3.49-31.2 10.49l5.87 176.04c3.92 4.34 11.06 6.86 21.41 7.56 10.5.84 17.08 1.53 19.74 2.37v10.08c-13.86 0-33.17 0-57.95 0-24.77 0-43.53 0-56.26 0 0-1.54.7-3.5 1.96-6.16 1.25-2.66 2.79-3.92 4.33-3.92 4.34.84 8.68-.28 13.02-3.21 4.34-2.94 8.4-5.74 12.32-8.54 2.38-26.03 3.92-52.2 4.48-78.5.56-26.31.84-57.94.84-94.88 0-5.88-4.9-8.82-14.7-8.82-7.42 0-12.46 0-15.26 0-4.61 0-6.99-1.12-6.99-3.35 0-1.82 1.4-4.62 4.05-8.4 4.34 1.12 9.1 1.68 14.42 1.68 6.72 0 11.9-1.26 15.4-3.78 3.64-2.52 4.62-6.86 3.08-13.01 0-18.05-1.54-46.46-4.48-84.94-2.94-38.63-4.34-67.31-4.34-86.2 0-29.67 2.24-56.26 7-79.49 4.62-23.37 11.75-42.82 21.69-58.49 9.81-15.53 20.72-26.17 32.75-31.76 11.9-5.6 24.78-8.4 38.78-8.4 9.23 0 18.34 1.12 27.15 3.36z"/></g></g></svg>