<svg clip-rule="evenodd" fill-rule="evenodd" height="10mm" image-rendering="optimizeQuality" shape-rendering="geometricPrecision" text-rendering="geometricPrecision" viewBox="0 0 240.16 240.16" width="10mm" xmlns="http://www.w3.org/2000/svg"><path d="m120.08 0c66.32 0 120.08 53.76 120.08 120.08s-53.76 120.08-120.08 120.08-120.08-53.76-120.08-120.08 53.76-120.08 120.08-120.08zm0 8.41c61.68 0 111.67 50 111.67 111.67 0 61.68-50 111.67-111.67 111.67-61.68 0-111.67-50-111.67-111.67 0-61.68 50-111.67 111.67-111.67z"/><path d="m120.08 8.41c61.68 0 111.67 50 111.67 111.67 0 61.68-50 111.67-111.67 111.67-61.68 0-111.67-50-111.67-111.67 0-61.68 50-111.67 111.67-111.67zm0 15.61c53.05 0 96.06 43.01 96.06 96.06s-43.01 96.06-96.06 96.06-96.06-43.01-96.06-96.06 43.01-96.06 96.06-96.06z" fill="#ccc"/></svg>