<svg enable-background="new 0 0 25.51182 25.51204" height="25.51204" viewBox="0 0 25.51182 25.51204" width="25.51182" xmlns="http://www.w3.org/2000/svg" xmlns:xlink="http://www.w3.org/1999/xlink"><linearGradient id="a"><stop offset="0" stop-color="#828181"/><stop offset="1" stop-color="#575757"/></linearGradient><linearGradient id="b" gradientTransform="matrix(0 1 1 0 -1773.84119 602.39905)" gradientUnits="userSpaceOnUse" x1="-602.39868" x2="-576.88739" xlink:href="#a" y1="1786.59705" y2="1786.59705"/><linearGradient id="c" gradientTransform="matrix(0 1 -1 0 -4077.83984 -1061.23169)" gradientUnits="userSpaceOnUse" x1="1061.63184" x2="1086.36975" y1="-4090.59595" y2="-4090.59595"><stop offset=".00559" stop-color="#fff"/><stop offset="1" stop-color="#7a7a7a"/></linearGradient><linearGradient id="d" gradientTransform="matrix(1 0 0 -1 -47.00625 -39.32658)" gradientUnits="userSpaceOnUse" x1="59.76836" x2="59.76836" y1="-53.62712" y2="-50.53809"><stop offset="0" stop-color="#fffbfd"/><stop offset="1" stop-color="#808080"/></linearGradient><linearGradient id="e" gradientTransform="matrix(0 1 -1 0 -3645.17529 -1345.05237)" gradientUnits="userSpaceOnUse" x1="1347.54004" x2="1368.10278" xlink:href="#a" y1="-3657.9314" y2="-3657.9314"/><linearGradient id="f" gradientTransform="matrix(0 1 -1 0 -3645.17529 -1345.05237)" gradientUnits="userSpaceOnUse" x1="1347.76233" x2="1367.88062" y1="-3657.9314" y2="-3657.9314"><stop offset="0" stop-color="#c40d0d"/><stop offset="1" stop-color="#730000"/></linearGradient><linearGradient id="g" gradientUnits="userSpaceOnUse" x1="12.75591" x2="12.75591" y1="3.26466" y2="22.27347"><stop offset="0" stop-color="#ed0000"/><stop offset="1" stop-color="#a10000"/></linearGradient><linearGradient id="h" gradientTransform="matrix(-1 0 0 .50871 119.93398 -106.68469)" gradientUnits="userSpaceOnUse" x1="107.17806" x2="107.17806" y1="216.72394" y2="234.35088"><stop offset="0" stop-color="#fdfdff"/><stop offset="1" stop-color="#fcfeff" stop-opacity="0"/></linearGradient><path d="m12.75618 25.51165c-7.03367 0-12.75617-5.72195-12.75617-12.75508 0-7.03422 5.7225-12.75617 12.75617-12.75617s12.75563 5.72195 12.75563 12.75618c0 7.03312-5.72195 12.75507-12.75563 12.75507z" fill="url(#b)"/><circle cx="12.75591" cy="12.76906" fill="url(#c)" r="12.36893"/><circle cx="12.75591" cy="12.76906" fill="#e0e0e0" r="11.63479"/><path d="m1.24904 11.2115-.47869.46441c-.49011.64501-.48661 1.53861.00855 2.17976l.44371.41162 23.06135.03324.44834-.42812c.51235-.63821.51607-1.54568.00897-2.18806l-.45732-.44676z" fill="url(#d)"/><path d="m12.75608 4.25433c5.88124 0 10.64893 4.53325 10.64893 10.1253s-4.76769 11.13201-10.64893 11.13201-10.64893-5.53995-10.64893-11.132 4.76769-10.12531 10.64893-10.12531z" opacity=".3"/><path d="m10.46246 22.78921c-5.53401-1.26663-8.99316-6.77959-7.72653-12.31359 1.26665-5.53403 6.77955-8.99322 12.31357-7.7265 5.53101 1.26663 8.99316 6.77951 7.72653 12.31357-1.26665 5.53096-6.77955 8.99311-12.31357 7.72652" fill="url(#e)"/><path d="m10.51203 22.57263c-5.4144-1.23925-8.79878-6.63306-7.55952-12.04744 1.23927-5.41442 6.63302-8.79884 12.04742-7.5595 5.41146 1.23925 8.79878 6.63298 7.55952 12.04742-1.23927 5.41142-6.63302 8.79873-12.04742 7.55952" fill="url(#f)"/><path d="m10.63578 22.03199c-5.11581-1.17091-8.31355-6.26726-7.14263-11.38306 1.17093-5.11583 6.26723-8.3136 11.38304-7.14262 5.11303 1.17091 8.31355 6.26719 7.14263 11.38304-1.17094 5.113-6.26723 8.31351-11.38304 7.14264" fill="url(#g)"/><ellipse cx="12.75591" cy="8.0492" fill="url(#h)" opacity=".25" rx="6.70728" ry="4.48353"/></svg>