<svg enable-background="new 0 0 25.51182 25.51204" height="25.51204" viewBox="0 0 25.51182 25.51204" width="25.51182" xmlns="http://www.w3.org/2000/svg" xmlns:xlink="http://www.w3.org/1999/xlink"><linearGradient id="a" gradientTransform="matrix(0 1 1 0 -1773.84119 602.39905)" gradientUnits="userSpaceOnUse" x1="-602.38562" x2="-576.87433" y1="1786.60327" y2="1786.60327"><stop offset="0" stop-color="#828181"/><stop offset="1" stop-color="#575757"/></linearGradient><linearGradient id="b" gradientTransform="matrix(0 1 -1 0 -4077.83984 -1061.23169)" gradientUnits="userSpaceOnUse" x1="1061.6449" x2="1086.38281" y1="-4090.60205" y2="-4090.60205"><stop offset=".00559" stop-color="#fff"/><stop offset="1" stop-color="#7a7a7a"/></linearGradient><linearGradient id="c" gradientTransform="matrix(1 0 0 -1 -47.00625 -39.32658)" gradientUnits="userSpaceOnUse" x1="59.77456" x2="59.77456" y1="-53.64016" y2="-50.55113"><stop offset="0" stop-color="#fffbfd"/><stop offset="1" stop-color="#808080"/></linearGradient><linearGradient id="d" gradientTransform="matrix(0 1 -1 0 -3645.17529 -1345.05237)" gradientUnits="userSpaceOnUse" x1="1347.18567" x2="1368.48328" y1="-3657.9375" y2="-3657.9375"><stop offset="0" stop-color="#fffbfd"/><stop offset="1" stop-color="#2e2e2e"/></linearGradient><linearGradient id="e" gradientTransform="matrix(-1 0 0 .50871 119.93398 -106.68469)" gradientUnits="userSpaceOnUse" x1="107.21342" x2="107.21342" y1="216.74957" y2="233.91093"><stop offset="0" stop-color="#fdfdff"/><stop offset="1" stop-color="#fcfeff" stop-opacity="0"/></linearGradient><path d="m12.76238 25.52469c-7.03367 0-12.75617-5.72195-12.75617-12.75508 0-7.03422 5.7225-12.75617 12.75617-12.75617s12.75563 5.72195 12.75563 12.75618c.00001 7.03312-5.72194 12.75507-12.75563 12.75507z" fill="url(#a)"/><circle cx="12.76211" cy="12.78211" fill="url(#b)" r="12.36893"/><circle cx="12.76211" cy="12.78211" fill="#e0e0e0" r="11.63479"/><path d="m1.25524 11.22455-.47869.46441c-.49011.64501-.48661 1.53861.00855 2.17976l.44371.41163 23.06135.03324.44834-.42812c.51235-.63821.51607-1.54568.00897-2.18806l-.45732-.44676z" fill="url(#c)"/><path d="m12.76228 4.26738c5.88124 0 10.64893 4.45357 10.64893 9.94733s-4.76769 10.93634-10.64893 10.93634-10.64893-5.44259-10.64893-10.93635 4.76769-9.94732 10.64893-9.94732z" opacity=".3"/><path d="m10.38671 23.16032c-5.73177-1.31189-9.31452-7.02186-8.00263-12.75361 1.31191-5.73179 7.02182-9.31459 12.75359-8.00261 5.72866 1.31189 9.31452 7.02178 8.00263 12.75359-1.31191 5.72861-7.02182 9.31448-12.75359 8.00263" fill="url(#d)"/><path d="m10.38671 23.16032c-5.73177-1.31189-9.31452-7.02186-8.00263-12.75361 1.31191-5.73179 7.02182-9.31459 12.75359-8.00261 5.72866 1.31189 9.31452 7.02178 8.00263 12.75359-1.31191 5.72861-7.02182 9.31448-12.75359 8.00263" opacity=".4"/><path d="m10.51771 22.58799c-5.41568-1.23955-8.80085-6.63463-7.56131-12.05028 1.23957-5.4157 6.63458-8.80091 12.05026-7.56129 5.41274 1.23955 8.80085 6.63454 7.56131 12.05026-1.23956 5.4127-6.63458 8.80081-12.05026 7.56131" fill="#0d0d0d" opacity=".72"/><ellipse cx="12.72056" cy="7.94382" fill="url(#e)" opacity=".07" rx="7.1674" ry="4.36511"/></svg>