<svg clip-rule="evenodd" fill-rule="evenodd" height="7.8304mm" image-rendering="optimizeQuality" shape-rendering="geometricPrecision" text-rendering="geometricPrecision" viewBox="0 0 49.96 49.96" width="7.8304mm" xmlns="http://www.w3.org/2000/svg"><path d="m0 0h49.96v49.96h-49.96z"/><g fill-rule="nonzero"><path d="m21.61 9.85v-3.28h6.73v3.28zm3.38 33.53c-2.28 0-4.41-.43-6.39-1.29s-3.71-2.05-5.2-3.56-2.65-3.25-3.49-5.22-1.26-4.04-1.26-6.23c0-2.28.43-4.41 1.29-6.39s2.05-3.71 3.56-5.2 3.25-2.65 5.22-3.47c1.97-.83 4.05-1.24 6.26-1.24 2.23 0 4.33.42 6.3 1.27s3.7 2.02 5.2 3.51 2.68 3.22 3.52 5.18c.85 1.97 1.27 4.08 1.27 6.33 0 2.23-.42 4.34-1.27 6.32s-2.02 3.71-3.51 5.2-3.22 2.66-5.2 3.51-4.08 1.27-6.32 1.27zm13.5-27.11-1.99-1.99 1.85-1.92 2.02 1.92zm-13.5 24.6c1.91 0 3.69-.35 5.36-1.06 1.66-.71 3.13-1.69 4.4-2.95s2.26-2.72 2.97-4.38 1.06-3.46 1.06-5.39-.35-3.73-1.05-5.41-1.67-3.14-2.93-4.4-2.72-2.24-4.4-2.95-3.48-1.06-5.41-1.06c-1.91 0-3.7.35-5.37 1.06s-3.15 1.69-4.41 2.95c-1.27 1.26-2.26 2.72-2.97 4.4-.71 1.67-1.06 3.48-1.06 5.41s.35 3.73 1.06 5.39 1.7 3.12 2.97 4.38 2.74 2.24 4.41 2.95c1.68.71 3.47 1.06 5.37 1.06zm0-11.72c-.58 0-1.08-.2-1.48-.59-.41-.4-.61-.88-.61-1.47 0-.44.12-.84.37-1.19.24-.35.58-.58.99-.7v-8.37l-1.75.38 2.48-3.42 2.44 3.42-1.75-.38v8.37c.42.12.75.35.99.7s.37.74.37 1.19c0 .58-.2 1.07-.59 1.47-.4.4-.88.59-1.47.59zm5.69-10.82c-.3 0-.56-.1-.77-.31s-.31-.45-.31-.73c0-.3.1-.56.31-.77s.47-.31.77-.31c.28 0 .52.1.73.31s.31.47.31.77c0 .28-.1.52-.31.73s-.45.31-.73.31zm-11.41 0c-.28 0-.52-.1-.73-.31s-.31-.45-.31-.73c0-.3.1-.56.31-.77s.45-.31.73-.31c.3 0 .56.1.77.31s.31.47.31.77c0 .28-.1.52-.31.73s-.47.31-.77.31zm-4.19 4.22c-.3 0-.56-.1-.77-.31s-.31-.47-.31-.77c0-.28.1-.52.31-.73s.47-.31.77-.31c.33 0 .58.1.77.31s.28.45.28.73c0 .3-.09.56-.28.77s-.44.31-.77.31zm19.79 0c-.3 0-.55-.1-.75-.31s-.3-.47-.3-.77c0-.28.1-.52.3-.73s.45-.31.75-.31.56.1.77.31.31.45.31.73c0 .3-.1.56-.31.77s-.47.31-.77.31zm-21.29 5.58c-.3 0-.55-.1-.75-.31s-.3-.45-.3-.73c0-.3.1-.56.3-.77s.45-.31.75-.31.55.1.75.31.3.47.3.77c0 .28-.1.52-.3.73s-.45.31-.75.31zm22.79 0c-.3 0-.55-.1-.75-.31s-.3-.45-.3-.73c0-.3.1-.56.3-.77s.45-.31.75-.31c.33 0 .58.1.77.31s.28.47.28.77c0 .28-.09.52-.28.73s-.44.31-.77.31zm-1.5 5.65c-.3 0-.55-.1-.75-.31s-.3-.47-.3-.77c0-.28.1-.52.3-.73s.45-.31.75-.31.56.11.77.31c.21.21.31.45.31.73 0 .3-.1.56-.31.77s-.47.31-.77.31zm-19.79 0c-.3 0-.56-.1-.77-.31s-.31-.47-.31-.77c0-.28.1-.52.31-.73s.47-.31.77-.31c.33 0 .58.11.77.31.19.21.28.45.28.73 0 .3-.09.56-.28.77s-.44.31-.77.31zm15.6 4.19c-.3 0-.56-.1-.77-.31s-.31-.45-.31-.73c0-.3.1-.56.31-.77s.47-.31.77-.31c.28 0 .52.1.73.31s.31.47.31.77c0 .28-.1.52-.31.73s-.45.31-.73.31zm-11.41 0c-.28 0-.52-.1-.73-.31s-.31-.45-.31-.73c0-.3.1-.56.31-.77s.45-.31.73-.31c.3 0 .56.1.77.31s.31.47.31.77c0 .28-.1.52-.31.73s-.47.31-.77.31zm5.72 1.57c-.3 0-.56-.1-.77-.31s-.31-.47-.31-.77.1-.55.31-.75.47-.3.77-.3c.28 0 .52.1.73.3s.31.45.31.75-.1.56-.31.77-.45.31-.73.31z" fill="#001f32"/><path d="m21.61 9.85v-3.28h6.73v3.28zm3.38 33.53c-2.28 0-4.41-.43-6.39-1.29s-3.71-2.05-5.2-3.56-2.65-3.25-3.49-5.22-1.26-4.04-1.26-6.23c0-2.28.43-4.41 1.29-6.39s2.05-3.71 3.56-5.2 3.25-2.65 5.22-3.47c1.97-.83 4.05-1.24 6.26-1.24 2.23 0 4.33.42 6.3 1.27s3.7 2.02 5.2 3.51 2.68 3.22 3.52 5.18c.85 1.97 1.27 4.08 1.27 6.33 0 2.23-.42 4.34-1.27 6.32s-2.02 3.71-3.51 5.2-3.22 2.66-5.2 3.51-4.08 1.27-6.32 1.27zm13.5-27.11-1.99-1.99 1.85-1.92 2.02 1.92zm-13.5 24.6c1.91 0 3.69-.35 5.36-1.06 1.66-.71 3.13-1.69 4.4-2.95s2.26-2.72 2.97-4.38 1.06-3.46 1.06-5.39-.35-3.73-1.05-5.41-1.67-3.14-2.93-4.4-2.72-2.24-4.4-2.95-3.48-1.06-5.41-1.06c-1.91 0-3.7.35-5.37 1.06s-3.15 1.69-4.41 2.95c-1.27 1.26-2.26 2.72-2.97 4.4-.71 1.67-1.06 3.48-1.06 5.41s.35 3.73 1.06 5.39 1.7 3.12 2.97 4.38 2.74 2.24 4.41 2.95c1.68.71 3.47 1.06 5.37 1.06zm0-11.72c-.58 0-1.08-.2-1.48-.59-.41-.4-.61-.88-.61-1.47 0-.44.12-.84.37-1.19.24-.35.58-.58.99-.7v-8.37l-1.75.38 2.48-3.42 2.44 3.42-1.75-.38v8.37c.42.12.75.35.99.7s.37.74.37 1.19c0 .58-.2 1.07-.59 1.47-.4.4-.88.59-1.47.59zm5.69-10.82c-.3 0-.56-.1-.77-.31s-.31-.45-.31-.73c0-.3.1-.56.31-.77s.47-.31.77-.31c.28 0 .52.1.73.31s.31.47.31.77c0 .28-.1.52-.31.73s-.45.31-.73.31zm-11.41 0c-.28 0-.52-.1-.73-.31s-.31-.45-.31-.73c0-.3.1-.56.31-.77s.45-.31.73-.31c.3 0 .56.1.77.31s.31.47.31.77c0 .28-.1.52-.31.73s-.47.31-.77.31zm-4.19 4.22c-.3 0-.56-.1-.77-.31s-.31-.47-.31-.77c0-.28.1-.52.31-.73s.47-.31.77-.31c.33 0 .58.1.77.31s.28.45.28.73c0 .3-.09.56-.28.77s-.44.31-.77.31zm19.79 0c-.3 0-.55-.1-.75-.31s-.3-.47-.3-.77c0-.28.1-.52.3-.73s.45-.31.75-.31.56.1.77.31.31.45.31.73c0 .3-.1.56-.31.77s-.47.31-.77.31zm-21.29 5.58c-.3 0-.55-.1-.75-.31s-.3-.45-.3-.73c0-.3.1-.56.3-.77s.45-.31.75-.31.55.1.75.31.3.47.3.77c0 .28-.1.52-.3.73s-.45.31-.75.31zm22.79 0c-.3 0-.55-.1-.75-.31s-.3-.45-.3-.73c0-.3.1-.56.3-.77s.45-.31.75-.31c.33 0 .58.1.77.31s.28.47.28.77c0 .28-.09.52-.28.73s-.44.31-.77.31zm-1.5 5.65c-.3 0-.55-.1-.75-.31s-.3-.47-.3-.77c0-.28.1-.52.3-.73s.45-.31.75-.31.56.11.77.31c.21.21.31.45.31.73 0 .3-.1.56-.31.77s-.47.31-.77.31zm-19.79 0c-.3 0-.56-.1-.77-.31s-.31-.47-.31-.77c0-.28.1-.52.31-.73s.47-.31.77-.31c.33 0 .58.11.77.31.19.21.28.45.28.73 0 .3-.09.56-.28.77s-.44.31-.77.31zm15.6 4.19c-.3 0-.56-.1-.77-.31s-.31-.45-.31-.73c0-.3.1-.56.31-.77s.47-.31.77-.31c.28 0 .52.1.73.31s.31.47.31.77c0 .28-.1.52-.31.73s-.45.31-.73.31zm-11.41 0c-.28 0-.52-.1-.73-.31s-.31-.45-.31-.73c0-.3.1-.56.31-.77s.45-.31.73-.31c.3 0 .56.1.77.31s.31.47.31.77c0 .28-.1.52-.31.73s-.47.31-.77.31zm5.72 1.57c-.3 0-.56-.1-.77-.31s-.31-.47-.31-.77.1-.55.31-.75.47-.3.77-.3c.28 0 .52.1.73.3s.31.45.31.75-.1.56-.31.77-.45.31-.73.31z" fill="#00a7ff"/></g></svg>