<?xml version="1.0" encoding="UTF-8"?>
<!DOCTYPE svg PUBLIC "-//W3C//DTD SVG 1.1//EN" "http://www.w3.org/Graphics/SVG/1.1/DTD/svg11.dtd">
<!-- Creator: CorelDRAW -->
<svg xmlns="http://www.w3.org/2000/svg" xml:space="preserve" width="4.6898mm" height="4.6898mm" version="1.1" shape-rendering="geometricPrecision" text-rendering="geometricPrecision" image-rendering="optimizeQuality" fill-rule="evenodd" clip-rule="evenodd"
viewBox="0 0 43.87 43.87"
 xmlns:xlink="http://www.w3.org/1999/xlink"
 xmlns:xodm="http://www.corel.com/coreldraw/odm/2003">
 <g id="Lights">
  <metadata id="CorelCorpID_0Corel-Layer"/>
  <path id="From_x0020_Zero" fill="#00A7FF" fill-rule="nonzero" d="M21.93 43.87c-3.19,0 -6.12,-0.54 -8.79,-1.61 -2.67,-1.08 -4.99,-2.6 -6.96,-4.57 -1.97,-1.97 -3.5,-4.29 -4.57,-6.96 -1.08,-2.67 -1.61,-5.6 -1.61,-8.79 0,-3.19 0.54,-6.12 1.61,-8.79 1.08,-2.67 2.6,-4.99 4.57,-6.96 1.97,-1.97 4.29,-3.5 6.96,-4.57 2.67,-1.08 5.6,-1.61 8.79,-1.61 3.03,0 5.87,0.54 8.52,1.61 2.65,1.08 4.98,2.6 6.99,4.57 2.01,1.97 3.59,4.29 4.72,6.96 1.14,2.67 1.7,5.6 1.7,8.79 0,3.19 -0.54,6.12 -1.61,8.79 -1.08,2.67 -2.6,4.99 -4.57,6.96 -1.97,1.97 -4.29,3.5 -6.96,4.57 -2.67,1.08 -5.6,1.61 -8.79,1.61zm0.06 -3.17c2.55,0 4.94,-0.46 7.17,-1.38 2.23,-0.92 4.2,-2.22 5.92,-3.91 1.71,-1.69 3.05,-3.68 4,-5.95 0.96,-2.27 1.43,-4.78 1.43,-7.53 0,-2.59 -0.46,-5.02 -1.38,-7.29 -0.92,-2.27 -2.2,-4.26 -3.85,-5.98 -1.65,-1.71 -3.61,-3.06 -5.86,-4.03 -2.25,-0.98 -4.73,-1.46 -7.44,-1.46 -3.59,0 -6.78,0.81 -9.59,2.42 -2.81,1.61 -5.01,3.82 -6.6,6.63 -1.59,2.81 -2.39,6.05 -2.39,9.71 0,2.59 0.46,5.02 1.37,7.29 0.92,2.27 2.2,4.26 3.86,5.98 1.65,1.71 3.62,3.06 5.89,4.03 2.27,0.98 4.76,1.46 7.47,1.46zm-0.06 -5.38c-2.43,0 -4.33,-0.64 -5.71,-1.91 -1.37,-1.27 -2.33,-2.94 -2.87,-4.99 -0.54,-2.05 -0.81,-4.21 -0.81,-6.48 0,-2.43 0.27,-4.64 0.81,-6.63 0.54,-1.99 1.48,-3.6 2.84,-4.81 1.35,-1.22 3.27,-1.82 5.74,-1.82 2.43,0 4.32,0.61 5.68,1.82 1.35,1.22 2.32,2.83 2.9,4.84 0.58,2.01 0.87,4.21 0.87,6.6 0,2.43 -0.27,4.66 -0.81,6.69 -0.54,2.03 -1.48,3.66 -2.84,4.87 -1.36,1.22 -3.29,1.82 -5.8,1.82zm-4.96 -13.33c0,0.64 0.02,1.3 0.06,2 0.04,0.7 0.12,1.39 0.24,2.06l7.77 -12.19c-0.8,-1 -1.85,-1.49 -3.17,-1.49 -1.43,0 -2.5,0.5 -3.2,1.49 -0.7,1 -1.16,2.24 -1.38,3.74 -0.22,1.49 -0.33,2.96 -0.33,4.39zm4.9 9.56c3.35,0 5.02,-3.21 5.02,-9.62 0,-1.59 -0.1,-2.99 -0.3,-4.18l-7.89 12.31c0.36,0.44 0.8,0.8 1.31,1.08 0.52,0.28 1.14,0.42 1.85,0.42z"/>
 </g>
</svg>
