<?xml version="1.0" encoding="UTF-8"?>
<!DOCTYPE svg PUBLIC "-//W3C//DTD SVG 1.1//EN" "http://www.w3.org/Graphics/SVG/1.1/DTD/svg11.dtd">
<!-- Creator: CorelDRAW -->
<svg xmlns="http://www.w3.org/2000/svg" xml:space="preserve" width="4.69mm" height="4.69mm" version="1.1" shape-rendering="geometricPrecision" text-rendering="geometricPrecision" image-rendering="optimizeQuality" fill-rule="evenodd" clip-rule="evenodd"
viewBox="0 0 46.4 46.4"
 xmlns:xlink="http://www.w3.org/1999/xlink"
 xmlns:xodm="http://www.corel.com/coreldraw/odm/2003">
 <g id="Lights">
  <metadata id="CorelCorpID_0Corel-Layer"/>
  <path id="From_x0020_one" fill="#00A7FF" fill-rule="nonzero" d="M23.2 46.4c-3.23,0 -6.24,-0.6 -9.04,-1.8 -2.8,-1.2 -5.26,-2.86 -7.38,-4.98 -2.12,-2.12 -3.78,-4.59 -4.98,-7.4 -1.2,-2.82 -1.8,-5.82 -1.8,-9.01 0,-3.19 0.6,-6.19 1.8,-9.01 1.2,-2.82 2.86,-5.28 4.98,-7.4 2.12,-2.12 4.58,-3.78 7.38,-4.98 2.8,-1.2 5.81,-1.8 9.04,-1.8 3.23,0 6.24,0.6 9.04,1.8 2.8,1.2 5.26,2.86 7.38,4.98 2.12,2.12 3.78,4.59 4.98,7.4 1.2,2.82 1.8,5.82 1.8,9.01 0,3.19 -0.6,6.19 -1.8,9.01 -1.2,2.82 -2.86,5.28 -4.98,7.4 -2.12,2.12 -4.58,3.78 -7.38,4.98 -2.8,1.2 -5.81,1.8 -9.04,1.8zm0 -3.15c2.78,0 5.38,-0.52 7.8,-1.55 2.42,-1.03 4.55,-2.47 6.39,-4.31 1.84,-1.84 3.28,-3.97 4.31,-6.39 1.03,-2.42 1.55,-5.02 1.55,-7.8 0,-2.78 -0.52,-5.38 -1.55,-7.8 -1.03,-2.42 -2.47,-4.55 -4.31,-6.39 -1.84,-1.84 -3.97,-3.28 -6.39,-4.31 -2.42,-1.03 -5.02,-1.55 -7.8,-1.55 -2.78,0 -5.38,0.52 -7.8,1.55 -2.42,1.03 -4.55,2.47 -6.39,4.31 -1.84,1.84 -3.28,3.97 -4.31,6.39 -1.03,2.42 -1.55,5.02 -1.55,7.8 0,2.78 0.52,5.38 1.55,7.8 1.03,2.42 2.47,4.55 4.31,6.39 1.84,1.84 3.97,3.28 6.39,4.31 2.42,1.03 5.02,1.55 7.8,1.55zm-1.41 -8.05l0 -15.54c0,-0.86 0.03,-1.72 0.08,-2.56 0.06,-0.84 0.1,-1.66 0.14,-2.45 -0.15,0.15 -0.31,0.29 -0.48,0.42 -0.17,0.13 -0.33,0.29 -0.48,0.48 -0.19,0.19 -0.67,0.57 -1.44,1.15 -0.77,0.58 -1.83,1.36 -3.18,2.34l-1.91 -2.76 7.15 -5.18 4.05 0 0 24.1 -3.94 0z"/>
 </g>
</svg>
