<svg clip-rule="evenodd" fill-rule="evenodd" height="5.77mm" image-rendering="optimizeQuality" shape-rendering="geometricPrecision" text-rendering="geometricPrecision" viewBox="0 0 54.62 61.63" width="5.1138mm" xmlns="http://www.w3.org/2000/svg"><path d="m21.67 5.49v-5.49h11.27v5.49zm5.67 56.13c-3.82 0-7.38-.72-10.69-2.16s-6.21-3.43-8.7-5.96-4.44-5.44-5.84-8.73-2.1-6.77-2.1-10.43c0-3.82.72-7.38 2.16-10.69s3.43-6.21 5.96-8.7 5.44-4.43 8.73-5.81 6.79-2.07 10.48-2.07c3.74 0 7.25.71 10.54 2.13s6.19 3.38 8.7 5.87 4.48 5.38 5.9 8.67 2.13 6.82 2.13 10.6c0 3.74-.71 7.26-2.13 10.57s-3.38 6.21-5.87 8.7-5.39 4.45-8.7 5.87-6.83 2.13-10.57 2.13zm22.61-45.39-3.33-3.33 3.1-3.21 3.39 3.21-3.15 3.33zm-22.61 41.18c3.19 0 6.18-.59 8.97-1.78 2.78-1.19 5.24-2.83 7.36-4.94 2.12-2.1 3.78-4.55 4.97-7.33s1.78-5.79 1.78-9.02-.58-6.25-1.75-9.05-2.8-5.26-4.91-7.36c-2.1-2.1-4.56-3.75-7.36-4.94s-5.82-1.78-9.05-1.78c-3.19 0-6.19.59-9 1.78-2.8 1.19-5.27 2.83-7.39 4.94-2.12 2.1-3.78 4.56-4.97 7.36s-1.78 5.82-1.78 9.05.59 6.24 1.78 9.02 2.84 5.23 4.97 7.33c2.12 2.1 4.59 3.75 7.39 4.94s5.8 1.78 9 1.78zm0-19.63c-.97 0-1.8-.33-2.48-.99s-1.02-1.48-1.02-2.45c0-.74.2-1.4.61-1.99.41-.58.96-.97 1.67-1.17v-14.02l-2.92.64 4.15-5.72 4.09 5.72-2.92-.64v14.02c.7.2 1.26.58 1.67 1.17.41.58.61 1.25.61 1.99 0 .97-.33 1.79-.99 2.45s-1.48.99-2.45.99zm9.52-18.11c-.51 0-.93-.18-1.28-.53s-.53-.76-.53-1.23c0-.51.18-.93.53-1.28s.78-.53 1.28-.53c.47 0 .88.18 1.23.53s.53.78.53 1.28c0 .47-.18.88-.53 1.23s-.76.53-1.23.53zm-19.1 0c-.47 0-.88-.18-1.23-.53s-.53-.76-.53-1.23c0-.51.18-.93.53-1.28s.76-.53 1.23-.53c.51 0 .94.18 1.29.53s.53.78.53 1.28c0 .47-.18.88-.53 1.23s-.78.53-1.29.53zm-7.01 7.07c-.51 0-.93-.18-1.28-.53s-.53-.78-.53-1.29c0-.47.18-.88.53-1.23s.78-.53 1.28-.53c.55 0 .97.18 1.29.53.31.35.47.76.47 1.23 0 .51-.16.93-.47 1.29-.31.35-.74.53-1.29.53zm33.12 0c-.51 0-.92-.18-1.26-.53-.33-.35-.5-.78-.5-1.29 0-.47.16-.88.5-1.23.33-.35.75-.53 1.26-.53s.93.18 1.29.53c.35.35.53.76.53 1.23 0 .51-.18.93-.53 1.29-.35.35-.78.53-1.29.53zm-35.63 9.35c-.51 0-.92-.18-1.25-.53s-.5-.76-.5-1.23c0-.51.17-.93.5-1.28s.75-.53 1.25-.53c.51 0 .92.18 1.26.53.33.35.5.78.5 1.28 0 .47-.17.88-.5 1.23s-.75.53-1.26.53zm38.14 0c-.51 0-.92-.18-1.26-.53-.33-.35-.5-.76-.5-1.23 0-.51.17-.93.5-1.28s.75-.53 1.26-.53c.55 0 .97.18 1.28.53s.47.78.47 1.28c0 .47-.16.88-.47 1.23s-.74.53-1.28.53zm-2.51 9.46c-.51 0-.92-.18-1.26-.53-.33-.35-.5-.78-.5-1.28 0-.47.16-.88.5-1.23.33-.35.75-.53 1.26-.53s.93.18 1.29.53c.35.35.53.76.53 1.23 0 .51-.18.93-.53 1.28s-.78.53-1.29.53zm-33.12 0c-.51 0-.93-.18-1.28-.53s-.53-.78-.53-1.28c0-.47.18-.88.53-1.23s.78-.53 1.28-.53c.55 0 .97.18 1.29.53.31.35.47.76.47 1.23 0 .51-.16.93-.47 1.28s-.74.53-1.29.53zm26.11 7.01c-.51 0-.93-.18-1.28-.53s-.53-.76-.53-1.23c0-.51.18-.93.53-1.28s.78-.53 1.28-.53c.47 0 .88.18 1.23.53s.53.78.53 1.28c0 .47-.18.88-.53 1.23s-.76.53-1.23.53zm-19.1 0c-.47 0-.88-.18-1.23-.53s-.53-.76-.53-1.23c0-.51.18-.93.53-1.28s.76-.53 1.23-.53c.51 0 .94.18 1.29.53s.53.78.53 1.28c0 .47-.18.88-.53 1.23s-.78.53-1.29.53zm9.58 2.63c-.51 0-.93-.18-1.28-.53s-.53-.78-.53-1.29.18-.92.53-1.25.78-.5 1.28-.5c.47 0 .88.17 1.23.5s.53.75.53 1.25c0 .51-.18.94-.53 1.29s-.76.53-1.23.53z" fill="#e6e6e6" fill-rule="nonzero"/></svg>