<svg clip-rule="evenodd" fill-rule="evenodd" height="6.1342mm" image-rendering="optimizeQuality" shape-rendering="geometricPrecision" text-rendering="geometricPrecision" viewBox="0 0 63.49 63.49" width="6.1341mm" xmlns="http://www.w3.org/2000/svg"><path d="m0 63.49v-63.49h63.49v63.49zm4.51-4.51h54.48v-54.47h-54.48zm10.71-37.66c-1.56 0-2.9-.56-3.99-1.69-1.1-1.13-1.64-2.44-1.64-3.94 0-1.44.53-2.74 1.6-3.9s2.41-1.74 4.04-1.74c1.56 0 2.9.55 3.99 1.64 1.1 1.1 1.64 2.43 1.64 3.99 0 1.57-.55 2.9-1.64 3.99-1.1 1.1-2.43 1.64-3.99 1.64zm33.06 0c-1.56 0-2.9-.56-3.99-1.69-1.1-1.13-1.64-2.44-1.64-3.94 0-1.44.53-2.74 1.6-3.9s2.41-1.74 4.04-1.74c1.57 0 2.9.55 3.99 1.64 1.1 1.1 1.64 2.43 1.64 3.99 0 1.57-.55 2.9-1.64 3.99-1.1 1.1-2.43 1.64-3.99 1.64zm-33.06 16.06c-1.56 0-2.9-.55-3.99-1.64-1.1-1.1-1.64-2.43-1.64-3.99 0-1.44.53-2.74 1.6-3.9s2.41-1.74 4.04-1.74c1.56 0 2.9.55 3.99 1.64 1.1 1.1 1.64 2.43 1.64 3.99 0 1.63-.58 2.97-1.74 4.04s-2.46 1.6-3.9 1.6zm33.06 0c-1.56 0-2.9-.55-3.99-1.64-1.1-1.1-1.64-2.43-1.64-3.99 0-1.44.53-2.74 1.6-3.9s2.41-1.74 4.04-1.74c1.57 0 2.9.55 3.99 1.64 1.1 1.1 1.64 2.43 1.64 3.99 0 1.63-.58 2.97-1.74 4.04s-2.46 1.6-3.9 1.6zm-33.06 16.06c-1.56 0-2.9-.56-3.99-1.69-1.1-1.13-1.64-2.44-1.64-3.94 0-1.44.53-2.74 1.6-3.9s2.41-1.74 4.04-1.74c1.56 0 2.9.55 3.99 1.64 1.1 1.1 1.64 2.43 1.64 3.99s-.55 2.9-1.64 3.99c-1.1 1.1-2.43 1.64-3.99 1.64zm33.06 0c-1.56 0-2.9-.56-3.99-1.69-1.1-1.13-1.64-2.44-1.64-3.94 0-1.44.53-2.74 1.6-3.9s2.41-1.74 4.04-1.74c1.57 0 2.9.55 3.99 1.64 1.1 1.1 1.64 2.43 1.64 3.99s-.55 2.9-1.64 3.99c-1.1 1.1-2.43 1.64-3.99 1.64z" fill="#e6e6e6" fill-rule="nonzero"/></svg>