<?xml version="1.0" encoding="UTF-8"?>
<!DOCTYPE svg PUBLIC "-//W3C//DTD SVG 1.1//EN" "http://www.w3.org/Graphics/SVG/1.1/DTD/svg11.dtd">
<!-- Creator: CorelDRAW -->
<svg xmlns="http://www.w3.org/2000/svg" xml:space="preserve" width="7.46mm" height="7.733mm" version="1.1" shape-rendering="geometricPrecision" text-rendering="geometricPrecision" image-rendering="optimizeQuality" fill-rule="evenodd" clip-rule="evenodd"
viewBox="0 0 1222.74 1267.48"
 xmlns:xlink="http://www.w3.org/1999/xlink"
 xmlns:xodm="http://www.corel.com/coreldraw/odm/2003">
 <g id="Lights">
  <metadata id="CorelCorpID_0Corel-Layer"/>
  <path id="Steps_x0020_light" fill="#00A7FF" fill-rule="nonzero" d="M1069.29 1267.48c-2.23,0 -8.62,-3.9 -19.19,-11.69 -10.56,-7.77 -15.85,-17.23 -15.85,-28.34l10.01 -33.35 18.36 -46.7c0,-10.01 -8.9,-20.01 -26.68,-30.03 -17.82,-10 -39.48,-19.46 -65.07,-28.34 -25.59,-8.9 -51.15,-16.41 -76.74,-22.52 -25.57,-6.11 -46.14,-9.74 -61.73,-10.83 -32.24,-3.34 -57.25,-15.57 -75.07,-36.7 -17.78,-22.24 -47.79,-68.94 -90.07,-140.09 -80.07,107.85 -131.78,172.89 -155.14,195.13 -22.24,21.13 -58.94,40.3 -110.1,57.53 -51.15,17.24 -111.77,25.85 -181.84,25.85 -25.57,0 -49.76,-13.34 -72.56,-40.03 -22.78,-26.68 -34.19,-56.14 -34.19,-88.38 0,-48.93 13.34,-73.38 40.03,-73.38 24.49,0 45.6,15.55 63.4,46.7l46.71 0c21.13,0 44.21,-5.57 69.22,-16.69 25.03,-11.11 49.5,-25.01 73.4,-41.7 23.91,-16.67 44.22,-33.9 60.89,-51.7 16.69,-17.78 26.68,-33.35 30.03,-46.7 6.67,-26.68 10.01,-73.94 10.01,-141.75 0,-55.6 -7.8,-105.64 -23.36,-150.1l-30.03 5c-25.59,4.46 -50.6,8.62 -75.07,12.52 -24.47,3.88 -47.81,5.84 -70.05,5.84 -51.15,0 -115.11,-38.37 -191.84,-115.08l-40.04 -33.35c-51.15,-31.13 -76.74,-64.48 -76.74,-100.06 0,-10 4.46,-20.57 13.34,-31.68 8.9,-11.13 19.73,-20.57 32.55,-28.36 12.78,-7.79 23.62,-11.67 32.52,-11.67 21.11,0 46.71,17.78 76.72,53.37 28.93,35.57 55.33,63.37 79.23,83.38 23.93,20.01 53.11,30.03 87.59,30.03 46.7,0 88.69,-7.23 125.95,-21.68 37.24,-14.46 63.12,-27.24 77.56,-38.35l-3.33 -13.34c-3.34,-6.67 -20.03,-10.01 -50.06,-10.01 -16.67,0 -26.96,-2.77 -30.85,-8.33 -3.9,-5.57 -5.85,-17.8 -5.85,-36.7l0 -15.01c0,-5.56 -14.46,-12.78 -43.37,-21.67 -28.91,-6.67 -43.37,-19.46 -43.37,-38.37 0,-20.01 8.34,-42.8 25.03,-68.37 16.69,-25.59 39.47,-49.76 68.4,-72.54 28.91,-22.8 61.71,-41.7 98.41,-56.71 36.71,-15.01 75.63,-22.52 116.78,-22.52 46.71,0 82.56,12.24 107.57,36.7 25.04,24.45 37.55,53.92 37.55,88.39 0,71.15 -38.39,136.75 -115.11,196.79l3.34 16.69c113.42,0 201.55,28.06 264.4,84.21 62.83,56.14 94.26,133.7 94.26,232.65 0,37.8 -1.67,66.99 -5.02,87.56 -3.33,20.57 -11.41,34.45 -24.19,41.68 -12.78,7.23 -34.19,10.85 -64.22,10.85 -14.46,0 -26.41,-8.9 -35.86,-26.68 -9.46,-17.8 -17.23,-40.3 -23.36,-67.55 -6.13,-27.24 -11.41,-54.2 -15.85,-80.89 -13.34,-81.17 -62.84,-123.4 -148.47,-126.75l-1.66 116.75c21.11,16.67 42.81,38.63 65.05,65.87 22.23,27.24 41.98,55.3 59.22,84.21 17.23,28.91 28.63,56.15 34.19,81.72 6.67,24.45 12.51,42.24 17.52,53.37 5,11.11 13.9,18.62 26.68,22.5 12.78,3.9 33.63,8.62 62.56,14.18 45.6,7.79 85.62,24.45 120.11,50.04 34.45,25.57 61.15,57.25 80.05,95.05 17.8,35.58 26.68,73.94 26.68,115.08 -11.11,11.11 -26.68,22.52 -46.7,34.19 -20.01,11.67 -39.76,21.41 -59.22,29.18 -19.47,7.79 -35.31,11.69 -47.53,11.69zm-100.08 -523.66l20.01 -3.34c6.67,-3.33 10,-25.57 10,-66.71 0,-95.62 -26.13,-167.89 -78.4,-216.8 -52.27,-48.93 -138.45,-73.38 -258.56,-73.38 -6.67,0 -15.01,-23.91 -25.03,-71.71 0,-6.67 13.36,-22.24 40.04,-46.7 25.57,-23.36 44.48,-45.88 56.71,-67.55 12.23,-21.68 18.34,-46.42 18.34,-74.22 0,-22.24 -8.61,-40.03 -25.85,-53.37 -17.23,-13.34 -41.44,-20.01 -72.56,-20.01 -48.94,0 -92.31,10.28 -130.11,30.85 -37.83,20.57 -67.28,43.37 -88.43,68.38 -21.13,25.01 -31.68,45.3 -31.68,60.87 0,1.11 3.33,2.77 10,5 4.46,1.11 10.01,2.79 16.69,5 6.67,2.23 14.47,4.46 23.36,6.67 18.9,3.34 28.36,21.13 28.36,53.37 0,11.13 12.78,17.8 38.37,20.01 17.78,1.11 30.31,6.39 37.52,15.85 7.23,9.44 11.97,20.01 14.19,31.68 2.23,11.67 3.34,21.41 3.34,29.19 0,10 -26.7,27.8 -80.08,53.37 -54.48,26.68 -114.54,40.03 -180.15,40.03 -60.06,0 -122.34,-38.91 -186.84,-116.75 -27.81,-33.35 -46.16,-50.02 -55.06,-50.02 -4.44,0 -9.72,2.77 -15.83,8.34 -6.11,5.56 -9.18,11.11 -9.18,16.67 0,16.69 20.57,37.24 61.73,61.71l28.36 26.68c38.93,36.68 72.28,64.48 100.08,83.38 27.8,18.9 52.27,28.36 73.41,28.36 66.71,0 135.11,-12.23 205.18,-36.7 17.78,53.37 28.34,98.97 31.68,136.76l136.78 -25.01 -1.66 -155.1 46.71 -3.34c60.04,0 106.21,14.46 138.45,43.37 32.24,28.91 52.27,70.04 60.06,123.4 2.21,28.91 7.23,58.38 15,88.39 8.9,28.91 17.24,43.37 25.04,43.37zm-415.39 -517.01c-20.01,0 -36.68,-5.56 -50.04,-16.67 -13.34,-11.11 -20.01,-25.57 -20.01,-43.37 0,-16.67 6.67,-30.57 20.01,-41.68 13.36,-11.13 30.03,-16.69 50.04,-16.69 20.03,0 36.99,5.56 50.88,16.69 13.9,11.11 20.85,25.01 20.85,41.68 0,17.8 -6.95,32.26 -20.85,43.37 -13.88,11.11 -30.85,16.67 -50.88,16.67zm0 -41.68c15.57,0 23.37,-6.11 23.37,-18.36 0,-12.23 -7.8,-18.34 -23.37,-18.34 -15.57,0 -23.34,6.11 -23.34,18.34 0,12.24 7.77,18.36 23.34,18.36zm-3.33 635.4c22.24,-8.9 43.09,-14.46 62.55,-16.67 19.46,-2.23 48.11,-3.9 85.9,-5.02 25.59,-1.11 48.94,-0.56 70.07,1.67 21.14,2.23 40.04,5 56.71,8.34 -7.79,-25.57 -23.62,-53.92 -47.53,-85.05 -23.91,-31.14 -49.76,-57.27 -77.58,-78.4l-145.12 23.36 0 55.04 -5 96.72zm538.81 395.26c6.67,0 19.75,-5.85 39.21,-17.52 19.46,-11.67 34.73,-22.5 45.88,-32.52 -8.92,-32.24 -18.1,-57.81 -27.54,-76.71 -9.46,-18.91 -20.57,-34.47 -33.35,-46.7 -12.8,-12.24 -29.21,-23.91 -49.22,-35.03 -30.03,-17.78 -65.05,-30.03 -105.1,-36.7 -26.68,-4.44 -47.53,-9.44 -62.55,-15 -15.01,-5.57 -26.68,-15.29 -35.03,-29.19 -8.34,-13.9 -16.41,-35.31 -24.19,-64.2 -28.91,-11.13 -73.95,-16.69 -135.12,-16.69 55.6,94.51 88.41,144.53 98.43,150.1 8.9,5.56 41.16,14.44 96.74,26.68 36.71,7.77 71.48,17.51 104.28,29.18 32.8,11.67 59.78,25.01 80.9,40.03 21.13,15.01 31.7,31.4 31.7,49.2 0,4.44 -1.39,10.28 -4.18,17.51 -2.77,7.23 -6.95,15.85 -12.52,25.85l-11.67 28.36 3.34 3.34zm-867.44 -108.41c53.38,0 105.1,-7.79 155.15,-23.36 50.02,-15.55 87.3,-35.57 111.75,-60.04 25.59,-25.57 72.28,-83.94 140.12,-175.1 -20.01,4.44 -37.8,9.16 -53.37,14.18 -15.59,5 -28.93,10.28 -40.04,15.83 -16.69,28.91 -41.16,56.71 -73.4,83.4 -32.26,26.68 -65.61,48.35 -100.1,65.04 -34.47,16.67 -65.05,25.01 -91.74,25.01l-66.73 0 -16.69 -25.01 -26.7 -25.01c-4.44,0 -6.67,4.44 -6.67,13.34 0,21.11 7.51,41.68 22.54,61.69 15.01,20.01 30.29,30.03 45.86,30.03z"/>
 </g>
</svg>
