<svg clip-rule="evenodd" fill-rule="evenodd" height="7.733mm" image-rendering="optimizeQuality" shape-rendering="geometricPrecision" text-rendering="geometricPrecision" viewBox="0 0 187.35 194.2" width="7.46mm" xmlns="http://www.w3.org/2000/svg"><path d="m163.84 194.2c-.34 0-1.32-.6-2.94-1.79s-2.43-2.64-2.43-4.34l1.53-5.11 2.81-7.15c0-1.53-1.36-3.07-4.09-4.6s-6.05-2.98-9.97-4.34-7.84-2.51-11.76-3.45-7.07-1.49-9.46-1.66c-4.94-.51-8.77-2.39-11.5-5.62-2.72-3.41-7.32-10.56-13.8-21.46-12.27 16.52-20.19 26.49-23.77 29.9-3.41 3.24-9.03 6.18-16.87 8.81-7.84 2.64-17.13 3.96-27.86 3.96-3.92 0-7.62-2.04-11.12-6.13-3.49-4.09-5.24-8.6-5.24-13.54 0-7.5 2.04-11.24 6.13-11.24 3.75 0 6.99 2.38 9.71 7.15h7.16c3.24 0 6.77-.85 10.61-2.56 3.83-1.7 7.58-3.83 11.25-6.39 3.66-2.55 6.78-5.19 9.33-7.92 2.56-2.72 4.09-5.11 4.6-7.15 1.02-4.09 1.53-11.33 1.53-21.72 0-8.52-1.2-16.19-3.58-23l-4.6.77c-3.92.68-7.75 1.32-11.5 1.92s-7.33.89-10.73.89c-7.84 0-17.64-5.88-29.39-17.63l-6.14-5.11c-7.84-4.77-11.76-9.88-11.76-15.33 0-1.53.68-3.15 2.04-4.85 1.36-1.71 3.02-3.15 4.99-4.34 1.96-1.19 3.62-1.79 4.98-1.79 3.23 0 7.16 2.72 11.76 8.18 4.43 5.45 8.48 9.71 12.14 12.78 3.67 3.07 8.14 4.6 13.42 4.6 7.15 0 13.59-1.11 19.3-3.32 5.71-2.22 9.67-4.17 11.88-5.88l-.51-2.04c-.51-1.02-3.07-1.53-7.67-1.53-2.55 0-4.13-.42-4.73-1.28-.6-.85-.9-2.73-.9-5.62v-2.3c0-.85-2.22-1.96-6.65-3.32-4.43-1.02-6.65-2.98-6.65-5.88 0-3.07 1.28-6.56 3.83-10.47 2.56-3.92 6.05-7.62 10.48-11.12 4.43-3.49 9.46-6.39 15.08-8.69 5.63-2.3 11.59-3.45 17.89-3.45 7.16 0 12.65 1.88 16.48 5.62 3.84 3.75 5.75 8.26 5.75 13.54 0 10.9-5.88 20.95-17.64 30.15l.51 2.56c17.38 0 30.88 4.3 40.51 12.9s14.44 20.49 14.44 35.65c0 5.79-.26 10.26-.77 13.42-.51 3.15-1.75 5.28-3.71 6.39s-5.24 1.66-9.84 1.66c-2.22 0-4.05-1.36-5.49-4.09-1.45-2.73-2.64-6.18-3.58-10.35s-1.75-8.31-2.43-12.39c-2.04-12.44-9.63-18.91-22.75-19.42l-.25 17.89c3.23 2.55 6.56 5.92 9.97 10.09s6.43 8.47 9.07 12.9 4.39 8.6 5.24 12.52c1.02 3.75 1.92 6.47 2.68 8.18.77 1.7 2.13 2.85 4.09 3.45s5.15 1.32 9.59 2.17c6.99 1.19 13.12 3.75 18.4 7.67s9.37 8.77 12.27 14.56c2.73 5.45 4.09 11.33 4.09 17.63-1.7 1.7-4.09 3.45-7.15 5.24-3.07 1.79-6.09 3.28-9.07 4.47s-5.41 1.79-7.28 1.79zm-15.33-80.24 3.07-.51c1.02-.51 1.53-3.92 1.53-10.22 0-14.65-4-25.72-12.01-33.22s-21.21-11.24-39.62-11.24c-1.02 0-2.3-3.66-3.83-10.99 0-1.02 2.05-3.41 6.14-7.15 3.92-3.58 6.82-7.03 8.69-10.35s2.81-7.11 2.81-11.37c0-3.41-1.32-6.13-3.96-8.18-2.64-2.04-6.35-3.07-11.12-3.07-7.5 0-14.14 1.57-19.94 4.73-5.8 3.15-10.31 6.65-13.55 10.48s-4.85 6.94-4.85 9.33c0 .17.51.42 1.53.77.68.17 1.53.43 2.56.77 1.02.34 2.22.68 3.58 1.02 2.9.51 4.34 3.24 4.34 8.18 0 1.71 1.96 2.73 5.88 3.07 2.72.17 4.64.98 5.75 2.43s1.83 3.07 2.17 4.85c.34 1.79.51 3.28.51 4.47 0 1.53-4.09 4.26-12.27 8.18-8.35 4.09-17.55 6.13-27.6 6.13-9.2 0-18.74-5.96-28.63-17.89-4.26-5.11-7.07-7.66-8.44-7.66-.68 0-1.49.42-2.43 1.28-.94.85-1.41 1.7-1.41 2.55 0 2.56 3.15 5.71 9.46 9.46l4.34 4.09c5.96 5.62 11.08 9.88 15.33 12.78 4.26 2.9 8.01 4.34 11.25 4.34 10.22 0 20.7-1.87 31.44-5.62 2.72 8.18 4.34 15.16 4.85 20.95l20.96-3.83-.25-23.77 7.16-.51c9.2 0 16.27 2.22 21.21 6.65s8.01 10.73 9.2 18.91c.34 4.43 1.11 8.95 2.3 13.54 1.36 4.43 2.64 6.65 3.84 6.65zm-63.65-79.22c-3.07 0-5.62-.85-7.67-2.55-2.04-1.7-3.07-3.92-3.07-6.65 0-2.55 1.02-4.68 3.07-6.39s4.6-2.56 7.67-2.56 5.67.85 7.8 2.56c2.13 1.7 3.19 3.83 3.19 6.39 0 2.73-1.06 4.94-3.19 6.65-2.13 1.7-4.73 2.55-7.8 2.55zm0-6.39c2.39 0 3.58-.94 3.58-2.81s-1.2-2.81-3.58-2.81c-2.39 0-3.58.94-3.58 2.81 0 1.88 1.19 2.81 3.58 2.81zm-.51 97.36c3.41-1.36 6.6-2.22 9.58-2.55 2.98-.34 7.37-.6 13.16-.77 3.92-.17 7.5-.09 10.74.26 3.24.34 6.14.77 8.69 1.28-1.19-3.92-3.62-8.26-7.28-13.03s-7.62-8.77-11.89-12.01l-22.24 3.58v8.43l-.77 14.82zm82.56 60.56c1.02 0 3.03-.9 6.01-2.68 2.98-1.79 5.32-3.45 7.03-4.98-1.37-4.94-2.77-8.86-4.22-11.75-1.45-2.9-3.15-5.28-5.11-7.15-1.96-1.88-4.48-3.66-7.54-5.37-4.6-2.72-9.97-4.6-16.1-5.62-4.09-.68-7.28-1.45-9.58-2.3s-4.09-2.34-5.37-4.47-2.51-5.41-3.71-9.84c-4.43-1.71-11.33-2.56-20.7-2.56 8.52 14.48 13.55 22.15 15.08 23 1.36.85 6.31 2.21 14.82 4.09 5.63 1.19 10.95 2.68 15.98 4.47s9.16 3.83 12.4 6.13 4.86 4.81 4.86 7.54c0 .68-.21 1.57-.64 2.68-.42 1.11-1.06 2.43-1.92 3.96l-1.79 4.34.51.51zm-132.91-16.61c8.18 0 16.1-1.19 23.77-3.58 7.66-2.38 13.38-5.45 17.12-9.2 3.92-3.92 11.08-12.86 21.47-26.83-3.07.68-5.79 1.4-8.18 2.17s-4.43 1.57-6.14 2.43c-2.56 4.43-6.31 8.69-11.25 12.78s-10.05 7.41-15.34 9.97c-5.28 2.55-9.97 3.83-14.06 3.83h-10.22l-2.56-3.83-4.09-3.83c-.68 0-1.02.68-1.02 2.04 0 3.23 1.15 6.39 3.45 9.45 2.3 3.07 4.64 4.6 7.03 4.6z" fill="#e6e6e6" fill-rule="nonzero"/></svg>