<svg clip-rule="evenodd" fill-rule="evenodd" height="2.6484mm" image-rendering="optimizeQuality" shape-rendering="geometricPrecision" text-rendering="geometricPrecision" viewBox="0 0 10 10.86" width="2.4366mm" xmlns="http://www.w3.org/2000/svg"><path d="m5.02 10.86c-.35 0-.67-.08-.95-.25s-.51-.4-.68-.68-.25-.6-.25-.95c0-.43.13-.81.39-1.15s.59-.56.99-.66v-2.91h-2.07v3.43h-2.44v-.99h1.39v-5.71h-1.39v-.99h2.44v3.31h2.07v-3.31h.97v3.31h2.07v-3.31h2.44v.99h-1.39v5.71h1.39v.99h-2.44v-3.43h-2.07v2.89c.42.11.76.34 1.03.68.26.34.4.73.4 1.15 0 .34-.08.65-.25.94-.16.28-.39.51-.67.69-.28.17-.61.26-.97.26zm0-.91c.28 0 .51-.09.7-.28.19-.18.28-.42.28-.7 0-.27-.09-.5-.28-.69s-.42-.28-.69-.28c-.28 0-.51.09-.7.28-.18.19-.28.42-.28.7s.09.51.28.7.42.28.7.28z" fill="#e6e6e6" fill-rule="nonzero"/></svg>