<?xml version="1.0" encoding="UTF-8"?>
<!DOCTYPE svg PUBLIC "-//W3C//DTD SVG 1.1//EN" "http://www.w3.org/Graphics/SVG/1.1/DTD/svg11.dtd">
<!-- Creator: CorelDRAW -->
<svg xmlns="http://www.w3.org/2000/svg" xml:space="preserve" width="4mm" height="4mm" version="1.1" shape-rendering="geometricPrecision" text-rendering="geometricPrecision" image-rendering="optimizeQuality" fill-rule="evenodd" clip-rule="evenodd"
viewBox="0 0 2585.65 2585.65"
 xmlns:xlink="http://www.w3.org/1999/xlink"
 xmlns:xodm="http://www.corel.com/coreldraw/odm/2003">
 <g id="Faceplate">
  <metadata id="CorelCorpID_0Corel-Layer"/>
  <ellipse fill="black" cx="1292.82" cy="1292.82" rx="1292.82" ry="1292.83"/>
 </g>
 <g id="Lights">
  <metadata id="CorelCorpID_1Corel-Layer"/>
  <path id="URANUS" fill="#CE3DFF" fill-rule="nonzero" d="M1296.38 2278.09c-55.14,0 -105.11,-13.38 -149.97,-40.14 -44.86,-26.76 -80.67,-62.57 -107.43,-107.43 -26.76,-44.86 -40.14,-94.83 -40.14,-149.9 0,-67.74 20.49,-128.31 61.41,-181.84 40.92,-53.52 92.89,-88.17 155.85,-103.94l0 -458.05 -325.86 0 0 540.72 -384.94 0 0 -155.85 219.59 0 0 -899.68 -219.59 0 0 -155.85 384.94 0 0 521.85 325.86 0 0 -521.85 153.46 0 0 521.85 325.86 0 0 -521.85 384.94 0 0 155.85 -219.59 0 0 899.68 219.59 0 0 155.85 -384.94 0 0 -540.72 -325.86 0 0 455.72c66.13,17.32 120.04,53.14 161.8,107.43 41.69,54.3 62.57,114.54 62.57,180.67 0,53.52 -12.99,102.71 -38.98,147.58 -25.99,44.86 -61.41,81.06 -106.27,108.6 -44.86,27.54 -95.6,41.31 -152.29,41.31zm0 -144.02c44.09,0 80.67,-14.54 109.76,-43.7 29.15,-29.09 43.7,-65.68 43.7,-109.76 0,-42.53 -14.93,-78.73 -44.86,-108.66 -29.93,-29.86 -66.13,-44.86 -108.6,-44.86 -44.09,0 -80.67,14.54 -109.83,43.7 -29.09,29.15 -43.7,65.74 -43.7,109.83 0,44.09 14.61,80.67 43.7,109.76 29.15,29.15 65.74,43.7 109.83,43.7z"/>
 </g>
</svg>
