<svg clip-rule="evenodd" fill-rule="evenodd" height="4mm" image-rendering="optimizeQuality" shape-rendering="geometricPrecision" text-rendering="geometricPrecision" viewBox="0 0 2585.65 2585.65" width="4mm" xmlns="http://www.w3.org/2000/svg"><ellipse cx="1292.82" cy="1292.82" rx="1292.82" ry="1292.83"/><path d="m1296.38 2278.09c-55.14 0-105.11-13.38-149.97-40.14s-80.67-62.57-107.43-107.43-40.14-94.83-40.14-149.9c0-67.74 20.49-128.31 61.41-181.84 40.92-53.52 92.89-88.17 155.85-103.94v-458.05h-325.86v540.72h-384.94v-155.85h219.59v-899.68h-219.59v-155.85h384.94v521.85h325.86v-521.85h153.46v521.85h325.86v-521.85h384.94v155.85h-219.59v899.68h219.59v155.85h-384.94v-540.72h-325.86v455.72c66.13 17.32 120.04 53.14 161.8 107.43 41.69 54.3 62.57 114.54 62.57 180.67 0 53.52-12.99 102.71-38.98 147.58-25.99 44.86-61.41 81.06-106.27 108.6s-95.6 41.31-152.29 41.31zm0-144.02c44.09 0 80.67-14.54 109.76-43.7 29.15-29.09 43.7-65.68 43.7-109.76 0-42.53-14.93-78.73-44.86-108.66-29.93-29.86-66.13-44.86-108.6-44.86-44.09 0-80.67 14.54-109.83 43.7-29.09 29.15-43.7 65.74-43.7 109.83s14.61 80.67 43.7 109.76c29.15 29.15 65.74 43.7 109.83 43.7z" fill="#270034" fill-rule="nonzero"/></svg>