<svg clip-rule="evenodd" fill-rule="evenodd" height="4mm" image-rendering="optimizeQuality" shape-rendering="geometricPrecision" text-rendering="geometricPrecision" viewBox="0 0 60.72 60.72" width="4mm" xmlns="http://www.w3.org/2000/svg"><circle cx="30.36" cy="30.36" r="30.36"/><path d="m30.36 55.31c-3.47 0-6.71-.65-9.72-1.94s-5.65-3.08-7.94-5.36c-2.28-2.28-4.07-4.94-5.36-7.97s-1.94-6.26-1.94-9.69.65-6.66 1.94-9.69 3.08-5.68 5.36-7.97c2.28-2.28 4.93-4.07 7.94-5.36s6.25-1.94 9.72-1.94 6.71.65 9.72 1.94 5.65 3.08 7.94 5.36c2.28 2.28 4.07 4.94 5.36 7.97s1.94 6.26 1.94 9.69-.65 6.66-1.94 9.69-3.08 5.68-5.36 7.97c-2.28 2.28-4.93 4.07-7.94 5.36s-6.25 1.94-9.72 1.94zm0-3.39c2.99 0 5.78-.56 8.39-1.67 2.6-1.11 4.9-2.66 6.88-4.63 1.98-1.98 3.52-4.27 4.63-6.88 1.11-2.6 1.67-5.4 1.67-8.39s-.56-5.78-1.67-8.39c-1.11-2.6-2.66-4.9-4.63-6.88-1.98-1.98-4.27-3.52-6.88-4.63-2.6-1.11-5.4-1.67-8.39-1.67s-5.78.56-8.39 1.67c-2.6 1.11-4.9 2.66-6.88 4.63-1.98 1.98-3.52 4.27-4.63 6.88-1.11 2.6-1.67 5.4-1.67 8.39s.56 5.78 1.67 8.39c1.11 2.6 2.66 4.9 4.63 6.88 1.98 1.98 4.27 3.52 6.88 4.63 2.6 1.11 5.4 1.67 8.39 1.67zm-1.51-8.66v-16.72c0-.93.03-1.85.09-2.76s.11-1.79.15-2.64c-.16.16-.33.31-.51.45s-.35.31-.51.52c-.2.2-.72.61-1.55 1.24s-1.97 1.46-3.42 2.51l-2.06-2.97 7.69-5.57h4.36v25.93h-4.24z" fill="#340000" fill-rule="nonzero"/></svg>