<svg clip-rule="evenodd" fill-rule="evenodd" height="3.2884mm" image-rendering="optimizeQuality" shape-rendering="geometricPrecision" text-rendering="geometricPrecision" viewBox="0 0 22.68 22.68" width="3.2884mm" xmlns="http://www.w3.org/2000/svg"><path d="m11.34 22.68c-1.58 0-3.05-.29-4.42-.88s-2.57-1.4-3.61-2.44-1.85-2.24-2.44-3.62-.88-2.84-.88-4.4.29-3.03.88-4.4c.59-1.38 1.4-2.58 2.44-3.62s2.24-1.85 3.61-2.44 2.84-.88 4.42-.88 3.05.29 4.42.88 2.57 1.4 3.61 2.44 1.85 2.24 2.44 3.62.88 2.84.88 4.4-.29 3.03-.88 4.4c-.59 1.38-1.4 2.58-2.44 3.62s-2.24 1.85-3.61 2.44-2.84.88-4.42.88zm0-1.54c1.36 0 2.63-.25 3.81-.76 1.18-.5 2.22-1.21 3.12-2.11s1.6-1.94 2.11-3.12c.5-1.18.76-2.45.76-3.81s-.25-2.63-.76-3.81c-.5-1.18-1.21-2.22-2.11-3.12s-1.94-1.6-3.12-2.11c-1.18-.5-2.45-.76-3.81-.76s-2.63.25-3.81.76c-1.18.5-2.22 1.21-3.12 2.11s-1.6 1.94-2.11 3.12c-.5 1.18-.76 2.45-.76 3.81s.25 2.63.76 3.81c.5 1.18 1.21 2.22 2.11 3.12s1.94 1.6 3.12 2.11c1.18.5 2.45.76 3.81.76zm-.69-3.94v-7.6c0-.42.01-.84.04-1.25s.05-.81.07-1.2c-.07.07-.15.14-.23.21-.08.06-.16.14-.23.23-.09.09-.33.28-.7.56-.38.28-.89.66-1.56 1.14l-.94-1.35 3.5-2.53h1.98v11.78h-1.93z" fill="#e6e6e6" fill-rule="nonzero"/></svg>