<?xml version="1.0" encoding="UTF-8"?>
<!DOCTYPE svg PUBLIC "-//W3C//DTD SVG 1.1//EN" "http://www.w3.org/Graphics/SVG/1.1/DTD/svg11.dtd">
<!-- Creator: CorelDRAW -->
<svg xmlns="http://www.w3.org/2000/svg" xml:space="preserve" width="4mm" height="4mm" version="1.1" shape-rendering="geometricPrecision" text-rendering="geometricPrecision" image-rendering="optimizeQuality" fill-rule="evenodd" clip-rule="evenodd"
viewBox="0 0 60.72 60.72"
 xmlns:xlink="http://www.w3.org/1999/xlink"
 xmlns:xodm="http://www.corel.com/coreldraw/odm/2003">
 <g id="Faceplate">
  <metadata id="CorelCorpID_0Corel-Layer"/>
  <circle fill="black" cx="30.36" cy="30.36" r="30.36"/>
 </g>
 <g id="Lights">
  <metadata id="CorelCorpID_1Corel-Layer"/>
  <path id="From_x0020_one" fill="#FF0B0B" fill-rule="nonzero" d="M30.36 55.31c-3.47,0 -6.71,-0.65 -9.72,-1.94 -3.01,-1.29 -5.65,-3.08 -7.94,-5.36 -2.28,-2.28 -4.07,-4.94 -5.36,-7.97 -1.29,-3.03 -1.94,-6.26 -1.94,-9.69 0,-3.43 0.65,-6.66 1.94,-9.69 1.29,-3.03 3.08,-5.68 5.36,-7.97 2.28,-2.28 4.93,-4.07 7.94,-5.36 3.01,-1.29 6.25,-1.94 9.72,-1.94 3.47,0 6.71,0.65 9.72,1.94 3.01,1.29 5.65,3.08 7.94,5.36 2.28,2.28 4.07,4.94 5.36,7.97 1.29,3.03 1.94,6.26 1.94,9.69 0,3.43 -0.65,6.66 -1.94,9.69 -1.29,3.03 -3.08,5.68 -5.36,7.97 -2.28,2.28 -4.93,4.07 -7.94,5.36 -3.01,1.29 -6.25,1.94 -9.72,1.94zm0 -3.39c2.99,0 5.78,-0.56 8.39,-1.67 2.6,-1.11 4.9,-2.66 6.88,-4.63 1.98,-1.98 3.52,-4.27 4.63,-6.88 1.11,-2.6 1.67,-5.4 1.67,-8.39 0,-2.99 -0.56,-5.78 -1.67,-8.39 -1.11,-2.6 -2.66,-4.9 -4.63,-6.88 -1.98,-1.98 -4.27,-3.52 -6.88,-4.63 -2.6,-1.11 -5.4,-1.67 -8.39,-1.67 -2.99,0 -5.78,0.56 -8.39,1.67 -2.6,1.11 -4.9,2.66 -6.88,4.63 -1.98,1.98 -3.52,4.27 -4.63,6.88 -1.11,2.6 -1.67,5.4 -1.67,8.39 0,2.99 0.56,5.78 1.67,8.39 1.11,2.6 2.66,4.9 4.63,6.88 1.98,1.98 4.27,3.52 6.88,4.63 2.6,1.11 5.4,1.67 8.39,1.67zm-1.51 -8.66l0 -16.72c0,-0.93 0.03,-1.85 0.09,-2.76 0.06,-0.91 0.11,-1.79 0.15,-2.64 -0.16,0.16 -0.33,0.31 -0.51,0.45 -0.18,0.14 -0.35,0.31 -0.51,0.52 -0.2,0.2 -0.72,0.61 -1.55,1.24 -0.83,0.63 -1.97,1.46 -3.42,2.51l-2.06 -2.97 7.69 -5.57 4.36 0 0 25.93 -4.24 0z"/>
 </g>
</svg>
