<svg clip-rule="evenodd" fill-rule="evenodd" height="7.8304mm" image-rendering="optimizeQuality" shape-rendering="geometricPrecision" text-rendering="geometricPrecision" viewBox="0 0 66.93 66.93" width="7.8304mm" xmlns="http://www.w3.org/2000/svg"><path d="m0 0h66.93v66.93h-66.93z"/><path d="m7.25 59.68v-52.43h52.43v52.43zm3.72-3.72h44.98v-44.98h-44.98zm8.84-31.1c-1.29 0-2.39-.47-3.3-1.4s-1.36-2.02-1.36-3.26c0-1.19.44-2.26 1.32-3.22s1.99-1.44 3.34-1.44c1.29 0 2.39.45 3.3 1.36.9.9 1.36 2 1.36 3.3 0 1.29-.45 2.39-1.36 3.3s-2 1.36-3.3 1.36zm27.3 0c-1.29 0-2.39-.47-3.3-1.4s-1.36-2.02-1.36-3.26c0-1.19.44-2.26 1.32-3.22s1.99-1.44 3.34-1.44c1.29 0 2.39.45 3.3 1.36.9.9 1.36 2 1.36 3.3 0 1.29-.45 2.39-1.36 3.3s-2 1.36-3.3 1.36zm-27.3 13.26c-1.29 0-2.39-.45-3.3-1.36s-1.36-2-1.36-3.3c0-1.19.44-2.26 1.32-3.22s1.99-1.43 3.34-1.43c1.29 0 2.39.45 3.3 1.36.9.9 1.36 2 1.36 3.3 0 1.34-.48 2.46-1.44 3.34s-2.03 1.32-3.22 1.32zm27.3 0c-1.29 0-2.39-.45-3.3-1.36s-1.36-2-1.36-3.3c0-1.19.44-2.26 1.32-3.22s1.99-1.43 3.34-1.43c1.29 0 2.39.45 3.3 1.36.9.9 1.36 2 1.36 3.3 0 1.34-.48 2.46-1.44 3.34s-2.03 1.32-3.22 1.32zm-27.3 13.26c-1.29 0-2.39-.47-3.3-1.4s-1.36-2.02-1.36-3.26c0-1.19.44-2.26 1.32-3.22s1.99-1.43 3.34-1.43c1.29 0 2.39.45 3.3 1.36.9.9 1.36 2 1.36 3.3 0 1.29-.45 2.39-1.36 3.3-.91.9-2 1.36-3.3 1.36zm27.3 0c-1.29 0-2.39-.47-3.3-1.4s-1.36-2.02-1.36-3.26c0-1.19.44-2.26 1.32-3.22s1.99-1.43 3.34-1.43c1.29 0 2.39.45 3.3 1.36.9.9 1.36 2 1.36 3.3 0 1.29-.45 2.39-1.36 3.3-.91.9-2 1.36-3.3 1.36z" fill="#effa6e" fill-rule="nonzero"/></svg>