<?xml version="1.0" encoding="UTF-8"?>
<!DOCTYPE svg PUBLIC "-//W3C//DTD SVG 1.1//EN" "http://www.w3.org/Graphics/SVG/1.1/DTD/svg11.dtd">
<!-- Creator: CorelDRAW -->
<svg xmlns="http://www.w3.org/2000/svg" xml:space="preserve" width="7.8304mm" height="7.8304mm" version="1.1" shape-rendering="geometricPrecision" text-rendering="geometricPrecision" image-rendering="optimizeQuality" fill-rule="evenodd" clip-rule="evenodd"
viewBox="0 0 66.93 66.93"
 xmlns:xlink="http://www.w3.org/1999/xlink"
 xmlns:xodm="http://www.corel.com/coreldraw/odm/2003">
 <g id="Faceplate">
  <metadata id="CorelCorpID_0Corel-Layer"/>
  <rect fill="black" x="-0" y="-0" width="66.93" height="66.93"/>
 </g>
 <g id="Lights">
  <metadata id="CorelCorpID_1Corel-Layer"/>
  <path fill="#EFFA6E" fill-rule="nonzero" d="M7.25 59.68l0 -52.43 52.43 0 0 52.43 -52.43 0zm3.72 -3.72l44.98 0 0 -44.98 -44.98 0 0 44.98zm8.84 -31.1c-1.29,0 -2.39,-0.47 -3.3,-1.4 -0.91,-0.93 -1.36,-2.02 -1.36,-3.26 0,-1.19 0.44,-2.26 1.32,-3.22 0.88,-0.96 1.99,-1.44 3.34,-1.44 1.29,0 2.39,0.45 3.3,1.36 0.9,0.9 1.36,2 1.36,3.3 0,1.29 -0.45,2.39 -1.36,3.3 -0.91,0.91 -2,1.36 -3.3,1.36zm27.3 0c-1.29,0 -2.39,-0.47 -3.3,-1.4 -0.91,-0.93 -1.36,-2.02 -1.36,-3.26 0,-1.19 0.44,-2.26 1.32,-3.22 0.88,-0.96 1.99,-1.44 3.34,-1.44 1.29,0 2.39,0.45 3.3,1.36 0.9,0.9 1.36,2 1.36,3.3 0,1.29 -0.45,2.39 -1.36,3.3 -0.91,0.91 -2,1.36 -3.3,1.36zm-27.3 13.26c-1.29,0 -2.39,-0.45 -3.3,-1.36 -0.91,-0.91 -1.36,-2 -1.36,-3.3 0,-1.19 0.44,-2.26 1.32,-3.22 0.88,-0.96 1.99,-1.43 3.34,-1.43 1.29,0 2.39,0.45 3.3,1.36 0.9,0.9 1.36,2 1.36,3.3 0,1.34 -0.48,2.46 -1.44,3.34 -0.96,0.88 -2.03,1.32 -3.22,1.32zm27.3 0c-1.29,0 -2.39,-0.45 -3.3,-1.36 -0.91,-0.91 -1.36,-2 -1.36,-3.3 0,-1.19 0.44,-2.26 1.32,-3.22 0.88,-0.96 1.99,-1.43 3.34,-1.43 1.29,0 2.39,0.45 3.3,1.36 0.9,0.9 1.36,2 1.36,3.3 0,1.34 -0.48,2.46 -1.44,3.34 -0.96,0.88 -2.03,1.32 -3.22,1.32zm-27.3 13.26c-1.29,0 -2.39,-0.47 -3.3,-1.4 -0.91,-0.93 -1.36,-2.02 -1.36,-3.26 0,-1.19 0.44,-2.26 1.32,-3.22 0.88,-0.96 1.99,-1.43 3.34,-1.43 1.29,0 2.39,0.45 3.3,1.36 0.9,0.9 1.36,2 1.36,3.3 0,1.29 -0.45,2.39 -1.36,3.3 -0.91,0.9 -2,1.36 -3.3,1.36zm27.3 0c-1.29,0 -2.39,-0.47 -3.3,-1.4 -0.91,-0.93 -1.36,-2.02 -1.36,-3.26 0,-1.19 0.44,-2.26 1.32,-3.22 0.88,-0.96 1.99,-1.43 3.34,-1.43 1.29,0 2.39,0.45 3.3,1.36 0.9,0.9 1.36,2 1.36,3.3 0,1.29 -0.45,2.39 -1.36,3.3 -0.91,0.9 -2,1.36 -3.3,1.36z"/>
 </g>
</svg>
