<?xml version="1.0" encoding="UTF-8"?>
<!DOCTYPE svg PUBLIC "-//W3C//DTD SVG 1.1//EN" "http://www.w3.org/Graphics/SVG/1.1/DTD/svg11.dtd">
<!-- Creator: CorelDRAW -->
<svg xmlns="http://www.w3.org/2000/svg" xml:space="preserve" width="4mm" height="4mm" version="1.1" shape-rendering="geometricPrecision" text-rendering="geometricPrecision" image-rendering="optimizeQuality" fill-rule="evenodd" clip-rule="evenodd"
viewBox="0 0 30.72 30.72"
 xmlns:xlink="http://www.w3.org/1999/xlink"
 xmlns:xodm="http://www.corel.com/coreldraw/odm/2003">
 <g id="Faceplate">
  <metadata id="CorelCorpID_0Corel-Layer"/>
  <circle fill="black" cx="15.36" cy="15.36" r="15.36"/>
 </g>
 <g id="Lights">
  <metadata id="CorelCorpID_1Corel-Layer"/>
  <path id="Benzene" fill="#E6E6E6" fill-rule="nonzero" d="M15.36 27.98l-11.1 -5.47 0 -14.31 11.1 -5.47 11.1 5.47 0 14.31 -11.1 5.47zm0 -2.43l8.9 -4.34 0 -11.72 -8.9 -4.34 -8.9 4.34 0 11.72 8.9 4.34zm6.73 -13.56l-7.06 -3.5 0.62 -1.26 7.09 3.5 -0.65 1.26zm-13.89 8.38l0 -10.04 1.39 0 0 10.04 -1.39 0zm7.45 3.11l-0.62 -1.26 7.06 -3.5 0.65 1.26 -7.09 3.5z"/>
 </g>
</svg>
