<svg clip-rule="evenodd" fill-rule="evenodd" height="3.288mm" image-rendering="optimizeQuality" shape-rendering="geometricPrecision" text-rendering="geometricPrecision" viewBox="0 0 11.11 14.2" width="2.5718mm" xmlns="http://www.w3.org/2000/svg"><g fill="#e6e6e6"><path d="m7.13 12.4c.79-.23 1.48-.61 2.07-1.13.6-.52 1.06-1.14 1.4-1.86s.51-1.5.51-2.32c0-.71-.13-1.4-.4-2.07s-.65-1.25-1.15-1.74c-.08-.08-.15-.15-.21-.2s-.11-.09-.15-.13l-.83.94c.04.04.07.07.11.11.03.03.07.06.11.09.4.4.71.87.92 1.39s.32 1.07.32 1.63c0 .59-.11 1.15-.34 1.68s-.54 1-.94 1.4-.88.71-1.43.93l-.07-2.1-2.63 2.83 2.8 2.35-.07-1.8z"/><path d="m2.74 10.29c-.04-.04-.07-.07-.11-.1-.03-.03-.06-.06-.09-.1-.4-.4-.71-.86-.93-1.39-.22-.52-.32-1.06-.32-1.61 0-.59.11-1.15.33-1.68s.53-1 .94-1.41.89-.72 1.44-.94l.07 2.08 2.64-2.83-2.83-2.33.07 1.79c-.77.23-1.45.61-2.05 1.13s-1.07 1.14-1.41 1.85c-.34.71-.51 1.48-.51 2.31 0 .73.14 1.43.41 2.1.28.67.67 1.27 1.19 1.79.07.07.12.12.18.17.05.05.11.09.18.14l.79-.98z"/></g></svg>