<svg clip-rule="evenodd" fill-rule="evenodd" height="4mm" image-rendering="optimizeQuality" shape-rendering="geometricPrecision" text-rendering="geometricPrecision" viewBox="0 0 13.89 13.89" width="4mm" xmlns="http://www.w3.org/2000/svg"><circle cx="6.94" cy="6.94" r="6.94"/><g fill="#002e00"><path d="m8.21 11.2c.63-.19 1.19-.49 1.67-.91s.85-.92 1.12-1.5.41-1.2.41-1.86c0-.57-.11-1.13-.32-1.67s-.52-1-.92-1.4c-.07-.07-.12-.12-.17-.16s-.09-.07-.12-.1l-.67.76c.03.03.06.06.08.08.03.03.05.05.08.07.32.32.57.7.74 1.12s.25.86.25 1.31c0 .47-.09.93-.27 1.35-.18.43-.43.8-.76 1.12-.32.32-.71.57-1.15.75l-.06-1.68-2.11 2.27 2.25 1.89-.06-1.45z"/><path d="m4.68 9.51c-.03-.03-.06-.06-.08-.08-.03-.02-.05-.05-.07-.08-.32-.32-.57-.69-.75-1.11-.17-.42-.26-.85-.26-1.29 0-.47.09-.92.27-1.35s.43-.8.76-1.13.71-.58 1.16-.75l.06 1.67 2.12-2.27-2.27-1.88.06 1.44c-.62.19-1.17.49-1.65.91s-.86.91-1.13 1.49c-.27.57-.41 1.19-.41 1.85 0 .59.11 1.15.33 1.69s.54 1.02.95 1.44c.05.05.1.1.14.14s.09.08.14.11l.63-.79z"/></g></svg>