<svg clip-rule="evenodd" fill-rule="evenodd" height="5.1088mm" image-rendering="optimizeQuality" shape-rendering="geometricPrecision" text-rendering="geometricPrecision" viewBox="0 0 20.36 30.49" width="3.4119mm" xmlns="http://www.w3.org/2000/svg"><path d="m10.56 30.49c-3.21 0-5.78-1.19-7.69-3.57s-2.87-5.87-2.87-10.45c0-5.42 1.21-9.51 3.63-12.29s6.14-4.17 11.15-4.17c.61 0 1.24.02 1.87.05.63.04 1.18.11 1.65.22v5.04c-.58-.14-1.18-.25-1.81-.32s-1.27-.11-1.92-.11c-2.82 0-4.92.78-6.31 2.33s-2.23 3.88-2.52 6.99h.27c.69-1.16 1.54-2.02 2.57-2.6s2.28-.87 3.76-.87c2.64 0 4.63.85 5.98 2.55s2.03 3.99 2.03 6.88c0 3.18-.86 5.7-2.57 7.55-1.72 1.86-4.12 2.79-7.23 2.79zm-.11-5.25c2.56 0 3.85-1.68 3.85-5.04 0-1.44-.31-2.58-.92-3.41s-1.55-1.25-2.82-1.25c-1.16 0-2.17.42-3.03 1.27-.87.85-1.3 2.07-1.3 3.66 0 1.41.38 2.55 1.14 3.44.76.88 1.79 1.33 3.09 1.33z" fill="#e6e6e6" fill-rule="nonzero"/></svg>