<svg clip-rule="evenodd" fill-rule="evenodd" height="7.6mm" image-rendering="optimizeQuality" shape-rendering="geometricPrecision" text-rendering="geometricPrecision" viewBox="0 0 42.9 42.9" width="7.6mm" xmlns="http://www.w3.org/2000/svg"><circle cx="21.45" cy="21.45" r="21.45"/><path d="m21.45 35.89c-1.26 0-2.59-.13-3.97-.38-1.38-.26-2.72-.64-4.02-1.15v-5.02c1.19.55 2.47.97 3.82 1.28s2.59.46 3.71.46c3.28 0 4.92-1.35 4.92-4.05 0-1.37-.47-2.32-1.41-2.87s-2.54-.82-4.79-.82h-2.15v-4.56h2.2c2.01 0 3.47-.32 4.38-.97s1.36-1.59 1.36-2.82c0-.89-.25-1.63-.74-2.23-.5-.6-1.39-.9-2.69-.9-1.64 0-3.67.67-6.1 2l-2.56-4.1c1.3-.89 2.72-1.57 4.28-2.05 1.55-.48 3.12-.72 4.69-.72 1.5 0 2.9.23 4.2.69s2.35 1.18 3.15 2.15 1.2 2.26 1.2 3.87c0 1.64-.47 3.1-1.41 4.38s-2.3 2.14-4.07 2.59v.15c2.22.31 3.82 1.02 4.81 2.13s1.49 2.57 1.49 4.38c0 1.98-.46 3.6-1.38 4.87-.92 1.26-2.16 2.19-3.71 2.79s-3.29.9-5.2.9z" fill="#333" fill-rule="nonzero"/></svg>