<svg clip-rule="evenodd" fill-rule="evenodd" height="5.0452mm" image-rendering="optimizeQuality" shape-rendering="geometricPrecision" text-rendering="geometricPrecision" viewBox="0 0 17.41 28.06" width="3.1306mm" xmlns="http://www.w3.org/2000/svg"><path d="m6.86 28.06c-1.14 0-2.33-.13-3.56-.38s-2.33-.63-3.31-1.14v-5.05c1.11.57 2.28 1 3.51 1.29s2.38.43 3.46.43c3.03 0 4.54-1.38 4.54-4.14 0-1.68-.47-2.84-1.41-3.48s-2-.96-3.18-.96c-.74 0-1.49.05-2.25.15s-1.39.27-1.89.5l-2.32-1.16 1.11-14.13h14.33v4.79h-9.29l-.45 5.6c.61-.13 1.16-.22 1.67-.25.5-.03.94-.05 1.31-.05 2.35 0 4.32.73 5.9 2.2 1.58 1.46 2.37 3.59 2.37 6.38 0 2.09-.46 3.83-1.39 5.22-.93 1.4-2.19 2.44-3.79 3.13s-3.39 1.03-5.37 1.03z" fill="#e6e6e6" fill-rule="nonzero"/></svg>