<svg clip-rule="evenodd" fill-rule="evenodd" height="7.6mm" image-rendering="optimizeQuality" shape-rendering="geometricPrecision" text-rendering="geometricPrecision" viewBox="0 0 41.83 41.83" width="7.6mm" xmlns="http://www.w3.org/2000/svg"><circle cx="20.91" cy="20.91" r="20.91"/><path d="m20.71 34.97c-2.96 0-5.33-1.1-7.09-3.3s-2.65-5.41-2.65-9.64c0-4.99 1.12-8.77 3.35-11.34 2.23-2.56 5.66-3.85 10.29-3.85.57 0 1.14.02 1.72.05s1.09.1 1.52.2v4.64c-.53-.13-1.09-.23-1.67-.3s-1.17-.1-1.77-.1c-2.6 0-4.54.72-5.82 2.15s-2.06 3.58-2.32 6.44h.25c.63-1.07 1.42-1.86 2.37-2.4.95-.53 2.11-.8 3.47-.8 2.43 0 4.27.78 5.52 2.35 1.25 1.56 1.87 3.68 1.87 6.34 0 2.93-.79 5.25-2.37 6.97-1.58 1.71-3.8 2.57-6.67 2.57zm-.1-4.84c2.36 0 3.55-1.55 3.55-4.64 0-1.33-.28-2.38-.85-3.15s-1.43-1.15-2.6-1.15c-1.07 0-2 .39-2.8 1.17s-1.2 1.91-1.2 3.37c0 1.3.35 2.36 1.05 3.17.7.82 1.65 1.22 2.85 1.22z" fill="#00cf4c" fill-rule="nonzero"/></svg>