<?xml version="1.0" encoding="UTF-8"?>
<!DOCTYPE svg PUBLIC "-//W3C//DTD SVG 1.1//EN" "http://www.w3.org/Graphics/SVG/1.1/DTD/svg11.dtd">
<!-- Creator: CorelDRAW -->
<svg xmlns="http://www.w3.org/2000/svg" xml:space="preserve" width="7.6mm" height="7.6mm" version="1.1" shape-rendering="geometricPrecision" text-rendering="geometricPrecision" image-rendering="optimizeQuality" fill-rule="evenodd" clip-rule="evenodd"
viewBox="0 0 42.9 42.9"
 xmlns:xlink="http://www.w3.org/1999/xlink"
 xmlns:xodm="http://www.corel.com/coreldraw/odm/2003">
 <g id="Faceplate">
  <metadata id="CorelCorpID_0Corel-Layer"/>
  <circle fill="black" cx="21.45" cy="21.45" r="21.45"/>
 </g>
 <g id="Lights">
  <metadata id="CorelCorpID_1Corel-Layer"/>
  <path fill="#333333" fill-rule="nonzero" d="M21.45 35.89c-1.26,0 -2.59,-0.13 -3.97,-0.38 -1.38,-0.26 -2.72,-0.64 -4.02,-1.15l0 -5.02c1.19,0.55 2.47,0.97 3.82,1.28 1.35,0.31 2.59,0.46 3.71,0.46 3.28,0 4.92,-1.35 4.92,-4.05 0,-1.37 -0.47,-2.32 -1.41,-2.87 -0.94,-0.55 -2.54,-0.82 -4.79,-0.82l-2.15 0 0 -4.56 2.2 0c2.01,0 3.47,-0.32 4.38,-0.97 0.91,-0.65 1.36,-1.59 1.36,-2.82 0,-0.89 -0.25,-1.63 -0.74,-2.23 -0.5,-0.6 -1.39,-0.9 -2.69,-0.9 -1.64,0 -3.67,0.67 -6.1,2l-2.56 -4.1c1.3,-0.89 2.72,-1.57 4.28,-2.05 1.55,-0.48 3.12,-0.72 4.69,-0.72 1.5,0 2.9,0.23 4.2,0.69 1.3,0.46 2.35,1.18 3.15,2.15 0.8,0.97 1.2,2.26 1.2,3.87 0,1.64 -0.47,3.1 -1.41,4.38 -0.94,1.28 -2.3,2.14 -4.07,2.59l0 0.15c2.22,0.31 3.82,1.02 4.81,2.13 0.99,1.11 1.49,2.57 1.49,4.38 0,1.98 -0.46,3.6 -1.38,4.87 -0.92,1.26 -2.16,2.19 -3.71,2.79 -1.55,0.6 -3.29,0.9 -5.2,0.9z"/>
 </g>
</svg>
