<svg clip-rule="evenodd" fill-rule="evenodd" height="7.6mm" image-rendering="optimizeQuality" shape-rendering="geometricPrecision" text-rendering="geometricPrecision" viewBox="0 0 49.56 49.56" width="7.6mm" xmlns="http://www.w3.org/2000/svg"><circle cx="24.78" cy="24.78" r="24.78"/><path d="m14.13 41.23v-4.73l7.93-7.93c1.93-1.93 3.59-3.7 4.97-5.3s2.07-3.3 2.07-5.12c0-1.3-.38-2.32-1.15-3.05s-1.77-1.09-2.99-1.09-2.4.28-3.52.83-2.34 1.4-3.64 2.54l-3.73-4.44c1.18-1.03 2.32-1.88 3.4-2.57 1.09-.69 2.26-1.2 3.52-1.54s2.74-.5 4.44-.5c3.31 0 5.9.86 7.75 2.57 1.85 1.72 2.78 3.86 2.78 6.42 0 1.93-.42 3.7-1.27 5.3s-1.96 3.11-3.34 4.53-2.9 2.86-4.56 4.32l-4.2 3.67v.47h14.2v5.62z" fill="#cf2600" fill-rule="nonzero"/></svg>