<?xml version="1.0" encoding="UTF-8"?>
<!DOCTYPE svg PUBLIC "-//W3C//DTD SVG 1.1//EN" "http://www.w3.org/Graphics/SVG/1.1/DTD/svg11.dtd">
<!-- Creator: CorelDRAW -->
<svg xmlns="http://www.w3.org/2000/svg" xml:space="preserve" width="7.6mm" height="7.6mm" version="1.1" shape-rendering="geometricPrecision" text-rendering="geometricPrecision" image-rendering="optimizeQuality" fill-rule="evenodd" clip-rule="evenodd"
viewBox="0 0 45.17 45.17"
 xmlns:xlink="http://www.w3.org/1999/xlink"
 xmlns:xodm="http://www.corel.com/coreldraw/odm/2003">
 <g id="Faceplate">
  <metadata id="CorelCorpID_0Corel-Layer"/>
  <circle fill="black" cx="22.58" cy="22.58" r="22.58"/>
 </g>
 <g id="Lights">
  <metadata id="CorelCorpID_1Corel-Layer"/>
  <path fill="#00CF4C" fill-rule="nonzero" d="M22.64 37.41l0 -6.15 -12.03 0 0 -4.37 12.13 -19.14 5.61 0 0 18.66 3.83 0 0 4.85 -3.83 0 0 6.15 -5.72 0zm-6.53 -11l6.53 0 0 -5.02c0,-0.32 0.01,-0.81 0.03,-1.46 0.02,-0.65 0.05,-1.33 0.08,-2.05 0.04,-0.72 0.07,-1.35 0.11,-1.89 0.04,-0.54 0.05,-0.86 0.05,-0.97l-0.16 0c-0.25,0.58 -0.52,1.11 -0.81,1.62 -0.29,0.5 -0.61,1.04 -0.97,1.62l-4.85 8.14z"/>
 </g>
</svg>
