<?xml version="1.0" encoding="UTF-8"?>
<!DOCTYPE svg PUBLIC "-//W3C//DTD SVG 1.1//EN" "http://www.w3.org/Graphics/SVG/1.1/DTD/svg11.dtd">
<!-- Creator: CorelDRAW -->
<svg xmlns="http://www.w3.org/2000/svg" xml:space="preserve" width="7.6mm" height="7.6mm" version="1.1" shape-rendering="geometricPrecision" text-rendering="geometricPrecision" image-rendering="optimizeQuality" fill-rule="evenodd" clip-rule="evenodd"
viewBox="0 0 42.9 42.9"
 xmlns:xlink="http://www.w3.org/1999/xlink"
 xmlns:xodm="http://www.corel.com/coreldraw/odm/2003">
 <g id="Faceplate">
  <metadata id="CorelCorpID_0Corel-Layer"/>
  <circle fill="black" cx="21.45" cy="21.45" r="21.45"/>
 </g>
 <g id="Lights">
  <metadata id="CorelCorpID_1Corel-Layer"/>
  <path fill="#333333" fill-rule="nonzero" d="M22.01 35.87c-2.7,0 -4.95,-0.61 -6.76,-1.82 -1.81,-1.21 -2.71,-3.12 -2.71,-5.71 0,-1.6 0.39,-3.02 1.18,-4.25 0.79,-1.23 2.05,-2.32 3.79,-3.28 -1.47,-0.99 -2.52,-2.07 -3.15,-3.25 -0.63,-1.18 -0.95,-2.45 -0.95,-3.82 0,-1.47 0.39,-2.7 1.18,-3.69 0.79,-0.99 1.83,-1.74 3.12,-2.25 1.3,-0.51 2.73,-0.77 4.3,-0.77 1.57,0 3,0.25 4.3,0.74 1.3,0.5 2.34,1.24 3.12,2.23 0.79,0.99 1.18,2.25 1.18,3.79 0,1.43 -0.37,2.71 -1.1,3.84 -0.73,1.13 -1.92,2.13 -3.56,3.02 1.98,1.13 3.4,2.3 4.25,3.51 0.85,1.21 1.28,2.55 1.28,4.02 0,1.67 -0.43,3.08 -1.28,4.23 -0.85,1.14 -2,2.01 -3.43,2.59 -1.43,0.58 -3.02,0.87 -4.76,0.87zm0 -17.72c1.13,-0.58 1.91,-1.18 2.36,-1.79 0.44,-0.61 0.67,-1.33 0.67,-2.15 0,-0.79 -0.28,-1.41 -0.85,-1.87 -0.56,-0.46 -1.31,-0.69 -2.23,-0.69 -0.85,0 -1.56,0.23 -2.13,0.69 -0.56,0.46 -0.85,1.08 -0.85,1.87 0,0.96 0.27,1.72 0.82,2.31 0.55,0.58 1.28,1.13 2.2,1.64zm-0.1 13.11c1.4,0 2.43,-0.3 3.1,-0.9 0.67,-0.6 1,-1.37 1,-2.33 0,-0.85 -0.34,-1.66 -1.02,-2.41 -0.68,-0.75 -1.76,-1.55 -3.23,-2.41 -2.49,1.26 -3.74,2.87 -3.74,4.81 0,0.99 0.36,1.78 1.08,2.36 0.72,0.58 1.66,0.87 2.82,0.87z"/>
 </g>
</svg>
