<?xml version="1.0" encoding="UTF-8"?>
<!DOCTYPE svg PUBLIC "-//W3C//DTD SVG 1.1//EN" "http://www.w3.org/Graphics/SVG/1.1/DTD/svg11.dtd">
<!-- Creator: CorelDRAW -->
<svg xmlns="http://www.w3.org/2000/svg" xml:space="preserve" width="7.6mm" height="7.6mm" version="1.1" shape-rendering="geometricPrecision" text-rendering="geometricPrecision" image-rendering="optimizeQuality" fill-rule="evenodd" clip-rule="evenodd"
viewBox="0 0 41.83 41.83"
 xmlns:xlink="http://www.w3.org/1999/xlink"
 xmlns:xodm="http://www.corel.com/coreldraw/odm/2003">
 <g id="Faceplate">
  <metadata id="CorelCorpID_0Corel-Layer"/>
  <circle fill="black" cx="20.91" cy="20.91" r="20.91"/>
 </g>
 <g id="Lights">
  <metadata id="CorelCorpID_1Corel-Layer"/>
  <path fill="#CF2600" fill-rule="nonzero" d="M20.71 34.97c-2.96,0 -5.33,-1.1 -7.09,-3.3 -1.76,-2.2 -2.65,-5.41 -2.65,-9.64 0,-4.99 1.12,-8.77 3.35,-11.34 2.23,-2.56 5.66,-3.85 10.29,-3.85 0.57,0 1.14,0.02 1.72,0.05 0.58,0.03 1.09,0.1 1.52,0.2l0 4.64c-0.53,-0.13 -1.09,-0.23 -1.67,-0.3 -0.58,-0.07 -1.17,-0.1 -1.77,-0.1 -2.6,0 -4.54,0.72 -5.82,2.15 -1.28,1.43 -2.06,3.58 -2.32,6.44l0.25 0c0.63,-1.07 1.42,-1.86 2.37,-2.4 0.95,-0.53 2.11,-0.8 3.47,-0.8 2.43,0 4.27,0.78 5.52,2.35 1.25,1.56 1.87,3.68 1.87,6.34 0,2.93 -0.79,5.25 -2.37,6.97 -1.58,1.71 -3.8,2.57 -6.67,2.57zm-0.1 -4.84c2.36,0 3.55,-1.55 3.55,-4.64 0,-1.33 -0.28,-2.38 -0.85,-3.15 -0.57,-0.77 -1.43,-1.15 -2.6,-1.15 -1.07,0 -2,0.39 -2.8,1.17 -0.8,0.78 -1.2,1.91 -1.2,3.37 0,1.3 0.35,2.36 1.05,3.17 0.7,0.82 1.65,1.22 2.85,1.22z"/>
 </g>
</svg>
