<svg clip-rule="evenodd" fill-rule="evenodd" height="5.1087mm" image-rendering="optimizeQuality" shape-rendering="geometricPrecision" text-rendering="geometricPrecision" viewBox="0 0 19.87 30.24" width="3.3574mm" xmlns="http://www.w3.org/2000/svg"><path d="m9.94 30.24c-2.83 0-5.19-.64-7.09-1.91s-2.85-3.27-2.85-5.99c0-1.68.41-3.17 1.24-4.46.82-1.29 2.15-2.44 3.97-3.44-1.54-1.04-2.64-2.18-3.3-3.41-.66-1.24-.99-2.57-.99-4 0-1.54.41-2.83 1.24-3.87.82-1.04 1.92-1.83 3.28-2.36 1.36-.54 2.86-.81 4.51-.81s3.15.26 4.51.78 2.45 1.3 3.28 2.34c.82 1.04 1.24 2.36 1.24 3.97 0 1.5-.38 2.85-1.15 4.03s-2.01 2.24-3.73 3.17c2.08 1.18 3.56 2.41 4.46 3.68s1.34 2.68 1.34 4.22c0 1.75-.45 3.23-1.34 4.43-.9 1.2-2.09 2.1-3.6 2.71-1.5.61-3.17.91-5 .91zm0-18.58c1.18-.61 2.01-1.24 2.47-1.88.47-.64.7-1.4.7-2.26 0-.82-.3-1.48-.89-1.96s-1.37-.73-2.34-.73c-.9 0-1.64.24-2.23.73-.59.48-.89 1.14-.89 1.96 0 1 .29 1.81.86 2.42s1.34 1.18 2.31 1.72zm-.11 13.75c1.47 0 2.55-.31 3.25-.94s1.05-1.44 1.05-2.44c0-.9-.36-1.74-1.07-2.52-.72-.79-1.84-1.63-3.38-2.52-2.61 1.32-3.92 3.01-3.92 5.05 0 1.04.38 1.86 1.13 2.47s1.74.91 2.95.91z" fill="#e6e6e6" fill-rule="nonzero"/></svg>