<?xml version="1.0" encoding="UTF-8"?>
<!DOCTYPE svg PUBLIC "-//W3C//DTD SVG 1.1//EN" "http://www.w3.org/Graphics/SVG/1.1/DTD/svg11.dtd">
<!-- Creator: CorelDRAW -->
<svg xmlns="http://www.w3.org/2000/svg" xml:space="preserve" width="7.6mm" height="7.6mm" version="1.1" shape-rendering="geometricPrecision" text-rendering="geometricPrecision" image-rendering="optimizeQuality" fill-rule="evenodd" clip-rule="evenodd"
viewBox="0 0 41.44 41.44"
 xmlns:xlink="http://www.w3.org/1999/xlink"
 xmlns:xodm="http://www.corel.com/coreldraw/odm/2003">
 <g id="Faceplate">
  <metadata id="CorelCorpID_0Corel-Layer"/>
  <circle fill="black" cx="20.72" cy="20.72" r="20.72"/>
 </g>
 <g id="Lights">
  <metadata id="CorelCorpID_1Corel-Layer"/>
  <path fill="#CF2600" fill-rule="nonzero" d="M20.72 34.67c-1.22,0 -2.5,-0.12 -3.83,-0.37 -1.34,-0.25 -2.63,-0.62 -3.88,-1.11l0 -4.85c1.15,0.53 2.38,0.94 3.69,1.24 1.3,0.3 2.5,0.45 3.59,0.45 3.17,0 4.75,-1.3 4.75,-3.91 0,-1.32 -0.45,-2.24 -1.36,-2.77 -0.91,-0.53 -2.45,-0.79 -4.63,-0.79l-2.08 0 0 -4.4 2.13 0c1.95,0 3.36,-0.31 4.23,-0.94 0.87,-0.63 1.31,-1.53 1.31,-2.72 0,-0.86 -0.24,-1.58 -0.72,-2.15 -0.48,-0.58 -1.34,-0.87 -2.6,-0.87 -1.58,0 -3.55,0.64 -5.89,1.93l-2.47 -3.96c1.25,-0.86 2.63,-1.52 4.13,-1.98 1.5,-0.46 3.01,-0.69 4.53,-0.69 1.45,0 2.8,0.22 4.06,0.67 1.25,0.45 2.27,1.14 3.04,2.08 0.78,0.94 1.16,2.19 1.16,3.74 0,1.58 -0.45,2.99 -1.36,4.23 -0.91,1.24 -2.22,2.07 -3.93,2.5l0 0.15c2.14,0.3 3.69,0.98 4.65,2.05 0.96,1.07 1.44,2.48 1.44,4.23 0,1.91 -0.45,3.48 -1.34,4.7 -0.89,1.22 -2.09,2.12 -3.59,2.7 -1.5,0.58 -3.17,0.87 -5.02,0.87z"/>
 </g>
</svg>
