<svg clip-rule="evenodd" fill-rule="evenodd" height="7.6mm" image-rendering="optimizeQuality" shape-rendering="geometricPrecision" text-rendering="geometricPrecision" viewBox="0 0 41.44 41.44" width="7.6mm" xmlns="http://www.w3.org/2000/svg"><circle cx="20.72" cy="20.72" r="20.72"/><path d="m20.72 34.67c-1.22 0-2.5-.12-3.83-.37-1.34-.25-2.63-.62-3.88-1.11v-4.85c1.15.53 2.38.94 3.69 1.24 1.3.3 2.5.45 3.59.45 3.17 0 4.75-1.3 4.75-3.91 0-1.32-.45-2.24-1.36-2.77s-2.45-.79-4.63-.79h-2.08v-4.4h2.13c1.95 0 3.36-.31 4.23-.94s1.31-1.53 1.31-2.72c0-.86-.24-1.58-.72-2.15-.48-.58-1.34-.87-2.6-.87-1.58 0-3.55.64-5.89 1.93l-2.47-3.96c1.25-.86 2.63-1.52 4.13-1.98s3.01-.69 4.53-.69c1.45 0 2.8.22 4.06.67 1.25.45 2.27 1.14 3.04 2.08.78.94 1.16 2.19 1.16 3.74 0 1.58-.45 2.99-1.36 4.23s-2.22 2.07-3.93 2.5v.15c2.14.3 3.69.98 4.65 2.05s1.44 2.48 1.44 4.23c0 1.91-.45 3.48-1.34 4.7s-2.09 2.12-3.59 2.7-3.17.87-5.02.87z" fill="#cf2600" fill-rule="nonzero"/></svg>