<?xml version="1.0" encoding="UTF-8"?>
<!DOCTYPE svg PUBLIC "-//W3C//DTD SVG 1.1//EN" "http://www.w3.org/Graphics/SVG/1.1/DTD/svg11.dtd">
<!-- Creator: CorelDRAW -->
<svg xmlns="http://www.w3.org/2000/svg" xml:space="preserve" width="7.6mm" height="7.6mm" version="1.1" shape-rendering="geometricPrecision" text-rendering="geometricPrecision" image-rendering="optimizeQuality" fill-rule="evenodd" clip-rule="evenodd"
viewBox="0 0 46.52 46.52"
 xmlns:xlink="http://www.w3.org/1999/xlink"
 xmlns:xodm="http://www.corel.com/coreldraw/odm/2003">
 <g id="Faceplate">
  <metadata id="CorelCorpID_0Corel-Layer"/>
  <circle fill="black" cx="23.26" cy="23.26" r="23.26"/>
 </g>
 <g id="Lights">
  <metadata id="CorelCorpID_1Corel-Layer"/>
  <path fill="#CF2600" fill-rule="nonzero" d="M22.46 38.7c-1.26,0 -2.56,-0.14 -3.92,-0.42 -1.35,-0.28 -2.56,-0.69 -3.64,-1.25l0 -5.55c1.22,0.63 2.51,1.1 3.86,1.42 1.35,0.31 2.62,0.47 3.8,0.47 3.33,0 5,-1.52 5,-4.55 0,-1.85 -0.52,-3.13 -1.56,-3.83 -1.04,-0.7 -2.2,-1.06 -3.5,-1.06 -0.81,0 -1.64,0.06 -2.47,0.17 -0.83,0.11 -1.53,0.3 -2.08,0.56l-2.55 -1.28 1.22 -15.55 15.77 0 0 5.28 -10.22 0 -0.5 6.17c0.67,-0.15 1.28,-0.24 1.83,-0.28 0.56,-0.04 1.04,-0.06 1.44,-0.06 2.59,0 4.76,0.81 6.5,2.42 1.74,1.61 2.61,3.95 2.61,7.03 0,2.3 -0.51,4.21 -1.53,5.75 -1.02,1.54 -2.41,2.68 -4.17,3.44 -1.76,0.76 -3.73,1.14 -5.92,1.14z"/>
 </g>
</svg>
