<svg clip-rule="evenodd" fill-rule="evenodd" height="7.6mm" image-rendering="optimizeQuality" shape-rendering="geometricPrecision" text-rendering="geometricPrecision" viewBox="0 0 42.9 42.9" width="7.6mm" xmlns="http://www.w3.org/2000/svg"><circle cx="21.45" cy="21.45" r="21.45"/><path d="m22.01 35.87c-2.7 0-4.95-.61-6.76-1.82s-2.71-3.12-2.71-5.71c0-1.6.39-3.02 1.18-4.25s2.05-2.32 3.79-3.28c-1.47-.99-2.52-2.07-3.15-3.25s-.95-2.45-.95-3.82c0-1.47.39-2.7 1.18-3.69s1.83-1.74 3.12-2.25c1.3-.51 2.73-.77 4.3-.77s3 .25 4.3.74c1.3.5 2.34 1.24 3.12 2.23.79.99 1.18 2.25 1.18 3.79 0 1.43-.37 2.71-1.1 3.84s-1.92 2.13-3.56 3.02c1.98 1.13 3.4 2.3 4.25 3.51s1.28 2.55 1.28 4.02c0 1.67-.43 3.08-1.28 4.23-.85 1.14-2 2.01-3.43 2.59s-3.02.87-4.76.87zm0-17.72c1.13-.58 1.91-1.18 2.36-1.79.44-.61.67-1.33.67-2.15 0-.79-.28-1.41-.85-1.87-.56-.46-1.31-.69-2.23-.69-.85 0-1.56.23-2.13.69-.56.46-.85 1.08-.85 1.87 0 .96.27 1.72.82 2.31.55.58 1.28 1.13 2.2 1.64zm-.1 13.11c1.4 0 2.43-.3 3.1-.9s1-1.37 1-2.33c0-.85-.34-1.66-1.02-2.41s-1.76-1.55-3.23-2.41c-2.49 1.26-3.74 2.87-3.74 4.81 0 .99.36 1.78 1.08 2.36s1.66.87 2.82.87z" fill="#333" fill-rule="nonzero"/></svg>