<?xml version="1.0" encoding="UTF-8"?>
<!DOCTYPE svg PUBLIC "-//W3C//DTD SVG 1.1//EN" "http://www.w3.org/Graphics/SVG/1.1/DTD/svg11.dtd">
<!-- Creator: CorelDRAW -->
<svg xmlns="http://www.w3.org/2000/svg" xml:space="preserve" width="7.6mm" height="7.6mm" version="1.1" shape-rendering="geometricPrecision" text-rendering="geometricPrecision" image-rendering="optimizeQuality" fill-rule="evenodd" clip-rule="evenodd"
viewBox="0 0 42.9 42.9"
 xmlns:xlink="http://www.w3.org/1999/xlink"
 xmlns:xodm="http://www.corel.com/coreldraw/odm/2003">
 <g id="Faceplate">
  <metadata id="CorelCorpID_0Corel-Layer"/>
  <circle fill="black" cx="21.45" cy="21.45" r="21.45"/>
 </g>
 <g id="Lights">
  <metadata id="CorelCorpID_1Corel-Layer"/>
  <path fill="#333333" fill-rule="nonzero" d="M12.23 35.69l0 -4.1 6.86 -6.86c1.67,-1.67 3.11,-3.2 4.3,-4.58 1.19,-1.38 1.79,-2.86 1.79,-4.43 0,-1.13 -0.33,-2.01 -1,-2.64 -0.67,-0.63 -1.53,-0.95 -2.59,-0.95 -1.06,0 -2.07,0.24 -3.05,0.72 -0.97,0.48 -2.02,1.21 -3.15,2.2l-3.23 -3.84c1.02,-0.89 2.01,-1.63 2.95,-2.23 0.94,-0.6 1.95,-1.04 3.05,-1.33 1.09,-0.29 2.37,-0.44 3.84,-0.44 2.87,0 5.11,0.74 6.71,2.23 1.6,1.49 2.41,3.34 2.41,5.56 0,1.67 -0.37,3.2 -1.1,4.58 -0.73,1.38 -1.7,2.69 -2.89,3.92 -1.19,1.23 -2.51,2.48 -3.94,3.74l-3.64 3.18 0 0.41 12.29 0 0 4.87 -19.62 0z"/>
 </g>
</svg>
