<svg clip-rule="evenodd" fill-rule="evenodd" height="7.6mm" image-rendering="optimizeQuality" shape-rendering="geometricPrecision" text-rendering="geometricPrecision" viewBox="0 0 42.9 42.9" width="7.6mm" xmlns="http://www.w3.org/2000/svg"><circle cx="21.45" cy="21.45" r="21.45"/><path d="m20.71 35.69c-1.16 0-2.36-.13-3.61-.38-1.25-.26-2.36-.64-3.36-1.15v-5.12c1.13.58 2.31 1.02 3.56 1.31s2.42.44 3.51.44c3.07 0 4.61-1.4 4.61-4.2 0-1.71-.48-2.89-1.43-3.53-.96-.65-2.03-.97-3.23-.97-.75 0-1.51.05-2.28.15s-1.41.27-1.92.51l-2.36-1.18 1.13-14.34h14.55v4.87h-9.42l-.46 5.69c.61-.14 1.18-.22 1.69-.26.51-.03.96-.05 1.33-.05 2.39 0 4.39.74 5.99 2.23s2.41 3.65 2.41 6.48c0 2.12-.47 3.88-1.41 5.3s-2.22 2.48-3.84 3.18-3.44 1.05-5.46 1.05z" fill="#333" fill-rule="nonzero"/></svg>