<?xml version="1.0" encoding="UTF-8"?>
<!DOCTYPE svg PUBLIC "-//W3C//DTD SVG 1.1//EN" "http://www.w3.org/Graphics/SVG/1.1/DTD/svg11.dtd">
<!-- Creator: CorelDRAW -->
<svg xmlns="http://www.w3.org/2000/svg" xml:space="preserve" width="7.6mm" height="7.6mm" version="1.1" shape-rendering="geometricPrecision" text-rendering="geometricPrecision" image-rendering="optimizeQuality" fill-rule="evenodd" clip-rule="evenodd"
viewBox="0 0 37.81 37.81"
 xmlns:xlink="http://www.w3.org/1999/xlink"
 xmlns:xodm="http://www.corel.com/coreldraw/odm/2003">
 <g id="Faceplate">
  <metadata id="CorelCorpID_0Corel-Layer"/>
  <circle fill="black" cx="18.91" cy="18.9" r="18.91"/>
 </g>
 <g id="Lights">
  <metadata id="CorelCorpID_1Corel-Layer"/>
  <path fill="#00CF4C" fill-rule="nonzero" d="M18.91 31.61c-2.38,0 -4.36,-0.53 -5.96,-1.6 -1.59,-1.07 -2.39,-2.75 -2.39,-5.03 0,-1.41 0.35,-2.66 1.04,-3.75 0.69,-1.08 1.81,-2.05 3.34,-2.89 -1.29,-0.87 -2.22,-1.83 -2.78,-2.87 -0.56,-1.04 -0.84,-2.16 -0.84,-3.36 0,-1.29 0.35,-2.38 1.04,-3.25 0.69,-0.87 1.61,-1.53 2.75,-1.99 1.14,-0.45 2.41,-0.68 3.79,-0.68 1.38,0 2.65,0.22 3.79,0.65 1.14,0.44 2.06,1.09 2.75,1.96 0.69,0.87 1.04,1.99 1.04,3.34 0,1.26 -0.32,2.39 -0.97,3.39 -0.65,0.99 -1.69,1.88 -3.14,2.66 1.75,0.99 2.99,2.02 3.75,3.09 0.75,1.07 1.13,2.25 1.13,3.54 0,1.47 -0.38,2.72 -1.13,3.72 -0.75,1.01 -1.76,1.77 -3.02,2.28 -1.26,0.51 -2.66,0.77 -4.2,0.77zm0 -15.62c0.99,-0.51 1.69,-1.04 2.08,-1.58 0.39,-0.54 0.59,-1.17 0.59,-1.9 0,-0.69 -0.25,-1.24 -0.75,-1.65 -0.5,-0.41 -1.15,-0.61 -1.96,-0.61 -0.75,0 -1.38,0.2 -1.87,0.61 -0.5,0.41 -0.74,0.96 -0.74,1.65 0,0.84 0.24,1.52 0.72,2.03 0.48,0.51 1.13,0.99 1.94,1.44zm-0.09 11.56c1.23,0 2.14,-0.26 2.73,-0.79 0.59,-0.53 0.88,-1.21 0.88,-2.05 0,-0.75 -0.3,-1.46 -0.9,-2.12 -0.6,-0.66 -1.55,-1.37 -2.84,-2.12 -2.2,1.11 -3.3,2.53 -3.3,4.24 0,0.87 0.32,1.57 0.95,2.08 0.63,0.51 1.46,0.77 2.48,0.77z"/>
 </g>
</svg>
