<svg clip-rule="evenodd" fill-rule="evenodd" height="5.0453mm" image-rendering="optimizeQuality" shape-rendering="geometricPrecision" text-rendering="geometricPrecision" viewBox="0 0 21.36 30.93" width="3.4845mm" xmlns="http://www.w3.org/2000/svg"><path d="m.06 30.93v-4.45l7.45-7.45c1.82-1.82 3.37-3.48 4.67-4.98s1.95-3.11 1.95-4.81c0-1.22-.36-2.18-1.08-2.86-.72-.69-1.66-1.03-2.81-1.03s-2.25.26-3.31.78-2.2 1.32-3.42 2.39l-3.5-4.17c1.11-.96 2.18-1.77 3.2-2.42s2.12-1.13 3.31-1.45 2.58-.47 4.17-.47c3.11 0 5.54.81 7.29 2.42 1.74 1.61 2.61 3.63 2.61 6.04 0 1.82-.4 3.48-1.2 4.98s-1.85 2.92-3.14 4.26c-1.3 1.34-2.73 2.69-4.28 4.06l-3.95 3.45v.45h13.35v5.28h-21.3z" fill="#e6e6e6" fill-rule="nonzero"/></svg>