<svg clip-rule="evenodd" fill-rule="evenodd" height="5.1178mm" image-rendering="optimizeQuality" shape-rendering="geometricPrecision" text-rendering="geometricPrecision" viewBox="0 0 18.71 29.47" width="3.2486mm" xmlns="http://www.w3.org/2000/svg"><path d="m8.2 29.47c-1.29 0-2.64-.13-4.05-.39s-2.78-.65-4.1-1.18v-5.12c1.22.56 2.52.99 3.89 1.31 1.38.31 2.64.47 3.79.47 3.34 0 5.02-1.38 5.02-4.13 0-1.39-.48-2.37-1.44-2.93s-2.59-.84-4.89-.84h-2.19v-4.65h2.25c2.06 0 3.54-.33 4.47-.99.92-.66 1.39-1.62 1.39-2.87 0-.91-.25-1.66-.76-2.27s-1.42-.91-2.74-.91c-1.67 0-3.75.68-6.22 2.04l-2.61-4.18c1.32-.91 2.78-1.6 4.36-2.09 1.58-.49 3.18-.73 4.78-.73 1.53 0 2.96.23 4.29.71 1.32.47 2.4 1.2 3.21 2.19.82.99 1.23 2.31 1.23 3.95 0 1.67-.48 3.16-1.44 4.47s-2.34 2.19-4.15 2.64v.16c2.27.31 3.9 1.04 4.91 2.17s1.52 2.62 1.52 4.47c0 2.02-.47 3.68-1.41 4.96-.94 1.29-2.2 2.24-3.79 2.85s-3.35.91-5.3.91z" fill="#e6e6e6" fill-rule="nonzero"/></svg>