<?xml version="1.0" encoding="UTF-8"?>
<!DOCTYPE svg PUBLIC "-//W3C//DTD SVG 1.1//EN" "http://www.w3.org/Graphics/SVG/1.1/DTD/svg11.dtd">
<!-- Creator: CorelDRAW -->
<svg xmlns="http://www.w3.org/2000/svg" xml:space="preserve" width="7.6mm" height="7.6mm" version="1.1" shape-rendering="geometricPrecision" text-rendering="geometricPrecision" image-rendering="optimizeQuality" fill-rule="evenodd" clip-rule="evenodd"
viewBox="0 0 49.56 49.56"
 xmlns:xlink="http://www.w3.org/1999/xlink"
 xmlns:xodm="http://www.corel.com/coreldraw/odm/2003">
 <g id="Faceplate">
  <metadata id="CorelCorpID_0Corel-Layer"/>
  <circle fill="black" cx="24.78" cy="24.78" r="24.78"/>
 </g>
 <g id="Lights">
  <metadata id="CorelCorpID_1Corel-Layer"/>
  <path fill="#CF2600" fill-rule="nonzero" d="M14.13 41.23l0 -4.73 7.93 -7.93c1.93,-1.93 3.59,-3.7 4.97,-5.3 1.38,-1.6 2.07,-3.3 2.07,-5.12 0,-1.3 -0.38,-2.32 -1.15,-3.05 -0.77,-0.73 -1.77,-1.09 -2.99,-1.09 -1.22,0 -2.4,0.28 -3.52,0.83 -1.12,0.55 -2.34,1.4 -3.64,2.54l-3.73 -4.44c1.18,-1.03 2.32,-1.88 3.4,-2.57 1.09,-0.69 2.26,-1.2 3.52,-1.54 1.26,-0.34 2.74,-0.5 4.44,-0.5 3.31,0 5.9,0.86 7.75,2.57 1.85,1.72 2.78,3.86 2.78,6.42 0,1.93 -0.42,3.7 -1.27,5.3 -0.85,1.6 -1.96,3.11 -3.34,4.53 -1.38,1.42 -2.9,2.86 -4.56,4.32l-4.2 3.67 0 0.47 14.2 0 0 5.62 -22.66 0z"/>
 </g>
</svg>
