<svg clip-rule="evenodd" fill-rule="evenodd" height="7.6mm" image-rendering="optimizeQuality" shape-rendering="geometricPrecision" text-rendering="geometricPrecision" viewBox="0 0 42.9 42.9" width="7.6mm" xmlns="http://www.w3.org/2000/svg"><circle cx="21.45" cy="21.45" r="21.45"/><path d="m12.23 35.69v-4.1l6.86-6.86c1.67-1.67 3.11-3.2 4.3-4.58s1.79-2.86 1.79-4.43c0-1.13-.33-2.01-1-2.64s-1.53-.95-2.59-.95-2.07.24-3.05.72c-.97.48-2.02 1.21-3.15 2.2l-3.23-3.84c1.02-.89 2.01-1.63 2.95-2.23s1.95-1.04 3.05-1.33c1.09-.29 2.37-.44 3.84-.44 2.87 0 5.11.74 6.71 2.23s2.41 3.34 2.41 5.56c0 1.67-.37 3.2-1.1 4.58s-1.7 2.69-2.89 3.92-2.51 2.48-3.94 3.74l-3.64 3.18v.41h12.29v4.87h-19.62z" fill="#333" fill-rule="nonzero"/></svg>