<svg clip-rule="evenodd" fill-rule="evenodd" height="7.6mm" image-rendering="optimizeQuality" shape-rendering="geometricPrecision" text-rendering="geometricPrecision" viewBox="0 0 37.81 37.81" width="7.6mm" xmlns="http://www.w3.org/2000/svg"><circle cx="18.91" cy="18.9" r="18.91"/><path d="m18.91 31.61c-2.38 0-4.36-.53-5.96-1.6-1.59-1.07-2.39-2.75-2.39-5.03 0-1.41.35-2.66 1.04-3.75.69-1.08 1.81-2.05 3.34-2.89-1.29-.87-2.22-1.83-2.78-2.87s-.84-2.16-.84-3.36c0-1.29.35-2.38 1.04-3.25s1.61-1.53 2.75-1.99c1.14-.45 2.41-.68 3.79-.68s2.65.22 3.79.65c1.14.44 2.06 1.09 2.75 1.96s1.04 1.99 1.04 3.34c0 1.26-.32 2.39-.97 3.39-.65.99-1.69 1.88-3.14 2.66 1.75.99 2.99 2.02 3.75 3.09.75 1.07 1.13 2.25 1.13 3.54 0 1.47-.38 2.72-1.13 3.72-.75 1.01-1.76 1.77-3.02 2.28s-2.66.77-4.2.77zm0-15.62c.99-.51 1.69-1.04 2.08-1.58s.59-1.17.59-1.9c0-.69-.25-1.24-.75-1.65s-1.15-.61-1.96-.61c-.75 0-1.38.2-1.87.61-.5.41-.74.96-.74 1.65 0 .84.24 1.52.72 2.03s1.13.99 1.94 1.44zm-.09 11.56c1.23 0 2.14-.26 2.73-.79s.88-1.21.88-2.05c0-.75-.3-1.46-.9-2.12s-1.55-1.37-2.84-2.12c-2.2 1.11-3.3 2.53-3.3 4.24 0 .87.32 1.57.95 2.08s1.46.77 2.48.77z" fill="#cf2600" fill-rule="nonzero"/></svg>