<svg clip-rule="evenodd" fill-rule="evenodd" height="7.6mm" image-rendering="optimizeQuality" shape-rendering="geometricPrecision" text-rendering="geometricPrecision" viewBox="0 0 46.52 46.52" width="7.6mm" xmlns="http://www.w3.org/2000/svg"><circle cx="23.26" cy="23.26" r="23.26"/><path d="m22.46 38.7c-1.26 0-2.56-.14-3.92-.42-1.35-.28-2.56-.69-3.64-1.25v-5.55c1.22.63 2.51 1.1 3.86 1.42 1.35.31 2.62.47 3.8.47 3.33 0 5-1.52 5-4.55 0-1.85-.52-3.13-1.56-3.83s-2.2-1.06-3.5-1.06c-.81 0-1.64.06-2.47.17s-1.53.3-2.08.56l-2.55-1.28 1.22-15.55h15.77v5.28h-10.22l-.5 6.17c.67-.15 1.28-.24 1.83-.28.56-.04 1.04-.06 1.44-.06 2.59 0 4.76.81 6.5 2.42s2.61 3.95 2.61 7.03c0 2.3-.51 4.21-1.53 5.75s-2.41 2.68-4.17 3.44-3.73 1.14-5.92 1.14z" fill="#00cf4c" fill-rule="nonzero"/></svg>