<?xml version="1.0" encoding="UTF-8"?>
<!DOCTYPE svg PUBLIC "-//W3C//DTD SVG 1.1//EN" "http://www.w3.org/Graphics/SVG/1.1/DTD/svg11.dtd">
<!-- Creator: CorelDRAW -->
<svg xmlns="http://www.w3.org/2000/svg" xml:space="preserve" width="7.6mm" height="7.6mm" version="1.1" shape-rendering="geometricPrecision" text-rendering="geometricPrecision" image-rendering="optimizeQuality" fill-rule="evenodd" clip-rule="evenodd"
viewBox="0 0 42.9 42.9"
 xmlns:xlink="http://www.w3.org/1999/xlink"
 xmlns:xodm="http://www.corel.com/coreldraw/odm/2003">
 <g id="Faceplate">
  <metadata id="CorelCorpID_0Corel-Layer"/>
  <circle fill="black" cx="21.45" cy="21.45" r="21.45"/>
 </g>
 <g id="Lights">
  <metadata id="CorelCorpID_1Corel-Layer"/>
  <path fill="#333333" fill-rule="nonzero" d="M20.71 35.69c-1.16,0 -2.36,-0.13 -3.61,-0.38 -1.25,-0.26 -2.36,-0.64 -3.36,-1.15l0 -5.12c1.13,0.58 2.31,1.02 3.56,1.31 1.25,0.29 2.42,0.44 3.51,0.44 3.07,0 4.61,-1.4 4.61,-4.2 0,-1.71 -0.48,-2.89 -1.43,-3.53 -0.96,-0.65 -2.03,-0.97 -3.23,-0.97 -0.75,0 -1.51,0.05 -2.28,0.15 -0.77,0.1 -1.41,0.27 -1.92,0.51l-2.36 -1.18 1.13 -14.34 14.55 0 0 4.87 -9.42 0 -0.46 5.69c0.61,-0.14 1.18,-0.22 1.69,-0.26 0.51,-0.03 0.96,-0.05 1.33,-0.05 2.39,0 4.39,0.74 5.99,2.23 1.6,1.49 2.41,3.65 2.41,6.48 0,2.12 -0.47,3.88 -1.41,5.3 -0.94,1.42 -2.22,2.48 -3.84,3.18 -1.62,0.7 -3.44,1.05 -5.46,1.05z"/>
 </g>
</svg>
