<?xml version="1.0" encoding="UTF-8"?>
<!DOCTYPE svg PUBLIC "-//W3C//DTD SVG 1.1//EN" "http://www.w3.org/Graphics/SVG/1.1/DTD/svg11.dtd">
<!-- Creator: CorelDRAW -->
<svg xmlns="http://www.w3.org/2000/svg" xml:space="preserve" width="4.6038mm" height="5.0041mm" version="1.1" shape-rendering="geometricPrecision" text-rendering="geometricPrecision" image-rendering="optimizeQuality" fill-rule="evenodd" clip-rule="evenodd"
viewBox="0 0 115.66 125.72"
 xmlns:xlink="http://www.w3.org/1999/xlink"
 xmlns:xodm="http://www.corel.com/coreldraw/odm/2003">
 <g id="Lights">
  <metadata id="CorelCorpID_0Corel-Layer"/>
  <path id="URANUS" fill="#00A7FF" fill-rule="nonzero" d="M58.09 125.72c-4.04,0 -7.72,-0.98 -11.01,-2.95 -3.29,-1.97 -5.92,-4.6 -7.89,-7.89 -1.96,-3.29 -2.95,-6.96 -2.95,-11.01 0,-4.97 1.5,-9.42 4.51,-13.35 3.01,-3.93 6.82,-6.47 11.45,-7.63l0 -33.64 -23.93 0 0 39.71 -28.27 0 0 -11.44 16.13 0 0 -66.07 -16.13 0 0 -11.45 28.27 0 0 38.32 23.93 0 0 -38.32 11.27 0 0 38.32 23.93 0 0 -38.32 28.27 0 0 11.45 -16.13 0 0 66.07 16.13 0 0 11.44 -28.27 0 0 -39.71 -23.93 0 0 33.47c4.86,1.27 8.82,3.9 11.88,7.89 3.06,3.99 4.6,8.41 4.6,13.26 0,3.93 -0.95,7.54 -2.86,10.84 -1.91,3.3 -4.51,5.95 -7.8,7.98 -3.29,2.02 -7.02,3.03 -11.18,3.03zm0 -10.58c3.24,0 5.93,-1.07 8.06,-3.21 2.14,-2.14 3.21,-4.83 3.21,-8.06 0,-3.12 -1.1,-5.78 -3.3,-7.98 -2.2,-2.2 -4.85,-3.29 -7.98,-3.29 -3.24,0 -5.92,1.07 -8.06,3.21 -2.14,2.14 -3.21,4.83 -3.21,8.06 0,3.24 1.07,5.92 3.21,8.06 2.14,2.14 4.83,3.21 8.06,3.21z"/>
 </g>
</svg>
